<svg width="64" height="64" viewBox="0 0 64 64" fill="none" xmlns="http://www.w3.org/2000/svg">
<path d="M31.04 51.3504L16.225 42.8384C15.7773 42.5801 15.4053 42.2087 15.1464 41.7613C14.8875 41.3139 14.7508 40.8063 14.75 40.2894V33.6194L31.04 42.9804V51.3504ZM21.954 26.2564L31.04 21.0174V12.6504L16.215 21.2504C15.7698 21.5094 15.4002 21.8806 15.1432 22.327C14.8861 22.7734 14.7506 23.2793 14.75 23.7944V30.2434C14.75 30.9964 15.15 31.6954 15.799 32.0764L21.949 35.6904L21.954 26.2564ZM32.96 21.0204L49.25 30.3804V23.7104C49.2496 23.1932 49.1129 22.6852 48.8538 22.2375C48.5947 21.7899 48.2223 21.4184 47.774 21.1604L32.96 12.6504V21.0204ZM42.046 37.7424L32.96 42.9834V51.3504L47.785 42.7504C48.2301 42.4912 48.5995 42.12 48.8566 41.6736C49.1136 41.2273 49.2492 40.7214 49.25 40.2064V33.7574C49.25 33.0044 48.85 32.3054 48.201 31.9244L42.05 28.3104L42.046 37.7424Z" fill="white"/>
</svg>
