<svg width="64" height="64" viewBox="0 0 64 64" fill="none" xmlns="http://www.w3.org/2000/svg">
<g clip-path="url(#clip0_2122_4374)">
<rect width="35.8551" height="35.8551" rx="4.37833" transform="matrix(0.866025 0.5 -0.866025 0.5 31.8887 19)" fill="url(#paint0_linear_2122_4374)"/>
<rect width="26.8913" height="4.48189" transform="matrix(0.866025 0.5 0 1 4.71875 39.1685)" fill="url(#paint1_linear_2122_4374)"/>
<rect width="26.8913" height="4.48189" transform="matrix(0.866025 -0.5 0 1 35.7695 52.6143)" fill="url(#paint2_linear_2122_4374)"/>
<path d="M3.11133 36.9275C3.11133 37.8026 3.72572 38.5949 4.71907 39.1684V43.6503C3.72572 43.0768 3.11133 42.2845 3.11133 41.4094V36.9275Z" fill="url(#paint3_linear_2122_4374)"/>
<path d="M28.0059 52.6143C30.1495 53.8519 33.6251 53.8519 35.7687 52.6143V57.0961C33.6251 58.3338 30.1495 58.3338 28.0059 57.0961V52.6143Z" fill="url(#paint4_linear_2122_4374)"/>
<path d="M60.6663 36.9275C60.6663 37.8026 60.0519 38.5949 59.0586 39.1684V43.6503C60.0519 43.0768 60.6663 42.2845 60.6663 41.4094V36.9275Z" fill="url(#paint5_linear_2122_4374)"/>
<g clip-path="url(#clip1_2122_4374)">
<rect width="35.8992" height="35.8992" rx="4.44179" transform="matrix(0.866025 0.5 -0.866025 0.5 31.9102 19)" fill="url(#paint6_linear_2122_4374)"/>
<rect width="11.5594" height="11.5594" transform="matrix(0.866025 0.5 -0.866025 0.5 31.9102 19)" fill="black" fill-opacity="0.1"/>
<rect width="11.5594" height="11.5594" transform="matrix(0.866025 0.5 -0.866025 0.5 21.3711 25.085)" fill="black" fill-opacity="0.1"/>
<rect width="11.5594" height="11.5594" transform="matrix(0.866025 0.5 -0.866025 0.5 21.3711 37.2549)" fill="black" fill-opacity="0.1"/>
<rect width="11.5594" height="11.5594" transform="matrix(0.866025 0.5 -0.866025 0.5 42.4492 25.085)" fill="black" fill-opacity="0.1"/>
<rect width="11.5594" height="11.5594" transform="matrix(0.866025 0.5 -0.866025 0.5 42.4492 37.2549)" fill="black" fill-opacity="0.1"/>
<rect width="11.5594" height="11.5594" transform="matrix(0.866025 0.5 -0.866025 0.5 52.9883 31.1699)" fill="black" fill-opacity="0.1"/>
<rect width="11.5594" height="11.5594" transform="matrix(0.866025 0.5 -0.866025 0.5 10.832 31.1699)" fill="black" fill-opacity="0.1"/>
<rect width="11.5594" height="11.5594" transform="matrix(0.866025 0.5 -0.866025 0.5 31.9102 43.3398)" fill="black" fill-opacity="0.1"/>
<rect width="11.5594" height="11.5594" transform="matrix(0.866025 0.5 -0.866025 0.5 31.9102 31.1699)" fill="black" fill-opacity="0.1"/>
</g>
<rect width="36.3283" height="36.3283" rx="4.43612" transform="matrix(0.866025 0.5 -0.866025 0.5 31.4785 18.4607)" fill="url(#paint7_linear_2122_4374)"/>
<rect width="27.2462" height="4.54104" transform="matrix(0.866025 0.5 0 1 3.94922 38.8958)" fill="url(#paint8_linear_2122_4374)"/>
<rect width="27.2462" height="4.54104" transform="matrix(0.866025 -0.5 0 1 35.4102 52.5186)" fill="url(#paint9_linear_2122_4374)"/>
<path d="M2.32031 36.625C2.32031 37.5117 2.94282 38.3144 3.94927 38.8955V43.4366C2.94282 42.8555 2.32031 42.0527 2.32031 41.166V36.625Z" fill="url(#paint10_linear_2122_4374)"/>
<path d="M27.5449 52.5186C29.7169 53.7725 33.2383 53.7725 35.4102 52.5186V57.0596C33.2383 58.3136 29.7169 58.3136 27.5449 57.0596V52.5186Z" fill="url(#paint11_linear_2122_4374)"/>
<path d="M60.6348 36.625C60.6348 37.5117 60.0123 38.3144 59.0059 38.8955V43.4366C60.0123 42.8555 60.6348 42.0527 60.6348 41.166V36.625Z" fill="url(#paint12_linear_2122_4374)"/>
<g clip-path="url(#clip2_2122_4374)">
<rect width="11.712" height="11.712" transform="matrix(0.866025 0.5 -0.866025 0.5 31.5 18.4607)" fill="white" fill-opacity="0.2"/>
<rect width="11.712" height="11.712" transform="matrix(0.866025 0.5 -0.866025 0.5 20.8223 24.626)" fill="white" fill-opacity="0.2"/>
<rect width="11.712" height="11.712" transform="matrix(0.866025 0.5 -0.866025 0.5 20.8223 36.9565)" fill="white" fill-opacity="0.2"/>
<rect width="11.712" height="11.712" transform="matrix(0.866025 0.5 -0.866025 0.5 42.1777 24.626)" fill="white" fill-opacity="0.2"/>
<rect width="11.712" height="11.712" transform="matrix(0.866025 0.5 -0.866025 0.5 42.1777 36.9565)" fill="white" fill-opacity="0.2"/>
<rect width="11.712" height="11.712" transform="matrix(0.866025 0.5 -0.866025 0.5 52.8574 30.7913)" fill="white" fill-opacity="0.2"/>
<rect width="11.712" height="11.712" transform="matrix(0.866025 0.5 -0.866025 0.5 10.1426 30.7913)" fill="white" fill-opacity="0.2"/>
<rect width="11.712" height="11.712" transform="matrix(0.866025 0.5 -0.866025 0.5 31.5 43.1221)" fill="white" fill-opacity="0.2"/>
<rect width="11.712" height="11.712" transform="matrix(0.866025 0.5 -0.866025 0.5 31.5 30.7913)" fill="white" fill-opacity="0.2"/>
</g>
</g>
<mask id="path-33-outside-1_2122_4374" maskUnits="userSpaceOnUse" x="10.3535" y="22.5" width="14" height="19" fill="black">
<rect fill="white" x="10.3535" y="22.5" width="14" height="19"/>
<path d="M11.4517 40.5V37.9452L17.4211 32.4179C17.9288 31.9266 18.3546 31.4845 18.6985 31.0914C19.0479 30.6984 19.3126 30.3135 19.4928 29.9368C19.6729 29.5547 19.763 29.1425 19.763 28.7004C19.763 28.2091 19.6511 27.786 19.4273 27.4311C19.2034 27.0709 18.8977 26.7952 18.5101 26.6041C18.1226 26.4076 17.6831 26.3093 17.1918 26.3093C16.6786 26.3093 16.231 26.413 15.8489 26.6205C15.4667 26.8279 15.172 27.1254 14.9645 27.513C14.7571 27.9006 14.6534 28.3619 14.6534 28.8969H11.2879C11.2879 27.7996 11.5363 26.847 12.033 26.0391C12.5298 25.2312 13.2258 24.6061 14.1211 24.1639C15.0164 23.7218 16.0481 23.5007 17.2164 23.5007C18.4173 23.5007 19.4627 23.7136 20.3526 24.1394C21.2478 24.5597 21.9439 25.1438 22.4406 25.8917C22.9374 26.6396 23.1858 27.4967 23.1858 28.4629C23.1858 29.0961 23.0602 29.7212 22.8091 30.3381C22.5635 30.9549 22.124 31.64 21.4908 32.3934C20.8575 33.1413 19.965 34.0393 18.8131 35.0874L16.3648 37.4866V37.6013H23.4069V40.5H11.4517Z"/>
</mask>
<path d="M11.4517 40.5V37.9452L17.4211 32.4179C17.9288 31.9266 18.3546 31.4845 18.6985 31.0914C19.0479 30.6984 19.3126 30.3135 19.4928 29.9368C19.6729 29.5547 19.763 29.1425 19.763 28.7004C19.763 28.2091 19.6511 27.786 19.4273 27.4311C19.2034 27.0709 18.8977 26.7952 18.5101 26.6041C18.1226 26.4076 17.6831 26.3093 17.1918 26.3093C16.6786 26.3093 16.231 26.413 15.8489 26.6205C15.4667 26.8279 15.172 27.1254 14.9645 27.513C14.7571 27.9006 14.6534 28.3619 14.6534 28.8969H11.2879C11.2879 27.7996 11.5363 26.847 12.033 26.0391C12.5298 25.2312 13.2258 24.6061 14.1211 24.1639C15.0164 23.7218 16.0481 23.5007 17.2164 23.5007C18.4173 23.5007 19.4627 23.7136 20.3526 24.1394C21.2478 24.5597 21.9439 25.1438 22.4406 25.8917C22.9374 26.6396 23.1858 27.4967 23.1858 28.4629C23.1858 29.0961 23.0602 29.7212 22.8091 30.3381C22.5635 30.9549 22.124 31.64 21.4908 32.3934C20.8575 33.1413 19.965 34.0393 18.8131 35.0874L16.3648 37.4866V37.6013H23.4069V40.5H11.4517Z" fill="white"/>
<path d="M11.4517 40.5H10.6281V41.3235H11.4517V40.5ZM11.4517 37.9452L10.8921 37.3409L10.6281 37.5854V37.9452H11.4517ZM17.4211 32.4179L17.9806 33.0222L17.9872 33.0161L17.9938 33.0097L17.4211 32.4179ZM18.6985 31.0914L18.0829 30.5443L18.0787 30.5491L18.6985 31.0914ZM19.4928 29.9368L20.2357 30.2922L20.2377 30.288L19.4928 29.9368ZM19.4273 27.4311L18.7277 27.8657L18.7307 27.8705L19.4273 27.4311ZM18.5101 26.6041L18.1377 27.3387L18.146 27.3428L18.5101 26.6041ZM15.8489 26.6205L15.456 25.8967L15.456 25.8967L15.8489 26.6205ZM14.6534 28.8969V29.7204H15.4769V28.8969H14.6534ZM11.2879 28.8969H10.4644V29.7204H11.2879V28.8969ZM14.1211 24.1639L13.7564 23.4256L13.7564 23.4256L14.1211 24.1639ZM20.3526 24.1394L19.9971 24.8822L20.0026 24.8848L20.3526 24.1394ZM22.4406 25.8917L23.1266 25.4361L23.1266 25.4361L22.4406 25.8917ZM22.8091 30.3381L22.0463 30.0276L22.044 30.0334L22.8091 30.3381ZM21.4908 32.3934L22.1193 32.9255L22.1212 32.9233L21.4908 32.3934ZM18.8131 35.0874L18.2589 34.4783L18.2476 34.4885L18.2367 34.4992L18.8131 35.0874ZM16.3648 37.4866L15.7884 36.8984L15.5412 37.1406V37.4866H16.3648ZM16.3648 37.6013H15.5412V38.4248H16.3648V37.6013ZM23.4069 37.6013H24.2304V36.7777H23.4069V37.6013ZM23.4069 40.5V41.3235H24.2304V40.5H23.4069ZM11.4517 40.5H12.2752V37.9452H11.4517H10.6281V40.5H11.4517ZM11.4517 37.9452L12.0112 38.5495L17.9806 33.0222L17.4211 32.4179L16.8616 31.8137L10.8921 37.3409L11.4517 37.9452ZM17.4211 32.4179L17.9938 33.0097C18.5125 32.5077 18.9552 32.0487 19.3182 31.6337L18.6985 31.0914L18.0787 30.5491C17.754 30.9203 17.345 31.3456 16.8484 31.8262L17.4211 32.4179ZM18.6985 31.0914L19.314 31.6385C19.702 31.202 20.015 30.7537 20.2357 30.2921L19.4928 29.9368L18.7498 29.5815C18.6103 29.8733 18.3937 30.1947 18.083 30.5443L18.6985 31.0914ZM19.4928 29.9368L20.2377 30.288C20.472 29.7909 20.5865 29.2582 20.5865 28.7004H19.763H18.9395C18.9395 29.0269 18.8738 29.3185 18.7479 29.5857L19.4928 29.9368ZM19.763 28.7004H20.5865C20.5865 28.0806 20.4439 27.4993 20.1238 26.9918L19.4273 27.4311L18.7307 27.8705C18.8582 28.0727 18.9395 28.3375 18.9395 28.7004H19.763ZM19.4273 27.4311L20.1268 26.9966C19.8202 26.503 19.3971 26.1232 18.8743 25.8655L18.5101 26.6041L18.146 27.3428C18.3983 27.4671 18.5867 27.6387 18.7277 27.8657L19.4273 27.4311ZM18.5101 26.6041L18.8826 25.8696C18.3653 25.6073 17.7955 25.4858 17.1918 25.4858V26.3093V27.1329C17.5707 27.1329 17.8798 27.2079 18.1377 27.3386L18.5101 26.6041ZM17.1918 26.3093V25.4858C16.5662 25.4858 15.9787 25.6129 15.456 25.8967L15.8489 26.6205L16.2418 27.3442C16.4833 27.2132 16.7911 27.1329 17.1918 27.1329V26.3093ZM15.8489 26.6205L15.456 25.8967C14.9308 26.1818 14.5209 26.5966 14.2384 27.1244L14.9645 27.513L15.6906 27.9016C15.823 27.6543 16.0027 27.474 16.2418 27.3442L15.8489 26.6205ZM14.9645 27.513L14.2384 27.1244C13.9546 27.6548 13.8298 28.2555 13.8298 28.8969H14.6534H15.4769C15.4769 28.4684 15.5596 28.1464 15.6906 27.9016L14.9645 27.513ZM14.6534 28.8969V28.0734H11.2879V28.8969V29.7204H14.6534V28.8969ZM11.2879 28.8969H12.1114C12.1114 27.9276 12.3294 27.1294 12.7346 26.4704L12.033 26.0391L11.3315 25.6078C10.7431 26.5647 10.4644 27.6717 10.4644 28.8969H11.2879ZM12.033 26.0391L12.7346 26.4704C13.1458 25.8016 13.7218 25.2797 14.4858 24.9023L14.1211 24.1639L13.7564 23.4256C12.7299 23.9326 11.9138 24.6607 11.3315 25.6078L12.033 26.0391ZM14.1211 24.1639L14.4858 24.9023C15.2499 24.5249 16.1532 24.3242 17.2164 24.3242V23.5007V22.6771C15.9431 22.6771 14.7829 22.9186 13.7564 23.4256L14.1211 24.1639ZM17.2164 23.5007V24.3242C18.3206 24.3242 19.2397 24.5198 19.9971 24.8822L20.3526 24.1394L20.708 23.3965C19.6857 22.9073 18.5141 22.6771 17.2164 22.6771V23.5007ZM20.3526 24.1394L20.0026 24.8848C20.7757 25.2478 21.3496 25.7375 21.7546 26.3474L22.4406 25.8917L23.1266 25.4361C22.5381 24.5501 21.7199 23.8716 20.7026 23.3939L20.3526 24.1394ZM22.4406 25.8917L21.7546 26.3474C22.1548 26.9498 22.3622 27.6458 22.3622 28.4629H23.1858H24.0093C24.0093 27.3475 23.72 26.3294 23.1266 25.4361L22.4406 25.8917ZM23.1858 28.4629H22.3622C22.3622 28.9842 22.2594 29.5041 22.0464 30.0276L22.8091 30.3381L23.5719 30.6486C23.861 29.9383 24.0093 29.2081 24.0093 28.4629H23.1858ZM22.8091 30.3381L22.044 30.0334C21.8426 30.5392 21.4616 31.1483 20.8604 31.8635L21.4908 32.3934L22.1212 32.9233C22.7864 32.1318 23.2843 31.3706 23.5742 30.6428L22.8091 30.3381ZM21.4908 32.3934L20.8623 31.8612C20.2614 32.5709 19.3977 33.442 18.2589 34.4783L18.8131 35.0874L19.3674 35.6965C20.5322 34.6366 21.4536 33.7117 22.1193 32.9255L21.4908 32.3934ZM18.8131 35.0874L18.2367 34.4992L15.7884 36.8984L16.3648 37.4866L16.9411 38.0748L19.3895 35.6756L18.8131 35.0874ZM16.3648 37.4866H15.5412V37.6013H16.3648H17.1883V37.4866H16.3648ZM16.3648 37.6013V38.4248H23.4069V37.6013V36.7777H16.3648V37.6013ZM23.4069 37.6013H22.5833V40.5H23.4069H24.2304V37.6013H23.4069ZM23.4069 40.5V39.6765H11.4517V40.5V41.3235H23.4069V40.5Z" fill="#2B3F46" mask="url(#path-33-outside-1_2122_4374)"/>
<mask id="path-35-outside-2_2122_4374" maskUnits="userSpaceOnUse" x="26.3535" y="28" width="12" height="11" fill="black">
<rect fill="white" x="26.3535" y="28" width="12" height="11"/>
<path d="M30.7484 29.2727L32.3507 32.3239L33.9927 29.2727H36.4757L33.9473 33.6364L36.5439 38H34.0723L32.3507 34.983L30.6575 38H28.1575L30.7484 33.6364L28.2484 29.2727H30.7484Z"/>
</mask>
<path d="M30.7484 29.2727L32.3507 32.3239L33.9927 29.2727H36.4757L33.9473 33.6364L36.5439 38H34.0723L32.3507 34.983L30.6575 38H28.1575L30.7484 33.6364L28.2484 29.2727H30.7484Z" fill="white"/>
<path d="M30.7484 29.2727L31.4775 28.8898L31.2461 28.4492H30.7484V29.2727ZM32.3507 32.3239L31.6216 32.7067L32.3418 34.0782L33.0759 32.7141L32.3507 32.3239ZM33.9927 29.2727V28.4492H33.5007L33.2675 28.8825L33.9927 29.2727ZM36.4757 29.2727L37.1882 29.6856L37.9046 28.4492H36.4757V29.2727ZM33.9473 33.6364L33.2347 33.2235L32.9923 33.6419L33.2396 34.0575L33.9473 33.6364ZM36.5439 38V38.8235H37.9922L37.2516 37.5789L36.5439 38ZM34.0723 38L33.357 38.4081L33.594 38.8235H34.0723V38ZM32.3507 34.983L33.0659 34.5748L32.3447 33.3109L31.6325 34.5799L32.3507 34.983ZM30.6575 38V38.8235H31.1397L31.3757 38.403L30.6575 38ZM28.1575 38L27.4494 37.5796L26.7108 38.8235H28.1575V38ZM30.7484 33.6364L31.4565 34.0568L31.7018 33.6438L31.463 33.227L30.7484 33.6364ZM28.2484 29.2727V28.4492H26.8275L27.5338 29.6821L28.2484 29.2727ZM30.7484 29.2727L30.0193 29.6556L31.6216 32.7067L32.3507 32.3239L33.0798 31.941L31.4775 28.8898L30.7484 29.2727ZM32.3507 32.3239L33.0759 32.7141L34.7179 29.663L33.9927 29.2727L33.2675 28.8825L31.6255 31.9336L32.3507 32.3239ZM33.9927 29.2727V30.0963H36.4757V29.2727V28.4492H33.9927V29.2727ZM36.4757 29.2727L35.7631 28.8599L33.2347 33.2235L33.9473 33.6364L34.6598 34.0492L37.1882 29.6856L36.4757 29.2727ZM33.9473 33.6364L33.2396 34.0575L35.8361 38.4211L36.5439 38L37.2516 37.5789L34.655 33.2152L33.9473 33.6364ZM36.5439 38V37.1765H34.0723V38V38.8235H36.5439V38ZM34.0723 38L34.7875 37.5919L33.0659 34.5748L32.3507 34.983L31.6354 35.3911L33.357 38.4081L34.0723 38ZM32.3507 34.983L31.6325 34.5799L29.9393 37.597L30.6575 38L31.3757 38.403L33.0688 35.386L32.3507 34.983ZM30.6575 38V37.1765H28.1575V38V38.8235H30.6575V38ZM28.1575 38L28.8656 38.4204L31.4565 34.0568L30.7484 33.6364L30.0403 33.2159L27.4494 37.5796L28.1575 38ZM30.7484 33.6364L31.463 33.227L28.963 28.8633L28.2484 29.2727L27.5338 29.6821L30.0338 34.0457L30.7484 33.6364ZM28.2484 29.2727V30.0963H30.7484V29.2727V28.4492H28.2484V29.2727Z" fill="#2B3F46" mask="url(#path-35-outside-2_2122_4374)"/>
<mask id="path-37-outside-3_2122_4374" maskUnits="userSpaceOnUse" x="39.3535" y="22.5" width="16" height="20" fill="black">
<rect fill="white" x="39.3535" y="22.5" width="16" height="20"/>
<path d="M47.3228 40.7293C46.1 40.7293 45.0109 40.5191 44.0556 40.0988C43.1057 39.673 42.3551 39.0888 41.8038 38.3464C41.2579 37.5985 40.9767 36.736 40.9603 35.7589H44.5305C44.5524 36.1683 44.6861 36.5286 44.9318 36.8397C45.1829 37.1454 45.5159 37.3829 45.9308 37.5521C46.3456 37.7214 46.8124 37.806 47.331 37.806C47.8714 37.806 48.3491 37.7104 48.764 37.5194C49.1789 37.3283 49.5037 37.0636 49.7384 36.7251C49.9732 36.3866 50.0905 35.9963 50.0905 35.5541C50.0905 35.1065 49.965 34.7107 49.7139 34.3668C49.4682 34.0174 49.1134 33.7445 48.6493 33.548C48.1908 33.3514 47.6449 33.2532 47.0116 33.2532H45.4476V30.6492H47.0116C47.5466 30.6492 48.0188 30.5564 48.4283 30.3708C48.8431 30.1852 49.1652 29.9286 49.3945 29.6011C49.6238 29.2681 49.7384 28.8805 49.7384 28.4383C49.7384 28.018 49.6374 27.6495 49.4354 27.3329C49.2389 27.0108 48.9605 26.7597 48.6002 26.5795C48.2454 26.3994 47.8305 26.3093 47.3556 26.3093C46.8752 26.3093 46.4357 26.3967 46.0372 26.5714C45.6387 26.7406 45.3194 26.9835 45.0792 27.3001C44.839 27.6168 44.7107 27.988 44.6943 28.4138H41.2961C41.3124 27.4475 41.5881 26.5959 42.1231 25.859C42.6581 25.122 43.3787 24.5461 44.2849 24.1312C45.1965 23.7108 46.2255 23.5007 47.3719 23.5007C48.5292 23.5007 49.5419 23.7108 50.4099 24.1312C51.2779 24.5515 51.952 25.1193 52.4324 25.8344C52.9183 26.5441 53.1585 27.3411 53.153 28.2254C53.1585 29.1644 52.8664 29.9477 52.2769 30.5755C51.6927 31.2033 50.9312 31.6018 49.9923 31.7711V31.9021C51.226 32.0604 52.1649 32.4889 52.8091 33.1877C53.4587 33.881 53.7808 34.7489 53.7753 35.7916C53.7808 36.7469 53.5051 37.5958 52.9483 38.3382C52.397 39.0807 51.6354 39.6648 50.6637 40.0906C49.692 40.5164 48.5784 40.7293 47.3228 40.7293Z"/>
</mask>
<path d="M47.3228 40.7293C46.1 40.7293 45.0109 40.5191 44.0556 40.0988C43.1057 39.673 42.3551 39.0888 41.8038 38.3464C41.2579 37.5985 40.9767 36.736 40.9603 35.7589H44.5305C44.5524 36.1683 44.6861 36.5286 44.9318 36.8397C45.1829 37.1454 45.5159 37.3829 45.9308 37.5521C46.3456 37.7214 46.8124 37.806 47.331 37.806C47.8714 37.806 48.3491 37.7104 48.764 37.5194C49.1789 37.3283 49.5037 37.0636 49.7384 36.7251C49.9732 36.3866 50.0905 35.9963 50.0905 35.5541C50.0905 35.1065 49.965 34.7107 49.7139 34.3668C49.4682 34.0174 49.1134 33.7445 48.6493 33.548C48.1908 33.3514 47.6449 33.2532 47.0116 33.2532H45.4476V30.6492H47.0116C47.5466 30.6492 48.0188 30.5564 48.4283 30.3708C48.8431 30.1852 49.1652 29.9286 49.3945 29.6011C49.6238 29.2681 49.7384 28.8805 49.7384 28.4383C49.7384 28.018 49.6374 27.6495 49.4354 27.3329C49.2389 27.0108 48.9605 26.7597 48.6002 26.5795C48.2454 26.3994 47.8305 26.3093 47.3556 26.3093C46.8752 26.3093 46.4357 26.3967 46.0372 26.5714C45.6387 26.7406 45.3194 26.9835 45.0792 27.3001C44.839 27.6168 44.7107 27.988 44.6943 28.4138H41.2961C41.3124 27.4475 41.5881 26.5959 42.1231 25.859C42.6581 25.122 43.3787 24.5461 44.2849 24.1312C45.1965 23.7108 46.2255 23.5007 47.3719 23.5007C48.5292 23.5007 49.5419 23.7108 50.4099 24.1312C51.2779 24.5515 51.952 25.1193 52.4324 25.8344C52.9183 26.5441 53.1585 27.3411 53.153 28.2254C53.1585 29.1644 52.8664 29.9477 52.2769 30.5755C51.6927 31.2033 50.9312 31.6018 49.9923 31.7711V31.9021C51.226 32.0604 52.1649 32.4889 52.8091 33.1877C53.4587 33.881 53.7808 34.7489 53.7753 35.7916C53.7808 36.7469 53.5051 37.5958 52.9483 38.3382C52.397 39.0807 51.6354 39.6648 50.6637 40.0906C49.692 40.5164 48.5784 40.7293 47.3228 40.7293Z" fill="white"/>
<path d="M44.0556 40.0988L43.7187 40.8503L43.7239 40.8526L44.0556 40.0988ZM41.8038 38.3464L41.1386 38.832L41.1426 38.8374L41.8038 38.3464ZM40.9603 35.7589V34.9353H40.1229L40.1369 35.7727L40.9603 35.7589ZM44.5305 35.7589L45.3529 35.715L45.3113 34.9353H44.5305V35.7589ZM44.9318 36.8397L44.2854 37.35L44.2903 37.3563L44.2954 37.3625L44.9318 36.8397ZM45.9308 37.5521L45.6197 38.3147L45.6197 38.3147L45.9308 37.5521ZM48.764 37.5194L48.4195 36.7714L48.4195 36.7714L48.764 37.5194ZM49.7384 36.7251L50.4151 37.1944L50.4151 37.1944L49.7384 36.7251ZM49.7139 34.3668L49.0402 34.8405L49.0444 34.8465L49.0487 34.8524L49.7139 34.3668ZM48.6493 33.548L48.3249 34.3049L48.3282 34.3063L48.6493 33.548ZM45.4476 33.2532H44.6241V34.0767H45.4476V33.2532ZM45.4476 30.6492V29.8257H44.6241V30.6492H45.4476ZM48.4283 30.3708L48.092 29.6191L48.0882 29.6208L48.4283 30.3708ZM49.3945 29.6011L50.0692 30.0734L50.0728 30.0681L49.3945 29.6011ZM49.4354 27.3329L48.7324 27.7618L48.7367 27.7689L48.7412 27.7758L49.4354 27.3329ZM48.6002 26.5795L48.2274 27.3139L48.2319 27.3161L48.6002 26.5795ZM46.0372 26.5714L46.3591 27.3294L46.3678 27.3256L46.0372 26.5714ZM45.0792 27.3001L45.7353 27.7979L45.7353 27.7979L45.0792 27.3001ZM44.6943 28.4138V29.2373H45.4868L45.5172 28.4454L44.6943 28.4138ZM41.2961 28.4138L40.4727 28.3998L40.4585 29.2373H41.2961V28.4138ZM42.1231 25.859L42.7896 26.3427L42.7896 26.3427L42.1231 25.859ZM44.2849 24.1312L44.6277 24.88L44.6297 24.879L44.2849 24.1312ZM50.4099 24.1312L50.7688 23.39L50.4099 24.1312ZM52.4324 25.8344L51.7488 26.2936L51.7529 26.2996L52.4324 25.8344ZM53.153 28.2254L52.3295 28.2203L52.3295 28.2302L53.153 28.2254ZM52.2769 30.5755L51.6765 30.0118L51.6739 30.0146L52.2769 30.5755ZM49.9923 31.7711L49.8462 30.9606L49.1687 31.0827V31.7711H49.9923ZM49.9923 31.9021H49.1687V32.6267L49.8874 32.7189L49.9923 31.9021ZM52.8091 33.1877L52.2036 33.7459L52.2082 33.7508L52.8091 33.1877ZM53.7753 35.7916L52.9518 35.7873L52.9518 35.7963L53.7753 35.7916ZM52.9483 38.3382L52.2895 37.8441L52.2872 37.8472L52.9483 38.3382ZM50.6637 40.0906L50.3332 39.3363L50.3332 39.3363L50.6637 40.0906ZM47.3228 40.7293V39.9057C46.1948 39.9057 45.2217 39.7121 44.3873 39.345L44.0556 40.0988L43.7239 40.8526C44.8002 41.3261 46.0052 41.5528 47.3228 41.5528V40.7293ZM44.0556 40.0988L44.3925 39.3473C43.5548 38.9718 42.9221 38.4711 42.4649 37.8554L41.8038 38.3464L41.1426 38.8374C41.7881 39.7066 42.6567 40.3742 43.7187 40.8502L44.0556 40.0988ZM41.8038 38.3464L42.4689 37.8609C42.0289 37.258 41.7975 36.5624 41.7838 35.7451L40.9603 35.7589L40.1369 35.7727C40.156 36.9096 40.4868 37.9391 41.1386 38.832L41.8038 38.3464ZM40.9603 35.7589V36.5824H44.5305V35.7589V34.9353H40.9603V35.7589ZM44.5305 35.7589L43.7082 35.8027C43.7387 36.3759 43.9305 36.9005 44.2854 37.35L44.9318 36.8397L45.5781 36.3294C45.4417 36.1566 45.366 35.9607 45.3529 35.715L44.5305 35.7589ZM44.9318 36.8397L44.2954 37.3625C44.6443 37.7872 45.0952 38.1007 45.6197 38.3147L45.9308 37.5521L46.2418 36.7896C45.9366 36.6651 45.7214 36.5037 45.5681 36.317L44.9318 36.8397ZM45.9308 37.5521L45.6197 38.3147C46.1476 38.53 46.7223 38.6295 47.331 38.6295V37.806V36.9825C46.9024 36.9825 46.5436 36.9127 46.2418 36.7896L45.9308 37.5521ZM47.331 37.806V38.6295C47.9688 38.6295 48.5676 38.5165 49.1085 38.2674L48.764 37.5194L48.4195 36.7714C48.1306 36.9044 47.774 36.9825 47.331 36.9825V37.806ZM48.764 37.5194L49.1085 38.2674C49.6421 38.0217 50.0876 37.6666 50.4151 37.1944L49.7384 36.7251L49.0617 36.2558C48.9197 36.4605 48.7157 36.635 48.4195 36.7714L48.764 37.5194ZM49.7384 36.7251L50.4151 37.1944C50.7526 36.7078 50.9141 36.1511 50.9141 35.5541H50.0905H49.267C49.267 35.8416 49.1937 36.0655 49.0617 36.2558L49.7384 36.7251ZM50.0905 35.5541H50.9141C50.9141 34.9414 50.7385 34.3736 50.379 33.8812L49.7139 34.3668L49.0487 34.8524C49.1914 35.0479 49.267 35.2716 49.267 35.5541H50.0905ZM49.7139 34.3668L50.3875 33.8931C50.0384 33.3966 49.5505 33.0353 48.9705 32.7896L48.6493 33.548L48.3282 34.3063C48.6762 34.4537 48.898 34.6382 49.0402 34.8405L49.7139 34.3668ZM48.6493 33.548L48.9737 32.791C48.3891 32.5404 47.7275 32.4296 47.0116 32.4296V33.2532V34.0767C47.5623 34.0767 47.9925 34.1624 48.3249 34.3049L48.6493 33.548ZM47.0116 33.2532V32.4296H45.4476V33.2532V34.0767H47.0116V33.2532ZM45.4476 33.2532H46.2712V30.6492H45.4476H44.6241V33.2532H45.4476ZM45.4476 30.6492V31.4728H47.0116V30.6492V29.8257H45.4476V30.6492ZM47.0116 30.6492V31.4728C47.6419 31.4728 48.2337 31.3632 48.7683 31.1209L48.4283 30.3708L48.0882 29.6208C47.804 29.7496 47.4513 29.8257 47.0116 29.8257V30.6492ZM48.4283 30.3708L48.7646 31.1226C49.2964 30.8846 49.7433 30.5389 50.0692 30.0734L49.3945 29.6011L48.7198 29.1288C48.5872 29.3183 48.3898 29.4858 48.092 29.6191L48.4283 30.3708ZM49.3945 29.6011L50.0728 30.0681C50.4055 29.5849 50.5619 29.0309 50.5619 28.4383H49.7384H48.9149C48.9149 28.7301 48.842 28.9513 48.7162 29.1341L49.3945 29.6011ZM49.7384 28.4383H50.5619C50.5619 27.8804 50.4259 27.3543 50.1297 26.89L49.4354 27.3329L48.7412 27.7758C48.8489 27.9447 48.9149 28.1556 48.9149 28.4383H49.7384ZM49.4354 27.3329L50.1384 26.9039C49.8559 26.4409 49.4573 26.0873 48.9685 25.843L48.6002 26.5795L48.2319 27.3161C48.4637 27.432 48.6219 27.5807 48.7324 27.7618L49.4354 27.3329ZM48.6002 26.5795L48.973 25.8452C48.4824 25.5961 47.9352 25.4858 47.3556 25.4858V26.3093V27.1329C47.7258 27.1329 48.0084 27.2027 48.2274 27.3139L48.6002 26.5795ZM47.3556 26.3093V25.4858C46.7733 25.4858 46.2197 25.5922 45.7066 25.8171L46.0372 26.5714L46.3678 27.3256C46.6517 27.2012 46.9771 27.1329 47.3556 27.1329V26.3093ZM46.0372 26.5714L45.7153 25.8133C45.1968 26.0335 44.7577 26.3613 44.4231 26.8024L45.0792 27.3001L45.7353 27.7979C45.881 27.6057 46.0806 27.4476 46.3591 27.3294L46.0372 26.5714ZM45.0792 27.3001L44.4231 26.8024C44.0733 27.2635 43.8938 27.8004 43.8714 28.3821L44.6943 28.4138L45.5172 28.4454C45.5276 28.1756 45.6047 27.97 45.7353 27.7979L45.0792 27.3001ZM44.6943 28.4138V27.5902H41.2961V28.4138V29.2373H44.6943V28.4138ZM41.2961 28.4138L42.1195 28.4277C42.1332 27.6196 42.3601 26.9343 42.7896 26.3427L42.1231 25.859L41.4567 25.3752C40.8161 26.2575 40.4917 27.2755 40.4727 28.3998L41.2961 28.4138ZM42.1231 25.859L42.7896 26.3427C43.2335 25.7311 43.8379 25.2416 44.6277 24.88L44.2849 24.1312L43.9421 23.3824C42.9195 23.8506 42.0826 24.5129 41.4567 25.3752L42.1231 25.859ZM44.2849 24.1312L44.6297 24.879C45.4189 24.5152 46.3277 24.3242 47.3719 24.3242V23.5007V22.6771C46.1234 22.6771 44.9742 22.9065 43.9401 23.3833L44.2849 24.1312ZM47.3719 23.5007V24.3242C48.4295 24.3242 49.315 24.516 50.0509 24.8724L50.4099 24.1312L50.7688 23.39C49.7688 22.9057 48.629 22.6771 47.3719 22.6771V23.5007ZM50.4099 24.1312L50.0509 24.8724C50.8037 25.2369 51.3592 25.7135 51.7488 26.2936L52.4324 25.8344L53.116 25.3752C52.5449 24.525 51.752 23.8661 50.7688 23.39L50.4099 24.1312ZM52.4324 25.8344L51.7529 26.2996C52.1412 26.8667 52.334 27.4987 52.3295 28.2203L53.153 28.2254L53.9765 28.2305C53.983 27.1834 53.6954 26.2214 53.112 25.3692L52.4324 25.8344ZM53.153 28.2254L52.3295 28.2302C52.3339 28.9789 52.1079 29.5524 51.6765 30.0118L52.2769 30.5755L52.8772 31.1393C53.6249 30.3431 53.9831 29.3499 53.9765 28.2206L53.153 28.2254ZM52.2769 30.5755L51.6739 30.0146C51.2247 30.4973 50.6306 30.8192 49.8462 30.9606L49.9923 31.7711L50.1383 32.5815C51.2318 32.3845 52.1607 31.9093 52.8798 31.1365L52.2769 30.5755ZM49.9923 31.7711H49.1687V31.9021H49.9923H50.8158V31.7711H49.9923ZM49.9923 31.9021L49.8874 32.7189C50.9892 32.8603 51.7267 33.2285 52.2036 33.7459L52.8091 33.1877L53.4146 32.6295C52.6032 31.7493 51.4628 31.2605 50.0971 31.0852L49.9923 31.9021ZM52.8091 33.1877L52.2082 33.7508C52.6992 34.2747 52.9563 34.9329 52.9518 35.7873L53.7753 35.7916L54.5989 35.7959C54.6053 34.565 54.2183 33.4872 53.41 32.6246L52.8091 33.1877ZM53.7753 35.7916L52.9518 35.7963C52.9563 36.5775 52.7351 37.25 52.2895 37.8441L52.9483 38.3382L53.6071 38.8324C54.2752 37.9416 54.6053 36.9163 54.5989 35.7869L53.7753 35.7916ZM52.9483 38.3382L52.2872 37.8472C51.8331 38.4586 51.1932 38.9594 50.3332 39.3363L50.6637 40.0906L50.9942 40.8449C52.0776 40.3701 52.9608 39.7027 53.6095 38.8292L52.9483 38.3382ZM50.6637 40.0906L50.3332 39.3363C49.483 39.7088 48.4852 39.9057 47.3228 39.9057V40.7293V41.5528C48.6716 41.5528 49.901 41.3239 50.9942 40.8449L50.6637 40.0906Z" fill="#2B3F46" mask="url(#path-37-outside-3_2122_4374)"/>
<defs>
<linearGradient id="paint0_linear_2122_4374" x1="35.8411" y1="35.864" x2="-1.88188" y2="2.08424" gradientUnits="userSpaceOnUse">
<stop stop-color="#FFD5EF"/>
<stop offset="1" stop-color="#EFBDFD"/>
</linearGradient>
<linearGradient id="paint1_linear_2122_4374" x1="26.8809" y1="4.483" x2="25.174" y2="-4.68761" gradientUnits="userSpaceOnUse">
<stop stop-color="#F95457"/>
<stop offset="1" stop-color="#FDBDCB"/>
</linearGradient>
<linearGradient id="paint2_linear_2122_4374" x1="26.8809" y1="4.483" x2="25.174" y2="-4.68761" gradientUnits="userSpaceOnUse">
<stop stop-color="#F95457"/>
<stop offset="1" stop-color="#FDBDCB"/>
</linearGradient>
<linearGradient id="paint3_linear_2122_4374" x1="4.71844" y1="43.652" x2="1.80424" y2="43.0279" gradientUnits="userSpaceOnUse">
<stop stop-color="#F95457"/>
<stop offset="1" stop-color="#FDBDCB"/>
</linearGradient>
<linearGradient id="paint4_linear_2122_4374" x1="35.7657" y1="58.0257" x2="30.2143" y2="50.8928" gradientUnits="userSpaceOnUse">
<stop stop-color="#F95457"/>
<stop offset="1" stop-color="#FDBDCB"/>
</linearGradient>
<linearGradient id="paint5_linear_2122_4374" x1="60.6657" y1="43.652" x2="57.7515" y2="43.0279" gradientUnits="userSpaceOnUse">
<stop stop-color="#F95457"/>
<stop offset="1" stop-color="#FDBDCB"/>
</linearGradient>
<linearGradient id="paint6_linear_2122_4374" x1="-1.09962e-05" y1="-0.0328651" x2="30.641" y2="-4.05264" gradientUnits="userSpaceOnUse">
<stop stop-color="#D74446"/>
<stop offset="1" stop-color="#E165B8"/>
</linearGradient>
<linearGradient id="paint7_linear_2122_4374" x1="-1.11276e-05" y1="-0.033258" x2="31.0073" y2="-4.10108" gradientUnits="userSpaceOnUse">
<stop stop-color="#D74446"/>
<stop offset="1" stop-color="#E165B8"/>
</linearGradient>
<linearGradient id="paint8_linear_2122_4374" x1="-8.34573e-06" y1="-0.00415724" x2="14.606" y2="-11.5011" gradientUnits="userSpaceOnUse">
<stop stop-color="#D1369D"/>
<stop offset="1" stop-color="#B31E20"/>
</linearGradient>
<linearGradient id="paint9_linear_2122_4374" x1="-8.34573e-06" y1="-0.00415724" x2="14.606" y2="-11.5011" gradientUnits="userSpaceOnUse">
<stop stop-color="#D74446"/>
<stop offset="1" stop-color="#E165B8"/>
</linearGradient>
<linearGradient id="paint10_linear_2122_4374" x1="2.32031" y1="36.6188" x2="3.73321" y2="36.5744" gradientUnits="userSpaceOnUse">
<stop stop-color="#D74446"/>
<stop offset="1" stop-color="#D1369D"/>
</linearGradient>
<linearGradient id="paint11_linear_2122_4374" x1="27.5449" y1="52.5135" x2="34.14" y2="51.2721" gradientUnits="userSpaceOnUse">
<stop stop-color="#B31E20"/>
<stop offset="1" stop-color="#D74446"/>
</linearGradient>
<linearGradient id="paint12_linear_2122_4374" x1="59.0059" y1="36.6188" x2="60.4188" y2="36.5744" gradientUnits="userSpaceOnUse">
<stop stop-color="#E165B8"/>
<stop offset="1" stop-color="#D74446"/>
</linearGradient>
<clipPath id="clip0_2122_4374">
<rect width="63" height="39.5638" fill="white" transform="translate(0 18.4604)"/>
</clipPath>
<clipPath id="clip1_2122_4374">
<rect width="35.8992" height="35.8992" rx="4.44179" transform="matrix(0.866025 0.5 -0.866025 0.5 31.9102 19)" fill="white"/>
</clipPath>
<clipPath id="clip2_2122_4374">
<rect width="36.3731" height="36.3731" rx="4.50041" transform="matrix(0.866025 0.5 -0.866025 0.5 31.5 18.4607)" fill="white"/>
</clipPath>
</defs>
</svg>
