<svg width="64" height="64" viewBox="0 0 64 64" fill="none" xmlns="http://www.w3.org/2000/svg">
<g clip-path="url(#clip0_2122_4397)">
<rect width="35.8551" height="35.8551" rx="4.37833" transform="matrix(0.866025 0.5 -0.866025 0.5 31.8887 19)" fill="url(#paint0_linear_2122_4397)"/>
<rect width="26.8913" height="4.48189" transform="matrix(0.866025 0.5 0 1 4.71875 39.1685)" fill="url(#paint1_linear_2122_4397)"/>
<rect width="26.8913" height="4.48189" transform="matrix(0.866025 -0.5 0 1 35.7695 52.6143)" fill="url(#paint2_linear_2122_4397)"/>
<path d="M3.11133 36.9275C3.11133 37.8026 3.72572 38.5949 4.71907 39.1684V43.6503C3.72572 43.0768 3.11133 42.2845 3.11133 41.4094V36.9275Z" fill="url(#paint3_linear_2122_4397)"/>
<path d="M28.0059 52.6143C30.1495 53.8519 33.6251 53.8519 35.7687 52.6143V57.0961C33.6251 58.3338 30.1495 58.3338 28.0059 57.0961V52.6143Z" fill="url(#paint4_linear_2122_4397)"/>
<path d="M60.6663 36.9275C60.6663 37.8026 60.0519 38.5949 59.0586 39.1684V43.6503C60.0519 43.0768 60.6663 42.2845 60.6663 41.4094V36.9275Z" fill="url(#paint5_linear_2122_4397)"/>
<g clip-path="url(#clip1_2122_4397)">
<rect width="35.8992" height="35.8992" rx="4.44179" transform="matrix(0.866025 0.5 -0.866025 0.5 31.9102 19)" fill="url(#paint6_linear_2122_4397)"/>
<rect width="11.5594" height="11.5594" transform="matrix(0.866025 0.5 -0.866025 0.5 31.9102 19)" fill="black" fill-opacity="0.1"/>
<rect width="11.5594" height="11.5594" transform="matrix(0.866025 0.5 -0.866025 0.5 21.3711 25.085)" fill="black" fill-opacity="0.1"/>
<rect width="11.5594" height="11.5594" transform="matrix(0.866025 0.5 -0.866025 0.5 21.3711 37.2549)" fill="black" fill-opacity="0.1"/>
<rect width="11.5594" height="11.5594" transform="matrix(0.866025 0.5 -0.866025 0.5 42.4492 25.085)" fill="black" fill-opacity="0.1"/>
<rect width="11.5594" height="11.5594" transform="matrix(0.866025 0.5 -0.866025 0.5 42.4492 37.2549)" fill="black" fill-opacity="0.1"/>
<rect width="11.5594" height="11.5594" transform="matrix(0.866025 0.5 -0.866025 0.5 52.9883 31.1699)" fill="black" fill-opacity="0.1"/>
<rect width="11.5594" height="11.5594" transform="matrix(0.866025 0.5 -0.866025 0.5 10.832 31.1699)" fill="black" fill-opacity="0.1"/>
<rect width="11.5594" height="11.5594" transform="matrix(0.866025 0.5 -0.866025 0.5 31.9102 43.3398)" fill="black" fill-opacity="0.1"/>
<rect width="11.5594" height="11.5594" transform="matrix(0.866025 0.5 -0.866025 0.5 31.9102 31.1699)" fill="black" fill-opacity="0.1"/>
</g>
<rect width="36.3283" height="36.3283" rx="4.43612" transform="matrix(0.866025 0.5 -0.866025 0.5 31.4785 18.4607)" fill="url(#paint7_linear_2122_4397)"/>
<rect width="27.2462" height="4.54104" transform="matrix(0.866025 0.5 0 1 3.94922 38.8958)" fill="url(#paint8_linear_2122_4397)"/>
<rect width="27.2462" height="4.54104" transform="matrix(0.866025 -0.5 0 1 35.4102 52.5186)" fill="url(#paint9_linear_2122_4397)"/>
<path d="M2.32031 36.625C2.32031 37.5117 2.94282 38.3144 3.94927 38.8955V43.4366C2.94282 42.8555 2.32031 42.0527 2.32031 41.166V36.625Z" fill="url(#paint10_linear_2122_4397)"/>
<path d="M27.5449 52.5186C29.7169 53.7725 33.2383 53.7725 35.4102 52.5186V57.0596C33.2383 58.3136 29.7169 58.3136 27.5449 57.0596V52.5186Z" fill="url(#paint11_linear_2122_4397)"/>
<path d="M60.6348 36.625C60.6348 37.5117 60.0123 38.3144 59.0059 38.8955V43.4366C60.0123 42.8555 60.6348 42.0527 60.6348 41.166V36.625Z" fill="url(#paint12_linear_2122_4397)"/>
<g clip-path="url(#clip2_2122_4397)">
<rect width="11.712" height="11.712" transform="matrix(0.866025 0.5 -0.866025 0.5 31.5 18.4607)" fill="white" fill-opacity="0.2"/>
<rect width="11.712" height="11.712" transform="matrix(0.866025 0.5 -0.866025 0.5 20.8223 24.626)" fill="white" fill-opacity="0.2"/>
<rect width="11.712" height="11.712" transform="matrix(0.866025 0.5 -0.866025 0.5 20.8223 36.9565)" fill="white" fill-opacity="0.2"/>
<rect width="11.712" height="11.712" transform="matrix(0.866025 0.5 -0.866025 0.5 42.1777 24.626)" fill="white" fill-opacity="0.2"/>
<rect width="11.712" height="11.712" transform="matrix(0.866025 0.5 -0.866025 0.5 42.1777 36.9565)" fill="white" fill-opacity="0.2"/>
<rect width="11.712" height="11.712" transform="matrix(0.866025 0.5 -0.866025 0.5 52.8574 30.7913)" fill="white" fill-opacity="0.2"/>
<rect width="11.712" height="11.712" transform="matrix(0.866025 0.5 -0.866025 0.5 10.1426 30.7913)" fill="white" fill-opacity="0.2"/>
<rect width="11.712" height="11.712" transform="matrix(0.866025 0.5 -0.866025 0.5 31.5 43.1221)" fill="white" fill-opacity="0.2"/>
<rect width="11.712" height="11.712" transform="matrix(0.866025 0.5 -0.866025 0.5 31.5 30.7913)" fill="white" fill-opacity="0.2"/>
</g>
</g>
<mask id="path-33-outside-1_2122_4397" maskUnits="userSpaceOnUse" x="9.35352" y="22.5" width="16" height="20" fill="black">
<rect fill="white" x="9.35352" y="22.5" width="16" height="20"/>
<path d="M17.5521 40.7293C16.6896 40.7238 15.8571 40.5792 15.0546 40.2953C14.2576 40.0114 13.5424 39.5501 12.9092 38.9114C12.276 38.2727 11.7737 37.4266 11.4025 36.373C11.0368 35.3194 10.8539 34.0256 10.8539 32.4916C10.8594 31.0832 11.0204 29.8249 11.337 28.7167C11.6591 27.6031 12.1177 26.6587 12.7127 25.8835C13.3132 25.1083 14.031 24.5188 14.8663 24.1148C15.7015 23.7054 16.6377 23.5007 17.6749 23.5007C18.794 23.5007 19.7821 23.719 20.6392 24.1557C21.4962 24.587 22.1841 25.1739 22.7027 25.9163C23.2267 26.6587 23.5433 27.4912 23.6525 28.4138H20.156C20.0196 27.8297 19.733 27.3711 19.2962 27.0381C18.8595 26.7051 18.3191 26.5386 17.6749 26.5386C16.5831 26.5386 15.7533 27.0135 15.1856 27.9634C14.6233 28.9133 14.3367 30.2043 14.3258 31.8366H14.4405C14.6916 31.3398 15.03 30.9167 15.4558 30.5673C15.8871 30.2125 16.3757 29.9423 16.9216 29.7567C17.4729 29.5656 18.0543 29.4701 18.6657 29.4701C19.6593 29.4701 20.5436 29.7048 21.3188 30.1743C22.094 30.6383 22.7054 31.277 23.153 32.0904C23.6007 32.9038 23.8245 33.8346 23.8245 34.8827C23.8245 36.0182 23.5597 37.0281 23.0302 37.9124C22.5061 38.7968 21.7719 39.4901 20.8275 39.9923C19.8885 40.4891 18.7967 40.7347 17.5521 40.7293ZM17.5357 37.9452C18.0816 37.9452 18.5702 37.8142 19.0015 37.5521C19.4327 37.2901 19.7712 36.9353 20.0168 36.4876C20.2625 36.04 20.3853 35.5378 20.3853 34.9809C20.3853 34.4241 20.2625 33.9246 20.0168 33.4825C19.7766 33.0403 19.4436 32.6882 19.0178 32.4261C18.592 32.1641 18.1062 32.0331 17.5603 32.0331C17.1509 32.0331 16.7714 32.1095 16.4221 32.2624C16.0782 32.4152 15.7752 32.6281 15.5131 32.9011C15.2566 33.174 15.0546 33.4906 14.9072 33.8509C14.7598 34.2058 14.6861 34.5852 14.6861 34.9891C14.6861 35.5296 14.8089 36.0236 15.0546 36.4713C15.3057 36.9189 15.6442 37.2765 16.07 37.544C16.5012 37.8114 16.9898 37.9452 17.5357 37.9452Z"/>
</mask>
<path d="M17.5521 40.7293C16.6896 40.7238 15.8571 40.5792 15.0546 40.2953C14.2576 40.0114 13.5424 39.5501 12.9092 38.9114C12.276 38.2727 11.7737 37.4266 11.4025 36.373C11.0368 35.3194 10.8539 34.0256 10.8539 32.4916C10.8594 31.0832 11.0204 29.8249 11.337 28.7167C11.6591 27.6031 12.1177 26.6587 12.7127 25.8835C13.3132 25.1083 14.031 24.5188 14.8663 24.1148C15.7015 23.7054 16.6377 23.5007 17.6749 23.5007C18.794 23.5007 19.7821 23.719 20.6392 24.1557C21.4962 24.587 22.1841 25.1739 22.7027 25.9163C23.2267 26.6587 23.5433 27.4912 23.6525 28.4138H20.156C20.0196 27.8297 19.733 27.3711 19.2962 27.0381C18.8595 26.7051 18.3191 26.5386 17.6749 26.5386C16.5831 26.5386 15.7533 27.0135 15.1856 27.9634C14.6233 28.9133 14.3367 30.2043 14.3258 31.8366H14.4405C14.6916 31.3398 15.03 30.9167 15.4558 30.5673C15.8871 30.2125 16.3757 29.9423 16.9216 29.7567C17.4729 29.5656 18.0543 29.4701 18.6657 29.4701C19.6593 29.4701 20.5436 29.7048 21.3188 30.1743C22.094 30.6383 22.7054 31.277 23.153 32.0904C23.6007 32.9038 23.8245 33.8346 23.8245 34.8827C23.8245 36.0182 23.5597 37.0281 23.0302 37.9124C22.5061 38.7968 21.7719 39.4901 20.8275 39.9923C19.8885 40.4891 18.7967 40.7347 17.5521 40.7293ZM17.5357 37.9452C18.0816 37.9452 18.5702 37.8142 19.0015 37.5521C19.4327 37.2901 19.7712 36.9353 20.0168 36.4876C20.2625 36.04 20.3853 35.5378 20.3853 34.9809C20.3853 34.4241 20.2625 33.9246 20.0168 33.4825C19.7766 33.0403 19.4436 32.6882 19.0178 32.4261C18.592 32.1641 18.1062 32.0331 17.5603 32.0331C17.1509 32.0331 16.7714 32.1095 16.4221 32.2624C16.0782 32.4152 15.7752 32.6281 15.5131 32.9011C15.2566 33.174 15.0546 33.4906 14.9072 33.8509C14.7598 34.2058 14.6861 34.5852 14.6861 34.9891C14.6861 35.5296 14.8089 36.0236 15.0546 36.4713C15.3057 36.9189 15.6442 37.2765 16.07 37.544C16.5012 37.8114 16.9898 37.9452 17.5357 37.9452Z" fill="white"/>
<path d="M17.5521 40.7293L17.5469 41.5528L17.5485 41.5528L17.5521 40.7293ZM15.0546 40.2953L14.7783 41.0711L14.78 41.0717L15.0546 40.2953ZM12.9092 38.9114L12.3244 39.4912L12.3244 39.4912L12.9092 38.9114ZM11.4025 36.373L10.6245 36.6431L10.6258 36.6467L11.4025 36.373ZM10.8539 32.4916L10.0304 32.4885V32.4916H10.8539ZM11.337 28.7167L10.5459 28.4879L10.5452 28.4905L11.337 28.7167ZM12.7127 25.8835L12.0616 25.3792L12.0594 25.3821L12.7127 25.8835ZM14.8663 24.1148L15.2248 24.8562L15.2287 24.8543L14.8663 24.1148ZM20.6392 24.1557L20.2653 24.8895L20.269 24.8914L20.6392 24.1557ZM22.7027 25.9163L22.0275 26.3879L22.0299 26.3912L22.7027 25.9163ZM23.6525 28.4138V29.2373H24.5793L24.4703 28.317L23.6525 28.4138ZM20.156 28.4138L19.3541 28.6011L19.5027 29.2373H20.156V28.4138ZM15.1856 27.9634L14.4787 27.5409L14.4769 27.5439L15.1856 27.9634ZM14.3258 31.8366L13.5023 31.8311L13.4968 32.6601H14.3258V31.8366ZM14.4405 31.8366V32.6601H14.9469L15.1754 32.2081L14.4405 31.8366ZM15.4558 30.5673L15.9782 31.204L15.9791 31.2033L15.4558 30.5673ZM16.9216 29.7567L17.1867 30.5364L17.1912 30.5348L16.9216 29.7567ZM21.3188 30.1743L20.8922 30.8787L20.8958 30.8809L21.3188 30.1743ZM23.0302 37.9124L22.3236 37.4894L22.3217 37.4926L23.0302 37.9124ZM20.8275 39.9923L21.2126 40.7202L21.2142 40.7194L20.8275 39.9923ZM19.0015 37.5521L19.4291 38.2559L19.4291 38.2559L19.0015 37.5521ZM20.0168 36.4876L19.2949 36.0914L19.2949 36.0914L20.0168 36.4876ZM20.0168 33.4825L19.2931 33.8756L19.2969 33.8824L20.0168 33.4825ZM19.0178 32.4261L19.4494 31.7248L19.4494 31.7248L19.0178 32.4261ZM16.4221 32.2624L16.092 31.5079L16.0876 31.5098L16.4221 32.2624ZM15.5131 32.9011L14.919 32.3307L14.9131 32.337L15.5131 32.9011ZM14.9072 33.8509L15.6677 34.1669L15.6694 34.1628L14.9072 33.8509ZM15.0546 36.4713L14.3326 36.8675L14.3364 36.8742L15.0546 36.4713ZM16.07 37.544L15.6319 38.2413L15.6359 38.2438L16.07 37.544ZM17.5521 40.7293L17.5573 39.9058C16.7853 39.9009 16.044 39.7717 15.3292 39.5189L15.0546 40.2953L14.78 41.0717C15.6701 41.3866 16.5938 41.5468 17.5469 41.5528L17.5521 40.7293ZM15.0546 40.2953L15.3309 39.5195C14.6574 39.2796 14.046 38.8884 13.494 38.3316L12.9092 38.9114L12.3244 39.4912C13.0389 40.2119 13.8578 40.7432 14.7783 41.0711L15.0546 40.2953ZM12.9092 38.9114L13.494 38.3316C12.9648 37.7978 12.5195 37.0651 12.1792 36.0993L11.4025 36.373L10.6258 36.6467C11.028 37.7881 11.5871 38.7476 12.3244 39.4912L12.9092 38.9114ZM11.4025 36.373L12.1805 36.1029C11.8539 35.162 11.6774 33.9657 11.6774 32.4916H10.8539H10.0304C10.0304 34.0855 10.2197 35.4768 10.6245 36.6431L11.4025 36.373ZM10.8539 32.4916L11.6774 32.4948C11.6826 31.1458 11.837 29.9646 12.1289 28.943L11.337 28.7167L10.5452 28.4905C10.2038 29.6852 10.0361 31.0206 10.0304 32.4885L10.8539 32.4916ZM11.337 28.7167L12.1281 28.9455C12.4269 27.9126 12.8439 27.065 13.3659 26.385L12.7127 25.8835L12.0594 25.3821C11.3914 26.2524 10.8913 27.2936 10.5459 28.4879L11.337 28.7167ZM12.7127 25.8835L13.3637 26.3878C13.8909 25.7073 14.5106 25.2016 15.2248 24.8562L14.8663 24.1148L14.5077 23.3734C13.5515 23.8359 12.7355 24.5093 12.0616 25.3792L12.7127 25.8835ZM14.8663 24.1148L15.2287 24.8543C15.9387 24.5062 16.7488 24.3242 17.6749 24.3242V23.5007V22.6771C16.5267 22.6771 15.4643 22.9045 14.5038 23.3753L14.8663 24.1148ZM17.6749 23.5007V24.3242C18.6853 24.3242 19.5416 24.5207 20.2653 24.8895L20.6392 24.1557L21.013 23.422C20.0226 22.9173 18.9027 22.6771 17.6749 22.6771V23.5007ZM20.6392 24.1557L20.269 24.8914C21.0116 25.265 21.5918 25.7641 22.0275 26.3879L22.7027 25.9163L23.3778 25.4447C22.7763 24.5836 21.9809 23.909 21.0093 23.4201L20.6392 24.1557ZM22.7027 25.9163L22.0299 26.3912C22.473 27.019 22.7413 27.721 22.8347 28.5106L23.6525 28.4138L24.4703 28.317C24.3454 27.2614 23.9804 26.2984 23.3755 25.4414L22.7027 25.9163ZM23.6525 28.4138V27.5902H20.156V28.4138V29.2373H23.6525V28.4138ZM20.156 28.4138L20.958 28.2264C20.7823 27.4744 20.3988 26.8432 19.7956 26.3832L19.2962 27.0381L18.7969 27.693C19.0672 27.899 19.2568 28.1849 19.3541 28.6011L20.156 28.4138ZM19.2962 27.0381L19.7956 26.3832C19.1916 25.9227 18.4671 25.7151 17.6749 25.7151V26.5386V27.3621C18.171 27.3621 18.5274 27.4875 18.7969 27.693L19.2962 27.0381ZM17.6749 26.5386V25.7151C16.2885 25.7151 15.1926 26.3465 14.4787 27.5409L15.1856 27.9634L15.8925 28.3859C16.314 27.6806 16.8777 27.3621 17.6749 27.3621V26.5386ZM15.1856 27.9634L14.4769 27.5439C13.8131 28.6653 13.5138 30.1181 13.5023 31.8311L14.3258 31.8366L15.1493 31.8421C15.1597 30.2906 15.4335 29.1613 15.8943 28.3829L15.1856 27.9634ZM14.3258 31.8366V32.6601H14.4405V31.8366V31.013H14.3258V31.8366ZM14.4405 31.8366L15.1754 32.2081C15.3754 31.8124 15.6419 31.4799 15.9782 31.204L15.4558 30.5673L14.9335 29.9307C14.4182 30.3535 14.0077 30.8672 13.7055 31.465L14.4405 31.8366ZM15.4558 30.5673L15.9791 31.2033C16.3312 30.9136 16.7317 30.6911 17.1867 30.5364L16.9216 29.7567L16.6565 28.977C16.0197 29.1935 15.443 29.5114 14.9326 29.9314L15.4558 30.5673ZM16.9216 29.7567L17.1912 30.5348C17.6518 30.3752 18.1417 30.2936 18.6657 30.2936V29.4701V28.6466C17.967 28.6466 17.2941 28.756 16.6519 28.9786L16.9216 29.7567ZM18.6657 29.4701V30.2936C19.5238 30.2936 20.2579 30.4946 20.8922 30.8787L21.3188 30.1743L21.7454 29.4699C20.8294 28.9151 19.7947 28.6466 18.6657 28.6466V29.4701ZM21.3188 30.1743L20.8958 30.8809C21.5423 31.2679 22.0522 31.7982 22.4315 32.4875L23.153 32.0904L23.8745 31.6933C23.3586 30.7559 22.6457 30.0088 21.7418 29.4677L21.3188 30.1743ZM23.153 32.0904L22.4315 32.4875C22.804 33.1642 23.001 33.9552 23.001 34.8827H23.8245H24.648C24.648 33.7139 24.3973 32.6434 23.8745 31.6933L23.153 32.0904ZM23.8245 34.8827H23.001C23.001 35.8847 22.769 36.7456 22.3236 37.4894L23.0302 37.9124L23.7368 38.3355C24.3505 37.3105 24.648 36.1516 24.648 34.8827H23.8245ZM23.0302 37.9124L22.3217 37.4926C21.8779 38.2415 21.2575 38.8309 20.4408 39.2652L20.8275 39.9923L21.2142 40.7194C22.2863 40.1493 23.1344 39.3521 23.7387 38.3323L23.0302 37.9124ZM20.8275 39.9923L20.4424 39.2644C19.6422 39.6877 18.6882 39.9107 17.5557 39.9058L17.5521 40.7293L17.5485 41.5528C18.9053 41.5588 20.1349 41.2904 21.2126 40.7202L20.8275 39.9923ZM17.5357 37.9452V38.7687C18.2196 38.7687 18.8584 38.6027 19.4291 38.2559L19.0015 37.5521L18.5738 36.8483C18.282 37.0257 17.9436 37.1217 17.5357 37.1217V37.9452ZM19.0015 37.5521L19.4291 38.2559C19.9852 37.918 20.4245 37.4565 20.7388 36.8838L20.0168 36.4876L19.2949 36.0914C19.1178 36.4141 18.8802 36.6622 18.5738 36.8483L19.0015 37.5521ZM20.0168 36.4876L20.7388 36.8838C21.057 36.304 21.2088 35.6634 21.2088 34.9809H20.3853H19.5618C19.5618 35.4121 19.468 35.776 19.2949 36.0914L20.0168 36.4876ZM20.3853 34.9809H21.2088C21.2088 34.2986 21.057 33.6591 20.7367 33.0825L20.0168 33.4825L19.2969 33.8824C19.4679 34.1902 19.5618 34.5496 19.5618 34.9809H20.3853ZM20.0168 33.4825L20.7405 33.0894C20.432 32.5215 19.9987 32.0628 19.4494 31.7248L19.0178 32.4261L18.5862 33.1275C18.8886 33.3136 19.1212 33.559 19.2932 33.8755L20.0168 33.4825ZM19.0178 32.4261L19.4494 31.7248C18.882 31.3756 18.2441 31.2096 17.5603 31.2096V32.0331V32.8566C17.9683 32.8566 18.302 32.9526 18.5862 33.1275L19.0178 32.4261ZM17.5603 32.0331V31.2096C17.0457 31.2096 16.5529 31.3062 16.092 31.5079L16.4221 32.2624L16.7522 33.0168C16.99 32.9128 17.256 32.8566 17.5603 32.8566V32.0331ZM16.4221 32.2624L16.0876 31.5098C15.6456 31.7063 15.2546 31.9812 14.9191 32.3307L15.5131 32.9011L16.1072 33.4714C16.2958 33.275 16.5107 33.1242 16.7565 33.0149L16.4221 32.2624ZM15.5131 32.9011L14.9131 32.337C14.5848 32.6863 14.329 33.0892 14.145 33.5391L14.9072 33.8509L15.6694 34.1628C15.7802 33.892 15.9284 33.6618 16.1132 33.4651L15.5131 32.9011ZM14.9072 33.8509L14.1467 33.535C13.9556 33.9951 13.8626 34.4824 13.8626 34.9891H14.6861H15.5096C15.5096 34.6879 15.564 34.4165 15.6677 34.1668L14.9072 33.8509ZM14.6861 34.9891H13.8626C13.8626 35.6597 14.0164 36.2913 14.3326 36.8675L15.0546 36.4713L15.7766 36.0751C15.6014 35.756 15.5096 35.3994 15.5096 34.9891H14.6861ZM15.0546 36.4713L14.3364 36.8742C14.6533 37.4392 15.0871 37.899 15.6319 38.2413L16.07 37.544L16.508 36.8466C16.2013 36.6539 15.9581 36.3986 15.7728 36.0683L15.0546 36.4713ZM16.07 37.544L15.6359 38.2438C16.2074 38.5983 16.8485 38.7687 17.5357 38.7687V37.9452V37.1217C17.1311 37.1217 16.7951 37.0246 16.504 36.8441L16.07 37.544Z" fill="#2B3F46" mask="url(#path-33-outside-1_2122_4397)"/>
<mask id="path-35-outside-2_2122_4397" maskUnits="userSpaceOnUse" x="26.3535" y="28" width="12" height="11" fill="black">
<rect fill="white" x="26.3535" y="28" width="12" height="11"/>
<path d="M30.7484 29.2727L32.3507 32.3239L33.9927 29.2727H36.4757L33.9473 33.6364L36.5439 38H34.0723L32.3507 34.983L30.6575 38H28.1575L30.7484 33.6364L28.2484 29.2727H30.7484Z"/>
</mask>
<path d="M30.7484 29.2727L32.3507 32.3239L33.9927 29.2727H36.4757L33.9473 33.6364L36.5439 38H34.0723L32.3507 34.983L30.6575 38H28.1575L30.7484 33.6364L28.2484 29.2727H30.7484Z" fill="white"/>
<path d="M30.7484 29.2727L31.4775 28.8898L31.2461 28.4492H30.7484V29.2727ZM32.3507 32.3239L31.6216 32.7067L32.3418 34.0782L33.0759 32.7141L32.3507 32.3239ZM33.9927 29.2727V28.4492H33.5007L33.2675 28.8825L33.9927 29.2727ZM36.4757 29.2727L37.1882 29.6856L37.9046 28.4492H36.4757V29.2727ZM33.9473 33.6364L33.2347 33.2235L32.9923 33.6419L33.2396 34.0575L33.9473 33.6364ZM36.5439 38V38.8235H37.9922L37.2516 37.5789L36.5439 38ZM34.0723 38L33.357 38.4081L33.594 38.8235H34.0723V38ZM32.3507 34.983L33.0659 34.5748L32.3447 33.3109L31.6325 34.5799L32.3507 34.983ZM30.6575 38V38.8235H31.1397L31.3757 38.403L30.6575 38ZM28.1575 38L27.4494 37.5796L26.7108 38.8235H28.1575V38ZM30.7484 33.6364L31.4565 34.0568L31.7018 33.6438L31.463 33.227L30.7484 33.6364ZM28.2484 29.2727V28.4492H26.8275L27.5338 29.6821L28.2484 29.2727ZM30.7484 29.2727L30.0193 29.6556L31.6216 32.7067L32.3507 32.3239L33.0798 31.941L31.4775 28.8898L30.7484 29.2727ZM32.3507 32.3239L33.0759 32.7141L34.7179 29.663L33.9927 29.2727L33.2675 28.8825L31.6255 31.9336L32.3507 32.3239ZM33.9927 29.2727V30.0963H36.4757V29.2727V28.4492H33.9927V29.2727ZM36.4757 29.2727L35.7631 28.8599L33.2347 33.2235L33.9473 33.6364L34.6598 34.0492L37.1882 29.6856L36.4757 29.2727ZM33.9473 33.6364L33.2396 34.0575L35.8361 38.4211L36.5439 38L37.2516 37.5789L34.655 33.2152L33.9473 33.6364ZM36.5439 38V37.1765H34.0723V38V38.8235H36.5439V38ZM34.0723 38L34.7875 37.5919L33.0659 34.5748L32.3507 34.983L31.6354 35.3911L33.357 38.4081L34.0723 38ZM32.3507 34.983L31.6325 34.5799L29.9393 37.597L30.6575 38L31.3757 38.403L33.0688 35.386L32.3507 34.983ZM30.6575 38V37.1765H28.1575V38V38.8235H30.6575V38ZM28.1575 38L28.8656 38.4204L31.4565 34.0568L30.7484 33.6364L30.0403 33.2159L27.4494 37.5796L28.1575 38ZM30.7484 33.6364L31.463 33.227L28.963 28.8633L28.2484 29.2727L27.5338 29.6821L30.0338 34.0457L30.7484 33.6364ZM28.2484 29.2727V30.0963H30.7484V29.2727V28.4492H28.2484V29.2727Z" fill="#2B3F46" mask="url(#path-35-outside-2_2122_4397)"/>
<mask id="path-37-outside-3_2122_4397" maskUnits="userSpaceOnUse" x="39.3535" y="22.5" width="16" height="20" fill="black">
<rect fill="white" x="39.3535" y="22.5" width="16" height="20"/>
<path d="M47.5521 40.7293C46.6896 40.7238 45.8571 40.5792 45.0546 40.2953C44.2576 40.0114 43.5424 39.5501 42.9092 38.9114C42.276 38.2727 41.7737 37.4266 41.4025 36.373C41.0368 35.3194 40.8539 34.0256 40.8539 32.4916C40.8594 31.0832 41.0204 29.8249 41.337 28.7167C41.6591 27.6031 42.1177 26.6587 42.7127 25.8835C43.3132 25.1083 44.031 24.5188 44.8663 24.1148C45.7015 23.7054 46.6377 23.5007 47.6749 23.5007C48.794 23.5007 49.7821 23.719 50.6392 24.1557C51.4962 24.587 52.1841 25.1739 52.7027 25.9163C53.2267 26.6587 53.5433 27.4912 53.6525 28.4138H50.156C50.0196 27.8297 49.733 27.3711 49.2962 27.0381C48.8595 26.7051 48.3191 26.5386 47.6749 26.5386C46.5831 26.5386 45.7533 27.0135 45.1856 27.9634C44.6233 28.9133 44.3367 30.2043 44.3258 31.8366H44.4405C44.6916 31.3398 45.03 30.9167 45.4558 30.5673C45.8871 30.2125 46.3757 29.9423 46.9216 29.7567C47.4729 29.5656 48.0543 29.4701 48.6657 29.4701C49.6593 29.4701 50.5436 29.7048 51.3188 30.1743C52.094 30.6383 52.7054 31.277 53.153 32.0904C53.6007 32.9038 53.8245 33.8346 53.8245 34.8827C53.8245 36.0182 53.5597 37.0281 53.0302 37.9124C52.5061 38.7968 51.7719 39.4901 50.8275 39.9923C49.8885 40.4891 48.7967 40.7347 47.5521 40.7293ZM47.5357 37.9452C48.0816 37.9452 48.5702 37.8142 49.0015 37.5521C49.4327 37.2901 49.7712 36.9353 50.0168 36.4876C50.2625 36.04 50.3853 35.5378 50.3853 34.9809C50.3853 34.4241 50.2625 33.9246 50.0168 33.4825C49.7766 33.0403 49.4436 32.6882 49.0178 32.4261C48.592 32.1641 48.1062 32.0331 47.5603 32.0331C47.1509 32.0331 46.7714 32.1095 46.4221 32.2624C46.0782 32.4152 45.7752 32.6281 45.5131 32.9011C45.2566 33.174 45.0546 33.4906 44.9072 33.8509C44.7598 34.2058 44.6861 34.5852 44.6861 34.9891C44.6861 35.5296 44.8089 36.0236 45.0546 36.4713C45.3057 36.9189 45.6442 37.2765 46.07 37.544C46.5012 37.8114 46.9898 37.9452 47.5357 37.9452Z"/>
</mask>
<path d="M47.5521 40.7293C46.6896 40.7238 45.8571 40.5792 45.0546 40.2953C44.2576 40.0114 43.5424 39.5501 42.9092 38.9114C42.276 38.2727 41.7737 37.4266 41.4025 36.373C41.0368 35.3194 40.8539 34.0256 40.8539 32.4916C40.8594 31.0832 41.0204 29.8249 41.337 28.7167C41.6591 27.6031 42.1177 26.6587 42.7127 25.8835C43.3132 25.1083 44.031 24.5188 44.8663 24.1148C45.7015 23.7054 46.6377 23.5007 47.6749 23.5007C48.794 23.5007 49.7821 23.719 50.6392 24.1557C51.4962 24.587 52.1841 25.1739 52.7027 25.9163C53.2267 26.6587 53.5433 27.4912 53.6525 28.4138H50.156C50.0196 27.8297 49.733 27.3711 49.2962 27.0381C48.8595 26.7051 48.3191 26.5386 47.6749 26.5386C46.5831 26.5386 45.7533 27.0135 45.1856 27.9634C44.6233 28.9133 44.3367 30.2043 44.3258 31.8366H44.4405C44.6916 31.3398 45.03 30.9167 45.4558 30.5673C45.8871 30.2125 46.3757 29.9423 46.9216 29.7567C47.4729 29.5656 48.0543 29.4701 48.6657 29.4701C49.6593 29.4701 50.5436 29.7048 51.3188 30.1743C52.094 30.6383 52.7054 31.277 53.153 32.0904C53.6007 32.9038 53.8245 33.8346 53.8245 34.8827C53.8245 36.0182 53.5597 37.0281 53.0302 37.9124C52.5061 38.7968 51.7719 39.4901 50.8275 39.9923C49.8885 40.4891 48.7967 40.7347 47.5521 40.7293ZM47.5357 37.9452C48.0816 37.9452 48.5702 37.8142 49.0015 37.5521C49.4327 37.2901 49.7712 36.9353 50.0168 36.4876C50.2625 36.04 50.3853 35.5378 50.3853 34.9809C50.3853 34.4241 50.2625 33.9246 50.0168 33.4825C49.7766 33.0403 49.4436 32.6882 49.0178 32.4261C48.592 32.1641 48.1062 32.0331 47.5603 32.0331C47.1509 32.0331 46.7714 32.1095 46.4221 32.2624C46.0782 32.4152 45.7752 32.6281 45.5131 32.9011C45.2566 33.174 45.0546 33.4906 44.9072 33.8509C44.7598 34.2058 44.6861 34.5852 44.6861 34.9891C44.6861 35.5296 44.8089 36.0236 45.0546 36.4713C45.3057 36.9189 45.6442 37.2765 46.07 37.544C46.5012 37.8114 46.9898 37.9452 47.5357 37.9452Z" fill="white"/>
<path d="M47.5521 40.7293L47.5469 41.5528L47.5485 41.5528L47.5521 40.7293ZM45.0546 40.2953L44.7783 41.0711L44.78 41.0717L45.0546 40.2953ZM42.9092 38.9114L42.3244 39.4912L42.3244 39.4912L42.9092 38.9114ZM41.4025 36.373L40.6245 36.6431L40.6258 36.6467L41.4025 36.373ZM40.8539 32.4916L40.0304 32.4885V32.4916H40.8539ZM41.337 28.7167L40.5459 28.4879L40.5452 28.4905L41.337 28.7167ZM42.7127 25.8835L42.0616 25.3792L42.0594 25.3821L42.7127 25.8835ZM44.8663 24.1148L45.2248 24.8562L45.2287 24.8543L44.8663 24.1148ZM50.6392 24.1557L50.2653 24.8895L50.269 24.8914L50.6392 24.1557ZM52.7027 25.9163L52.0275 26.3879L52.0299 26.3912L52.7027 25.9163ZM53.6525 28.4138V29.2373H54.5793L54.4703 28.317L53.6525 28.4138ZM50.156 28.4138L49.3541 28.6011L49.5027 29.2373H50.156V28.4138ZM45.1856 27.9634L44.4787 27.5409L44.4769 27.5439L45.1856 27.9634ZM44.3258 31.8366L43.5023 31.8311L43.4968 32.6601H44.3258V31.8366ZM44.4405 31.8366V32.6601H44.9469L45.1754 32.2081L44.4405 31.8366ZM45.4558 30.5673L45.9782 31.204L45.9791 31.2033L45.4558 30.5673ZM46.9216 29.7567L47.1867 30.5364L47.1912 30.5348L46.9216 29.7567ZM51.3188 30.1743L50.8922 30.8787L50.8958 30.8809L51.3188 30.1743ZM53.0302 37.9124L52.3236 37.4894L52.3217 37.4926L53.0302 37.9124ZM50.8275 39.9923L51.2126 40.7202L51.2142 40.7194L50.8275 39.9923ZM49.0015 37.5521L49.4291 38.2559L49.4291 38.2559L49.0015 37.5521ZM50.0168 36.4876L49.2949 36.0914L49.2949 36.0914L50.0168 36.4876ZM50.0168 33.4825L49.2931 33.8756L49.2969 33.8824L50.0168 33.4825ZM49.0178 32.4261L49.4494 31.7248L49.4494 31.7248L49.0178 32.4261ZM46.4221 32.2624L46.092 31.5079L46.0876 31.5098L46.4221 32.2624ZM45.5131 32.9011L44.919 32.3307L44.9131 32.337L45.5131 32.9011ZM44.9072 33.8509L45.6677 34.1669L45.6694 34.1628L44.9072 33.8509ZM45.0546 36.4713L44.3326 36.8675L44.3364 36.8742L45.0546 36.4713ZM46.07 37.544L45.6319 38.2413L45.6359 38.2438L46.07 37.544ZM47.5521 40.7293L47.5573 39.9058C46.7853 39.9009 46.044 39.7717 45.3292 39.5189L45.0546 40.2953L44.78 41.0717C45.6701 41.3866 46.5938 41.5468 47.5469 41.5528L47.5521 40.7293ZM45.0546 40.2953L45.3309 39.5195C44.6574 39.2796 44.046 38.8884 43.494 38.3316L42.9092 38.9114L42.3244 39.4912C43.0389 40.2119 43.8578 40.7432 44.7783 41.0711L45.0546 40.2953ZM42.9092 38.9114L43.494 38.3316C42.9648 37.7978 42.5195 37.0651 42.1792 36.0993L41.4025 36.373L40.6258 36.6467C41.028 37.7881 41.5871 38.7476 42.3244 39.4912L42.9092 38.9114ZM41.4025 36.373L42.1805 36.1029C41.8539 35.162 41.6774 33.9657 41.6774 32.4916H40.8539H40.0304C40.0304 34.0855 40.2197 35.4768 40.6245 36.6431L41.4025 36.373ZM40.8539 32.4916L41.6774 32.4948C41.6826 31.1458 41.837 29.9646 42.1289 28.943L41.337 28.7167L40.5452 28.4905C40.2038 29.6852 40.0361 31.0206 40.0304 32.4885L40.8539 32.4916ZM41.337 28.7167L42.1281 28.9455C42.4269 27.9126 42.8439 27.065 43.3659 26.385L42.7127 25.8835L42.0594 25.3821C41.3914 26.2524 40.8913 27.2936 40.5459 28.4879L41.337 28.7167ZM42.7127 25.8835L43.3637 26.3878C43.8909 25.7073 44.5106 25.2016 45.2248 24.8562L44.8663 24.1148L44.5077 23.3734C43.5515 23.8359 42.7355 24.5093 42.0616 25.3792L42.7127 25.8835ZM44.8663 24.1148L45.2287 24.8543C45.9387 24.5062 46.7488 24.3242 47.6749 24.3242V23.5007V22.6771C46.5267 22.6771 45.4643 22.9045 44.5038 23.3753L44.8663 24.1148ZM47.6749 23.5007V24.3242C48.6853 24.3242 49.5416 24.5207 50.2653 24.8895L50.6392 24.1557L51.013 23.422C50.0226 22.9173 48.9027 22.6771 47.6749 22.6771V23.5007ZM50.6392 24.1557L50.269 24.8914C51.0116 25.265 51.5918 25.7641 52.0275 26.3879L52.7027 25.9163L53.3778 25.4447C52.7763 24.5836 51.9809 23.909 51.0093 23.4201L50.6392 24.1557ZM52.7027 25.9163L52.0299 26.3912C52.473 27.019 52.7413 27.721 52.8347 28.5106L53.6525 28.4138L54.4703 28.317C54.3454 27.2614 53.9804 26.2984 53.3755 25.4414L52.7027 25.9163ZM53.6525 28.4138V27.5902H50.156V28.4138V29.2373H53.6525V28.4138ZM50.156 28.4138L50.958 28.2264C50.7823 27.4744 50.3988 26.8432 49.7956 26.3832L49.2962 27.0381L48.7969 27.693C49.0672 27.899 49.2568 28.1849 49.3541 28.6011L50.156 28.4138ZM49.2962 27.0381L49.7956 26.3832C49.1916 25.9227 48.4671 25.7151 47.6749 25.7151V26.5386V27.3621C48.171 27.3621 48.5274 27.4875 48.7969 27.693L49.2962 27.0381ZM47.6749 26.5386V25.7151C46.2885 25.7151 45.1926 26.3465 44.4787 27.5409L45.1856 27.9634L45.8925 28.3859C46.314 27.6806 46.8777 27.3621 47.6749 27.3621V26.5386ZM45.1856 27.9634L44.4769 27.5439C43.8131 28.6653 43.5138 30.1181 43.5023 31.8311L44.3258 31.8366L45.1493 31.8421C45.1597 30.2906 45.4335 29.1613 45.8943 28.3829L45.1856 27.9634ZM44.3258 31.8366V32.6601H44.4405V31.8366V31.013H44.3258V31.8366ZM44.4405 31.8366L45.1754 32.2081C45.3754 31.8124 45.6419 31.4799 45.9782 31.204L45.4558 30.5673L44.9335 29.9307C44.4182 30.3535 44.0077 30.8672 43.7055 31.465L44.4405 31.8366ZM45.4558 30.5673L45.9791 31.2033C46.3312 30.9136 46.7317 30.6911 47.1867 30.5364L46.9216 29.7567L46.6565 28.977C46.0197 29.1935 45.443 29.5114 44.9326 29.9314L45.4558 30.5673ZM46.9216 29.7567L47.1912 30.5348C47.6518 30.3752 48.1417 30.2936 48.6657 30.2936V29.4701V28.6466C47.967 28.6466 47.2941 28.756 46.6519 28.9786L46.9216 29.7567ZM48.6657 29.4701V30.2936C49.5238 30.2936 50.2579 30.4946 50.8922 30.8787L51.3188 30.1743L51.7454 29.4699C50.8294 28.9151 49.7947 28.6466 48.6657 28.6466V29.4701ZM51.3188 30.1743L50.8958 30.8809C51.5423 31.2679 52.0522 31.7982 52.4315 32.4875L53.153 32.0904L53.8745 31.6933C53.3586 30.7559 52.6457 30.0088 51.7418 29.4677L51.3188 30.1743ZM53.153 32.0904L52.4315 32.4875C52.804 33.1642 53.001 33.9552 53.001 34.8827H53.8245H54.648C54.648 33.7139 54.3973 32.6434 53.8745 31.6933L53.153 32.0904ZM53.8245 34.8827H53.001C53.001 35.8847 52.769 36.7456 52.3236 37.4894L53.0302 37.9124L53.7368 38.3355C54.3505 37.3105 54.648 36.1516 54.648 34.8827H53.8245ZM53.0302 37.9124L52.3217 37.4926C51.8779 38.2415 51.2575 38.8309 50.4408 39.2652L50.8275 39.9923L51.2142 40.7194C52.2863 40.1493 53.1344 39.3521 53.7387 38.3323L53.0302 37.9124ZM50.8275 39.9923L50.4424 39.2644C49.6422 39.6877 48.6882 39.9107 47.5557 39.9058L47.5521 40.7293L47.5485 41.5528C48.9053 41.5588 50.1349 41.2904 51.2126 40.7202L50.8275 39.9923ZM47.5357 37.9452V38.7687C48.2196 38.7687 48.8584 38.6027 49.4291 38.2559L49.0015 37.5521L48.5738 36.8483C48.282 37.0257 47.9436 37.1217 47.5357 37.1217V37.9452ZM49.0015 37.5521L49.4291 38.2559C49.9852 37.918 50.4245 37.4565 50.7388 36.8838L50.0168 36.4876L49.2949 36.0914C49.1178 36.4141 48.8802 36.6622 48.5738 36.8483L49.0015 37.5521ZM50.0168 36.4876L50.7388 36.8838C51.057 36.304 51.2088 35.6634 51.2088 34.9809H50.3853H49.5618C49.5618 35.4121 49.468 35.776 49.2949 36.0914L50.0168 36.4876ZM50.3853 34.9809H51.2088C51.2088 34.2986 51.057 33.6591 50.7367 33.0825L50.0168 33.4825L49.2969 33.8824C49.4679 34.1902 49.5618 34.5496 49.5618 34.9809H50.3853ZM50.0168 33.4825L50.7405 33.0894C50.432 32.5215 49.9987 32.0628 49.4494 31.7248L49.0178 32.4261L48.5862 33.1275C48.8886 33.3136 49.1212 33.559 49.2932 33.8755L50.0168 33.4825ZM49.0178 32.4261L49.4494 31.7248C48.882 31.3756 48.2441 31.2096 47.5603 31.2096V32.0331V32.8566C47.9683 32.8566 48.302 32.9526 48.5862 33.1275L49.0178 32.4261ZM47.5603 32.0331V31.2096C47.0457 31.2096 46.5529 31.3062 46.092 31.5079L46.4221 32.2624L46.7522 33.0168C46.99 32.9128 47.256 32.8566 47.5603 32.8566V32.0331ZM46.4221 32.2624L46.0876 31.5098C45.6456 31.7063 45.2546 31.9812 44.9191 32.3307L45.5131 32.9011L46.1072 33.4714C46.2958 33.275 46.5107 33.1242 46.7565 33.0149L46.4221 32.2624ZM45.5131 32.9011L44.9131 32.337C44.5848 32.6863 44.329 33.0892 44.145 33.5391L44.9072 33.8509L45.6694 34.1628C45.7802 33.892 45.9284 33.6618 46.1132 33.4651L45.5131 32.9011ZM44.9072 33.8509L44.1467 33.535C43.9556 33.9951 43.8626 34.4824 43.8626 34.9891H44.6861H45.5096C45.5096 34.6879 45.564 34.4165 45.6677 34.1668L44.9072 33.8509ZM44.6861 34.9891H43.8626C43.8626 35.6597 44.0164 36.2913 44.3326 36.8675L45.0546 36.4713L45.7766 36.0751C45.6014 35.756 45.5096 35.3994 45.5096 34.9891H44.6861ZM45.0546 36.4713L44.3364 36.8742C44.6533 37.4392 45.0871 37.899 45.6319 38.2413L46.07 37.544L46.508 36.8466C46.2013 36.6539 45.9581 36.3986 45.7728 36.0683L45.0546 36.4713ZM46.07 37.544L45.6359 38.2438C46.2074 38.5983 46.8485 38.7687 47.5357 38.7687V37.9452V37.1217C47.1311 37.1217 46.7951 37.0246 46.504 36.8441L46.07 37.544Z" fill="#2B3F46" mask="url(#path-37-outside-3_2122_4397)"/>
<defs>
<linearGradient id="paint0_linear_2122_4397" x1="35.8411" y1="35.864" x2="-1.88188" y2="2.08424" gradientUnits="userSpaceOnUse">
<stop stop-color="#FFD5EF"/>
<stop offset="1" stop-color="#EFBDFD"/>
</linearGradient>
<linearGradient id="paint1_linear_2122_4397" x1="26.8809" y1="4.483" x2="25.174" y2="-4.68761" gradientUnits="userSpaceOnUse">
<stop stop-color="#F95457"/>
<stop offset="1" stop-color="#FDBDCB"/>
</linearGradient>
<linearGradient id="paint2_linear_2122_4397" x1="26.8809" y1="4.483" x2="25.174" y2="-4.68761" gradientUnits="userSpaceOnUse">
<stop stop-color="#F95457"/>
<stop offset="1" stop-color="#FDBDCB"/>
</linearGradient>
<linearGradient id="paint3_linear_2122_4397" x1="4.71844" y1="43.652" x2="1.80424" y2="43.0279" gradientUnits="userSpaceOnUse">
<stop stop-color="#F95457"/>
<stop offset="1" stop-color="#FDBDCB"/>
</linearGradient>
<linearGradient id="paint4_linear_2122_4397" x1="35.7657" y1="58.0257" x2="30.2143" y2="50.8928" gradientUnits="userSpaceOnUse">
<stop stop-color="#F95457"/>
<stop offset="1" stop-color="#FDBDCB"/>
</linearGradient>
<linearGradient id="paint5_linear_2122_4397" x1="60.6657" y1="43.652" x2="57.7515" y2="43.0279" gradientUnits="userSpaceOnUse">
<stop stop-color="#F95457"/>
<stop offset="1" stop-color="#FDBDCB"/>
</linearGradient>
<linearGradient id="paint6_linear_2122_4397" x1="-1.09962e-05" y1="-0.0328651" x2="30.641" y2="-4.05264" gradientUnits="userSpaceOnUse">
<stop stop-color="#D74446"/>
<stop offset="1" stop-color="#E165B8"/>
</linearGradient>
<linearGradient id="paint7_linear_2122_4397" x1="-1.11276e-05" y1="-0.033258" x2="31.0073" y2="-4.10108" gradientUnits="userSpaceOnUse">
<stop stop-color="#D74446"/>
<stop offset="1" stop-color="#E165B8"/>
</linearGradient>
<linearGradient id="paint8_linear_2122_4397" x1="-8.34573e-06" y1="-0.00415724" x2="14.606" y2="-11.5011" gradientUnits="userSpaceOnUse">
<stop stop-color="#D1369D"/>
<stop offset="1" stop-color="#B31E20"/>
</linearGradient>
<linearGradient id="paint9_linear_2122_4397" x1="-8.34573e-06" y1="-0.00415724" x2="14.606" y2="-11.5011" gradientUnits="userSpaceOnUse">
<stop stop-color="#D74446"/>
<stop offset="1" stop-color="#E165B8"/>
</linearGradient>
<linearGradient id="paint10_linear_2122_4397" x1="2.32031" y1="36.6188" x2="3.73321" y2="36.5744" gradientUnits="userSpaceOnUse">
<stop stop-color="#D74446"/>
<stop offset="1" stop-color="#D1369D"/>
</linearGradient>
<linearGradient id="paint11_linear_2122_4397" x1="27.5449" y1="52.5135" x2="34.14" y2="51.2721" gradientUnits="userSpaceOnUse">
<stop stop-color="#B31E20"/>
<stop offset="1" stop-color="#D74446"/>
</linearGradient>
<linearGradient id="paint12_linear_2122_4397" x1="59.0059" y1="36.6188" x2="60.4188" y2="36.5744" gradientUnits="userSpaceOnUse">
<stop stop-color="#E165B8"/>
<stop offset="1" stop-color="#D74446"/>
</linearGradient>
<clipPath id="clip0_2122_4397">
<rect width="63" height="39.5638" fill="white" transform="translate(0 18.4604)"/>
</clipPath>
<clipPath id="clip1_2122_4397">
<rect width="35.8992" height="35.8992" rx="4.44179" transform="matrix(0.866025 0.5 -0.866025 0.5 31.9102 19)" fill="white"/>
</clipPath>
<clipPath id="clip2_2122_4397">
<rect width="36.3731" height="36.3731" rx="4.50041" transform="matrix(0.866025 0.5 -0.866025 0.5 31.5 18.4607)" fill="white"/>
</clipPath>
</defs>
</svg>
