<svg width="64" height="64" viewBox="0 0 64 64" fill="none" xmlns="http://www.w3.org/2000/svg">
<g clip-path="url(#clip0_2122_4396)">
<rect width="35.8551" height="35.8551" rx="4.37833" transform="matrix(0.866025 0.5 -0.866025 0.5 31.8887 19)" fill="url(#paint0_linear_2122_4396)"/>
<rect width="26.8913" height="4.48189" transform="matrix(0.866025 0.5 0 1 4.71875 39.1685)" fill="url(#paint1_linear_2122_4396)"/>
<rect width="26.8913" height="4.48189" transform="matrix(0.866025 -0.5 0 1 35.7695 52.6143)" fill="url(#paint2_linear_2122_4396)"/>
<path d="M3.11133 36.9275C3.11133 37.8026 3.72572 38.5949 4.71907 39.1684V43.6503C3.72572 43.0768 3.11133 42.2845 3.11133 41.4094V36.9275Z" fill="url(#paint3_linear_2122_4396)"/>
<path d="M28.0059 52.6143C30.1495 53.8519 33.6251 53.8519 35.7687 52.6143V57.0961C33.6251 58.3338 30.1495 58.3338 28.0059 57.0961V52.6143Z" fill="url(#paint4_linear_2122_4396)"/>
<path d="M60.6663 36.9275C60.6663 37.8026 60.0519 38.5949 59.0586 39.1684V43.6503C60.0519 43.0768 60.6663 42.2845 60.6663 41.4094V36.9275Z" fill="url(#paint5_linear_2122_4396)"/>
<g clip-path="url(#clip1_2122_4396)">
<rect width="35.8992" height="35.8992" rx="4.44179" transform="matrix(0.866025 0.5 -0.866025 0.5 31.9102 19)" fill="url(#paint6_linear_2122_4396)"/>
<rect width="11.5594" height="11.5594" transform="matrix(0.866025 0.5 -0.866025 0.5 31.9102 19)" fill="black" fill-opacity="0.1"/>
<rect width="11.5594" height="11.5594" transform="matrix(0.866025 0.5 -0.866025 0.5 21.3711 25.085)" fill="black" fill-opacity="0.1"/>
<rect width="11.5594" height="11.5594" transform="matrix(0.866025 0.5 -0.866025 0.5 21.3711 37.2549)" fill="black" fill-opacity="0.1"/>
<rect width="11.5594" height="11.5594" transform="matrix(0.866025 0.5 -0.866025 0.5 42.4492 25.085)" fill="black" fill-opacity="0.1"/>
<rect width="11.5594" height="11.5594" transform="matrix(0.866025 0.5 -0.866025 0.5 42.4492 37.2549)" fill="black" fill-opacity="0.1"/>
<rect width="11.5594" height="11.5594" transform="matrix(0.866025 0.5 -0.866025 0.5 52.9883 31.1699)" fill="black" fill-opacity="0.1"/>
<rect width="11.5594" height="11.5594" transform="matrix(0.866025 0.5 -0.866025 0.5 10.832 31.1699)" fill="black" fill-opacity="0.1"/>
<rect width="11.5594" height="11.5594" transform="matrix(0.866025 0.5 -0.866025 0.5 31.9102 43.3398)" fill="black" fill-opacity="0.1"/>
<rect width="11.5594" height="11.5594" transform="matrix(0.866025 0.5 -0.866025 0.5 31.9102 31.1699)" fill="black" fill-opacity="0.1"/>
</g>
<rect width="36.3283" height="36.3283" rx="4.43612" transform="matrix(0.866025 0.5 -0.866025 0.5 31.4785 18.4607)" fill="url(#paint7_linear_2122_4396)"/>
<rect width="27.2462" height="4.54104" transform="matrix(0.866025 0.5 0 1 3.94922 38.8958)" fill="url(#paint8_linear_2122_4396)"/>
<rect width="27.2462" height="4.54104" transform="matrix(0.866025 -0.5 0 1 35.4102 52.5186)" fill="url(#paint9_linear_2122_4396)"/>
<path d="M2.32031 36.625C2.32031 37.5117 2.94282 38.3144 3.94927 38.8955V43.4366C2.94282 42.8555 2.32031 42.0527 2.32031 41.166V36.625Z" fill="url(#paint10_linear_2122_4396)"/>
<path d="M27.5449 52.5186C29.7169 53.7725 33.2383 53.7725 35.4102 52.5186V57.0596C33.2383 58.3136 29.7169 58.3136 27.5449 57.0596V52.5186Z" fill="url(#paint11_linear_2122_4396)"/>
<path d="M60.6348 36.625C60.6348 37.5117 60.0123 38.3144 59.0059 38.8955V43.4366C60.0123 42.8555 60.6348 42.0527 60.6348 41.166V36.625Z" fill="url(#paint12_linear_2122_4396)"/>
<g clip-path="url(#clip2_2122_4396)">
<rect width="11.712" height="11.712" transform="matrix(0.866025 0.5 -0.866025 0.5 31.5 18.4607)" fill="white" fill-opacity="0.2"/>
<rect width="11.712" height="11.712" transform="matrix(0.866025 0.5 -0.866025 0.5 20.8223 24.626)" fill="white" fill-opacity="0.2"/>
<rect width="11.712" height="11.712" transform="matrix(0.866025 0.5 -0.866025 0.5 20.8223 36.9565)" fill="white" fill-opacity="0.2"/>
<rect width="11.712" height="11.712" transform="matrix(0.866025 0.5 -0.866025 0.5 42.1777 24.626)" fill="white" fill-opacity="0.2"/>
<rect width="11.712" height="11.712" transform="matrix(0.866025 0.5 -0.866025 0.5 42.1777 36.9565)" fill="white" fill-opacity="0.2"/>
<rect width="11.712" height="11.712" transform="matrix(0.866025 0.5 -0.866025 0.5 52.8574 30.7913)" fill="white" fill-opacity="0.2"/>
<rect width="11.712" height="11.712" transform="matrix(0.866025 0.5 -0.866025 0.5 10.1426 30.7913)" fill="white" fill-opacity="0.2"/>
<rect width="11.712" height="11.712" transform="matrix(0.866025 0.5 -0.866025 0.5 31.5 43.1221)" fill="white" fill-opacity="0.2"/>
<rect width="11.712" height="11.712" transform="matrix(0.866025 0.5 -0.866025 0.5 31.5 30.7913)" fill="white" fill-opacity="0.2"/>
</g>
</g>
<mask id="path-33-outside-1_2122_4396" maskUnits="userSpaceOnUse" x="9.35352" y="22.5" width="16" height="20" fill="black">
<rect fill="white" x="9.35352" y="22.5" width="16" height="20"/>
<path d="M17.5521 40.7293C16.6896 40.7238 15.8571 40.5792 15.0546 40.2953C14.2576 40.0114 13.5424 39.5501 12.9092 38.9114C12.276 38.2727 11.7737 37.4266 11.4025 36.373C11.0368 35.3194 10.8539 34.0256 10.8539 32.4916C10.8594 31.0832 11.0204 29.8249 11.337 28.7167C11.6591 27.6031 12.1177 26.6587 12.7127 25.8835C13.3132 25.1083 14.031 24.5188 14.8663 24.1148C15.7015 23.7054 16.6377 23.5007 17.6749 23.5007C18.794 23.5007 19.7821 23.719 20.6392 24.1557C21.4962 24.587 22.1841 25.1739 22.7027 25.9163C23.2267 26.6587 23.5433 27.4912 23.6525 28.4138H20.156C20.0196 27.8297 19.733 27.3711 19.2962 27.0381C18.8595 26.7051 18.3191 26.5386 17.6749 26.5386C16.5831 26.5386 15.7533 27.0135 15.1856 27.9634C14.6233 28.9133 14.3367 30.2043 14.3258 31.8366H14.4405C14.6916 31.3398 15.03 30.9167 15.4558 30.5673C15.8871 30.2125 16.3757 29.9423 16.9216 29.7567C17.4729 29.5656 18.0543 29.4701 18.6657 29.4701C19.6593 29.4701 20.5436 29.7048 21.3188 30.1743C22.094 30.6383 22.7054 31.277 23.153 32.0904C23.6007 32.9038 23.8245 33.8346 23.8245 34.8827C23.8245 36.0182 23.5597 37.0281 23.0302 37.9124C22.5061 38.7968 21.7719 39.4901 20.8275 39.9923C19.8885 40.4891 18.7967 40.7347 17.5521 40.7293ZM17.5357 37.9452C18.0816 37.9452 18.5702 37.8142 19.0015 37.5521C19.4327 37.2901 19.7712 36.9353 20.0168 36.4876C20.2625 36.04 20.3853 35.5378 20.3853 34.9809C20.3853 34.4241 20.2625 33.9246 20.0168 33.4825C19.7766 33.0403 19.4436 32.6882 19.0178 32.4261C18.592 32.1641 18.1062 32.0331 17.5603 32.0331C17.1509 32.0331 16.7714 32.1095 16.4221 32.2624C16.0782 32.4152 15.7752 32.6281 15.5131 32.9011C15.2566 33.174 15.0546 33.4906 14.9072 33.8509C14.7598 34.2058 14.6861 34.5852 14.6861 34.9891C14.6861 35.5296 14.8089 36.0236 15.0546 36.4713C15.3057 36.9189 15.6442 37.2765 16.07 37.544C16.5012 37.8114 16.9898 37.9452 17.5357 37.9452Z"/>
</mask>
<path d="M17.5521 40.7293C16.6896 40.7238 15.8571 40.5792 15.0546 40.2953C14.2576 40.0114 13.5424 39.5501 12.9092 38.9114C12.276 38.2727 11.7737 37.4266 11.4025 36.373C11.0368 35.3194 10.8539 34.0256 10.8539 32.4916C10.8594 31.0832 11.0204 29.8249 11.337 28.7167C11.6591 27.6031 12.1177 26.6587 12.7127 25.8835C13.3132 25.1083 14.031 24.5188 14.8663 24.1148C15.7015 23.7054 16.6377 23.5007 17.6749 23.5007C18.794 23.5007 19.7821 23.719 20.6392 24.1557C21.4962 24.587 22.1841 25.1739 22.7027 25.9163C23.2267 26.6587 23.5433 27.4912 23.6525 28.4138H20.156C20.0196 27.8297 19.733 27.3711 19.2962 27.0381C18.8595 26.7051 18.3191 26.5386 17.6749 26.5386C16.5831 26.5386 15.7533 27.0135 15.1856 27.9634C14.6233 28.9133 14.3367 30.2043 14.3258 31.8366H14.4405C14.6916 31.3398 15.03 30.9167 15.4558 30.5673C15.8871 30.2125 16.3757 29.9423 16.9216 29.7567C17.4729 29.5656 18.0543 29.4701 18.6657 29.4701C19.6593 29.4701 20.5436 29.7048 21.3188 30.1743C22.094 30.6383 22.7054 31.277 23.153 32.0904C23.6007 32.9038 23.8245 33.8346 23.8245 34.8827C23.8245 36.0182 23.5597 37.0281 23.0302 37.9124C22.5061 38.7968 21.7719 39.4901 20.8275 39.9923C19.8885 40.4891 18.7967 40.7347 17.5521 40.7293ZM17.5357 37.9452C18.0816 37.9452 18.5702 37.8142 19.0015 37.5521C19.4327 37.2901 19.7712 36.9353 20.0168 36.4876C20.2625 36.04 20.3853 35.5378 20.3853 34.9809C20.3853 34.4241 20.2625 33.9246 20.0168 33.4825C19.7766 33.0403 19.4436 32.6882 19.0178 32.4261C18.592 32.1641 18.1062 32.0331 17.5603 32.0331C17.1509 32.0331 16.7714 32.1095 16.4221 32.2624C16.0782 32.4152 15.7752 32.6281 15.5131 32.9011C15.2566 33.174 15.0546 33.4906 14.9072 33.8509C14.7598 34.2058 14.6861 34.5852 14.6861 34.9891C14.6861 35.5296 14.8089 36.0236 15.0546 36.4713C15.3057 36.9189 15.6442 37.2765 16.07 37.544C16.5012 37.8114 16.9898 37.9452 17.5357 37.9452Z" fill="white"/>
<path d="M17.5521 40.7293L17.5469 41.5528L17.5485 41.5528L17.5521 40.7293ZM15.0546 40.2953L14.7783 41.0711L14.78 41.0717L15.0546 40.2953ZM12.9092 38.9114L12.3244 39.4912L12.3244 39.4912L12.9092 38.9114ZM11.4025 36.373L10.6245 36.6431L10.6258 36.6467L11.4025 36.373ZM10.8539 32.4916L10.0304 32.4885V32.4916H10.8539ZM11.337 28.7167L10.5459 28.4879L10.5452 28.4905L11.337 28.7167ZM12.7127 25.8835L12.0616 25.3792L12.0594 25.3821L12.7127 25.8835ZM14.8663 24.1148L15.2248 24.8562L15.2287 24.8543L14.8663 24.1148ZM20.6392 24.1557L20.2653 24.8895L20.269 24.8914L20.6392 24.1557ZM22.7027 25.9163L22.0275 26.3879L22.0299 26.3912L22.7027 25.9163ZM23.6525 28.4138V29.2373H24.5793L24.4703 28.317L23.6525 28.4138ZM20.156 28.4138L19.3541 28.6011L19.5027 29.2373H20.156V28.4138ZM15.1856 27.9634L14.4787 27.5409L14.4769 27.5439L15.1856 27.9634ZM14.3258 31.8366L13.5023 31.8311L13.4968 32.6601H14.3258V31.8366ZM14.4405 31.8366V32.6601H14.9469L15.1754 32.2081L14.4405 31.8366ZM15.4558 30.5673L15.9782 31.204L15.9791 31.2033L15.4558 30.5673ZM16.9216 29.7567L17.1867 30.5364L17.1912 30.5348L16.9216 29.7567ZM21.3188 30.1743L20.8922 30.8787L20.8958 30.8809L21.3188 30.1743ZM23.0302 37.9124L22.3236 37.4894L22.3217 37.4926L23.0302 37.9124ZM20.8275 39.9923L21.2126 40.7202L21.2142 40.7194L20.8275 39.9923ZM19.0015 37.5521L19.4291 38.2559L19.4291 38.2559L19.0015 37.5521ZM20.0168 36.4876L19.2949 36.0914L19.2949 36.0914L20.0168 36.4876ZM20.0168 33.4825L19.2931 33.8756L19.2969 33.8824L20.0168 33.4825ZM19.0178 32.4261L19.4494 31.7248L19.4494 31.7248L19.0178 32.4261ZM16.4221 32.2624L16.092 31.5079L16.0876 31.5098L16.4221 32.2624ZM15.5131 32.9011L14.919 32.3307L14.9131 32.337L15.5131 32.9011ZM14.9072 33.8509L15.6677 34.1669L15.6694 34.1628L14.9072 33.8509ZM15.0546 36.4713L14.3326 36.8675L14.3364 36.8742L15.0546 36.4713ZM16.07 37.544L15.6319 38.2413L15.6359 38.2438L16.07 37.544ZM17.5521 40.7293L17.5573 39.9058C16.7853 39.9009 16.044 39.7717 15.3292 39.5189L15.0546 40.2953L14.78 41.0717C15.6701 41.3866 16.5938 41.5468 17.5469 41.5528L17.5521 40.7293ZM15.0546 40.2953L15.3309 39.5195C14.6574 39.2796 14.046 38.8884 13.494 38.3316L12.9092 38.9114L12.3244 39.4912C13.0389 40.2119 13.8578 40.7432 14.7783 41.0711L15.0546 40.2953ZM12.9092 38.9114L13.494 38.3316C12.9648 37.7978 12.5195 37.0651 12.1792 36.0993L11.4025 36.373L10.6258 36.6467C11.028 37.7881 11.5871 38.7476 12.3244 39.4912L12.9092 38.9114ZM11.4025 36.373L12.1805 36.1029C11.8539 35.162 11.6774 33.9657 11.6774 32.4916H10.8539H10.0304C10.0304 34.0855 10.2197 35.4768 10.6245 36.6431L11.4025 36.373ZM10.8539 32.4916L11.6774 32.4948C11.6826 31.1458 11.837 29.9646 12.1289 28.943L11.337 28.7167L10.5452 28.4905C10.2038 29.6852 10.0361 31.0206 10.0304 32.4885L10.8539 32.4916ZM11.337 28.7167L12.1281 28.9455C12.4269 27.9126 12.8439 27.065 13.3659 26.385L12.7127 25.8835L12.0594 25.3821C11.3914 26.2524 10.8913 27.2936 10.5459 28.4879L11.337 28.7167ZM12.7127 25.8835L13.3637 26.3878C13.8909 25.7073 14.5106 25.2016 15.2248 24.8562L14.8663 24.1148L14.5077 23.3734C13.5515 23.8359 12.7355 24.5093 12.0616 25.3792L12.7127 25.8835ZM14.8663 24.1148L15.2287 24.8543C15.9387 24.5062 16.7488 24.3242 17.6749 24.3242V23.5007V22.6771C16.5267 22.6771 15.4643 22.9045 14.5038 23.3753L14.8663 24.1148ZM17.6749 23.5007V24.3242C18.6853 24.3242 19.5416 24.5207 20.2653 24.8895L20.6392 24.1557L21.013 23.422C20.0226 22.9173 18.9027 22.6771 17.6749 22.6771V23.5007ZM20.6392 24.1557L20.269 24.8914C21.0116 25.265 21.5918 25.7641 22.0275 26.3879L22.7027 25.9163L23.3778 25.4447C22.7763 24.5836 21.9809 23.909 21.0093 23.4201L20.6392 24.1557ZM22.7027 25.9163L22.0299 26.3912C22.473 27.019 22.7413 27.721 22.8347 28.5106L23.6525 28.4138L24.4703 28.317C24.3454 27.2614 23.9804 26.2984 23.3755 25.4414L22.7027 25.9163ZM23.6525 28.4138V27.5902H20.156V28.4138V29.2373H23.6525V28.4138ZM20.156 28.4138L20.958 28.2264C20.7823 27.4744 20.3988 26.8432 19.7956 26.3832L19.2962 27.0381L18.7969 27.693C19.0672 27.899 19.2568 28.1849 19.3541 28.6011L20.156 28.4138ZM19.2962 27.0381L19.7956 26.3832C19.1916 25.9227 18.4671 25.7151 17.6749 25.7151V26.5386V27.3621C18.171 27.3621 18.5274 27.4875 18.7969 27.693L19.2962 27.0381ZM17.6749 26.5386V25.7151C16.2885 25.7151 15.1926 26.3465 14.4787 27.5409L15.1856 27.9634L15.8925 28.3859C16.314 27.6806 16.8777 27.3621 17.6749 27.3621V26.5386ZM15.1856 27.9634L14.4769 27.5439C13.8131 28.6653 13.5138 30.1181 13.5023 31.8311L14.3258 31.8366L15.1493 31.8421C15.1597 30.2906 15.4335 29.1613 15.8943 28.3829L15.1856 27.9634ZM14.3258 31.8366V32.6601H14.4405V31.8366V31.013H14.3258V31.8366ZM14.4405 31.8366L15.1754 32.2081C15.3754 31.8124 15.6419 31.4799 15.9782 31.204L15.4558 30.5673L14.9335 29.9307C14.4182 30.3535 14.0077 30.8672 13.7055 31.465L14.4405 31.8366ZM15.4558 30.5673L15.9791 31.2033C16.3312 30.9136 16.7317 30.6911 17.1867 30.5364L16.9216 29.7567L16.6565 28.977C16.0197 29.1935 15.443 29.5114 14.9326 29.9314L15.4558 30.5673ZM16.9216 29.7567L17.1912 30.5348C17.6518 30.3752 18.1417 30.2936 18.6657 30.2936V29.4701V28.6466C17.967 28.6466 17.2941 28.756 16.6519 28.9786L16.9216 29.7567ZM18.6657 29.4701V30.2936C19.5238 30.2936 20.2579 30.4946 20.8922 30.8787L21.3188 30.1743L21.7454 29.4699C20.8294 28.9151 19.7947 28.6466 18.6657 28.6466V29.4701ZM21.3188 30.1743L20.8958 30.8809C21.5423 31.2679 22.0522 31.7982 22.4315 32.4875L23.153 32.0904L23.8745 31.6933C23.3586 30.7559 22.6457 30.0088 21.7418 29.4677L21.3188 30.1743ZM23.153 32.0904L22.4315 32.4875C22.804 33.1642 23.001 33.9552 23.001 34.8827H23.8245H24.648C24.648 33.7139 24.3973 32.6434 23.8745 31.6933L23.153 32.0904ZM23.8245 34.8827H23.001C23.001 35.8847 22.769 36.7456 22.3236 37.4894L23.0302 37.9124L23.7368 38.3355C24.3505 37.3105 24.648 36.1516 24.648 34.8827H23.8245ZM23.0302 37.9124L22.3217 37.4926C21.8779 38.2415 21.2575 38.8309 20.4408 39.2652L20.8275 39.9923L21.2142 40.7194C22.2863 40.1493 23.1344 39.3521 23.7387 38.3323L23.0302 37.9124ZM20.8275 39.9923L20.4424 39.2644C19.6422 39.6877 18.6882 39.9107 17.5557 39.9058L17.5521 40.7293L17.5485 41.5528C18.9053 41.5588 20.1349 41.2904 21.2126 40.7202L20.8275 39.9923ZM17.5357 37.9452V38.7687C18.2196 38.7687 18.8584 38.6027 19.4291 38.2559L19.0015 37.5521L18.5738 36.8483C18.282 37.0257 17.9436 37.1217 17.5357 37.1217V37.9452ZM19.0015 37.5521L19.4291 38.2559C19.9852 37.918 20.4245 37.4565 20.7388 36.8838L20.0168 36.4876L19.2949 36.0914C19.1178 36.4141 18.8802 36.6622 18.5738 36.8483L19.0015 37.5521ZM20.0168 36.4876L20.7388 36.8838C21.057 36.304 21.2088 35.6634 21.2088 34.9809H20.3853H19.5618C19.5618 35.4121 19.468 35.776 19.2949 36.0914L20.0168 36.4876ZM20.3853 34.9809H21.2088C21.2088 34.2986 21.057 33.6591 20.7367 33.0825L20.0168 33.4825L19.2969 33.8824C19.4679 34.1902 19.5618 34.5496 19.5618 34.9809H20.3853ZM20.0168 33.4825L20.7405 33.0894C20.432 32.5215 19.9987 32.0628 19.4494 31.7248L19.0178 32.4261L18.5862 33.1275C18.8886 33.3136 19.1212 33.559 19.2932 33.8755L20.0168 33.4825ZM19.0178 32.4261L19.4494 31.7248C18.882 31.3756 18.2441 31.2096 17.5603 31.2096V32.0331V32.8566C17.9683 32.8566 18.302 32.9526 18.5862 33.1275L19.0178 32.4261ZM17.5603 32.0331V31.2096C17.0457 31.2096 16.5529 31.3062 16.092 31.5079L16.4221 32.2624L16.7522 33.0168C16.99 32.9128 17.256 32.8566 17.5603 32.8566V32.0331ZM16.4221 32.2624L16.0876 31.5098C15.6456 31.7063 15.2546 31.9812 14.9191 32.3307L15.5131 32.9011L16.1072 33.4714C16.2958 33.275 16.5107 33.1242 16.7565 33.0149L16.4221 32.2624ZM15.5131 32.9011L14.9131 32.337C14.5848 32.6863 14.329 33.0892 14.145 33.5391L14.9072 33.8509L15.6694 34.1628C15.7802 33.892 15.9284 33.6618 16.1132 33.4651L15.5131 32.9011ZM14.9072 33.8509L14.1467 33.535C13.9556 33.9951 13.8626 34.4824 13.8626 34.9891H14.6861H15.5096C15.5096 34.6879 15.564 34.4165 15.6677 34.1668L14.9072 33.8509ZM14.6861 34.9891H13.8626C13.8626 35.6597 14.0164 36.2913 14.3326 36.8675L15.0546 36.4713L15.7766 36.0751C15.6014 35.756 15.5096 35.3994 15.5096 34.9891H14.6861ZM15.0546 36.4713L14.3364 36.8742C14.6533 37.4392 15.0871 37.899 15.6319 38.2413L16.07 37.544L16.508 36.8466C16.2013 36.6539 15.9581 36.3986 15.7728 36.0683L15.0546 36.4713ZM16.07 37.544L15.6359 38.2438C16.2074 38.5983 16.8485 38.7687 17.5357 38.7687V37.9452V37.1217C17.1311 37.1217 16.7951 37.0246 16.504 36.8441L16.07 37.544Z" fill="#2B3F46" mask="url(#path-33-outside-1_2122_4396)"/>
<mask id="path-35-outside-2_2122_4396" maskUnits="userSpaceOnUse" x="26.3535" y="28" width="12" height="11" fill="black">
<rect fill="white" x="26.3535" y="28" width="12" height="11"/>
<path d="M30.7484 29.2727L32.3507 32.3239L33.9927 29.2727H36.4757L33.9473 33.6364L36.5439 38H34.0723L32.3507 34.983L30.6575 38H28.1575L30.7484 33.6364L28.2484 29.2727H30.7484Z"/>
</mask>
<path d="M30.7484 29.2727L32.3507 32.3239L33.9927 29.2727H36.4757L33.9473 33.6364L36.5439 38H34.0723L32.3507 34.983L30.6575 38H28.1575L30.7484 33.6364L28.2484 29.2727H30.7484Z" fill="white"/>
<path d="M30.7484 29.2727L31.4775 28.8898L31.2461 28.4492H30.7484V29.2727ZM32.3507 32.3239L31.6216 32.7067L32.3418 34.0782L33.0759 32.7141L32.3507 32.3239ZM33.9927 29.2727V28.4492H33.5007L33.2675 28.8825L33.9927 29.2727ZM36.4757 29.2727L37.1882 29.6856L37.9046 28.4492H36.4757V29.2727ZM33.9473 33.6364L33.2347 33.2235L32.9923 33.6419L33.2396 34.0575L33.9473 33.6364ZM36.5439 38V38.8235H37.9922L37.2516 37.5789L36.5439 38ZM34.0723 38L33.357 38.4081L33.594 38.8235H34.0723V38ZM32.3507 34.983L33.0659 34.5748L32.3447 33.3109L31.6325 34.5799L32.3507 34.983ZM30.6575 38V38.8235H31.1397L31.3757 38.403L30.6575 38ZM28.1575 38L27.4494 37.5796L26.7108 38.8235H28.1575V38ZM30.7484 33.6364L31.4565 34.0568L31.7018 33.6438L31.463 33.227L30.7484 33.6364ZM28.2484 29.2727V28.4492H26.8275L27.5338 29.6821L28.2484 29.2727ZM30.7484 29.2727L30.0193 29.6556L31.6216 32.7067L32.3507 32.3239L33.0798 31.941L31.4775 28.8898L30.7484 29.2727ZM32.3507 32.3239L33.0759 32.7141L34.7179 29.663L33.9927 29.2727L33.2675 28.8825L31.6255 31.9336L32.3507 32.3239ZM33.9927 29.2727V30.0963H36.4757V29.2727V28.4492H33.9927V29.2727ZM36.4757 29.2727L35.7631 28.8599L33.2347 33.2235L33.9473 33.6364L34.6598 34.0492L37.1882 29.6856L36.4757 29.2727ZM33.9473 33.6364L33.2396 34.0575L35.8361 38.4211L36.5439 38L37.2516 37.5789L34.655 33.2152L33.9473 33.6364ZM36.5439 38V37.1765H34.0723V38V38.8235H36.5439V38ZM34.0723 38L34.7875 37.5919L33.0659 34.5748L32.3507 34.983L31.6354 35.3911L33.357 38.4081L34.0723 38ZM32.3507 34.983L31.6325 34.5799L29.9393 37.597L30.6575 38L31.3757 38.403L33.0688 35.386L32.3507 34.983ZM30.6575 38V37.1765H28.1575V38V38.8235H30.6575V38ZM28.1575 38L28.8656 38.4204L31.4565 34.0568L30.7484 33.6364L30.0403 33.2159L27.4494 37.5796L28.1575 38ZM30.7484 33.6364L31.463 33.227L28.963 28.8633L28.2484 29.2727L27.5338 29.6821L30.0338 34.0457L30.7484 33.6364ZM28.2484 29.2727V30.0963H30.7484V29.2727V28.4492H28.2484V29.2727Z" fill="#2B3F46" mask="url(#path-35-outside-2_2122_4396)"/>
<mask id="path-37-outside-3_2122_4396" maskUnits="userSpaceOnUse" x="40.3535" y="22.5" width="15" height="20" fill="black">
<rect fill="white" x="40.3535" y="22.5" width="15" height="20"/>
<path d="M47.3474 40.7293C46.1901 40.7293 45.1583 40.5164 44.2521 40.0906C43.3514 39.6648 42.6363 39.0779 42.1067 38.33C41.5772 37.5822 41.3015 36.7251 41.2797 35.7589H44.7189C44.7571 36.4085 45.03 36.9353 45.5377 37.3392C46.0454 37.7432 46.6486 37.9452 47.3474 37.9452C47.9042 37.9452 48.3955 37.8224 48.8213 37.5767C49.2526 37.3256 49.5883 36.9789 49.8285 36.5368C50.0741 36.0891 50.197 35.576 50.197 34.9973C50.197 34.4078 50.0714 33.8891 49.8203 33.4415C49.5746 32.9939 49.2335 32.6445 48.7967 32.3934C48.36 32.1423 47.8605 32.014 47.2982 32.0085C46.8069 32.0085 46.3293 32.1095 45.8653 32.3115C45.4067 32.5135 45.0491 32.7892 44.7926 33.1385L41.64 32.5735L42.4343 23.7299H52.6863V26.6287H45.3576L44.9236 30.8294H45.0218C45.3166 30.4145 45.7615 30.0706 46.3566 29.7976C46.9516 29.5247 47.6176 29.3882 48.3546 29.3882C49.3645 29.3882 50.2652 29.6257 51.0568 30.1006C51.8483 30.5755 52.4734 31.2279 52.9319 32.0577C53.3905 32.882 53.617 33.8318 53.6116 34.9073C53.617 36.0373 53.355 37.0417 52.8255 37.9206C52.3014 38.7941 51.5672 39.4819 50.6228 39.9841C49.6838 40.4809 48.592 40.7293 47.3474 40.7293Z"/>
</mask>
<path d="M47.3474 40.7293C46.1901 40.7293 45.1583 40.5164 44.2521 40.0906C43.3514 39.6648 42.6363 39.0779 42.1067 38.33C41.5772 37.5822 41.3015 36.7251 41.2797 35.7589H44.7189C44.7571 36.4085 45.03 36.9353 45.5377 37.3392C46.0454 37.7432 46.6486 37.9452 47.3474 37.9452C47.9042 37.9452 48.3955 37.8224 48.8213 37.5767C49.2526 37.3256 49.5883 36.9789 49.8285 36.5368C50.0741 36.0891 50.197 35.576 50.197 34.9973C50.197 34.4078 50.0714 33.8891 49.8203 33.4415C49.5746 32.9939 49.2335 32.6445 48.7967 32.3934C48.36 32.1423 47.8605 32.014 47.2982 32.0085C46.8069 32.0085 46.3293 32.1095 45.8653 32.3115C45.4067 32.5135 45.0491 32.7892 44.7926 33.1385L41.64 32.5735L42.4343 23.7299H52.6863V26.6287H45.3576L44.9236 30.8294H45.0218C45.3166 30.4145 45.7615 30.0706 46.3566 29.7976C46.9516 29.5247 47.6176 29.3882 48.3546 29.3882C49.3645 29.3882 50.2652 29.6257 51.0568 30.1006C51.8483 30.5755 52.4734 31.2279 52.9319 32.0577C53.3905 32.882 53.617 33.8318 53.6116 34.9073C53.617 36.0373 53.355 37.0417 52.8255 37.9206C52.3014 38.7941 51.5672 39.4819 50.6228 39.9841C49.6838 40.4809 48.592 40.7293 47.3474 40.7293Z" fill="white"/>
<path d="M44.2521 40.0906L43.9002 40.8351L43.9019 40.8359L44.2521 40.0906ZM42.1067 38.33L41.4346 38.8059L41.4346 38.8059L42.1067 38.33ZM41.2797 35.7589V34.9353H40.4373L40.4564 35.7775L41.2797 35.7589ZM44.7189 35.7589L45.541 35.7105L45.4954 34.9353H44.7189V35.7589ZM45.5377 37.3392L46.0505 36.6948L46.0505 36.6948L45.5377 37.3392ZM48.8213 37.5767L49.2328 38.29L49.2357 38.2884L48.8213 37.5767ZM49.8285 36.5368L49.1065 36.1406L49.1048 36.1437L49.8285 36.5368ZM49.8203 33.4415L49.0983 33.8377L49.1021 33.8444L49.8203 33.4415ZM48.7967 32.3934L48.3862 33.1073L48.3862 33.1073L48.7967 32.3934ZM47.2982 32.0085L47.3062 31.185H47.2982V32.0085ZM45.8653 32.3115L45.5366 31.5564L45.5333 31.5578L45.8653 32.3115ZM44.7926 33.1385L44.6473 33.9491L45.1525 34.0397L45.4563 33.626L44.7926 33.1385ZM41.64 32.5735L40.8198 32.4999L40.7523 33.2511L41.4947 33.3841L41.64 32.5735ZM42.4343 23.7299V22.9064H41.6814L41.614 23.6563L42.4343 23.7299ZM52.6863 23.7299H53.5098V22.9064H52.6863V23.7299ZM52.6863 26.6287V27.4522H53.5098V26.6287H52.6863ZM45.3576 26.6287V25.8051H44.6147L44.5384 26.544L45.3576 26.6287ZM44.9236 30.8294L44.1044 30.7447L44.0106 31.6529H44.9236V30.8294ZM45.0218 30.8294V31.6529H45.4469L45.6932 31.3064L45.0218 30.8294ZM46.3566 29.7976L46.6999 30.5462L46.6999 30.5462L46.3566 29.7976ZM51.0568 30.1006L51.4805 29.3944L51.4805 29.3944L51.0568 30.1006ZM52.9319 32.0577L52.2111 32.456L52.2123 32.458L52.9319 32.0577ZM53.6116 34.9073L52.788 34.9031L52.7881 34.9112L53.6116 34.9073ZM52.8255 37.9206L52.1201 37.4956L52.1193 37.4969L52.8255 37.9206ZM50.6228 39.9841L51.0079 40.7121L51.0094 40.7112L50.6228 39.9841ZM47.3474 40.7293V39.9057C46.2923 39.9057 45.3831 39.7121 44.6023 39.3452L44.2521 40.0906L43.9019 40.8359C44.9335 41.3207 46.0878 41.5528 47.3474 41.5528V40.7293ZM44.2521 40.0906L44.6041 39.346C43.8199 38.9753 43.2195 38.4765 42.7788 37.8542L42.1067 38.33L41.4346 38.8059C42.053 39.6793 42.8829 40.3542 43.9002 40.8351L44.2521 40.0906ZM42.1067 38.33L42.7788 37.8542C42.3495 37.2478 42.1214 36.5519 42.103 35.7403L41.2797 35.7589L40.4564 35.7775C40.4817 36.8983 40.8049 37.9166 41.4346 38.8059L42.1067 38.33ZM41.2797 35.7589V36.5824H44.7189V35.7589V34.9353H41.2797V35.7589ZM44.7189 35.7589L43.8968 35.8072C43.9487 36.6896 44.3335 37.4335 45.025 37.9837L45.5377 37.3392L46.0505 36.6948C45.7265 36.4371 45.5655 36.1273 45.541 35.7105L44.7189 35.7589ZM45.5377 37.3392L45.025 37.9837C45.69 38.5128 46.4777 38.7687 47.3474 38.7687V37.9452V37.1217C46.8195 37.1217 46.4009 36.9736 46.0505 36.6948L45.5377 37.3392ZM47.3474 37.9452V38.7687C48.0291 38.7687 48.666 38.6171 49.2328 38.29L48.8213 37.5767L48.4098 36.8634C48.125 37.0277 47.7792 37.1217 47.3474 37.1217V37.9452ZM48.8213 37.5767L49.2357 38.2884C49.7984 37.9607 50.2406 37.5034 50.5521 36.9299L49.8285 36.5368L49.1048 36.1437C48.936 36.4545 48.7067 36.6905 48.4069 36.865L48.8213 37.5767ZM49.8285 36.5368L50.5505 36.933C50.8712 36.3485 51.0205 35.6958 51.0205 34.9973H50.197H49.3734C49.3734 35.4562 49.2771 35.8298 49.1065 36.1406L49.8285 36.5368ZM50.197 34.9973H51.0205C51.0205 34.2879 50.8684 33.6266 50.5385 33.0386L49.8203 33.4415L49.1021 33.8444C49.2745 34.1517 49.3734 34.5276 49.3734 34.9973H50.197ZM49.8203 33.4415L50.5423 33.0453C50.2249 32.4671 49.7768 32.007 49.2072 31.6795L48.7967 32.3934L48.3862 33.1073C48.6901 33.282 48.9243 33.5206 49.0983 33.8377L49.8203 33.4415ZM48.7967 32.3934L49.2072 31.6795C48.6342 31.35 47.9931 31.1917 47.3062 31.185L47.2982 32.0085L47.2902 32.832C47.7279 32.8363 48.0858 32.9346 48.3862 33.1073L48.7967 32.3934ZM47.2982 32.0085V31.185C46.6904 31.185 46.1011 31.3107 45.5366 31.5564L45.8653 32.3115L46.1939 33.0666C46.5574 32.9084 46.9235 32.8321 47.2982 32.8321V32.0085ZM45.8653 32.3115L45.5333 31.5578C44.9636 31.8088 44.4833 32.1684 44.1288 32.6511L44.7926 33.1385L45.4563 33.626C45.615 33.4099 45.8498 33.2182 46.1972 33.0652L45.8653 32.3115ZM44.7926 33.1385L44.9378 32.3279L41.7853 31.7629L41.64 32.5735L41.4947 33.3841L44.6473 33.9491L44.7926 33.1385ZM41.64 32.5735L42.4602 32.6472L43.2545 23.8036L42.4343 23.7299L41.614 23.6563L40.8198 32.4999L41.64 32.5735ZM42.4343 23.7299V24.5535H52.6863V23.7299V22.9064H42.4343V23.7299ZM52.6863 23.7299H51.8627V26.6287H52.6863H53.5098V23.7299H52.6863ZM52.6863 26.6287V25.8051H45.3576V26.6287V27.4522H52.6863V26.6287ZM45.3576 26.6287L44.5384 26.544L44.1044 30.7447L44.9236 30.8294L45.7427 30.914L46.1767 26.7133L45.3576 26.6287ZM44.9236 30.8294V31.6529H45.0218V30.8294V30.0058H44.9236V30.8294ZM45.0218 30.8294L45.6932 31.3064C45.8837 31.0383 46.1994 30.7758 46.6999 30.5462L46.3566 29.7976L46.0132 29.0491C45.3237 29.3654 44.7496 29.7907 44.3505 30.3524L45.0218 30.8294ZM46.3566 29.7976L46.6999 30.5462C47.1744 30.3285 47.7212 30.2117 48.3546 30.2117V29.3882V28.5647C47.514 28.5647 46.7288 28.7209 46.0132 29.0491L46.3566 29.7976ZM48.3546 29.3882V30.2117C49.2297 30.2117 49.9814 30.4158 50.6331 30.8068L51.0568 30.1006L51.4805 29.3944C50.549 28.8356 49.4992 28.5647 48.3546 28.5647V29.3882ZM51.0568 30.1006L50.6331 30.8068C51.2967 31.205 51.8208 31.7496 52.2111 32.456L52.9319 32.0577L53.6527 31.6593C53.126 30.7062 52.3999 29.9461 51.4805 29.3944L51.0568 30.1006ZM52.9319 32.0577L52.2123 32.458C52.5929 33.1422 52.7929 33.9491 52.7881 34.9031L53.6116 34.9073L54.4351 34.9114C54.4412 33.7146 54.1881 32.6218 53.6516 31.6573L52.9319 32.0577ZM53.6116 34.9073L52.7881 34.9112C52.7929 35.9059 52.5639 36.7591 52.1201 37.4956L52.8255 37.9206L53.5309 38.3456C54.1462 37.3244 54.4412 36.1686 54.4351 34.9033L53.6116 34.9073ZM52.8255 37.9206L52.1193 37.4969C51.6761 38.2355 51.0553 38.8214 50.2361 39.257L50.6228 39.9841L51.0094 40.7112C52.079 40.1424 52.9267 39.3526 53.5317 38.3443L52.8255 37.9206ZM50.6228 39.9841L50.2377 39.2562C49.4362 39.6802 48.4809 39.9057 47.3474 39.9057V40.7293V41.5528C48.7032 41.5528 49.9314 41.2816 51.0079 40.7121L50.6228 39.9841Z" fill="#2B3F46" mask="url(#path-37-outside-3_2122_4396)"/>
<defs>
<linearGradient id="paint0_linear_2122_4396" x1="35.8411" y1="35.864" x2="-1.88188" y2="2.08424" gradientUnits="userSpaceOnUse">
<stop stop-color="#FFD5EF"/>
<stop offset="1" stop-color="#EFBDFD"/>
</linearGradient>
<linearGradient id="paint1_linear_2122_4396" x1="26.8809" y1="4.483" x2="25.174" y2="-4.68761" gradientUnits="userSpaceOnUse">
<stop stop-color="#F95457"/>
<stop offset="1" stop-color="#FDBDCB"/>
</linearGradient>
<linearGradient id="paint2_linear_2122_4396" x1="26.8809" y1="4.483" x2="25.174" y2="-4.68761" gradientUnits="userSpaceOnUse">
<stop stop-color="#F95457"/>
<stop offset="1" stop-color="#FDBDCB"/>
</linearGradient>
<linearGradient id="paint3_linear_2122_4396" x1="4.71844" y1="43.652" x2="1.80424" y2="43.0279" gradientUnits="userSpaceOnUse">
<stop stop-color="#F95457"/>
<stop offset="1" stop-color="#FDBDCB"/>
</linearGradient>
<linearGradient id="paint4_linear_2122_4396" x1="35.7657" y1="58.0257" x2="30.2143" y2="50.8928" gradientUnits="userSpaceOnUse">
<stop stop-color="#F95457"/>
<stop offset="1" stop-color="#FDBDCB"/>
</linearGradient>
<linearGradient id="paint5_linear_2122_4396" x1="60.6657" y1="43.652" x2="57.7515" y2="43.0279" gradientUnits="userSpaceOnUse">
<stop stop-color="#F95457"/>
<stop offset="1" stop-color="#FDBDCB"/>
</linearGradient>
<linearGradient id="paint6_linear_2122_4396" x1="-1.09962e-05" y1="-0.0328651" x2="30.641" y2="-4.05264" gradientUnits="userSpaceOnUse">
<stop stop-color="#D74446"/>
<stop offset="1" stop-color="#E165B8"/>
</linearGradient>
<linearGradient id="paint7_linear_2122_4396" x1="-1.11276e-05" y1="-0.033258" x2="31.0073" y2="-4.10108" gradientUnits="userSpaceOnUse">
<stop stop-color="#D74446"/>
<stop offset="1" stop-color="#E165B8"/>
</linearGradient>
<linearGradient id="paint8_linear_2122_4396" x1="-8.34573e-06" y1="-0.00415724" x2="14.606" y2="-11.5011" gradientUnits="userSpaceOnUse">
<stop stop-color="#D1369D"/>
<stop offset="1" stop-color="#B31E20"/>
</linearGradient>
<linearGradient id="paint9_linear_2122_4396" x1="-8.34573e-06" y1="-0.00415724" x2="14.606" y2="-11.5011" gradientUnits="userSpaceOnUse">
<stop stop-color="#D74446"/>
<stop offset="1" stop-color="#E165B8"/>
</linearGradient>
<linearGradient id="paint10_linear_2122_4396" x1="2.32031" y1="36.6188" x2="3.73321" y2="36.5744" gradientUnits="userSpaceOnUse">
<stop stop-color="#D74446"/>
<stop offset="1" stop-color="#D1369D"/>
</linearGradient>
<linearGradient id="paint11_linear_2122_4396" x1="27.5449" y1="52.5135" x2="34.14" y2="51.2721" gradientUnits="userSpaceOnUse">
<stop stop-color="#B31E20"/>
<stop offset="1" stop-color="#D74446"/>
</linearGradient>
<linearGradient id="paint12_linear_2122_4396" x1="59.0059" y1="36.6188" x2="60.4188" y2="36.5744" gradientUnits="userSpaceOnUse">
<stop stop-color="#E165B8"/>
<stop offset="1" stop-color="#D74446"/>
</linearGradient>
<clipPath id="clip0_2122_4396">
<rect width="63" height="39.5638" fill="white" transform="translate(0 18.4604)"/>
</clipPath>
<clipPath id="clip1_2122_4396">
<rect width="35.8992" height="35.8992" rx="4.44179" transform="matrix(0.866025 0.5 -0.866025 0.5 31.9102 19)" fill="white"/>
</clipPath>
<clipPath id="clip2_2122_4396">
<rect width="36.3731" height="36.3731" rx="4.50041" transform="matrix(0.866025 0.5 -0.866025 0.5 31.5 18.4607)" fill="white"/>
</clipPath>
</defs>
</svg>
