<svg width="64" height="64" viewBox="0 0 64 64" fill="none" xmlns="http://www.w3.org/2000/svg">
<g clip-path="url(#clip0_2122_5526)">
<rect width="35.8551" height="35.8551" rx="4.37833" transform="matrix(0.866025 0.5 -0.866025 0.5 31.8887 19)" fill="url(#paint0_linear_2122_5526)"/>
<rect width="26.8913" height="4.48189" transform="matrix(0.866025 0.5 0 1 4.71875 39.1685)" fill="url(#paint1_linear_2122_5526)"/>
<rect width="26.8913" height="4.48189" transform="matrix(0.866025 -0.5 0 1 35.7695 52.6143)" fill="url(#paint2_linear_2122_5526)"/>
<path d="M3.11133 36.9275C3.11133 37.8026 3.72572 38.5949 4.71907 39.1684V43.6503C3.72572 43.0768 3.11133 42.2845 3.11133 41.4094V36.9275Z" fill="url(#paint3_linear_2122_5526)"/>
<path d="M28.0059 52.6143C30.1495 53.8519 33.6251 53.8519 35.7687 52.6143V57.0961C33.6251 58.3338 30.1495 58.3338 28.0059 57.0961V52.6143Z" fill="url(#paint4_linear_2122_5526)"/>
<path d="M60.6663 36.9275C60.6663 37.8026 60.0519 38.5949 59.0586 39.1684V43.6503C60.0519 43.0768 60.6663 42.2845 60.6663 41.4094V36.9275Z" fill="url(#paint5_linear_2122_5526)"/>
<g clip-path="url(#clip1_2122_5526)">
<rect width="35.8992" height="35.8992" rx="4.44179" transform="matrix(0.866025 0.5 -0.866025 0.5 31.9102 19)" fill="url(#paint6_linear_2122_5526)"/>
<rect width="11.5594" height="11.5594" transform="matrix(0.866025 0.5 -0.866025 0.5 31.9102 19)" fill="black" fill-opacity="0.1"/>
<rect width="11.5594" height="11.5594" transform="matrix(0.866025 0.5 -0.866025 0.5 21.3711 25.085)" fill="black" fill-opacity="0.1"/>
<rect width="11.5594" height="11.5594" transform="matrix(0.866025 0.5 -0.866025 0.5 21.3711 37.2549)" fill="black" fill-opacity="0.1"/>
<rect width="11.5594" height="11.5594" transform="matrix(0.866025 0.5 -0.866025 0.5 42.4492 25.085)" fill="black" fill-opacity="0.1"/>
<rect width="11.5594" height="11.5594" transform="matrix(0.866025 0.5 -0.866025 0.5 42.4492 37.2549)" fill="black" fill-opacity="0.1"/>
<rect width="11.5594" height="11.5594" transform="matrix(0.866025 0.5 -0.866025 0.5 52.9883 31.1699)" fill="black" fill-opacity="0.1"/>
<rect width="11.5594" height="11.5594" transform="matrix(0.866025 0.5 -0.866025 0.5 10.832 31.1699)" fill="black" fill-opacity="0.1"/>
<rect width="11.5594" height="11.5594" transform="matrix(0.866025 0.5 -0.866025 0.5 31.9102 43.3398)" fill="black" fill-opacity="0.1"/>
<rect width="11.5594" height="11.5594" transform="matrix(0.866025 0.5 -0.866025 0.5 31.9102 31.1699)" fill="black" fill-opacity="0.1"/>
</g>
<rect width="36.3283" height="36.3283" rx="4.43612" transform="matrix(0.866025 0.5 -0.866025 0.5 31.4785 18.4607)" fill="url(#paint7_linear_2122_5526)"/>
<rect width="27.2462" height="4.54104" transform="matrix(0.866025 0.5 0 1 3.94922 38.8958)" fill="url(#paint8_linear_2122_5526)"/>
<rect width="27.2462" height="4.54104" transform="matrix(0.866025 -0.5 0 1 35.4102 52.5186)" fill="url(#paint9_linear_2122_5526)"/>
<path d="M2.32031 36.625C2.32031 37.5117 2.94282 38.3144 3.94927 38.8955V43.4366C2.94282 42.8555 2.32031 42.0527 2.32031 41.166V36.625Z" fill="url(#paint10_linear_2122_5526)"/>
<path d="M27.5449 52.5186C29.7169 53.7725 33.2383 53.7725 35.4102 52.5186V57.0596C33.2383 58.3136 29.7169 58.3136 27.5449 57.0596V52.5186Z" fill="url(#paint11_linear_2122_5526)"/>
<path d="M60.6348 36.625C60.6348 37.5117 60.0123 38.3144 59.0059 38.8955V43.4366C60.0123 42.8555 60.6348 42.0527 60.6348 41.166V36.625Z" fill="url(#paint12_linear_2122_5526)"/>
<g clip-path="url(#clip2_2122_5526)">
<rect width="11.712" height="11.712" transform="matrix(0.866025 0.5 -0.866025 0.5 31.5 18.4607)" fill="white" fill-opacity="0.2"/>
<rect width="11.712" height="11.712" transform="matrix(0.866025 0.5 -0.866025 0.5 20.8223 24.626)" fill="white" fill-opacity="0.2"/>
<rect width="11.712" height="11.712" transform="matrix(0.866025 0.5 -0.866025 0.5 20.8223 36.9565)" fill="white" fill-opacity="0.2"/>
<rect width="11.712" height="11.712" transform="matrix(0.866025 0.5 -0.866025 0.5 42.1777 24.626)" fill="white" fill-opacity="0.2"/>
<rect width="11.712" height="11.712" transform="matrix(0.866025 0.5 -0.866025 0.5 42.1777 36.9565)" fill="white" fill-opacity="0.2"/>
<rect width="11.712" height="11.712" transform="matrix(0.866025 0.5 -0.866025 0.5 52.8574 30.7913)" fill="white" fill-opacity="0.2"/>
<rect width="11.712" height="11.712" transform="matrix(0.866025 0.5 -0.866025 0.5 10.1426 30.7913)" fill="white" fill-opacity="0.2"/>
<rect width="11.712" height="11.712" transform="matrix(0.866025 0.5 -0.866025 0.5 31.5 43.1221)" fill="white" fill-opacity="0.2"/>
<rect width="11.712" height="11.712" transform="matrix(0.866025 0.5 -0.866025 0.5 31.5 30.7913)" fill="white" fill-opacity="0.2"/>
</g>
</g>
<mask id="path-33-outside-1_2122_5526" maskUnits="userSpaceOnUse" x="11.3535" y="22.5" width="11" height="19" fill="black">
<rect fill="white" x="11.3535" y="22.5" width="11" height="19"/>
<path d="M20.5409 23.7299V40.5H16.9953V27.0954H16.897L13.0566 29.5028V26.3585L17.2082 23.7299H20.5409Z"/>
</mask>
<path d="M20.5409 23.7299V40.5H16.9953V27.0954H16.897L13.0566 29.5028V26.3585L17.2082 23.7299H20.5409Z" fill="white"/>
<path d="M20.5409 23.7299H21.3644V22.9064H20.5409V23.7299ZM20.5409 40.5V41.3235H21.3644V40.5H20.5409ZM16.9953 40.5H16.1717V41.3235H16.9953V40.5ZM16.9953 27.0954H17.8188V26.2719H16.9953V27.0954ZM16.897 27.0954V26.2719H16.6602L16.4596 26.3977L16.897 27.0954ZM13.0566 29.5028H12.2331V30.991L13.494 30.2006L13.0566 29.5028ZM13.0566 26.3585L12.6161 25.6627L12.2331 25.9051V26.3585H13.0566ZM17.2082 23.7299V22.9064H16.9694L16.7676 23.0341L17.2082 23.7299ZM20.5409 23.7299H19.7174V40.5H20.5409H21.3644V23.7299H20.5409ZM20.5409 40.5V39.6765H16.9953V40.5V41.3235H20.5409V40.5ZM16.9953 40.5H17.8188V27.0954H16.9953H16.1717V40.5H16.9953ZM16.9953 27.0954V26.2719H16.897V27.0954V27.9189H16.9953V27.0954ZM16.897 27.0954L16.4596 26.3977L12.6192 28.8051L13.0566 29.5028L13.494 30.2006L17.3344 27.7932L16.897 27.0954ZM13.0566 29.5028H13.8801V26.3585H13.0566H12.2331V29.5028H13.0566ZM13.0566 26.3585L13.4971 27.0543L17.6487 24.4257L17.2082 23.7299L16.7676 23.0341L12.6161 25.6627L13.0566 26.3585ZM17.2082 23.7299V24.5535H20.5409V23.7299V22.9064H17.2082V23.7299Z" fill="#2B3F46" mask="url(#path-33-outside-1_2122_5526)"/>
<mask id="path-35-outside-2_2122_5526" maskUnits="userSpaceOnUse" x="26.3535" y="28" width="12" height="11" fill="black">
<rect fill="white" x="26.3535" y="28" width="12" height="11"/>
<path d="M30.7484 29.2727L32.3507 32.3239L33.9927 29.2727H36.4757L33.9473 33.6364L36.5439 38H34.0723L32.3507 34.983L30.6575 38H28.1575L30.7484 33.6364L28.2484 29.2727H30.7484Z"/>
</mask>
<path d="M30.7484 29.2727L32.3507 32.3239L33.9927 29.2727H36.4757L33.9473 33.6364L36.5439 38H34.0723L32.3507 34.983L30.6575 38H28.1575L30.7484 33.6364L28.2484 29.2727H30.7484Z" fill="white"/>
<path d="M30.7484 29.2727L31.4775 28.8898L31.2461 28.4492H30.7484V29.2727ZM32.3507 32.3239L31.6216 32.7067L32.3418 34.0782L33.0759 32.7141L32.3507 32.3239ZM33.9927 29.2727V28.4492H33.5007L33.2675 28.8825L33.9927 29.2727ZM36.4757 29.2727L37.1882 29.6856L37.9046 28.4492H36.4757V29.2727ZM33.9473 33.6364L33.2347 33.2235L32.9923 33.6419L33.2396 34.0575L33.9473 33.6364ZM36.5439 38V38.8235H37.9922L37.2516 37.5789L36.5439 38ZM34.0723 38L33.357 38.4081L33.594 38.8235H34.0723V38ZM32.3507 34.983L33.0659 34.5748L32.3447 33.3109L31.6325 34.5799L32.3507 34.983ZM30.6575 38V38.8235H31.1397L31.3757 38.403L30.6575 38ZM28.1575 38L27.4494 37.5796L26.7108 38.8235H28.1575V38ZM30.7484 33.6364L31.4565 34.0568L31.7018 33.6438L31.463 33.227L30.7484 33.6364ZM28.2484 29.2727V28.4492H26.8275L27.5338 29.6821L28.2484 29.2727ZM30.7484 29.2727L30.0193 29.6556L31.6216 32.7067L32.3507 32.3239L33.0798 31.941L31.4775 28.8898L30.7484 29.2727ZM32.3507 32.3239L33.0759 32.7141L34.7179 29.663L33.9927 29.2727L33.2675 28.8825L31.6255 31.9336L32.3507 32.3239ZM33.9927 29.2727V30.0963H36.4757V29.2727V28.4492H33.9927V29.2727ZM36.4757 29.2727L35.7631 28.8599L33.2347 33.2235L33.9473 33.6364L34.6598 34.0492L37.1882 29.6856L36.4757 29.2727ZM33.9473 33.6364L33.2396 34.0575L35.8361 38.4211L36.5439 38L37.2516 37.5789L34.655 33.2152L33.9473 33.6364ZM36.5439 38V37.1765H34.0723V38V38.8235H36.5439V38ZM34.0723 38L34.7875 37.5919L33.0659 34.5748L32.3507 34.983L31.6354 35.3911L33.357 38.4081L34.0723 38ZM32.3507 34.983L31.6325 34.5799L29.9393 37.597L30.6575 38L31.3757 38.403L33.0688 35.386L32.3507 34.983ZM30.6575 38V37.1765H28.1575V38V38.8235H30.6575V38ZM28.1575 38L28.8656 38.4204L31.4565 34.0568L30.7484 33.6364L30.0403 33.2159L27.4494 37.5796L28.1575 38ZM30.7484 33.6364L31.463 33.227L28.963 28.8633L28.2484 29.2727L27.5338 29.6821L30.0338 34.0457L30.7484 33.6364ZM28.2484 29.2727V30.0963H30.7484V29.2727V28.4492H28.2484V29.2727Z" fill="#2B3F46" mask="url(#path-35-outside-2_2122_5526)"/>
<mask id="path-37-outside-3_2122_5526" maskUnits="userSpaceOnUse" x="39.3535" y="22.5" width="16" height="19" fill="black">
<rect fill="white" x="39.3535" y="22.5" width="16" height="19"/>
<path d="M40.6226 37.5521V34.7599L47.6237 23.7299H50.0312V27.5949H48.6064L44.1928 34.5797V34.7107H54.1418V37.5521H40.6226ZM48.6719 40.5V36.7005L48.7374 35.4641V23.7299H52.0619V40.5H48.6719Z"/>
</mask>
<path d="M40.6226 37.5521V34.7599L47.6237 23.7299H50.0312V27.5949H48.6064L44.1928 34.5797V34.7107H54.1418V37.5521H40.6226ZM48.6719 40.5V36.7005L48.7374 35.4641V23.7299H52.0619V40.5H48.6719Z" fill="white"/>
<path d="M40.6226 37.5521H39.799V38.3757H40.6226V37.5521ZM40.6226 34.7599L39.9273 34.3185L39.799 34.5206V34.7599H40.6226ZM47.6237 23.7299V22.9064H47.171L46.9284 23.2886L47.6237 23.7299ZM50.0312 23.7299H50.8547V22.9064H50.0312V23.7299ZM50.0312 27.5949V28.4184H50.8547V27.5949H50.0312ZM48.6064 27.5949V26.7714H48.1526L47.9102 27.155L48.6064 27.5949ZM44.1928 34.5797L43.4966 34.1398L43.3692 34.3413V34.5797H44.1928ZM44.1928 34.7107H43.3692V35.5343H44.1928V34.7107ZM54.1418 34.7107H54.9653V33.8872H54.1418V34.7107ZM54.1418 37.5521V38.3757H54.9653V37.5521H54.1418ZM48.6719 40.5H47.8483V41.3235H48.6719V40.5ZM48.6719 36.7005L47.8495 36.657L47.8483 36.6787V36.7005H48.6719ZM48.7374 35.4641L49.5597 35.5076L49.5609 35.4859V35.4641H48.7374ZM48.7374 23.7299V22.9064H47.9138V23.7299H48.7374ZM52.0619 23.7299H52.8854V22.9064H52.0619V23.7299ZM52.0619 40.5V41.3235H52.8854V40.5H52.0619ZM40.6226 37.5521H41.4461V34.7599H40.6226H39.799V37.5521H40.6226ZM40.6226 34.7599L41.3179 35.2012L48.319 24.1713L47.6237 23.7299L46.9284 23.2886L39.9273 34.3185L40.6226 34.7599ZM47.6237 23.7299V24.5535H50.0312V23.7299V22.9064H47.6237V23.7299ZM50.0312 23.7299H49.2076V27.5949H50.0312H50.8547V23.7299H50.0312ZM50.0312 27.5949V26.7714H48.6064V27.5949V28.4184H50.0312V27.5949ZM48.6064 27.5949L47.9102 27.155L43.4966 34.1398L44.1928 34.5797L44.8889 35.0196L49.3025 28.0348L48.6064 27.5949ZM44.1928 34.5797H43.3692V34.7107H44.1928H45.0163V34.5797H44.1928ZM44.1928 34.7107V35.5343H54.1418V34.7107V33.8872H44.1928V34.7107ZM54.1418 34.7107H53.3183V37.5521H54.1418H54.9653V34.7107H54.1418ZM54.1418 37.5521V36.7286H40.6226V37.5521V38.3757H54.1418V37.5521ZM48.6719 40.5H49.4954V36.7005H48.6719H47.8483V40.5H48.6719ZM48.6719 36.7005L49.4942 36.7441L49.5597 35.5076L48.7374 35.4641L47.915 35.4205L47.8495 36.657L48.6719 36.7005ZM48.7374 35.4641H49.5609V23.7299H48.7374H47.9138V35.4641H48.7374ZM48.7374 23.7299V24.5535H52.0619V23.7299V22.9064H48.7374V23.7299ZM52.0619 23.7299H51.2384V40.5H52.0619H52.8854V23.7299H52.0619ZM52.0619 40.5V39.6765H48.6719V40.5V41.3235H52.0619V40.5Z" fill="#2B3F46" mask="url(#path-37-outside-3_2122_5526)"/>
<defs>
<linearGradient id="paint0_linear_2122_5526" x1="35.8411" y1="35.864" x2="-1.88188" y2="2.08424" gradientUnits="userSpaceOnUse">
<stop stop-color="#FFD5EF"/>
<stop offset="1" stop-color="#EFBDFD"/>
</linearGradient>
<linearGradient id="paint1_linear_2122_5526" x1="26.8809" y1="4.483" x2="25.174" y2="-4.68761" gradientUnits="userSpaceOnUse">
<stop stop-color="#F95457"/>
<stop offset="1" stop-color="#FDBDCB"/>
</linearGradient>
<linearGradient id="paint2_linear_2122_5526" x1="26.8809" y1="4.483" x2="25.174" y2="-4.68761" gradientUnits="userSpaceOnUse">
<stop stop-color="#F95457"/>
<stop offset="1" stop-color="#FDBDCB"/>
</linearGradient>
<linearGradient id="paint3_linear_2122_5526" x1="4.71844" y1="43.652" x2="1.80424" y2="43.0279" gradientUnits="userSpaceOnUse">
<stop stop-color="#F95457"/>
<stop offset="1" stop-color="#FDBDCB"/>
</linearGradient>
<linearGradient id="paint4_linear_2122_5526" x1="35.7657" y1="58.0257" x2="30.2143" y2="50.8928" gradientUnits="userSpaceOnUse">
<stop stop-color="#F95457"/>
<stop offset="1" stop-color="#FDBDCB"/>
</linearGradient>
<linearGradient id="paint5_linear_2122_5526" x1="60.6657" y1="43.652" x2="57.7515" y2="43.0279" gradientUnits="userSpaceOnUse">
<stop stop-color="#F95457"/>
<stop offset="1" stop-color="#FDBDCB"/>
</linearGradient>
<linearGradient id="paint6_linear_2122_5526" x1="-1.09962e-05" y1="-0.0328651" x2="30.641" y2="-4.05264" gradientUnits="userSpaceOnUse">
<stop stop-color="#D74446"/>
<stop offset="1" stop-color="#E165B8"/>
</linearGradient>
<linearGradient id="paint7_linear_2122_5526" x1="-1.11276e-05" y1="-0.033258" x2="31.0073" y2="-4.10108" gradientUnits="userSpaceOnUse">
<stop stop-color="#D74446"/>
<stop offset="1" stop-color="#E165B8"/>
</linearGradient>
<linearGradient id="paint8_linear_2122_5526" x1="-8.34573e-06" y1="-0.00415724" x2="14.606" y2="-11.5011" gradientUnits="userSpaceOnUse">
<stop stop-color="#D1369D"/>
<stop offset="1" stop-color="#B31E20"/>
</linearGradient>
<linearGradient id="paint9_linear_2122_5526" x1="-8.34573e-06" y1="-0.00415724" x2="14.606" y2="-11.5011" gradientUnits="userSpaceOnUse">
<stop stop-color="#D74446"/>
<stop offset="1" stop-color="#E165B8"/>
</linearGradient>
<linearGradient id="paint10_linear_2122_5526" x1="2.32031" y1="36.6188" x2="3.73321" y2="36.5744" gradientUnits="userSpaceOnUse">
<stop stop-color="#D74446"/>
<stop offset="1" stop-color="#D1369D"/>
</linearGradient>
<linearGradient id="paint11_linear_2122_5526" x1="27.5449" y1="52.5135" x2="34.14" y2="51.2721" gradientUnits="userSpaceOnUse">
<stop stop-color="#B31E20"/>
<stop offset="1" stop-color="#D74446"/>
</linearGradient>
<linearGradient id="paint12_linear_2122_5526" x1="59.0059" y1="36.6188" x2="60.4188" y2="36.5744" gradientUnits="userSpaceOnUse">
<stop stop-color="#E165B8"/>
<stop offset="1" stop-color="#D74446"/>
</linearGradient>
<clipPath id="clip0_2122_5526">
<rect width="63" height="39.5638" fill="white" transform="translate(0 18.4604)"/>
</clipPath>
<clipPath id="clip1_2122_5526">
<rect width="35.8992" height="35.8992" rx="4.44179" transform="matrix(0.866025 0.5 -0.866025 0.5 31.9102 19)" fill="white"/>
</clipPath>
<clipPath id="clip2_2122_5526">
<rect width="36.3731" height="36.3731" rx="4.50041" transform="matrix(0.866025 0.5 -0.866025 0.5 31.5 18.4607)" fill="white"/>
</clipPath>
</defs>
</svg>
