<svg width="64" height="64" viewBox="0 0 64 64" fill="none" xmlns="http://www.w3.org/2000/svg">
<g clip-path="url(#clip0_2122_4376)">
<rect width="35.8551" height="35.8551" rx="4.37833" transform="matrix(0.866025 0.5 -0.866025 0.5 31.8887 19)" fill="url(#paint0_linear_2122_4376)"/>
<rect width="26.8913" height="4.48189" transform="matrix(0.866025 0.5 0 1 4.71875 39.1685)" fill="url(#paint1_linear_2122_4376)"/>
<rect width="26.8913" height="4.48189" transform="matrix(0.866025 -0.5 0 1 35.7695 52.6143)" fill="url(#paint2_linear_2122_4376)"/>
<path d="M3.11133 36.9275C3.11133 37.8026 3.72572 38.5949 4.71907 39.1684V43.6503C3.72572 43.0768 3.11133 42.2845 3.11133 41.4094V36.9275Z" fill="url(#paint3_linear_2122_4376)"/>
<path d="M28.0059 52.6143C30.1495 53.8519 33.6251 53.8519 35.7687 52.6143V57.0961C33.6251 58.3338 30.1495 58.3338 28.0059 57.0961V52.6143Z" fill="url(#paint4_linear_2122_4376)"/>
<path d="M60.6663 36.9275C60.6663 37.8026 60.0519 38.5949 59.0586 39.1684V43.6503C60.0519 43.0768 60.6663 42.2845 60.6663 41.4094V36.9275Z" fill="url(#paint5_linear_2122_4376)"/>
<g clip-path="url(#clip1_2122_4376)">
<rect width="35.8992" height="35.8992" rx="4.44179" transform="matrix(0.866025 0.5 -0.866025 0.5 31.9102 19)" fill="url(#paint6_linear_2122_4376)"/>
<rect width="11.5594" height="11.5594" transform="matrix(0.866025 0.5 -0.866025 0.5 31.9102 19)" fill="black" fill-opacity="0.1"/>
<rect width="11.5594" height="11.5594" transform="matrix(0.866025 0.5 -0.866025 0.5 21.3711 25.085)" fill="black" fill-opacity="0.1"/>
<rect width="11.5594" height="11.5594" transform="matrix(0.866025 0.5 -0.866025 0.5 21.3711 37.2549)" fill="black" fill-opacity="0.1"/>
<rect width="11.5594" height="11.5594" transform="matrix(0.866025 0.5 -0.866025 0.5 42.4492 25.085)" fill="black" fill-opacity="0.1"/>
<rect width="11.5594" height="11.5594" transform="matrix(0.866025 0.5 -0.866025 0.5 42.4492 37.2549)" fill="black" fill-opacity="0.1"/>
<rect width="11.5594" height="11.5594" transform="matrix(0.866025 0.5 -0.866025 0.5 52.9883 31.1699)" fill="black" fill-opacity="0.1"/>
<rect width="11.5594" height="11.5594" transform="matrix(0.866025 0.5 -0.866025 0.5 10.832 31.1699)" fill="black" fill-opacity="0.1"/>
<rect width="11.5594" height="11.5594" transform="matrix(0.866025 0.5 -0.866025 0.5 31.9102 43.3398)" fill="black" fill-opacity="0.1"/>
<rect width="11.5594" height="11.5594" transform="matrix(0.866025 0.5 -0.866025 0.5 31.9102 31.1699)" fill="black" fill-opacity="0.1"/>
</g>
<rect width="36.3283" height="36.3283" rx="4.43612" transform="matrix(0.866025 0.5 -0.866025 0.5 31.4785 18.4607)" fill="url(#paint7_linear_2122_4376)"/>
<rect width="27.2462" height="4.54104" transform="matrix(0.866025 0.5 0 1 3.94922 38.8958)" fill="url(#paint8_linear_2122_4376)"/>
<rect width="27.2462" height="4.54104" transform="matrix(0.866025 -0.5 0 1 35.4102 52.5186)" fill="url(#paint9_linear_2122_4376)"/>
<path d="M2.32031 36.625C2.32031 37.5117 2.94282 38.3144 3.94927 38.8955V43.4366C2.94282 42.8555 2.32031 42.0527 2.32031 41.166V36.625Z" fill="url(#paint10_linear_2122_4376)"/>
<path d="M27.5449 52.5186C29.7169 53.7725 33.2383 53.7725 35.4102 52.5186V57.0596C33.2383 58.3136 29.7169 58.3136 27.5449 57.0596V52.5186Z" fill="url(#paint11_linear_2122_4376)"/>
<path d="M60.6348 36.625C60.6348 37.5117 60.0123 38.3144 59.0059 38.8955V43.4366C60.0123 42.8555 60.6348 42.0527 60.6348 41.166V36.625Z" fill="url(#paint12_linear_2122_4376)"/>
<g clip-path="url(#clip2_2122_4376)">
<rect width="11.712" height="11.712" transform="matrix(0.866025 0.5 -0.866025 0.5 31.5 18.4607)" fill="white" fill-opacity="0.2"/>
<rect width="11.712" height="11.712" transform="matrix(0.866025 0.5 -0.866025 0.5 20.8223 24.626)" fill="white" fill-opacity="0.2"/>
<rect width="11.712" height="11.712" transform="matrix(0.866025 0.5 -0.866025 0.5 20.8223 36.9565)" fill="white" fill-opacity="0.2"/>
<rect width="11.712" height="11.712" transform="matrix(0.866025 0.5 -0.866025 0.5 42.1777 24.626)" fill="white" fill-opacity="0.2"/>
<rect width="11.712" height="11.712" transform="matrix(0.866025 0.5 -0.866025 0.5 42.1777 36.9565)" fill="white" fill-opacity="0.2"/>
<rect width="11.712" height="11.712" transform="matrix(0.866025 0.5 -0.866025 0.5 52.8574 30.7913)" fill="white" fill-opacity="0.2"/>
<rect width="11.712" height="11.712" transform="matrix(0.866025 0.5 -0.866025 0.5 10.1426 30.7913)" fill="white" fill-opacity="0.2"/>
<rect width="11.712" height="11.712" transform="matrix(0.866025 0.5 -0.866025 0.5 31.5 43.1221)" fill="white" fill-opacity="0.2"/>
<rect width="11.712" height="11.712" transform="matrix(0.866025 0.5 -0.866025 0.5 31.5 30.7913)" fill="white" fill-opacity="0.2"/>
</g>
</g>
<mask id="path-33-outside-1_2122_4376" maskUnits="userSpaceOnUse" x="10.3535" y="22.5" width="14" height="19" fill="black">
<rect fill="white" x="10.3535" y="22.5" width="14" height="19"/>
<path d="M11.4517 40.5V37.9452L17.4211 32.4179C17.9288 31.9266 18.3546 31.4845 18.6985 31.0914C19.0479 30.6984 19.3126 30.3135 19.4928 29.9368C19.6729 29.5547 19.763 29.1425 19.763 28.7004C19.763 28.2091 19.6511 27.786 19.4273 27.4311C19.2034 27.0709 18.8977 26.7952 18.5101 26.6041C18.1226 26.4076 17.6831 26.3093 17.1918 26.3093C16.6786 26.3093 16.231 26.413 15.8489 26.6205C15.4667 26.8279 15.172 27.1254 14.9645 27.513C14.7571 27.9006 14.6534 28.3619 14.6534 28.8969H11.2879C11.2879 27.7996 11.5363 26.847 12.033 26.0391C12.5298 25.2312 13.2258 24.6061 14.1211 24.1639C15.0164 23.7218 16.0481 23.5007 17.2164 23.5007C18.4173 23.5007 19.4627 23.7136 20.3526 24.1394C21.2478 24.5597 21.9439 25.1438 22.4406 25.8917C22.9374 26.6396 23.1858 27.4967 23.1858 28.4629C23.1858 29.0961 23.0602 29.7212 22.8091 30.3381C22.5635 30.9549 22.124 31.64 21.4908 32.3934C20.8575 33.1413 19.965 34.0393 18.8131 35.0874L16.3648 37.4866V37.6013H23.4069V40.5H11.4517Z"/>
</mask>
<path d="M11.4517 40.5V37.9452L17.4211 32.4179C17.9288 31.9266 18.3546 31.4845 18.6985 31.0914C19.0479 30.6984 19.3126 30.3135 19.4928 29.9368C19.6729 29.5547 19.763 29.1425 19.763 28.7004C19.763 28.2091 19.6511 27.786 19.4273 27.4311C19.2034 27.0709 18.8977 26.7952 18.5101 26.6041C18.1226 26.4076 17.6831 26.3093 17.1918 26.3093C16.6786 26.3093 16.231 26.413 15.8489 26.6205C15.4667 26.8279 15.172 27.1254 14.9645 27.513C14.7571 27.9006 14.6534 28.3619 14.6534 28.8969H11.2879C11.2879 27.7996 11.5363 26.847 12.033 26.0391C12.5298 25.2312 13.2258 24.6061 14.1211 24.1639C15.0164 23.7218 16.0481 23.5007 17.2164 23.5007C18.4173 23.5007 19.4627 23.7136 20.3526 24.1394C21.2478 24.5597 21.9439 25.1438 22.4406 25.8917C22.9374 26.6396 23.1858 27.4967 23.1858 28.4629C23.1858 29.0961 23.0602 29.7212 22.8091 30.3381C22.5635 30.9549 22.124 31.64 21.4908 32.3934C20.8575 33.1413 19.965 34.0393 18.8131 35.0874L16.3648 37.4866V37.6013H23.4069V40.5H11.4517Z" fill="white"/>
<path d="M11.4517 40.5H10.6281V41.3235H11.4517V40.5ZM11.4517 37.9452L10.8921 37.3409L10.6281 37.5854V37.9452H11.4517ZM17.4211 32.4179L17.9806 33.0222L17.9872 33.0161L17.9938 33.0097L17.4211 32.4179ZM18.6985 31.0914L18.0829 30.5443L18.0787 30.5491L18.6985 31.0914ZM19.4928 29.9368L20.2357 30.2922L20.2377 30.288L19.4928 29.9368ZM19.4273 27.4311L18.7277 27.8657L18.7307 27.8705L19.4273 27.4311ZM18.5101 26.6041L18.1377 27.3387L18.146 27.3428L18.5101 26.6041ZM15.8489 26.6205L15.456 25.8967L15.456 25.8967L15.8489 26.6205ZM14.6534 28.8969V29.7204H15.4769V28.8969H14.6534ZM11.2879 28.8969H10.4644V29.7204H11.2879V28.8969ZM14.1211 24.1639L13.7564 23.4256L13.7564 23.4256L14.1211 24.1639ZM20.3526 24.1394L19.9971 24.8822L20.0026 24.8848L20.3526 24.1394ZM22.4406 25.8917L23.1266 25.4361L23.1266 25.4361L22.4406 25.8917ZM22.8091 30.3381L22.0463 30.0276L22.044 30.0334L22.8091 30.3381ZM21.4908 32.3934L22.1193 32.9255L22.1212 32.9233L21.4908 32.3934ZM18.8131 35.0874L18.2589 34.4783L18.2476 34.4885L18.2367 34.4992L18.8131 35.0874ZM16.3648 37.4866L15.7884 36.8984L15.5412 37.1406V37.4866H16.3648ZM16.3648 37.6013H15.5412V38.4248H16.3648V37.6013ZM23.4069 37.6013H24.2304V36.7777H23.4069V37.6013ZM23.4069 40.5V41.3235H24.2304V40.5H23.4069ZM11.4517 40.5H12.2752V37.9452H11.4517H10.6281V40.5H11.4517ZM11.4517 37.9452L12.0112 38.5495L17.9806 33.0222L17.4211 32.4179L16.8616 31.8137L10.8921 37.3409L11.4517 37.9452ZM17.4211 32.4179L17.9938 33.0097C18.5125 32.5077 18.9552 32.0487 19.3182 31.6337L18.6985 31.0914L18.0787 30.5491C17.754 30.9203 17.345 31.3456 16.8484 31.8262L17.4211 32.4179ZM18.6985 31.0914L19.314 31.6385C19.702 31.202 20.015 30.7537 20.2357 30.2921L19.4928 29.9368L18.7498 29.5815C18.6103 29.8733 18.3937 30.1947 18.083 30.5443L18.6985 31.0914ZM19.4928 29.9368L20.2377 30.288C20.472 29.7909 20.5865 29.2582 20.5865 28.7004H19.763H18.9395C18.9395 29.0269 18.8738 29.3185 18.7479 29.5857L19.4928 29.9368ZM19.763 28.7004H20.5865C20.5865 28.0806 20.4439 27.4993 20.1238 26.9918L19.4273 27.4311L18.7307 27.8705C18.8582 28.0727 18.9395 28.3375 18.9395 28.7004H19.763ZM19.4273 27.4311L20.1268 26.9966C19.8202 26.503 19.3971 26.1232 18.8743 25.8655L18.5101 26.6041L18.146 27.3428C18.3983 27.4671 18.5867 27.6387 18.7277 27.8657L19.4273 27.4311ZM18.5101 26.6041L18.8826 25.8696C18.3653 25.6073 17.7955 25.4858 17.1918 25.4858V26.3093V27.1329C17.5707 27.1329 17.8798 27.2079 18.1377 27.3386L18.5101 26.6041ZM17.1918 26.3093V25.4858C16.5662 25.4858 15.9787 25.6129 15.456 25.8967L15.8489 26.6205L16.2418 27.3442C16.4833 27.2132 16.7911 27.1329 17.1918 27.1329V26.3093ZM15.8489 26.6205L15.456 25.8967C14.9308 26.1818 14.5209 26.5966 14.2384 27.1244L14.9645 27.513L15.6906 27.9016C15.823 27.6543 16.0027 27.474 16.2418 27.3442L15.8489 26.6205ZM14.9645 27.513L14.2384 27.1244C13.9546 27.6548 13.8298 28.2555 13.8298 28.8969H14.6534H15.4769C15.4769 28.4684 15.5596 28.1464 15.6906 27.9016L14.9645 27.513ZM14.6534 28.8969V28.0734H11.2879V28.8969V29.7204H14.6534V28.8969ZM11.2879 28.8969H12.1114C12.1114 27.9276 12.3294 27.1294 12.7346 26.4704L12.033 26.0391L11.3315 25.6078C10.7431 26.5647 10.4644 27.6717 10.4644 28.8969H11.2879ZM12.033 26.0391L12.7346 26.4704C13.1458 25.8016 13.7218 25.2797 14.4858 24.9023L14.1211 24.1639L13.7564 23.4256C12.7299 23.9326 11.9138 24.6607 11.3315 25.6078L12.033 26.0391ZM14.1211 24.1639L14.4858 24.9023C15.2499 24.5249 16.1532 24.3242 17.2164 24.3242V23.5007V22.6771C15.9431 22.6771 14.7829 22.9186 13.7564 23.4256L14.1211 24.1639ZM17.2164 23.5007V24.3242C18.3206 24.3242 19.2397 24.5198 19.9971 24.8822L20.3526 24.1394L20.708 23.3965C19.6857 22.9073 18.5141 22.6771 17.2164 22.6771V23.5007ZM20.3526 24.1394L20.0026 24.8848C20.7757 25.2478 21.3496 25.7375 21.7546 26.3474L22.4406 25.8917L23.1266 25.4361C22.5381 24.5501 21.7199 23.8716 20.7026 23.3939L20.3526 24.1394ZM22.4406 25.8917L21.7546 26.3474C22.1548 26.9498 22.3622 27.6458 22.3622 28.4629H23.1858H24.0093C24.0093 27.3475 23.72 26.3294 23.1266 25.4361L22.4406 25.8917ZM23.1858 28.4629H22.3622C22.3622 28.9842 22.2594 29.5041 22.0464 30.0276L22.8091 30.3381L23.5719 30.6486C23.861 29.9383 24.0093 29.2081 24.0093 28.4629H23.1858ZM22.8091 30.3381L22.044 30.0334C21.8426 30.5392 21.4616 31.1483 20.8604 31.8635L21.4908 32.3934L22.1212 32.9233C22.7864 32.1318 23.2843 31.3706 23.5742 30.6428L22.8091 30.3381ZM21.4908 32.3934L20.8623 31.8612C20.2614 32.5709 19.3977 33.442 18.2589 34.4783L18.8131 35.0874L19.3674 35.6965C20.5322 34.6366 21.4536 33.7117 22.1193 32.9255L21.4908 32.3934ZM18.8131 35.0874L18.2367 34.4992L15.7884 36.8984L16.3648 37.4866L16.9411 38.0748L19.3895 35.6756L18.8131 35.0874ZM16.3648 37.4866H15.5412V37.6013H16.3648H17.1883V37.4866H16.3648ZM16.3648 37.6013V38.4248H23.4069V37.6013V36.7777H16.3648V37.6013ZM23.4069 37.6013H22.5833V40.5H23.4069H24.2304V37.6013H23.4069ZM23.4069 40.5V39.6765H11.4517V40.5V41.3235H23.4069V40.5Z" fill="#2B3F46" mask="url(#path-33-outside-1_2122_4376)"/>
<mask id="path-35-outside-2_2122_4376" maskUnits="userSpaceOnUse" x="26.3535" y="28" width="12" height="11" fill="black">
<rect fill="white" x="26.3535" y="28" width="12" height="11"/>
<path d="M30.7484 29.2727L32.3507 32.3239L33.9927 29.2727H36.4757L33.9473 33.6364L36.5439 38H34.0723L32.3507 34.983L30.6575 38H28.1575L30.7484 33.6364L28.2484 29.2727H30.7484Z"/>
</mask>
<path d="M30.7484 29.2727L32.3507 32.3239L33.9927 29.2727H36.4757L33.9473 33.6364L36.5439 38H34.0723L32.3507 34.983L30.6575 38H28.1575L30.7484 33.6364L28.2484 29.2727H30.7484Z" fill="white"/>
<path d="M30.7484 29.2727L31.4775 28.8898L31.2461 28.4492H30.7484V29.2727ZM32.3507 32.3239L31.6216 32.7067L32.3418 34.0782L33.0759 32.7141L32.3507 32.3239ZM33.9927 29.2727V28.4492H33.5007L33.2675 28.8825L33.9927 29.2727ZM36.4757 29.2727L37.1882 29.6856L37.9046 28.4492H36.4757V29.2727ZM33.9473 33.6364L33.2347 33.2235L32.9923 33.6419L33.2396 34.0575L33.9473 33.6364ZM36.5439 38V38.8235H37.9922L37.2516 37.5789L36.5439 38ZM34.0723 38L33.357 38.4081L33.594 38.8235H34.0723V38ZM32.3507 34.983L33.0659 34.5748L32.3447 33.3109L31.6325 34.5799L32.3507 34.983ZM30.6575 38V38.8235H31.1397L31.3757 38.403L30.6575 38ZM28.1575 38L27.4494 37.5796L26.7108 38.8235H28.1575V38ZM30.7484 33.6364L31.4565 34.0568L31.7018 33.6438L31.463 33.227L30.7484 33.6364ZM28.2484 29.2727V28.4492H26.8275L27.5338 29.6821L28.2484 29.2727ZM30.7484 29.2727L30.0193 29.6556L31.6216 32.7067L32.3507 32.3239L33.0798 31.941L31.4775 28.8898L30.7484 29.2727ZM32.3507 32.3239L33.0759 32.7141L34.7179 29.663L33.9927 29.2727L33.2675 28.8825L31.6255 31.9336L32.3507 32.3239ZM33.9927 29.2727V30.0963H36.4757V29.2727V28.4492H33.9927V29.2727ZM36.4757 29.2727L35.7631 28.8599L33.2347 33.2235L33.9473 33.6364L34.6598 34.0492L37.1882 29.6856L36.4757 29.2727ZM33.9473 33.6364L33.2396 34.0575L35.8361 38.4211L36.5439 38L37.2516 37.5789L34.655 33.2152L33.9473 33.6364ZM36.5439 38V37.1765H34.0723V38V38.8235H36.5439V38ZM34.0723 38L34.7875 37.5919L33.0659 34.5748L32.3507 34.983L31.6354 35.3911L33.357 38.4081L34.0723 38ZM32.3507 34.983L31.6325 34.5799L29.9393 37.597L30.6575 38L31.3757 38.403L33.0688 35.386L32.3507 34.983ZM30.6575 38V37.1765H28.1575V38V38.8235H30.6575V38ZM28.1575 38L28.8656 38.4204L31.4565 34.0568L30.7484 33.6364L30.0403 33.2159L27.4494 37.5796L28.1575 38ZM30.7484 33.6364L31.463 33.227L28.963 28.8633L28.2484 29.2727L27.5338 29.6821L30.0338 34.0457L30.7484 33.6364ZM28.2484 29.2727V30.0963H30.7484V29.2727V28.4492H28.2484V29.2727Z" fill="#2B3F46" mask="url(#path-35-outside-2_2122_4376)"/>
<mask id="path-37-outside-3_2122_4376" maskUnits="userSpaceOnUse" x="40.3535" y="22.5" width="15" height="20" fill="black">
<rect fill="white" x="40.3535" y="22.5" width="15" height="20"/>
<path d="M47.3474 40.7293C46.1901 40.7293 45.1583 40.5164 44.2521 40.0906C43.3514 39.6648 42.6363 39.0779 42.1067 38.33C41.5772 37.5822 41.3015 36.7251 41.2797 35.7589H44.7189C44.7571 36.4085 45.03 36.9353 45.5377 37.3392C46.0454 37.7432 46.6486 37.9452 47.3474 37.9452C47.9042 37.9452 48.3955 37.8224 48.8213 37.5767C49.2526 37.3256 49.5883 36.9789 49.8285 36.5368C50.0741 36.0891 50.197 35.576 50.197 34.9973C50.197 34.4078 50.0714 33.8891 49.8203 33.4415C49.5746 32.9939 49.2335 32.6445 48.7967 32.3934C48.36 32.1423 47.8605 32.014 47.2982 32.0085C46.8069 32.0085 46.3293 32.1095 45.8653 32.3115C45.4067 32.5135 45.0491 32.7892 44.7926 33.1385L41.64 32.5735L42.4343 23.7299H52.6863V26.6287H45.3576L44.9236 30.8294H45.0218C45.3166 30.4145 45.7615 30.0706 46.3566 29.7976C46.9516 29.5247 47.6176 29.3882 48.3546 29.3882C49.3645 29.3882 50.2652 29.6257 51.0568 30.1006C51.8483 30.5755 52.4734 31.2279 52.9319 32.0577C53.3905 32.882 53.617 33.8318 53.6116 34.9073C53.617 36.0373 53.355 37.0417 52.8255 37.9206C52.3014 38.7941 51.5672 39.4819 50.6228 39.9841C49.6838 40.4809 48.592 40.7293 47.3474 40.7293Z"/>
</mask>
<path d="M47.3474 40.7293C46.1901 40.7293 45.1583 40.5164 44.2521 40.0906C43.3514 39.6648 42.6363 39.0779 42.1067 38.33C41.5772 37.5822 41.3015 36.7251 41.2797 35.7589H44.7189C44.7571 36.4085 45.03 36.9353 45.5377 37.3392C46.0454 37.7432 46.6486 37.9452 47.3474 37.9452C47.9042 37.9452 48.3955 37.8224 48.8213 37.5767C49.2526 37.3256 49.5883 36.9789 49.8285 36.5368C50.0741 36.0891 50.197 35.576 50.197 34.9973C50.197 34.4078 50.0714 33.8891 49.8203 33.4415C49.5746 32.9939 49.2335 32.6445 48.7967 32.3934C48.36 32.1423 47.8605 32.014 47.2982 32.0085C46.8069 32.0085 46.3293 32.1095 45.8653 32.3115C45.4067 32.5135 45.0491 32.7892 44.7926 33.1385L41.64 32.5735L42.4343 23.7299H52.6863V26.6287H45.3576L44.9236 30.8294H45.0218C45.3166 30.4145 45.7615 30.0706 46.3566 29.7976C46.9516 29.5247 47.6176 29.3882 48.3546 29.3882C49.3645 29.3882 50.2652 29.6257 51.0568 30.1006C51.8483 30.5755 52.4734 31.2279 52.9319 32.0577C53.3905 32.882 53.617 33.8318 53.6116 34.9073C53.617 36.0373 53.355 37.0417 52.8255 37.9206C52.3014 38.7941 51.5672 39.4819 50.6228 39.9841C49.6838 40.4809 48.592 40.7293 47.3474 40.7293Z" fill="white"/>
<path d="M44.2521 40.0906L43.9002 40.8351L43.9019 40.8359L44.2521 40.0906ZM42.1067 38.33L41.4346 38.8059L41.4346 38.8059L42.1067 38.33ZM41.2797 35.7589V34.9353H40.4373L40.4564 35.7775L41.2797 35.7589ZM44.7189 35.7589L45.541 35.7105L45.4954 34.9353H44.7189V35.7589ZM45.5377 37.3392L46.0505 36.6948L46.0505 36.6948L45.5377 37.3392ZM48.8213 37.5767L49.2328 38.29L49.2357 38.2884L48.8213 37.5767ZM49.8285 36.5368L49.1065 36.1406L49.1048 36.1437L49.8285 36.5368ZM49.8203 33.4415L49.0983 33.8377L49.1021 33.8444L49.8203 33.4415ZM48.7967 32.3934L48.3862 33.1073L48.3862 33.1073L48.7967 32.3934ZM47.2982 32.0085L47.3062 31.185H47.2982V32.0085ZM45.8653 32.3115L45.5366 31.5564L45.5333 31.5578L45.8653 32.3115ZM44.7926 33.1385L44.6473 33.9491L45.1525 34.0397L45.4563 33.626L44.7926 33.1385ZM41.64 32.5735L40.8198 32.4999L40.7523 33.2511L41.4947 33.3841L41.64 32.5735ZM42.4343 23.7299V22.9064H41.6814L41.614 23.6563L42.4343 23.7299ZM52.6863 23.7299H53.5098V22.9064H52.6863V23.7299ZM52.6863 26.6287V27.4522H53.5098V26.6287H52.6863ZM45.3576 26.6287V25.8051H44.6147L44.5384 26.544L45.3576 26.6287ZM44.9236 30.8294L44.1044 30.7447L44.0106 31.6529H44.9236V30.8294ZM45.0218 30.8294V31.6529H45.4469L45.6932 31.3064L45.0218 30.8294ZM46.3566 29.7976L46.6999 30.5462L46.6999 30.5462L46.3566 29.7976ZM51.0568 30.1006L51.4805 29.3944L51.4805 29.3944L51.0568 30.1006ZM52.9319 32.0577L52.2111 32.456L52.2123 32.458L52.9319 32.0577ZM53.6116 34.9073L52.788 34.9031L52.7881 34.9112L53.6116 34.9073ZM52.8255 37.9206L52.1201 37.4956L52.1193 37.4969L52.8255 37.9206ZM50.6228 39.9841L51.0079 40.7121L51.0094 40.7112L50.6228 39.9841ZM47.3474 40.7293V39.9057C46.2923 39.9057 45.3831 39.7121 44.6023 39.3452L44.2521 40.0906L43.9019 40.8359C44.9335 41.3207 46.0878 41.5528 47.3474 41.5528V40.7293ZM44.2521 40.0906L44.6041 39.346C43.8199 38.9753 43.2195 38.4765 42.7788 37.8542L42.1067 38.33L41.4346 38.8059C42.053 39.6793 42.8829 40.3542 43.9002 40.8351L44.2521 40.0906ZM42.1067 38.33L42.7788 37.8542C42.3495 37.2478 42.1214 36.5519 42.103 35.7403L41.2797 35.7589L40.4564 35.7775C40.4817 36.8983 40.8049 37.9166 41.4346 38.8059L42.1067 38.33ZM41.2797 35.7589V36.5824H44.7189V35.7589V34.9353H41.2797V35.7589ZM44.7189 35.7589L43.8968 35.8072C43.9487 36.6896 44.3335 37.4335 45.025 37.9837L45.5377 37.3392L46.0505 36.6948C45.7265 36.4371 45.5655 36.1273 45.541 35.7105L44.7189 35.7589ZM45.5377 37.3392L45.025 37.9837C45.69 38.5128 46.4777 38.7687 47.3474 38.7687V37.9452V37.1217C46.8195 37.1217 46.4009 36.9736 46.0505 36.6948L45.5377 37.3392ZM47.3474 37.9452V38.7687C48.0291 38.7687 48.666 38.6171 49.2328 38.29L48.8213 37.5767L48.4098 36.8634C48.125 37.0277 47.7792 37.1217 47.3474 37.1217V37.9452ZM48.8213 37.5767L49.2357 38.2884C49.7984 37.9607 50.2406 37.5034 50.5521 36.9299L49.8285 36.5368L49.1048 36.1437C48.936 36.4545 48.7067 36.6905 48.4069 36.865L48.8213 37.5767ZM49.8285 36.5368L50.5505 36.933C50.8712 36.3485 51.0205 35.6958 51.0205 34.9973H50.197H49.3734C49.3734 35.4562 49.2771 35.8298 49.1065 36.1406L49.8285 36.5368ZM50.197 34.9973H51.0205C51.0205 34.2879 50.8684 33.6266 50.5385 33.0386L49.8203 33.4415L49.1021 33.8444C49.2745 34.1517 49.3734 34.5276 49.3734 34.9973H50.197ZM49.8203 33.4415L50.5423 33.0453C50.2249 32.4671 49.7768 32.007 49.2072 31.6795L48.7967 32.3934L48.3862 33.1073C48.6901 33.282 48.9243 33.5206 49.0983 33.8377L49.8203 33.4415ZM48.7967 32.3934L49.2072 31.6795C48.6342 31.35 47.9931 31.1917 47.3062 31.185L47.2982 32.0085L47.2902 32.832C47.7279 32.8363 48.0858 32.9346 48.3862 33.1073L48.7967 32.3934ZM47.2982 32.0085V31.185C46.6904 31.185 46.1011 31.3107 45.5366 31.5564L45.8653 32.3115L46.1939 33.0666C46.5574 32.9084 46.9235 32.8321 47.2982 32.8321V32.0085ZM45.8653 32.3115L45.5333 31.5578C44.9636 31.8088 44.4833 32.1684 44.1288 32.6511L44.7926 33.1385L45.4563 33.626C45.615 33.4099 45.8498 33.2182 46.1972 33.0652L45.8653 32.3115ZM44.7926 33.1385L44.9378 32.3279L41.7853 31.7629L41.64 32.5735L41.4947 33.3841L44.6473 33.9491L44.7926 33.1385ZM41.64 32.5735L42.4602 32.6472L43.2545 23.8036L42.4343 23.7299L41.614 23.6563L40.8198 32.4999L41.64 32.5735ZM42.4343 23.7299V24.5535H52.6863V23.7299V22.9064H42.4343V23.7299ZM52.6863 23.7299H51.8627V26.6287H52.6863H53.5098V23.7299H52.6863ZM52.6863 26.6287V25.8051H45.3576V26.6287V27.4522H52.6863V26.6287ZM45.3576 26.6287L44.5384 26.544L44.1044 30.7447L44.9236 30.8294L45.7427 30.914L46.1767 26.7133L45.3576 26.6287ZM44.9236 30.8294V31.6529H45.0218V30.8294V30.0058H44.9236V30.8294ZM45.0218 30.8294L45.6932 31.3064C45.8837 31.0383 46.1994 30.7758 46.6999 30.5462L46.3566 29.7976L46.0132 29.0491C45.3237 29.3654 44.7496 29.7907 44.3505 30.3524L45.0218 30.8294ZM46.3566 29.7976L46.6999 30.5462C47.1744 30.3285 47.7212 30.2117 48.3546 30.2117V29.3882V28.5647C47.514 28.5647 46.7288 28.7209 46.0132 29.0491L46.3566 29.7976ZM48.3546 29.3882V30.2117C49.2297 30.2117 49.9814 30.4158 50.6331 30.8068L51.0568 30.1006L51.4805 29.3944C50.549 28.8356 49.4992 28.5647 48.3546 28.5647V29.3882ZM51.0568 30.1006L50.6331 30.8068C51.2967 31.205 51.8208 31.7496 52.2111 32.456L52.9319 32.0577L53.6527 31.6593C53.126 30.7062 52.3999 29.9461 51.4805 29.3944L51.0568 30.1006ZM52.9319 32.0577L52.2123 32.458C52.5929 33.1422 52.7929 33.9491 52.7881 34.9031L53.6116 34.9073L54.4351 34.9114C54.4412 33.7146 54.1881 32.6218 53.6516 31.6573L52.9319 32.0577ZM53.6116 34.9073L52.7881 34.9112C52.7929 35.9059 52.5639 36.7591 52.1201 37.4956L52.8255 37.9206L53.5309 38.3456C54.1462 37.3244 54.4412 36.1686 54.4351 34.9033L53.6116 34.9073ZM52.8255 37.9206L52.1193 37.4969C51.6761 38.2355 51.0553 38.8214 50.2361 39.257L50.6228 39.9841L51.0094 40.7112C52.079 40.1424 52.9267 39.3526 53.5317 38.3443L52.8255 37.9206ZM50.6228 39.9841L50.2377 39.2562C49.4362 39.6802 48.4809 39.9057 47.3474 39.9057V40.7293V41.5528C48.7032 41.5528 49.9314 41.2816 51.0079 40.7121L50.6228 39.9841Z" fill="#2B3F46" mask="url(#path-37-outside-3_2122_4376)"/>
<defs>
<linearGradient id="paint0_linear_2122_4376" x1="35.8411" y1="35.864" x2="-1.88188" y2="2.08424" gradientUnits="userSpaceOnUse">
<stop stop-color="#FFD5EF"/>
<stop offset="1" stop-color="#EFBDFD"/>
</linearGradient>
<linearGradient id="paint1_linear_2122_4376" x1="26.8809" y1="4.483" x2="25.174" y2="-4.68761" gradientUnits="userSpaceOnUse">
<stop stop-color="#F95457"/>
<stop offset="1" stop-color="#FDBDCB"/>
</linearGradient>
<linearGradient id="paint2_linear_2122_4376" x1="26.8809" y1="4.483" x2="25.174" y2="-4.68761" gradientUnits="userSpaceOnUse">
<stop stop-color="#F95457"/>
<stop offset="1" stop-color="#FDBDCB"/>
</linearGradient>
<linearGradient id="paint3_linear_2122_4376" x1="4.71844" y1="43.652" x2="1.80424" y2="43.0279" gradientUnits="userSpaceOnUse">
<stop stop-color="#F95457"/>
<stop offset="1" stop-color="#FDBDCB"/>
</linearGradient>
<linearGradient id="paint4_linear_2122_4376" x1="35.7657" y1="58.0257" x2="30.2143" y2="50.8928" gradientUnits="userSpaceOnUse">
<stop stop-color="#F95457"/>
<stop offset="1" stop-color="#FDBDCB"/>
</linearGradient>
<linearGradient id="paint5_linear_2122_4376" x1="60.6657" y1="43.652" x2="57.7515" y2="43.0279" gradientUnits="userSpaceOnUse">
<stop stop-color="#F95457"/>
<stop offset="1" stop-color="#FDBDCB"/>
</linearGradient>
<linearGradient id="paint6_linear_2122_4376" x1="-1.09962e-05" y1="-0.0328651" x2="30.641" y2="-4.05264" gradientUnits="userSpaceOnUse">
<stop stop-color="#D74446"/>
<stop offset="1" stop-color="#E165B8"/>
</linearGradient>
<linearGradient id="paint7_linear_2122_4376" x1="-1.11276e-05" y1="-0.033258" x2="31.0073" y2="-4.10108" gradientUnits="userSpaceOnUse">
<stop stop-color="#D74446"/>
<stop offset="1" stop-color="#E165B8"/>
</linearGradient>
<linearGradient id="paint8_linear_2122_4376" x1="-8.34573e-06" y1="-0.00415724" x2="14.606" y2="-11.5011" gradientUnits="userSpaceOnUse">
<stop stop-color="#D1369D"/>
<stop offset="1" stop-color="#B31E20"/>
</linearGradient>
<linearGradient id="paint9_linear_2122_4376" x1="-8.34573e-06" y1="-0.00415724" x2="14.606" y2="-11.5011" gradientUnits="userSpaceOnUse">
<stop stop-color="#D74446"/>
<stop offset="1" stop-color="#E165B8"/>
</linearGradient>
<linearGradient id="paint10_linear_2122_4376" x1="2.32031" y1="36.6188" x2="3.73321" y2="36.5744" gradientUnits="userSpaceOnUse">
<stop stop-color="#D74446"/>
<stop offset="1" stop-color="#D1369D"/>
</linearGradient>
<linearGradient id="paint11_linear_2122_4376" x1="27.5449" y1="52.5135" x2="34.14" y2="51.2721" gradientUnits="userSpaceOnUse">
<stop stop-color="#B31E20"/>
<stop offset="1" stop-color="#D74446"/>
</linearGradient>
<linearGradient id="paint12_linear_2122_4376" x1="59.0059" y1="36.6188" x2="60.4188" y2="36.5744" gradientUnits="userSpaceOnUse">
<stop stop-color="#E165B8"/>
<stop offset="1" stop-color="#D74446"/>
</linearGradient>
<clipPath id="clip0_2122_4376">
<rect width="63" height="39.5638" fill="white" transform="translate(0 18.4604)"/>
</clipPath>
<clipPath id="clip1_2122_4376">
<rect width="35.8992" height="35.8992" rx="4.44179" transform="matrix(0.866025 0.5 -0.866025 0.5 31.9102 19)" fill="white"/>
</clipPath>
<clipPath id="clip2_2122_4376">
<rect width="36.3731" height="36.3731" rx="4.50041" transform="matrix(0.866025 0.5 -0.866025 0.5 31.5 18.4607)" fill="white"/>
</clipPath>
</defs>
</svg>
