<svg width="64" height="64" viewBox="0 0 64 64" fill="none" xmlns="http://www.w3.org/2000/svg">
<g clip-path="url(#clip0_2287_9247)">
<rect width="35.8551" height="35.8551" rx="4.37833" transform="matrix(0.866025 0.5 -0.866025 0.5 31.8887 19)" fill="url(#paint0_linear_2287_9247)"/>
<rect width="26.8913" height="4.48189" transform="matrix(0.866025 0.5 0 1 4.71875 39.1685)" fill="url(#paint1_linear_2287_9247)"/>
<rect width="26.8913" height="4.48189" transform="matrix(0.866025 -0.5 0 1 35.7695 52.6143)" fill="url(#paint2_linear_2287_9247)"/>
<path d="M3.11133 36.9275C3.11133 37.8026 3.72572 38.5949 4.71907 39.1684V43.6503C3.72572 43.0768 3.11133 42.2845 3.11133 41.4094V36.9275Z" fill="url(#paint3_linear_2287_9247)"/>
<path d="M28.0059 52.6143C30.1495 53.8519 33.6251 53.8519 35.7687 52.6143V57.0961C33.6251 58.3338 30.1495 58.3338 28.0059 57.0961V52.6143Z" fill="url(#paint4_linear_2287_9247)"/>
<path d="M60.6663 36.9275C60.6663 37.8026 60.0519 38.5949 59.0586 39.1684V43.6503C60.0519 43.0768 60.6663 42.2845 60.6663 41.4094V36.9275Z" fill="url(#paint5_linear_2287_9247)"/>
<g clip-path="url(#clip1_2287_9247)">
<rect width="35.8992" height="35.8992" rx="4.44179" transform="matrix(0.866025 0.5 -0.866025 0.5 31.9102 19)" fill="url(#paint6_linear_2287_9247)"/>
<rect width="11.5594" height="11.5594" transform="matrix(0.866025 0.5 -0.866025 0.5 31.9102 19)" fill="black" fill-opacity="0.1"/>
<rect width="11.5594" height="11.5594" transform="matrix(0.866025 0.5 -0.866025 0.5 21.3711 25.085)" fill="black" fill-opacity="0.1"/>
<rect width="11.5594" height="11.5594" transform="matrix(0.866025 0.5 -0.866025 0.5 21.3711 37.2549)" fill="black" fill-opacity="0.1"/>
<rect width="11.5594" height="11.5594" transform="matrix(0.866025 0.5 -0.866025 0.5 42.4492 25.085)" fill="black" fill-opacity="0.1"/>
<rect width="11.5594" height="11.5594" transform="matrix(0.866025 0.5 -0.866025 0.5 42.4492 37.2549)" fill="black" fill-opacity="0.1"/>
<rect width="11.5594" height="11.5594" transform="matrix(0.866025 0.5 -0.866025 0.5 52.9883 31.1699)" fill="black" fill-opacity="0.1"/>
<rect width="11.5594" height="11.5594" transform="matrix(0.866025 0.5 -0.866025 0.5 10.832 31.1699)" fill="black" fill-opacity="0.1"/>
<rect width="11.5594" height="11.5594" transform="matrix(0.866025 0.5 -0.866025 0.5 31.9102 43.3398)" fill="black" fill-opacity="0.1"/>
<rect width="11.5594" height="11.5594" transform="matrix(0.866025 0.5 -0.866025 0.5 31.9102 31.1699)" fill="black" fill-opacity="0.1"/>
</g>
<rect width="36.3283" height="36.3283" rx="4.43612" transform="matrix(0.866025 0.5 -0.866025 0.5 31.4785 18.4607)" fill="url(#paint7_linear_2287_9247)"/>
<rect width="27.2462" height="4.54104" transform="matrix(0.866025 0.5 0 1 3.94922 38.8958)" fill="url(#paint8_linear_2287_9247)"/>
<rect width="27.2462" height="4.54104" transform="matrix(0.866025 -0.5 0 1 35.4102 52.5186)" fill="url(#paint9_linear_2287_9247)"/>
<path d="M2.32031 36.625C2.32031 37.5117 2.94282 38.3144 3.94927 38.8955V43.4366C2.94282 42.8555 2.32031 42.0527 2.32031 41.166V36.625Z" fill="url(#paint10_linear_2287_9247)"/>
<path d="M27.5449 52.5186C29.7169 53.7725 33.2383 53.7725 35.4102 52.5186V57.0596C33.2383 58.3136 29.7169 58.3136 27.5449 57.0596V52.5186Z" fill="url(#paint11_linear_2287_9247)"/>
<path d="M60.6348 36.625C60.6348 37.5117 60.0123 38.3144 59.0059 38.8955V43.4366C60.0123 42.8555 60.6348 42.0527 60.6348 41.166V36.625Z" fill="url(#paint12_linear_2287_9247)"/>
<g clip-path="url(#clip2_2287_9247)">
<rect width="11.712" height="11.712" transform="matrix(0.866025 0.5 -0.866025 0.5 31.5 18.4607)" fill="white" fill-opacity="0.2"/>
<rect width="11.712" height="11.712" transform="matrix(0.866025 0.5 -0.866025 0.5 20.8223 24.626)" fill="white" fill-opacity="0.2"/>
<rect width="11.712" height="11.712" transform="matrix(0.866025 0.5 -0.866025 0.5 20.8223 36.9565)" fill="white" fill-opacity="0.2"/>
<rect width="11.712" height="11.712" transform="matrix(0.866025 0.5 -0.866025 0.5 42.1777 24.626)" fill="white" fill-opacity="0.2"/>
<rect width="11.712" height="11.712" transform="matrix(0.866025 0.5 -0.866025 0.5 42.1777 36.9565)" fill="white" fill-opacity="0.2"/>
<rect width="11.712" height="11.712" transform="matrix(0.866025 0.5 -0.866025 0.5 52.8574 30.7913)" fill="white" fill-opacity="0.2"/>
<rect width="11.712" height="11.712" transform="matrix(0.866025 0.5 -0.866025 0.5 10.1426 30.7913)" fill="white" fill-opacity="0.2"/>
<rect width="11.712" height="11.712" transform="matrix(0.866025 0.5 -0.866025 0.5 31.5 43.1221)" fill="white" fill-opacity="0.2"/>
<rect width="11.712" height="11.712" transform="matrix(0.866025 0.5 -0.866025 0.5 31.5 30.7913)" fill="white" fill-opacity="0.2"/>
</g>
</g>
<mask id="path-33-outside-1_2287_9247" maskUnits="userSpaceOnUse" x="10.3535" y="22.5" width="14" height="19" fill="black">
<rect fill="white" x="10.3535" y="22.5" width="14" height="19"/>
<path d="M12.5407 40.5L19.4928 26.7433V26.6287H11.3943V23.7299H23.1612V26.6696L16.201 40.5H12.5407Z"/>
</mask>
<path d="M12.5407 40.5L19.4928 26.7433V26.6287H11.3943V23.7299H23.1612V26.6696L16.201 40.5H12.5407Z" fill="white"/>
<path d="M12.5407 40.5L11.8057 40.1286L11.2018 41.3235H12.5407V40.5ZM19.4928 26.7433L20.2278 27.1148L20.3163 26.9396V26.7433H19.4928ZM19.4928 26.6287H20.3163V25.8051H19.4928V26.6287ZM11.3943 26.6287H10.5708V27.4522H11.3943V26.6287ZM11.3943 23.7299V22.9064H10.5708V23.7299H11.3943ZM23.1612 23.7299H23.9847V22.9064H23.1612V23.7299ZM23.1612 26.6696L23.8968 27.0398L23.9847 26.8652V26.6696H23.1612ZM16.201 40.5V41.3235H16.7085L16.9366 40.8702L16.201 40.5ZM12.5407 40.5L13.2757 40.8714L20.2278 27.1148L19.4928 26.7433L18.7578 26.3719L11.8057 40.1286L12.5407 40.5ZM19.4928 26.7433H20.3163V26.6287H19.4928H18.6692V26.7433H19.4928ZM19.4928 26.6287V25.8051H11.3943V26.6287V27.4522H19.4928V26.6287ZM11.3943 26.6287H12.2179V23.7299H11.3943H10.5708V26.6287H11.3943ZM11.3943 23.7299V24.5535H23.1612V23.7299V22.9064H11.3943V23.7299ZM23.1612 23.7299H22.3377V26.6696H23.1612H23.9847V23.7299H23.1612ZM23.1612 26.6696L22.4256 26.2994L15.4654 40.1298L16.201 40.5L16.9366 40.8702L23.8968 27.0398L23.1612 26.6696ZM16.201 40.5V39.6765H12.5407V40.5V41.3235H16.201V40.5Z" fill="#2B3F46" mask="url(#path-33-outside-1_2287_9247)"/>
<mask id="path-35-outside-2_2287_9247" maskUnits="userSpaceOnUse" x="26.3535" y="28" width="12" height="11" fill="black">
<rect fill="white" x="26.3535" y="28" width="12" height="11"/>
<path d="M30.7484 29.2727L32.3507 32.3239L33.9927 29.2727H36.4757L33.9473 33.6364L36.5439 38H34.0723L32.3507 34.983L30.6575 38H28.1575L30.7484 33.6364L28.2484 29.2727H30.7484Z"/>
</mask>
<path d="M30.7484 29.2727L32.3507 32.3239L33.9927 29.2727H36.4757L33.9473 33.6364L36.5439 38H34.0723L32.3507 34.983L30.6575 38H28.1575L30.7484 33.6364L28.2484 29.2727H30.7484Z" fill="white"/>
<path d="M30.7484 29.2727L31.4775 28.8898L31.2461 28.4492H30.7484V29.2727ZM32.3507 32.3239L31.6216 32.7067L32.3418 34.0782L33.0759 32.7141L32.3507 32.3239ZM33.9927 29.2727V28.4492H33.5007L33.2675 28.8825L33.9927 29.2727ZM36.4757 29.2727L37.1882 29.6856L37.9046 28.4492H36.4757V29.2727ZM33.9473 33.6364L33.2347 33.2235L32.9923 33.6419L33.2396 34.0575L33.9473 33.6364ZM36.5439 38V38.8235H37.9922L37.2516 37.5789L36.5439 38ZM34.0723 38L33.357 38.4081L33.594 38.8235H34.0723V38ZM32.3507 34.983L33.0659 34.5748L32.3447 33.3109L31.6325 34.5799L32.3507 34.983ZM30.6575 38V38.8235H31.1397L31.3757 38.403L30.6575 38ZM28.1575 38L27.4494 37.5796L26.7108 38.8235H28.1575V38ZM30.7484 33.6364L31.4565 34.0568L31.7018 33.6438L31.463 33.227L30.7484 33.6364ZM28.2484 29.2727V28.4492H26.8275L27.5338 29.6821L28.2484 29.2727ZM30.7484 29.2727L30.0193 29.6556L31.6216 32.7067L32.3507 32.3239L33.0798 31.941L31.4775 28.8898L30.7484 29.2727ZM32.3507 32.3239L33.0759 32.7141L34.7179 29.663L33.9927 29.2727L33.2675 28.8825L31.6255 31.9336L32.3507 32.3239ZM33.9927 29.2727V30.0963H36.4757V29.2727V28.4492H33.9927V29.2727ZM36.4757 29.2727L35.7631 28.8599L33.2347 33.2235L33.9473 33.6364L34.6598 34.0492L37.1882 29.6856L36.4757 29.2727ZM33.9473 33.6364L33.2396 34.0575L35.8361 38.4211L36.5439 38L37.2516 37.5789L34.655 33.2152L33.9473 33.6364ZM36.5439 38V37.1765H34.0723V38V38.8235H36.5439V38ZM34.0723 38L34.7875 37.5919L33.0659 34.5748L32.3507 34.983L31.6354 35.3911L33.357 38.4081L34.0723 38ZM32.3507 34.983L31.6325 34.5799L29.9393 37.597L30.6575 38L31.3757 38.403L33.0688 35.386L32.3507 34.983ZM30.6575 38V37.1765H28.1575V38V38.8235H30.6575V38ZM28.1575 38L28.8656 38.4204L31.4565 34.0568L30.7484 33.6364L30.0403 33.2159L27.4494 37.5796L28.1575 38ZM30.7484 33.6364L31.463 33.227L28.963 28.8633L28.2484 29.2727L27.5338 29.6821L30.0338 34.0457L30.7484 33.6364ZM28.2484 29.2727V30.0963H30.7484V29.2727V28.4492H28.2484V29.2727Z" fill="#2B3F46" mask="url(#path-35-outside-2_2287_9247)"/>
<mask id="path-37-outside-3_2287_9247" maskUnits="userSpaceOnUse" x="40.3535" y="22.5" width="14" height="19" fill="black">
<rect fill="white" x="40.3535" y="22.5" width="14" height="19"/>
<path d="M41.4517 40.5V37.9452L47.4211 32.4179C47.9288 31.9266 48.3546 31.4845 48.6985 31.0914C49.0479 30.6984 49.3126 30.3135 49.4928 29.9368C49.6729 29.5547 49.763 29.1425 49.763 28.7004C49.763 28.2091 49.6511 27.786 49.4273 27.4311C49.2034 27.0709 48.8977 26.7952 48.5101 26.6041C48.1226 26.4076 47.6831 26.3093 47.1918 26.3093C46.6786 26.3093 46.231 26.413 45.8489 26.6205C45.4667 26.8279 45.172 27.1254 44.9645 27.513C44.7571 27.9006 44.6534 28.3619 44.6534 28.8969H41.2879C41.2879 27.7996 41.5363 26.847 42.033 26.0391C42.5298 25.2312 43.2258 24.6061 44.1211 24.1639C45.0164 23.7218 46.0481 23.5007 47.2164 23.5007C48.4173 23.5007 49.4627 23.7136 50.3526 24.1394C51.2478 24.5597 51.9439 25.1438 52.4406 25.8917C52.9374 26.6396 53.1858 27.4967 53.1858 28.4629C53.1858 29.0961 53.0602 29.7212 52.8091 30.3381C52.5635 30.9549 52.124 31.64 51.4908 32.3934C50.8575 33.1413 49.965 34.0393 48.8131 35.0874L46.3648 37.4866V37.6013H53.4069V40.5H41.4517Z"/>
</mask>
<path d="M41.4517 40.5V37.9452L47.4211 32.4179C47.9288 31.9266 48.3546 31.4845 48.6985 31.0914C49.0479 30.6984 49.3126 30.3135 49.4928 29.9368C49.6729 29.5547 49.763 29.1425 49.763 28.7004C49.763 28.2091 49.6511 27.786 49.4273 27.4311C49.2034 27.0709 48.8977 26.7952 48.5101 26.6041C48.1226 26.4076 47.6831 26.3093 47.1918 26.3093C46.6786 26.3093 46.231 26.413 45.8489 26.6205C45.4667 26.8279 45.172 27.1254 44.9645 27.513C44.7571 27.9006 44.6534 28.3619 44.6534 28.8969H41.2879C41.2879 27.7996 41.5363 26.847 42.033 26.0391C42.5298 25.2312 43.2258 24.6061 44.1211 24.1639C45.0164 23.7218 46.0481 23.5007 47.2164 23.5007C48.4173 23.5007 49.4627 23.7136 50.3526 24.1394C51.2478 24.5597 51.9439 25.1438 52.4406 25.8917C52.9374 26.6396 53.1858 27.4967 53.1858 28.4629C53.1858 29.0961 53.0602 29.7212 52.8091 30.3381C52.5635 30.9549 52.124 31.64 51.4908 32.3934C50.8575 33.1413 49.965 34.0393 48.8131 35.0874L46.3648 37.4866V37.6013H53.4069V40.5H41.4517Z" fill="white"/>
<path d="M41.4517 40.5H40.6281V41.3235H41.4517V40.5ZM41.4517 37.9452L40.8921 37.3409L40.6281 37.5854V37.9452H41.4517ZM47.4211 32.4179L47.9806 33.0222L47.9872 33.0161L47.9938 33.0097L47.4211 32.4179ZM48.6985 31.0914L48.0829 30.5443L48.0787 30.5491L48.6985 31.0914ZM49.4928 29.9368L50.2357 30.2922L50.2377 30.288L49.4928 29.9368ZM49.4273 27.4311L48.7277 27.8657L48.7307 27.8705L49.4273 27.4311ZM48.5101 26.6041L48.1377 27.3387L48.146 27.3428L48.5101 26.6041ZM45.8489 26.6205L45.456 25.8967L45.456 25.8967L45.8489 26.6205ZM44.6534 28.8969V29.7204H45.4769V28.8969H44.6534ZM41.2879 28.8969H40.4644V29.7204H41.2879V28.8969ZM44.1211 24.1639L43.7564 23.4256L43.7564 23.4256L44.1211 24.1639ZM50.3526 24.1394L49.9971 24.8822L50.0026 24.8848L50.3526 24.1394ZM52.4406 25.8917L53.1266 25.4361L53.1266 25.4361L52.4406 25.8917ZM52.8091 30.3381L52.0463 30.0276L52.044 30.0334L52.8091 30.3381ZM51.4908 32.3934L52.1193 32.9255L52.1212 32.9233L51.4908 32.3934ZM48.8131 35.0874L48.2589 34.4783L48.2476 34.4885L48.2367 34.4992L48.8131 35.0874ZM46.3648 37.4866L45.7884 36.8984L45.5412 37.1406V37.4866H46.3648ZM46.3648 37.6013H45.5412V38.4248H46.3648V37.6013ZM53.4069 37.6013H54.2304V36.7777H53.4069V37.6013ZM53.4069 40.5V41.3235H54.2304V40.5H53.4069ZM41.4517 40.5H42.2752V37.9452H41.4517H40.6281V40.5H41.4517ZM41.4517 37.9452L42.0112 38.5495L47.9806 33.0222L47.4211 32.4179L46.8616 31.8137L40.8921 37.3409L41.4517 37.9452ZM47.4211 32.4179L47.9938 33.0097C48.5125 32.5077 48.9552 32.0487 49.3182 31.6337L48.6985 31.0914L48.0787 30.5491C47.754 30.9203 47.345 31.3456 46.8484 31.8262L47.4211 32.4179ZM48.6985 31.0914L49.314 31.6385C49.702 31.202 50.015 30.7537 50.2357 30.2921L49.4928 29.9368L48.7498 29.5815C48.6103 29.8733 48.3937 30.1947 48.083 30.5443L48.6985 31.0914ZM49.4928 29.9368L50.2377 30.288C50.472 29.7909 50.5865 29.2582 50.5865 28.7004H49.763H48.9395C48.9395 29.0269 48.8738 29.3185 48.7479 29.5857L49.4928 29.9368ZM49.763 28.7004H50.5865C50.5865 28.0806 50.4439 27.4993 50.1238 26.9918L49.4273 27.4311L48.7307 27.8705C48.8582 28.0727 48.9395 28.3375 48.9395 28.7004H49.763ZM49.4273 27.4311L50.1268 26.9966C49.8202 26.503 49.3971 26.1232 48.8743 25.8655L48.5101 26.6041L48.146 27.3428C48.3983 27.4671 48.5867 27.6387 48.7277 27.8657L49.4273 27.4311ZM48.5101 26.6041L48.8826 25.8696C48.3653 25.6073 47.7955 25.4858 47.1918 25.4858V26.3093V27.1329C47.5707 27.1329 47.8798 27.2079 48.1377 27.3386L48.5101 26.6041ZM47.1918 26.3093V25.4858C46.5662 25.4858 45.9787 25.6129 45.456 25.8967L45.8489 26.6205L46.2418 27.3442C46.4833 27.2132 46.7911 27.1329 47.1918 27.1329V26.3093ZM45.8489 26.6205L45.456 25.8967C44.9308 26.1818 44.5209 26.5966 44.2384 27.1244L44.9645 27.513L45.6906 27.9016C45.823 27.6543 46.0027 27.474 46.2418 27.3442L45.8489 26.6205ZM44.9645 27.513L44.2384 27.1244C43.9546 27.6548 43.8298 28.2555 43.8298 28.8969H44.6534H45.4769C45.4769 28.4684 45.5596 28.1464 45.6906 27.9016L44.9645 27.513ZM44.6534 28.8969V28.0734H41.2879V28.8969V29.7204H44.6534V28.8969ZM41.2879 28.8969H42.1114C42.1114 27.9276 42.3294 27.1294 42.7346 26.4704L42.033 26.0391L41.3315 25.6078C40.7431 26.5647 40.4644 27.6717 40.4644 28.8969H41.2879ZM42.033 26.0391L42.7346 26.4704C43.1458 25.8016 43.7218 25.2797 44.4858 24.9023L44.1211 24.1639L43.7564 23.4256C42.7299 23.9326 41.9138 24.6607 41.3315 25.6078L42.033 26.0391ZM44.1211 24.1639L44.4858 24.9023C45.2499 24.5249 46.1532 24.3242 47.2164 24.3242V23.5007V22.6771C45.9431 22.6771 44.7829 22.9186 43.7564 23.4256L44.1211 24.1639ZM47.2164 23.5007V24.3242C48.3206 24.3242 49.2397 24.5198 49.9971 24.8822L50.3526 24.1394L50.708 23.3965C49.6857 22.9073 48.5141 22.6771 47.2164 22.6771V23.5007ZM50.3526 24.1394L50.0026 24.8848C50.7757 25.2478 51.3496 25.7375 51.7546 26.3474L52.4406 25.8917L53.1266 25.4361C52.5381 24.5501 51.7199 23.8716 50.7026 23.3939L50.3526 24.1394ZM52.4406 25.8917L51.7546 26.3474C52.1548 26.9498 52.3622 27.6458 52.3622 28.4629H53.1858H54.0093C54.0093 27.3475 53.72 26.3294 53.1266 25.4361L52.4406 25.8917ZM53.1858 28.4629H52.3622C52.3622 28.9842 52.2594 29.5041 52.0464 30.0276L52.8091 30.3381L53.5719 30.6486C53.861 29.9383 54.0093 29.2081 54.0093 28.4629H53.1858ZM52.8091 30.3381L52.044 30.0334C51.8426 30.5392 51.4616 31.1483 50.8604 31.8635L51.4908 32.3934L52.1212 32.9233C52.7864 32.1318 53.2843 31.3706 53.5742 30.6428L52.8091 30.3381ZM51.4908 32.3934L50.8623 31.8612C50.2614 32.5709 49.3977 33.442 48.2589 34.4783L48.8131 35.0874L49.3674 35.6965C50.5322 34.6366 51.4536 33.7117 52.1193 32.9255L51.4908 32.3934ZM48.8131 35.0874L48.2367 34.4992L45.7884 36.8984L46.3648 37.4866L46.9411 38.0748L49.3895 35.6756L48.8131 35.0874ZM46.3648 37.4866H45.5412V37.6013H46.3648H47.1883V37.4866H46.3648ZM46.3648 37.6013V38.4248H53.4069V37.6013V36.7777H46.3648V37.6013ZM53.4069 37.6013H52.5833V40.5H53.4069H54.2304V37.6013H53.4069ZM53.4069 40.5V39.6765H41.4517V40.5V41.3235H53.4069V40.5Z" fill="#2B3F46" mask="url(#path-37-outside-3_2287_9247)"/>
<defs>
<linearGradient id="paint0_linear_2287_9247" x1="35.8411" y1="35.864" x2="-1.88188" y2="2.08424" gradientUnits="userSpaceOnUse">
<stop stop-color="#FFD5EF"/>
<stop offset="1" stop-color="#EFBDFD"/>
</linearGradient>
<linearGradient id="paint1_linear_2287_9247" x1="26.8809" y1="4.483" x2="25.174" y2="-4.68761" gradientUnits="userSpaceOnUse">
<stop stop-color="#F95457"/>
<stop offset="1" stop-color="#FDBDCB"/>
</linearGradient>
<linearGradient id="paint2_linear_2287_9247" x1="26.8809" y1="4.483" x2="25.174" y2="-4.68761" gradientUnits="userSpaceOnUse">
<stop stop-color="#F95457"/>
<stop offset="1" stop-color="#FDBDCB"/>
</linearGradient>
<linearGradient id="paint3_linear_2287_9247" x1="4.71844" y1="43.652" x2="1.80424" y2="43.0279" gradientUnits="userSpaceOnUse">
<stop stop-color="#F95457"/>
<stop offset="1" stop-color="#FDBDCB"/>
</linearGradient>
<linearGradient id="paint4_linear_2287_9247" x1="35.7657" y1="58.0257" x2="30.2143" y2="50.8928" gradientUnits="userSpaceOnUse">
<stop stop-color="#F95457"/>
<stop offset="1" stop-color="#FDBDCB"/>
</linearGradient>
<linearGradient id="paint5_linear_2287_9247" x1="60.6657" y1="43.652" x2="57.7515" y2="43.0279" gradientUnits="userSpaceOnUse">
<stop stop-color="#F95457"/>
<stop offset="1" stop-color="#FDBDCB"/>
</linearGradient>
<linearGradient id="paint6_linear_2287_9247" x1="-1.09962e-05" y1="-0.0328651" x2="30.641" y2="-4.05264" gradientUnits="userSpaceOnUse">
<stop stop-color="#D74446"/>
<stop offset="1" stop-color="#E165B8"/>
</linearGradient>
<linearGradient id="paint7_linear_2287_9247" x1="-1.11276e-05" y1="-0.033258" x2="31.0073" y2="-4.10108" gradientUnits="userSpaceOnUse">
<stop stop-color="#D74446"/>
<stop offset="1" stop-color="#E165B8"/>
</linearGradient>
<linearGradient id="paint8_linear_2287_9247" x1="-8.34573e-06" y1="-0.00415724" x2="14.606" y2="-11.5011" gradientUnits="userSpaceOnUse">
<stop stop-color="#D1369D"/>
<stop offset="1" stop-color="#B31E20"/>
</linearGradient>
<linearGradient id="paint9_linear_2287_9247" x1="-8.34573e-06" y1="-0.00415724" x2="14.606" y2="-11.5011" gradientUnits="userSpaceOnUse">
<stop stop-color="#D74446"/>
<stop offset="1" stop-color="#E165B8"/>
</linearGradient>
<linearGradient id="paint10_linear_2287_9247" x1="2.32031" y1="36.6188" x2="3.73321" y2="36.5744" gradientUnits="userSpaceOnUse">
<stop stop-color="#D74446"/>
<stop offset="1" stop-color="#D1369D"/>
</linearGradient>
<linearGradient id="paint11_linear_2287_9247" x1="27.5449" y1="52.5135" x2="34.14" y2="51.2721" gradientUnits="userSpaceOnUse">
<stop stop-color="#B31E20"/>
<stop offset="1" stop-color="#D74446"/>
</linearGradient>
<linearGradient id="paint12_linear_2287_9247" x1="59.0059" y1="36.6188" x2="60.4188" y2="36.5744" gradientUnits="userSpaceOnUse">
<stop stop-color="#E165B8"/>
<stop offset="1" stop-color="#D74446"/>
</linearGradient>
<clipPath id="clip0_2287_9247">
<rect width="63" height="39.5638" fill="white" transform="translate(0 18.4604)"/>
</clipPath>
<clipPath id="clip1_2287_9247">
<rect width="35.8992" height="35.8992" rx="4.44179" transform="matrix(0.866025 0.5 -0.866025 0.5 31.9102 19)" fill="white"/>
</clipPath>
<clipPath id="clip2_2287_9247">
<rect width="36.3731" height="36.3731" rx="4.50041" transform="matrix(0.866025 0.5 -0.866025 0.5 31.5 18.4607)" fill="white"/>
</clipPath>
</defs>
</svg>
