<svg width="64" height="64" viewBox="0 0 64 64" fill="none" xmlns="http://www.w3.org/2000/svg">
<g clip-path="url(#clip0_2287_9254)">
<rect width="35.8551" height="35.8551" rx="4.37833" transform="matrix(0.866025 0.5 -0.866025 0.5 31.8887 19)" fill="url(#paint0_linear_2287_9254)"/>
<rect width="26.8913" height="4.48189" transform="matrix(0.866025 0.5 0 1 4.71875 39.1685)" fill="url(#paint1_linear_2287_9254)"/>
<rect width="26.8913" height="4.48189" transform="matrix(0.866025 -0.5 0 1 35.7695 52.6141)" fill="url(#paint2_linear_2287_9254)"/>
<path d="M3.11133 36.9275C3.11133 37.8026 3.72572 38.5949 4.71907 39.1684V43.6503C3.72572 43.0768 3.11133 42.2845 3.11133 41.4094V36.9275Z" fill="url(#paint3_linear_2287_9254)"/>
<path d="M28.0059 52.6141C30.1495 53.8518 33.6251 53.8518 35.7687 52.6141V57.096C33.6251 58.3337 30.1495 58.3337 28.0059 57.096V52.6141Z" fill="url(#paint4_linear_2287_9254)"/>
<path d="M60.6663 36.9275C60.6663 37.8026 60.0519 38.5949 59.0586 39.1684V43.6503C60.0519 43.0768 60.6663 42.2845 60.6663 41.4094V36.9275Z" fill="url(#paint5_linear_2287_9254)"/>
<g clip-path="url(#clip1_2287_9254)">
<rect width="35.8992" height="35.8992" rx="4.44179" transform="matrix(0.866025 0.5 -0.866025 0.5 31.9102 19)" fill="url(#paint6_linear_2287_9254)"/>
<rect width="11.5594" height="11.5594" transform="matrix(0.866025 0.5 -0.866025 0.5 31.9102 19)" fill="black" fill-opacity="0.1"/>
<rect width="11.5594" height="11.5594" transform="matrix(0.866025 0.5 -0.866025 0.5 21.3711 25.085)" fill="black" fill-opacity="0.1"/>
<rect width="11.5594" height="11.5594" transform="matrix(0.866025 0.5 -0.866025 0.5 21.3711 37.2549)" fill="black" fill-opacity="0.1"/>
<rect width="11.5594" height="11.5594" transform="matrix(0.866025 0.5 -0.866025 0.5 42.4492 25.085)" fill="black" fill-opacity="0.1"/>
<rect width="11.5594" height="11.5594" transform="matrix(0.866025 0.5 -0.866025 0.5 42.4492 37.2549)" fill="black" fill-opacity="0.1"/>
<rect width="11.5594" height="11.5594" transform="matrix(0.866025 0.5 -0.866025 0.5 52.9883 31.1699)" fill="black" fill-opacity="0.1"/>
<rect width="11.5594" height="11.5594" transform="matrix(0.866025 0.5 -0.866025 0.5 10.832 31.1699)" fill="black" fill-opacity="0.1"/>
<rect width="11.5594" height="11.5594" transform="matrix(0.866025 0.5 -0.866025 0.5 31.9102 43.3398)" fill="black" fill-opacity="0.1"/>
<rect width="11.5594" height="11.5594" transform="matrix(0.866025 0.5 -0.866025 0.5 31.9102 31.1699)" fill="black" fill-opacity="0.1"/>
</g>
<rect width="36.3283" height="36.3283" rx="4.43612" transform="matrix(0.866025 0.5 -0.866025 0.5 31.4785 18.4607)" fill="url(#paint7_linear_2287_9254)"/>
<rect width="27.2462" height="4.54104" transform="matrix(0.866025 0.5 0 1 3.94922 38.8956)" fill="url(#paint8_linear_2287_9254)"/>
<rect width="27.2462" height="4.54104" transform="matrix(0.866025 -0.5 0 1 35.4102 52.5186)" fill="url(#paint9_linear_2287_9254)"/>
<path d="M2.32031 36.625C2.32031 37.5117 2.94282 38.3144 3.94927 38.8955V43.4366C2.94282 42.8555 2.32031 42.0527 2.32031 41.166V36.625Z" fill="url(#paint10_linear_2287_9254)"/>
<path d="M27.5449 52.5186C29.7169 53.7725 33.2383 53.7725 35.4102 52.5186V57.0596C33.2383 58.3136 29.7169 58.3136 27.5449 57.0596V52.5186Z" fill="url(#paint11_linear_2287_9254)"/>
<path d="M60.6348 36.625C60.6348 37.5117 60.0123 38.3144 59.0059 38.8955V43.4366C60.0123 42.8555 60.6348 42.0527 60.6348 41.166V36.625Z" fill="url(#paint12_linear_2287_9254)"/>
<g clip-path="url(#clip2_2287_9254)">
<rect width="11.712" height="11.712" transform="matrix(0.866025 0.5 -0.866025 0.5 31.5 18.4607)" fill="white" fill-opacity="0.2"/>
<rect width="11.712" height="11.712" transform="matrix(0.866025 0.5 -0.866025 0.5 20.8223 24.626)" fill="white" fill-opacity="0.2"/>
<rect width="11.712" height="11.712" transform="matrix(0.866025 0.5 -0.866025 0.5 20.8223 36.9565)" fill="white" fill-opacity="0.2"/>
<rect width="11.712" height="11.712" transform="matrix(0.866025 0.5 -0.866025 0.5 42.1777 24.626)" fill="white" fill-opacity="0.2"/>
<rect width="11.712" height="11.712" transform="matrix(0.866025 0.5 -0.866025 0.5 42.1777 36.9565)" fill="white" fill-opacity="0.2"/>
<rect width="11.712" height="11.712" transform="matrix(0.866025 0.5 -0.866025 0.5 52.8574 30.7913)" fill="white" fill-opacity="0.2"/>
<rect width="11.712" height="11.712" transform="matrix(0.866025 0.5 -0.866025 0.5 10.1426 30.7913)" fill="white" fill-opacity="0.2"/>
<rect width="11.712" height="11.712" transform="matrix(0.866025 0.5 -0.866025 0.5 31.5 43.1219)" fill="white" fill-opacity="0.2"/>
<rect width="11.712" height="11.712" transform="matrix(0.866025 0.5 -0.866025 0.5 31.5 30.7913)" fill="white" fill-opacity="0.2"/>
</g>
</g>
<mask id="path-33-outside-1_2287_9254" maskUnits="userSpaceOnUse" x="9.35352" y="22.5" width="16" height="20" fill="black">
<rect fill="white" x="9.35352" y="22.5" width="16" height="20"/>
<path d="M17.3556 40.7293C16.0945 40.7293 14.9727 40.5246 13.9901 40.1151C13.0129 39.7003 12.2459 39.1352 11.6891 38.4201C11.1323 37.705 10.8539 36.8943 10.8539 35.9881C10.8539 35.2894 11.0122 34.6479 11.3288 34.0638C11.6509 33.4743 12.0876 32.9857 12.639 32.5981C13.1903 32.205 13.8072 31.9539 14.4896 31.8448V31.7301C13.5943 31.55 12.8683 31.116 12.3114 30.4281C11.7546 29.7348 11.4762 28.9296 11.4762 28.0125C11.4762 27.1446 11.7301 26.3721 12.2377 25.6952C12.7454 25.0128 13.4415 24.4778 14.3258 24.0902C15.2156 23.6972 16.2255 23.5007 17.3556 23.5007C18.4856 23.5007 19.4928 23.6972 20.3771 24.0902C21.2669 24.4833 21.9657 25.021 22.4734 25.7034C22.9811 26.3803 23.2376 27.15 23.2431 28.0125C23.2376 28.9351 22.9538 29.7403 22.3915 30.4281C21.8292 31.116 21.1086 31.55 20.2297 31.7301V31.8448C20.9012 31.9539 21.5099 32.205 22.0558 32.5981C22.6071 32.9857 23.0438 33.4743 23.3659 34.0638C23.6935 34.6479 23.86 35.2894 23.8654 35.9881C23.86 36.8943 23.5788 37.705 23.022 38.4201C22.4652 39.1352 21.6955 39.7003 20.7128 40.1151C19.7357 40.5246 18.6166 40.7293 17.3556 40.7293ZM17.3556 38.1253C17.9178 38.1253 18.4092 38.0243 18.8295 37.8224C19.2498 37.6149 19.5774 37.331 19.8121 36.9708C20.0523 36.605 20.1724 36.1847 20.1724 35.7097C20.1724 35.2239 20.0496 34.7953 19.8039 34.4241C19.5583 34.0475 19.2253 33.7527 18.8049 33.5398C18.3846 33.3214 17.9015 33.2122 17.3556 33.2122C16.8151 33.2122 16.332 33.3214 15.9062 33.5398C15.4804 33.7527 15.1447 34.0475 14.899 34.4241C14.6588 34.7953 14.5387 35.2239 14.5387 35.7097C14.5387 36.1847 14.6561 36.605 14.8908 36.9708C15.1256 37.331 15.4558 37.6149 15.8816 37.8224C16.3074 38.0243 16.7987 38.1253 17.3556 38.1253ZM17.3556 30.6329C17.825 30.6329 18.2427 30.5373 18.6084 30.3463C18.9742 30.1552 19.2608 29.8904 19.4682 29.552C19.6756 29.2135 19.7794 28.8232 19.7794 28.381C19.7794 27.9443 19.6756 27.5622 19.4682 27.2346C19.2608 26.9016 18.9769 26.6423 18.6166 26.4567C18.2563 26.2657 17.836 26.1701 17.3556 26.1701C16.8806 26.1701 16.4603 26.2657 16.0945 26.4567C15.7288 26.6423 15.4422 26.9016 15.2347 27.2346C15.0328 27.5622 14.9318 27.9443 14.9318 28.381C14.9318 28.8232 15.0355 29.2135 15.2429 29.552C15.4504 29.8904 15.737 30.1552 16.1027 30.3463C16.4685 30.5373 16.8861 30.6329 17.3556 30.6329Z"/>
</mask>
<path d="M17.3556 40.7293C16.0945 40.7293 14.9727 40.5246 13.9901 40.1151C13.0129 39.7003 12.2459 39.1352 11.6891 38.4201C11.1323 37.705 10.8539 36.8943 10.8539 35.9881C10.8539 35.2894 11.0122 34.6479 11.3288 34.0638C11.6509 33.4743 12.0876 32.9857 12.639 32.5981C13.1903 32.205 13.8072 31.9539 14.4896 31.8448V31.7301C13.5943 31.55 12.8683 31.116 12.3114 30.4281C11.7546 29.7348 11.4762 28.9296 11.4762 28.0125C11.4762 27.1446 11.7301 26.3721 12.2377 25.6952C12.7454 25.0128 13.4415 24.4778 14.3258 24.0902C15.2156 23.6972 16.2255 23.5007 17.3556 23.5007C18.4856 23.5007 19.4928 23.6972 20.3771 24.0902C21.2669 24.4833 21.9657 25.021 22.4734 25.7034C22.9811 26.3803 23.2376 27.15 23.2431 28.0125C23.2376 28.9351 22.9538 29.7403 22.3915 30.4281C21.8292 31.116 21.1086 31.55 20.2297 31.7301V31.8448C20.9012 31.9539 21.5099 32.205 22.0558 32.5981C22.6071 32.9857 23.0438 33.4743 23.3659 34.0638C23.6935 34.6479 23.86 35.2894 23.8654 35.9881C23.86 36.8943 23.5788 37.705 23.022 38.4201C22.4652 39.1352 21.6955 39.7003 20.7128 40.1151C19.7357 40.5246 18.6166 40.7293 17.3556 40.7293ZM17.3556 38.1253C17.9178 38.1253 18.4092 38.0243 18.8295 37.8224C19.2498 37.6149 19.5774 37.331 19.8121 36.9708C20.0523 36.605 20.1724 36.1847 20.1724 35.7097C20.1724 35.2239 20.0496 34.7953 19.8039 34.4241C19.5583 34.0475 19.2253 33.7527 18.8049 33.5398C18.3846 33.3214 17.9015 33.2122 17.3556 33.2122C16.8151 33.2122 16.332 33.3214 15.9062 33.5398C15.4804 33.7527 15.1447 34.0475 14.899 34.4241C14.6588 34.7953 14.5387 35.2239 14.5387 35.7097C14.5387 36.1847 14.6561 36.605 14.8908 36.9708C15.1256 37.331 15.4558 37.6149 15.8816 37.8224C16.3074 38.0243 16.7987 38.1253 17.3556 38.1253ZM17.3556 30.6329C17.825 30.6329 18.2427 30.5373 18.6084 30.3463C18.9742 30.1552 19.2608 29.8904 19.4682 29.552C19.6756 29.2135 19.7794 28.8232 19.7794 28.381C19.7794 27.9443 19.6756 27.5622 19.4682 27.2346C19.2608 26.9016 18.9769 26.6423 18.6166 26.4567C18.2563 26.2657 17.836 26.1701 17.3556 26.1701C16.8806 26.1701 16.4603 26.2657 16.0945 26.4567C15.7288 26.6423 15.4422 26.9016 15.2347 27.2346C15.0328 27.5622 14.9318 27.9443 14.9318 28.381C14.9318 28.8232 15.0355 29.2135 15.2429 29.552C15.4504 29.8904 15.737 30.1552 16.1027 30.3463C16.4685 30.5373 16.8861 30.6329 17.3556 30.6329Z" fill="white"/>
<path d="M13.9901 40.1151L13.6682 40.8732L13.6733 40.8753L13.9901 40.1151ZM11.6891 38.4201L12.3389 37.9142L12.3389 37.9142L11.6891 38.4201ZM11.3288 34.0638L10.6061 33.669L10.6048 33.6714L11.3288 34.0638ZM12.639 32.5981L13.1126 33.2718L13.117 33.2687L12.639 32.5981ZM14.4896 31.8448L14.6197 32.6579L15.3131 32.547V31.8448H14.4896ZM14.4896 31.7301H15.3131V31.0558L14.652 30.9228L14.4896 31.7301ZM12.3114 30.4281L11.6694 30.9438L11.6714 30.9463L12.3114 30.4281ZM12.2377 25.6952L12.8966 26.1893L12.8985 26.1868L12.2377 25.6952ZM14.3258 24.0902L14.6564 24.8445L14.6586 24.8436L14.3258 24.0902ZM20.3771 24.0902L20.0427 24.8428L20.0444 24.8436L20.3771 24.0902ZM22.4734 25.7034L21.8127 26.195L21.8146 26.1975L22.4734 25.7034ZM23.2431 28.0125L24.0667 28.0174L24.0666 28.0073L23.2431 28.0125ZM20.2297 31.7301L20.0644 30.9234L19.4062 31.0583V31.7301H20.2297ZM20.2297 31.8448H19.4062V32.5452L20.0976 32.6576L20.2297 31.8448ZM22.0558 32.5981L21.5745 33.2665L21.5822 33.2718L22.0558 32.5981ZM23.3659 34.0638L22.6432 34.4587L22.6476 34.4666L23.3659 34.0638ZM23.8654 35.9881L24.689 35.9931L24.6889 35.9817L23.8654 35.9881ZM23.022 38.4201L23.6718 38.9261L23.6718 38.9261L23.022 38.4201ZM20.7128 40.1151L21.0311 40.8747L21.0332 40.8738L20.7128 40.1151ZM18.8295 37.8224L19.1862 38.5647L19.1939 38.5609L18.8295 37.8224ZM19.8121 36.9708L19.1237 36.5187L19.1221 36.5212L19.8121 36.9708ZM19.8039 34.4241L19.1141 34.874L19.1172 34.8786L19.8039 34.4241ZM18.8049 33.5398L18.4253 34.2706L18.4328 34.2744L18.8049 33.5398ZM15.9062 33.5398L16.2745 34.2764L16.282 34.2726L15.9062 33.5398ZM14.899 34.4241L14.2092 33.9743L14.2076 33.9767L14.899 34.4241ZM14.8908 36.9708L14.1977 37.4156L14.2008 37.4203L14.8908 36.9708ZM15.8816 37.8224L15.5209 38.5627L15.5287 38.5664L15.8816 37.8224ZM18.6084 30.3463L18.2271 29.6163L18.2271 29.6163L18.6084 30.3463ZM19.4682 29.552L20.1703 29.9823L20.1703 29.9823L19.4682 29.552ZM19.4682 27.2346L18.7692 27.6701L18.7725 27.6753L19.4682 27.2346ZM18.6166 26.4567L18.2307 27.1843L18.2395 27.1888L18.6166 26.4567ZM16.0945 26.4567L16.4672 27.1912L16.4758 27.1867L16.0945 26.4567ZM15.2347 27.2346L14.5357 26.7992L14.5338 26.8024L15.2347 27.2346ZM15.2429 29.552L14.5408 29.9823L14.5408 29.9823L15.2429 29.552ZM16.1027 30.3463L16.484 29.6163L16.484 29.6163L16.1027 30.3463ZM17.3556 40.7293V39.9057C16.1835 39.9057 15.1724 39.7156 14.3068 39.355L13.9901 40.1151L13.6733 40.8753C14.7731 41.3335 16.0055 41.5528 17.3556 41.5528V40.7293ZM13.9901 40.1151L14.3119 39.3571C13.4415 38.9876 12.7959 38.5012 12.3389 37.9142L11.6891 38.4201L11.0393 38.9261C11.6959 39.7693 12.5843 40.413 13.6682 40.8732L13.9901 40.1151ZM11.6891 38.4201L12.3389 37.9142C11.8947 37.3436 11.6774 36.711 11.6774 35.9881H10.8539H10.0304C10.0304 37.0776 10.3699 38.0663 11.0393 38.9261L11.6891 38.4201ZM10.8539 35.9881H11.6774C11.6774 35.4191 11.8049 34.9136 12.0528 34.4563L11.3288 34.0638L10.6048 33.6714C10.2195 34.3823 10.0304 35.1597 10.0304 35.9881H10.8539ZM11.3288 34.0638L12.0515 34.4587C12.3129 33.9803 12.6642 33.587 13.1126 33.2718L12.639 32.5981L12.1654 31.9244C11.511 32.3844 10.9889 32.9682 10.6061 33.669L11.3288 34.0638ZM12.639 32.5981L13.117 33.2687C13.5628 32.9509 14.0601 32.7475 14.6197 32.6579L14.4896 31.8448L14.3595 31.0316C13.5544 31.1604 12.8179 31.4592 12.1609 31.9275L12.639 32.5981ZM14.4896 31.8448H15.3131V31.7301H14.4896H13.6661V31.8448H14.4896ZM14.4896 31.7301L14.652 30.9228C13.9383 30.7791 13.3835 30.4436 12.9515 29.91L12.3114 30.4281L11.6714 30.9463C12.353 31.7883 13.2504 32.3208 14.3271 32.5375L14.4896 31.7301ZM12.3114 30.4281L12.9535 29.9125C12.5181 29.3703 12.2997 28.7485 12.2997 28.0125H11.4762H10.6527C10.6527 29.1108 10.9912 30.0994 11.6694 30.9438L12.3114 30.4281ZM11.4762 28.0125H12.2997C12.2997 27.3178 12.4987 26.7198 12.8966 26.1893L12.2377 25.6952L11.5789 25.2011C10.9614 26.0244 10.6527 26.9713 10.6527 28.0125H11.4762ZM12.2377 25.6952L12.8985 26.1868C13.3098 25.6339 13.885 25.1826 14.6564 24.8445L14.3258 24.0902L13.9952 23.336C12.9979 23.7731 12.1811 24.3917 11.577 25.2036L12.2377 25.6952ZM14.3258 24.0902L14.6586 24.8436C15.428 24.5037 16.3218 24.3242 17.3556 24.3242V23.5007V22.6771C16.1293 22.6771 15.0033 22.8907 13.9931 23.3369L14.3258 24.0902ZM17.3556 23.5007V24.3242C18.3895 24.3242 19.2798 24.5037 20.0427 24.8428L20.3771 24.0902L20.7116 23.3377C19.7058 22.8907 18.5817 22.6771 17.3556 22.6771V23.5007ZM20.3771 24.0902L20.0444 24.8436C20.8231 25.1875 21.4014 25.6422 21.8127 26.195L22.4734 25.7034L23.1341 25.2118C22.53 24.3998 21.7108 23.7791 20.7099 23.3369L20.3771 24.0902ZM22.4734 25.7034L21.8146 26.1975C22.2142 26.7304 22.4152 27.3279 22.4196 28.0177L23.2431 28.0125L24.0666 28.0073C24.0601 26.9721 23.7479 26.0302 23.1322 25.2093L22.4734 25.7034ZM23.2431 28.0125L22.4196 28.0077C22.4152 28.7498 22.1921 29.3708 21.7539 29.9069L22.3915 30.4281L23.0291 30.9494C23.7154 30.1098 24.0601 29.1204 24.0666 28.0174L23.2431 28.0125ZM22.3915 30.4281L21.7539 29.9069C21.3128 30.4465 20.7597 30.7808 20.0644 30.9234L20.2297 31.7301L20.3951 32.5369C21.4576 32.3191 22.3456 31.7854 23.0291 30.9494L22.3915 30.4281ZM20.2297 31.7301H19.4062V31.8448H20.2297H21.0533V31.7301H20.2297ZM20.2297 31.8448L20.0976 32.6576C20.6445 32.7465 21.1334 32.9488 21.5746 33.2664L22.0558 32.5981L22.537 31.9298C21.8863 31.4613 21.1578 31.1613 20.3619 31.0319L20.2297 31.8448ZM22.0558 32.5981L21.5822 33.2718C22.0305 33.587 22.3819 33.9803 22.6432 34.4587L23.3659 34.0638L24.0886 33.669C23.7058 32.9682 23.1837 32.3844 22.5294 31.9244L22.0558 32.5981ZM23.3659 34.0638L22.6476 34.4666C22.9042 34.9243 23.0375 35.4284 23.0419 35.9946L23.8654 35.9881L24.6889 35.9817C24.6824 35.1503 24.4827 34.3716 24.0842 33.661L23.3659 34.0638ZM23.8654 35.9881L23.0419 35.9832C23.0375 36.7078 22.8175 37.3423 22.3722 37.9142L23.022 38.4201L23.6718 38.9261C24.3402 38.0677 24.6824 37.0809 24.6889 35.9931L23.8654 35.9881ZM23.022 38.4201L22.3722 37.9142C21.916 38.5001 21.2686 38.9866 20.3925 39.3565L20.7128 40.1151L21.0332 40.8738C22.1224 40.4139 23.0144 39.7704 23.6718 38.9261L23.022 38.4201ZM20.7128 40.1151L20.3946 39.3556C19.5355 39.7156 18.5277 39.9057 17.3556 39.9057V40.7293V41.5528C18.7055 41.5528 19.9359 41.3336 21.0311 40.8747L20.7128 40.1151ZM17.3556 38.1253V38.9489C18.0163 38.9489 18.634 38.83 19.1862 38.5646L18.8295 37.8224L18.4728 37.0801C18.1843 37.2187 17.8194 37.3018 17.3556 37.3018V38.1253ZM18.8295 37.8224L19.1939 38.5609C19.7344 38.2941 20.1796 37.9154 20.5021 37.4203L19.8121 36.9708L19.1221 36.5212C18.9752 36.7467 18.7652 36.9357 18.465 37.0839L18.8295 37.8224ZM19.8121 36.9708L20.5005 37.4228C20.8364 36.9113 20.9959 36.331 20.9959 35.7097H20.1724H19.3489C19.3489 36.0383 19.2682 36.2987 19.1238 36.5187L19.8121 36.9708ZM20.1724 35.7097H20.9959C20.9959 35.0777 20.8337 34.488 20.4907 33.9697L19.8039 34.4241L19.1172 34.8786C19.2655 35.1027 19.3489 35.3701 19.3489 35.7097H20.1724ZM19.8039 34.4241L20.4937 33.9743C20.1652 33.4705 19.72 33.0801 19.177 32.8051L18.8049 33.5398L18.4328 34.2744C18.7305 34.4252 18.9514 34.6244 19.1141 34.874L19.8039 34.4241ZM18.8049 33.5398L19.1846 32.809C18.6302 32.521 18.0134 32.3887 17.3556 32.3887V33.2122V34.0358C17.7896 34.0358 18.139 34.1218 18.4253 34.2706L18.8049 33.5398ZM17.3556 33.2122V32.3887C16.7015 32.3887 16.0868 32.5217 15.5304 32.807L15.9062 33.5398L16.282 34.2726C16.5772 34.1212 16.9287 34.0358 17.3556 34.0358V33.2122ZM15.9062 33.5398L15.5379 32.8032C14.9894 33.0775 14.5394 33.4679 14.2092 33.9743L14.899 34.4241L15.5888 34.874C15.7499 34.627 15.9714 34.4279 16.2745 34.2764L15.9062 33.5398ZM14.899 34.4241L14.2076 33.9767C13.8727 34.4943 13.7152 35.0814 13.7152 35.7097H14.5387H15.3622C15.3622 35.3663 15.4449 35.0964 15.5904 34.8715L14.899 34.4241ZM14.5387 35.7097H13.7152C13.7152 36.3271 13.87 36.9048 14.1978 37.4156L14.8908 36.9708L15.5839 36.5259C15.4422 36.3052 15.3622 36.0422 15.3622 35.7097H14.5387ZM14.8908 36.9708L14.2008 37.4203C14.5251 37.918 14.9751 38.2968 15.521 38.5627L15.8816 37.8224L16.2423 37.082C15.9366 36.9331 15.726 36.7441 15.5808 36.5212L14.8908 36.9708ZM15.8816 37.8224L15.5287 38.5664C16.083 38.8294 16.6986 38.9489 17.3556 38.9489V38.1253V37.3018C16.8989 37.3018 16.5318 37.2193 16.2346 37.0783L15.8816 37.8224ZM17.3556 30.6329V31.4564C17.9394 31.4564 18.4909 31.3367 18.9897 31.0762L18.6084 30.3463L18.2271 29.6163C17.9944 29.7379 17.7107 29.8093 17.3556 29.8093V30.6329ZM18.6084 30.3463L18.9897 31.0762C19.4821 30.819 19.8819 30.453 20.1703 29.9823L19.4682 29.552L18.7661 29.1216C18.6396 29.3279 18.4662 29.4914 18.2271 29.6163L18.6084 30.3463ZM19.4682 29.552L20.1703 29.9823C20.466 29.5 20.6029 28.9573 20.6029 28.381H19.7794H18.9558C18.9558 28.6891 18.8853 28.9271 18.7661 29.1216L19.4682 29.552ZM19.7794 28.381H20.6029C20.6029 27.8086 20.4651 27.2695 20.1639 26.794L19.4682 27.2346L18.7725 27.6753C18.8862 27.8548 18.9558 28.08 18.9558 28.381H19.7794ZM19.4682 27.2346L20.1672 26.7992C19.8785 26.3358 19.4815 25.9759 18.9937 25.7246L18.6166 26.4567L18.2395 27.1888C18.4722 27.3087 18.643 27.4675 18.7692 27.6701L19.4682 27.2346ZM18.6166 26.4567L19.0024 25.7292C18.5038 25.4647 17.9465 25.3466 17.3556 25.3466V26.1701V26.9936C17.7254 26.9936 18.0088 27.0666 18.2308 27.1843L18.6166 26.4567ZM17.3556 26.1701V25.3466C16.768 25.3466 16.2133 25.4655 15.7132 25.7268L16.0945 26.4567L16.4758 27.1867C16.7072 27.0658 16.9933 26.9936 17.3556 26.9936V26.1701ZM16.0945 26.4567L15.7219 25.7223C15.2285 25.9727 14.8263 26.3327 14.5357 26.7992L15.2347 27.2346L15.9337 27.6701C16.058 27.4705 16.2291 27.3119 16.4672 27.1911L16.0945 26.4567ZM15.2347 27.2346L14.5338 26.8024C14.2413 27.2767 14.1082 27.8127 14.1082 28.381H14.9318H15.7553C15.7553 28.0759 15.8242 27.8476 15.9357 27.6669L15.2347 27.2346ZM14.9318 28.381H14.1082C14.1082 28.9573 14.2452 29.5 14.5408 29.9823L15.2429 29.552L15.9451 29.1216C15.8258 28.9271 15.7553 28.6891 15.7553 28.381H14.9318ZM15.2429 29.552L14.5408 29.9823C14.8293 30.453 15.229 30.819 15.7214 31.0762L16.1027 30.3463L16.484 29.6163C16.2449 29.4914 16.0715 29.3279 15.9451 29.1216L15.2429 29.552ZM16.1027 30.3463L15.7214 31.0762C16.2202 31.3367 16.7717 31.4564 17.3556 31.4564V30.6329V29.8093C17.0004 29.8093 16.7168 29.7379 16.484 29.6163L16.1027 30.3463Z" fill="#2B3F46" mask="url(#path-33-outside-1_2287_9254)"/>
<mask id="path-35-outside-2_2287_9254" maskUnits="userSpaceOnUse" x="26.3535" y="28" width="12" height="11" fill="black">
<rect fill="white" x="26.3535" y="28" width="12" height="11"/>
<path d="M30.7484 29.2727L32.3507 32.3239L33.9927 29.2727H36.4757L33.9473 33.6364L36.5439 38H34.0723L32.3507 34.983L30.6575 38H28.1575L30.7484 33.6364L28.2484 29.2727H30.7484Z"/>
</mask>
<path d="M30.7484 29.2727L32.3507 32.3239L33.9927 29.2727H36.4757L33.9473 33.6364L36.5439 38H34.0723L32.3507 34.983L30.6575 38H28.1575L30.7484 33.6364L28.2484 29.2727H30.7484Z" fill="white"/>
<path d="M30.7484 29.2727L31.4775 28.8898L31.2461 28.4492H30.7484V29.2727ZM32.3507 32.3239L31.6216 32.7067L32.3418 34.0782L33.0759 32.7141L32.3507 32.3239ZM33.9927 29.2727V28.4492H33.5007L33.2675 28.8825L33.9927 29.2727ZM36.4757 29.2727L37.1882 29.6856L37.9046 28.4492H36.4757V29.2727ZM33.9473 33.6364L33.2347 33.2235L32.9923 33.6419L33.2396 34.0575L33.9473 33.6364ZM36.5439 38V38.8235H37.9922L37.2516 37.5789L36.5439 38ZM34.0723 38L33.357 38.4081L33.594 38.8235H34.0723V38ZM32.3507 34.983L33.0659 34.5748L32.3447 33.3109L31.6325 34.5799L32.3507 34.983ZM30.6575 38V38.8235H31.1397L31.3757 38.403L30.6575 38ZM28.1575 38L27.4494 37.5796L26.7108 38.8235H28.1575V38ZM30.7484 33.6364L31.4565 34.0568L31.7018 33.6438L31.463 33.227L30.7484 33.6364ZM28.2484 29.2727V28.4492H26.8275L27.5338 29.6821L28.2484 29.2727ZM30.7484 29.2727L30.0193 29.6556L31.6216 32.7067L32.3507 32.3239L33.0798 31.941L31.4775 28.8898L30.7484 29.2727ZM32.3507 32.3239L33.0759 32.7141L34.7179 29.663L33.9927 29.2727L33.2675 28.8825L31.6255 31.9336L32.3507 32.3239ZM33.9927 29.2727V30.0963H36.4757V29.2727V28.4492H33.9927V29.2727ZM36.4757 29.2727L35.7631 28.8599L33.2347 33.2235L33.9473 33.6364L34.6598 34.0492L37.1882 29.6856L36.4757 29.2727ZM33.9473 33.6364L33.2396 34.0575L35.8361 38.4211L36.5439 38L37.2516 37.5789L34.655 33.2152L33.9473 33.6364ZM36.5439 38V37.1765H34.0723V38V38.8235H36.5439V38ZM34.0723 38L34.7875 37.5919L33.0659 34.5748L32.3507 34.983L31.6354 35.3911L33.357 38.4081L34.0723 38ZM32.3507 34.983L31.6325 34.5799L29.9393 37.597L30.6575 38L31.3757 38.403L33.0688 35.386L32.3507 34.983ZM30.6575 38V37.1765H28.1575V38V38.8235H30.6575V38ZM28.1575 38L28.8656 38.4204L31.4565 34.0568L30.7484 33.6364L30.0403 33.2159L27.4494 37.5796L28.1575 38ZM30.7484 33.6364L31.463 33.227L28.963 28.8633L28.2484 29.2727L27.5338 29.6821L30.0338 34.0457L30.7484 33.6364ZM28.2484 29.2727V30.0963H30.7484V29.2727V28.4492H28.2484V29.2727Z" fill="#2B3F46" mask="url(#path-35-outside-2_2287_9254)"/>
<mask id="path-37-outside-3_2287_9254" maskUnits="userSpaceOnUse" x="39.3535" y="22.5" width="16" height="19" fill="black">
<rect fill="white" x="39.3535" y="22.5" width="16" height="19"/>
<path d="M40.6226 37.5521V34.7599L47.6237 23.7299H50.0312V27.5949H48.6064L44.1928 34.5797V34.7107H54.1418V37.5521H40.6226ZM48.6719 40.5V36.7005L48.7374 35.4641V23.7299H52.0619V40.5H48.6719Z"/>
</mask>
<path d="M40.6226 37.5521V34.7599L47.6237 23.7299H50.0312V27.5949H48.6064L44.1928 34.5797V34.7107H54.1418V37.5521H40.6226ZM48.6719 40.5V36.7005L48.7374 35.4641V23.7299H52.0619V40.5H48.6719Z" fill="white"/>
<path d="M40.6226 37.5521H39.799V38.3757H40.6226V37.5521ZM40.6226 34.7599L39.9273 34.3185L39.799 34.5206V34.7599H40.6226ZM47.6237 23.7299V22.9064H47.171L46.9284 23.2886L47.6237 23.7299ZM50.0312 23.7299H50.8547V22.9064H50.0312V23.7299ZM50.0312 27.5949V28.4184H50.8547V27.5949H50.0312ZM48.6064 27.5949V26.7714H48.1526L47.9102 27.155L48.6064 27.5949ZM44.1928 34.5797L43.4966 34.1398L43.3692 34.3413V34.5797H44.1928ZM44.1928 34.7107H43.3692V35.5343H44.1928V34.7107ZM54.1418 34.7107H54.9653V33.8872H54.1418V34.7107ZM54.1418 37.5521V38.3757H54.9653V37.5521H54.1418ZM48.6719 40.5H47.8483V41.3235H48.6719V40.5ZM48.6719 36.7005L47.8495 36.657L47.8483 36.6787V36.7005H48.6719ZM48.7374 35.4641L49.5597 35.5076L49.5609 35.4859V35.4641H48.7374ZM48.7374 23.7299V22.9064H47.9138V23.7299H48.7374ZM52.0619 23.7299H52.8854V22.9064H52.0619V23.7299ZM52.0619 40.5V41.3235H52.8854V40.5H52.0619ZM40.6226 37.5521H41.4461V34.7599H40.6226H39.799V37.5521H40.6226ZM40.6226 34.7599L41.3179 35.2012L48.319 24.1713L47.6237 23.7299L46.9284 23.2886L39.9273 34.3185L40.6226 34.7599ZM47.6237 23.7299V24.5535H50.0312V23.7299V22.9064H47.6237V23.7299ZM50.0312 23.7299H49.2076V27.5949H50.0312H50.8547V23.7299H50.0312ZM50.0312 27.5949V26.7714H48.6064V27.5949V28.4184H50.0312V27.5949ZM48.6064 27.5949L47.9102 27.155L43.4966 34.1398L44.1928 34.5797L44.8889 35.0196L49.3025 28.0348L48.6064 27.5949ZM44.1928 34.5797H43.3692V34.7107H44.1928H45.0163V34.5797H44.1928ZM44.1928 34.7107V35.5343H54.1418V34.7107V33.8872H44.1928V34.7107ZM54.1418 34.7107H53.3183V37.5521H54.1418H54.9653V34.7107H54.1418ZM54.1418 37.5521V36.7286H40.6226V37.5521V38.3757H54.1418V37.5521ZM48.6719 40.5H49.4954V36.7005H48.6719H47.8483V40.5H48.6719ZM48.6719 36.7005L49.4942 36.7441L49.5597 35.5076L48.7374 35.4641L47.915 35.4205L47.8495 36.657L48.6719 36.7005ZM48.7374 35.4641H49.5609V23.7299H48.7374H47.9138V35.4641H48.7374ZM48.7374 23.7299V24.5535H52.0619V23.7299V22.9064H48.7374V23.7299ZM52.0619 23.7299H51.2384V40.5H52.0619H52.8854V23.7299H52.0619ZM52.0619 40.5V39.6765H48.6719V40.5V41.3235H52.0619V40.5Z" fill="#2B3F46" mask="url(#path-37-outside-3_2287_9254)"/>
<defs>
<linearGradient id="paint0_linear_2287_9254" x1="35.8411" y1="35.864" x2="-1.88188" y2="2.08424" gradientUnits="userSpaceOnUse">
<stop stop-color="#FFD5EF"/>
<stop offset="1" stop-color="#EFBDFD"/>
</linearGradient>
<linearGradient id="paint1_linear_2287_9254" x1="26.8809" y1="4.483" x2="25.174" y2="-4.68761" gradientUnits="userSpaceOnUse">
<stop stop-color="#F95457"/>
<stop offset="1" stop-color="#FDBDCB"/>
</linearGradient>
<linearGradient id="paint2_linear_2287_9254" x1="26.8809" y1="4.483" x2="25.174" y2="-4.68761" gradientUnits="userSpaceOnUse">
<stop stop-color="#F95457"/>
<stop offset="1" stop-color="#FDBDCB"/>
</linearGradient>
<linearGradient id="paint3_linear_2287_9254" x1="4.71844" y1="43.652" x2="1.80424" y2="43.0279" gradientUnits="userSpaceOnUse">
<stop stop-color="#F95457"/>
<stop offset="1" stop-color="#FDBDCB"/>
</linearGradient>
<linearGradient id="paint4_linear_2287_9254" x1="35.7657" y1="58.0256" x2="30.2143" y2="50.8927" gradientUnits="userSpaceOnUse">
<stop stop-color="#F95457"/>
<stop offset="1" stop-color="#FDBDCB"/>
</linearGradient>
<linearGradient id="paint5_linear_2287_9254" x1="60.6657" y1="43.652" x2="57.7515" y2="43.0279" gradientUnits="userSpaceOnUse">
<stop stop-color="#F95457"/>
<stop offset="1" stop-color="#FDBDCB"/>
</linearGradient>
<linearGradient id="paint6_linear_2287_9254" x1="-1.09962e-05" y1="-0.0328651" x2="30.641" y2="-4.05264" gradientUnits="userSpaceOnUse">
<stop stop-color="#D74446"/>
<stop offset="1" stop-color="#E165B8"/>
</linearGradient>
<linearGradient id="paint7_linear_2287_9254" x1="-1.11276e-05" y1="-0.033258" x2="31.0073" y2="-4.10108" gradientUnits="userSpaceOnUse">
<stop stop-color="#D74446"/>
<stop offset="1" stop-color="#E165B8"/>
</linearGradient>
<linearGradient id="paint8_linear_2287_9254" x1="-8.34573e-06" y1="-0.00415724" x2="14.606" y2="-11.5011" gradientUnits="userSpaceOnUse">
<stop stop-color="#D1369D"/>
<stop offset="1" stop-color="#B31E20"/>
</linearGradient>
<linearGradient id="paint9_linear_2287_9254" x1="-8.34573e-06" y1="-0.00415724" x2="14.606" y2="-11.5011" gradientUnits="userSpaceOnUse">
<stop stop-color="#D74446"/>
<stop offset="1" stop-color="#E165B8"/>
</linearGradient>
<linearGradient id="paint10_linear_2287_9254" x1="2.32031" y1="36.6188" x2="3.73321" y2="36.5744" gradientUnits="userSpaceOnUse">
<stop stop-color="#D74446"/>
<stop offset="1" stop-color="#D1369D"/>
</linearGradient>
<linearGradient id="paint11_linear_2287_9254" x1="27.5449" y1="52.5135" x2="34.14" y2="51.2721" gradientUnits="userSpaceOnUse">
<stop stop-color="#B31E20"/>
<stop offset="1" stop-color="#D74446"/>
</linearGradient>
<linearGradient id="paint12_linear_2287_9254" x1="59.0059" y1="36.6188" x2="60.4188" y2="36.5744" gradientUnits="userSpaceOnUse">
<stop stop-color="#E165B8"/>
<stop offset="1" stop-color="#D74446"/>
</linearGradient>
<clipPath id="clip0_2287_9254">
<rect width="63" height="39.5638" fill="white" transform="translate(0 18.4604)"/>
</clipPath>
<clipPath id="clip1_2287_9254">
<rect width="35.8992" height="35.8992" rx="4.44179" transform="matrix(0.866025 0.5 -0.866025 0.5 31.9102 19)" fill="white"/>
</clipPath>
<clipPath id="clip2_2287_9254">
<rect width="36.3731" height="36.3731" rx="4.50041" transform="matrix(0.866025 0.5 -0.866025 0.5 31.5 18.4607)" fill="white"/>
</clipPath>
</defs>
</svg>
