<svg width="64" height="64" viewBox="0 0 64 64" fill="none" xmlns="http://www.w3.org/2000/svg">
<g clip-path="url(#clip0_2287_9256)">
<rect width="35.8551" height="35.8551" rx="4.37833" transform="matrix(0.866025 0.5 -0.866025 0.5 31.8887 19)" fill="url(#paint0_linear_2287_9256)"/>
<rect width="26.8913" height="4.48189" transform="matrix(0.866025 0.5 0 1 4.71875 39.1685)" fill="url(#paint1_linear_2287_9256)"/>
<rect width="26.8913" height="4.48189" transform="matrix(0.866025 -0.5 0 1 35.7695 52.6141)" fill="url(#paint2_linear_2287_9256)"/>
<path d="M3.11133 36.9275C3.11133 37.8026 3.72572 38.5949 4.71907 39.1684V43.6503C3.72572 43.0768 3.11133 42.2845 3.11133 41.4094V36.9275Z" fill="url(#paint3_linear_2287_9256)"/>
<path d="M28.0059 52.6141C30.1495 53.8518 33.6251 53.8518 35.7687 52.6141V57.096C33.6251 58.3337 30.1495 58.3337 28.0059 57.096V52.6141Z" fill="url(#paint4_linear_2287_9256)"/>
<path d="M60.6663 36.9275C60.6663 37.8026 60.0519 38.5949 59.0586 39.1684V43.6503C60.0519 43.0768 60.6663 42.2845 60.6663 41.4094V36.9275Z" fill="url(#paint5_linear_2287_9256)"/>
<g clip-path="url(#clip1_2287_9256)">
<rect width="35.8992" height="35.8992" rx="4.44179" transform="matrix(0.866025 0.5 -0.866025 0.5 31.9102 19)" fill="url(#paint6_linear_2287_9256)"/>
<rect width="11.5594" height="11.5594" transform="matrix(0.866025 0.5 -0.866025 0.5 31.9102 19)" fill="black" fill-opacity="0.1"/>
<rect width="11.5594" height="11.5594" transform="matrix(0.866025 0.5 -0.866025 0.5 21.3711 25.085)" fill="black" fill-opacity="0.1"/>
<rect width="11.5594" height="11.5594" transform="matrix(0.866025 0.5 -0.866025 0.5 21.3711 37.2549)" fill="black" fill-opacity="0.1"/>
<rect width="11.5594" height="11.5594" transform="matrix(0.866025 0.5 -0.866025 0.5 42.4492 25.085)" fill="black" fill-opacity="0.1"/>
<rect width="11.5594" height="11.5594" transform="matrix(0.866025 0.5 -0.866025 0.5 42.4492 37.2549)" fill="black" fill-opacity="0.1"/>
<rect width="11.5594" height="11.5594" transform="matrix(0.866025 0.5 -0.866025 0.5 52.9883 31.1699)" fill="black" fill-opacity="0.1"/>
<rect width="11.5594" height="11.5594" transform="matrix(0.866025 0.5 -0.866025 0.5 10.832 31.1699)" fill="black" fill-opacity="0.1"/>
<rect width="11.5594" height="11.5594" transform="matrix(0.866025 0.5 -0.866025 0.5 31.9102 43.3398)" fill="black" fill-opacity="0.1"/>
<rect width="11.5594" height="11.5594" transform="matrix(0.866025 0.5 -0.866025 0.5 31.9102 31.1699)" fill="black" fill-opacity="0.1"/>
</g>
<rect width="36.3283" height="36.3283" rx="4.43612" transform="matrix(0.866025 0.5 -0.866025 0.5 31.4785 18.4607)" fill="url(#paint7_linear_2287_9256)"/>
<rect width="27.2462" height="4.54104" transform="matrix(0.866025 0.5 0 1 3.94922 38.8956)" fill="url(#paint8_linear_2287_9256)"/>
<rect width="27.2462" height="4.54104" transform="matrix(0.866025 -0.5 0 1 35.4102 52.5186)" fill="url(#paint9_linear_2287_9256)"/>
<path d="M2.32031 36.625C2.32031 37.5117 2.94282 38.3144 3.94927 38.8955V43.4366C2.94282 42.8555 2.32031 42.0527 2.32031 41.166V36.625Z" fill="url(#paint10_linear_2287_9256)"/>
<path d="M27.5449 52.5186C29.7169 53.7725 33.2383 53.7725 35.4102 52.5186V57.0596C33.2383 58.3136 29.7169 58.3136 27.5449 57.0596V52.5186Z" fill="url(#paint11_linear_2287_9256)"/>
<path d="M60.6348 36.625C60.6348 37.5117 60.0123 38.3144 59.0059 38.8955V43.4366C60.0123 42.8555 60.6348 42.0527 60.6348 41.166V36.625Z" fill="url(#paint12_linear_2287_9256)"/>
<g clip-path="url(#clip2_2287_9256)">
<rect width="11.712" height="11.712" transform="matrix(0.866025 0.5 -0.866025 0.5 31.5 18.4607)" fill="white" fill-opacity="0.2"/>
<rect width="11.712" height="11.712" transform="matrix(0.866025 0.5 -0.866025 0.5 20.8223 24.626)" fill="white" fill-opacity="0.2"/>
<rect width="11.712" height="11.712" transform="matrix(0.866025 0.5 -0.866025 0.5 20.8223 36.9565)" fill="white" fill-opacity="0.2"/>
<rect width="11.712" height="11.712" transform="matrix(0.866025 0.5 -0.866025 0.5 42.1777 24.626)" fill="white" fill-opacity="0.2"/>
<rect width="11.712" height="11.712" transform="matrix(0.866025 0.5 -0.866025 0.5 42.1777 36.9565)" fill="white" fill-opacity="0.2"/>
<rect width="11.712" height="11.712" transform="matrix(0.866025 0.5 -0.866025 0.5 52.8574 30.7913)" fill="white" fill-opacity="0.2"/>
<rect width="11.712" height="11.712" transform="matrix(0.866025 0.5 -0.866025 0.5 10.1426 30.7913)" fill="white" fill-opacity="0.2"/>
<rect width="11.712" height="11.712" transform="matrix(0.866025 0.5 -0.866025 0.5 31.5 43.1219)" fill="white" fill-opacity="0.2"/>
<rect width="11.712" height="11.712" transform="matrix(0.866025 0.5 -0.866025 0.5 31.5 30.7913)" fill="white" fill-opacity="0.2"/>
</g>
</g>
<mask id="path-33-outside-1_2287_9256" maskUnits="userSpaceOnUse" x="9.35352" y="22.5" width="16" height="20" fill="black">
<rect fill="white" x="9.35352" y="22.5" width="16" height="20"/>
<path d="M17.3556 40.7293C16.0945 40.7293 14.9727 40.5246 13.9901 40.1151C13.0129 39.7003 12.2459 39.1352 11.6891 38.4201C11.1323 37.705 10.8539 36.8943 10.8539 35.9881C10.8539 35.2894 11.0122 34.6479 11.3288 34.0638C11.6509 33.4743 12.0876 32.9857 12.639 32.5981C13.1903 32.205 13.8072 31.9539 14.4896 31.8448V31.7301C13.5943 31.55 12.8683 31.116 12.3114 30.4281C11.7546 29.7348 11.4762 28.9296 11.4762 28.0125C11.4762 27.1446 11.7301 26.3721 12.2377 25.6952C12.7454 25.0128 13.4415 24.4778 14.3258 24.0902C15.2156 23.6972 16.2255 23.5007 17.3556 23.5007C18.4856 23.5007 19.4928 23.6972 20.3771 24.0902C21.2669 24.4833 21.9657 25.021 22.4734 25.7034C22.9811 26.3803 23.2376 27.15 23.2431 28.0125C23.2376 28.9351 22.9538 29.7403 22.3915 30.4281C21.8292 31.116 21.1086 31.55 20.2297 31.7301V31.8448C20.9012 31.9539 21.5099 32.205 22.0558 32.5981C22.6071 32.9857 23.0438 33.4743 23.3659 34.0638C23.6935 34.6479 23.86 35.2894 23.8654 35.9881C23.86 36.8943 23.5788 37.705 23.022 38.4201C22.4652 39.1352 21.6955 39.7003 20.7128 40.1151C19.7357 40.5246 18.6166 40.7293 17.3556 40.7293ZM17.3556 38.1253C17.9178 38.1253 18.4092 38.0243 18.8295 37.8224C19.2498 37.6149 19.5774 37.331 19.8121 36.9708C20.0523 36.605 20.1724 36.1847 20.1724 35.7097C20.1724 35.2239 20.0496 34.7953 19.8039 34.4241C19.5583 34.0475 19.2253 33.7527 18.8049 33.5398C18.3846 33.3214 17.9015 33.2122 17.3556 33.2122C16.8151 33.2122 16.332 33.3214 15.9062 33.5398C15.4804 33.7527 15.1447 34.0475 14.899 34.4241C14.6588 34.7953 14.5387 35.2239 14.5387 35.7097C14.5387 36.1847 14.6561 36.605 14.8908 36.9708C15.1256 37.331 15.4558 37.6149 15.8816 37.8224C16.3074 38.0243 16.7987 38.1253 17.3556 38.1253ZM17.3556 30.6329C17.825 30.6329 18.2427 30.5373 18.6084 30.3463C18.9742 30.1552 19.2608 29.8904 19.4682 29.552C19.6756 29.2135 19.7794 28.8232 19.7794 28.381C19.7794 27.9443 19.6756 27.5622 19.4682 27.2346C19.2608 26.9016 18.9769 26.6423 18.6166 26.4567C18.2563 26.2657 17.836 26.1701 17.3556 26.1701C16.8806 26.1701 16.4603 26.2657 16.0945 26.4567C15.7288 26.6423 15.4422 26.9016 15.2347 27.2346C15.0328 27.5622 14.9318 27.9443 14.9318 28.381C14.9318 28.8232 15.0355 29.2135 15.2429 29.552C15.4504 29.8904 15.737 30.1552 16.1027 30.3463C16.4685 30.5373 16.8861 30.6329 17.3556 30.6329Z"/>
</mask>
<path d="M17.3556 40.7293C16.0945 40.7293 14.9727 40.5246 13.9901 40.1151C13.0129 39.7003 12.2459 39.1352 11.6891 38.4201C11.1323 37.705 10.8539 36.8943 10.8539 35.9881C10.8539 35.2894 11.0122 34.6479 11.3288 34.0638C11.6509 33.4743 12.0876 32.9857 12.639 32.5981C13.1903 32.205 13.8072 31.9539 14.4896 31.8448V31.7301C13.5943 31.55 12.8683 31.116 12.3114 30.4281C11.7546 29.7348 11.4762 28.9296 11.4762 28.0125C11.4762 27.1446 11.7301 26.3721 12.2377 25.6952C12.7454 25.0128 13.4415 24.4778 14.3258 24.0902C15.2156 23.6972 16.2255 23.5007 17.3556 23.5007C18.4856 23.5007 19.4928 23.6972 20.3771 24.0902C21.2669 24.4833 21.9657 25.021 22.4734 25.7034C22.9811 26.3803 23.2376 27.15 23.2431 28.0125C23.2376 28.9351 22.9538 29.7403 22.3915 30.4281C21.8292 31.116 21.1086 31.55 20.2297 31.7301V31.8448C20.9012 31.9539 21.5099 32.205 22.0558 32.5981C22.6071 32.9857 23.0438 33.4743 23.3659 34.0638C23.6935 34.6479 23.86 35.2894 23.8654 35.9881C23.86 36.8943 23.5788 37.705 23.022 38.4201C22.4652 39.1352 21.6955 39.7003 20.7128 40.1151C19.7357 40.5246 18.6166 40.7293 17.3556 40.7293ZM17.3556 38.1253C17.9178 38.1253 18.4092 38.0243 18.8295 37.8224C19.2498 37.6149 19.5774 37.331 19.8121 36.9708C20.0523 36.605 20.1724 36.1847 20.1724 35.7097C20.1724 35.2239 20.0496 34.7953 19.8039 34.4241C19.5583 34.0475 19.2253 33.7527 18.8049 33.5398C18.3846 33.3214 17.9015 33.2122 17.3556 33.2122C16.8151 33.2122 16.332 33.3214 15.9062 33.5398C15.4804 33.7527 15.1447 34.0475 14.899 34.4241C14.6588 34.7953 14.5387 35.2239 14.5387 35.7097C14.5387 36.1847 14.6561 36.605 14.8908 36.9708C15.1256 37.331 15.4558 37.6149 15.8816 37.8224C16.3074 38.0243 16.7987 38.1253 17.3556 38.1253ZM17.3556 30.6329C17.825 30.6329 18.2427 30.5373 18.6084 30.3463C18.9742 30.1552 19.2608 29.8904 19.4682 29.552C19.6756 29.2135 19.7794 28.8232 19.7794 28.381C19.7794 27.9443 19.6756 27.5622 19.4682 27.2346C19.2608 26.9016 18.9769 26.6423 18.6166 26.4567C18.2563 26.2657 17.836 26.1701 17.3556 26.1701C16.8806 26.1701 16.4603 26.2657 16.0945 26.4567C15.7288 26.6423 15.4422 26.9016 15.2347 27.2346C15.0328 27.5622 14.9318 27.9443 14.9318 28.381C14.9318 28.8232 15.0355 29.2135 15.2429 29.552C15.4504 29.8904 15.737 30.1552 16.1027 30.3463C16.4685 30.5373 16.8861 30.6329 17.3556 30.6329Z" fill="white"/>
<path d="M13.9901 40.1151L13.6682 40.8732L13.6733 40.8753L13.9901 40.1151ZM11.6891 38.4201L12.3389 37.9142L12.3389 37.9142L11.6891 38.4201ZM11.3288 34.0638L10.6061 33.669L10.6048 33.6714L11.3288 34.0638ZM12.639 32.5981L13.1126 33.2718L13.117 33.2687L12.639 32.5981ZM14.4896 31.8448L14.6197 32.6579L15.3131 32.547V31.8448H14.4896ZM14.4896 31.7301H15.3131V31.0558L14.652 30.9228L14.4896 31.7301ZM12.3114 30.4281L11.6694 30.9438L11.6714 30.9463L12.3114 30.4281ZM12.2377 25.6952L12.8966 26.1893L12.8985 26.1868L12.2377 25.6952ZM14.3258 24.0902L14.6564 24.8445L14.6586 24.8436L14.3258 24.0902ZM20.3771 24.0902L20.0427 24.8428L20.0444 24.8436L20.3771 24.0902ZM22.4734 25.7034L21.8127 26.195L21.8146 26.1975L22.4734 25.7034ZM23.2431 28.0125L24.0667 28.0174L24.0666 28.0073L23.2431 28.0125ZM20.2297 31.7301L20.0644 30.9234L19.4062 31.0583V31.7301H20.2297ZM20.2297 31.8448H19.4062V32.5452L20.0976 32.6576L20.2297 31.8448ZM22.0558 32.5981L21.5745 33.2665L21.5822 33.2718L22.0558 32.5981ZM23.3659 34.0638L22.6432 34.4587L22.6476 34.4666L23.3659 34.0638ZM23.8654 35.9881L24.689 35.9931L24.6889 35.9817L23.8654 35.9881ZM23.022 38.4201L23.6718 38.9261L23.6718 38.9261L23.022 38.4201ZM20.7128 40.1151L21.0311 40.8747L21.0332 40.8738L20.7128 40.1151ZM18.8295 37.8224L19.1862 38.5647L19.1939 38.5609L18.8295 37.8224ZM19.8121 36.9708L19.1237 36.5187L19.1221 36.5212L19.8121 36.9708ZM19.8039 34.4241L19.1141 34.874L19.1172 34.8786L19.8039 34.4241ZM18.8049 33.5398L18.4253 34.2706L18.4328 34.2744L18.8049 33.5398ZM15.9062 33.5398L16.2745 34.2764L16.282 34.2726L15.9062 33.5398ZM14.899 34.4241L14.2092 33.9743L14.2076 33.9767L14.899 34.4241ZM14.8908 36.9708L14.1977 37.4156L14.2008 37.4203L14.8908 36.9708ZM15.8816 37.8224L15.5209 38.5627L15.5287 38.5664L15.8816 37.8224ZM18.6084 30.3463L18.2271 29.6163L18.2271 29.6163L18.6084 30.3463ZM19.4682 29.552L20.1703 29.9823L20.1703 29.9823L19.4682 29.552ZM19.4682 27.2346L18.7692 27.6701L18.7725 27.6753L19.4682 27.2346ZM18.6166 26.4567L18.2307 27.1843L18.2395 27.1888L18.6166 26.4567ZM16.0945 26.4567L16.4672 27.1912L16.4758 27.1867L16.0945 26.4567ZM15.2347 27.2346L14.5357 26.7992L14.5338 26.8024L15.2347 27.2346ZM15.2429 29.552L14.5408 29.9823L14.5408 29.9823L15.2429 29.552ZM16.1027 30.3463L16.484 29.6163L16.484 29.6163L16.1027 30.3463ZM17.3556 40.7293V39.9057C16.1835 39.9057 15.1724 39.7156 14.3068 39.355L13.9901 40.1151L13.6733 40.8753C14.7731 41.3335 16.0055 41.5528 17.3556 41.5528V40.7293ZM13.9901 40.1151L14.3119 39.3571C13.4415 38.9876 12.7959 38.5012 12.3389 37.9142L11.6891 38.4201L11.0393 38.9261C11.6959 39.7693 12.5843 40.413 13.6682 40.8732L13.9901 40.1151ZM11.6891 38.4201L12.3389 37.9142C11.8947 37.3436 11.6774 36.711 11.6774 35.9881H10.8539H10.0304C10.0304 37.0776 10.3699 38.0663 11.0393 38.9261L11.6891 38.4201ZM10.8539 35.9881H11.6774C11.6774 35.4191 11.8049 34.9136 12.0528 34.4563L11.3288 34.0638L10.6048 33.6714C10.2195 34.3823 10.0304 35.1597 10.0304 35.9881H10.8539ZM11.3288 34.0638L12.0515 34.4587C12.3129 33.9803 12.6642 33.587 13.1126 33.2718L12.639 32.5981L12.1654 31.9244C11.511 32.3844 10.9889 32.9682 10.6061 33.669L11.3288 34.0638ZM12.639 32.5981L13.117 33.2687C13.5628 32.9509 14.0601 32.7475 14.6197 32.6579L14.4896 31.8448L14.3595 31.0316C13.5544 31.1604 12.8179 31.4592 12.1609 31.9275L12.639 32.5981ZM14.4896 31.8448H15.3131V31.7301H14.4896H13.6661V31.8448H14.4896ZM14.4896 31.7301L14.652 30.9228C13.9383 30.7791 13.3835 30.4436 12.9515 29.91L12.3114 30.4281L11.6714 30.9463C12.353 31.7883 13.2504 32.3208 14.3271 32.5375L14.4896 31.7301ZM12.3114 30.4281L12.9535 29.9125C12.5181 29.3703 12.2997 28.7485 12.2997 28.0125H11.4762H10.6527C10.6527 29.1108 10.9912 30.0994 11.6694 30.9438L12.3114 30.4281ZM11.4762 28.0125H12.2997C12.2997 27.3178 12.4987 26.7198 12.8966 26.1893L12.2377 25.6952L11.5789 25.2011C10.9614 26.0244 10.6527 26.9713 10.6527 28.0125H11.4762ZM12.2377 25.6952L12.8985 26.1868C13.3098 25.6339 13.885 25.1826 14.6564 24.8445L14.3258 24.0902L13.9952 23.336C12.9979 23.7731 12.1811 24.3917 11.577 25.2036L12.2377 25.6952ZM14.3258 24.0902L14.6586 24.8436C15.428 24.5037 16.3218 24.3242 17.3556 24.3242V23.5007V22.6771C16.1293 22.6771 15.0033 22.8907 13.9931 23.3369L14.3258 24.0902ZM17.3556 23.5007V24.3242C18.3895 24.3242 19.2798 24.5037 20.0427 24.8428L20.3771 24.0902L20.7116 23.3377C19.7058 22.8907 18.5817 22.6771 17.3556 22.6771V23.5007ZM20.3771 24.0902L20.0444 24.8436C20.8231 25.1875 21.4014 25.6422 21.8127 26.195L22.4734 25.7034L23.1341 25.2118C22.53 24.3998 21.7108 23.7791 20.7099 23.3369L20.3771 24.0902ZM22.4734 25.7034L21.8146 26.1975C22.2142 26.7304 22.4152 27.3279 22.4196 28.0177L23.2431 28.0125L24.0666 28.0073C24.0601 26.9721 23.7479 26.0302 23.1322 25.2093L22.4734 25.7034ZM23.2431 28.0125L22.4196 28.0077C22.4152 28.7498 22.1921 29.3708 21.7539 29.9069L22.3915 30.4281L23.0291 30.9494C23.7154 30.1098 24.0601 29.1204 24.0666 28.0174L23.2431 28.0125ZM22.3915 30.4281L21.7539 29.9069C21.3128 30.4465 20.7597 30.7808 20.0644 30.9234L20.2297 31.7301L20.3951 32.5369C21.4576 32.3191 22.3456 31.7854 23.0291 30.9494L22.3915 30.4281ZM20.2297 31.7301H19.4062V31.8448H20.2297H21.0533V31.7301H20.2297ZM20.2297 31.8448L20.0976 32.6576C20.6445 32.7465 21.1334 32.9488 21.5746 33.2664L22.0558 32.5981L22.537 31.9298C21.8863 31.4613 21.1578 31.1613 20.3619 31.0319L20.2297 31.8448ZM22.0558 32.5981L21.5822 33.2718C22.0305 33.587 22.3819 33.9803 22.6432 34.4587L23.3659 34.0638L24.0886 33.669C23.7058 32.9682 23.1837 32.3844 22.5294 31.9244L22.0558 32.5981ZM23.3659 34.0638L22.6476 34.4666C22.9042 34.9243 23.0375 35.4284 23.0419 35.9946L23.8654 35.9881L24.6889 35.9817C24.6824 35.1503 24.4827 34.3716 24.0842 33.661L23.3659 34.0638ZM23.8654 35.9881L23.0419 35.9832C23.0375 36.7078 22.8175 37.3423 22.3722 37.9142L23.022 38.4201L23.6718 38.9261C24.3402 38.0677 24.6824 37.0809 24.6889 35.9931L23.8654 35.9881ZM23.022 38.4201L22.3722 37.9142C21.916 38.5001 21.2686 38.9866 20.3925 39.3565L20.7128 40.1151L21.0332 40.8738C22.1224 40.4139 23.0144 39.7704 23.6718 38.9261L23.022 38.4201ZM20.7128 40.1151L20.3946 39.3556C19.5355 39.7156 18.5277 39.9057 17.3556 39.9057V40.7293V41.5528C18.7055 41.5528 19.9359 41.3336 21.0311 40.8747L20.7128 40.1151ZM17.3556 38.1253V38.9489C18.0163 38.9489 18.634 38.83 19.1862 38.5646L18.8295 37.8224L18.4728 37.0801C18.1843 37.2187 17.8194 37.3018 17.3556 37.3018V38.1253ZM18.8295 37.8224L19.1939 38.5609C19.7344 38.2941 20.1796 37.9154 20.5021 37.4203L19.8121 36.9708L19.1221 36.5212C18.9752 36.7467 18.7652 36.9357 18.465 37.0839L18.8295 37.8224ZM19.8121 36.9708L20.5005 37.4228C20.8364 36.9113 20.9959 36.331 20.9959 35.7097H20.1724H19.3489C19.3489 36.0383 19.2682 36.2987 19.1238 36.5187L19.8121 36.9708ZM20.1724 35.7097H20.9959C20.9959 35.0777 20.8337 34.488 20.4907 33.9697L19.8039 34.4241L19.1172 34.8786C19.2655 35.1027 19.3489 35.3701 19.3489 35.7097H20.1724ZM19.8039 34.4241L20.4937 33.9743C20.1652 33.4705 19.72 33.0801 19.177 32.8051L18.8049 33.5398L18.4328 34.2744C18.7305 34.4252 18.9514 34.6244 19.1141 34.874L19.8039 34.4241ZM18.8049 33.5398L19.1846 32.809C18.6302 32.521 18.0134 32.3887 17.3556 32.3887V33.2122V34.0358C17.7896 34.0358 18.139 34.1218 18.4253 34.2706L18.8049 33.5398ZM17.3556 33.2122V32.3887C16.7015 32.3887 16.0868 32.5217 15.5304 32.807L15.9062 33.5398L16.282 34.2726C16.5772 34.1212 16.9287 34.0358 17.3556 34.0358V33.2122ZM15.9062 33.5398L15.5379 32.8032C14.9894 33.0775 14.5394 33.4679 14.2092 33.9743L14.899 34.4241L15.5888 34.874C15.7499 34.627 15.9714 34.4279 16.2745 34.2764L15.9062 33.5398ZM14.899 34.4241L14.2076 33.9767C13.8727 34.4943 13.7152 35.0814 13.7152 35.7097H14.5387H15.3622C15.3622 35.3663 15.4449 35.0964 15.5904 34.8715L14.899 34.4241ZM14.5387 35.7097H13.7152C13.7152 36.3271 13.87 36.9048 14.1978 37.4156L14.8908 36.9708L15.5839 36.5259C15.4422 36.3052 15.3622 36.0422 15.3622 35.7097H14.5387ZM14.8908 36.9708L14.2008 37.4203C14.5251 37.918 14.9751 38.2968 15.521 38.5627L15.8816 37.8224L16.2423 37.082C15.9366 36.9331 15.726 36.7441 15.5808 36.5212L14.8908 36.9708ZM15.8816 37.8224L15.5287 38.5664C16.083 38.8294 16.6986 38.9489 17.3556 38.9489V38.1253V37.3018C16.8989 37.3018 16.5318 37.2193 16.2346 37.0783L15.8816 37.8224ZM17.3556 30.6329V31.4564C17.9394 31.4564 18.4909 31.3367 18.9897 31.0762L18.6084 30.3463L18.2271 29.6163C17.9944 29.7379 17.7107 29.8093 17.3556 29.8093V30.6329ZM18.6084 30.3463L18.9897 31.0762C19.4821 30.819 19.8819 30.453 20.1703 29.9823L19.4682 29.552L18.7661 29.1216C18.6396 29.3279 18.4662 29.4914 18.2271 29.6163L18.6084 30.3463ZM19.4682 29.552L20.1703 29.9823C20.466 29.5 20.6029 28.9573 20.6029 28.381H19.7794H18.9558C18.9558 28.6891 18.8853 28.9271 18.7661 29.1216L19.4682 29.552ZM19.7794 28.381H20.6029C20.6029 27.8086 20.4651 27.2695 20.1639 26.794L19.4682 27.2346L18.7725 27.6753C18.8862 27.8548 18.9558 28.08 18.9558 28.381H19.7794ZM19.4682 27.2346L20.1672 26.7992C19.8785 26.3358 19.4815 25.9759 18.9937 25.7246L18.6166 26.4567L18.2395 27.1888C18.4722 27.3087 18.643 27.4675 18.7692 27.6701L19.4682 27.2346ZM18.6166 26.4567L19.0024 25.7292C18.5038 25.4647 17.9465 25.3466 17.3556 25.3466V26.1701V26.9936C17.7254 26.9936 18.0088 27.0666 18.2308 27.1843L18.6166 26.4567ZM17.3556 26.1701V25.3466C16.768 25.3466 16.2133 25.4655 15.7132 25.7268L16.0945 26.4567L16.4758 27.1867C16.7072 27.0658 16.9933 26.9936 17.3556 26.9936V26.1701ZM16.0945 26.4567L15.7219 25.7223C15.2285 25.9727 14.8263 26.3327 14.5357 26.7992L15.2347 27.2346L15.9337 27.6701C16.058 27.4705 16.2291 27.3119 16.4672 27.1911L16.0945 26.4567ZM15.2347 27.2346L14.5338 26.8024C14.2413 27.2767 14.1082 27.8127 14.1082 28.381H14.9318H15.7553C15.7553 28.0759 15.8242 27.8476 15.9357 27.6669L15.2347 27.2346ZM14.9318 28.381H14.1082C14.1082 28.9573 14.2452 29.5 14.5408 29.9823L15.2429 29.552L15.9451 29.1216C15.8258 28.9271 15.7553 28.6891 15.7553 28.381H14.9318ZM15.2429 29.552L14.5408 29.9823C14.8293 30.453 15.229 30.819 15.7214 31.0762L16.1027 30.3463L16.484 29.6163C16.2449 29.4914 16.0715 29.3279 15.9451 29.1216L15.2429 29.552ZM16.1027 30.3463L15.7214 31.0762C16.2202 31.3367 16.7717 31.4564 17.3556 31.4564V30.6329V29.8093C17.0004 29.8093 16.7168 29.7379 16.484 29.6163L16.1027 30.3463Z" fill="#2B3F46" mask="url(#path-33-outside-1_2287_9256)"/>
<mask id="path-35-outside-2_2287_9256" maskUnits="userSpaceOnUse" x="26.3535" y="28" width="12" height="11" fill="black">
<rect fill="white" x="26.3535" y="28" width="12" height="11"/>
<path d="M30.7484 29.2727L32.3507 32.3239L33.9927 29.2727H36.4757L33.9473 33.6364L36.5439 38H34.0723L32.3507 34.983L30.6575 38H28.1575L30.7484 33.6364L28.2484 29.2727H30.7484Z"/>
</mask>
<path d="M30.7484 29.2727L32.3507 32.3239L33.9927 29.2727H36.4757L33.9473 33.6364L36.5439 38H34.0723L32.3507 34.983L30.6575 38H28.1575L30.7484 33.6364L28.2484 29.2727H30.7484Z" fill="white"/>
<path d="M30.7484 29.2727L31.4775 28.8898L31.2461 28.4492H30.7484V29.2727ZM32.3507 32.3239L31.6216 32.7067L32.3418 34.0782L33.0759 32.7141L32.3507 32.3239ZM33.9927 29.2727V28.4492H33.5007L33.2675 28.8825L33.9927 29.2727ZM36.4757 29.2727L37.1882 29.6856L37.9046 28.4492H36.4757V29.2727ZM33.9473 33.6364L33.2347 33.2235L32.9923 33.6419L33.2396 34.0575L33.9473 33.6364ZM36.5439 38V38.8235H37.9922L37.2516 37.5789L36.5439 38ZM34.0723 38L33.357 38.4081L33.594 38.8235H34.0723V38ZM32.3507 34.983L33.0659 34.5748L32.3447 33.3109L31.6325 34.5799L32.3507 34.983ZM30.6575 38V38.8235H31.1397L31.3757 38.403L30.6575 38ZM28.1575 38L27.4494 37.5796L26.7108 38.8235H28.1575V38ZM30.7484 33.6364L31.4565 34.0568L31.7018 33.6438L31.463 33.227L30.7484 33.6364ZM28.2484 29.2727V28.4492H26.8275L27.5338 29.6821L28.2484 29.2727ZM30.7484 29.2727L30.0193 29.6556L31.6216 32.7067L32.3507 32.3239L33.0798 31.941L31.4775 28.8898L30.7484 29.2727ZM32.3507 32.3239L33.0759 32.7141L34.7179 29.663L33.9927 29.2727L33.2675 28.8825L31.6255 31.9336L32.3507 32.3239ZM33.9927 29.2727V30.0963H36.4757V29.2727V28.4492H33.9927V29.2727ZM36.4757 29.2727L35.7631 28.8599L33.2347 33.2235L33.9473 33.6364L34.6598 34.0492L37.1882 29.6856L36.4757 29.2727ZM33.9473 33.6364L33.2396 34.0575L35.8361 38.4211L36.5439 38L37.2516 37.5789L34.655 33.2152L33.9473 33.6364ZM36.5439 38V37.1765H34.0723V38V38.8235H36.5439V38ZM34.0723 38L34.7875 37.5919L33.0659 34.5748L32.3507 34.983L31.6354 35.3911L33.357 38.4081L34.0723 38ZM32.3507 34.983L31.6325 34.5799L29.9393 37.597L30.6575 38L31.3757 38.403L33.0688 35.386L32.3507 34.983ZM30.6575 38V37.1765H28.1575V38V38.8235H30.6575V38ZM28.1575 38L28.8656 38.4204L31.4565 34.0568L30.7484 33.6364L30.0403 33.2159L27.4494 37.5796L28.1575 38ZM30.7484 33.6364L31.463 33.227L28.963 28.8633L28.2484 29.2727L27.5338 29.6821L30.0338 34.0457L30.7484 33.6364ZM28.2484 29.2727V30.0963H30.7484V29.2727V28.4492H28.2484V29.2727Z" fill="#2B3F46" mask="url(#path-35-outside-2_2287_9256)"/>
<mask id="path-37-outside-3_2287_9256" maskUnits="userSpaceOnUse" x="39.3535" y="22.5" width="16" height="20" fill="black">
<rect fill="white" x="39.3535" y="22.5" width="16" height="20"/>
<path d="M47.5521 40.7293C46.6896 40.7238 45.8571 40.5792 45.0546 40.2953C44.2576 40.0114 43.5424 39.5501 42.9092 38.9114C42.276 38.2727 41.7737 37.4266 41.4025 36.373C41.0368 35.3194 40.8539 34.0256 40.8539 32.4916C40.8594 31.0832 41.0204 29.8249 41.337 28.7167C41.6591 27.6031 42.1177 26.6587 42.7127 25.8835C43.3132 25.1083 44.031 24.5188 44.8663 24.1148C45.7015 23.7054 46.6377 23.5007 47.6749 23.5007C48.794 23.5007 49.7821 23.719 50.6392 24.1557C51.4962 24.587 52.1841 25.1739 52.7027 25.9163C53.2267 26.6587 53.5433 27.4912 53.6525 28.4138H50.156C50.0196 27.8297 49.733 27.3711 49.2962 27.0381C48.8595 26.7051 48.3191 26.5386 47.6749 26.5386C46.5831 26.5386 45.7533 27.0135 45.1856 27.9634C44.6233 28.9133 44.3367 30.2043 44.3258 31.8366H44.4405C44.6916 31.3398 45.03 30.9167 45.4558 30.5673C45.8871 30.2125 46.3757 29.9423 46.9216 29.7567C47.4729 29.5656 48.0543 29.4701 48.6657 29.4701C49.6593 29.4701 50.5436 29.7048 51.3188 30.1743C52.094 30.6383 52.7054 31.277 53.153 32.0904C53.6007 32.9038 53.8245 33.8346 53.8245 34.8827C53.8245 36.0182 53.5597 37.0281 53.0302 37.9124C52.5061 38.7968 51.7719 39.4901 50.8275 39.9923C49.8885 40.4891 48.7967 40.7347 47.5521 40.7293ZM47.5357 37.9452C48.0816 37.9452 48.5702 37.8142 49.0015 37.5521C49.4327 37.2901 49.7712 36.9353 50.0168 36.4876C50.2625 36.04 50.3853 35.5378 50.3853 34.9809C50.3853 34.4241 50.2625 33.9246 50.0168 33.4825C49.7766 33.0403 49.4436 32.6882 49.0178 32.4261C48.592 32.1641 48.1062 32.0331 47.5603 32.0331C47.1509 32.0331 46.7714 32.1095 46.4221 32.2624C46.0782 32.4152 45.7752 32.6281 45.5131 32.9011C45.2566 33.174 45.0546 33.4906 44.9072 33.8509C44.7598 34.2058 44.6861 34.5852 44.6861 34.9891C44.6861 35.5296 44.8089 36.0236 45.0546 36.4713C45.3057 36.9189 45.6442 37.2765 46.07 37.544C46.5012 37.8114 46.9898 37.9452 47.5357 37.9452Z"/>
</mask>
<path d="M47.5521 40.7293C46.6896 40.7238 45.8571 40.5792 45.0546 40.2953C44.2576 40.0114 43.5424 39.5501 42.9092 38.9114C42.276 38.2727 41.7737 37.4266 41.4025 36.373C41.0368 35.3194 40.8539 34.0256 40.8539 32.4916C40.8594 31.0832 41.0204 29.8249 41.337 28.7167C41.6591 27.6031 42.1177 26.6587 42.7127 25.8835C43.3132 25.1083 44.031 24.5188 44.8663 24.1148C45.7015 23.7054 46.6377 23.5007 47.6749 23.5007C48.794 23.5007 49.7821 23.719 50.6392 24.1557C51.4962 24.587 52.1841 25.1739 52.7027 25.9163C53.2267 26.6587 53.5433 27.4912 53.6525 28.4138H50.156C50.0196 27.8297 49.733 27.3711 49.2962 27.0381C48.8595 26.7051 48.3191 26.5386 47.6749 26.5386C46.5831 26.5386 45.7533 27.0135 45.1856 27.9634C44.6233 28.9133 44.3367 30.2043 44.3258 31.8366H44.4405C44.6916 31.3398 45.03 30.9167 45.4558 30.5673C45.8871 30.2125 46.3757 29.9423 46.9216 29.7567C47.4729 29.5656 48.0543 29.4701 48.6657 29.4701C49.6593 29.4701 50.5436 29.7048 51.3188 30.1743C52.094 30.6383 52.7054 31.277 53.153 32.0904C53.6007 32.9038 53.8245 33.8346 53.8245 34.8827C53.8245 36.0182 53.5597 37.0281 53.0302 37.9124C52.5061 38.7968 51.7719 39.4901 50.8275 39.9923C49.8885 40.4891 48.7967 40.7347 47.5521 40.7293ZM47.5357 37.9452C48.0816 37.9452 48.5702 37.8142 49.0015 37.5521C49.4327 37.2901 49.7712 36.9353 50.0168 36.4876C50.2625 36.04 50.3853 35.5378 50.3853 34.9809C50.3853 34.4241 50.2625 33.9246 50.0168 33.4825C49.7766 33.0403 49.4436 32.6882 49.0178 32.4261C48.592 32.1641 48.1062 32.0331 47.5603 32.0331C47.1509 32.0331 46.7714 32.1095 46.4221 32.2624C46.0782 32.4152 45.7752 32.6281 45.5131 32.9011C45.2566 33.174 45.0546 33.4906 44.9072 33.8509C44.7598 34.2058 44.6861 34.5852 44.6861 34.9891C44.6861 35.5296 44.8089 36.0236 45.0546 36.4713C45.3057 36.9189 45.6442 37.2765 46.07 37.544C46.5012 37.8114 46.9898 37.9452 47.5357 37.9452Z" fill="white"/>
<path d="M47.5521 40.7293L47.5469 41.5528L47.5485 41.5528L47.5521 40.7293ZM45.0546 40.2953L44.7783 41.0711L44.78 41.0717L45.0546 40.2953ZM42.9092 38.9114L42.3244 39.4912L42.3244 39.4912L42.9092 38.9114ZM41.4025 36.373L40.6245 36.6431L40.6258 36.6467L41.4025 36.373ZM40.8539 32.4916L40.0304 32.4885V32.4916H40.8539ZM41.337 28.7167L40.5459 28.4879L40.5452 28.4905L41.337 28.7167ZM42.7127 25.8835L42.0616 25.3792L42.0594 25.3821L42.7127 25.8835ZM44.8663 24.1148L45.2248 24.8562L45.2287 24.8543L44.8663 24.1148ZM50.6392 24.1557L50.2653 24.8895L50.269 24.8914L50.6392 24.1557ZM52.7027 25.9163L52.0275 26.3879L52.0299 26.3912L52.7027 25.9163ZM53.6525 28.4138V29.2373H54.5793L54.4703 28.317L53.6525 28.4138ZM50.156 28.4138L49.3541 28.6011L49.5027 29.2373H50.156V28.4138ZM45.1856 27.9634L44.4787 27.5409L44.4769 27.5439L45.1856 27.9634ZM44.3258 31.8366L43.5023 31.8311L43.4968 32.6601H44.3258V31.8366ZM44.4405 31.8366V32.6601H44.9469L45.1754 32.2081L44.4405 31.8366ZM45.4558 30.5673L45.9782 31.204L45.9791 31.2033L45.4558 30.5673ZM46.9216 29.7567L47.1867 30.5364L47.1912 30.5348L46.9216 29.7567ZM51.3188 30.1743L50.8922 30.8787L50.8958 30.8809L51.3188 30.1743ZM53.0302 37.9124L52.3236 37.4894L52.3217 37.4926L53.0302 37.9124ZM50.8275 39.9923L51.2126 40.7202L51.2142 40.7194L50.8275 39.9923ZM49.0015 37.5521L49.4291 38.2559L49.4291 38.2559L49.0015 37.5521ZM50.0168 36.4876L49.2949 36.0914L49.2949 36.0914L50.0168 36.4876ZM50.0168 33.4825L49.2931 33.8756L49.2969 33.8824L50.0168 33.4825ZM49.0178 32.4261L49.4494 31.7248L49.4494 31.7248L49.0178 32.4261ZM46.4221 32.2624L46.092 31.5079L46.0876 31.5098L46.4221 32.2624ZM45.5131 32.9011L44.919 32.3307L44.9131 32.337L45.5131 32.9011ZM44.9072 33.8509L45.6677 34.1669L45.6694 34.1628L44.9072 33.8509ZM45.0546 36.4713L44.3326 36.8675L44.3364 36.8742L45.0546 36.4713ZM46.07 37.544L45.6319 38.2413L45.6359 38.2438L46.07 37.544ZM47.5521 40.7293L47.5573 39.9058C46.7853 39.9009 46.044 39.7717 45.3292 39.5189L45.0546 40.2953L44.78 41.0717C45.6701 41.3866 46.5938 41.5468 47.5469 41.5528L47.5521 40.7293ZM45.0546 40.2953L45.3309 39.5195C44.6574 39.2796 44.046 38.8884 43.494 38.3316L42.9092 38.9114L42.3244 39.4912C43.0389 40.2119 43.8578 40.7432 44.7783 41.0711L45.0546 40.2953ZM42.9092 38.9114L43.494 38.3316C42.9648 37.7978 42.5195 37.0651 42.1792 36.0993L41.4025 36.373L40.6258 36.6467C41.028 37.7881 41.5871 38.7476 42.3244 39.4912L42.9092 38.9114ZM41.4025 36.373L42.1805 36.1029C41.8539 35.162 41.6774 33.9657 41.6774 32.4916H40.8539H40.0304C40.0304 34.0855 40.2197 35.4768 40.6245 36.6431L41.4025 36.373ZM40.8539 32.4916L41.6774 32.4948C41.6826 31.1458 41.837 29.9646 42.1289 28.943L41.337 28.7167L40.5452 28.4905C40.2038 29.6852 40.0361 31.0206 40.0304 32.4885L40.8539 32.4916ZM41.337 28.7167L42.1281 28.9455C42.4269 27.9126 42.8439 27.065 43.3659 26.385L42.7127 25.8835L42.0594 25.3821C41.3914 26.2524 40.8913 27.2936 40.5459 28.4879L41.337 28.7167ZM42.7127 25.8835L43.3637 26.3878C43.8909 25.7073 44.5106 25.2016 45.2248 24.8562L44.8663 24.1148L44.5077 23.3734C43.5515 23.8359 42.7355 24.5093 42.0616 25.3792L42.7127 25.8835ZM44.8663 24.1148L45.2287 24.8543C45.9387 24.5062 46.7488 24.3242 47.6749 24.3242V23.5007V22.6771C46.5267 22.6771 45.4643 22.9045 44.5038 23.3753L44.8663 24.1148ZM47.6749 23.5007V24.3242C48.6853 24.3242 49.5416 24.5207 50.2653 24.8895L50.6392 24.1557L51.013 23.422C50.0226 22.9173 48.9027 22.6771 47.6749 22.6771V23.5007ZM50.6392 24.1557L50.269 24.8914C51.0116 25.265 51.5918 25.7641 52.0275 26.3879L52.7027 25.9163L53.3778 25.4447C52.7763 24.5836 51.9809 23.909 51.0093 23.4201L50.6392 24.1557ZM52.7027 25.9163L52.0299 26.3912C52.473 27.019 52.7413 27.721 52.8347 28.5106L53.6525 28.4138L54.4703 28.317C54.3454 27.2614 53.9804 26.2984 53.3755 25.4414L52.7027 25.9163ZM53.6525 28.4138V27.5902H50.156V28.4138V29.2373H53.6525V28.4138ZM50.156 28.4138L50.958 28.2264C50.7823 27.4744 50.3988 26.8432 49.7956 26.3832L49.2962 27.0381L48.7969 27.693C49.0672 27.899 49.2568 28.1849 49.3541 28.6011L50.156 28.4138ZM49.2962 27.0381L49.7956 26.3832C49.1916 25.9227 48.4671 25.7151 47.6749 25.7151V26.5386V27.3621C48.171 27.3621 48.5274 27.4875 48.7969 27.693L49.2962 27.0381ZM47.6749 26.5386V25.7151C46.2885 25.7151 45.1926 26.3465 44.4787 27.5409L45.1856 27.9634L45.8925 28.3859C46.314 27.6806 46.8777 27.3621 47.6749 27.3621V26.5386ZM45.1856 27.9634L44.4769 27.5439C43.8131 28.6653 43.5138 30.1181 43.5023 31.8311L44.3258 31.8366L45.1493 31.8421C45.1597 30.2906 45.4335 29.1613 45.8943 28.3829L45.1856 27.9634ZM44.3258 31.8366V32.6601H44.4405V31.8366V31.013H44.3258V31.8366ZM44.4405 31.8366L45.1754 32.2081C45.3754 31.8124 45.6419 31.4799 45.9782 31.204L45.4558 30.5673L44.9335 29.9307C44.4182 30.3535 44.0077 30.8672 43.7055 31.465L44.4405 31.8366ZM45.4558 30.5673L45.9791 31.2033C46.3312 30.9136 46.7317 30.6911 47.1867 30.5364L46.9216 29.7567L46.6565 28.977C46.0197 29.1935 45.443 29.5114 44.9326 29.9314L45.4558 30.5673ZM46.9216 29.7567L47.1912 30.5348C47.6518 30.3752 48.1417 30.2936 48.6657 30.2936V29.4701V28.6466C47.967 28.6466 47.2941 28.756 46.6519 28.9786L46.9216 29.7567ZM48.6657 29.4701V30.2936C49.5238 30.2936 50.2579 30.4946 50.8922 30.8787L51.3188 30.1743L51.7454 29.4699C50.8294 28.9151 49.7947 28.6466 48.6657 28.6466V29.4701ZM51.3188 30.1743L50.8958 30.8809C51.5423 31.2679 52.0522 31.7982 52.4315 32.4875L53.153 32.0904L53.8745 31.6933C53.3586 30.7559 52.6457 30.0088 51.7418 29.4677L51.3188 30.1743ZM53.153 32.0904L52.4315 32.4875C52.804 33.1642 53.001 33.9552 53.001 34.8827H53.8245H54.648C54.648 33.7139 54.3973 32.6434 53.8745 31.6933L53.153 32.0904ZM53.8245 34.8827H53.001C53.001 35.8847 52.769 36.7456 52.3236 37.4894L53.0302 37.9124L53.7368 38.3355C54.3505 37.3105 54.648 36.1516 54.648 34.8827H53.8245ZM53.0302 37.9124L52.3217 37.4926C51.8779 38.2415 51.2575 38.8309 50.4408 39.2652L50.8275 39.9923L51.2142 40.7194C52.2863 40.1493 53.1344 39.3521 53.7387 38.3323L53.0302 37.9124ZM50.8275 39.9923L50.4424 39.2644C49.6422 39.6877 48.6882 39.9107 47.5557 39.9058L47.5521 40.7293L47.5485 41.5528C48.9053 41.5588 50.1349 41.2904 51.2126 40.7202L50.8275 39.9923ZM47.5357 37.9452V38.7687C48.2196 38.7687 48.8584 38.6027 49.4291 38.2559L49.0015 37.5521L48.5738 36.8483C48.282 37.0257 47.9436 37.1217 47.5357 37.1217V37.9452ZM49.0015 37.5521L49.4291 38.2559C49.9852 37.918 50.4245 37.4565 50.7388 36.8838L50.0168 36.4876L49.2949 36.0914C49.1178 36.4141 48.8802 36.6622 48.5738 36.8483L49.0015 37.5521ZM50.0168 36.4876L50.7388 36.8838C51.057 36.304 51.2088 35.6634 51.2088 34.9809H50.3853H49.5618C49.5618 35.4121 49.468 35.776 49.2949 36.0914L50.0168 36.4876ZM50.3853 34.9809H51.2088C51.2088 34.2986 51.057 33.6591 50.7367 33.0825L50.0168 33.4825L49.2969 33.8824C49.4679 34.1902 49.5618 34.5496 49.5618 34.9809H50.3853ZM50.0168 33.4825L50.7405 33.0894C50.432 32.5215 49.9987 32.0628 49.4494 31.7248L49.0178 32.4261L48.5862 33.1275C48.8886 33.3136 49.1212 33.559 49.2932 33.8755L50.0168 33.4825ZM49.0178 32.4261L49.4494 31.7248C48.882 31.3756 48.2441 31.2096 47.5603 31.2096V32.0331V32.8566C47.9683 32.8566 48.302 32.9526 48.5862 33.1275L49.0178 32.4261ZM47.5603 32.0331V31.2096C47.0457 31.2096 46.5529 31.3062 46.092 31.5079L46.4221 32.2624L46.7522 33.0168C46.99 32.9128 47.256 32.8566 47.5603 32.8566V32.0331ZM46.4221 32.2624L46.0876 31.5098C45.6456 31.7063 45.2546 31.9812 44.9191 32.3307L45.5131 32.9011L46.1072 33.4714C46.2958 33.275 46.5107 33.1242 46.7565 33.0149L46.4221 32.2624ZM45.5131 32.9011L44.9131 32.337C44.5848 32.6863 44.329 33.0892 44.145 33.5391L44.9072 33.8509L45.6694 34.1628C45.7802 33.892 45.9284 33.6618 46.1132 33.4651L45.5131 32.9011ZM44.9072 33.8509L44.1467 33.535C43.9556 33.9951 43.8626 34.4824 43.8626 34.9891H44.6861H45.5096C45.5096 34.6879 45.564 34.4165 45.6677 34.1668L44.9072 33.8509ZM44.6861 34.9891H43.8626C43.8626 35.6597 44.0164 36.2913 44.3326 36.8675L45.0546 36.4713L45.7766 36.0751C45.6014 35.756 45.5096 35.3994 45.5096 34.9891H44.6861ZM45.0546 36.4713L44.3364 36.8742C44.6533 37.4392 45.0871 37.899 45.6319 38.2413L46.07 37.544L46.508 36.8466C46.2013 36.6539 45.9581 36.3986 45.7728 36.0683L45.0546 36.4713ZM46.07 37.544L45.6359 38.2438C46.2074 38.5983 46.8485 38.7687 47.5357 38.7687V37.9452V37.1217C47.1311 37.1217 46.7951 37.0246 46.504 36.8441L46.07 37.544Z" fill="#2B3F46" mask="url(#path-37-outside-3_2287_9256)"/>
<defs>
<linearGradient id="paint0_linear_2287_9256" x1="35.8411" y1="35.864" x2="-1.88188" y2="2.08424" gradientUnits="userSpaceOnUse">
<stop stop-color="#FFD5EF"/>
<stop offset="1" stop-color="#EFBDFD"/>
</linearGradient>
<linearGradient id="paint1_linear_2287_9256" x1="26.8809" y1="4.483" x2="25.174" y2="-4.68761" gradientUnits="userSpaceOnUse">
<stop stop-color="#F95457"/>
<stop offset="1" stop-color="#FDBDCB"/>
</linearGradient>
<linearGradient id="paint2_linear_2287_9256" x1="26.8809" y1="4.483" x2="25.174" y2="-4.68761" gradientUnits="userSpaceOnUse">
<stop stop-color="#F95457"/>
<stop offset="1" stop-color="#FDBDCB"/>
</linearGradient>
<linearGradient id="paint3_linear_2287_9256" x1="4.71844" y1="43.652" x2="1.80424" y2="43.0279" gradientUnits="userSpaceOnUse">
<stop stop-color="#F95457"/>
<stop offset="1" stop-color="#FDBDCB"/>
</linearGradient>
<linearGradient id="paint4_linear_2287_9256" x1="35.7657" y1="58.0256" x2="30.2143" y2="50.8927" gradientUnits="userSpaceOnUse">
<stop stop-color="#F95457"/>
<stop offset="1" stop-color="#FDBDCB"/>
</linearGradient>
<linearGradient id="paint5_linear_2287_9256" x1="60.6657" y1="43.652" x2="57.7515" y2="43.0279" gradientUnits="userSpaceOnUse">
<stop stop-color="#F95457"/>
<stop offset="1" stop-color="#FDBDCB"/>
</linearGradient>
<linearGradient id="paint6_linear_2287_9256" x1="-1.09962e-05" y1="-0.0328651" x2="30.641" y2="-4.05264" gradientUnits="userSpaceOnUse">
<stop stop-color="#D74446"/>
<stop offset="1" stop-color="#E165B8"/>
</linearGradient>
<linearGradient id="paint7_linear_2287_9256" x1="-1.11276e-05" y1="-0.033258" x2="31.0073" y2="-4.10108" gradientUnits="userSpaceOnUse">
<stop stop-color="#D74446"/>
<stop offset="1" stop-color="#E165B8"/>
</linearGradient>
<linearGradient id="paint8_linear_2287_9256" x1="-8.34573e-06" y1="-0.00415724" x2="14.606" y2="-11.5011" gradientUnits="userSpaceOnUse">
<stop stop-color="#D1369D"/>
<stop offset="1" stop-color="#B31E20"/>
</linearGradient>
<linearGradient id="paint9_linear_2287_9256" x1="-8.34573e-06" y1="-0.00415724" x2="14.606" y2="-11.5011" gradientUnits="userSpaceOnUse">
<stop stop-color="#D74446"/>
<stop offset="1" stop-color="#E165B8"/>
</linearGradient>
<linearGradient id="paint10_linear_2287_9256" x1="2.32031" y1="36.6188" x2="3.73321" y2="36.5744" gradientUnits="userSpaceOnUse">
<stop stop-color="#D74446"/>
<stop offset="1" stop-color="#D1369D"/>
</linearGradient>
<linearGradient id="paint11_linear_2287_9256" x1="27.5449" y1="52.5135" x2="34.14" y2="51.2721" gradientUnits="userSpaceOnUse">
<stop stop-color="#B31E20"/>
<stop offset="1" stop-color="#D74446"/>
</linearGradient>
<linearGradient id="paint12_linear_2287_9256" x1="59.0059" y1="36.6188" x2="60.4188" y2="36.5744" gradientUnits="userSpaceOnUse">
<stop stop-color="#E165B8"/>
<stop offset="1" stop-color="#D74446"/>
</linearGradient>
<clipPath id="clip0_2287_9256">
<rect width="63" height="39.5638" fill="white" transform="translate(0 18.4604)"/>
</clipPath>
<clipPath id="clip1_2287_9256">
<rect width="35.8992" height="35.8992" rx="4.44179" transform="matrix(0.866025 0.5 -0.866025 0.5 31.9102 19)" fill="white"/>
</clipPath>
<clipPath id="clip2_2287_9256">
<rect width="36.3731" height="36.3731" rx="4.50041" transform="matrix(0.866025 0.5 -0.866025 0.5 31.5 18.4607)" fill="white"/>
</clipPath>
</defs>
</svg>
