<svg width="64" height="64" viewBox="0 0 64 64" fill="none" xmlns="http://www.w3.org/2000/svg">
<g clip-path="url(#clip0_2122_4393)">
<rect width="35.8551" height="35.8551" rx="4.37833" transform="matrix(0.866025 0.5 -0.866025 0.5 31.8887 19)" fill="url(#paint0_linear_2122_4393)"/>
<rect width="26.8913" height="4.48189" transform="matrix(0.866025 0.5 0 1 4.71875 39.1685)" fill="url(#paint1_linear_2122_4393)"/>
<rect width="26.8913" height="4.48189" transform="matrix(0.866025 -0.5 0 1 35.7695 52.6143)" fill="url(#paint2_linear_2122_4393)"/>
<path d="M3.11133 36.9275C3.11133 37.8026 3.72572 38.5949 4.71907 39.1684V43.6503C3.72572 43.0768 3.11133 42.2845 3.11133 41.4094V36.9275Z" fill="url(#paint3_linear_2122_4393)"/>
<path d="M28.0059 52.6143C30.1495 53.8519 33.6251 53.8519 35.7687 52.6143V57.0961C33.6251 58.3338 30.1495 58.3338 28.0059 57.0961V52.6143Z" fill="url(#paint4_linear_2122_4393)"/>
<path d="M60.6663 36.9275C60.6663 37.8026 60.0519 38.5949 59.0586 39.1684V43.6503C60.0519 43.0768 60.6663 42.2845 60.6663 41.4094V36.9275Z" fill="url(#paint5_linear_2122_4393)"/>
<g clip-path="url(#clip1_2122_4393)">
<rect width="35.8992" height="35.8992" rx="4.44179" transform="matrix(0.866025 0.5 -0.866025 0.5 31.9102 19)" fill="url(#paint6_linear_2122_4393)"/>
<rect width="11.5594" height="11.5594" transform="matrix(0.866025 0.5 -0.866025 0.5 31.9102 19)" fill="black" fill-opacity="0.1"/>
<rect width="11.5594" height="11.5594" transform="matrix(0.866025 0.5 -0.866025 0.5 21.3711 25.085)" fill="black" fill-opacity="0.1"/>
<rect width="11.5594" height="11.5594" transform="matrix(0.866025 0.5 -0.866025 0.5 21.3711 37.2549)" fill="black" fill-opacity="0.1"/>
<rect width="11.5594" height="11.5594" transform="matrix(0.866025 0.5 -0.866025 0.5 42.4492 25.085)" fill="black" fill-opacity="0.1"/>
<rect width="11.5594" height="11.5594" transform="matrix(0.866025 0.5 -0.866025 0.5 42.4492 37.2549)" fill="black" fill-opacity="0.1"/>
<rect width="11.5594" height="11.5594" transform="matrix(0.866025 0.5 -0.866025 0.5 52.9883 31.1699)" fill="black" fill-opacity="0.1"/>
<rect width="11.5594" height="11.5594" transform="matrix(0.866025 0.5 -0.866025 0.5 10.832 31.1699)" fill="black" fill-opacity="0.1"/>
<rect width="11.5594" height="11.5594" transform="matrix(0.866025 0.5 -0.866025 0.5 31.9102 43.3398)" fill="black" fill-opacity="0.1"/>
<rect width="11.5594" height="11.5594" transform="matrix(0.866025 0.5 -0.866025 0.5 31.9102 31.1699)" fill="black" fill-opacity="0.1"/>
</g>
<rect width="36.3283" height="36.3283" rx="4.43612" transform="matrix(0.866025 0.5 -0.866025 0.5 31.4785 18.4607)" fill="url(#paint7_linear_2122_4393)"/>
<rect width="27.2462" height="4.54104" transform="matrix(0.866025 0.5 0 1 3.94922 38.8958)" fill="url(#paint8_linear_2122_4393)"/>
<rect width="27.2462" height="4.54104" transform="matrix(0.866025 -0.5 0 1 35.4102 52.5186)" fill="url(#paint9_linear_2122_4393)"/>
<path d="M2.32031 36.625C2.32031 37.5117 2.94282 38.3144 3.94927 38.8955V43.4366C2.94282 42.8555 2.32031 42.0527 2.32031 41.166V36.625Z" fill="url(#paint10_linear_2122_4393)"/>
<path d="M27.5449 52.5186C29.7169 53.7725 33.2383 53.7725 35.4102 52.5186V57.0596C33.2383 58.3136 29.7169 58.3136 27.5449 57.0596V52.5186Z" fill="url(#paint11_linear_2122_4393)"/>
<path d="M60.6348 36.625C60.6348 37.5117 60.0123 38.3144 59.0059 38.8955V43.4366C60.0123 42.8555 60.6348 42.0527 60.6348 41.166V36.625Z" fill="url(#paint12_linear_2122_4393)"/>
<g clip-path="url(#clip2_2122_4393)">
<rect width="11.712" height="11.712" transform="matrix(0.866025 0.5 -0.866025 0.5 31.5 18.4607)" fill="white" fill-opacity="0.2"/>
<rect width="11.712" height="11.712" transform="matrix(0.866025 0.5 -0.866025 0.5 20.8223 24.626)" fill="white" fill-opacity="0.2"/>
<rect width="11.712" height="11.712" transform="matrix(0.866025 0.5 -0.866025 0.5 20.8223 36.9565)" fill="white" fill-opacity="0.2"/>
<rect width="11.712" height="11.712" transform="matrix(0.866025 0.5 -0.866025 0.5 42.1777 24.626)" fill="white" fill-opacity="0.2"/>
<rect width="11.712" height="11.712" transform="matrix(0.866025 0.5 -0.866025 0.5 42.1777 36.9565)" fill="white" fill-opacity="0.2"/>
<rect width="11.712" height="11.712" transform="matrix(0.866025 0.5 -0.866025 0.5 52.8574 30.7913)" fill="white" fill-opacity="0.2"/>
<rect width="11.712" height="11.712" transform="matrix(0.866025 0.5 -0.866025 0.5 10.1426 30.7913)" fill="white" fill-opacity="0.2"/>
<rect width="11.712" height="11.712" transform="matrix(0.866025 0.5 -0.866025 0.5 31.5 43.1221)" fill="white" fill-opacity="0.2"/>
<rect width="11.712" height="11.712" transform="matrix(0.866025 0.5 -0.866025 0.5 31.5 30.7913)" fill="white" fill-opacity="0.2"/>
</g>
</g>
<mask id="path-33-outside-1_2122_4393" maskUnits="userSpaceOnUse" x="9.35352" y="22.5" width="16" height="20" fill="black">
<rect fill="white" x="9.35352" y="22.5" width="16" height="20"/>
<path d="M17.5521 40.7293C16.6896 40.7238 15.8571 40.5792 15.0546 40.2953C14.2576 40.0114 13.5424 39.5501 12.9092 38.9114C12.276 38.2727 11.7737 37.4266 11.4025 36.373C11.0368 35.3194 10.8539 34.0256 10.8539 32.4916C10.8594 31.0832 11.0204 29.8249 11.337 28.7167C11.6591 27.6031 12.1177 26.6587 12.7127 25.8835C13.3132 25.1083 14.031 24.5188 14.8663 24.1148C15.7015 23.7054 16.6377 23.5007 17.6749 23.5007C18.794 23.5007 19.7821 23.719 20.6392 24.1557C21.4962 24.587 22.1841 25.1739 22.7027 25.9163C23.2267 26.6587 23.5433 27.4912 23.6525 28.4138H20.156C20.0196 27.8297 19.733 27.3711 19.2962 27.0381C18.8595 26.7051 18.3191 26.5386 17.6749 26.5386C16.5831 26.5386 15.7533 27.0135 15.1856 27.9634C14.6233 28.9133 14.3367 30.2043 14.3258 31.8366H14.4405C14.6916 31.3398 15.03 30.9167 15.4558 30.5673C15.8871 30.2125 16.3757 29.9423 16.9216 29.7567C17.4729 29.5656 18.0543 29.4701 18.6657 29.4701C19.6593 29.4701 20.5436 29.7048 21.3188 30.1743C22.094 30.6383 22.7054 31.277 23.153 32.0904C23.6007 32.9038 23.8245 33.8346 23.8245 34.8827C23.8245 36.0182 23.5597 37.0281 23.0302 37.9124C22.5061 38.7968 21.7719 39.4901 20.8275 39.9923C19.8885 40.4891 18.7967 40.7347 17.5521 40.7293ZM17.5357 37.9452C18.0816 37.9452 18.5702 37.8142 19.0015 37.5521C19.4327 37.2901 19.7712 36.9353 20.0168 36.4876C20.2625 36.04 20.3853 35.5378 20.3853 34.9809C20.3853 34.4241 20.2625 33.9246 20.0168 33.4825C19.7766 33.0403 19.4436 32.6882 19.0178 32.4261C18.592 32.1641 18.1062 32.0331 17.5603 32.0331C17.1509 32.0331 16.7714 32.1095 16.4221 32.2624C16.0782 32.4152 15.7752 32.6281 15.5131 32.9011C15.2566 33.174 15.0546 33.4906 14.9072 33.8509C14.7598 34.2058 14.6861 34.5852 14.6861 34.9891C14.6861 35.5296 14.8089 36.0236 15.0546 36.4713C15.3057 36.9189 15.6442 37.2765 16.07 37.544C16.5012 37.8114 16.9898 37.9452 17.5357 37.9452Z"/>
</mask>
<path d="M17.5521 40.7293C16.6896 40.7238 15.8571 40.5792 15.0546 40.2953C14.2576 40.0114 13.5424 39.5501 12.9092 38.9114C12.276 38.2727 11.7737 37.4266 11.4025 36.373C11.0368 35.3194 10.8539 34.0256 10.8539 32.4916C10.8594 31.0832 11.0204 29.8249 11.337 28.7167C11.6591 27.6031 12.1177 26.6587 12.7127 25.8835C13.3132 25.1083 14.031 24.5188 14.8663 24.1148C15.7015 23.7054 16.6377 23.5007 17.6749 23.5007C18.794 23.5007 19.7821 23.719 20.6392 24.1557C21.4962 24.587 22.1841 25.1739 22.7027 25.9163C23.2267 26.6587 23.5433 27.4912 23.6525 28.4138H20.156C20.0196 27.8297 19.733 27.3711 19.2962 27.0381C18.8595 26.7051 18.3191 26.5386 17.6749 26.5386C16.5831 26.5386 15.7533 27.0135 15.1856 27.9634C14.6233 28.9133 14.3367 30.2043 14.3258 31.8366H14.4405C14.6916 31.3398 15.03 30.9167 15.4558 30.5673C15.8871 30.2125 16.3757 29.9423 16.9216 29.7567C17.4729 29.5656 18.0543 29.4701 18.6657 29.4701C19.6593 29.4701 20.5436 29.7048 21.3188 30.1743C22.094 30.6383 22.7054 31.277 23.153 32.0904C23.6007 32.9038 23.8245 33.8346 23.8245 34.8827C23.8245 36.0182 23.5597 37.0281 23.0302 37.9124C22.5061 38.7968 21.7719 39.4901 20.8275 39.9923C19.8885 40.4891 18.7967 40.7347 17.5521 40.7293ZM17.5357 37.9452C18.0816 37.9452 18.5702 37.8142 19.0015 37.5521C19.4327 37.2901 19.7712 36.9353 20.0168 36.4876C20.2625 36.04 20.3853 35.5378 20.3853 34.9809C20.3853 34.4241 20.2625 33.9246 20.0168 33.4825C19.7766 33.0403 19.4436 32.6882 19.0178 32.4261C18.592 32.1641 18.1062 32.0331 17.5603 32.0331C17.1509 32.0331 16.7714 32.1095 16.4221 32.2624C16.0782 32.4152 15.7752 32.6281 15.5131 32.9011C15.2566 33.174 15.0546 33.4906 14.9072 33.8509C14.7598 34.2058 14.6861 34.5852 14.6861 34.9891C14.6861 35.5296 14.8089 36.0236 15.0546 36.4713C15.3057 36.9189 15.6442 37.2765 16.07 37.544C16.5012 37.8114 16.9898 37.9452 17.5357 37.9452Z" fill="white"/>
<path d="M17.5521 40.7293L17.5469 41.5528L17.5485 41.5528L17.5521 40.7293ZM15.0546 40.2953L14.7783 41.0711L14.78 41.0717L15.0546 40.2953ZM12.9092 38.9114L12.3244 39.4912L12.3244 39.4912L12.9092 38.9114ZM11.4025 36.373L10.6245 36.6431L10.6258 36.6467L11.4025 36.373ZM10.8539 32.4916L10.0304 32.4885V32.4916H10.8539ZM11.337 28.7167L10.5459 28.4879L10.5452 28.4905L11.337 28.7167ZM12.7127 25.8835L12.0616 25.3792L12.0594 25.3821L12.7127 25.8835ZM14.8663 24.1148L15.2248 24.8562L15.2287 24.8543L14.8663 24.1148ZM20.6392 24.1557L20.2653 24.8895L20.269 24.8914L20.6392 24.1557ZM22.7027 25.9163L22.0275 26.3879L22.0299 26.3912L22.7027 25.9163ZM23.6525 28.4138V29.2373H24.5793L24.4703 28.317L23.6525 28.4138ZM20.156 28.4138L19.3541 28.6011L19.5027 29.2373H20.156V28.4138ZM15.1856 27.9634L14.4787 27.5409L14.4769 27.5439L15.1856 27.9634ZM14.3258 31.8366L13.5023 31.8311L13.4968 32.6601H14.3258V31.8366ZM14.4405 31.8366V32.6601H14.9469L15.1754 32.2081L14.4405 31.8366ZM15.4558 30.5673L15.9782 31.204L15.9791 31.2033L15.4558 30.5673ZM16.9216 29.7567L17.1867 30.5364L17.1912 30.5348L16.9216 29.7567ZM21.3188 30.1743L20.8922 30.8787L20.8958 30.8809L21.3188 30.1743ZM23.0302 37.9124L22.3236 37.4894L22.3217 37.4926L23.0302 37.9124ZM20.8275 39.9923L21.2126 40.7202L21.2142 40.7194L20.8275 39.9923ZM19.0015 37.5521L19.4291 38.2559L19.4291 38.2559L19.0015 37.5521ZM20.0168 36.4876L19.2949 36.0914L19.2949 36.0914L20.0168 36.4876ZM20.0168 33.4825L19.2931 33.8756L19.2969 33.8824L20.0168 33.4825ZM19.0178 32.4261L19.4494 31.7248L19.4494 31.7248L19.0178 32.4261ZM16.4221 32.2624L16.092 31.5079L16.0876 31.5098L16.4221 32.2624ZM15.5131 32.9011L14.919 32.3307L14.9131 32.337L15.5131 32.9011ZM14.9072 33.8509L15.6677 34.1669L15.6694 34.1628L14.9072 33.8509ZM15.0546 36.4713L14.3326 36.8675L14.3364 36.8742L15.0546 36.4713ZM16.07 37.544L15.6319 38.2413L15.6359 38.2438L16.07 37.544ZM17.5521 40.7293L17.5573 39.9058C16.7853 39.9009 16.044 39.7717 15.3292 39.5189L15.0546 40.2953L14.78 41.0717C15.6701 41.3866 16.5938 41.5468 17.5469 41.5528L17.5521 40.7293ZM15.0546 40.2953L15.3309 39.5195C14.6574 39.2796 14.046 38.8884 13.494 38.3316L12.9092 38.9114L12.3244 39.4912C13.0389 40.2119 13.8578 40.7432 14.7783 41.0711L15.0546 40.2953ZM12.9092 38.9114L13.494 38.3316C12.9648 37.7978 12.5195 37.0651 12.1792 36.0993L11.4025 36.373L10.6258 36.6467C11.028 37.7881 11.5871 38.7476 12.3244 39.4912L12.9092 38.9114ZM11.4025 36.373L12.1805 36.1029C11.8539 35.162 11.6774 33.9657 11.6774 32.4916H10.8539H10.0304C10.0304 34.0855 10.2197 35.4768 10.6245 36.6431L11.4025 36.373ZM10.8539 32.4916L11.6774 32.4948C11.6826 31.1458 11.837 29.9646 12.1289 28.943L11.337 28.7167L10.5452 28.4905C10.2038 29.6852 10.0361 31.0206 10.0304 32.4885L10.8539 32.4916ZM11.337 28.7167L12.1281 28.9455C12.4269 27.9126 12.8439 27.065 13.3659 26.385L12.7127 25.8835L12.0594 25.3821C11.3914 26.2524 10.8913 27.2936 10.5459 28.4879L11.337 28.7167ZM12.7127 25.8835L13.3637 26.3878C13.8909 25.7073 14.5106 25.2016 15.2248 24.8562L14.8663 24.1148L14.5077 23.3734C13.5515 23.8359 12.7355 24.5093 12.0616 25.3792L12.7127 25.8835ZM14.8663 24.1148L15.2287 24.8543C15.9387 24.5062 16.7488 24.3242 17.6749 24.3242V23.5007V22.6771C16.5267 22.6771 15.4643 22.9045 14.5038 23.3753L14.8663 24.1148ZM17.6749 23.5007V24.3242C18.6853 24.3242 19.5416 24.5207 20.2653 24.8895L20.6392 24.1557L21.013 23.422C20.0226 22.9173 18.9027 22.6771 17.6749 22.6771V23.5007ZM20.6392 24.1557L20.269 24.8914C21.0116 25.265 21.5918 25.7641 22.0275 26.3879L22.7027 25.9163L23.3778 25.4447C22.7763 24.5836 21.9809 23.909 21.0093 23.4201L20.6392 24.1557ZM22.7027 25.9163L22.0299 26.3912C22.473 27.019 22.7413 27.721 22.8347 28.5106L23.6525 28.4138L24.4703 28.317C24.3454 27.2614 23.9804 26.2984 23.3755 25.4414L22.7027 25.9163ZM23.6525 28.4138V27.5902H20.156V28.4138V29.2373H23.6525V28.4138ZM20.156 28.4138L20.958 28.2264C20.7823 27.4744 20.3988 26.8432 19.7956 26.3832L19.2962 27.0381L18.7969 27.693C19.0672 27.899 19.2568 28.1849 19.3541 28.6011L20.156 28.4138ZM19.2962 27.0381L19.7956 26.3832C19.1916 25.9227 18.4671 25.7151 17.6749 25.7151V26.5386V27.3621C18.171 27.3621 18.5274 27.4875 18.7969 27.693L19.2962 27.0381ZM17.6749 26.5386V25.7151C16.2885 25.7151 15.1926 26.3465 14.4787 27.5409L15.1856 27.9634L15.8925 28.3859C16.314 27.6806 16.8777 27.3621 17.6749 27.3621V26.5386ZM15.1856 27.9634L14.4769 27.5439C13.8131 28.6653 13.5138 30.1181 13.5023 31.8311L14.3258 31.8366L15.1493 31.8421C15.1597 30.2906 15.4335 29.1613 15.8943 28.3829L15.1856 27.9634ZM14.3258 31.8366V32.6601H14.4405V31.8366V31.013H14.3258V31.8366ZM14.4405 31.8366L15.1754 32.2081C15.3754 31.8124 15.6419 31.4799 15.9782 31.204L15.4558 30.5673L14.9335 29.9307C14.4182 30.3535 14.0077 30.8672 13.7055 31.465L14.4405 31.8366ZM15.4558 30.5673L15.9791 31.2033C16.3312 30.9136 16.7317 30.6911 17.1867 30.5364L16.9216 29.7567L16.6565 28.977C16.0197 29.1935 15.443 29.5114 14.9326 29.9314L15.4558 30.5673ZM16.9216 29.7567L17.1912 30.5348C17.6518 30.3752 18.1417 30.2936 18.6657 30.2936V29.4701V28.6466C17.967 28.6466 17.2941 28.756 16.6519 28.9786L16.9216 29.7567ZM18.6657 29.4701V30.2936C19.5238 30.2936 20.2579 30.4946 20.8922 30.8787L21.3188 30.1743L21.7454 29.4699C20.8294 28.9151 19.7947 28.6466 18.6657 28.6466V29.4701ZM21.3188 30.1743L20.8958 30.8809C21.5423 31.2679 22.0522 31.7982 22.4315 32.4875L23.153 32.0904L23.8745 31.6933C23.3586 30.7559 22.6457 30.0088 21.7418 29.4677L21.3188 30.1743ZM23.153 32.0904L22.4315 32.4875C22.804 33.1642 23.001 33.9552 23.001 34.8827H23.8245H24.648C24.648 33.7139 24.3973 32.6434 23.8745 31.6933L23.153 32.0904ZM23.8245 34.8827H23.001C23.001 35.8847 22.769 36.7456 22.3236 37.4894L23.0302 37.9124L23.7368 38.3355C24.3505 37.3105 24.648 36.1516 24.648 34.8827H23.8245ZM23.0302 37.9124L22.3217 37.4926C21.8779 38.2415 21.2575 38.8309 20.4408 39.2652L20.8275 39.9923L21.2142 40.7194C22.2863 40.1493 23.1344 39.3521 23.7387 38.3323L23.0302 37.9124ZM20.8275 39.9923L20.4424 39.2644C19.6422 39.6877 18.6882 39.9107 17.5557 39.9058L17.5521 40.7293L17.5485 41.5528C18.9053 41.5588 20.1349 41.2904 21.2126 40.7202L20.8275 39.9923ZM17.5357 37.9452V38.7687C18.2196 38.7687 18.8584 38.6027 19.4291 38.2559L19.0015 37.5521L18.5738 36.8483C18.282 37.0257 17.9436 37.1217 17.5357 37.1217V37.9452ZM19.0015 37.5521L19.4291 38.2559C19.9852 37.918 20.4245 37.4565 20.7388 36.8838L20.0168 36.4876L19.2949 36.0914C19.1178 36.4141 18.8802 36.6622 18.5738 36.8483L19.0015 37.5521ZM20.0168 36.4876L20.7388 36.8838C21.057 36.304 21.2088 35.6634 21.2088 34.9809H20.3853H19.5618C19.5618 35.4121 19.468 35.776 19.2949 36.0914L20.0168 36.4876ZM20.3853 34.9809H21.2088C21.2088 34.2986 21.057 33.6591 20.7367 33.0825L20.0168 33.4825L19.2969 33.8824C19.4679 34.1902 19.5618 34.5496 19.5618 34.9809H20.3853ZM20.0168 33.4825L20.7405 33.0894C20.432 32.5215 19.9987 32.0628 19.4494 31.7248L19.0178 32.4261L18.5862 33.1275C18.8886 33.3136 19.1212 33.559 19.2932 33.8755L20.0168 33.4825ZM19.0178 32.4261L19.4494 31.7248C18.882 31.3756 18.2441 31.2096 17.5603 31.2096V32.0331V32.8566C17.9683 32.8566 18.302 32.9526 18.5862 33.1275L19.0178 32.4261ZM17.5603 32.0331V31.2096C17.0457 31.2096 16.5529 31.3062 16.092 31.5079L16.4221 32.2624L16.7522 33.0168C16.99 32.9128 17.256 32.8566 17.5603 32.8566V32.0331ZM16.4221 32.2624L16.0876 31.5098C15.6456 31.7063 15.2546 31.9812 14.9191 32.3307L15.5131 32.9011L16.1072 33.4714C16.2958 33.275 16.5107 33.1242 16.7565 33.0149L16.4221 32.2624ZM15.5131 32.9011L14.9131 32.337C14.5848 32.6863 14.329 33.0892 14.145 33.5391L14.9072 33.8509L15.6694 34.1628C15.7802 33.892 15.9284 33.6618 16.1132 33.4651L15.5131 32.9011ZM14.9072 33.8509L14.1467 33.535C13.9556 33.9951 13.8626 34.4824 13.8626 34.9891H14.6861H15.5096C15.5096 34.6879 15.564 34.4165 15.6677 34.1668L14.9072 33.8509ZM14.6861 34.9891H13.8626C13.8626 35.6597 14.0164 36.2913 14.3326 36.8675L15.0546 36.4713L15.7766 36.0751C15.6014 35.756 15.5096 35.3994 15.5096 34.9891H14.6861ZM15.0546 36.4713L14.3364 36.8742C14.6533 37.4392 15.0871 37.899 15.6319 38.2413L16.07 37.544L16.508 36.8466C16.2013 36.6539 15.9581 36.3986 15.7728 36.0683L15.0546 36.4713ZM16.07 37.544L15.6359 38.2438C16.2074 38.5983 16.8485 38.7687 17.5357 38.7687V37.9452V37.1217C17.1311 37.1217 16.7951 37.0246 16.504 36.8441L16.07 37.544Z" fill="#2B3F46" mask="url(#path-33-outside-1_2122_4393)"/>
<mask id="path-35-outside-2_2122_4393" maskUnits="userSpaceOnUse" x="26.3535" y="28" width="12" height="11" fill="black">
<rect fill="white" x="26.3535" y="28" width="12" height="11"/>
<path d="M30.7484 29.2727L32.3507 32.3239L33.9927 29.2727H36.4757L33.9473 33.6364L36.5439 38H34.0723L32.3507 34.983L30.6575 38H28.1575L30.7484 33.6364L28.2484 29.2727H30.7484Z"/>
</mask>
<path d="M30.7484 29.2727L32.3507 32.3239L33.9927 29.2727H36.4757L33.9473 33.6364L36.5439 38H34.0723L32.3507 34.983L30.6575 38H28.1575L30.7484 33.6364L28.2484 29.2727H30.7484Z" fill="white"/>
<path d="M30.7484 29.2727L31.4775 28.8898L31.2461 28.4492H30.7484V29.2727ZM32.3507 32.3239L31.6216 32.7067L32.3418 34.0782L33.0759 32.7141L32.3507 32.3239ZM33.9927 29.2727V28.4492H33.5007L33.2675 28.8825L33.9927 29.2727ZM36.4757 29.2727L37.1882 29.6856L37.9046 28.4492H36.4757V29.2727ZM33.9473 33.6364L33.2347 33.2235L32.9923 33.6419L33.2396 34.0575L33.9473 33.6364ZM36.5439 38V38.8235H37.9922L37.2516 37.5789L36.5439 38ZM34.0723 38L33.357 38.4081L33.594 38.8235H34.0723V38ZM32.3507 34.983L33.0659 34.5748L32.3447 33.3109L31.6325 34.5799L32.3507 34.983ZM30.6575 38V38.8235H31.1397L31.3757 38.403L30.6575 38ZM28.1575 38L27.4494 37.5796L26.7108 38.8235H28.1575V38ZM30.7484 33.6364L31.4565 34.0568L31.7018 33.6438L31.463 33.227L30.7484 33.6364ZM28.2484 29.2727V28.4492H26.8275L27.5338 29.6821L28.2484 29.2727ZM30.7484 29.2727L30.0193 29.6556L31.6216 32.7067L32.3507 32.3239L33.0798 31.941L31.4775 28.8898L30.7484 29.2727ZM32.3507 32.3239L33.0759 32.7141L34.7179 29.663L33.9927 29.2727L33.2675 28.8825L31.6255 31.9336L32.3507 32.3239ZM33.9927 29.2727V30.0963H36.4757V29.2727V28.4492H33.9927V29.2727ZM36.4757 29.2727L35.7631 28.8599L33.2347 33.2235L33.9473 33.6364L34.6598 34.0492L37.1882 29.6856L36.4757 29.2727ZM33.9473 33.6364L33.2396 34.0575L35.8361 38.4211L36.5439 38L37.2516 37.5789L34.655 33.2152L33.9473 33.6364ZM36.5439 38V37.1765H34.0723V38V38.8235H36.5439V38ZM34.0723 38L34.7875 37.5919L33.0659 34.5748L32.3507 34.983L31.6354 35.3911L33.357 38.4081L34.0723 38ZM32.3507 34.983L31.6325 34.5799L29.9393 37.597L30.6575 38L31.3757 38.403L33.0688 35.386L32.3507 34.983ZM30.6575 38V37.1765H28.1575V38V38.8235H30.6575V38ZM28.1575 38L28.8656 38.4204L31.4565 34.0568L30.7484 33.6364L30.0403 33.2159L27.4494 37.5796L28.1575 38ZM30.7484 33.6364L31.463 33.227L28.963 28.8633L28.2484 29.2727L27.5338 29.6821L30.0338 34.0457L30.7484 33.6364ZM28.2484 29.2727V30.0963H30.7484V29.2727V28.4492H28.2484V29.2727Z" fill="#2B3F46" mask="url(#path-35-outside-2_2122_4393)"/>
<mask id="path-37-outside-3_2122_4393" maskUnits="userSpaceOnUse" x="40.3535" y="22.5" width="14" height="19" fill="black">
<rect fill="white" x="40.3535" y="22.5" width="14" height="19"/>
<path d="M41.4517 40.5V37.9452L47.4211 32.4179C47.9288 31.9266 48.3546 31.4845 48.6985 31.0914C49.0479 30.6984 49.3126 30.3135 49.4928 29.9368C49.6729 29.5547 49.763 29.1425 49.763 28.7004C49.763 28.2091 49.6511 27.786 49.4273 27.4311C49.2034 27.0709 48.8977 26.7952 48.5101 26.6041C48.1226 26.4076 47.6831 26.3093 47.1918 26.3093C46.6786 26.3093 46.231 26.413 45.8489 26.6205C45.4667 26.8279 45.172 27.1254 44.9645 27.513C44.7571 27.9006 44.6534 28.3619 44.6534 28.8969H41.2879C41.2879 27.7996 41.5363 26.847 42.033 26.0391C42.5298 25.2312 43.2258 24.6061 44.1211 24.1639C45.0164 23.7218 46.0481 23.5007 47.2164 23.5007C48.4173 23.5007 49.4627 23.7136 50.3526 24.1394C51.2478 24.5597 51.9439 25.1438 52.4406 25.8917C52.9374 26.6396 53.1858 27.4967 53.1858 28.4629C53.1858 29.0961 53.0602 29.7212 52.8091 30.3381C52.5635 30.9549 52.124 31.64 51.4908 32.3934C50.8575 33.1413 49.965 34.0393 48.8131 35.0874L46.3648 37.4866V37.6013H53.4069V40.5H41.4517Z"/>
</mask>
<path d="M41.4517 40.5V37.9452L47.4211 32.4179C47.9288 31.9266 48.3546 31.4845 48.6985 31.0914C49.0479 30.6984 49.3126 30.3135 49.4928 29.9368C49.6729 29.5547 49.763 29.1425 49.763 28.7004C49.763 28.2091 49.6511 27.786 49.4273 27.4311C49.2034 27.0709 48.8977 26.7952 48.5101 26.6041C48.1226 26.4076 47.6831 26.3093 47.1918 26.3093C46.6786 26.3093 46.231 26.413 45.8489 26.6205C45.4667 26.8279 45.172 27.1254 44.9645 27.513C44.7571 27.9006 44.6534 28.3619 44.6534 28.8969H41.2879C41.2879 27.7996 41.5363 26.847 42.033 26.0391C42.5298 25.2312 43.2258 24.6061 44.1211 24.1639C45.0164 23.7218 46.0481 23.5007 47.2164 23.5007C48.4173 23.5007 49.4627 23.7136 50.3526 24.1394C51.2478 24.5597 51.9439 25.1438 52.4406 25.8917C52.9374 26.6396 53.1858 27.4967 53.1858 28.4629C53.1858 29.0961 53.0602 29.7212 52.8091 30.3381C52.5635 30.9549 52.124 31.64 51.4908 32.3934C50.8575 33.1413 49.965 34.0393 48.8131 35.0874L46.3648 37.4866V37.6013H53.4069V40.5H41.4517Z" fill="white"/>
<path d="M41.4517 40.5H40.6281V41.3235H41.4517V40.5ZM41.4517 37.9452L40.8921 37.3409L40.6281 37.5854V37.9452H41.4517ZM47.4211 32.4179L47.9806 33.0222L47.9872 33.0161L47.9938 33.0097L47.4211 32.4179ZM48.6985 31.0914L48.0829 30.5443L48.0787 30.5491L48.6985 31.0914ZM49.4928 29.9368L50.2357 30.2922L50.2377 30.288L49.4928 29.9368ZM49.4273 27.4311L48.7277 27.8657L48.7307 27.8705L49.4273 27.4311ZM48.5101 26.6041L48.1377 27.3387L48.146 27.3428L48.5101 26.6041ZM45.8489 26.6205L45.456 25.8967L45.456 25.8967L45.8489 26.6205ZM44.6534 28.8969V29.7204H45.4769V28.8969H44.6534ZM41.2879 28.8969H40.4644V29.7204H41.2879V28.8969ZM44.1211 24.1639L43.7564 23.4256L43.7564 23.4256L44.1211 24.1639ZM50.3526 24.1394L49.9971 24.8822L50.0026 24.8848L50.3526 24.1394ZM52.4406 25.8917L53.1266 25.4361L53.1266 25.4361L52.4406 25.8917ZM52.8091 30.3381L52.0463 30.0276L52.044 30.0334L52.8091 30.3381ZM51.4908 32.3934L52.1193 32.9255L52.1212 32.9233L51.4908 32.3934ZM48.8131 35.0874L48.2589 34.4783L48.2476 34.4885L48.2367 34.4992L48.8131 35.0874ZM46.3648 37.4866L45.7884 36.8984L45.5412 37.1406V37.4866H46.3648ZM46.3648 37.6013H45.5412V38.4248H46.3648V37.6013ZM53.4069 37.6013H54.2304V36.7777H53.4069V37.6013ZM53.4069 40.5V41.3235H54.2304V40.5H53.4069ZM41.4517 40.5H42.2752V37.9452H41.4517H40.6281V40.5H41.4517ZM41.4517 37.9452L42.0112 38.5495L47.9806 33.0222L47.4211 32.4179L46.8616 31.8137L40.8921 37.3409L41.4517 37.9452ZM47.4211 32.4179L47.9938 33.0097C48.5125 32.5077 48.9552 32.0487 49.3182 31.6337L48.6985 31.0914L48.0787 30.5491C47.754 30.9203 47.345 31.3456 46.8484 31.8262L47.4211 32.4179ZM48.6985 31.0914L49.314 31.6385C49.702 31.202 50.015 30.7537 50.2357 30.2921L49.4928 29.9368L48.7498 29.5815C48.6103 29.8733 48.3937 30.1947 48.083 30.5443L48.6985 31.0914ZM49.4928 29.9368L50.2377 30.288C50.472 29.7909 50.5865 29.2582 50.5865 28.7004H49.763H48.9395C48.9395 29.0269 48.8738 29.3185 48.7479 29.5857L49.4928 29.9368ZM49.763 28.7004H50.5865C50.5865 28.0806 50.4439 27.4993 50.1238 26.9918L49.4273 27.4311L48.7307 27.8705C48.8582 28.0727 48.9395 28.3375 48.9395 28.7004H49.763ZM49.4273 27.4311L50.1268 26.9966C49.8202 26.503 49.3971 26.1232 48.8743 25.8655L48.5101 26.6041L48.146 27.3428C48.3983 27.4671 48.5867 27.6387 48.7277 27.8657L49.4273 27.4311ZM48.5101 26.6041L48.8826 25.8696C48.3653 25.6073 47.7955 25.4858 47.1918 25.4858V26.3093V27.1329C47.5707 27.1329 47.8798 27.2079 48.1377 27.3386L48.5101 26.6041ZM47.1918 26.3093V25.4858C46.5662 25.4858 45.9787 25.6129 45.456 25.8967L45.8489 26.6205L46.2418 27.3442C46.4833 27.2132 46.7911 27.1329 47.1918 27.1329V26.3093ZM45.8489 26.6205L45.456 25.8967C44.9308 26.1818 44.5209 26.5966 44.2384 27.1244L44.9645 27.513L45.6906 27.9016C45.823 27.6543 46.0027 27.474 46.2418 27.3442L45.8489 26.6205ZM44.9645 27.513L44.2384 27.1244C43.9546 27.6548 43.8298 28.2555 43.8298 28.8969H44.6534H45.4769C45.4769 28.4684 45.5596 28.1464 45.6906 27.9016L44.9645 27.513ZM44.6534 28.8969V28.0734H41.2879V28.8969V29.7204H44.6534V28.8969ZM41.2879 28.8969H42.1114C42.1114 27.9276 42.3294 27.1294 42.7346 26.4704L42.033 26.0391L41.3315 25.6078C40.7431 26.5647 40.4644 27.6717 40.4644 28.8969H41.2879ZM42.033 26.0391L42.7346 26.4704C43.1458 25.8016 43.7218 25.2797 44.4858 24.9023L44.1211 24.1639L43.7564 23.4256C42.7299 23.9326 41.9138 24.6607 41.3315 25.6078L42.033 26.0391ZM44.1211 24.1639L44.4858 24.9023C45.2499 24.5249 46.1532 24.3242 47.2164 24.3242V23.5007V22.6771C45.9431 22.6771 44.7829 22.9186 43.7564 23.4256L44.1211 24.1639ZM47.2164 23.5007V24.3242C48.3206 24.3242 49.2397 24.5198 49.9971 24.8822L50.3526 24.1394L50.708 23.3965C49.6857 22.9073 48.5141 22.6771 47.2164 22.6771V23.5007ZM50.3526 24.1394L50.0026 24.8848C50.7757 25.2478 51.3496 25.7375 51.7546 26.3474L52.4406 25.8917L53.1266 25.4361C52.5381 24.5501 51.7199 23.8716 50.7026 23.3939L50.3526 24.1394ZM52.4406 25.8917L51.7546 26.3474C52.1548 26.9498 52.3622 27.6458 52.3622 28.4629H53.1858H54.0093C54.0093 27.3475 53.72 26.3294 53.1266 25.4361L52.4406 25.8917ZM53.1858 28.4629H52.3622C52.3622 28.9842 52.2594 29.5041 52.0464 30.0276L52.8091 30.3381L53.5719 30.6486C53.861 29.9383 54.0093 29.2081 54.0093 28.4629H53.1858ZM52.8091 30.3381L52.044 30.0334C51.8426 30.5392 51.4616 31.1483 50.8604 31.8635L51.4908 32.3934L52.1212 32.9233C52.7864 32.1318 53.2843 31.3706 53.5742 30.6428L52.8091 30.3381ZM51.4908 32.3934L50.8623 31.8612C50.2614 32.5709 49.3977 33.442 48.2589 34.4783L48.8131 35.0874L49.3674 35.6965C50.5322 34.6366 51.4536 33.7117 52.1193 32.9255L51.4908 32.3934ZM48.8131 35.0874L48.2367 34.4992L45.7884 36.8984L46.3648 37.4866L46.9411 38.0748L49.3895 35.6756L48.8131 35.0874ZM46.3648 37.4866H45.5412V37.6013H46.3648H47.1883V37.4866H46.3648ZM46.3648 37.6013V38.4248H53.4069V37.6013V36.7777H46.3648V37.6013ZM53.4069 37.6013H52.5833V40.5H53.4069H54.2304V37.6013H53.4069ZM53.4069 40.5V39.6765H41.4517V40.5V41.3235H53.4069V40.5Z" fill="#2B3F46" mask="url(#path-37-outside-3_2122_4393)"/>
<defs>
<linearGradient id="paint0_linear_2122_4393" x1="35.8411" y1="35.864" x2="-1.88188" y2="2.08424" gradientUnits="userSpaceOnUse">
<stop stop-color="#FFD5EF"/>
<stop offset="1" stop-color="#EFBDFD"/>
</linearGradient>
<linearGradient id="paint1_linear_2122_4393" x1="26.8809" y1="4.483" x2="25.174" y2="-4.68761" gradientUnits="userSpaceOnUse">
<stop stop-color="#F95457"/>
<stop offset="1" stop-color="#FDBDCB"/>
</linearGradient>
<linearGradient id="paint2_linear_2122_4393" x1="26.8809" y1="4.483" x2="25.174" y2="-4.68761" gradientUnits="userSpaceOnUse">
<stop stop-color="#F95457"/>
<stop offset="1" stop-color="#FDBDCB"/>
</linearGradient>
<linearGradient id="paint3_linear_2122_4393" x1="4.71844" y1="43.652" x2="1.80424" y2="43.0279" gradientUnits="userSpaceOnUse">
<stop stop-color="#F95457"/>
<stop offset="1" stop-color="#FDBDCB"/>
</linearGradient>
<linearGradient id="paint4_linear_2122_4393" x1="35.7657" y1="58.0257" x2="30.2143" y2="50.8928" gradientUnits="userSpaceOnUse">
<stop stop-color="#F95457"/>
<stop offset="1" stop-color="#FDBDCB"/>
</linearGradient>
<linearGradient id="paint5_linear_2122_4393" x1="60.6657" y1="43.652" x2="57.7515" y2="43.0279" gradientUnits="userSpaceOnUse">
<stop stop-color="#F95457"/>
<stop offset="1" stop-color="#FDBDCB"/>
</linearGradient>
<linearGradient id="paint6_linear_2122_4393" x1="-1.09962e-05" y1="-0.0328651" x2="30.641" y2="-4.05264" gradientUnits="userSpaceOnUse">
<stop stop-color="#D74446"/>
<stop offset="1" stop-color="#E165B8"/>
</linearGradient>
<linearGradient id="paint7_linear_2122_4393" x1="-1.11276e-05" y1="-0.033258" x2="31.0073" y2="-4.10108" gradientUnits="userSpaceOnUse">
<stop stop-color="#D74446"/>
<stop offset="1" stop-color="#E165B8"/>
</linearGradient>
<linearGradient id="paint8_linear_2122_4393" x1="-8.34573e-06" y1="-0.00415724" x2="14.606" y2="-11.5011" gradientUnits="userSpaceOnUse">
<stop stop-color="#D1369D"/>
<stop offset="1" stop-color="#B31E20"/>
</linearGradient>
<linearGradient id="paint9_linear_2122_4393" x1="-8.34573e-06" y1="-0.00415724" x2="14.606" y2="-11.5011" gradientUnits="userSpaceOnUse">
<stop stop-color="#D74446"/>
<stop offset="1" stop-color="#E165B8"/>
</linearGradient>
<linearGradient id="paint10_linear_2122_4393" x1="2.32031" y1="36.6188" x2="3.73321" y2="36.5744" gradientUnits="userSpaceOnUse">
<stop stop-color="#D74446"/>
<stop offset="1" stop-color="#D1369D"/>
</linearGradient>
<linearGradient id="paint11_linear_2122_4393" x1="27.5449" y1="52.5135" x2="34.14" y2="51.2721" gradientUnits="userSpaceOnUse">
<stop stop-color="#B31E20"/>
<stop offset="1" stop-color="#D74446"/>
</linearGradient>
<linearGradient id="paint12_linear_2122_4393" x1="59.0059" y1="36.6188" x2="60.4188" y2="36.5744" gradientUnits="userSpaceOnUse">
<stop stop-color="#E165B8"/>
<stop offset="1" stop-color="#D74446"/>
</linearGradient>
<clipPath id="clip0_2122_4393">
<rect width="63" height="39.5638" fill="white" transform="translate(0 18.4604)"/>
</clipPath>
<clipPath id="clip1_2122_4393">
<rect width="35.8992" height="35.8992" rx="4.44179" transform="matrix(0.866025 0.5 -0.866025 0.5 31.9102 19)" fill="white"/>
</clipPath>
<clipPath id="clip2_2122_4393">
<rect width="36.3731" height="36.3731" rx="4.50041" transform="matrix(0.866025 0.5 -0.866025 0.5 31.5 18.4607)" fill="white"/>
</clipPath>
</defs>
</svg>
