<svg width="198" height="198" viewBox="0 0 198 198" fill="none" xmlns="http://www.w3.org/2000/svg">
<g clip-path="url(#clip0_2417_9397)">
<rect width="110.591" height="110.591" rx="13.5044" transform="matrix(0.866025 0.5 -0.866025 0.5 98.3535 58.603)" fill="url(#paint0_linear_2417_9397)"/>
<rect width="82.9429" height="13.8238" transform="matrix(0.866025 0.5 0 1 14.5508 120.81)" fill="url(#paint1_linear_2417_9397)"/>
<rect width="82.9429" height="13.8238" transform="matrix(0.866025 -0.5 0 1 110.326 162.282)" fill="url(#paint2_linear_2417_9397)"/>
<path d="M9.5918 113.898C9.5918 116.598 11.4868 119.041 14.5507 120.81V134.634C11.4868 132.865 9.5918 130.422 9.5918 127.722V113.898Z" fill="url(#paint3_linear_2417_9397)"/>
<path d="M86.3828 162.282C92.9946 166.099 103.715 166.099 110.326 162.282V176.106C103.715 179.923 92.9946 179.923 86.3828 176.106V162.282Z" fill="url(#paint4_linear_2417_9397)"/>
<path d="M187.115 113.898C187.115 116.598 185.22 119.041 182.156 120.81V134.634C185.22 132.865 187.115 130.422 187.115 127.722V113.898Z" fill="url(#paint5_linear_2417_9397)"/>
<g clip-path="url(#clip1_2417_9397)">
<rect width="110.727" height="110.727" rx="13.7001" transform="matrix(0.866025 0.5 -0.866025 0.5 98.4219 58.603)" fill="url(#paint6_linear_2417_9397)"/>
<rect width="35.6535" height="35.6535" transform="matrix(0.866025 0.5 -0.866025 0.5 98.4219 58.603)" fill="black" fill-opacity="0.1"/>
<rect width="35.6535" height="35.6535" transform="matrix(0.866025 0.5 -0.866025 0.5 65.9141 77.3711)" fill="black" fill-opacity="0.1"/>
<rect width="35.6535" height="35.6535" transform="matrix(0.866025 0.5 -0.866025 0.5 65.9141 114.908)" fill="black" fill-opacity="0.1"/>
<rect width="35.6535" height="35.6535" transform="matrix(0.866025 0.5 -0.866025 0.5 130.93 77.3711)" fill="black" fill-opacity="0.1"/>
<rect width="35.6535" height="35.6535" transform="matrix(0.866025 0.5 -0.866025 0.5 130.93 114.908)" fill="black" fill-opacity="0.1"/>
<rect width="35.6535" height="35.6535" transform="matrix(0.866025 0.5 -0.866025 0.5 163.438 96.1396)" fill="black" fill-opacity="0.1"/>
<rect width="35.6535" height="35.6535" transform="matrix(0.866025 0.5 -0.866025 0.5 33.4062 96.1396)" fill="black" fill-opacity="0.1"/>
<rect width="35.6535" height="35.6535" transform="matrix(0.866025 0.5 -0.866025 0.5 98.4219 133.676)" fill="black" fill-opacity="0.1"/>
<rect width="35.6535" height="35.6535" transform="matrix(0.866025 0.5 -0.866025 0.5 98.4219 96.1396)" fill="black" fill-opacity="0.1"/>
</g>
<rect width="112.05" height="112.05" rx="13.6827" transform="matrix(0.866025 0.5 -0.866025 0.5 97.0898 56.9395)" fill="url(#paint7_linear_2417_9397)"/>
<rect width="84.0376" height="14.0063" transform="matrix(0.866025 0.5 0 1 12.1797 119.969)" fill="url(#paint8_linear_2417_9397)"/>
<rect width="84.0376" height="14.0063" transform="matrix(0.866025 -0.5 0 1 109.219 161.987)" fill="url(#paint9_linear_2417_9397)"/>
<path d="M7.15625 112.965C7.15625 115.7 9.07629 118.176 12.1806 119.968V133.974C9.07629 132.182 7.15625 129.706 7.15625 126.971V112.965Z" fill="url(#paint10_linear_2417_9397)"/>
<path d="M84.959 161.987C91.6581 165.855 102.519 165.855 109.219 161.987V175.993C102.519 179.861 91.6581 179.861 84.959 175.993V161.987Z" fill="url(#paint11_linear_2417_9397)"/>
<path d="M187.022 112.965C187.022 115.7 185.102 118.176 181.998 119.968V133.974C185.102 132.182 187.022 129.706 187.022 126.971V112.965Z" fill="url(#paint12_linear_2417_9397)"/>
<g clip-path="url(#clip2_2417_9397)">
<rect width="36.1241" height="36.1241" transform="matrix(0.866025 0.5 -0.866025 0.5 97.1582 56.9395)" fill="black" fill-opacity="0.5"/>
<rect width="36.1241" height="36.1241" transform="matrix(0.866025 0.5 -0.866025 0.5 64.2207 75.9556)" fill="black" fill-opacity="0.5"/>
<rect width="36.1241" height="36.1241" transform="matrix(0.866025 0.5 -0.866025 0.5 64.2207 113.987)" fill="black" fill-opacity="0.5"/>
<rect width="36.1241" height="36.1241" transform="matrix(0.866025 0.5 -0.866025 0.5 130.096 75.9556)" fill="black" fill-opacity="0.5"/>
<rect width="36.1241" height="36.1241" transform="matrix(0.866025 0.5 -0.866025 0.5 130.096 113.987)" fill="black" fill-opacity="0.5"/>
<rect width="36.1241" height="36.1241" transform="matrix(0.866025 0.5 -0.866025 0.5 163.031 94.9717)" fill="black" fill-opacity="0.5"/>
<rect width="36.1241" height="36.1241" transform="matrix(0.866025 0.5 -0.866025 0.5 31.2852 94.9717)" fill="black" fill-opacity="0.5"/>
<rect width="36.1241" height="36.1241" transform="matrix(0.866025 0.5 -0.866025 0.5 97.1582 133.003)" fill="black" fill-opacity="0.5"/>
<rect width="36.1241" height="36.1241" transform="matrix(0.866025 0.5 -0.866025 0.5 97.1582 94.9712)" fill="black" fill-opacity="0.5"/>
</g>
</g>
<g filter="url(#filter0_d_2417_9397)">
<path d="M98.6831 105.885C97.9504 105.462 97.584 104.827 97.584 103.981V38.8461C97.584 38.4231 97.6756 38.1587 97.8587 38.0529C98.0419 37.9471 98.3167 38 98.6831 38.2115L123.876 52.7565C124.579 53.1626 125.165 53.7718 125.634 54.5841L134.428 69.8144C134.926 70.6774 135.175 71.4982 135.175 72.2766V92.076C135.175 92.8883 134.926 93.4213 134.428 93.6752C134.428 93.6752 132.229 94.9444 130.031 96.2136C127.833 97.4827 125.634 98.7519 125.634 98.7519C125.165 99.0565 124.579 99.0058 123.876 98.5996L113.368 92.5329V113.094C113.368 113.517 113.276 113.781 113.093 113.887C112.91 113.993 112.635 113.94 112.269 113.728L98.6831 105.885ZM115.962 78.0387C118.014 79.2233 119.464 79.5533 120.314 79.0287C121.164 78.4703 121.589 76.9049 121.589 74.3327C121.589 71.7605 121.164 69.7044 120.314 68.1644C119.464 66.6245 118.014 65.2622 115.962 64.0776C113.939 62.91 112.503 62.6054 111.653 63.1638C110.803 63.7223 110.378 65.2876 110.378 67.8598C110.378 70.4321 110.803 72.4881 111.653 74.0281C112.503 75.5342 113.939 76.8711 115.962 78.0387Z" fill="#EC008C"/>
<path d="M81.2695 113.4C81.2695 114.246 81.6359 114.88 82.3687 115.303L98.6824 105.885C97.9496 105.462 97.5832 104.827 97.5832 103.981L81.2695 113.4Z" fill="url(#paint13_linear_2417_9397)"/>
<path d="M82.3691 115.303L95.9547 123.147L112.268 113.728L98.6828 105.885L82.3691 115.303Z" fill="url(#paint14_linear_2417_9397)"/>
<path d="M95.9551 123.147C96.3215 123.358 96.5963 123.411 96.7795 123.305L113.093 113.887C112.91 113.992 112.635 113.94 112.269 113.728L95.9551 123.147Z" fill="url(#paint15_linear_2417_9397)"/>
<path d="M96.7793 123.306C96.9625 123.2 97.054 122.936 97.054 122.512L113.368 113.094C113.368 113.517 113.276 113.781 113.093 113.887L96.7793 123.306Z" fill="url(#paint16_linear_2417_9397)"/>
<path d="M97.0547 122.512V101.951L113.368 92.5327V113.094L97.0547 122.512Z" fill="url(#paint17_linear_2417_9397)"/>
<path d="M81.2695 48.2644V113.399L97.5832 103.981V38.8457L81.2695 48.2644Z" fill="url(#paint18_linear_2417_9397)"/>
<path d="M97.0547 101.951L107.563 108.018L123.876 98.5994L113.368 92.5327L97.0547 101.951Z" fill="url(#paint19_linear_2417_9397)"/>
<path d="M109.321 108.171C108.852 108.475 108.266 108.424 107.562 108.018L123.876 98.5996C124.523 98.9733 125.071 99.0461 125.52 98.8182L125.635 98.7519C125.597 98.7763 125.559 98.7984 125.52 98.8182L109.321 108.171Z" fill="url(#paint20_linear_2417_9397)"/>
<path d="M99.6485 87.4577C97.6261 86.29 96.1899 84.9531 95.3398 83.447L111.654 74.0283C112.504 75.5344 113.94 76.8713 115.962 78.039L99.6485 87.4577Z" fill="url(#paint21_linear_2417_9397)"/>
<path d="M95.3395 83.4464C94.4895 81.9064 94.0645 79.8503 94.0645 77.2781L110.378 67.8594C110.378 70.4316 110.803 72.4877 111.653 74.0276L95.3395 83.4464Z" fill="url(#paint22_linear_2417_9397)"/>
<path d="M103.999 88.4473C103.149 88.9719 101.698 88.6419 99.6465 87.4573L115.96 78.0386C117.954 79.1898 119.381 79.5339 120.24 79.0708L120.313 79.0285C120.289 79.0433 120.264 79.0574 120.24 79.0708L103.999 88.4473Z" fill="url(#paint23_linear_2417_9397)"/>
<path d="M94.0645 77.2783C94.0645 74.7061 94.4895 73.1407 95.3395 72.5823L111.653 63.1636C110.803 63.722 110.378 65.2874 110.378 67.8596L94.0645 77.2783Z" fill="url(#paint24_linear_2417_9397)"/>
<path d="M81.5443 47.4715C81.3611 47.5772 81.2695 47.8416 81.2695 48.2647L97.5832 38.846C97.5832 38.4229 97.6748 38.1585 97.858 38.0527L81.5443 47.4715Z" fill="url(#paint25_linear_2417_9397)"/>
<path d="M82.3693 47.6302C82.003 47.4187 81.7282 47.3658 81.545 47.4716L97.8586 38.0529C98.0418 37.9471 98.3166 38 98.683 38.2115L82.3693 47.6302Z" fill="url(#paint26_linear_2417_9397)"/>
<path d="M105.275 83.7512C105.275 86.3235 104.85 87.8888 104 88.4472L120.314 79.0285C121.164 78.4701 121.589 76.9047 121.589 74.3325L105.275 83.7512Z" fill="url(#paint27_linear_2417_9397)"/>
<path d="M99.6485 73.4961C97.74 72.3942 96.3535 72.0609 95.4891 72.4961L95.3398 72.5823C95.3877 72.5508 95.4375 72.5221 95.4891 72.4961L111.654 63.1636C112.504 62.6051 113.94 62.9097 115.962 64.0774L99.6485 73.4961Z" fill="url(#paint28_linear_2417_9397)"/>
<path d="M104 77.5833C104.85 79.1232 105.275 81.1793 105.275 83.7515L121.589 74.3328C121.589 71.7606 121.164 69.7045 120.314 68.1646L104 77.5833Z" fill="url(#paint29_linear_2417_9397)"/>
<path d="M99.6465 73.4964C101.698 74.6809 103.149 76.0432 103.999 77.5832L120.313 68.1644C119.463 66.6245 118.012 65.2622 115.96 64.0776L99.6465 73.4964Z" fill="url(#paint30_linear_2417_9397)"/>
<path d="M118.228 103.028C118.65 102.753 118.861 102.242 118.861 101.495L135.174 92.0762C135.174 92.8885 134.925 93.4215 134.427 93.6754L118.228 103.028C118.191 103.052 118.153 103.074 118.113 103.094L118.228 103.028Z" fill="url(#paint31_linear_2417_9397)"/>
<path d="M107.562 62.1751L82.3691 47.6301L98.6828 38.2114L123.875 52.7564L107.562 62.1751Z" fill="url(#paint32_linear_2417_9397)"/>
<path d="M118.861 101.494V81.6951L135.175 72.2764V92.0757L118.861 101.494Z" fill="url(#paint33_linear_2417_9397)"/>
<path d="M109.321 64.0032C108.852 63.1909 108.266 62.5817 107.562 62.1756L123.876 52.7568C124.58 53.163 125.166 53.7722 125.635 54.5845L109.321 64.0032Z" fill="url(#paint34_linear_2417_9397)"/>
<path d="M118.861 81.6949C118.861 80.9165 118.612 80.0957 118.113 79.2327L134.427 69.814C134.925 70.677 135.174 71.4978 135.174 72.2762L118.861 81.6949Z" fill="url(#paint35_linear_2417_9397)"/>
<path d="M118.114 79.233L109.32 64.0027L125.634 54.584L134.427 69.8143L118.114 79.233Z" fill="url(#paint36_linear_2417_9397)"/>
<mask id="path-58-inside-1_2417_9397" fill="white">
<path d="M82.5923 115.874C81.8595 115.451 81.4931 114.816 81.4931 113.97V48.835C81.4931 47.9889 81.8595 47.7774 82.5923 48.2005L107.785 62.7454C108.488 63.1515 109.074 63.7607 109.543 64.573L118.337 79.8033C118.835 80.6664 119.084 81.4871 119.084 82.2655V102.065C119.084 102.877 118.835 103.41 118.337 103.664L109.543 108.741C109.074 109.045 108.488 108.995 107.785 108.589L97.2769 102.522V123.083C97.2769 123.929 96.9105 124.14 96.1778 123.717L82.5923 115.874ZM99.8709 88.0277C101.923 89.2122 103.374 89.5422 104.224 89.0176C105.074 88.4592 105.499 86.8939 105.499 84.3216C105.499 81.7494 105.074 79.6933 104.224 78.1534C103.374 76.6134 101.923 75.2511 99.8709 74.0666C97.8485 72.8989 96.4123 72.5943 95.5622 73.1527C94.7122 73.7112 94.2872 75.2765 94.2872 77.8488C94.2872 80.421 94.7122 82.4771 95.5622 84.017C96.4123 85.5231 97.8485 86.86 99.8709 88.0277Z"/>
</mask>
<path d="M82.5923 115.874C81.8595 115.451 81.4931 114.816 81.4931 113.97V48.835C81.4931 47.9889 81.8595 47.7774 82.5923 48.2005L107.785 62.7454C108.488 63.1515 109.074 63.7607 109.543 64.573L118.337 79.8033C118.835 80.6664 119.084 81.4871 119.084 82.2655V102.065C119.084 102.877 118.835 103.41 118.337 103.664L109.543 108.741C109.074 109.045 108.488 108.995 107.785 108.589L97.2769 102.522V123.083C97.2769 123.929 96.9105 124.14 96.1778 123.717L82.5923 115.874ZM99.8709 88.0277C101.923 89.2122 103.374 89.5422 104.224 89.0176C105.074 88.4592 105.499 86.8939 105.499 84.3216C105.499 81.7494 105.074 79.6933 104.224 78.1534C103.374 76.6134 101.923 75.2511 99.8709 74.0666C97.8485 72.8989 96.4123 72.5943 95.5622 73.1527C94.7122 73.7112 94.2872 75.2765 94.2872 77.8488C94.2872 80.421 94.7122 82.4771 95.5622 84.017C96.4123 85.5231 97.8485 86.86 99.8709 88.0277Z" fill="url(#paint37_linear_2417_9397)"/>
<path d="M109.543 64.573L108.29 65.2969L108.29 65.297L109.543 64.573ZM118.337 79.8033L119.591 79.0794L119.591 79.0794L118.337 79.8033ZM118.337 103.664L117.121 101.471L117.102 101.481L117.083 101.492L118.337 103.664ZM109.543 108.741L108.29 106.569L108.271 106.58L108.252 106.592L109.543 108.741ZM97.2769 102.522V100.474L95.5036 99.4504V101.498L97.2769 102.522ZM104.224 89.0176L105.499 91.1769L105.509 91.1706L105.519 91.1641L104.224 89.0176ZM104.224 78.1534L102.929 78.8045L102.929 78.8045L104.224 78.1534ZM95.5622 73.1527L96.8572 75.2992L96.8572 75.2992L95.5622 73.1527ZM95.5622 84.017L94.2673 84.6682L94.2772 84.6862L94.2873 84.704L95.5622 84.017ZM82.5923 115.874V113.826C82.4992 113.772 82.7551 113.895 83.0218 114.357C83.2884 114.818 83.2664 115.101 83.2664 114.994L81.4931 113.97L79.7198 112.946C79.7198 113.685 79.881 114.708 80.514 115.804C81.147 116.901 81.9525 117.552 82.5923 117.921V115.874ZM81.4931 113.97L83.2664 114.994V49.8588L81.4931 48.835L79.7198 47.8112V112.946L81.4931 113.97ZM81.4931 48.835L83.2664 49.8588C83.2664 49.7514 83.2884 50.0597 83.0218 50.2136C82.7551 50.3676 82.4992 50.1943 82.5923 50.2481V48.2005V46.1529C81.9525 45.7835 81.147 45.5045 80.514 45.87C79.881 46.2355 79.7198 47.0726 79.7198 47.8112L81.4931 48.835ZM82.5923 48.2005V50.2481L107.785 64.793V62.7454V60.6978L82.5923 46.1529V48.2005ZM107.785 62.7454V64.793C108.05 64.9459 108.175 65.0983 108.29 65.2969L109.543 64.573L110.797 63.8491C109.974 62.4231 108.927 61.3572 107.785 60.6978V62.7454ZM109.543 64.573L108.29 65.297L117.083 80.5272L118.337 79.8033L119.591 79.0794L110.797 63.8491L109.543 64.573ZM118.337 79.8033L117.083 80.5272C117.265 80.8434 117.311 81.0332 117.311 81.2417L119.084 82.2655L120.857 83.2893C120.857 81.941 120.405 80.4894 119.591 79.0794L118.337 79.8033ZM119.084 82.2655L117.311 81.2417V101.041L119.084 102.065L120.857 103.089V83.2893L119.084 82.2655ZM119.084 102.065L117.311 101.041C117.311 101.307 117.252 101.405 117.121 101.471L118.337 103.664L119.552 105.857C120.417 105.416 120.857 104.448 120.857 103.089L119.084 102.065ZM118.337 103.664L117.083 101.492L108.29 106.569L109.543 108.741L110.797 110.913L119.591 105.836L118.337 103.664ZM109.543 108.741L108.252 106.592C108.129 106.672 108.015 106.674 107.785 106.541V108.589V110.636C108.962 111.316 110.02 111.419 110.835 110.89L109.543 108.741ZM107.785 108.589V106.541L97.2769 100.474V102.522V104.569L107.785 110.636V108.589ZM97.2769 102.522L95.5036 101.498V122.059L97.2769 123.083L99.0502 124.107V103.546L97.2769 102.522ZM97.2769 123.083L95.5036 122.059C95.5036 122.166 95.4816 121.858 95.7482 121.704C96.0149 121.55 96.2708 121.723 96.1778 121.67V123.717V125.765C96.8175 126.134 97.623 126.413 98.256 126.048C98.8891 125.682 99.0502 124.845 99.0502 124.107L97.2769 123.083ZM96.1778 123.717V121.67L82.5923 113.826V115.874V117.921L96.1778 125.765V123.717ZM99.8709 88.0277V90.0753C102.095 91.3591 104.148 92.0104 105.499 91.1769L104.224 89.0176L102.949 86.8584C102.599 87.0741 101.751 87.0653 99.8709 85.9801V88.0277ZM104.224 89.0176L105.519 91.1641C106.842 90.2949 107.272 88.0648 107.272 85.3454L105.499 84.3216L103.725 83.2978C103.725 85.7229 103.306 86.6235 102.929 86.8711L104.224 89.0176ZM105.499 84.3216L107.272 85.3454C107.272 82.626 106.842 79.8992 105.519 77.5022L104.224 78.1534L102.929 78.8045C103.306 79.4874 103.725 80.8728 103.725 83.2978L105.499 84.3216ZM104.224 78.1534L105.519 77.5022C104.17 75.0588 102.108 73.3104 99.8709 72.019V74.0666V76.1142C101.738 77.1919 102.577 78.168 102.929 78.8045L104.224 78.1534ZM99.8709 74.0666V72.019C97.6541 70.7391 95.6121 70.1227 94.2673 71.0063L95.5622 73.1527L96.8572 75.2992C97.2124 75.0659 98.0428 75.0587 99.8709 76.1142V74.0666ZM95.5622 73.1527L94.2673 71.0063C92.9442 71.8755 92.514 74.1055 92.514 76.825L94.2872 77.8488L96.0605 78.8725C96.0605 76.4475 96.4803 75.5469 96.8572 75.2992L95.5622 73.1527ZM94.2872 77.8488L92.514 76.825C92.514 79.5444 92.9442 82.2712 94.2673 84.6682L95.5622 84.017L96.8572 83.3658C96.4803 82.683 96.0605 81.2976 96.0605 78.8725L94.2872 77.8488ZM95.5622 84.017L94.2873 84.704C95.6341 87.0905 97.6674 88.8031 99.8709 90.0753V88.0277V85.9801C98.0295 84.9169 97.1904 83.9558 96.8372 83.33L95.5622 84.017Z" fill="black" fill-opacity="0.2" mask="url(#path-58-inside-1_2417_9397)"/>
</g>
<defs>
<filter id="filter0_d_2417_9397" x="78.2695" y="34" width="59.9062" height="104.942" filterUnits="userSpaceOnUse" color-interpolation-filters="sRGB">
<feFlood flood-opacity="0" result="BackgroundImageFix"/>
<feColorMatrix in="SourceAlpha" type="matrix" values="0 0 0 0 0 0 0 0 0 0 0 0 0 0 0 0 0 0 127 0" result="hardAlpha"/>
<feOffset dy="-1"/>
<feGaussianBlur stdDeviation="1.5"/>
<feComposite in2="hardAlpha" operator="out"/>
<feColorMatrix type="matrix" values="0 0 0 0 0 0 0 0 0 0 0 0 0 0 0 0 0 0 0.25 0"/>
<feBlend mode="normal" in2="BackgroundImageFix" result="effect1_dropShadow_2417_9397"/>
<feBlend mode="normal" in="SourceGraphic" in2="effect1_dropShadow_2417_9397" result="shape"/>
</filter>
<linearGradient id="paint0_linear_2417_9397" x1="110.547" y1="110.618" x2="-5.80443" y2="6.42857" gradientUnits="userSpaceOnUse">
<stop stop-color="#FFD5EF"/>
<stop offset="1" stop-color="#EFBDFD"/>
</linearGradient>
<linearGradient id="paint1_linear_2417_9397" x1="82.9106" y1="13.8272" x2="77.646" y2="-14.4584" gradientUnits="userSpaceOnUse">
<stop stop-color="#F95457"/>
<stop offset="1" stop-color="#FDBDCB"/>
</linearGradient>
<linearGradient id="paint2_linear_2417_9397" x1="82.9106" y1="13.8272" x2="77.646" y2="-14.4584" gradientUnits="userSpaceOnUse">
<stop stop-color="#F95457"/>
<stop offset="1" stop-color="#FDBDCB"/>
</linearGradient>
<linearGradient id="paint3_linear_2417_9397" x1="14.5487" y1="134.639" x2="5.56025" y2="132.714" gradientUnits="userSpaceOnUse">
<stop stop-color="#F95457"/>
<stop offset="1" stop-color="#FDBDCB"/>
</linearGradient>
<linearGradient id="paint4_linear_2417_9397" x1="110.317" y1="178.973" x2="93.1946" y2="156.972" gradientUnits="userSpaceOnUse">
<stop stop-color="#F95457"/>
<stop offset="1" stop-color="#FDBDCB"/>
</linearGradient>
<linearGradient id="paint5_linear_2417_9397" x1="187.113" y1="134.639" x2="178.125" y2="132.714" gradientUnits="userSpaceOnUse">
<stop stop-color="#F95457"/>
<stop offset="1" stop-color="#FDBDCB"/>
</linearGradient>
<linearGradient id="paint6_linear_2417_9397" x1="-3.39165e-05" y1="-0.101368" x2="94.5084" y2="-12.4999" gradientUnits="userSpaceOnUse">
<stop stop-color="#D74446"/>
<stop offset="1" stop-color="#E165B8"/>
</linearGradient>
<linearGradient id="paint7_linear_2417_9397" x1="-3.43218e-05" y1="-0.10258" x2="95.638" y2="-12.6493" gradientUnits="userSpaceOnUse">
<stop stop-color="#D74446"/>
<stop offset="1" stop-color="#E165B8"/>
</linearGradient>
<linearGradient id="paint8_linear_2417_9397" x1="-2.57414e-05" y1="-0.0128225" x2="45.0505" y2="-35.4737" gradientUnits="userSpaceOnUse">
<stop stop-color="#D1369D"/>
<stop offset="1" stop-color="#B31E20"/>
</linearGradient>
<linearGradient id="paint9_linear_2417_9397" x1="-2.57414e-05" y1="-0.0128225" x2="45.0505" y2="-35.4737" gradientUnits="userSpaceOnUse">
<stop stop-color="#D74446"/>
<stop offset="1" stop-color="#E165B8"/>
</linearGradient>
<linearGradient id="paint10_linear_2417_9397" x1="7.15625" y1="112.946" x2="11.5142" y2="112.809" gradientUnits="userSpaceOnUse">
<stop stop-color="#D74446"/>
<stop offset="1" stop-color="#D1369D"/>
</linearGradient>
<linearGradient id="paint11_linear_2417_9397" x1="84.959" y1="161.971" x2="105.301" y2="158.142" gradientUnits="userSpaceOnUse">
<stop stop-color="#B31E20"/>
<stop offset="1" stop-color="#D74446"/>
</linearGradient>
<linearGradient id="paint12_linear_2417_9397" x1="181.998" y1="112.946" x2="186.356" y2="112.809" gradientUnits="userSpaceOnUse">
<stop stop-color="#E165B8"/>
<stop offset="1" stop-color="#D74446"/>
</linearGradient>
<linearGradient id="paint13_linear_2417_9397" x1="77.808" y1="115.398" x2="78.9071" y2="117.302" gradientUnits="userSpaceOnUse">
<stop stop-color="#C30075"/>
<stop offset="1" stop-color="#770065"/>
</linearGradient>
<linearGradient id="paint14_linear_2417_9397" x1="73.5008" y1="120.424" x2="80.2936" y2="132.189" gradientUnits="userSpaceOnUse">
<stop stop-color="#770065"/>
<stop offset="1" stop-color="#770065"/>
</linearGradient>
<linearGradient id="paint15_linear_2417_9397" x1="92.6125" y1="125.077" x2="92.8873" y2="125.553" gradientUnits="userSpaceOnUse">
<stop stop-color="#770065"/>
<stop offset="0.5" stop-color="#A80074"/>
<stop offset="1" stop-color="#FF1164"/>
</linearGradient>
<linearGradient id="paint16_linear_2417_9397" x1="93.7434" y1="124.424" x2="94.0182" y2="124.9" gradientUnits="userSpaceOnUse">
<stop stop-color="#C30075"/>
<stop offset="1" stop-color="#FF1164"/>
</linearGradient>
<linearGradient id="paint17_linear_2417_9397" x1="94.0691" y1="103.675" x2="102.972" y2="119.096" gradientUnits="userSpaceOnUse">
<stop stop-color="#C30075"/>
<stop offset="1" stop-color="#C30075"/>
</linearGradient>
<linearGradient id="paint18_linear_2417_9397" x1="78.2839" y1="49.9882" x2="106.488" y2="98.8393" gradientUnits="userSpaceOnUse">
<stop stop-color="#C30075"/>
<stop offset="1" stop-color="#C30075"/>
</linearGradient>
<linearGradient id="paint19_linear_2417_9397" x1="89.519" y1="106.302" x2="94.773" y2="115.402" gradientUnits="userSpaceOnUse">
<stop stop-color="#770065"/>
<stop offset="1" stop-color="#770065"/>
</linearGradient>
<linearGradient id="paint20_linear_2417_9397" x1="103.815" y1="110.182" x2="104.321" y2="111.057" gradientUnits="userSpaceOnUse">
<stop stop-color="#770065"/>
<stop offset="0.5" stop-color="#B70075"/>
<stop offset="1" stop-color="#FF1863"/>
</linearGradient>
<linearGradient id="paint21_linear_2417_9397" x1="90.4885" y1="86.248" x2="93.3023" y2="91.1216" gradientUnits="userSpaceOnUse">
<stop stop-color="#780066"/>
<stop offset="0.5" stop-color="#560052"/>
<stop offset="1" stop-color="#770065"/>
</linearGradient>
<linearGradient id="paint22_linear_2417_9397" x1="90.5267" y1="79.3206" x2="93.5164" y2="84.4989" gradientUnits="userSpaceOnUse">
<stop stop-color="#C30075"/>
<stop offset="1" stop-color="#7A0066"/>
</linearGradient>
<linearGradient id="paint23_linear_2417_9397" x1="94.7761" y1="90.2692" x2="96.293" y2="92.8964" gradientUnits="userSpaceOnUse">
<stop stop-color="#770065"/>
<stop offset="0.5" stop-color="#A30073"/>
<stop offset="1" stop-color="#FF1564"/>
</linearGradient>
<linearGradient id="paint24_linear_2417_9397" x1="90.8455" y1="75.1769" x2="92.5602" y2="78.1468" gradientUnits="userSpaceOnUse">
<stop stop-color="#FF1963"/>
<stop offset="1" stop-color="#C30075"/>
</linearGradient>
<linearGradient id="paint25_linear_2417_9397" x1="78.2336" y1="49.3829" x2="78.5084" y2="49.8588" gradientUnits="userSpaceOnUse">
<stop stop-color="#FF1164"/>
<stop offset="1" stop-color="#C30075"/>
</linearGradient>
<linearGradient id="paint26_linear_2417_9397" x1="78.2252" y1="49.3882" x2="78.5" y2="49.8642" gradientUnits="userSpaceOnUse">
<stop stop-color="#FF1164"/>
<stop offset="0.5" stop-color="#A80074"/>
<stop offset="1" stop-color="#770065"/>
</linearGradient>
<linearGradient id="paint27_linear_2417_9397" x1="100.781" y1="86.3458" x2="102.496" y2="89.3157" gradientUnits="userSpaceOnUse">
<stop stop-color="#C30075"/>
<stop offset="1" stop-color="#FF1963"/>
</linearGradient>
<linearGradient id="paint28_linear_2417_9397" x1="90.6059" y1="75.3155" x2="92.0787" y2="77.8665" gradientUnits="userSpaceOnUse">
<stop stop-color="#FF1963"/>
<stop offset="0.5" stop-color="#A50073"/>
<stop offset="1" stop-color="#770065"/>
</linearGradient>
<linearGradient id="paint29_linear_2417_9397" x1="100.462" y1="79.6258" x2="103.452" y2="84.8041" gradientUnits="userSpaceOnUse">
<stop stop-color="#7A0066"/>
<stop offset="1" stop-color="#C30075"/>
</linearGradient>
<linearGradient id="paint30_linear_2417_9397" x1="94.7761" y1="76.3083" x2="97.6339" y2="81.2581" gradientUnits="userSpaceOnUse">
<stop stop-color="#770065"/>
<stop offset="0.5" stop-color="#550052"/>
<stop offset="1" stop-color="#7A0066"/>
</linearGradient>
<linearGradient id="paint31_linear_2417_9397" x1="114.991" y1="103.729" x2="115.496" y2="104.605" gradientUnits="userSpaceOnUse">
<stop stop-color="#C30075"/>
<stop offset="1" stop-color="#FF0965"/>
</linearGradient>
<linearGradient id="paint32_linear_2417_9397" x1="68.4748" y1="55.652" x2="81.0711" y2="77.4694" gradientUnits="userSpaceOnUse">
<stop stop-color="#AE0094"/>
<stop offset="1" stop-color="#770065"/>
</linearGradient>
<linearGradient id="paint33_linear_2417_9397" x1="115.876" y1="83.4188" x2="124.449" y2="98.2684" gradientUnits="userSpaceOnUse">
<stop stop-color="#C30075"/>
<stop offset="1" stop-color="#C30075"/>
</linearGradient>
<linearGradient id="paint34_linear_2417_9397" x1="103.815" y1="64.339" x2="105.046" y2="66.4712" gradientUnits="userSpaceOnUse">
<stop stop-color="#770065"/>
<stop offset="0.5" stop-color="#6E006B"/>
<stop offset="1" stop-color="#770065"/>
</linearGradient>
<linearGradient id="paint35_linear_2417_9397" x1="114.804" y1="81.1433" x2="116.057" y2="83.3136" gradientUnits="userSpaceOnUse">
<stop stop-color="#770065"/>
<stop offset="1" stop-color="#C30075"/>
</linearGradient>
<linearGradient id="paint36_linear_2417_9397" x1="102.527" y1="67.9247" x2="111.32" y2="83.155" gradientUnits="userSpaceOnUse">
<stop stop-color="#770065"/>
<stop offset="1" stop-color="#770065"/>
</linearGradient>
<linearGradient id="paint37_linear_2417_9397" x1="77" y1="74.145" x2="121.167" y2="74.145" gradientUnits="userSpaceOnUse">
<stop stop-color="#FF51B8"/>
<stop offset="1" stop-color="#FFB2B2"/>
</linearGradient>
<clipPath id="clip0_2417_9397">
<rect width="194.316" height="122.03" fill="white" transform="translate(0 56.939)"/>
</clipPath>
<clipPath id="clip1_2417_9397">
<rect width="110.727" height="110.727" rx="13.7001" transform="matrix(0.866025 0.5 -0.866025 0.5 98.4219 58.603)" fill="white"/>
</clipPath>
<clipPath id="clip2_2417_9397">
<rect width="112.188" height="112.188" rx="13.881" transform="matrix(0.866025 0.5 -0.866025 0.5 97.1582 56.9395)" fill="white"/>
</clipPath>
</defs>
</svg>
