<svg width="64" height="64" viewBox="0 0 64 64" fill="none" xmlns="http://www.w3.org/2000/svg">
<rect width="35.8551" height="35.8551" rx="4.37833" transform="matrix(0.866025 0.5 -0.866025 0.5 31.8887 19)" fill="url(#paint0_linear_2025_1084)"/>
<rect width="26.8913" height="4.48189" transform="matrix(0.866025 0.5 0 1 4.71851 39.1685)" fill="url(#paint1_linear_2025_1084)"/>
<rect width="26.8913" height="4.48189" transform="matrix(0.866025 -0.5 0 1 35.7698 52.6143)" fill="url(#paint2_linear_2025_1084)"/>
<path d="M3.11084 36.9277C3.11084 37.8029 3.72524 38.5952 4.71858 39.1687V43.6506C3.72524 43.0771 3.11084 42.2848 3.11084 41.4096V36.9277Z" fill="url(#paint3_linear_2025_1084)"/>
<path d="M28.0071 52.6143C30.1507 53.8519 33.6263 53.8519 35.7699 52.6143V57.0961C33.6263 58.3338 30.1507 58.3338 28.0071 57.0961V52.6143Z" fill="url(#paint4_linear_2025_1084)"/>
<path d="M60.6663 36.9277C60.6663 37.8029 60.0519 38.5952 59.0586 39.1687V43.6506C60.0519 43.0771 60.6663 42.2848 60.6663 41.4096V36.9277Z" fill="url(#paint5_linear_2025_1084)"/>
<g clip-path="url(#clip0_2025_1084)">
<rect width="35.8992" height="35.8992" rx="4.44179" transform="matrix(0.866025 0.5 -0.866025 0.5 31.9104 19)" fill="url(#paint6_linear_2025_1084)"/>
<rect width="11.5594" height="11.5594" transform="matrix(0.866025 0.5 -0.866025 0.5 31.9104 19)" fill="black" fill-opacity="0.1"/>
<rect width="11.5594" height="11.5594" transform="matrix(0.866025 0.5 -0.866025 0.5 21.3711 25.085)" fill="black" fill-opacity="0.1"/>
<rect width="11.5594" height="11.5594" transform="matrix(0.866025 0.5 -0.866025 0.5 21.3711 37.2549)" fill="black" fill-opacity="0.1"/>
<rect width="11.5594" height="11.5594" transform="matrix(0.866025 0.5 -0.866025 0.5 42.45 25.085)" fill="black" fill-opacity="0.1"/>
<rect width="11.5594" height="11.5594" transform="matrix(0.866025 0.5 -0.866025 0.5 42.45 37.2549)" fill="black" fill-opacity="0.1"/>
<rect width="11.5594" height="11.5594" transform="matrix(0.866025 0.5 -0.866025 0.5 52.9893 31.1699)" fill="black" fill-opacity="0.1"/>
<rect width="11.5594" height="11.5594" transform="matrix(0.866025 0.5 -0.866025 0.5 10.8315 31.1699)" fill="black" fill-opacity="0.1"/>
<rect width="11.5594" height="11.5594" transform="matrix(0.866025 0.5 -0.866025 0.5 31.9104 43.3398)" fill="black" fill-opacity="0.1"/>
<rect width="11.5594" height="11.5594" transform="matrix(0.866025 0.5 -0.866025 0.5 31.9104 31.1699)" fill="black" fill-opacity="0.1"/>
</g>
<rect width="36.3283" height="36.3283" rx="4.43612" transform="matrix(0.866025 0.5 -0.866025 0.5 31.478 18.4604)" fill="url(#paint7_linear_2025_1084)"/>
<rect width="27.2462" height="4.54104" transform="matrix(0.866025 0.5 0 1 3.94922 38.8955)" fill="url(#paint8_linear_2025_1084)"/>
<rect width="27.2462" height="4.54104" transform="matrix(0.866025 -0.5 0 1 35.4104 52.5186)" fill="url(#paint9_linear_2025_1084)"/>
<path d="M2.32056 36.625C2.32056 37.5117 2.94306 38.3144 3.94952 38.8955V43.4366C2.94306 42.8555 2.32056 42.0527 2.32056 41.166V36.625Z" fill="url(#paint10_linear_2025_1084)"/>
<path d="M27.5452 52.5186C29.7171 53.7725 33.2385 53.7725 35.4105 52.5186V57.0596C33.2385 58.3136 29.7171 58.3136 27.5452 57.0596V52.5186Z" fill="url(#paint11_linear_2025_1084)"/>
<path d="M60.6356 36.625C60.6356 37.5117 60.013 38.3144 59.0066 38.8955V43.4366C60.013 42.8555 60.6356 42.0527 60.6356 41.166V36.625Z" fill="url(#paint12_linear_2025_1084)"/>
<g clip-path="url(#clip1_2025_1084)">
<rect width="11.712" height="11.712" transform="matrix(0.866025 0.5 -0.866025 0.5 31.5 18.4604)" fill="white" fill-opacity="0.2"/>
<rect width="11.712" height="11.712" transform="matrix(0.866025 0.5 -0.866025 0.5 20.8213 24.626)" fill="white" fill-opacity="0.2"/>
<rect width="11.712" height="11.712" transform="matrix(0.866025 0.5 -0.866025 0.5 20.8215 36.9561)" fill="white" fill-opacity="0.2"/>
<rect width="11.712" height="11.712" transform="matrix(0.866025 0.5 -0.866025 0.5 42.1785 24.6255)" fill="white" fill-opacity="0.2"/>
<rect width="11.712" height="11.712" transform="matrix(0.866025 0.5 -0.866025 0.5 42.1785 36.9561)" fill="white" fill-opacity="0.2"/>
<rect width="11.712" height="11.712" transform="matrix(0.866025 0.5 -0.866025 0.5 52.8569 30.791)" fill="white" fill-opacity="0.2"/>
<rect width="11.712" height="11.712" transform="matrix(0.866025 0.5 -0.866025 0.5 10.1428 30.791)" fill="white" fill-opacity="0.2"/>
<rect width="11.712" height="11.712" transform="matrix(0.866025 0.5 -0.866025 0.5 31.5 43.1216)" fill="white" fill-opacity="0.2"/>
<rect width="11.712" height="11.712" transform="matrix(0.866025 0.5 -0.866025 0.5 31.5 30.791)" fill="white" fill-opacity="0.2"/>
</g>
<mask id="path-33-outside-1_2025_1084" maskUnits="userSpaceOnUse" x="10" y="19" width="45" height="20" fill="black">
<rect fill="white" x="10" y="19" width="45" height="20"/>
<path d="M11.0024 37V34.4452L16.9719 28.9179C17.4795 28.4266 17.9054 27.9845 18.2493 27.5914C18.5986 27.1984 18.8634 26.8135 19.0436 26.4368C19.2237 26.0547 19.3138 25.6425 19.3138 25.2004C19.3138 24.7091 19.2019 24.286 18.978 23.9311C18.7542 23.5709 18.4485 23.2952 18.0609 23.1041C17.6733 22.9076 17.2339 22.8093 16.7426 22.8093C16.2294 22.8093 15.7818 22.913 15.3997 23.1205C15.0175 23.3279 14.7228 23.6254 14.5153 24.013C14.3079 24.4006 14.2041 24.8619 14.2041 25.3969H10.8387C10.8387 24.2996 11.0871 23.347 11.5838 22.5391C12.0806 21.7312 12.7766 21.1061 13.6719 20.6639C14.5672 20.2218 15.5989 20.0007 16.7672 20.0007C17.9681 20.0007 19.0135 20.2136 19.9033 20.6394C20.7986 21.0597 21.4946 21.6438 21.9914 22.3917C22.4882 23.1396 22.7366 23.9967 22.7366 24.9629C22.7366 25.5961 22.611 26.2212 22.3599 26.8381C22.1142 27.4549 21.6748 28.14 21.0415 28.8934C20.4083 29.6413 19.5158 30.5393 18.3639 31.5874L15.9155 33.9866V34.1013H22.9577V37H11.0024ZM35.8197 34.6745L26.0345 24.9056L28.1799 22.7356L37.9733 32.5291L35.8197 34.6745ZM28.1799 34.6745L26.0345 32.5291L35.8197 22.7356L37.9733 24.9056L28.1799 34.6745ZM47.6358 37.2293C46.7732 37.2238 45.9407 37.0792 45.1383 36.7953C44.3412 36.5114 43.6261 36.0501 42.9929 35.4114C42.3596 34.7727 41.8574 33.9266 41.4862 32.873C41.1204 31.8194 40.9376 30.5256 40.9376 28.9916C40.943 27.5832 41.1041 26.3249 41.4207 25.2167C41.7428 24.1031 42.2013 23.1587 42.7964 22.3835C43.3968 21.6083 44.1147 21.0188 44.9499 20.6148C45.7852 20.2054 46.7214 20.0007 47.7586 20.0007C48.8777 20.0007 49.8658 20.219 50.7228 20.6557C51.5799 21.087 52.2677 21.6739 52.7863 22.4163C53.3104 23.1587 53.627 23.9912 53.7362 24.9138H50.2397C50.1032 24.3297 49.8166 23.8711 49.3799 23.5381C48.9432 23.2051 48.4027 23.0386 47.7586 23.0386C46.6668 23.0386 45.837 23.5135 45.2693 24.4634C44.707 25.4133 44.4204 26.7043 44.4095 28.3366H44.5241C44.7752 27.8398 45.1137 27.4167 45.5395 27.0673C45.9708 26.7125 46.4593 26.4423 47.0052 26.2567C47.5566 26.0656 48.138 25.9701 48.7494 25.9701C49.7429 25.9701 50.6273 26.2048 51.4025 26.6743C52.1776 27.1383 52.7891 27.777 53.2367 28.5904C53.6843 29.4038 53.9082 30.3346 53.9082 31.3827C53.9082 32.5182 53.6434 33.5281 53.1139 34.4124C52.5898 35.2968 51.8556 35.9901 50.9112 36.4923C49.9722 36.9891 48.8804 37.2347 47.6358 37.2293ZM47.6194 34.4452C48.1653 34.4452 48.6539 34.3142 49.0851 34.0521C49.5164 33.7901 49.8548 33.4353 50.1005 32.9876C50.3462 32.54 50.469 32.0378 50.469 31.4809C50.469 30.9241 50.3462 30.4246 50.1005 29.9825C49.8603 29.5403 49.5273 29.1882 49.1015 28.9261C48.6757 28.6641 48.1898 28.5331 47.6439 28.5331C47.2345 28.5331 46.8551 28.6095 46.5057 28.7624C46.1618 28.9152 45.8589 29.1281 45.5968 29.4011C45.3402 29.674 45.1383 29.9906 44.9909 30.3509C44.8435 30.7058 44.7698 31.0852 44.7698 31.4891C44.7698 32.0296 44.8926 32.5236 45.1383 32.9713C45.3894 33.4189 45.7278 33.7765 46.1536 34.044C46.5849 34.3114 47.0735 34.4452 47.6194 34.4452Z"/>
</mask>
<path d="M11.0024 37V34.4452L16.9719 28.9179C17.4795 28.4266 17.9054 27.9845 18.2493 27.5914C18.5986 27.1984 18.8634 26.8135 19.0436 26.4368C19.2237 26.0547 19.3138 25.6425 19.3138 25.2004C19.3138 24.7091 19.2019 24.286 18.978 23.9311C18.7542 23.5709 18.4485 23.2952 18.0609 23.1041C17.6733 22.9076 17.2339 22.8093 16.7426 22.8093C16.2294 22.8093 15.7818 22.913 15.3997 23.1205C15.0175 23.3279 14.7228 23.6254 14.5153 24.013C14.3079 24.4006 14.2041 24.8619 14.2041 25.3969H10.8387C10.8387 24.2996 11.0871 23.347 11.5838 22.5391C12.0806 21.7312 12.7766 21.1061 13.6719 20.6639C14.5672 20.2218 15.5989 20.0007 16.7672 20.0007C17.9681 20.0007 19.0135 20.2136 19.9033 20.6394C20.7986 21.0597 21.4946 21.6438 21.9914 22.3917C22.4882 23.1396 22.7366 23.9967 22.7366 24.9629C22.7366 25.5961 22.611 26.2212 22.3599 26.8381C22.1142 27.4549 21.6748 28.14 21.0415 28.8934C20.4083 29.6413 19.5158 30.5393 18.3639 31.5874L15.9155 33.9866V34.1013H22.9577V37H11.0024ZM35.8197 34.6745L26.0345 24.9056L28.1799 22.7356L37.9733 32.5291L35.8197 34.6745ZM28.1799 34.6745L26.0345 32.5291L35.8197 22.7356L37.9733 24.9056L28.1799 34.6745ZM47.6358 37.2293C46.7732 37.2238 45.9407 37.0792 45.1383 36.7953C44.3412 36.5114 43.6261 36.0501 42.9929 35.4114C42.3596 34.7727 41.8574 33.9266 41.4862 32.873C41.1204 31.8194 40.9376 30.5256 40.9376 28.9916C40.943 27.5832 41.1041 26.3249 41.4207 25.2167C41.7428 24.1031 42.2013 23.1587 42.7964 22.3835C43.3968 21.6083 44.1147 21.0188 44.9499 20.6148C45.7852 20.2054 46.7214 20.0007 47.7586 20.0007C48.8777 20.0007 49.8658 20.219 50.7228 20.6557C51.5799 21.087 52.2677 21.6739 52.7863 22.4163C53.3104 23.1587 53.627 23.9912 53.7362 24.9138H50.2397C50.1032 24.3297 49.8166 23.8711 49.3799 23.5381C48.9432 23.2051 48.4027 23.0386 47.7586 23.0386C46.6668 23.0386 45.837 23.5135 45.2693 24.4634C44.707 25.4133 44.4204 26.7043 44.4095 28.3366H44.5241C44.7752 27.8398 45.1137 27.4167 45.5395 27.0673C45.9708 26.7125 46.4593 26.4423 47.0052 26.2567C47.5566 26.0656 48.138 25.9701 48.7494 25.9701C49.7429 25.9701 50.6273 26.2048 51.4025 26.6743C52.1776 27.1383 52.7891 27.777 53.2367 28.5904C53.6843 29.4038 53.9082 30.3346 53.9082 31.3827C53.9082 32.5182 53.6434 33.5281 53.1139 34.4124C52.5898 35.2968 51.8556 35.9901 50.9112 36.4923C49.9722 36.9891 48.8804 37.2347 47.6358 37.2293ZM47.6194 34.4452C48.1653 34.4452 48.6539 34.3142 49.0851 34.0521C49.5164 33.7901 49.8548 33.4353 50.1005 32.9876C50.3462 32.54 50.469 32.0378 50.469 31.4809C50.469 30.9241 50.3462 30.4246 50.1005 29.9825C49.8603 29.5403 49.5273 29.1882 49.1015 28.9261C48.6757 28.6641 48.1898 28.5331 47.6439 28.5331C47.2345 28.5331 46.8551 28.6095 46.5057 28.7624C46.1618 28.9152 45.8589 29.1281 45.5968 29.4011C45.3402 29.674 45.1383 29.9906 44.9909 30.3509C44.8435 30.7058 44.7698 31.0852 44.7698 31.4891C44.7698 32.0296 44.8926 32.5236 45.1383 32.9713C45.3894 33.4189 45.7278 33.7765 46.1536 34.044C46.5849 34.3114 47.0735 34.4452 47.6194 34.4452Z" fill="white"/>
<path d="M11.0024 37H10.1789V37.8235H11.0024V37ZM11.0024 34.4452L10.4429 33.8409L10.1789 34.0854V34.4452H11.0024ZM16.9719 28.9179L17.5314 29.5222L17.538 29.5161L17.5446 29.5097L16.9719 28.9179ZM18.2493 27.5914L17.6337 27.0443L17.6295 27.0491L18.2493 27.5914ZM19.0436 26.4368L19.7865 26.7922L19.7885 26.788L19.0436 26.4368ZM18.978 23.9311L18.2785 24.3657L18.2815 24.3705L18.978 23.9311ZM18.0609 23.1041L17.6885 23.8387L17.6968 23.8428L18.0609 23.1041ZM14.5153 24.013L15.2414 24.4016L15.2414 24.4016L14.5153 24.013ZM14.2041 25.3969V26.2204H15.0277V25.3969H14.2041ZM10.8387 25.3969H10.0151V26.2204H10.8387V25.3969ZM11.5838 22.5391L12.2854 22.9704L12.2854 22.9704L11.5838 22.5391ZM13.6719 20.6639L13.3072 19.9256L13.3072 19.9256L13.6719 20.6639ZM19.9033 20.6394L19.5479 21.3822L19.5533 21.3848L19.9033 20.6394ZM21.9914 22.3917L21.3054 22.8474L21.3054 22.8474L21.9914 22.3917ZM22.3599 26.8381L21.5971 26.5276L21.5948 26.5334L22.3599 26.8381ZM21.0415 28.8934L21.67 29.4255L21.6719 29.4233L21.0415 28.8934ZM18.3639 31.5874L17.8097 30.9783L17.7984 30.9885L17.7875 30.9992L18.3639 31.5874ZM15.9155 33.9866L15.3392 33.3984L15.092 33.6406V33.9866H15.9155ZM15.9155 34.1013H15.092V34.9248H15.9155V34.1013ZM22.9577 34.1013H23.7812V33.2777H22.9577V34.1013ZM22.9577 37V37.8235H23.7812V37H22.9577ZM11.0024 37H11.826V34.4452H11.0024H10.1789V37H11.0024ZM11.0024 34.4452L11.562 35.0495L17.5314 29.5222L16.9719 28.9179L16.4124 28.3137L10.4429 33.8409L11.0024 34.4452ZM16.9719 28.9179L17.5446 29.5097C18.0633 29.0077 18.506 28.5487 18.869 28.1337L18.2493 27.5914L17.6295 27.0491C17.3047 27.4203 16.8958 27.8456 16.3992 28.3262L16.9719 28.9179ZM18.2493 27.5914L18.8648 28.1385C19.2528 27.702 19.5657 27.2537 19.7865 26.7921L19.0436 26.4368L18.3006 26.0815C18.1611 26.3733 17.9445 26.6947 17.6338 27.0443L18.2493 27.5914ZM19.0436 26.4368L19.7885 26.788C20.0228 26.2909 20.1373 25.7582 20.1373 25.2004H19.3138H18.4902C18.4902 25.5269 18.4246 25.8185 18.2987 26.0857L19.0436 26.4368ZM19.3138 25.2004H20.1373C20.1373 24.5806 19.9947 23.9993 19.6746 23.4918L18.978 23.9311L18.2815 24.3705C18.409 24.5727 18.4902 24.8375 18.4902 25.2004H19.3138ZM18.978 23.9311L19.6776 23.4966C19.371 23.003 18.9479 22.6232 18.4251 22.3655L18.0609 23.1041L17.6968 23.8428C17.9491 23.9671 18.1375 24.1387 18.2785 24.3657L18.978 23.9311ZM18.0609 23.1041L18.4334 22.3696C17.916 22.1073 17.3463 21.9858 16.7426 21.9858V22.8093V23.6329C17.1215 23.6329 17.4306 23.7079 17.6885 23.8386L18.0609 23.1041ZM16.7426 22.8093V21.9858C16.117 21.9858 15.5295 22.1129 15.0068 22.3967L15.3997 23.1205L15.7926 23.8442C16.0341 23.7132 16.3419 23.6329 16.7426 23.6329V22.8093ZM15.3997 23.1205L15.0068 22.3967C14.4816 22.6818 14.0717 23.0966 13.7892 23.6244L14.5153 24.013L15.2414 24.4016C15.3738 24.1543 15.5535 23.974 15.7926 23.8442L15.3997 23.1205ZM14.5153 24.013L13.7892 23.6244C13.5054 24.1548 13.3806 24.7555 13.3806 25.3969H14.2041H15.0277C15.0277 24.9684 15.1104 24.6464 15.2414 24.4016L14.5153 24.013ZM14.2041 25.3969V24.5734H10.8387V25.3969V26.2204H14.2041V25.3969ZM10.8387 25.3969H11.6622C11.6622 24.4276 11.8802 23.6294 12.2854 22.9704L11.5838 22.5391L10.8823 22.1078C10.2939 23.0647 10.0151 24.1717 10.0151 25.3969H10.8387ZM11.5838 22.5391L12.2854 22.9704C12.6966 22.3016 13.2725 21.7797 14.0366 21.4023L13.6719 20.6639L13.3072 19.9256C12.2807 20.4326 11.4646 21.1607 10.8823 22.1078L11.5838 22.5391ZM13.6719 20.6639L14.0366 21.4023C14.8007 21.0249 15.704 20.8242 16.7672 20.8242V20.0007V19.1771C15.4939 19.1771 14.3337 19.4186 13.3072 19.9256L13.6719 20.6639ZM16.7672 20.0007V20.8242C17.8714 20.8242 18.7905 21.0198 19.5479 21.3822L19.9033 20.6394L20.2588 19.8965C19.2365 19.4073 18.0649 19.1771 16.7672 19.1771V20.0007ZM19.9033 20.6394L19.5533 21.3848C20.3265 21.7478 20.9004 22.2375 21.3054 22.8474L21.9914 22.3917L22.6774 21.9361C22.0889 21.0501 21.2707 20.3716 20.2533 19.8939L19.9033 20.6394ZM21.9914 22.3917L21.3054 22.8474C21.7056 23.4498 21.913 24.1458 21.913 24.9629H22.7366H23.5601C23.5601 23.8475 23.2708 22.8294 22.6774 21.9361L21.9914 22.3917ZM22.7366 24.9629H21.913C21.913 25.4842 21.8102 26.0041 21.5971 26.5276L22.3599 26.8381L23.1226 27.1486C23.4118 26.4383 23.5601 25.7081 23.5601 24.9629H22.7366ZM22.3599 26.8381L21.5948 26.5334C21.3934 27.0392 21.0123 27.6483 20.4111 28.3635L21.0415 28.8934L21.6719 29.4233C22.3372 28.6318 22.8351 27.8706 23.125 27.1428L22.3599 26.8381ZM21.0415 28.8934L20.4131 28.3612C19.8122 29.0709 18.9485 29.942 17.8097 30.9783L18.3639 31.5874L18.9182 32.1965C20.083 31.1366 21.0044 30.2117 21.67 29.4255L21.0415 28.8934ZM18.3639 31.5874L17.7875 30.9992L15.3392 33.3984L15.9155 33.9866L16.4919 34.5748L18.9403 32.1756L18.3639 31.5874ZM15.9155 33.9866H15.092V34.1013H15.9155H16.7391V33.9866H15.9155ZM15.9155 34.1013V34.9248H22.9577V34.1013V33.2777H15.9155V34.1013ZM22.9577 34.1013H22.1341V37H22.9577H23.7812V34.1013H22.9577ZM22.9577 37V36.1765H11.0024V37V37.8235H22.9577V37ZM35.8197 34.6745L35.2379 35.2573L35.8191 35.8375L36.401 35.2579L35.8197 34.6745ZM26.0345 24.9056L25.4489 24.3266L24.8727 24.9094L25.4527 25.4884L26.0345 24.9056ZM28.1799 22.7356L28.7622 22.1533L28.1766 21.5677L27.5942 22.1566L28.1799 22.7356ZM37.9733 32.5291L38.5545 33.1125L39.1391 32.5302L38.5556 31.9468L37.9733 32.5291ZM28.1799 34.6745L27.5976 35.2568L28.1791 35.8384L28.7615 35.2575L28.1799 34.6745ZM26.0345 32.5291L25.4519 31.947L24.8701 32.5293L25.4522 33.1114L26.0345 32.5291ZM35.8197 22.7356L36.4043 22.1555L35.8217 21.5685L35.2372 22.1535L35.8197 22.7356ZM37.9733 24.9056L38.5549 25.4886L39.1365 24.9085L38.5579 24.3255L37.9733 24.9056ZM35.8197 34.6745L36.4016 34.0917L26.6163 24.3228L26.0345 24.9056L25.4527 25.4884L35.2379 35.2573L35.8197 34.6745ZM26.0345 24.9056L26.6201 25.4846L28.7655 23.3146L28.1799 22.7356L27.5942 22.1566L25.4489 24.3266L26.0345 24.9056ZM28.1799 22.7356L27.5976 23.3179L37.391 33.1114L37.9733 32.5291L38.5556 31.9468L28.7622 22.1533L28.1799 22.7356ZM37.9733 32.5291L37.3921 31.9456L35.2385 34.091L35.8197 34.6745L36.401 35.2579L38.5545 33.1125L37.9733 32.5291ZM28.1799 34.6745L28.7622 34.0921L26.6168 31.9468L26.0345 32.5291L25.4522 33.1114L27.5976 35.2568L28.1799 34.6745ZM26.0345 32.5291L26.6171 33.1112L36.4023 23.3177L35.8197 22.7356L35.2372 22.1535L25.4519 31.947L26.0345 32.5291ZM35.8197 22.7356L35.2352 23.3157L37.3888 25.4857L37.9733 24.9056L38.5579 24.3255L36.4043 22.1555L35.8197 22.7356ZM37.9733 24.9056L37.3917 24.3225L27.5983 34.0914L28.1799 34.6745L28.7615 35.2575L38.5549 25.4886L37.9733 24.9056ZM47.6358 37.2293L47.6305 38.0528L47.6321 38.0528L47.6358 37.2293ZM45.1383 36.7953L44.862 37.5711L44.8636 37.5717L45.1383 36.7953ZM42.9929 35.4114L42.4081 35.9912L42.4081 35.9912L42.9929 35.4114ZM41.4862 32.873L40.7082 33.1431L40.7095 33.1467L41.4862 32.873ZM40.9376 28.9916L40.114 28.9885V28.9916H40.9376ZM41.4207 25.2167L40.6296 24.9879L40.6288 24.9905L41.4207 25.2167ZM42.7964 22.3835L42.1453 21.8792L42.1431 21.8821L42.7964 22.3835ZM44.9499 20.6148L45.3085 21.3562L45.3124 21.3543L44.9499 20.6148ZM50.7228 20.6557L50.3489 21.3895L50.3527 21.3914L50.7228 20.6557ZM52.7863 22.4163L52.1112 22.8879L52.1135 22.8912L52.7863 22.4163ZM53.7362 24.9138V25.7373H54.6629L54.554 24.817L53.7362 24.9138ZM50.2397 24.9138L49.4378 25.1011L49.5864 25.7373H50.2397V24.9138ZM45.2693 24.4634L44.5624 24.0409L44.5606 24.0439L45.2693 24.4634ZM44.4095 28.3366L43.586 28.3311L43.5804 29.1601H44.4095V28.3366ZM44.5241 28.3366V29.1601H45.0306L45.2591 28.7081L44.5241 28.3366ZM45.5395 27.0673L46.0619 27.704L46.0627 27.7033L45.5395 27.0673ZM47.0052 26.2567L47.2703 27.0364L47.2749 27.0348L47.0052 26.2567ZM51.4025 26.6743L50.9758 27.3787L50.9795 27.3809L51.4025 26.6743ZM53.1139 34.4124L52.4073 33.9894L52.4054 33.9926L53.1139 34.4124ZM50.9112 36.4923L51.2963 37.2202L51.2978 37.2194L50.9112 36.4923ZM49.0851 34.0521L49.5127 34.7559L49.5127 34.7559L49.0851 34.0521ZM50.1005 32.9876L50.8225 33.3838L50.8225 33.3838L50.1005 32.9876ZM50.1005 29.9825L49.3768 30.3756L49.3806 30.3824L50.1005 29.9825ZM49.1015 28.9261L49.5331 28.2248L49.5331 28.2248L49.1015 28.9261ZM46.5057 28.7624L46.1757 28.0079L46.1713 28.0098L46.5057 28.7624ZM45.5968 29.4011L45.0027 28.8307L44.9968 28.837L45.5968 29.4011ZM44.9909 30.3509L45.7514 30.6669L45.7531 30.6628L44.9909 30.3509ZM45.1383 32.9713L44.4163 33.3675L44.42 33.3742L45.1383 32.9713ZM46.1536 34.044L45.7156 34.7413L45.7196 34.7438L46.1536 34.044ZM47.6358 37.2293L47.641 36.4058C46.869 36.4009 46.1277 36.2717 45.4129 36.0189L45.1383 36.7953L44.8636 37.5717C45.7538 37.8866 46.6775 38.0468 47.6305 38.0528L47.6358 37.2293ZM45.1383 36.7953L45.4146 36.0195C44.741 35.7796 44.1297 35.3884 43.5777 34.8316L42.9929 35.4114L42.4081 35.9912C43.1226 36.7119 43.9415 37.2432 44.862 37.5711L45.1383 36.7953ZM42.9929 35.4114L43.5777 34.8316C43.0485 34.2978 42.6032 33.5651 42.2629 32.5993L41.4862 32.873L40.7095 33.1467C41.1116 34.2881 41.6708 35.2476 42.4081 35.9912L42.9929 35.4114ZM41.4862 32.873L42.2642 32.6029C41.9375 31.662 41.7611 30.4657 41.7611 28.9916H40.9376H40.114C40.114 30.5855 40.3033 31.9768 40.7082 33.1431L41.4862 32.873ZM40.9376 28.9916L41.7611 28.9948C41.7663 27.6458 41.9206 26.4646 42.2125 25.443L41.4207 25.2167L40.6288 24.9905C40.2875 26.1852 40.1197 27.5206 40.114 28.9885L40.9376 28.9916ZM41.4207 25.2167L42.2118 25.4455C42.5105 24.4126 42.9276 23.565 43.4496 22.885L42.7964 22.3835L42.1431 21.8821C41.475 22.7524 40.975 23.7936 40.6296 24.9879L41.4207 25.2167ZM42.7964 22.3835L43.4474 22.8878C43.9745 22.2073 44.5943 21.7016 45.3085 21.3562L44.9499 20.6148L44.5914 19.8734C43.6351 20.3359 42.8191 21.0093 42.1453 21.8792L42.7964 22.3835ZM44.9499 20.6148L45.3124 21.3543C46.0224 21.0062 46.8324 20.8242 47.7586 20.8242V20.0007V19.1771C46.6103 19.1771 45.5479 19.4045 44.5874 19.8753L44.9499 20.6148ZM47.7586 20.0007V20.8242C48.769 20.8242 49.6252 21.0207 50.3489 21.3895L50.7228 20.6557L51.0967 19.922C50.1063 19.4173 48.9864 19.1771 47.7586 19.1771V20.0007ZM50.7228 20.6557L50.3527 21.3914C51.0952 21.765 51.6754 22.2641 52.1112 22.8879L52.7863 22.4163L53.4615 21.9447C52.86 21.0836 52.0645 20.409 51.093 19.9201L50.7228 20.6557ZM52.7863 22.4163L52.1135 22.8912C52.5567 23.519 52.8249 24.221 52.9184 25.0106L53.7362 24.9138L54.554 24.817C54.4291 23.7614 54.0641 22.7984 53.4591 21.9414L52.7863 22.4163ZM53.7362 24.9138V24.0902H50.2397V24.9138V25.7373H53.7362V24.9138ZM50.2397 24.9138L51.0416 24.7264C50.8659 23.9744 50.4824 23.3432 49.8792 22.8832L49.3799 23.5381L48.8806 24.193C49.1508 24.399 49.3405 24.6849 49.4378 25.1011L50.2397 24.9138ZM49.3799 23.5381L49.8792 22.8832C49.2753 22.4227 48.5508 22.2151 47.7586 22.2151V23.0386V23.8621C48.2547 23.8621 48.6111 23.9875 48.8806 24.193L49.3799 23.5381ZM47.7586 23.0386V22.2151C46.3722 22.2151 45.2763 22.8465 44.5624 24.0409L45.2693 24.4634L45.9762 24.8859C46.3977 24.1806 46.9614 23.8621 47.7586 23.8621V23.0386ZM45.2693 24.4634L44.5606 24.0439C43.8968 25.1653 43.5974 26.6181 43.586 28.3311L44.4095 28.3366L45.233 28.3421C45.2434 26.7906 45.5172 25.6613 45.978 24.8829L45.2693 24.4634ZM44.4095 28.3366V29.1601H44.5241V28.3366V27.513H44.4095V28.3366ZM44.5241 28.3366L45.2591 28.7081C45.4591 28.3124 45.7256 27.9799 46.0619 27.704L45.5395 27.0673L45.0171 26.4307C44.5018 26.8535 44.0914 27.3672 43.7892 27.965L44.5241 28.3366ZM45.5395 27.0673L46.0627 27.7033C46.4148 27.4136 46.8153 27.1911 47.2703 27.0364L47.0052 26.2567L46.7401 25.477C46.1033 25.6935 45.5267 26.0114 45.0163 26.4314L45.5395 27.0673ZM47.0052 26.2567L47.2749 27.0348C47.7354 26.8752 48.2253 26.7936 48.7494 26.7936V25.9701V25.1466C48.0506 25.1466 47.3778 25.256 46.7356 25.4786L47.0052 26.2567ZM48.7494 25.9701V26.7936C49.6075 26.7936 50.3416 26.9946 50.9759 27.3787L51.4025 26.6743L51.8291 25.9699C50.913 25.4151 49.8784 25.1466 48.7494 25.1466V25.9701ZM51.4025 26.6743L50.9795 27.3809C51.6259 27.7679 52.1359 28.2982 52.5152 28.9875L53.2367 28.5904L53.9582 28.1933C53.4422 27.2559 52.7294 26.5088 51.8254 25.9677L51.4025 26.6743ZM53.2367 28.5904L52.5152 28.9875C52.8877 29.6642 53.0846 30.4552 53.0846 31.3827H53.9082H54.7317C54.7317 30.2139 54.481 29.1434 53.9582 28.1933L53.2367 28.5904ZM53.9082 31.3827H53.0846C53.0846 32.3847 52.8527 33.2456 52.4073 33.9894L53.1139 34.4124L53.8204 34.8355C54.4341 33.8105 54.7317 32.6516 54.7317 31.3827H53.9082ZM53.1139 34.4124L52.4054 33.9926C51.9616 34.7415 51.3411 35.3309 50.5245 35.7652L50.9112 36.4923L51.2978 37.2194C52.37 36.6493 53.218 35.8521 53.8223 34.8323L53.1139 34.4124ZM50.9112 36.4923L50.526 35.7644C49.7259 36.1877 48.7719 36.4107 47.6394 36.4058L47.6358 37.2293L47.6321 38.0528C48.989 38.0588 50.2186 37.7904 51.2963 37.2202L50.9112 36.4923ZM47.6194 34.4452V35.2687C48.3033 35.2687 48.9421 35.1027 49.5127 34.7559L49.0851 34.0521L48.6575 33.3483C48.3656 33.5257 48.0273 33.6217 47.6194 33.6217V34.4452ZM49.0851 34.0521L49.5127 34.7559C50.0689 34.418 50.5082 33.9565 50.8225 33.3838L50.1005 32.9876L49.3785 32.5914C49.2015 32.9141 48.9639 33.1622 48.6575 33.3483L49.0851 34.0521ZM50.1005 32.9876L50.8225 33.3838C51.1407 32.804 51.2925 32.1634 51.2925 31.4809H50.469H49.6454C49.6454 31.9121 49.5516 32.276 49.3785 32.5914L50.1005 32.9876ZM50.469 31.4809H51.2925C51.2925 30.7986 51.1407 30.1591 50.8204 29.5825L50.1005 29.9825L49.3806 30.3824C49.5516 30.6902 49.6454 31.0496 49.6454 31.4809H50.469ZM50.1005 29.9825L50.8242 29.5894C50.5157 29.0215 50.0824 28.5628 49.5331 28.2248L49.1015 28.9261L48.6699 29.6275C48.9722 29.8136 49.2049 30.059 49.3768 30.3755L50.1005 29.9825ZM49.1015 28.9261L49.5331 28.2248C48.9657 27.8756 48.3278 27.7096 47.6439 27.7096V28.5331V29.3566C48.0519 29.3566 48.3857 29.4526 48.6699 29.6275L49.1015 28.9261ZM47.6439 28.5331V27.7096C47.1294 27.7096 46.6366 27.8062 46.1757 28.0079L46.5057 28.7624L46.8358 29.5168C47.0736 29.4128 47.3397 29.3566 47.6439 29.3566V28.5331ZM46.5057 28.7624L46.1713 28.0098C45.7293 28.2063 45.3383 28.4812 45.0027 28.8307L45.5968 29.4011L46.1909 29.9714C46.3794 29.775 46.5944 29.6242 46.8402 29.5149L46.5057 28.7624ZM45.5968 29.4011L44.9968 28.837C44.6685 29.1863 44.4127 29.5892 44.2287 30.0391L44.9909 30.3509L45.7531 30.6628C45.8638 30.392 46.012 30.1618 46.1969 29.9651L45.5968 29.4011ZM44.9909 30.3509L44.2303 30.035C44.0392 30.4951 43.9463 30.9824 43.9463 31.4891H44.7698H45.5933C45.5933 31.1879 45.6477 30.9165 45.7514 30.6668L44.9909 30.3509ZM44.7698 31.4891H43.9463C43.9463 32.1597 44.1001 32.7913 44.4163 33.3675L45.1383 32.9713L45.8602 32.5751C45.6851 32.256 45.5933 31.8994 45.5933 31.4891H44.7698ZM45.1383 32.9713L44.42 33.3742C44.737 33.9392 45.1708 34.399 45.7156 34.7413L46.1536 34.044L46.5917 33.3466C46.2849 33.1539 46.0417 32.8986 45.8565 32.5683L45.1383 32.9713ZM46.1536 34.044L45.7196 34.7438C46.2911 35.0983 46.9322 35.2687 47.6194 35.2687V34.4452V33.6217C47.2148 33.6217 46.8787 33.5246 46.5877 33.3441L46.1536 34.044Z" fill="#2B3F46" mask="url(#path-33-outside-1_2025_1084)"/>
<defs>
<linearGradient id="paint0_linear_2025_1084" x1="35.8411" y1="35.864" x2="-1.88188" y2="2.08424" gradientUnits="userSpaceOnUse">
<stop stop-color="#FFD5EF"/>
<stop offset="1" stop-color="#EFBDFD"/>
</linearGradient>
<linearGradient id="paint1_linear_2025_1084" x1="26.8809" y1="4.483" x2="25.174" y2="-4.68761" gradientUnits="userSpaceOnUse">
<stop stop-color="#F95457"/>
<stop offset="1" stop-color="#FDBDCB"/>
</linearGradient>
<linearGradient id="paint2_linear_2025_1084" x1="26.8809" y1="4.483" x2="25.174" y2="-4.68761" gradientUnits="userSpaceOnUse">
<stop stop-color="#F95457"/>
<stop offset="1" stop-color="#FDBDCB"/>
</linearGradient>
<linearGradient id="paint3_linear_2025_1084" x1="4.71795" y1="43.6522" x2="1.80375" y2="43.0282" gradientUnits="userSpaceOnUse">
<stop stop-color="#F95457"/>
<stop offset="1" stop-color="#FDBDCB"/>
</linearGradient>
<linearGradient id="paint4_linear_2025_1084" x1="35.7669" y1="58.0257" x2="30.2155" y2="50.8928" gradientUnits="userSpaceOnUse">
<stop stop-color="#F95457"/>
<stop offset="1" stop-color="#FDBDCB"/>
</linearGradient>
<linearGradient id="paint5_linear_2025_1084" x1="60.6657" y1="43.6522" x2="57.7515" y2="43.0282" gradientUnits="userSpaceOnUse">
<stop stop-color="#F95457"/>
<stop offset="1" stop-color="#FDBDCB"/>
</linearGradient>
<linearGradient id="paint6_linear_2025_1084" x1="-1.09962e-05" y1="-0.0328651" x2="30.641" y2="-4.05264" gradientUnits="userSpaceOnUse">
<stop stop-color="#D74446"/>
<stop offset="1" stop-color="#E165B8"/>
</linearGradient>
<linearGradient id="paint7_linear_2025_1084" x1="-1.11276e-05" y1="-0.033258" x2="31.0073" y2="-4.10108" gradientUnits="userSpaceOnUse">
<stop stop-color="#D74446"/>
<stop offset="1" stop-color="#E165B8"/>
</linearGradient>
<linearGradient id="paint8_linear_2025_1084" x1="-8.34573e-06" y1="-0.00415724" x2="14.606" y2="-11.5011" gradientUnits="userSpaceOnUse">
<stop stop-color="#D1369D"/>
<stop offset="1" stop-color="#B31E20"/>
</linearGradient>
<linearGradient id="paint9_linear_2025_1084" x1="-8.34573e-06" y1="-0.00415724" x2="14.606" y2="-11.5011" gradientUnits="userSpaceOnUse">
<stop stop-color="#D74446"/>
<stop offset="1" stop-color="#E165B8"/>
</linearGradient>
<linearGradient id="paint10_linear_2025_1084" x1="2.32056" y1="36.6188" x2="3.73346" y2="36.5744" gradientUnits="userSpaceOnUse">
<stop stop-color="#D74446"/>
<stop offset="1" stop-color="#D1369D"/>
</linearGradient>
<linearGradient id="paint11_linear_2025_1084" x1="27.5452" y1="52.5135" x2="34.1403" y2="51.2721" gradientUnits="userSpaceOnUse">
<stop stop-color="#B31E20"/>
<stop offset="1" stop-color="#D74446"/>
</linearGradient>
<linearGradient id="paint12_linear_2025_1084" x1="59.0066" y1="36.6188" x2="60.4195" y2="36.5744" gradientUnits="userSpaceOnUse">
<stop stop-color="#E165B8"/>
<stop offset="1" stop-color="#D74446"/>
</linearGradient>
<clipPath id="clip0_2025_1084">
<rect width="35.8992" height="35.8992" rx="4.44179" transform="matrix(0.866025 0.5 -0.866025 0.5 31.9104 19)" fill="white"/>
</clipPath>
<clipPath id="clip1_2025_1084">
<rect width="36.3731" height="36.3731" rx="4.50041" transform="matrix(0.866025 0.5 -0.866025 0.5 31.5 18.4604)" fill="white"/>
</clipPath>
</defs>
</svg>
