<svg width="198" height="198" viewBox="0 0 198 198" fill="none" xmlns="http://www.w3.org/2000/svg">
<g clip-path="url(#clip0_2417_9397)">
<rect width="110.591" height="110.591" rx="13.5044" transform="matrix(0.866025 0.5 -0.866025 0.5 98.3535 58.603)" fill="url(#paint0_linear_2417_9397)"/>
<rect width="82.9429" height="13.8238" transform="matrix(0.866025 0.5 0 1 14.5508 120.81)" fill="url(#paint1_linear_2417_9397)"/>
<rect width="82.9429" height="13.8238" transform="matrix(0.866025 -0.5 0 1 110.326 162.282)" fill="url(#paint2_linear_2417_9397)"/>
<path d="M9.5918 113.898C9.5918 116.598 11.4868 119.041 14.5507 120.81V134.634C11.4868 132.865 9.5918 130.422 9.5918 127.722V113.898Z" fill="url(#paint3_linear_2417_9397)"/>
<path d="M86.3828 162.282C92.9946 166.099 103.715 166.099 110.326 162.282V176.106C103.715 179.923 92.9946 179.923 86.3828 176.106V162.282Z" fill="url(#paint4_linear_2417_9397)"/>
<path d="M187.115 113.898C187.115 116.598 185.22 119.041 182.156 120.81V134.634C185.22 132.865 187.115 130.422 187.115 127.722V113.898Z" fill="url(#paint5_linear_2417_9397)"/>
<g clip-path="url(#clip1_2417_9397)">
<rect width="110.727" height="110.727" rx="13.7001" transform="matrix(0.866025 0.5 -0.866025 0.5 98.4219 58.603)" fill="url(#paint6_linear_2417_9397)"/>
<rect width="35.6535" height="35.6535" transform="matrix(0.866025 0.5 -0.866025 0.5 98.4219 58.603)" fill="black" fill-opacity="0.1"/>
<rect width="35.6535" height="35.6535" transform="matrix(0.866025 0.5 -0.866025 0.5 65.9141 77.3711)" fill="black" fill-opacity="0.1"/>
<rect width="35.6535" height="35.6535" transform="matrix(0.866025 0.5 -0.866025 0.5 65.9141 114.908)" fill="black" fill-opacity="0.1"/>
<rect width="35.6535" height="35.6535" transform="matrix(0.866025 0.5 -0.866025 0.5 130.93 77.3711)" fill="black" fill-opacity="0.1"/>
<rect width="35.6535" height="35.6535" transform="matrix(0.866025 0.5 -0.866025 0.5 130.93 114.908)" fill="black" fill-opacity="0.1"/>
<rect width="35.6535" height="35.6535" transform="matrix(0.866025 0.5 -0.866025 0.5 163.438 96.1396)" fill="black" fill-opacity="0.1"/>
<rect width="35.6535" height="35.6535" transform="matrix(0.866025 0.5 -0.866025 0.5 33.4062 96.1396)" fill="black" fill-opacity="0.1"/>
<rect width="35.6535" height="35.6535" transform="matrix(0.866025 0.5 -0.866025 0.5 98.4219 133.676)" fill="black" fill-opacity="0.1"/>
<rect width="35.6535" height="35.6535" transform="matrix(0.866025 0.5 -0.866025 0.5 98.4219 96.1396)" fill="black" fill-opacity="0.1"/>
</g>
<rect width="112.05" height="112.05" rx="13.6827" transform="matrix(0.866025 0.5 -0.866025 0.5 97.0898 56.9395)" fill="url(#paint7_linear_2417_9397)"/>
<rect width="84.0376" height="14.0063" transform="matrix(0.866025 0.5 0 1 12.1797 119.969)" fill="url(#paint8_linear_2417_9397)"/>
<rect width="84.0376" height="14.0063" transform="matrix(0.866025 -0.5 0 1 109.219 161.987)" fill="url(#paint9_linear_2417_9397)"/>
<path d="M7.15625 112.965C7.15625 115.7 9.07629 118.176 12.1806 119.968V133.974C9.07629 132.182 7.15625 129.706 7.15625 126.971V112.965Z" fill="url(#paint10_linear_2417_9397)"/>
<path d="M84.959 161.987C91.6581 165.855 102.519 165.855 109.219 161.987V175.993C102.519 179.861 91.6581 179.861 84.959 175.993V161.987Z" fill="url(#paint11_linear_2417_9397)"/>
<path d="M187.022 112.965C187.022 115.7 185.102 118.176 181.998 119.968V133.974C185.102 132.182 187.022 129.706 187.022 126.971V112.965Z" fill="url(#paint12_linear_2417_9397)"/>
<g clip-path="url(#clip2_2417_9397)">
<rect width="36.1241" height="36.1241" transform="matrix(0.866025 0.5 -0.866025 0.5 97.1582 56.9395)" fill="white" fill-opacity="0.2"/>
<rect width="36.1241" height="36.1241" transform="matrix(0.866025 0.5 -0.866025 0.5 64.2207 75.9556)" fill="white" fill-opacity="0.2"/>
<rect width="36.1241" height="36.1241" transform="matrix(0.866025 0.5 -0.866025 0.5 64.2207 113.987)" fill="white" fill-opacity="0.2"/>
<rect width="36.1241" height="36.1241" transform="matrix(0.866025 0.5 -0.866025 0.5 130.096 75.9556)" fill="white" fill-opacity="0.2"/>
<rect width="36.1241" height="36.1241" transform="matrix(0.866025 0.5 -0.866025 0.5 130.096 113.987)" fill="white" fill-opacity="0.2"/>
<rect width="36.1241" height="36.1241" transform="matrix(0.866025 0.5 -0.866025 0.5 163.031 94.9717)" fill="white" fill-opacity="0.2"/>
<rect width="36.1241" height="36.1241" transform="matrix(0.866025 0.5 -0.866025 0.5 31.2852 94.9717)" fill="white" fill-opacity="0.2"/>
<rect width="36.1241" height="36.1241" transform="matrix(0.866025 0.5 -0.866025 0.5 97.1582 133.003)" fill="white" fill-opacity="0.2"/>
<rect width="36.1241" height="36.1241" transform="matrix(0.866025 0.5 -0.866025 0.5 97.1582 94.9712)" fill="white" fill-opacity="0.2"/>
</g>
</g>
<defs>
<linearGradient id="paint0_linear_2417_9397" x1="110.547" y1="110.618" x2="-5.80443" y2="6.42857" gradientUnits="userSpaceOnUse">
<stop stop-color="#FFD5EF"/>
<stop offset="1" stop-color="#EFBDFD"/>
</linearGradient>
<linearGradient id="paint1_linear_2417_9397" x1="82.9106" y1="13.8272" x2="77.646" y2="-14.4584" gradientUnits="userSpaceOnUse">
<stop stop-color="#F95457"/>
<stop offset="1" stop-color="#FDBDCB"/>
</linearGradient>
<linearGradient id="paint2_linear_2417_9397" x1="82.9106" y1="13.8272" x2="77.646" y2="-14.4584" gradientUnits="userSpaceOnUse">
<stop stop-color="#F95457"/>
<stop offset="1" stop-color="#FDBDCB"/>
</linearGradient>
<linearGradient id="paint3_linear_2417_9397" x1="14.5487" y1="134.639" x2="5.56025" y2="132.714" gradientUnits="userSpaceOnUse">
<stop stop-color="#F95457"/>
<stop offset="1" stop-color="#FDBDCB"/>
</linearGradient>
<linearGradient id="paint4_linear_2417_9397" x1="110.317" y1="178.973" x2="93.1946" y2="156.972" gradientUnits="userSpaceOnUse">
<stop stop-color="#F95457"/>
<stop offset="1" stop-color="#FDBDCB"/>
</linearGradient>
<linearGradient id="paint5_linear_2417_9397" x1="187.113" y1="134.639" x2="178.125" y2="132.714" gradientUnits="userSpaceOnUse">
<stop stop-color="#F95457"/>
<stop offset="1" stop-color="#FDBDCB"/>
</linearGradient>
<linearGradient id="paint6_linear_2417_9397" x1="-3.39165e-05" y1="-0.101368" x2="94.5084" y2="-12.4999" gradientUnits="userSpaceOnUse">
<stop stop-color="#D74446"/>
<stop offset="1" stop-color="#E165B8"/>
</linearGradient>
<linearGradient id="paint7_linear_2417_9397" x1="-3.43218e-05" y1="-0.10258" x2="95.638" y2="-12.6493" gradientUnits="userSpaceOnUse">
<stop stop-color="#D74446"/>
<stop offset="1" stop-color="#E165B8"/>
</linearGradient>
<linearGradient id="paint8_linear_2417_9397" x1="-2.57414e-05" y1="-0.0128225" x2="45.0505" y2="-35.4737" gradientUnits="userSpaceOnUse">
<stop stop-color="#D1369D"/>
<stop offset="1" stop-color="#B31E20"/>
</linearGradient>
<linearGradient id="paint9_linear_2417_9397" x1="-2.57414e-05" y1="-0.0128225" x2="45.0505" y2="-35.4737" gradientUnits="userSpaceOnUse">
<stop stop-color="#D74446"/>
<stop offset="1" stop-color="#E165B8"/>
</linearGradient>
<linearGradient id="paint10_linear_2417_9397" x1="7.15625" y1="112.946" x2="11.5142" y2="112.809" gradientUnits="userSpaceOnUse">
<stop stop-color="#D74446"/>
<stop offset="1" stop-color="#D1369D"/>
</linearGradient>
<linearGradient id="paint11_linear_2417_9397" x1="84.959" y1="161.971" x2="105.301" y2="158.142" gradientUnits="userSpaceOnUse">
<stop stop-color="#B31E20"/>
<stop offset="1" stop-color="#D74446"/>
</linearGradient>
<linearGradient id="paint12_linear_2417_9397" x1="181.998" y1="112.946" x2="186.356" y2="112.809" gradientUnits="userSpaceOnUse">
<stop stop-color="#E165B8"/>
<stop offset="1" stop-color="#D74446"/>
</linearGradient>
<clipPath id="clip0_2417_9397">
<rect width="194.316" height="122.03" fill="white" transform="translate(0 56.939)"/>
</clipPath>
<clipPath id="clip1_2417_9397">
<rect width="110.727" height="110.727" rx="13.7001" transform="matrix(0.866025 0.5 -0.866025 0.5 98.4219 58.603)" fill="white"/>
</clipPath>
<clipPath id="clip2_2417_9397">
<rect width="112.188" height="112.188" rx="13.881" transform="matrix(0.866025 0.5 -0.866025 0.5 97.1582 56.9395)" fill="white"/>
</clipPath>
</defs>
</svg>
