<svg width="64" height="64" viewBox="0 0 64 64" fill="none" xmlns="http://www.w3.org/2000/svg">
<rect width="35.8551" height="35.8551" rx="4.37833" transform="matrix(0.866025 0.5 -0.866025 0.5 31.8887 19)" fill="url(#paint0_linear_2025_1204)"/>
<rect width="26.8913" height="4.48189" transform="matrix(0.866025 0.5 0 1 4.71851 39.1685)" fill="url(#paint1_linear_2025_1204)"/>
<rect width="26.8913" height="4.48189" transform="matrix(0.866025 -0.5 0 1 35.7698 52.6143)" fill="url(#paint2_linear_2025_1204)"/>
<path d="M3.11084 36.9277C3.11084 37.8029 3.72524 38.5952 4.71858 39.1687V43.6506C3.72524 43.0771 3.11084 42.2848 3.11084 41.4096V36.9277Z" fill="url(#paint3_linear_2025_1204)"/>
<path d="M28.0071 52.6143C30.1507 53.8519 33.6263 53.8519 35.7699 52.6143V57.0961C33.6263 58.3338 30.1507 58.3338 28.0071 57.0961V52.6143Z" fill="url(#paint4_linear_2025_1204)"/>
<path d="M60.6663 36.9277C60.6663 37.8029 60.0519 38.5952 59.0586 39.1687V43.6506C60.0519 43.0771 60.6663 42.2848 60.6663 41.4096V36.9277Z" fill="url(#paint5_linear_2025_1204)"/>
<g clip-path="url(#clip0_2025_1204)">
<rect width="35.8992" height="35.8992" rx="4.44179" transform="matrix(0.866025 0.5 -0.866025 0.5 31.9104 19)" fill="url(#paint6_linear_2025_1204)"/>
<rect width="11.5594" height="11.5594" transform="matrix(0.866025 0.5 -0.866025 0.5 31.9104 19)" fill="black" fill-opacity="0.1"/>
<rect width="11.5594" height="11.5594" transform="matrix(0.866025 0.5 -0.866025 0.5 21.3711 25.085)" fill="black" fill-opacity="0.1"/>
<rect width="11.5594" height="11.5594" transform="matrix(0.866025 0.5 -0.866025 0.5 21.3711 37.2549)" fill="black" fill-opacity="0.1"/>
<rect width="11.5594" height="11.5594" transform="matrix(0.866025 0.5 -0.866025 0.5 42.45 25.085)" fill="black" fill-opacity="0.1"/>
<rect width="11.5594" height="11.5594" transform="matrix(0.866025 0.5 -0.866025 0.5 42.45 37.2549)" fill="black" fill-opacity="0.1"/>
<rect width="11.5594" height="11.5594" transform="matrix(0.866025 0.5 -0.866025 0.5 52.9893 31.1699)" fill="black" fill-opacity="0.1"/>
<rect width="11.5594" height="11.5594" transform="matrix(0.866025 0.5 -0.866025 0.5 10.8315 31.1699)" fill="black" fill-opacity="0.1"/>
<rect width="11.5594" height="11.5594" transform="matrix(0.866025 0.5 -0.866025 0.5 31.9104 43.3398)" fill="black" fill-opacity="0.1"/>
<rect width="11.5594" height="11.5594" transform="matrix(0.866025 0.5 -0.866025 0.5 31.9104 31.1699)" fill="black" fill-opacity="0.1"/>
</g>
<rect width="36.3283" height="36.3283" rx="4.43612" transform="matrix(0.866025 0.5 -0.866025 0.5 31.478 18.4604)" fill="url(#paint7_linear_2025_1204)"/>
<rect width="27.2462" height="4.54104" transform="matrix(0.866025 0.5 0 1 3.94922 38.8955)" fill="url(#paint8_linear_2025_1204)"/>
<rect width="27.2462" height="4.54104" transform="matrix(0.866025 -0.5 0 1 35.4104 52.5186)" fill="url(#paint9_linear_2025_1204)"/>
<path d="M2.32056 36.625C2.32056 37.5117 2.94306 38.3144 3.94952 38.8955V43.4366C2.94306 42.8555 2.32056 42.0527 2.32056 41.166V36.625Z" fill="url(#paint10_linear_2025_1204)"/>
<path d="M27.5452 52.5186C29.7171 53.7725 33.2385 53.7725 35.4105 52.5186V57.0596C33.2385 58.3136 29.7171 58.3136 27.5452 57.0596V52.5186Z" fill="url(#paint11_linear_2025_1204)"/>
<path d="M60.6356 36.625C60.6356 37.5117 60.013 38.3144 59.0066 38.8955V43.4366C60.013 42.8555 60.6356 42.0527 60.6356 41.166V36.625Z" fill="url(#paint12_linear_2025_1204)"/>
<g clip-path="url(#clip1_2025_1204)">
<rect width="11.712" height="11.712" transform="matrix(0.866025 0.5 -0.866025 0.5 31.5 18.4604)" fill="white" fill-opacity="0.2"/>
<rect width="11.712" height="11.712" transform="matrix(0.866025 0.5 -0.866025 0.5 20.8213 24.626)" fill="white" fill-opacity="0.2"/>
<rect width="11.712" height="11.712" transform="matrix(0.866025 0.5 -0.866025 0.5 20.8215 36.9561)" fill="white" fill-opacity="0.2"/>
<rect width="11.712" height="11.712" transform="matrix(0.866025 0.5 -0.866025 0.5 42.1785 24.6255)" fill="white" fill-opacity="0.2"/>
<rect width="11.712" height="11.712" transform="matrix(0.866025 0.5 -0.866025 0.5 42.1785 36.9561)" fill="white" fill-opacity="0.2"/>
<rect width="11.712" height="11.712" transform="matrix(0.866025 0.5 -0.866025 0.5 52.8569 30.791)" fill="white" fill-opacity="0.2"/>
<rect width="11.712" height="11.712" transform="matrix(0.866025 0.5 -0.866025 0.5 10.1428 30.791)" fill="white" fill-opacity="0.2"/>
<rect width="11.712" height="11.712" transform="matrix(0.866025 0.5 -0.866025 0.5 31.5 43.1216)" fill="white" fill-opacity="0.2"/>
<rect width="11.712" height="11.712" transform="matrix(0.866025 0.5 -0.866025 0.5 31.5 30.791)" fill="white" fill-opacity="0.2"/>
</g>
<mask id="path-33-outside-1_2025_1204" maskUnits="userSpaceOnUse" x="9" y="19" width="46" height="20" fill="black">
<rect fill="white" x="9" y="19" width="46" height="20"/>
<path d="M17.0435 37.2293C15.8207 37.2293 14.7316 37.0191 13.7763 36.5988C12.8264 36.173 12.0758 35.5888 11.5245 34.8464C10.9786 34.0985 10.6974 33.236 10.681 32.2589H14.2512C14.2731 32.6683 14.4068 33.0286 14.6525 33.3397C14.9036 33.6454 15.2366 33.8829 15.6515 34.0521C16.0664 34.2214 16.5331 34.306 17.0517 34.306C17.5921 34.306 18.0698 34.2104 18.4847 34.0194C18.8996 33.8283 19.2244 33.5636 19.4591 33.2251C19.6939 32.8866 19.8112 32.4963 19.8112 32.0541C19.8112 31.6065 19.6857 31.2107 19.4346 30.8668C19.1889 30.5174 18.8341 30.2445 18.37 30.048C17.9115 29.8514 17.3656 29.7532 16.7323 29.7532H15.1683V27.1492H16.7323C17.2673 27.1492 17.7395 27.0564 18.149 26.8708C18.5638 26.6852 18.8859 26.4286 19.1152 26.1011C19.3445 25.7681 19.4591 25.3805 19.4591 24.9383C19.4591 24.518 19.3581 24.1495 19.1561 23.8329C18.9596 23.5108 18.6812 23.2597 18.3209 23.0795C17.9661 22.8994 17.5512 22.8093 17.0763 22.8093C16.5959 22.8093 16.1564 22.8967 15.7579 23.0714C15.3594 23.2406 15.0401 23.4835 14.7999 23.8001C14.5597 24.1168 14.4314 24.488 14.415 24.9138H11.0168C11.0332 23.9475 11.3088 23.0959 11.8438 22.359C12.3788 21.622 13.0994 21.0461 14.0056 20.6312C14.9172 20.2108 15.9463 20.0007 17.0926 20.0007C18.25 20.0007 19.2626 20.2108 20.1306 20.6312C20.9986 21.0515 21.6727 21.6193 22.1531 22.3344C22.639 23.0441 22.8792 23.8411 22.8737 24.7254C22.8792 25.6644 22.5871 26.4477 21.9976 27.0755C21.4134 27.7033 20.6519 28.1018 19.713 28.2711V28.4021C20.9467 28.5604 21.8856 28.9889 22.5298 29.6877C23.1794 30.381 23.5015 31.2489 23.4961 32.2916C23.5015 33.2469 23.2258 34.0958 22.669 34.8382C22.1177 35.5807 21.3561 36.1648 20.3844 36.5906C19.4127 37.0164 18.2991 37.2293 17.0435 37.2293ZM36.3377 34.6745L26.5524 24.9056L28.6978 22.7356L38.4912 32.5291L36.3377 34.6745ZM28.6978 34.6745L26.5524 32.5291L36.3377 22.7356L38.4912 24.9056L28.6978 34.6745ZM47.8425 37.2293C46.6852 37.2293 45.6535 37.0164 44.7473 36.5906C43.8465 36.1648 43.1314 35.5779 42.6019 34.83C42.0724 34.0822 41.7967 33.2251 41.7748 32.2589H45.214C45.2522 32.9085 45.5252 33.4353 46.0329 33.8392C46.5405 34.2432 47.1438 34.4452 47.8425 34.4452C48.3993 34.4452 48.8906 34.3224 49.3164 34.0767C49.7477 33.8256 50.0834 33.4789 50.3236 33.0368C50.5693 32.5891 50.6921 32.076 50.6921 31.4973C50.6921 30.9078 50.5666 30.3891 50.3154 29.9415C50.0698 29.4939 49.7286 29.1445 49.2919 28.8934C48.8552 28.6423 48.3557 28.514 47.7934 28.5085C47.3021 28.5085 46.8244 28.6095 46.3604 28.8115C45.9018 29.0135 45.5443 29.2892 45.2877 29.6385L42.1351 29.0735L42.9294 20.2299H53.1814V23.1287H45.8527L45.4187 27.3294H45.517C45.8118 26.9145 46.2567 26.5706 46.8517 26.2976C47.4467 26.0247 48.1127 25.8882 48.8497 25.8882C49.8596 25.8882 50.7604 26.1257 51.5519 26.6006C52.3435 27.0755 52.9685 27.7279 53.4271 28.5577C53.8856 29.382 54.1122 30.3318 54.1067 31.4073C54.1122 32.5373 53.8502 33.5417 53.3206 34.4206C52.7966 35.2941 52.0623 35.9819 51.1179 36.4841C50.179 36.9809 49.0872 37.2293 47.8425 37.2293Z"/>
</mask>
<path d="M17.0435 37.2293C15.8207 37.2293 14.7316 37.0191 13.7763 36.5988C12.8264 36.173 12.0758 35.5888 11.5245 34.8464C10.9786 34.0985 10.6974 33.236 10.681 32.2589H14.2512C14.2731 32.6683 14.4068 33.0286 14.6525 33.3397C14.9036 33.6454 15.2366 33.8829 15.6515 34.0521C16.0664 34.2214 16.5331 34.306 17.0517 34.306C17.5921 34.306 18.0698 34.2104 18.4847 34.0194C18.8996 33.8283 19.2244 33.5636 19.4591 33.2251C19.6939 32.8866 19.8112 32.4963 19.8112 32.0541C19.8112 31.6065 19.6857 31.2107 19.4346 30.8668C19.1889 30.5174 18.8341 30.2445 18.37 30.048C17.9115 29.8514 17.3656 29.7532 16.7323 29.7532H15.1683V27.1492H16.7323C17.2673 27.1492 17.7395 27.0564 18.149 26.8708C18.5638 26.6852 18.8859 26.4286 19.1152 26.1011C19.3445 25.7681 19.4591 25.3805 19.4591 24.9383C19.4591 24.518 19.3581 24.1495 19.1561 23.8329C18.9596 23.5108 18.6812 23.2597 18.3209 23.0795C17.9661 22.8994 17.5512 22.8093 17.0763 22.8093C16.5959 22.8093 16.1564 22.8967 15.7579 23.0714C15.3594 23.2406 15.0401 23.4835 14.7999 23.8001C14.5597 24.1168 14.4314 24.488 14.415 24.9138H11.0168C11.0332 23.9475 11.3088 23.0959 11.8438 22.359C12.3788 21.622 13.0994 21.0461 14.0056 20.6312C14.9172 20.2108 15.9463 20.0007 17.0926 20.0007C18.25 20.0007 19.2626 20.2108 20.1306 20.6312C20.9986 21.0515 21.6727 21.6193 22.1531 22.3344C22.639 23.0441 22.8792 23.8411 22.8737 24.7254C22.8792 25.6644 22.5871 26.4477 21.9976 27.0755C21.4134 27.7033 20.6519 28.1018 19.713 28.2711V28.4021C20.9467 28.5604 21.8856 28.9889 22.5298 29.6877C23.1794 30.381 23.5015 31.2489 23.4961 32.2916C23.5015 33.2469 23.2258 34.0958 22.669 34.8382C22.1177 35.5807 21.3561 36.1648 20.3844 36.5906C19.4127 37.0164 18.2991 37.2293 17.0435 37.2293ZM36.3377 34.6745L26.5524 24.9056L28.6978 22.7356L38.4912 32.5291L36.3377 34.6745ZM28.6978 34.6745L26.5524 32.5291L36.3377 22.7356L38.4912 24.9056L28.6978 34.6745ZM47.8425 37.2293C46.6852 37.2293 45.6535 37.0164 44.7473 36.5906C43.8465 36.1648 43.1314 35.5779 42.6019 34.83C42.0724 34.0822 41.7967 33.2251 41.7748 32.2589H45.214C45.2522 32.9085 45.5252 33.4353 46.0329 33.8392C46.5405 34.2432 47.1438 34.4452 47.8425 34.4452C48.3993 34.4452 48.8906 34.3224 49.3164 34.0767C49.7477 33.8256 50.0834 33.4789 50.3236 33.0368C50.5693 32.5891 50.6921 32.076 50.6921 31.4973C50.6921 30.9078 50.5666 30.3891 50.3154 29.9415C50.0698 29.4939 49.7286 29.1445 49.2919 28.8934C48.8552 28.6423 48.3557 28.514 47.7934 28.5085C47.3021 28.5085 46.8244 28.6095 46.3604 28.8115C45.9018 29.0135 45.5443 29.2892 45.2877 29.6385L42.1351 29.0735L42.9294 20.2299H53.1814V23.1287H45.8527L45.4187 27.3294H45.517C45.8118 26.9145 46.2567 26.5706 46.8517 26.2976C47.4467 26.0247 48.1127 25.8882 48.8497 25.8882C49.8596 25.8882 50.7604 26.1257 51.5519 26.6006C52.3435 27.0755 52.9685 27.7279 53.4271 28.5577C53.8856 29.382 54.1122 30.3318 54.1067 31.4073C54.1122 32.5373 53.8502 33.5417 53.3206 34.4206C52.7966 35.2941 52.0623 35.9819 51.1179 36.4841C50.179 36.9809 49.0872 37.2293 47.8425 37.2293Z" fill="white"/>
<path d="M13.7763 36.5988L13.4394 37.3503L13.4446 37.3526L13.7763 36.5988ZM11.5245 34.8464L10.8593 35.332L10.8633 35.3374L11.5245 34.8464ZM10.681 32.2589V31.4353H9.8436L9.85763 32.2727L10.681 32.2589ZM14.2512 32.2589L15.0736 32.215L15.032 31.4353H14.2512V32.2589ZM14.6525 33.3397L14.0061 33.85L14.011 33.8563L14.0161 33.8625L14.6525 33.3397ZM15.6515 34.0521L15.3404 34.8147L15.3404 34.8147L15.6515 34.0521ZM18.4847 34.0194L18.1402 33.2714L18.1402 33.2714L18.4847 34.0194ZM19.4591 33.2251L20.1358 33.6944L20.1358 33.6944L19.4591 33.2251ZM19.4346 30.8668L18.7609 31.3405L18.7651 31.3465L18.7695 31.3524L19.4346 30.8668ZM18.37 30.048L18.0456 30.8049L18.0489 30.8063L18.37 30.048ZM15.1683 29.7532H14.3448V30.5767H15.1683V29.7532ZM15.1683 27.1492V26.3257H14.3448V27.1492H15.1683ZM18.149 26.8708L17.8127 26.1191L17.8089 26.1208L18.149 26.8708ZM19.1152 26.1011L19.7899 26.5734L19.7935 26.5681L19.1152 26.1011ZM19.1561 23.8329L18.4531 24.2618L18.4574 24.2689L18.4619 24.2758L19.1561 23.8329ZM18.3209 23.0795L17.9481 23.8139L17.9526 23.8161L18.3209 23.0795ZM15.7579 23.0714L16.0798 23.8294L16.0885 23.8256L15.7579 23.0714ZM14.7999 23.8001L15.456 24.2979L15.456 24.2979L14.7999 23.8001ZM14.415 24.9138V25.7373H15.2075L15.2379 24.9454L14.415 24.9138ZM11.0168 24.9138L10.1934 24.8998L10.1792 25.7373H11.0168V24.9138ZM11.8438 22.359L12.5103 22.8427L12.5103 22.8427L11.8438 22.359ZM14.0056 20.6312L14.3484 21.38L14.3504 21.379L14.0056 20.6312ZM20.1306 20.6312L20.4895 19.89L20.4895 19.89L20.1306 20.6312ZM22.1531 22.3344L21.4695 22.7936L21.4736 22.7996L22.1531 22.3344ZM22.8737 24.7254L22.0502 24.7203L22.0502 24.7302L22.8737 24.7254ZM21.9976 27.0755L21.3972 26.5118L21.3946 26.5146L21.9976 27.0755ZM19.713 28.2711L19.5669 27.4606L18.8894 27.5827V28.2711H19.713ZM19.713 28.4021H18.8894V29.1267L19.6081 29.2189L19.713 28.4021ZM22.5298 29.6877L21.9243 30.2459L21.9289 30.2508L22.5298 29.6877ZM23.4961 32.2916L22.6725 32.2873L22.6725 32.2963L23.4961 32.2916ZM22.669 34.8382L22.0102 34.3441L22.0079 34.3472L22.669 34.8382ZM20.3844 36.5906L20.0539 35.8363L20.0539 35.8363L20.3844 36.5906ZM17.0435 37.2293V36.4057C15.9155 36.4057 14.9424 36.2121 14.108 35.845L13.7763 36.5988L13.4446 37.3526C14.5209 37.8261 15.7259 38.0528 17.0435 38.0528V37.2293ZM13.7763 36.5988L14.1132 35.8473C13.2755 35.4718 12.6428 34.9711 12.1856 34.3554L11.5245 34.8464L10.8633 35.3374C11.5088 36.2066 12.3774 36.8742 13.4394 37.3502L13.7763 36.5988ZM11.5245 34.8464L12.1896 34.3609C11.7496 33.758 11.5182 33.0624 11.5045 32.2451L10.681 32.2589L9.85763 32.2727C9.87669 33.4096 10.2075 34.4391 10.8593 35.332L11.5245 34.8464ZM10.681 32.2589V33.0824H14.2512V32.2589V31.4353H10.681V32.2589ZM14.2512 32.2589L13.4289 32.3027C13.4594 32.8759 13.6512 33.4005 14.0061 33.85L14.6525 33.3397L15.2988 32.8294C15.1624 32.6566 15.0867 32.4607 15.0736 32.215L14.2512 32.2589ZM14.6525 33.3397L14.0161 33.8625C14.365 34.2872 14.8159 34.6007 15.3404 34.8147L15.6515 34.0521L15.9625 33.2896C15.6573 33.1651 15.4421 33.0037 15.2888 32.817L14.6525 33.3397ZM15.6515 34.0521L15.3404 34.8147C15.8683 35.03 16.443 35.1295 17.0517 35.1295V34.306V33.4825C16.6232 33.4825 16.2644 33.4127 15.9625 33.2896L15.6515 34.0521ZM17.0517 34.306V35.1295C17.6895 35.1295 18.2883 35.0165 18.8292 34.7674L18.4847 34.0194L18.1402 33.2714C17.8513 33.4044 17.4947 33.4825 17.0517 33.4825V34.306ZM18.4847 34.0194L18.8292 34.7674C19.3628 34.5217 19.8083 34.1666 20.1358 33.6944L19.4591 33.2251L18.7824 32.7558C18.6404 32.9605 18.4364 33.135 18.1402 33.2714L18.4847 34.0194ZM19.4591 33.2251L20.1358 33.6944C20.4733 33.2078 20.6348 32.6511 20.6348 32.0541H19.8112H18.9877C18.9877 32.3416 18.9144 32.5655 18.7824 32.7558L19.4591 33.2251ZM19.8112 32.0541H20.6348C20.6348 31.4414 20.4592 30.8736 20.0997 30.3812L19.4346 30.8668L18.7695 31.3524C18.9121 31.5479 18.9877 31.7716 18.9877 32.0541H19.8112ZM19.4346 30.8668L20.1082 30.3931C19.7591 29.8966 19.2712 29.5353 18.6912 29.2896L18.37 30.048L18.0489 30.8063C18.3969 30.9537 18.6187 31.1382 18.7609 31.3405L19.4346 30.8668ZM18.37 30.048L18.6945 29.291C18.1098 29.0404 17.4482 28.9296 16.7323 28.9296V29.7532V30.5767C17.283 30.5767 17.7132 30.6624 18.0456 30.8049L18.37 30.048ZM16.7323 29.7532V28.9296H15.1683V29.7532V30.5767H16.7323V29.7532ZM15.1683 29.7532H15.9919V27.1492H15.1683H14.3448V29.7532H15.1683ZM15.1683 27.1492V27.9728H16.7323V27.1492V26.3257H15.1683V27.1492ZM16.7323 27.1492V27.9728C17.3626 27.9728 17.9544 27.8632 18.489 27.6209L18.149 26.8708L17.8089 26.1208C17.5247 26.2496 17.172 26.3257 16.7323 26.3257V27.1492ZM18.149 26.8708L18.4853 27.6226C19.0171 27.3846 19.464 27.0389 19.7899 26.5734L19.1152 26.1011L18.4405 25.6288C18.3079 25.8183 18.1105 25.9858 17.8127 26.1191L18.149 26.8708ZM19.1152 26.1011L19.7935 26.5681C20.1262 26.0849 20.2826 25.5309 20.2826 24.9383H19.4591H18.6356C18.6356 25.2301 18.5627 25.4513 18.4369 25.6341L19.1152 26.1011ZM19.4591 24.9383H20.2826C20.2826 24.3804 20.1466 23.8543 19.8504 23.39L19.1561 23.8329L18.4619 24.2758C18.5696 24.4447 18.6356 24.6556 18.6356 24.9383H19.4591ZM19.1561 23.8329L19.8591 23.4039C19.5766 22.9409 19.178 22.5873 18.6892 22.343L18.3209 23.0795L17.9526 23.8161C18.1845 23.932 18.3426 24.0807 18.4531 24.2618L19.1561 23.8329ZM18.3209 23.0795L18.6937 22.3452C18.2031 22.0961 17.6559 21.9858 17.0763 21.9858V22.8093V23.6329C17.4465 23.6329 17.7291 23.7027 17.9481 23.8139L18.3209 23.0795ZM17.0763 22.8093V21.9858C16.494 21.9858 15.9404 22.0922 15.4273 22.3171L15.7579 23.0714L16.0885 23.8256C16.3724 23.7012 16.6978 23.6329 17.0763 23.6329V22.8093ZM15.7579 23.0714L15.436 22.3133C14.9175 22.5335 14.4784 22.8613 14.1438 23.3024L14.7999 23.8001L15.456 24.2979C15.6017 24.1057 15.8013 23.9476 16.0798 23.8294L15.7579 23.0714ZM14.7999 23.8001L14.1438 23.3024C13.794 23.7635 13.6145 24.3004 13.5921 24.8821L14.415 24.9138L15.2379 24.9454C15.2483 24.6756 15.3254 24.47 15.456 24.2979L14.7999 23.8001ZM14.415 24.9138V24.0902H11.0168V24.9138V25.7373H14.415V24.9138ZM11.0168 24.9138L11.8402 24.9277C11.8539 24.1196 12.0808 23.4343 12.5103 22.8427L11.8438 22.359L11.1774 21.8752C10.5368 22.7575 10.2124 23.7755 10.1934 24.8998L11.0168 24.9138ZM11.8438 22.359L12.5103 22.8427C12.9543 22.2311 13.5586 21.7416 14.3484 21.38L14.0056 20.6312L13.6628 19.8824C12.6402 20.3506 11.8033 21.0129 11.1774 21.8752L11.8438 22.359ZM14.0056 20.6312L14.3504 21.379C15.1396 21.0152 16.0484 20.8242 17.0926 20.8242V20.0007V19.1771C15.8441 19.1771 14.6949 19.4065 13.6608 19.8833L14.0056 20.6312ZM17.0926 20.0007V20.8242C18.1502 20.8242 19.0357 21.016 19.7716 21.3724L20.1306 20.6312L20.4895 19.89C19.4895 19.4057 18.3497 19.1771 17.0926 19.1771V20.0007ZM20.1306 20.6312L19.7716 21.3724C20.5244 21.7369 21.0799 22.2135 21.4695 22.7936L22.1531 22.3344L22.8367 21.8752C22.2656 21.025 21.4727 20.3661 20.4895 19.89L20.1306 20.6312ZM22.1531 22.3344L21.4736 22.7996C21.8619 23.3667 22.0547 23.9987 22.0502 24.7203L22.8737 24.7254L23.6972 24.7305C23.7037 23.6834 23.4161 22.7214 22.8327 21.8692L22.1531 22.3344ZM22.8737 24.7254L22.0502 24.7302C22.0546 25.4789 21.8286 26.0524 21.3972 26.5118L21.9976 27.0755L22.5979 27.6393C23.3456 26.8431 23.7038 25.8499 23.6972 24.7206L22.8737 24.7254ZM21.9976 27.0755L21.3946 26.5146C20.9455 26.9973 20.3514 27.3192 19.5669 27.4606L19.713 28.2711L19.859 29.0815C20.9525 28.8845 21.8814 28.4093 22.6005 27.6365L21.9976 27.0755ZM19.713 28.2711H18.8894V28.4021H19.713H20.5365V28.2711H19.713ZM19.713 28.4021L19.6081 29.2189C20.7099 29.3603 21.4474 29.7285 21.9243 30.2459L22.5298 29.6877L23.1353 29.1295C22.3239 28.2493 21.1835 27.7605 19.8178 27.5852L19.713 28.4021ZM22.5298 29.6877L21.9289 30.2508C22.4199 30.7747 22.677 31.4329 22.6725 32.2873L23.4961 32.2916L24.3196 32.2959C24.326 31.065 23.939 29.9872 23.1308 29.1246L22.5298 29.6877ZM23.4961 32.2916L22.6725 32.2963C22.677 33.0775 22.4558 33.75 22.0102 34.3441L22.669 34.8382L23.3278 35.3324C23.9959 34.4416 24.326 33.4163 24.3196 32.2869L23.4961 32.2916ZM22.669 34.8382L22.0079 34.3472C21.5538 34.9586 20.9139 35.4594 20.0539 35.8363L20.3844 36.5906L20.715 37.3449C21.7983 36.8701 22.6815 36.2027 23.3302 35.3292L22.669 34.8382ZM20.3844 36.5906L20.0539 35.8363C19.2037 36.2088 18.2059 36.4057 17.0435 36.4057V37.2293V38.0528C18.3923 38.0528 19.6217 37.8239 20.715 37.3449L20.3844 36.5906ZM36.3377 34.6745L35.7558 35.2573L36.3371 35.8375L36.9189 35.2579L36.3377 34.6745ZM26.5524 24.9056L25.9668 24.3266L25.3906 24.9094L25.9706 25.4884L26.5524 24.9056ZM28.6978 22.7356L29.2801 22.1533L28.6945 21.5677L28.1122 22.1566L28.6978 22.7356ZM38.4912 32.5291L39.0725 33.1125L39.657 32.5302L39.0736 31.9468L38.4912 32.5291ZM28.6978 34.6745L28.1155 35.2568L28.6971 35.8384L29.2794 35.2575L28.6978 34.6745ZM26.5524 32.5291L25.9698 31.947L25.388 32.5293L25.9701 33.1114L26.5524 32.5291ZM36.3377 22.7356L36.9222 22.1555L36.3396 21.5685L35.7551 22.1535L36.3377 22.7356ZM38.4912 24.9056L39.0728 25.4886L39.6544 24.9085L39.0758 24.3255L38.4912 24.9056ZM36.3377 34.6745L36.9195 34.0917L27.1342 24.3228L26.5524 24.9056L25.9706 25.4884L35.7558 35.2573L36.3377 34.6745ZM26.5524 24.9056L27.138 25.4846L29.2834 23.3146L28.6978 22.7356L28.1122 22.1566L25.9668 24.3266L26.5524 24.9056ZM28.6978 22.7356L28.1155 23.3179L37.9089 33.1114L38.4912 32.5291L39.0736 31.9468L29.2801 22.1533L28.6978 22.7356ZM38.4912 32.5291L37.91 31.9456L35.7565 34.091L36.3377 34.6745L36.9189 35.2579L39.0725 33.1125L38.4912 32.5291ZM28.6978 34.6745L29.2801 34.0921L27.1347 31.9468L26.5524 32.5291L25.9701 33.1114L28.1155 35.2568L28.6978 34.6745ZM26.5524 32.5291L27.135 33.1112L36.9202 23.3177L36.3377 22.7356L35.7551 22.1535L25.9698 31.947L26.5524 32.5291ZM36.3377 22.7356L35.7531 23.3157L37.9067 25.4857L38.4912 24.9056L39.0758 24.3255L36.9222 22.1555L36.3377 22.7356ZM38.4912 24.9056L37.9097 24.3225L28.1162 34.0914L28.6978 34.6745L29.2794 35.2575L39.0728 25.4886L38.4912 24.9056ZM44.7473 36.5906L44.3953 37.3351L44.397 37.3359L44.7473 36.5906ZM42.6019 34.83L43.274 34.3542L43.274 34.3542L42.6019 34.83ZM41.7748 32.2589V31.4353H40.9325L40.9515 32.2775L41.7748 32.2589ZM45.214 32.2589L46.0361 32.2105L45.9905 31.4353H45.214V32.2589ZM46.0329 33.8392L46.5456 33.1948L46.5456 33.1948L46.0329 33.8392ZM49.3164 34.0767L49.728 34.79L49.7308 34.7884L49.3164 34.0767ZM50.3236 33.0368L49.6017 32.6406L49.6 32.6437L50.3236 33.0368ZM50.3154 29.9415L49.5935 30.3377L49.5972 30.3444L50.3154 29.9415ZM49.2919 28.8934L48.8814 29.6073L48.8814 29.6073L49.2919 28.8934ZM47.7934 28.5085L47.8014 27.685H47.7934V28.5085ZM46.3604 28.8115L46.0317 28.0564L46.0284 28.0578L46.3604 28.8115ZM45.2877 29.6385L45.1424 30.4491L45.6477 30.5397L45.9515 30.126L45.2877 29.6385ZM42.1351 29.0735L41.3149 28.9999L41.2474 29.7511L41.9899 29.8841L42.1351 29.0735ZM42.9294 20.2299V19.4064H42.1765L42.1092 20.1563L42.9294 20.2299ZM53.1814 20.2299H54.005V19.4064H53.1814V20.2299ZM53.1814 23.1287V23.9522H54.005V23.1287H53.1814ZM45.8527 23.1287V22.3051H45.1099L45.0335 23.044L45.8527 23.1287ZM45.4187 27.3294L44.5996 27.2447L44.5057 28.1529H45.4187V27.3294ZM45.517 27.3294V28.1529H45.9421L46.1883 27.8064L45.517 27.3294ZM46.8517 26.2976L47.1951 27.0462L47.1951 27.0462L46.8517 26.2976ZM51.5519 26.6006L51.9756 25.8944L51.9756 25.8944L51.5519 26.6006ZM53.4271 28.5577L52.7063 28.956L52.7074 28.958L53.4271 28.5577ZM54.1067 31.4073L53.2832 31.4031L53.2832 31.4112L54.1067 31.4073ZM53.3206 34.4206L52.6152 33.9956L52.6145 33.9969L53.3206 34.4206ZM51.1179 36.4841L51.503 37.2121L51.5046 37.2112L51.1179 36.4841ZM47.8425 37.2293V36.4057C46.7875 36.4057 45.8783 36.2121 45.0975 35.8452L44.7473 36.5906L44.397 37.3359C45.4286 37.8207 46.583 38.0528 47.8425 38.0528V37.2293ZM44.7473 36.5906L45.0992 35.846C44.315 35.4753 43.7146 34.9765 43.274 34.3542L42.6019 34.83L41.9298 35.3059C42.5482 36.1793 43.378 36.8542 44.3953 37.3351L44.7473 36.5906ZM42.6019 34.83L43.274 34.3542C42.8446 33.7478 42.6165 33.0519 42.5982 32.2403L41.7748 32.2589L40.9515 32.2775C40.9768 33.3983 41.3001 34.4166 41.9298 35.3059L42.6019 34.83ZM41.7748 32.2589V33.0824H45.214V32.2589V31.4353H41.7748V32.2589ZM45.214 32.2589L44.3919 32.3072C44.4438 33.1896 44.8287 33.9335 45.5201 34.4837L46.0329 33.8392L46.5456 33.1948C46.2217 32.9371 46.0606 32.6273 46.0361 32.2105L45.214 32.2589ZM46.0329 33.8392L45.5201 34.4837C46.1851 35.0128 46.9728 35.2687 47.8425 35.2687V34.4452V33.6217C47.3147 33.6217 46.896 33.4736 46.5456 33.1948L46.0329 33.8392ZM47.8425 34.4452V35.2687C48.5243 35.2687 49.1612 35.1171 49.728 34.79L49.3164 34.0767L48.9049 33.3634C48.6201 33.5277 48.2744 33.6217 47.8425 33.6217V34.4452ZM49.3164 34.0767L49.7308 34.7884C50.2936 34.4607 50.7358 34.0034 51.0473 33.4299L50.3236 33.0368L49.6 32.6437C49.4311 32.9545 49.2019 33.1905 48.9021 33.365L49.3164 34.0767ZM50.3236 33.0368L51.0456 33.433C51.3663 32.8485 51.5156 32.1958 51.5156 31.4973H50.6921H49.8686C49.8686 31.9562 49.7722 32.3298 49.6017 32.6406L50.3236 33.0368ZM50.6921 31.4973H51.5156C51.5156 30.7879 51.3635 30.1266 51.0337 29.5386L50.3154 29.9415L49.5972 30.3444C49.7696 30.6517 49.8686 31.0276 49.8686 31.4973H50.6921ZM50.3154 29.9415L51.0374 29.5453C50.7201 28.9671 50.272 28.507 49.7024 28.1795L49.2919 28.8934L48.8814 29.6073C49.1852 29.782 49.4195 30.0206 49.5935 30.3377L50.3154 29.9415ZM49.2919 28.8934L49.7024 28.1795C49.1294 27.85 48.4882 27.6917 47.8014 27.685L47.7934 28.5085L47.7854 29.332C48.2231 29.3363 48.581 29.4346 48.8814 29.6073L49.2919 28.8934ZM47.7934 28.5085V27.685C47.1855 27.685 46.5962 27.8107 46.0317 28.0564L46.3604 28.8115L46.6891 29.5666C47.0526 29.4084 47.4186 29.3321 47.7934 29.3321V28.5085ZM46.3604 28.8115L46.0284 28.0578C45.4587 28.3088 44.9784 28.6684 44.6239 29.1511L45.2877 29.6385L45.9515 30.126C46.1101 29.9099 46.345 29.7182 46.6924 29.5652L46.3604 28.8115ZM45.2877 29.6385L45.433 28.8279L42.2804 28.2629L42.1351 29.0735L41.9899 29.8841L45.1424 30.4491L45.2877 29.6385ZM42.1351 29.0735L42.9554 29.1472L43.7496 20.3036L42.9294 20.2299L42.1092 20.1563L41.3149 28.9999L42.1351 29.0735ZM42.9294 20.2299V21.0535H53.1814V20.2299V19.4064H42.9294V20.2299ZM53.1814 20.2299H52.3579V23.1287H53.1814H54.005V20.2299H53.1814ZM53.1814 23.1287V22.3051H45.8527V23.1287V23.9522H53.1814V23.1287ZM45.8527 23.1287L45.0335 23.044L44.5996 27.2447L45.4187 27.3294L46.2379 27.414L46.6719 23.2133L45.8527 23.1287ZM45.4187 27.3294V28.1529H45.517V27.3294V26.5058H45.4187V27.3294ZM45.517 27.3294L46.1883 27.8064C46.3788 27.5383 46.6945 27.2758 47.1951 27.0462L46.8517 26.2976L46.5083 25.5491C45.8188 25.8654 45.2447 26.2907 44.8457 26.8524L45.517 27.3294ZM46.8517 26.2976L47.1951 27.0462C47.6696 26.8285 48.2163 26.7117 48.8497 26.7117V25.8882V25.0647C48.0092 25.0647 47.2239 25.2209 46.5083 25.5491L46.8517 26.2976ZM48.8497 25.8882V26.7117C49.7249 26.7117 50.4765 26.9158 51.1282 27.3068L51.5519 26.6006L51.9756 25.8944C51.0442 25.3356 49.9944 25.0647 48.8497 25.0647V25.8882ZM51.5519 26.6006L51.1282 27.3068C51.7919 27.705 52.3159 28.2496 52.7063 28.956L53.4271 28.5577L54.1479 28.1593C53.6211 27.2062 52.8951 26.4461 51.9756 25.8944L51.5519 26.6006ZM53.4271 28.5577L52.7074 28.958C53.088 29.6422 53.288 30.4491 53.2832 31.4031L54.1067 31.4073L54.9302 31.4114C54.9363 30.2146 54.6833 29.1218 54.1467 28.1573L53.4271 28.5577ZM54.1067 31.4073L53.2832 31.4112C53.288 32.4059 53.059 33.2591 52.6152 33.9956L53.3206 34.4206L54.026 34.8456C54.6413 33.8244 54.9364 32.6686 54.9302 31.4033L54.1067 31.4073ZM53.3206 34.4206L52.6145 33.9969C52.1713 34.7355 51.5505 35.3214 50.7312 35.757L51.1179 36.4841L51.5046 37.2112C52.5742 36.6424 53.4218 35.8526 54.0268 34.8443L53.3206 34.4206ZM51.1179 36.4841L50.7328 35.7562C49.9314 36.1802 48.976 36.4057 47.8425 36.4057V37.2293V38.0528C49.1983 38.0528 50.4266 37.7816 51.503 37.2121L51.1179 36.4841Z" fill="#2B3F46" mask="url(#path-33-outside-1_2025_1204)"/>
<defs>
<linearGradient id="paint0_linear_2025_1204" x1="35.8411" y1="35.864" x2="-1.88188" y2="2.08424" gradientUnits="userSpaceOnUse">
<stop stop-color="#FFD5EF"/>
<stop offset="1" stop-color="#EFBDFD"/>
</linearGradient>
<linearGradient id="paint1_linear_2025_1204" x1="26.8809" y1="4.483" x2="25.174" y2="-4.68761" gradientUnits="userSpaceOnUse">
<stop stop-color="#F95457"/>
<stop offset="1" stop-color="#FDBDCB"/>
</linearGradient>
<linearGradient id="paint2_linear_2025_1204" x1="26.8809" y1="4.483" x2="25.174" y2="-4.68761" gradientUnits="userSpaceOnUse">
<stop stop-color="#F95457"/>
<stop offset="1" stop-color="#FDBDCB"/>
</linearGradient>
<linearGradient id="paint3_linear_2025_1204" x1="4.71795" y1="43.6522" x2="1.80375" y2="43.0282" gradientUnits="userSpaceOnUse">
<stop stop-color="#F95457"/>
<stop offset="1" stop-color="#FDBDCB"/>
</linearGradient>
<linearGradient id="paint4_linear_2025_1204" x1="35.7669" y1="58.0257" x2="30.2155" y2="50.8928" gradientUnits="userSpaceOnUse">
<stop stop-color="#F95457"/>
<stop offset="1" stop-color="#FDBDCB"/>
</linearGradient>
<linearGradient id="paint5_linear_2025_1204" x1="60.6657" y1="43.6522" x2="57.7515" y2="43.0282" gradientUnits="userSpaceOnUse">
<stop stop-color="#F95457"/>
<stop offset="1" stop-color="#FDBDCB"/>
</linearGradient>
<linearGradient id="paint6_linear_2025_1204" x1="-1.09962e-05" y1="-0.0328651" x2="30.641" y2="-4.05264" gradientUnits="userSpaceOnUse">
<stop stop-color="#D74446"/>
<stop offset="1" stop-color="#E165B8"/>
</linearGradient>
<linearGradient id="paint7_linear_2025_1204" x1="-1.11276e-05" y1="-0.033258" x2="31.0073" y2="-4.10108" gradientUnits="userSpaceOnUse">
<stop stop-color="#D74446"/>
<stop offset="1" stop-color="#E165B8"/>
</linearGradient>
<linearGradient id="paint8_linear_2025_1204" x1="-8.34573e-06" y1="-0.00415724" x2="14.606" y2="-11.5011" gradientUnits="userSpaceOnUse">
<stop stop-color="#D1369D"/>
<stop offset="1" stop-color="#B31E20"/>
</linearGradient>
<linearGradient id="paint9_linear_2025_1204" x1="-8.34573e-06" y1="-0.00415724" x2="14.606" y2="-11.5011" gradientUnits="userSpaceOnUse">
<stop stop-color="#D74446"/>
<stop offset="1" stop-color="#E165B8"/>
</linearGradient>
<linearGradient id="paint10_linear_2025_1204" x1="2.32056" y1="36.6188" x2="3.73346" y2="36.5744" gradientUnits="userSpaceOnUse">
<stop stop-color="#D74446"/>
<stop offset="1" stop-color="#D1369D"/>
</linearGradient>
<linearGradient id="paint11_linear_2025_1204" x1="27.5452" y1="52.5135" x2="34.1403" y2="51.2721" gradientUnits="userSpaceOnUse">
<stop stop-color="#B31E20"/>
<stop offset="1" stop-color="#D74446"/>
</linearGradient>
<linearGradient id="paint12_linear_2025_1204" x1="59.0066" y1="36.6188" x2="60.4195" y2="36.5744" gradientUnits="userSpaceOnUse">
<stop stop-color="#E165B8"/>
<stop offset="1" stop-color="#D74446"/>
</linearGradient>
<clipPath id="clip0_2025_1204">
<rect width="35.8992" height="35.8992" rx="4.44179" transform="matrix(0.866025 0.5 -0.866025 0.5 31.9104 19)" fill="white"/>
</clipPath>
<clipPath id="clip1_2025_1204">
<rect width="36.3731" height="36.3731" rx="4.50041" transform="matrix(0.866025 0.5 -0.866025 0.5 31.5 18.4604)" fill="white"/>
</clipPath>
</defs>
</svg>
