<svg width="64" height="64" viewBox="0 0 64 64" fill="none" xmlns="http://www.w3.org/2000/svg">
<path d="M4.4006 33.9298C3.80774 33.582 3.47546 33.1136 3.47547 32.6257L3.47547 30.5016C3.47547 29.9566 3.88975 29.439 4.60873 29.0857L30.1348 16.5442C31.3579 15.9433 33.1609 15.9544 34.3614 16.5703L60.0608 29.7535C60.7487 30.1064 61.1422 30.6122 61.1422 31.1434V32.5436C61.1422 33.0309 60.8108 33.4987 60.2194 33.8464L34.5631 48.9278C33.3018 49.6692 31.2326 49.6699 29.9699 48.9292L4.4006 33.9298Z" fill="url(#paint0_linear_84_1877)"/>
<rect width="34.7831" height="34.7831" rx="2.62954" transform="matrix(0.866044 -0.499967 0.866044 0.499967 2.14404 30.3906)" fill="white"/>
<rect width="10.8697" height="10.8697" transform="matrix(0.866044 -0.499967 0.866044 0.499967 12.2639 30.3906)" fill="#D9D9D9"/>
<rect width="10.8697" height="10.8697" transform="matrix(0.866044 -0.499967 0.866044 0.499967 22.8542 24.2769)" fill="#D9D9D9"/>
<rect width="10.8697" height="10.8697" transform="matrix(0.866044 -0.499967 0.866044 0.499967 22.8542 36.5044)" fill="#D9D9D9"/>
<rect width="10.8697" height="10.8697" transform="matrix(0.866044 -0.499967 0.866044 0.499967 33.4446 30.3906)" fill="#D9D9D9"/>
<mask id="path-7-outside-1_84_1877" maskUnits="userSpaceOnUse" x="19" y="23" width="27" height="14" fill="black">
<rect fill="white" x="19" y="23" width="27" height="14"/>
<path d="M23.5922 35.1394C23.0081 35.1394 22.4821 35.0232 22.0142 34.7909C21.5462 34.5586 21.1712 34.24 20.8891 33.8351C20.607 33.4302 20.4527 32.9689 20.4261 32.4512H21.6209C21.6673 32.9125 21.8764 33.2942 22.2481 33.5962C22.6231 33.8949 23.0712 34.0442 23.5922 34.0442C24.0104 34.0442 24.3821 33.9463 24.7073 33.7505C25.0359 33.5547 25.2931 33.2859 25.4789 32.944C25.6681 32.5989 25.7627 32.2089 25.7627 31.7742C25.7627 31.3294 25.6648 30.9329 25.469 30.5844C25.2765 30.2326 25.011 29.9555 24.6725 29.753C24.334 29.5506 23.9473 29.4477 23.5126 29.4444C23.2006 29.4411 22.8804 29.4892 22.5518 29.5888C22.2232 29.685 21.9528 29.8095 21.7404 29.9621L20.5854 29.8227L21.2027 24.8048H26.4995V25.8999H22.2382L21.8797 28.9067H21.9395C22.1486 28.7408 22.4107 28.6031 22.726 28.4936C23.0413 28.384 23.3699 28.3293 23.7117 28.3293C24.3356 28.3293 24.8915 28.4786 25.3794 28.7773C25.8706 29.0727 26.2555 29.4776 26.5343 29.992C26.8164 30.5064 26.9575 31.0938 26.9575 31.7542C26.9575 32.4047 26.8114 32.9855 26.5194 33.4966C26.2306 34.0044 25.8324 34.4059 25.3246 34.7013C24.8169 34.9934 24.2394 35.1394 23.5922 35.1394ZM34.9287 33.168L29.3134 27.5527L30.07 26.796L35.6854 32.4114L34.9287 33.168ZM30.07 33.168L29.3134 32.4114L34.9287 26.796L35.6854 27.5527L30.07 33.168ZM41.3617 35.1394C40.7776 35.1394 40.2516 35.0232 39.7837 34.7909C39.3157 34.5586 38.9407 34.24 38.6586 33.8351C38.3765 33.4302 38.2222 32.9689 38.1956 32.4512H39.3904C39.4368 32.9125 39.6459 33.2942 40.0176 33.5962C40.3926 33.8949 40.8407 34.0442 41.3617 34.0442C41.7799 34.0442 42.1516 33.9463 42.4768 33.7505C42.8054 33.5547 43.0626 33.2859 43.2484 32.944C43.4376 32.5989 43.5322 32.2089 43.5322 31.7742C43.5322 31.3294 43.4343 30.9329 43.2385 30.5844C43.046 30.2326 42.7805 29.9555 42.442 29.753C42.1035 29.5506 41.7168 29.4477 41.2821 29.4444C40.9701 29.4411 40.6498 29.4892 40.3213 29.5888C39.9927 29.685 39.7223 29.8095 39.5099 29.9621L38.3549 29.8227L38.9722 24.8048H44.269V25.8999H40.0077L39.6492 28.9067H39.709C39.9181 28.7408 40.1802 28.6031 40.4955 28.4936C40.8108 28.384 41.1394 28.3293 41.4812 28.3293C42.1051 28.3293 42.661 28.4786 43.1489 28.7773C43.6401 29.0727 44.025 29.4776 44.3038 29.992C44.5859 30.5064 44.7269 31.0938 44.7269 31.7542C44.7269 32.4047 44.5809 32.9855 44.2889 33.4966C44.0001 34.0044 43.6019 34.4059 43.0941 34.7013C42.5863 34.9934 42.0089 35.1394 41.3617 35.1394Z"/>
</mask>
<path d="M23.5922 35.1394C23.0081 35.1394 22.4821 35.0232 22.0142 34.7909C21.5462 34.5586 21.1712 34.24 20.8891 33.8351C20.607 33.4302 20.4527 32.9689 20.4261 32.4512H21.6209C21.6673 32.9125 21.8764 33.2942 22.2481 33.5962C22.6231 33.8949 23.0712 34.0442 23.5922 34.0442C24.0104 34.0442 24.3821 33.9463 24.7073 33.7505C25.0359 33.5547 25.2931 33.2859 25.4789 32.944C25.6681 32.5989 25.7627 32.2089 25.7627 31.7742C25.7627 31.3294 25.6648 30.9329 25.469 30.5844C25.2765 30.2326 25.011 29.9555 24.6725 29.753C24.334 29.5506 23.9473 29.4477 23.5126 29.4444C23.2006 29.4411 22.8804 29.4892 22.5518 29.5888C22.2232 29.685 21.9528 29.8095 21.7404 29.9621L20.5854 29.8227L21.2027 24.8048H26.4995V25.8999H22.2382L21.8797 28.9067H21.9395C22.1486 28.7408 22.4107 28.6031 22.726 28.4936C23.0413 28.384 23.3699 28.3293 23.7117 28.3293C24.3356 28.3293 24.8915 28.4786 25.3794 28.7773C25.8706 29.0727 26.2555 29.4776 26.5343 29.992C26.8164 30.5064 26.9575 31.0938 26.9575 31.7542C26.9575 32.4047 26.8114 32.9855 26.5194 33.4966C26.2306 34.0044 25.8324 34.4059 25.3246 34.7013C24.8169 34.9934 24.2394 35.1394 23.5922 35.1394ZM34.9287 33.168L29.3134 27.5527L30.07 26.796L35.6854 32.4114L34.9287 33.168ZM30.07 33.168L29.3134 32.4114L34.9287 26.796L35.6854 27.5527L30.07 33.168ZM41.3617 35.1394C40.7776 35.1394 40.2516 35.0232 39.7837 34.7909C39.3157 34.5586 38.9407 34.24 38.6586 33.8351C38.3765 33.4302 38.2222 32.9689 38.1956 32.4512H39.3904C39.4368 32.9125 39.6459 33.2942 40.0176 33.5962C40.3926 33.8949 40.8407 34.0442 41.3617 34.0442C41.7799 34.0442 42.1516 33.9463 42.4768 33.7505C42.8054 33.5547 43.0626 33.2859 43.2484 32.944C43.4376 32.5989 43.5322 32.2089 43.5322 31.7742C43.5322 31.3294 43.4343 30.9329 43.2385 30.5844C43.046 30.2326 42.7805 29.9555 42.442 29.753C42.1035 29.5506 41.7168 29.4477 41.2821 29.4444C40.9701 29.4411 40.6498 29.4892 40.3213 29.5888C39.9927 29.685 39.7223 29.8095 39.5099 29.9621L38.3549 29.8227L38.9722 24.8048H44.269V25.8999H40.0077L39.6492 28.9067H39.709C39.9181 28.7408 40.1802 28.6031 40.4955 28.4936C40.8108 28.384 41.1394 28.3293 41.4812 28.3293C42.1051 28.3293 42.661 28.4786 43.1489 28.7773C43.6401 29.0727 44.025 29.4776 44.3038 29.992C44.5859 30.5064 44.7269 31.0938 44.7269 31.7542C44.7269 32.4047 44.5809 32.9855 44.2889 33.4966C44.0001 34.0044 43.6019 34.4059 43.0941 34.7013C42.5863 34.9934 42.0089 35.1394 41.3617 35.1394Z" fill="#00C1FF"/>
<path d="M22.0142 34.7909L21.5695 35.6866L21.5695 35.6866L22.0142 34.7909ZM20.8891 33.8351L21.7096 33.2635L21.7096 33.2635L20.8891 33.8351ZM20.4261 32.4512V31.4512H19.3735L19.4274 32.5024L20.4261 32.4512ZM21.6209 32.4512L22.6158 32.351L22.5252 31.4512H21.6209V32.4512ZM22.2481 33.5962L21.6175 34.3723L21.6251 34.3784L22.2481 33.5962ZM24.7073 33.7505L24.1954 32.8915L24.1916 32.8938L24.7073 33.7505ZM25.4789 32.944L24.602 32.4634L24.6004 32.4664L25.4789 32.944ZM25.469 30.5844L24.5917 31.0644L24.5972 31.0743L25.469 30.5844ZM23.5126 29.4444L23.5019 30.4443L23.5049 30.4444L23.5126 29.4444ZM22.5518 29.5888L22.8329 30.5485L22.8418 30.5458L22.5518 29.5888ZM21.7404 29.9621L21.6205 30.9549L22.0075 31.0016L22.324 30.7741L21.7404 29.9621ZM20.5854 29.8227L19.5929 29.7006L19.4705 30.6954L20.4656 30.8155L20.5854 29.8227ZM21.2027 24.8048V23.8048H20.3182L20.2102 24.6827L21.2027 24.8048ZM26.4995 24.8048H27.4995V23.8048H26.4995V24.8048ZM26.4995 25.8999V26.8999H27.4995V25.8999H26.4995ZM22.2382 25.8999V24.8999H21.3503L21.2452 25.7816L22.2382 25.8999ZM21.8797 28.9067L20.8868 28.7884L20.7535 29.9067H21.8797V28.9067ZM21.9395 28.9067V29.9067H22.2881L22.5611 29.69L21.9395 28.9067ZM25.3794 28.7773L24.8572 29.6302L24.864 29.6343L25.3794 28.7773ZM26.5343 29.992L25.6551 30.4685L25.6575 30.4728L26.5343 29.992ZM26.5194 33.4966L25.6511 33.0005L25.6501 33.0023L26.5194 33.4966ZM25.3246 34.7013L25.8232 35.5682L25.8274 35.5657L25.3246 34.7013ZM23.5922 34.1394C23.144 34.1394 22.773 34.0512 22.4588 33.8952L21.5695 35.6866C22.1912 35.9953 22.8722 36.1394 23.5922 36.1394V34.1394ZM22.4588 33.8952C22.1323 33.7331 21.89 33.5223 21.7096 33.2635L20.0686 34.4068C20.4524 34.9577 20.9602 35.3841 21.5695 35.6866L22.4588 33.8952ZM21.7096 33.2635C21.5399 33.0199 21.4423 32.7409 21.4248 32.4L19.4274 32.5024C19.4631 33.197 19.6741 33.8405 20.0686 34.4068L21.7096 33.2635ZM20.4261 33.4512H21.6209V31.4512H20.4261V33.4512ZM20.6259 32.5514C20.7 33.2871 21.0469 33.9086 21.6175 34.3723L22.8787 32.82C22.706 32.6797 22.6347 32.5379 22.6158 32.351L20.6259 32.5514ZM21.6251 34.3784C22.1929 34.8306 22.8658 35.0442 23.5922 35.0442V33.0442C23.2766 33.0442 23.0534 32.9591 22.8711 32.8139L21.6251 34.3784ZM23.5922 35.0442C24.1731 35.0442 24.7266 34.9061 25.2231 34.6072L24.1916 32.8938C24.0375 32.9865 23.8477 33.0442 23.5922 33.0442V35.0442ZM25.2193 34.6095C25.7048 34.3201 26.0874 33.9184 26.3575 33.4217L24.6004 32.4664C24.4987 32.6533 24.367 32.7892 24.1954 32.8915L25.2193 34.6095ZM26.3559 33.4246C26.634 32.9172 26.7627 32.359 26.7627 31.7742H24.7627C24.7627 32.0589 24.7022 32.2806 24.602 32.4634L26.3559 33.4246ZM26.7627 31.7742C26.7627 31.1776 26.6298 30.6089 26.3408 30.0945L24.5972 31.0743C24.6998 31.2568 24.7627 31.4813 24.7627 31.7742H26.7627ZM26.3463 30.1044C26.0698 29.5991 25.6798 29.1902 25.1857 28.8948L24.1592 30.6113C24.3422 30.7207 24.4832 30.8661 24.5917 31.0644L26.3463 30.1044ZM25.1857 28.8948C24.679 28.5918 24.1144 28.449 23.5202 28.4444L23.5049 30.4444C23.7803 30.4465 23.9889 30.5094 24.1592 30.6113L25.1857 28.8948ZM23.5232 28.4444C23.0998 28.4399 22.6781 28.5056 22.2618 28.6317L22.8418 30.5458C23.0826 30.4728 23.3015 30.4422 23.5019 30.4443L23.5232 28.4444ZM22.2707 28.6291C21.8653 28.7478 21.4843 28.9147 21.1567 29.1501L22.324 30.7741C22.4212 30.7043 22.5812 30.6222 22.8329 30.5484L22.2707 28.6291ZM21.8602 28.9693L20.7052 28.8299L20.4656 30.8155L21.6205 30.9549L21.8602 28.9693ZM21.5779 29.9448L22.1952 24.9269L20.2102 24.6827L19.5929 29.7006L21.5779 29.9448ZM21.2027 25.8048H26.4995V23.8048H21.2027V25.8048ZM25.4995 24.8048V25.8999H27.4995V24.8048H25.4995ZM26.4995 24.8999H22.2382V26.8999H26.4995V24.8999ZM21.2452 25.7816L20.8868 28.7884L22.8727 29.0251L23.2311 26.0183L21.2452 25.7816ZM21.8797 29.9067H21.9395V27.9067H21.8797V29.9067ZM22.5611 29.69C22.6632 29.609 22.8196 29.5197 23.0542 29.4382L22.3979 27.5489C22.0019 27.6865 21.6339 27.8726 21.3178 28.1235L22.5611 29.69ZM23.0542 29.4382C23.2614 29.3662 23.4788 29.3293 23.7117 29.3293V27.3293C23.2609 27.3293 22.8213 27.4019 22.3979 27.5489L23.0542 29.4382ZM23.7117 29.3293C24.1687 29.3293 24.5407 29.4364 24.8572 29.6302L25.9015 27.9245C25.2424 27.5209 24.5026 27.3293 23.7117 27.3293V29.3293ZM24.864 29.6343C25.1988 29.8356 25.4596 30.1077 25.6551 30.4685L27.4135 29.5155C27.0515 28.8475 26.5423 28.3098 25.8947 27.9203L24.864 29.6343ZM25.6575 30.4728C25.849 30.8221 25.9575 31.2404 25.9575 31.7542H27.9575C27.9575 30.9472 27.7838 30.1907 27.4111 29.5112L25.6575 30.4728ZM25.9575 31.7542C25.9575 32.2494 25.848 32.6559 25.6511 33.0005L27.3876 33.9927C27.7749 33.3151 27.9575 32.56 27.9575 31.7542H25.9575ZM25.6501 33.0023C25.4492 33.3556 25.1778 33.6298 24.8218 33.8369L25.8274 35.5657C26.487 35.182 27.0121 34.6532 27.3887 33.9909L25.6501 33.0023ZM24.826 33.8345C24.4855 34.0304 24.0832 34.1394 23.5922 34.1394V36.1394C24.3956 36.1394 25.1482 35.9564 25.8232 35.5682L24.826 33.8345ZM34.9287 33.168L34.2216 33.8751L34.9287 34.5823L35.6358 33.8751L34.9287 33.168ZM29.3134 27.5527L28.6063 26.8456L27.8992 27.5527L28.6063 28.2598L29.3134 27.5527ZM30.07 26.796L30.7771 26.0889L30.07 25.3818L29.3629 26.0889L30.07 26.796ZM35.6854 32.4114L36.3925 33.1185L37.0996 32.4114L36.3925 31.7043L35.6854 32.4114ZM30.07 33.168L29.3629 33.8751L30.07 34.5823L30.7771 33.8751L30.07 33.168ZM29.3134 32.4114L28.6063 31.7043L27.8992 32.4114L28.6063 33.1185L29.3134 32.4114ZM34.9287 26.796L35.6358 26.0889L34.9287 25.3818L34.2216 26.0889L34.9287 26.796ZM35.6854 27.5527L36.3925 28.2598L37.0996 27.5527L36.3925 26.8456L35.6854 27.5527ZM35.6358 32.4609L30.0205 26.8456L28.6063 28.2598L34.2216 33.8751L35.6358 32.4609ZM30.0205 28.2598L30.7771 27.5031L29.3629 26.0889L28.6063 26.8456L30.0205 28.2598ZM29.3629 27.5031L34.9783 33.1185L36.3925 31.7043L30.7771 26.0889L29.3629 27.5031ZM34.9783 31.7043L34.2216 32.4609L35.6358 33.8751L36.3925 33.1185L34.9783 31.7043ZM30.7771 32.4609L30.0205 31.7043L28.6063 33.1185L29.3629 33.8751L30.7771 32.4609ZM30.0205 33.1185L35.6358 27.5031L34.2216 26.0889L28.6063 31.7043L30.0205 33.1185ZM34.2216 27.5031L34.9783 28.2598L36.3925 26.8456L35.6358 26.0889L34.2216 27.5031ZM34.9783 26.8456L29.3629 32.4609L30.7771 33.8751L36.3925 28.2598L34.9783 26.8456ZM39.7837 34.7909L39.339 35.6866L39.339 35.6866L39.7837 34.7909ZM38.6586 33.8351L39.4791 33.2635L39.4791 33.2635L38.6586 33.8351ZM38.1956 32.4512V31.4512H37.143L37.1969 32.5024L38.1956 32.4512ZM39.3904 32.4512L40.3853 32.351L40.2947 31.4512H39.3904V32.4512ZM40.0176 33.5962L39.387 34.3723L39.3946 34.3784L40.0176 33.5962ZM42.4768 33.7505L41.9649 32.8915L41.961 32.8938L42.4768 33.7505ZM43.2484 32.944L42.3715 32.4634L42.3699 32.4664L43.2484 32.944ZM43.2385 30.5844L42.3612 31.0644L42.3667 31.0743L43.2385 30.5844ZM41.2821 29.4444L41.2714 30.4443L41.2744 30.4444L41.2821 29.4444ZM40.3213 29.5888L40.6024 30.5485L40.6113 30.5458L40.3213 29.5888ZM39.5099 29.9621L39.39 30.9549L39.777 31.0016L40.0935 30.7741L39.5099 29.9621ZM38.3549 29.8227L37.3624 29.7006L37.24 30.6954L38.2351 30.8155L38.3549 29.8227ZM38.9722 24.8048V23.8048H38.0877L37.9797 24.6827L38.9722 24.8048ZM44.269 24.8048H45.269V23.8048H44.269V24.8048ZM44.269 25.8999V26.8999H45.269V25.8999H44.269ZM40.0077 25.8999V24.8999H39.1198L39.0147 25.7816L40.0077 25.8999ZM39.6492 28.9067L38.6563 28.7884L38.523 29.9067H39.6492V28.9067ZM39.709 28.9067V29.9067H40.0576L40.3306 29.69L39.709 28.9067ZM43.1489 28.7773L42.6267 29.6302L42.6335 29.6343L43.1489 28.7773ZM44.3038 29.992L43.4246 30.4685L43.427 30.4728L44.3038 29.992ZM44.2889 33.4966L43.4206 33.0005L43.4196 33.0023L44.2889 33.4966ZM43.0941 34.7013L43.5927 35.5682L43.5969 35.5657L43.0941 34.7013ZM41.3617 34.1394C40.9135 34.1394 40.5425 34.0512 40.2283 33.8952L39.339 35.6866C39.9607 35.9953 40.6417 36.1394 41.3617 36.1394V34.1394ZM40.2283 33.8952C39.9018 33.7331 39.6595 33.5223 39.4791 33.2635L37.8381 34.4068C38.2219 34.9577 38.7297 35.3841 39.339 35.6866L40.2283 33.8952ZM39.4791 33.2635C39.3094 33.0199 39.2118 32.7409 39.1943 32.4L37.1969 32.5024C37.2326 33.197 37.4436 33.8405 37.8381 34.4068L39.4791 33.2635ZM38.1956 33.4512H39.3904V31.4512H38.1956V33.4512ZM38.3954 32.5514C38.4695 33.2871 38.8164 33.9086 39.387 34.3723L40.6482 32.82C40.4755 32.6797 40.4042 32.5379 40.3853 32.351L38.3954 32.5514ZM39.3946 34.3784C39.9624 34.8306 40.6353 35.0442 41.3617 35.0442V33.0442C41.046 33.0442 40.8229 32.9591 40.6406 32.8139L39.3946 34.3784ZM41.3617 35.0442C41.9426 35.0442 42.4961 34.9061 42.9926 34.6072L41.961 32.8938C41.807 32.9865 41.6171 33.0442 41.3617 33.0442V35.0442ZM42.9888 34.6095C43.4743 34.3201 43.8569 33.9184 44.127 33.4217L42.3699 32.4664C42.2682 32.6533 42.1364 32.7892 41.9649 32.8915L42.9888 34.6095ZM44.1254 33.4246C44.4035 32.9172 44.5322 32.359 44.5322 31.7742H42.5322C42.5322 32.0589 42.4717 32.2806 42.3715 32.4634L44.1254 33.4246ZM44.5322 31.7742C44.5322 31.1776 44.3993 30.6089 44.1103 30.0945L42.3667 31.0743C42.4693 31.2568 42.5322 31.4813 42.5322 31.7742H44.5322ZM44.1157 30.1044C43.8393 29.5991 43.4493 29.1902 42.9552 28.8948L41.9287 30.6113C42.1117 30.7207 42.2527 30.8661 42.3612 31.0644L44.1157 30.1044ZM42.9552 28.8948C42.4485 28.5918 41.8839 28.449 41.2897 28.4444L41.2744 30.4444C41.5498 30.4465 41.7584 30.5094 41.9287 30.6113L42.9552 28.8948ZM41.2927 28.4444C40.8693 28.4399 40.4476 28.5056 40.0313 28.6317L40.6113 30.5458C40.8521 30.4728 41.071 30.4422 41.2714 30.4443L41.2927 28.4444ZM40.0402 28.6291C39.6348 28.7478 39.2538 28.9147 38.9262 29.1501L40.0935 30.7741C40.1907 30.7043 40.3507 30.6222 40.6024 30.5484L40.0402 28.6291ZM39.6297 28.9693L38.4747 28.8299L38.2351 30.8155L39.39 30.9549L39.6297 28.9693ZM39.3474 29.9448L39.9647 24.9269L37.9797 24.6827L37.3624 29.7006L39.3474 29.9448ZM38.9722 25.8048H44.269V23.8048H38.9722V25.8048ZM43.269 24.8048V25.8999H45.269V24.8048H43.269ZM44.269 24.8999H40.0077V26.8999H44.269V24.8999ZM39.0147 25.7816L38.6563 28.7884L40.6422 29.0251L41.0006 26.0183L39.0147 25.7816ZM39.6492 29.9067H39.709V27.9067H39.6492V29.9067ZM40.3306 29.69C40.4327 29.609 40.5891 29.5197 40.8237 29.4382L40.1674 27.5489C39.7714 27.6865 39.4034 27.8726 39.0873 28.1235L40.3306 29.69ZM40.8237 29.4382C41.0309 29.3662 41.2483 29.3293 41.4812 29.3293V27.3293C41.0304 27.3293 40.5908 27.4019 40.1674 27.5489L40.8237 29.4382ZM41.4812 29.3293C41.9381 29.3293 42.3102 29.4364 42.6267 29.6302L43.671 27.9245C43.0119 27.5209 42.2721 27.3293 41.4812 27.3293V29.3293ZM42.6335 29.6343C42.9683 29.8356 43.2291 30.1077 43.4246 30.4685L45.183 29.5155C44.821 28.8475 44.3118 28.3098 43.6642 27.9203L42.6335 29.6343ZM43.427 30.4728C43.6185 30.8221 43.7269 31.2404 43.7269 31.7542H45.7269C45.7269 30.9472 45.5533 30.1907 45.1806 29.5112L43.427 30.4728ZM43.7269 31.7542C43.7269 32.2494 43.6175 32.6559 43.4206 33.0005L45.1571 33.9927C45.5444 33.3151 45.7269 32.56 45.7269 31.7542H43.7269ZM43.4196 33.0023C43.2187 33.3556 42.9473 33.6298 42.5913 33.8369L43.5969 35.5657C44.2565 35.182 44.7816 34.6532 45.1582 33.9909L43.4196 33.0023ZM42.5955 33.8345C42.255 34.0304 41.8527 34.1394 41.3617 34.1394V36.1394C42.1651 36.1394 42.9177 35.9564 43.5927 35.5682L42.5955 33.8345Z" fill="#2F5764" mask="url(#path-7-outside-1_84_1877)"/>
<defs>
<linearGradient id="paint0_linear_84_1877" x1="3.72513" y1="32.3054" x2="33.5154" y2="49.1976" gradientUnits="userSpaceOnUse">
<stop stop-color="#4A4A4A"/>
<stop offset="1" stop-color="#303030"/>
</linearGradient>
</defs>
</svg>
