<svg width="64" height="64" viewBox="0 0 64 64" fill="none" xmlns="http://www.w3.org/2000/svg">
<path d="M4.4006 33.9298C3.80774 33.582 3.47546 33.1136 3.47547 32.6257L3.47547 30.5016C3.47547 29.9566 3.88975 29.439 4.60873 29.0857L30.1348 16.5442C31.3579 15.9433 33.1609 15.9544 34.3614 16.5703L60.0608 29.7535C60.7487 30.1064 61.1422 30.6122 61.1422 31.1434V32.5436C61.1422 33.0309 60.8108 33.4987 60.2194 33.8464L34.5631 48.9278C33.3018 49.6692 31.2326 49.6699 29.9699 48.9292L4.4006 33.9298Z" fill="url(#paint0_linear_84_2341)"/>
<rect width="34.7831" height="34.7831" rx="2.62954" transform="matrix(0.866044 -0.499967 0.866044 0.499967 2.14404 30.3906)" fill="white"/>
<rect width="10.8697" height="10.8697" transform="matrix(0.866044 -0.499967 0.866044 0.499967 12.2639 30.3906)" fill="#D9D9D9"/>
<rect width="10.8697" height="10.8697" transform="matrix(0.866044 -0.499967 0.866044 0.499967 22.8542 24.2769)" fill="#D9D9D9"/>
<rect width="10.8697" height="10.8697" transform="matrix(0.866044 -0.499967 0.866044 0.499967 22.8542 36.5044)" fill="#D9D9D9"/>
<rect width="10.8697" height="10.8697" transform="matrix(0.866044 -0.499967 0.866044 0.499967 33.4446 30.3906)" fill="#D9D9D9"/>
<mask id="path-7-outside-1_84_2341" maskUnits="userSpaceOnUse" x="18" y="23" width="29" height="14" fill="black">
<rect fill="white" x="18" y="23" width="29" height="14"/>
<path d="M23.4491 35.1394C23.0309 35.1328 22.6128 35.0531 22.1946 34.9004C21.7765 34.7478 21.3948 34.4906 21.0496 34.1288C20.7045 33.7638 20.4274 33.2709 20.2183 32.6503C20.0092 32.0264 19.9047 31.2432 19.9047 30.3006C19.9047 29.3979 19.9893 28.5981 20.1586 27.9012C20.3278 27.2009 20.5734 26.6118 20.8953 26.1339C21.2172 25.6527 21.6055 25.2876 22.0602 25.0387C22.5182 24.7898 23.0343 24.6654 23.6084 24.6654C24.1792 24.6654 24.687 24.7799 25.1317 25.0089C25.5798 25.2345 25.9448 25.5498 26.2269 25.9547C26.509 26.3596 26.6915 26.8259 26.7745 27.3536H25.5598C25.447 26.8956 25.228 26.5156 24.9027 26.2136C24.5775 25.9116 24.146 25.7606 23.6084 25.7606C22.8185 25.7606 22.1963 26.1041 21.7416 26.791C21.2903 27.478 21.0629 28.4421 21.0596 29.6833H21.1392C21.3251 29.4012 21.5458 29.1606 21.8013 28.9615C22.0602 28.7591 22.3456 28.6031 22.6576 28.4936C22.9695 28.384 23.2998 28.3293 23.6482 28.3293C24.2323 28.3293 24.7667 28.4753 25.2512 28.7674C25.7357 29.0561 26.124 29.456 26.4161 29.9671C26.7081 30.4749 26.8542 31.0573 26.8542 31.7144C26.8542 32.345 26.7131 32.9225 26.431 33.4468C26.1489 33.9679 25.7523 34.3827 25.2412 34.6914C24.7335 34.9967 24.1361 35.146 23.4491 35.1394ZM23.4491 34.0442C23.8673 34.0442 24.2423 33.9397 24.5742 33.7306C24.9094 33.5215 25.1732 33.2411 25.3657 32.8893C25.5615 32.5375 25.6594 32.1459 25.6594 31.7144C25.6594 31.2929 25.5648 30.9096 25.3757 30.5645C25.1898 30.216 24.9326 29.9389 24.604 29.7331C24.2788 29.5274 23.9071 29.4245 23.4889 29.4245C23.1737 29.4245 22.8799 29.4875 22.6078 29.6136C22.3357 29.7364 22.0967 29.9057 21.8909 30.1214C21.6885 30.3371 21.5292 30.5844 21.413 30.8632C21.2969 31.1386 21.2388 31.429 21.2388 31.7343C21.2388 32.1392 21.3334 32.5176 21.5226 32.8694C21.7151 33.2211 21.9772 33.5049 22.3091 33.7206C22.6443 33.9363 23.0243 34.0442 23.4491 34.0442ZM34.8055 33.168L29.1902 27.5527L29.9468 26.796L35.5622 32.4114L34.8055 33.168ZM29.9468 33.168L29.1902 32.4114L34.8055 26.796L35.5622 27.5527L29.9468 33.168ZM37.8136 32.9092V31.8936L42.2939 24.8048H43.0306V26.3779H42.5328L39.1477 31.7343V31.814H45.1812V32.9092H37.8136ZM42.6125 35V32.6005V32.1276V24.8048H43.7873V35H42.6125Z"/>
</mask>
<path d="M23.4491 35.1394C23.0309 35.1328 22.6128 35.0531 22.1946 34.9004C21.7765 34.7478 21.3948 34.4906 21.0496 34.1288C20.7045 33.7638 20.4274 33.2709 20.2183 32.6503C20.0092 32.0264 19.9047 31.2432 19.9047 30.3006C19.9047 29.3979 19.9893 28.5981 20.1586 27.9012C20.3278 27.2009 20.5734 26.6118 20.8953 26.1339C21.2172 25.6527 21.6055 25.2876 22.0602 25.0387C22.5182 24.7898 23.0343 24.6654 23.6084 24.6654C24.1792 24.6654 24.687 24.7799 25.1317 25.0089C25.5798 25.2345 25.9448 25.5498 26.2269 25.9547C26.509 26.3596 26.6915 26.8259 26.7745 27.3536H25.5598C25.447 26.8956 25.228 26.5156 24.9027 26.2136C24.5775 25.9116 24.146 25.7606 23.6084 25.7606C22.8185 25.7606 22.1963 26.1041 21.7416 26.791C21.2903 27.478 21.0629 28.4421 21.0596 29.6833H21.1392C21.3251 29.4012 21.5458 29.1606 21.8013 28.9615C22.0602 28.7591 22.3456 28.6031 22.6576 28.4936C22.9695 28.384 23.2998 28.3293 23.6482 28.3293C24.2323 28.3293 24.7667 28.4753 25.2512 28.7674C25.7357 29.0561 26.124 29.456 26.4161 29.9671C26.7081 30.4749 26.8542 31.0573 26.8542 31.7144C26.8542 32.345 26.7131 32.9225 26.431 33.4468C26.1489 33.9679 25.7523 34.3827 25.2412 34.6914C24.7335 34.9967 24.1361 35.146 23.4491 35.1394ZM23.4491 34.0442C23.8673 34.0442 24.2423 33.9397 24.5742 33.7306C24.9094 33.5215 25.1732 33.2411 25.3657 32.8893C25.5615 32.5375 25.6594 32.1459 25.6594 31.7144C25.6594 31.2929 25.5648 30.9096 25.3757 30.5645C25.1898 30.216 24.9326 29.9389 24.604 29.7331C24.2788 29.5274 23.9071 29.4245 23.4889 29.4245C23.1737 29.4245 22.8799 29.4875 22.6078 29.6136C22.3357 29.7364 22.0967 29.9057 21.8909 30.1214C21.6885 30.3371 21.5292 30.5844 21.413 30.8632C21.2969 31.1386 21.2388 31.429 21.2388 31.7343C21.2388 32.1392 21.3334 32.5176 21.5226 32.8694C21.7151 33.2211 21.9772 33.5049 22.3091 33.7206C22.6443 33.9363 23.0243 34.0442 23.4491 34.0442ZM34.8055 33.168L29.1902 27.5527L29.9468 26.796L35.5622 32.4114L34.8055 33.168ZM29.9468 33.168L29.1902 32.4114L34.8055 26.796L35.5622 27.5527L29.9468 33.168ZM37.8136 32.9092V31.8936L42.2939 24.8048H43.0306V26.3779H42.5328L39.1477 31.7343V31.814H45.1812V32.9092H37.8136ZM42.6125 35V32.6005V32.1276V24.8048H43.7873V35H42.6125Z" fill="#00C1FF"/>
<path d="M23.4491 35.1394L23.4332 36.1393L23.4394 36.1393L23.4491 35.1394ZM22.1946 34.9004L21.8517 35.8398L21.8517 35.8398L22.1946 34.9004ZM21.0496 34.1288L20.323 34.8158L20.3261 34.8191L21.0496 34.1288ZM20.2183 32.6503L19.2701 32.9681L19.2706 32.9696L20.2183 32.6503ZM20.1586 27.9012L21.1303 28.1372L21.1306 28.1361L20.1586 27.9012ZM20.8953 26.1339L21.7247 26.6926L21.7265 26.6899L20.8953 26.1339ZM22.0602 25.0387L21.5827 24.1601L21.58 24.1616L22.0602 25.0387ZM25.1317 25.0089L24.6739 25.898L24.6819 25.902L25.1317 25.0089ZM26.2269 25.9547L27.0474 25.3831L27.0474 25.3831L26.2269 25.9547ZM26.7745 27.3536V28.3536H27.944L27.7624 27.1982L26.7745 27.3536ZM25.5598 27.3536L24.5889 27.5928L24.7763 28.3536H25.5598V27.3536ZM24.9027 26.2136L24.2223 26.9464L24.2223 26.9464L24.9027 26.2136ZM21.7416 26.791L20.9077 26.2391L20.9058 26.2419L21.7416 26.791ZM21.0596 29.6833L20.0596 29.6807L20.0569 30.6833H21.0596V29.6833ZM21.1392 29.6833V30.6833H21.6779L21.9743 30.2335L21.1392 29.6833ZM21.8013 28.9615L22.416 29.7503L22.4174 29.7492L21.8013 28.9615ZM22.6576 28.4936L22.3263 27.55L22.6576 28.4936ZM25.2512 28.7674L24.735 29.6238L24.7393 29.6264L25.2512 28.7674ZM26.4161 29.9671L25.5478 30.4632L25.5492 30.4657L26.4161 29.9671ZM26.431 33.4468L27.3104 33.9229L27.3117 33.9206L26.431 33.4468ZM25.2412 34.6914L25.7566 35.5484L25.7582 35.5474L25.2412 34.6914ZM24.5742 33.7306L24.0449 32.8821L24.0411 32.8845L24.5742 33.7306ZM25.3657 32.8893L24.4919 32.4029L24.4884 32.4093L25.3657 32.8893ZM25.3757 30.5645L24.4932 31.0351L24.4987 31.0451L25.3757 30.5645ZM24.604 29.7331L24.0694 30.5782L24.0733 30.5806L24.604 29.7331ZM22.6078 29.6136L23.0191 30.5252L23.0283 30.521L22.6078 29.6136ZM21.8909 30.1214L21.1673 29.4312L21.1618 29.4371L21.8909 30.1214ZM21.413 30.8632L22.3345 31.2517L22.3361 31.2478L21.413 30.8632ZM21.5226 32.8694L20.6418 33.343L20.6453 33.3494L21.5226 32.8694ZM22.3091 33.7206L21.7641 34.5591L21.7679 34.5615L22.3091 33.7206ZM23.465 34.1395C23.1655 34.1348 22.8576 34.0779 22.5376 33.9611L21.8517 35.8398C22.3679 36.0283 22.8964 36.1307 23.4332 36.1393L23.465 34.1395ZM22.5376 33.9611C22.2806 33.8673 22.0254 33.7029 21.7731 33.4385L20.3261 34.8191C20.7642 35.2782 21.2723 35.6283 21.8517 35.8398L22.5376 33.9611ZM21.7763 33.4418C21.5559 33.2087 21.3423 32.8544 21.166 32.331L19.2706 32.9696C19.5125 33.6874 19.8531 34.3188 20.323 34.8158L21.7763 33.4418ZM21.1665 32.3326C21.003 31.8449 20.9047 31.1778 20.9047 30.3006H18.9047C18.9047 31.3085 19.0154 32.2079 19.2701 32.9681L21.1665 32.3326ZM20.9047 30.3006C20.9047 29.458 20.9839 28.74 21.1303 28.1372L19.1868 27.6652C18.9947 28.4562 18.9047 29.3379 18.9047 30.3006H20.9047ZM21.1306 28.1361C21.2786 27.5236 21.4835 27.0507 21.7247 26.6926L20.0659 25.5752C19.6633 26.1729 19.377 26.8782 19.1865 27.6662L21.1306 28.1361ZM21.7265 26.6899C21.9696 26.3266 22.2427 26.0789 22.5404 25.9159L21.58 24.1616C20.9684 24.4964 20.4649 24.9788 20.0642 25.5779L21.7265 26.6899ZM22.5377 25.9174C22.8347 25.756 23.1838 25.6654 23.6084 25.6654V23.6654C22.8847 23.6654 22.2017 23.8237 21.5827 24.1601L22.5377 25.9174ZM23.6084 25.6654C24.0426 25.6654 24.3896 25.7515 24.6739 25.8979L25.5895 24.1198C24.9844 23.8082 24.3159 23.6654 23.6084 23.6654V25.6654ZM24.6819 25.902C24.9841 26.0542 25.2209 26.2601 25.4064 26.5264L27.0474 25.3831C26.6687 24.8396 26.1754 24.4149 25.5816 24.1158L24.6819 25.902ZM25.4064 26.5264C25.5949 26.7969 25.7252 27.1183 25.7866 27.5089L27.7624 27.1982C27.6578 26.5335 27.4231 25.9223 27.0474 25.3831L25.4064 26.5264ZM26.7745 26.3536H25.5598V28.3536H26.7745V26.3536ZM26.5308 27.1143C26.3744 26.4795 26.0604 25.9239 25.5832 25.4808L24.2223 26.9464C24.3955 27.1072 24.5196 27.3117 24.5889 27.5928L26.5308 27.1143ZM25.5832 25.4808C25.0355 24.9722 24.3422 24.7606 23.6084 24.7606V26.7606C23.9499 26.7606 24.1195 26.8509 24.2223 26.9464L25.5832 25.4808ZM23.6084 24.7606C22.4661 24.7606 21.538 25.2868 20.9077 26.2391L22.5755 27.3429C22.8545 26.9214 23.171 26.7606 23.6084 26.7606V24.7606ZM20.9058 26.2419C20.3064 27.1543 20.0632 28.3377 20.0596 29.6807L22.0596 29.686C22.0626 28.5465 22.2741 27.8017 22.5774 27.3401L20.9058 26.2419ZM21.0596 30.6833H21.1392V28.6833H21.0596V30.6833ZM21.9743 30.2335C22.1028 30.0385 22.2501 29.8796 22.416 29.7503L21.1867 28.1727C20.8415 28.4417 20.5474 28.764 20.3042 29.1332L21.9743 30.2335ZM22.4174 29.7492C22.5899 29.6143 22.779 29.5108 22.9888 29.4371L22.3263 27.55C21.9122 27.6954 21.5305 27.9038 21.1853 28.1738L22.4174 29.7492ZM22.9888 29.4371C23.1887 29.3669 23.4064 29.3293 23.6482 29.3293V27.3293C23.1931 27.3293 22.7504 27.4012 22.3263 27.55L22.9888 29.4371ZM23.6482 29.3293C24.0566 29.3293 24.4115 29.4288 24.735 29.6238L25.7674 27.9109C25.1218 27.5218 24.4081 27.3293 23.6482 27.3293V29.3293ZM24.7393 29.6264C25.0692 29.823 25.3374 30.095 25.5478 30.4632L27.2843 29.471C26.9106 28.817 26.4023 28.2892 25.7631 27.9083L24.7393 29.6264ZM25.5492 30.4657C25.7438 30.8039 25.8542 31.2105 25.8542 31.7144H27.8542C27.8542 30.9041 27.6725 30.1458 27.2829 29.4685L25.5492 30.4657ZM25.8542 31.7144C25.8542 32.1897 25.7495 32.6029 25.5504 32.9731L27.3117 33.9206C27.6767 33.242 27.8542 32.5003 27.8542 31.7144H25.8542ZM25.5516 32.9707C25.355 33.3338 25.0841 33.618 24.7243 33.8353L25.7582 35.5474C26.4205 35.1474 26.9428 34.6019 27.3104 33.9229L25.5516 32.9707ZM24.7259 33.8344C24.4004 34.0301 23.9909 34.1446 23.4588 34.1394L23.4394 36.1393C24.2813 36.1475 25.0665 35.9633 25.7566 35.5484L24.7259 33.8344ZM23.4491 35.0442C24.0429 35.0442 24.6051 34.893 25.1072 34.5767L24.0411 32.8845C23.8795 32.9863 23.6917 33.0442 23.4491 33.0442V35.0442ZM25.1034 34.579C25.5866 34.2776 25.9693 33.8694 26.243 33.3693L24.4884 32.4093C24.3771 32.6128 24.2321 32.7653 24.0449 32.8821L25.1034 34.579ZM26.2395 33.3756C26.524 32.8645 26.6594 32.3035 26.6594 31.7144H24.6594C24.6594 31.9882 24.599 32.2105 24.4919 32.4029L26.2395 33.3756ZM26.6594 31.7144C26.6594 31.1372 26.5282 30.5867 26.2526 30.0838L24.4987 31.0451C24.6015 31.2325 24.6594 31.4487 24.6594 31.7144H26.6594ZM26.258 30.0939C25.9915 29.5942 25.6144 29.1859 25.1348 28.8856L24.0733 30.5806C24.2508 30.6918 24.3881 30.8378 24.4933 31.0351L26.258 30.0939ZM25.1387 28.888C24.6397 28.5723 24.0794 28.4245 23.4889 28.4245V30.4245C23.7348 30.4245 23.9179 30.4824 24.0694 30.5782L25.1387 28.888ZM23.4889 28.4245C23.036 28.4245 22.598 28.516 22.1873 28.7063L23.0283 30.521C23.1619 30.459 23.3113 30.4245 23.4889 30.4245V28.4245ZM22.1965 28.7021C21.8072 28.8778 21.4621 29.1222 21.1673 29.4312L22.6146 30.8116C22.7313 30.6892 22.8642 30.5951 23.0191 30.5252L22.1965 28.7021ZM21.1618 29.4371C20.8755 29.7421 20.6513 30.0914 20.49 30.4785L22.3361 31.2478C22.4071 31.0774 22.5015 30.9321 22.6201 30.8057L21.1618 29.4371ZM20.4916 30.4746C20.3225 30.8757 20.2388 31.2985 20.2388 31.7343H22.2388C22.2388 31.5596 22.2713 31.4015 22.3345 31.2517L20.4916 30.4746ZM20.2388 31.7343C20.2388 32.3022 20.3733 32.8435 20.6418 33.343L22.4033 32.3957C22.2935 32.1916 22.2388 31.9763 22.2388 31.7343H20.2388ZM20.6453 33.3494C20.9161 33.8443 21.2917 34.252 21.7641 34.5591L22.8541 32.8822C22.6628 32.7578 22.514 32.598 22.3998 32.3893L20.6453 33.3494ZM21.7679 34.5615C22.2753 34.888 22.8456 35.0442 23.4491 35.0442V33.0442C23.203 33.0442 23.0133 32.9846 22.8503 32.8797L21.7679 34.5615ZM34.8055 33.168L34.0984 33.8751L34.8055 34.5823L35.5126 33.8751L34.8055 33.168ZM29.1902 27.5527L28.483 26.8456L27.7759 27.5527L28.483 28.2598L29.1902 27.5527ZM29.9468 26.796L30.6539 26.0889L29.9468 25.3818L29.2397 26.0889L29.9468 26.796ZM35.5622 32.4114L36.2693 33.1185L36.9764 32.4114L36.2693 31.7043L35.5622 32.4114ZM29.9468 33.168L29.2397 33.8751L29.9468 34.5823L30.6539 33.8751L29.9468 33.168ZM29.1902 32.4114L28.483 31.7043L27.7759 32.4114L28.483 33.1185L29.1902 32.4114ZM34.8055 26.796L35.5126 26.0889L34.8055 25.3818L34.0984 26.0889L34.8055 26.796ZM35.5622 27.5527L36.2693 28.2598L36.9764 27.5527L36.2693 26.8456L35.5622 27.5527ZM35.5126 32.4609L29.8973 26.8456L28.483 28.2598L34.0984 33.8751L35.5126 32.4609ZM29.8973 28.2598L30.6539 27.5031L29.2397 26.0889L28.483 26.8456L29.8973 28.2598ZM29.2397 27.5031L34.8551 33.1185L36.2693 31.7043L30.6539 26.0889L29.2397 27.5031ZM34.8551 31.7043L34.0984 32.4609L35.5126 33.8751L36.2693 33.1185L34.8551 31.7043ZM30.6539 32.4609L29.8973 31.7043L28.483 33.1185L29.2397 33.8751L30.6539 32.4609ZM29.8973 33.1185L35.5126 27.5031L34.0984 26.0889L28.483 31.7043L29.8973 33.1185ZM34.0984 27.5031L34.8551 28.2598L36.2693 26.8456L35.5126 26.0889L34.0984 27.5031ZM34.8551 26.8456L29.2397 32.4609L30.6539 33.8751L36.2693 28.2598L34.8551 26.8456ZM37.8136 32.9092H36.8136V33.9092H37.8136V32.9092ZM37.8136 31.8936L36.9682 31.3594L36.8136 31.6041V31.8936H37.8136ZM42.2939 24.8048V23.8048H41.7429L41.4486 24.2705L42.2939 24.8048ZM43.0306 24.8048H44.0306V23.8048H43.0306V24.8048ZM43.0306 26.3779V27.3779H44.0306V26.3779H43.0306ZM42.5328 26.3779V25.3779H41.9818L41.6875 25.8436L42.5328 26.3779ZM39.1477 31.7343L38.3024 31.2001L38.1477 31.4448V31.7343H39.1477ZM39.1477 31.814H38.1477V32.814H39.1477V31.814ZM45.1812 31.814H46.1812V30.814H45.1812V31.814ZM45.1812 32.9092V33.9092H46.1812V32.9092H45.1812ZM42.6125 35H41.6125V36H42.6125V35ZM42.6125 24.8048V23.8048H41.6125V24.8048H42.6125ZM43.7873 24.8048H44.7873V23.8048H43.7873V24.8048ZM43.7873 35V36H44.7873V35H43.7873ZM38.8136 32.9092V31.8936H36.8136V32.9092H38.8136ZM38.6589 32.4279L43.1392 25.339L41.4486 24.2705L36.9682 31.3594L38.6589 32.4279ZM42.2939 25.8048H43.0306V23.8048H42.2939V25.8048ZM42.0306 24.8048V26.3779H44.0306V24.8048H42.0306ZM43.0306 25.3779H42.5328V27.3779H43.0306V25.3779ZM41.6875 25.8436L38.3024 31.2001L39.993 32.2686L43.3782 26.9121L41.6875 25.8436ZM38.1477 31.7343V31.814H40.1477V31.7343H38.1477ZM39.1477 32.814H45.1812V30.814H39.1477V32.814ZM44.1812 31.814V32.9092H46.1812V31.814H44.1812ZM45.1812 31.9092H37.8136V33.9092H45.1812V31.9092ZM43.6125 35V32.6005H41.6125V35H43.6125ZM43.6125 32.6005V32.1276H41.6125V32.6005H43.6125ZM43.6125 32.1276V24.8048H41.6125V32.1276H43.6125ZM42.6125 25.8048H43.7873V23.8048H42.6125V25.8048ZM42.7873 24.8048V35H44.7873V24.8048H42.7873ZM43.7873 34H42.6125V36H43.7873V34Z" fill="#2F5764" mask="url(#path-7-outside-1_84_2341)"/>
<defs>
<linearGradient id="paint0_linear_84_2341" x1="3.72513" y1="32.3054" x2="33.5154" y2="49.1976" gradientUnits="userSpaceOnUse">
<stop stop-color="#4A4A4A"/>
<stop offset="1" stop-color="#303030"/>
</linearGradient>
</defs>
</svg>
