<svg width="64" height="64" viewBox="0 0 64 64" fill="none" xmlns="http://www.w3.org/2000/svg">
<path d="M4.4006 33.9298C3.80774 33.582 3.47546 33.1136 3.47547 32.6257L3.47547 30.5016C3.47547 29.9566 3.88975 29.439 4.60873 29.0857L30.1348 16.5442C31.3579 15.9433 33.1609 15.9544 34.3614 16.5703L60.0608 29.7535C60.7487 30.1064 61.1422 30.6122 61.1422 31.1434V32.5436C61.1422 33.0309 60.8108 33.4987 60.2194 33.8464L34.5631 48.9278C33.3018 49.6692 31.2326 49.6699 29.9699 48.9292L4.4006 33.9298Z" fill="url(#paint0_linear_84_1197)"/>
<rect width="34.7831" height="34.7831" rx="2.62954" transform="matrix(0.866044 -0.499967 0.866044 0.499967 2.14404 30.3906)" fill="white"/>
<rect width="10.8697" height="10.8697" transform="matrix(0.866044 -0.499967 0.866044 0.499967 12.2639 30.3906)" fill="#D9D9D9"/>
<rect width="10.8697" height="10.8697" transform="matrix(0.866044 -0.499967 0.866044 0.499967 22.8542 24.2769)" fill="#D9D9D9"/>
<rect width="10.8697" height="10.8697" transform="matrix(0.866044 -0.499967 0.866044 0.499967 22.8542 36.5044)" fill="#D9D9D9"/>
<rect width="10.8697" height="10.8697" transform="matrix(0.866044 -0.499967 0.866044 0.499967 33.4446 30.3906)" fill="#D9D9D9"/>
<mask id="path-7-outside-1_84_1197" maskUnits="userSpaceOnUse" x="19" y="23" width="28" height="13" fill="black">
<rect fill="white" x="19" y="23" width="28" height="13"/>
<path d="M20.194 35V34.1039L23.5592 30.4201C23.9542 29.9887 24.2794 29.6136 24.535 29.295C24.7905 28.9731 24.9797 28.6711 25.1025 28.389C25.2286 28.1036 25.2916 27.8049 25.2916 27.493C25.2916 27.1345 25.2054 26.8242 25.0328 26.562C24.8635 26.2999 24.6312 26.0974 24.3358 25.9547C24.0405 25.812 23.7086 25.7406 23.3402 25.7406C22.9486 25.7406 22.6068 25.822 22.3147 25.9846C22.026 26.1439 21.802 26.3679 21.6427 26.6566C21.4867 26.9454 21.4087 27.2839 21.4087 27.6722H20.2338C20.2338 27.0748 20.3716 26.5504 20.647 26.0991C20.9225 25.6477 21.2975 25.2959 21.7721 25.0437C22.25 24.7915 22.786 24.6654 23.38 24.6654C23.9774 24.6654 24.5068 24.7915 24.9681 25.0437C25.4294 25.2959 25.7911 25.6361 26.0533 26.0642C26.3155 26.4923 26.4466 26.9686 26.4466 27.493C26.4466 27.868 26.3785 28.2347 26.2425 28.5931C26.1097 28.9482 25.8774 29.3448 25.5455 29.7829C25.217 30.2177 24.7606 30.7487 24.1765 31.3759L21.8866 33.8252V33.9048H26.6258V35H20.194ZM34.6754 33.168L29.0601 27.5527L29.8168 26.796L35.4321 32.4114L34.6754 33.168ZM29.8168 33.168L29.0601 32.4114L34.6754 26.796L35.4321 27.5527L29.8168 33.168ZM37.6835 32.9092V31.8936L42.1638 24.8048H42.9006V26.3779H42.4028L39.0176 31.7343V31.814H45.0512V32.9092H37.6835ZM42.4824 35V32.6005V32.1276V24.8048H43.6573V35H42.4824Z"/>
</mask>
<path d="M20.194 35V34.1039L23.5592 30.4201C23.9542 29.9887 24.2794 29.6136 24.535 29.295C24.7905 28.9731 24.9797 28.6711 25.1025 28.389C25.2286 28.1036 25.2916 27.8049 25.2916 27.493C25.2916 27.1345 25.2054 26.8242 25.0328 26.562C24.8635 26.2999 24.6312 26.0974 24.3358 25.9547C24.0405 25.812 23.7086 25.7406 23.3402 25.7406C22.9486 25.7406 22.6068 25.822 22.3147 25.9846C22.026 26.1439 21.802 26.3679 21.6427 26.6566C21.4867 26.9454 21.4087 27.2839 21.4087 27.6722H20.2338C20.2338 27.0748 20.3716 26.5504 20.647 26.0991C20.9225 25.6477 21.2975 25.2959 21.7721 25.0437C22.25 24.7915 22.786 24.6654 23.38 24.6654C23.9774 24.6654 24.5068 24.7915 24.9681 25.0437C25.4294 25.2959 25.7911 25.6361 26.0533 26.0642C26.3155 26.4923 26.4466 26.9686 26.4466 27.493C26.4466 27.868 26.3785 28.2347 26.2425 28.5931C26.1097 28.9482 25.8774 29.3448 25.5455 29.7829C25.217 30.2177 24.7606 30.7487 24.1765 31.3759L21.8866 33.8252V33.9048H26.6258V35H20.194ZM34.6754 33.168L29.0601 27.5527L29.8168 26.796L35.4321 32.4114L34.6754 33.168ZM29.8168 33.168L29.0601 32.4114L34.6754 26.796L35.4321 27.5527L29.8168 33.168ZM37.6835 32.9092V31.8936L42.1638 24.8048H42.9006V26.3779H42.4028L39.0176 31.7343V31.814H45.0512V32.9092H37.6835ZM42.4824 35V32.6005V32.1276V24.8048H43.6573V35H42.4824Z" fill="#00C1FF"/>
<path d="M20.194 35H19.194V36H20.194V35ZM20.194 34.1039L19.4557 33.4295L19.194 33.7159V34.1039H20.194ZM23.5592 30.4201L22.8216 29.7449L22.8209 29.7456L23.5592 30.4201ZM24.535 29.295L25.3151 29.9207L25.3182 29.9168L24.535 29.295ZM25.1025 28.389L24.1878 27.9849L24.1856 27.9899L25.1025 28.389ZM25.0328 26.562L24.1926 27.1044L24.1975 27.1119L25.0328 26.562ZM24.3358 25.9547L24.7709 25.0543L24.7709 25.0543L24.3358 25.9547ZM22.3147 25.9846L22.7978 26.8602L22.8012 26.8583L22.3147 25.9846ZM21.6427 26.6566L20.7671 26.1735L20.7628 26.1813L21.6427 26.6566ZM21.4087 27.6722V28.6722H22.4087V27.6722H21.4087ZM20.2338 27.6722H19.2338V28.6722H20.2338V27.6722ZM20.647 26.0991L21.5006 26.62L21.5006 26.62L20.647 26.0991ZM21.7721 25.0437L21.3053 24.1593L21.3028 24.1607L21.7721 25.0437ZM24.9681 25.0437L25.4478 24.1663L25.4478 24.1663L24.9681 25.0437ZM26.0533 26.0642L25.2005 26.5865L26.0533 26.0642ZM26.2425 28.5931L25.3076 28.2382L25.3058 28.243L26.2425 28.5931ZM25.5455 29.7829L24.7484 29.179L24.7477 29.18L25.5455 29.7829ZM24.1765 31.3759L24.907 32.0589L24.9084 32.0574L24.1765 31.3759ZM21.8866 33.8252L21.1561 33.1422L20.8866 33.4305V33.8252H21.8866ZM21.8866 33.9048H20.8866V34.9048H21.8866V33.9048ZM26.6258 33.9048H27.6258V32.9048H26.6258V33.9048ZM26.6258 35V36H27.6258V35H26.6258ZM21.194 35V34.1039H19.194V35H21.194ZM20.9323 34.7784L24.2976 31.0946L22.8209 29.7456L19.4557 33.4295L20.9323 34.7784ZM24.2969 31.0953C24.7008 30.654 25.0415 30.2618 25.315 29.9207L23.7549 28.6694C23.5174 28.9655 23.2076 29.3233 22.8216 29.7449L24.2969 31.0953ZM25.3182 29.9168C25.6109 29.548 25.8525 29.1715 26.0194 28.7881L24.1856 27.9899C24.1069 28.1708 23.9701 28.3982 23.7517 28.6733L25.3182 29.9168ZM26.0172 28.7932C26.1995 28.3805 26.2916 27.9441 26.2916 27.493H24.2916C24.2916 27.6657 24.2577 27.8267 24.1878 27.9849L26.0172 28.7932ZM26.2916 27.493C26.2916 26.9676 26.1628 26.46 25.8681 26.0122L24.1975 27.1119C24.2479 27.1885 24.2916 27.3014 24.2916 27.493H26.2916ZM25.8729 26.0197C25.5989 25.5952 25.2227 25.2726 24.7709 25.0543L23.9008 26.8551C24.0397 26.9222 24.1282 27.0046 24.1926 27.1044L25.8729 26.0197ZM24.7709 25.0543C24.324 24.8384 23.8406 24.7406 23.3402 24.7406V26.7406C23.5766 26.7406 23.757 26.7856 23.9008 26.8551L24.7709 25.0543ZM23.3402 24.7406C22.8077 24.7406 22.2927 24.8522 21.8282 25.1109L22.8012 26.8583C22.9208 26.7917 23.0895 26.7406 23.3402 26.7406V24.7406ZM21.8316 25.109C21.3777 25.3595 21.0176 25.7196 20.7671 26.1735L22.5182 27.1397C22.5864 27.0162 22.6743 26.9283 22.7978 26.8602L21.8316 25.109ZM20.7628 26.1813C20.5147 26.6407 20.4087 27.1483 20.4087 27.6722H22.4087C22.4087 27.4194 22.4587 27.2501 22.5225 27.1319L20.7628 26.1813ZM21.4087 26.6722H20.2338V28.6722H21.4087V26.6722ZM21.2338 27.6722C21.2338 27.2342 21.3329 26.8949 21.5006 26.62L19.7934 25.5781C19.4103 26.206 19.2338 26.9154 19.2338 27.6722H21.2338ZM21.5006 26.62C21.6811 26.3242 21.9223 26.0963 22.2414 25.9267L21.3028 24.1607C20.6727 24.4955 20.1638 24.9712 19.7934 25.5781L21.5006 26.62ZM22.2389 25.9281C22.559 25.7591 22.9322 25.6654 23.38 25.6654V23.6654C22.6398 23.6654 21.941 23.8238 21.3053 24.1593L22.2389 25.9281ZM23.38 25.6654C23.8329 25.6654 24.1932 25.7597 24.4883 25.9211L25.4478 24.1663C24.8203 23.8232 24.1219 23.6654 23.38 23.6654V25.6654ZM24.4883 25.9211C24.8039 26.0937 25.0339 26.3144 25.2005 26.5865L26.9061 25.542C26.5483 24.9578 26.0548 24.4982 25.4478 24.1663L24.4883 25.9211ZM25.2005 26.5865C25.362 26.8502 25.4466 27.1443 25.4466 27.493H27.4466C27.4466 26.7929 27.2689 26.1345 26.9061 25.542L25.2005 26.5865ZM25.4466 27.493C25.4466 27.744 25.4016 27.9906 25.3076 28.2382L27.1774 28.948C27.3555 28.4788 27.4466 27.992 27.4466 27.493H25.4466ZM25.3058 28.243C25.2185 28.4764 25.0456 28.7868 24.7484 29.179L26.3426 30.3868C26.7092 29.9028 27.0009 29.4201 27.1792 28.9433L25.3058 28.243ZM24.7477 29.18C24.448 29.5766 24.0171 30.0798 23.4447 30.6944L24.9084 32.0574C25.5042 31.4175 25.986 30.8587 26.3433 30.3858L24.7477 29.18ZM23.4461 30.693L21.1561 33.1422L22.6171 34.5081L24.907 32.0589L23.4461 30.693ZM20.8866 33.8252V33.9048H22.8866V33.8252H20.8866ZM21.8866 34.9048H26.6258V32.9048H21.8866V34.9048ZM25.6258 33.9048V35H27.6258V33.9048H25.6258ZM26.6258 34H20.194V36H26.6258V34ZM34.6754 33.168L33.9683 33.8751L34.6755 34.5823L35.3826 33.8751L34.6754 33.168ZM29.0601 27.5527L28.353 26.8456L27.6459 27.5527L28.353 28.2598L29.0601 27.5527ZM29.8168 26.796L30.5239 26.0889L29.8168 25.3818L29.1097 26.0889L29.8168 26.796ZM35.4321 32.4114L36.1392 33.1185L36.8463 32.4114L36.1392 31.7043L35.4321 32.4114ZM29.8168 33.168L29.1097 33.8751L29.8168 34.5823L30.5239 33.8751L29.8168 33.168ZM29.0601 32.4114L28.353 31.7043L27.6459 32.4114L28.353 33.1185L29.0601 32.4114ZM34.6754 26.796L35.3826 26.0889L34.6755 25.3818L33.9683 26.0889L34.6754 26.796ZM35.4321 27.5527L36.1392 28.2598L36.8463 27.5527L36.1392 26.8456L35.4321 27.5527ZM35.3826 32.4609L29.7672 26.8456L28.353 28.2598L33.9683 33.8751L35.3826 32.4609ZM29.7672 28.2598L30.5239 27.5031L29.1097 26.0889L28.353 26.8456L29.7672 28.2598ZM29.1097 27.5031L34.725 33.1185L36.1392 31.7043L30.5239 26.0889L29.1097 27.5031ZM34.725 31.7043L33.9683 32.4609L35.3826 33.8751L36.1392 33.1185L34.725 31.7043ZM30.5239 32.4609L29.7672 31.7043L28.353 33.1185L29.1097 33.8751L30.5239 32.4609ZM29.7672 33.1185L35.3826 27.5031L33.9683 26.0889L28.353 31.7043L29.7672 33.1185ZM33.9683 27.5031L34.725 28.2598L36.1392 26.8456L35.3826 26.0889L33.9683 27.5031ZM34.725 26.8456L29.1097 32.4609L30.5239 33.8751L36.1392 28.2598L34.725 26.8456ZM37.6835 32.9092H36.6835V33.9092H37.6835V32.9092ZM37.6835 31.8936L36.8382 31.3594L36.6835 31.6041V31.8936H37.6835ZM42.1638 24.8048V23.8048H41.6129L41.3185 24.2705L42.1638 24.8048ZM42.9006 24.8048H43.9006V23.8048H42.9006V24.8048ZM42.9006 26.3779V27.3779H43.9006V26.3779H42.9006ZM42.4028 26.3779V25.3779H41.8518L41.5574 25.8436L42.4028 26.3779ZM39.0176 31.7343L38.1723 31.2001L38.0176 31.4448V31.7343H39.0176ZM39.0176 31.814H38.0176V32.814H39.0176V31.814ZM45.0512 31.814H46.0512V30.814H45.0512V31.814ZM45.0512 32.9092V33.9092H46.0512V32.9092H45.0512ZM42.4824 35H41.4824V36H42.4824V35ZM42.4824 24.8048V23.8048H41.4824V24.8048H42.4824ZM43.6573 24.8048H44.6573V23.8048H43.6573V24.8048ZM43.6573 35V36H44.6573V35H43.6573ZM38.6835 32.9092V31.8936H36.6835V32.9092H38.6835ZM38.5288 32.4279L43.0091 25.339L41.3185 24.2705L36.8382 31.3594L38.5288 32.4279ZM42.1638 25.8048H42.9006V23.8048H42.1638V25.8048ZM41.9006 24.8048V26.3779H43.9006V24.8048H41.9006ZM42.9006 25.3779H42.4028V27.3779H42.9006V25.3779ZM41.5574 25.8436L38.1723 31.2001L39.863 32.2686L43.2481 26.9121L41.5574 25.8436ZM38.0176 31.7343V31.814H40.0176V31.7343H38.0176ZM39.0176 32.814H45.0512V30.814H39.0176V32.814ZM44.0512 31.814V32.9092H46.0512V31.814H44.0512ZM45.0512 31.9092H37.6835V33.9092H45.0512V31.9092ZM43.4824 35V32.6005H41.4824V35H43.4824ZM43.4824 32.6005V32.1276H41.4824V32.6005H43.4824ZM43.4824 32.1276V24.8048H41.4824V32.1276H43.4824ZM42.4824 25.8048H43.6573V23.8048H42.4824V25.8048ZM42.6573 24.8048V35H44.6573V24.8048H42.6573ZM43.6573 34H42.4824V36H43.6573V34Z" fill="#2F5764" mask="url(#path-7-outside-1_84_1197)"/>
<defs>
<linearGradient id="paint0_linear_84_1197" x1="3.72513" y1="32.3054" x2="33.5154" y2="49.1976" gradientUnits="userSpaceOnUse">
<stop stop-color="#4A4A4A"/>
<stop offset="1" stop-color="#303030"/>
</linearGradient>
</defs>
</svg>
