<svg width="64" height="64" viewBox="0 0 64 64" fill="none" xmlns="http://www.w3.org/2000/svg">
<path d="M4.4006 33.9298C3.80774 33.582 3.47546 33.1136 3.47547 32.6257L3.47547 30.5016C3.47547 29.9566 3.88975 29.439 4.60873 29.0857L30.1348 16.5442C31.3579 15.9433 33.1609 15.9544 34.3614 16.5703L60.0608 29.7535C60.7487 30.1064 61.1422 30.6122 61.1422 31.1434V32.5436C61.1422 33.0309 60.8108 33.4987 60.2194 33.8464L34.5631 48.9278C33.3018 49.6692 31.2326 49.6699 29.9699 48.9292L4.4006 33.9298Z" fill="url(#paint0_linear_84_1346)"/>
<rect width="34.7831" height="34.7831" rx="2.62954" transform="matrix(0.866044 -0.499967 0.866044 0.499967 2.14404 30.3906)" fill="white"/>
<rect width="10.8697" height="10.8697" transform="matrix(0.866044 -0.499967 0.866044 0.499967 12.2639 30.3906)" fill="#D9D9D9"/>
<rect width="10.8697" height="10.8697" transform="matrix(0.866044 -0.499967 0.866044 0.499967 22.8542 24.2769)" fill="#D9D9D9"/>
<rect width="10.8697" height="10.8697" transform="matrix(0.866044 -0.499967 0.866044 0.499967 22.8542 36.5044)" fill="#D9D9D9"/>
<rect width="10.8697" height="10.8697" transform="matrix(0.866044 -0.499967 0.866044 0.499967 33.4446 30.3906)" fill="#D9D9D9"/>
<mask id="path-7-outside-1_84_1346" maskUnits="userSpaceOnUse" x="19" y="23" width="28" height="14" fill="black">
<rect fill="white" x="19" y="23" width="28" height="14"/>
<path d="M23.5431 35.1394C22.886 35.1394 22.3002 35.0266 21.7858 34.8009C21.2747 34.5752 20.8681 34.2616 20.5661 33.86C20.2674 33.4551 20.1048 32.9855 20.0783 32.4512H21.3328C21.3593 32.7797 21.4722 33.0635 21.6713 33.3025C21.8704 33.5381 22.1309 33.7206 22.4529 33.85C22.7748 33.9795 23.1315 34.0442 23.5232 34.0442C23.9612 34.0442 24.3495 33.9679 24.688 33.8152C25.0266 33.6625 25.2921 33.4501 25.4845 33.178C25.677 32.9059 25.7733 32.5906 25.7733 32.2322C25.7733 31.8571 25.6804 31.5269 25.4945 31.2415C25.3087 30.9528 25.0365 30.7271 24.6781 30.5645C24.3197 30.4019 23.8816 30.3205 23.3639 30.3205H22.5474V29.2253H23.3639C23.7687 29.2253 24.1239 29.1523 24.4292 29.0063C24.7378 28.8603 24.9784 28.6545 25.151 28.389C25.3269 28.1235 25.4149 27.8116 25.4149 27.4531C25.4149 27.108 25.3385 26.8076 25.1859 26.5521C25.0332 26.2965 24.8175 26.0974 24.5387 25.9547C24.2632 25.812 23.938 25.7406 23.563 25.7406C23.2112 25.7406 22.8793 25.8054 22.5674 25.9348C22.2587 26.0609 22.0065 26.2451 21.8107 26.4874C21.6149 26.7263 21.5087 27.0151 21.4921 27.3536H20.2973C20.3172 26.8192 20.4782 26.3513 20.7802 25.9497C21.0822 25.5448 21.4771 25.2296 21.965 25.0039C22.4562 24.7782 22.9955 24.6654 23.5829 24.6654C24.2135 24.6654 24.7544 24.7931 25.2058 25.0487C25.6571 25.3009 26.0039 25.6344 26.2462 26.0493C26.4885 26.4641 26.6096 26.9122 26.6096 27.3934C26.6096 27.9675 26.4586 28.4571 26.1566 28.8619C25.8579 29.2668 25.4514 29.5473 24.937 29.7033V29.7829C25.5808 29.8891 26.0836 30.1629 26.4453 30.6043C26.8071 31.0424 26.9879 31.585 26.9879 32.2322C26.9879 32.7864 26.8369 33.2842 26.5349 33.7256C26.2362 34.1637 25.828 34.5088 25.3103 34.761C24.7926 35.0133 24.2035 35.1394 23.5431 35.1394ZM35.0177 33.168L29.4023 27.5527L30.159 26.796L35.7744 32.4114L35.0177 33.168ZM30.159 33.168L29.4023 32.4114L35.0177 26.796L35.7744 27.5527L30.159 33.168ZM41.6498 35.1394C41.2317 35.1328 40.8135 35.0531 40.3953 34.9004C39.9772 34.7478 39.5955 34.4906 39.2504 34.1288C38.9052 33.7638 38.6281 33.2709 38.419 32.6503C38.2099 32.0264 38.1054 31.2432 38.1054 30.3006C38.1054 29.3979 38.19 28.5981 38.3593 27.9012C38.5285 27.2009 38.7741 26.6118 39.096 26.1339C39.418 25.6527 39.8063 25.2876 40.2609 25.0387C40.7189 24.7898 41.235 24.6654 41.8091 24.6654C42.38 24.6654 42.8877 24.7799 43.3324 25.0089C43.7805 25.2345 44.1455 25.5498 44.4276 25.9547C44.7097 26.3596 44.8923 26.8259 44.9752 27.3536H43.7606C43.6477 26.8956 43.4287 26.5156 43.1035 26.2136C42.7782 25.9116 42.3468 25.7606 41.8091 25.7606C41.0193 25.7606 40.397 26.1041 39.9423 26.791C39.491 27.478 39.2636 28.4421 39.2603 29.6833H39.34C39.5258 29.4012 39.7465 29.1606 40.0021 28.9615C40.2609 28.7591 40.5463 28.6031 40.8583 28.4936C41.1703 28.384 41.5005 28.3293 41.849 28.3293C42.4331 28.3293 42.9674 28.4753 43.4519 28.7674C43.9365 29.0561 44.3248 29.456 44.6168 29.9671C44.9089 30.4749 45.0549 31.0573 45.0549 31.7144C45.0549 32.345 44.9138 32.9225 44.6317 33.4468C44.3496 33.9679 43.9531 34.3827 43.442 34.6914C42.9342 34.9967 42.3368 35.146 41.6498 35.1394ZM41.6498 34.0442C42.068 34.0442 42.443 33.9397 42.7749 33.7306C43.1101 33.5215 43.3739 33.2411 43.5664 32.8893C43.7622 32.5375 43.8601 32.1459 43.8601 31.7144C43.8601 31.2929 43.7655 30.9096 43.5764 30.5645C43.3905 30.216 43.1333 29.9389 42.8048 29.7331C42.4795 29.5274 42.1078 29.4245 41.6897 29.4245C41.3744 29.4245 41.0807 29.4875 40.8085 29.6136C40.5364 29.7364 40.2974 29.9057 40.0917 30.1214C39.8892 30.3371 39.7299 30.5844 39.6138 30.8632C39.4976 31.1386 39.4395 31.429 39.4395 31.7343C39.4395 32.1392 39.5341 32.5176 39.7233 32.8694C39.9158 33.2211 40.178 33.5049 40.5098 33.7206C40.845 33.9363 41.225 34.0442 41.6498 34.0442Z"/>
</mask>
<path d="M23.5431 35.1394C22.886 35.1394 22.3002 35.0266 21.7858 34.8009C21.2747 34.5752 20.8681 34.2616 20.5661 33.86C20.2674 33.4551 20.1048 32.9855 20.0783 32.4512H21.3328C21.3593 32.7797 21.4722 33.0635 21.6713 33.3025C21.8704 33.5381 22.1309 33.7206 22.4529 33.85C22.7748 33.9795 23.1315 34.0442 23.5232 34.0442C23.9612 34.0442 24.3495 33.9679 24.688 33.8152C25.0266 33.6625 25.2921 33.4501 25.4845 33.178C25.677 32.9059 25.7733 32.5906 25.7733 32.2322C25.7733 31.8571 25.6804 31.5269 25.4945 31.2415C25.3087 30.9528 25.0365 30.7271 24.6781 30.5645C24.3197 30.4019 23.8816 30.3205 23.3639 30.3205H22.5474V29.2253H23.3639C23.7687 29.2253 24.1239 29.1523 24.4292 29.0063C24.7378 28.8603 24.9784 28.6545 25.151 28.389C25.3269 28.1235 25.4149 27.8116 25.4149 27.4531C25.4149 27.108 25.3385 26.8076 25.1859 26.5521C25.0332 26.2965 24.8175 26.0974 24.5387 25.9547C24.2632 25.812 23.938 25.7406 23.563 25.7406C23.2112 25.7406 22.8793 25.8054 22.5674 25.9348C22.2587 26.0609 22.0065 26.2451 21.8107 26.4874C21.6149 26.7263 21.5087 27.0151 21.4921 27.3536H20.2973C20.3172 26.8192 20.4782 26.3513 20.7802 25.9497C21.0822 25.5448 21.4771 25.2296 21.965 25.0039C22.4562 24.7782 22.9955 24.6654 23.5829 24.6654C24.2135 24.6654 24.7544 24.7931 25.2058 25.0487C25.6571 25.3009 26.0039 25.6344 26.2462 26.0493C26.4885 26.4641 26.6096 26.9122 26.6096 27.3934C26.6096 27.9675 26.4586 28.4571 26.1566 28.8619C25.8579 29.2668 25.4514 29.5473 24.937 29.7033V29.7829C25.5808 29.8891 26.0836 30.1629 26.4453 30.6043C26.8071 31.0424 26.9879 31.585 26.9879 32.2322C26.9879 32.7864 26.8369 33.2842 26.5349 33.7256C26.2362 34.1637 25.828 34.5088 25.3103 34.761C24.7926 35.0133 24.2035 35.1394 23.5431 35.1394ZM35.0177 33.168L29.4023 27.5527L30.159 26.796L35.7744 32.4114L35.0177 33.168ZM30.159 33.168L29.4023 32.4114L35.0177 26.796L35.7744 27.5527L30.159 33.168ZM41.6498 35.1394C41.2317 35.1328 40.8135 35.0531 40.3953 34.9004C39.9772 34.7478 39.5955 34.4906 39.2504 34.1288C38.9052 33.7638 38.6281 33.2709 38.419 32.6503C38.2099 32.0264 38.1054 31.2432 38.1054 30.3006C38.1054 29.3979 38.19 28.5981 38.3593 27.9012C38.5285 27.2009 38.7741 26.6118 39.096 26.1339C39.418 25.6527 39.8063 25.2876 40.2609 25.0387C40.7189 24.7898 41.235 24.6654 41.8091 24.6654C42.38 24.6654 42.8877 24.7799 43.3324 25.0089C43.7805 25.2345 44.1455 25.5498 44.4276 25.9547C44.7097 26.3596 44.8923 26.8259 44.9752 27.3536H43.7606C43.6477 26.8956 43.4287 26.5156 43.1035 26.2136C42.7782 25.9116 42.3468 25.7606 41.8091 25.7606C41.0193 25.7606 40.397 26.1041 39.9423 26.791C39.491 27.478 39.2636 28.4421 39.2603 29.6833H39.34C39.5258 29.4012 39.7465 29.1606 40.0021 28.9615C40.2609 28.7591 40.5463 28.6031 40.8583 28.4936C41.1703 28.384 41.5005 28.3293 41.849 28.3293C42.4331 28.3293 42.9674 28.4753 43.4519 28.7674C43.9365 29.0561 44.3248 29.456 44.6168 29.9671C44.9089 30.4749 45.0549 31.0573 45.0549 31.7144C45.0549 32.345 44.9138 32.9225 44.6317 33.4468C44.3496 33.9679 43.9531 34.3827 43.442 34.6914C42.9342 34.9967 42.3368 35.146 41.6498 35.1394ZM41.6498 34.0442C42.068 34.0442 42.443 33.9397 42.7749 33.7306C43.1101 33.5215 43.3739 33.2411 43.5664 32.8893C43.7622 32.5375 43.8601 32.1459 43.8601 31.7144C43.8601 31.2929 43.7655 30.9096 43.5764 30.5645C43.3905 30.216 43.1333 29.9389 42.8048 29.7331C42.4795 29.5274 42.1078 29.4245 41.6897 29.4245C41.3744 29.4245 41.0807 29.4875 40.8085 29.6136C40.5364 29.7364 40.2974 29.9057 40.0917 30.1214C39.8892 30.3371 39.7299 30.5844 39.6138 30.8632C39.4976 31.1386 39.4395 31.429 39.4395 31.7343C39.4395 32.1392 39.5341 32.5176 39.7233 32.8694C39.9158 33.2211 40.178 33.5049 40.5098 33.7206C40.845 33.9363 41.225 34.0442 41.6498 34.0442Z" fill="#00C1FF"/>
<path d="M21.7858 34.8009L21.3819 35.7157L21.384 35.7166L21.7858 34.8009ZM20.5661 33.86L19.7614 34.4537L19.7669 34.4611L20.5661 33.86ZM20.0783 32.4512V31.4512H19.0274L19.0795 32.5008L20.0783 32.4512ZM21.3328 32.4512L22.3295 32.3706L22.2552 31.4512H21.3328V32.4512ZM21.6713 33.3025L20.903 33.9427L20.9075 33.9479L21.6713 33.3025ZM22.4529 33.85L22.0798 34.7779L22.0798 34.7779L22.4529 33.85ZM25.4845 33.178L24.6681 32.6005L24.6681 32.6005L25.4845 33.178ZM25.4945 31.2415L24.6536 31.7828L24.6565 31.7872L25.4945 31.2415ZM24.6781 30.5645L24.2649 31.4751L24.2649 31.4751L24.6781 30.5645ZM22.5474 30.3205H21.5474V31.3205H22.5474V30.3205ZM22.5474 29.2253V28.2253H21.5474V29.2253H22.5474ZM24.4292 29.0063L24.0015 28.1024L23.9977 28.1042L24.4292 29.0063ZM25.151 28.389L24.3173 27.8367L24.3126 27.844L25.151 28.389ZM25.1859 26.5521L26.0443 26.0392L26.0443 26.0392L25.1859 26.5521ZM24.5387 25.9547L24.0787 26.8426L24.083 26.8449L24.5387 25.9547ZM22.5674 25.9348L22.9456 26.8605L22.9506 26.8585L22.5674 25.9348ZM21.8107 26.4874L22.5842 27.1212L22.5884 27.116L21.8107 26.4874ZM21.4921 27.3536V28.3536H22.4443L22.4909 27.4025L21.4921 27.3536ZM20.2973 27.3536L19.298 27.3163L19.2594 28.3536H20.2973V27.3536ZM20.7802 25.9497L21.5794 26.5508L21.5818 26.5476L20.7802 25.9497ZM21.965 25.0039L21.5475 24.0952L21.5452 24.0963L21.965 25.0039ZM25.2058 25.0487L24.7131 25.9189L24.7179 25.9216L25.2058 25.0487ZM26.2462 26.0493L25.3827 26.5536L25.3827 26.5536L26.2462 26.0493ZM26.1566 28.8619L25.355 28.264L25.3519 28.2683L26.1566 28.8619ZM24.937 29.7033L24.6468 28.7463L23.937 28.9615V29.7033H24.937ZM24.937 29.7829H23.937V30.6315L24.7742 30.7696L24.937 29.7829ZM26.4453 30.6043L25.6719 31.2382L25.6742 31.241L26.4453 30.6043ZM26.5349 33.7256L25.7096 33.1609L25.7087 33.1623L26.5349 33.7256ZM25.3103 34.761L25.7483 35.66L25.7483 35.66L25.3103 34.761ZM23.5431 34.1394C23.001 34.1394 22.5556 34.0466 22.1875 33.8851L21.384 35.7166C22.0448 36.0065 22.7709 36.1394 23.5431 36.1394V34.1394ZM22.1897 33.8861C21.8172 33.7216 21.5534 33.5091 21.3653 33.2589L19.7669 34.4611C20.1829 35.0141 20.7322 35.4288 21.3819 35.7157L22.1897 33.8861ZM21.3709 33.2664C21.1965 33.03 21.0945 32.7525 21.077 32.4016L19.0795 32.5008C19.1152 33.2186 19.3384 33.8802 19.7614 34.4537L21.3709 33.2664ZM20.0783 33.4512H21.3328V31.4512H20.0783V33.4512ZM20.336 32.5317C20.3781 33.0529 20.5637 33.5354 20.9031 33.9426L22.4395 32.6623C22.3806 32.5916 22.3405 32.5066 22.3295 32.3706L20.336 32.5317ZM20.9075 33.9479C21.2244 34.323 21.6257 34.5953 22.0798 34.7779L22.8259 32.9222C22.6362 32.846 22.5164 32.7532 22.4351 32.657L20.9075 33.9479ZM22.0798 34.7779C22.5346 34.9607 23.0201 35.0442 23.5232 35.0442V33.0442C23.243 33.0442 23.0149 32.9982 22.8259 32.9222L22.0798 34.7779ZM23.5232 35.0442C24.0778 35.0442 24.6103 34.9473 25.0992 34.7268L24.2769 32.9036C24.0888 32.9885 23.8447 33.0442 23.5232 33.0442V35.0442ZM25.0992 34.7268C25.5811 34.5094 25.9942 34.1892 26.301 33.7555L24.6681 32.6005C24.59 32.7111 24.472 32.8157 24.2769 32.9036L25.0992 34.7268ZM26.301 33.7555C26.622 33.3015 26.7733 32.781 26.7733 32.2322H24.7733C24.7733 32.4002 24.732 32.5102 24.6681 32.6005L26.301 33.7555ZM26.7733 32.2322C26.7733 31.6837 26.6347 31.1598 26.3325 30.6958L24.6565 31.7872C24.7261 31.894 24.7733 32.0305 24.7733 32.2322H26.7733ZM26.3354 30.7003C26.0309 30.2272 25.5985 29.884 25.0913 29.6538L24.2649 31.4751C24.4745 31.5702 24.5865 31.6784 24.6536 31.7827L26.3354 30.7003ZM25.0913 29.6538C24.569 29.4168 23.9812 29.3205 23.3639 29.3205V31.3205C23.782 31.3205 24.0704 31.3869 24.2649 31.4751L25.0913 29.6538ZM23.3639 29.3205H22.5474V31.3205H23.3639V29.3205ZM23.5474 30.3205V29.2253H21.5474V30.3205H23.5474ZM22.5474 30.2253H23.3639V28.2253H22.5474V30.2253ZM23.3639 30.2253C23.8891 30.2253 24.3967 30.1303 24.8606 29.9084L23.9977 28.1042C23.851 28.1744 23.6484 28.2253 23.3639 28.2253V30.2253ZM24.8568 29.9102C25.3194 29.6914 25.708 29.3671 25.9895 28.934L24.3126 27.844C24.2489 27.942 24.1562 28.0292 24.0015 28.1024L24.8568 29.9102ZM25.9847 28.9413C26.2823 28.492 26.4149 27.9825 26.4149 27.4531H24.4149C24.4149 27.6406 24.3715 27.755 24.3174 27.8367L25.9847 28.9413ZM26.4149 27.4531C26.4149 26.9566 26.3035 26.4731 26.0443 26.0392L24.3274 27.0649C24.3735 27.1421 24.4149 27.2593 24.4149 27.4531H26.4149ZM26.0443 26.0392C25.7903 25.6141 25.431 25.2881 24.9944 25.0646L24.083 26.8449C24.2039 26.9067 24.2761 26.979 24.3274 27.0649L26.0443 26.0392ZM24.9987 25.0668C24.5544 24.8366 24.065 24.7406 23.563 24.7406V26.7406C23.811 26.7406 23.9721 26.7874 24.0787 26.8426L24.9987 25.0668ZM23.563 24.7406C23.0852 24.7406 22.6226 24.8292 22.1841 25.0111L22.9506 26.8585C23.136 26.7815 23.3371 26.7406 23.563 26.7406V24.7406ZM22.1891 25.0091C21.7357 25.1944 21.3422 25.4762 21.0329 25.8588L22.5884 27.116C22.6708 27.014 22.7817 26.9275 22.9456 26.8605L22.1891 25.0091ZM21.0372 25.8535C20.6923 26.2745 20.5193 26.7739 20.4933 27.3046L22.4909 27.4025C22.498 27.2562 22.5375 27.1782 22.5842 27.1212L21.0372 25.8535ZM21.4921 26.3536H20.2973V28.3536H21.4921V26.3536ZM21.2966 27.3908C21.3095 27.0466 21.4081 26.7785 21.5794 26.5508L19.981 25.3487C19.5483 25.9241 19.325 26.5919 19.298 27.3163L21.2966 27.3908ZM21.5818 26.5476C21.7779 26.2847 22.038 26.0719 22.3848 25.9115L21.5452 24.0963C20.9163 24.3872 20.3865 24.805 19.9786 25.3518L21.5818 26.5476ZM22.3825 25.9126C22.7317 25.7521 23.1269 25.6654 23.5829 25.6654V23.6654C22.864 23.6654 22.1807 23.8043 21.5475 24.0952L22.3825 25.9126ZM23.5829 25.6654C24.0779 25.6654 24.4413 25.765 24.7131 25.9189L25.6985 24.1785C25.0676 23.8213 24.3491 23.6654 23.5829 23.6654V25.6654ZM24.7179 25.9216C25.0257 26.0936 25.2373 26.3047 25.3827 26.5536L27.1097 25.545C26.7705 24.9642 26.2885 24.5082 25.6936 24.1757L24.7179 25.9216ZM25.3827 26.5536C25.5354 26.8151 25.6096 27.0891 25.6096 27.3934H27.6096C27.6096 26.7353 27.4415 26.1131 27.1097 25.545L25.3827 26.5536ZM25.6096 27.3934C25.6096 27.7828 25.5109 28.055 25.355 28.264L26.9582 29.4598C27.4063 28.8591 27.6096 28.1522 27.6096 27.3934H25.6096ZM25.3519 28.2683C25.1901 28.4876 24.97 28.6483 24.6468 28.7463L25.2271 30.6602C25.9327 30.4463 26.5257 30.0461 26.9613 29.4556L25.3519 28.2683ZM23.937 29.7033V29.7829H25.937V29.7033H23.937ZM24.7742 30.7696C25.215 30.8423 25.4861 31.0115 25.6719 31.2382L27.2188 29.9704C26.6811 29.3143 25.9466 28.9359 25.0997 28.7962L24.7742 30.7696ZM25.6742 31.241C25.8676 31.4752 25.9879 31.7832 25.9879 32.2322H27.9879C27.9879 31.3868 27.7465 30.6095 27.2164 29.9676L25.6742 31.241ZM25.9879 32.2322C25.9879 32.5926 25.8935 32.8921 25.7096 33.1609L27.3602 34.2903C27.7804 33.6763 27.9879 32.9802 27.9879 32.2322H25.9879ZM25.7087 33.1623C25.5164 33.4443 25.2475 33.6793 24.8723 33.8621L25.7483 35.66C26.4085 35.3384 26.9561 34.883 27.3612 34.2889L25.7087 33.1623ZM24.8723 33.8621C24.5098 34.0387 24.0741 34.1394 23.5431 34.1394V36.1394C24.333 36.1394 25.0754 35.9879 25.7483 35.66L24.8723 33.8621ZM35.0177 33.168L34.3106 33.8751L35.0177 34.5823L35.7248 33.8751L35.0177 33.168ZM29.4023 27.5527L28.6952 26.8456L27.9881 27.5527L28.6952 28.2598L29.4023 27.5527ZM30.159 26.796L30.8661 26.0889L30.159 25.3818L29.4519 26.0889L30.159 26.796ZM35.7744 32.4114L36.4815 33.1185L37.1886 32.4114L36.4815 31.7043L35.7744 32.4114ZM30.159 33.168L29.4519 33.8751L30.159 34.5823L30.8661 33.8751L30.159 33.168ZM29.4023 32.4114L28.6952 31.7043L27.9881 32.4114L28.6952 33.1185L29.4023 32.4114ZM35.0177 26.796L35.7248 26.0889L35.0177 25.3818L34.3106 26.0889L35.0177 26.796ZM35.7744 27.5527L36.4815 28.2598L37.1886 27.5527L36.4815 26.8456L35.7744 27.5527ZM35.7248 32.4609L30.1095 26.8456L28.6952 28.2598L34.3106 33.8751L35.7248 32.4609ZM30.1095 28.2598L30.8661 27.5031L29.4519 26.0889L28.6952 26.8456L30.1095 28.2598ZM29.4519 27.5031L35.0673 33.1185L36.4815 31.7043L30.8661 26.0889L29.4519 27.5031ZM35.0673 31.7043L34.3106 32.4609L35.7248 33.8751L36.4815 33.1185L35.0673 31.7043ZM30.8661 32.4609L30.1095 31.7043L28.6952 33.1185L29.4519 33.8751L30.8661 32.4609ZM30.1095 33.1185L35.7248 27.5031L34.3106 26.0889L28.6952 31.7043L30.1095 33.1185ZM34.3106 27.5031L35.0673 28.2598L36.4815 26.8456L35.7248 26.0889L34.3106 27.5031ZM35.0673 26.8456L29.4519 32.4609L30.8661 33.8751L36.4815 28.2598L35.0673 26.8456ZM41.6498 35.1394L41.634 36.1393L41.6402 36.1393L41.6498 35.1394ZM40.3953 34.9004L40.0524 35.8398L40.0524 35.8398L40.3953 34.9004ZM39.2504 34.1288L38.5237 34.8158L38.5269 34.8191L39.2504 34.1288ZM38.419 32.6503L37.4708 32.9681L37.4714 32.9696L38.419 32.6503ZM38.3593 27.9012L39.331 28.1372L39.3313 28.1361L38.3593 27.9012ZM39.096 26.1339L39.9254 26.6926L39.9272 26.6899L39.096 26.1339ZM40.2609 25.0387L39.7834 24.1601L39.7807 24.1616L40.2609 25.0387ZM43.3324 25.0089L42.8746 25.898L42.8826 25.902L43.3324 25.0089ZM44.4276 25.9547L45.2481 25.3831L45.2481 25.3831L44.4276 25.9547ZM44.9752 27.3536V28.3536H46.1448L45.9631 27.1982L44.9752 27.3536ZM43.7606 27.3536L42.7896 27.5928L42.977 28.3536H43.7606V27.3536ZM43.1035 26.2136L42.423 26.9464L42.423 26.9464L43.1035 26.2136ZM39.9423 26.791L39.1084 26.2391L39.1066 26.2419L39.9423 26.791ZM39.2603 29.6833L38.2603 29.6807L38.2576 30.6833H39.2603V29.6833ZM39.34 29.6833V30.6833H39.8787L40.175 30.2335L39.34 29.6833ZM40.0021 28.9615L40.6167 29.7503L40.6181 29.7492L40.0021 28.9615ZM40.8583 28.4936L40.5271 27.55L40.8583 28.4936ZM43.4519 28.7674L42.9357 29.6238L42.94 29.6264L43.4519 28.7674ZM44.6168 29.9671L43.7486 30.4632L43.75 30.4657L44.6168 29.9671ZM44.6317 33.4468L45.5111 33.9229L45.5124 33.9206L44.6317 33.4468ZM43.442 34.6914L43.9573 35.5484L43.9589 35.5474L43.442 34.6914ZM42.7749 33.7306L42.2456 32.8821L42.2419 32.8845L42.7749 33.7306ZM43.5664 32.8893L42.6926 32.4029L42.6892 32.4093L43.5664 32.8893ZM43.5764 30.5645L42.694 31.0351L42.6994 31.0451L43.5764 30.5645ZM42.8048 29.7331L42.2701 30.5782L42.274 30.5806L42.8048 29.7331ZM40.8085 29.6136L41.2198 30.5252L41.229 30.521L40.8085 29.6136ZM40.0917 30.1214L39.368 29.4312L39.3625 29.4371L40.0917 30.1214ZM39.6138 30.8632L40.5352 31.2517L40.5368 31.2478L39.6138 30.8632ZM39.7233 32.8694L38.8425 33.343L38.846 33.3494L39.7233 32.8694ZM40.5098 33.7206L39.9648 34.5591L39.9687 34.5615L40.5098 33.7206ZM41.6657 34.1395C41.3662 34.1348 41.0584 34.0779 40.7383 33.9611L40.0524 35.8398C40.5687 36.0283 41.0972 36.1307 41.634 36.1393L41.6657 34.1395ZM40.7383 33.9611C40.4813 33.8673 40.2262 33.7029 39.9739 33.4385L38.5269 34.8191C38.9649 35.2782 39.473 35.6283 40.0524 35.8398L40.7383 33.9611ZM39.977 33.4418C39.7566 33.2087 39.543 32.8544 39.3667 32.331L37.4714 32.9696C37.7132 33.6874 38.0538 34.3188 38.5237 34.8158L39.977 33.4418ZM39.3672 32.3326C39.2038 31.8449 39.1054 31.1778 39.1054 30.3006H37.1054C37.1054 31.3085 37.2161 32.2079 37.4708 32.9681L39.3672 32.3326ZM39.1054 30.3006C39.1054 29.458 39.1846 28.74 39.331 28.1372L37.3875 27.6652C37.1954 28.4562 37.1054 29.3379 37.1054 30.3006H39.1054ZM39.3313 28.1361C39.4793 27.5236 39.6842 27.0507 39.9254 26.6926L38.2667 25.5752C37.8641 26.1729 37.5777 26.8782 37.3873 27.6662L39.3313 28.1361ZM39.9272 26.6899C40.1703 26.3266 40.4434 26.0789 40.7411 25.9159L39.7807 24.1616C39.1691 24.4964 38.6656 24.9788 38.2649 25.5779L39.9272 26.6899ZM40.7384 25.9174C41.0354 25.756 41.3845 25.6654 41.8091 25.6654V23.6654C41.0855 23.6654 40.4024 23.8237 39.7834 24.1601L40.7384 25.9174ZM41.8091 25.6654C42.2433 25.6654 42.5904 25.7515 42.8746 25.8979L43.7902 24.1198C43.1851 23.8082 42.5166 23.6654 41.8091 23.6654V25.6654ZM42.8826 25.902C43.1849 26.0542 43.4216 26.2601 43.6071 26.5264L45.2481 25.3831C44.8695 24.8396 44.3761 24.4149 43.7823 24.1158L42.8826 25.902ZM43.6071 26.5264C43.7956 26.7969 43.926 27.1183 43.9874 27.5089L45.9631 27.1982C45.8586 26.5335 45.6238 25.9223 45.2481 25.3831L43.6071 26.5264ZM44.9752 26.3536H43.7606V28.3536H44.9752V26.3536ZM44.7315 27.1143C44.5751 26.4795 44.2612 25.9239 43.7839 25.4808L42.423 26.9464C42.5962 27.1072 42.7203 27.3117 42.7896 27.5928L44.7315 27.1143ZM43.7839 25.4808C43.2362 24.9722 42.5429 24.7606 41.8091 24.7606V26.7606C42.1507 26.7606 42.3202 26.8509 42.423 26.9464L43.7839 25.4808ZM41.8091 24.7606C40.6668 24.7606 39.7387 25.2868 39.1084 26.2391L40.7762 27.3429C41.0553 26.9214 41.3717 26.7606 41.8091 26.7606V24.7606ZM39.1066 26.2419C38.5071 27.1543 38.2639 28.3377 38.2603 29.6807L40.2603 29.686C40.2634 28.5465 40.4748 27.8017 40.7781 27.3401L39.1066 26.2419ZM39.2603 30.6833H39.34V28.6833H39.2603V30.6833ZM40.175 30.2335C40.3035 30.0385 40.4508 29.8796 40.6167 29.7503L39.3874 28.1727C39.0423 28.4417 38.7481 28.764 38.5049 29.1332L40.175 30.2335ZM40.6181 29.7492C40.7906 29.6143 40.9797 29.5108 41.1896 29.4371L40.5271 27.55C40.113 27.6954 39.7312 27.9038 39.386 28.1738L40.6181 29.7492ZM41.1896 29.4371C41.3894 29.3669 41.6072 29.3293 41.849 29.3293V27.3293C41.3938 27.3293 40.9511 27.4012 40.5271 27.55L41.1896 29.4371ZM41.849 29.3293C42.2573 29.3293 42.6122 29.4288 42.9357 29.6238L43.9681 27.9109C43.3226 27.5218 42.6088 27.3293 41.849 27.3293V29.3293ZM42.94 29.6264C43.2699 29.823 43.5382 30.095 43.7486 30.4632L45.4851 29.471C45.1114 28.817 44.603 28.2892 43.9638 27.9083L42.94 29.6264ZM43.75 30.4657C43.9445 30.8039 44.0549 31.2105 44.0549 31.7144H46.0549C46.0549 30.9041 45.8732 30.1458 45.4837 29.4685L43.75 30.4657ZM44.0549 31.7144C44.0549 32.1897 43.9502 32.6029 43.7511 32.9731L45.5124 33.9206C45.8775 33.242 46.0549 32.5003 46.0549 31.7144H44.0549ZM43.7524 32.9707C43.5558 33.3338 43.2848 33.618 42.925 33.8353L43.9589 35.5474C44.6213 35.1474 45.1435 34.6019 45.5111 33.9229L43.7524 32.9707ZM42.9266 33.8344C42.6012 34.0301 42.1916 34.1446 41.6595 34.1394L41.6402 36.1393C42.482 36.1475 43.2672 35.9633 43.9573 35.5484L42.9266 33.8344ZM41.6498 35.0442C42.2436 35.0442 42.8058 34.893 43.3079 34.5767L42.2419 32.8845C42.0803 32.9863 41.8924 33.0442 41.6498 33.0442V35.0442ZM43.3041 34.579C43.7873 34.2776 44.1701 33.8694 44.4437 33.3693L42.6892 32.4093C42.5778 32.6128 42.4328 32.7653 42.2456 32.8821L43.3041 34.579ZM44.4402 33.3756C44.7247 32.8645 44.8601 32.3035 44.8601 31.7144H42.8601C42.8601 31.9882 42.7998 32.2105 42.6927 32.4029L44.4402 33.3756ZM44.8601 31.7144C44.8601 31.1372 44.7289 30.5867 44.4533 30.0838L42.6994 31.0451C42.8022 31.2325 42.8601 31.4487 42.8601 31.7144H44.8601ZM44.4587 30.0939C44.1922 29.5942 43.8151 29.1859 43.3355 28.8856L42.274 30.5806C42.4516 30.6918 42.5888 30.8378 42.694 31.0351L44.4587 30.0939ZM43.3394 28.888C42.8404 28.5723 42.2801 28.4245 41.6897 28.4245V30.4245C41.9356 30.4245 42.1186 30.4824 42.2701 30.5782L43.3394 28.888ZM41.6897 28.4245C41.2368 28.4245 40.7987 28.516 40.3881 28.7063L41.229 30.521C41.3626 30.459 41.512 30.4245 41.6897 30.4245V28.4245ZM40.3972 28.7021C40.0079 28.8778 39.6628 29.1222 39.3681 29.4312L40.8153 30.8116C40.932 30.6892 41.0649 30.5951 41.2198 30.5252L40.3972 28.7021ZM39.3625 29.4371C39.0762 29.7421 38.852 30.0914 38.6907 30.4785L40.5368 31.2478C40.6079 31.0774 40.7022 30.9321 40.8209 30.8057L39.3625 29.4371ZM38.6923 30.4746C38.5232 30.8757 38.4395 31.2985 38.4395 31.7343H40.4395C40.4395 31.5596 40.472 31.4015 40.5352 31.2517L38.6923 30.4746ZM38.4395 31.7343C38.4395 32.3022 38.574 32.8435 38.8426 33.343L40.604 32.3957C40.4943 32.1916 40.4395 31.9763 40.4395 31.7343H38.4395ZM38.846 33.3494C39.1168 33.8443 39.4924 34.252 39.9648 34.5591L41.0548 32.8822C40.8635 32.7578 40.7147 32.598 40.6006 32.3893L38.846 33.3494ZM39.9687 34.5615C40.476 34.888 41.0463 35.0442 41.6498 35.0442V33.0442C41.4038 33.0442 41.2141 32.9846 41.051 32.8797L39.9687 34.5615Z" fill="#2F5764" mask="url(#path-7-outside-1_84_1346)"/>
<defs>
<linearGradient id="paint0_linear_84_1346" x1="3.72513" y1="32.3054" x2="33.5154" y2="49.1976" gradientUnits="userSpaceOnUse">
<stop stop-color="#4A4A4A"/>
<stop offset="1" stop-color="#303030"/>
</linearGradient>
</defs>
</svg>
