<svg width="64" height="64" viewBox="0 0 64 64" fill="none" xmlns="http://www.w3.org/2000/svg">
<path d="M4.4006 33.9298C3.80774 33.582 3.47546 33.1136 3.47547 32.6257L3.47547 30.5016C3.47547 29.9566 3.88975 29.439 4.60873 29.0857L30.1348 16.5442C31.3579 15.9433 33.1609 15.9544 34.3614 16.5703L60.0608 29.7535C60.7487 30.1064 61.1422 30.6122 61.1422 31.1434V32.5436C61.1422 33.0309 60.8108 33.4987 60.2194 33.8464L34.5631 48.9278C33.3018 49.6692 31.2326 49.6699 29.9699 48.9292L4.4006 33.9298Z" fill="url(#paint0_linear_84_1882)"/>
<rect width="34.7831" height="34.7831" rx="2.62954" transform="matrix(0.866044 -0.499967 0.866044 0.499967 2.14404 30.3906)" fill="white"/>
<rect width="10.8697" height="10.8697" transform="matrix(0.866044 -0.499967 0.866044 0.499967 12.2639 30.3906)" fill="#D9D9D9"/>
<rect width="10.8697" height="10.8697" transform="matrix(0.866044 -0.499967 0.866044 0.499967 22.8542 24.2769)" fill="#D9D9D9"/>
<rect width="10.8697" height="10.8697" transform="matrix(0.866044 -0.499967 0.866044 0.499967 22.8542 36.5044)" fill="#D9D9D9"/>
<rect width="10.8697" height="10.8697" transform="matrix(0.866044 -0.499967 0.866044 0.499967 33.4446 30.3906)" fill="#D9D9D9"/>
<mask id="path-7-outside-1_84_1882" maskUnits="userSpaceOnUse" x="19" y="23" width="27" height="14" fill="black">
<rect fill="white" x="19" y="23" width="27" height="14"/>
<path d="M23.4827 35.1394C22.8986 35.1394 22.3726 35.0232 21.9046 34.7909C21.4367 34.5586 21.0617 34.24 20.7796 33.8351C20.4975 33.4302 20.3432 32.9689 20.3166 32.4512H21.5114C21.5578 32.9125 21.7669 33.2942 22.1386 33.5962C22.5136 33.8949 22.9617 34.0442 23.4827 34.0442C23.9009 34.0442 24.2726 33.9463 24.5978 33.7505C24.9264 33.5547 25.1836 33.2859 25.3694 32.944C25.5586 32.5989 25.6532 32.2089 25.6532 31.7742C25.6532 31.3294 25.5553 30.9329 25.3595 30.5844C25.167 30.2326 24.9015 29.9555 24.563 29.753C24.2245 29.5506 23.8378 29.4477 23.4031 29.4444C23.0911 29.4411 22.7708 29.4892 22.4423 29.5888C22.1137 29.685 21.8432 29.8095 21.6308 29.9621L20.4759 29.8227L21.0932 24.8048H26.3899V25.8999H22.1287L21.7702 28.9067H21.83C22.039 28.7408 22.3012 28.6031 22.6165 28.4936C22.9318 28.384 23.2604 28.3293 23.6022 28.3293C24.2261 28.3293 24.782 28.4786 25.2699 28.7773C25.761 29.0727 26.146 29.4776 26.4248 29.992C26.7069 30.5064 26.8479 31.0938 26.8479 31.7542C26.8479 32.4047 26.7019 32.9855 26.4099 33.4966C26.1211 34.0044 25.7229 34.4059 25.2151 34.7013C24.7073 34.9934 24.1299 35.1394 23.4827 35.1394ZM34.8192 33.168L29.2038 27.5527L29.9605 26.796L35.5759 32.4114L34.8192 33.168ZM29.9605 33.168L29.2038 32.4114L34.8192 26.796L35.5759 27.5527L29.9605 33.168ZM41.4513 35.1394C41.0332 35.1328 40.615 35.0531 40.1968 34.9004C39.7787 34.7478 39.397 34.4906 39.0519 34.1288C38.7067 33.7638 38.4296 33.2709 38.2205 32.6503C38.0114 32.0264 37.9069 31.2432 37.9069 30.3006C37.9069 29.3979 37.9915 28.5981 38.1608 27.9012C38.33 27.2009 38.5756 26.6118 38.8975 26.1339C39.2195 25.6527 39.6078 25.2876 40.0624 25.0387C40.5204 24.7898 41.0365 24.6654 41.6106 24.6654C42.1815 24.6654 42.6892 24.7799 43.1339 25.0089C43.582 25.2345 43.947 25.5498 44.2291 25.9547C44.5112 26.3596 44.6938 26.8259 44.7767 27.3536H43.5621C43.4492 26.8956 43.2302 26.5156 42.9049 26.2136C42.5797 25.9116 42.1483 25.7606 41.6106 25.7606C40.8208 25.7606 40.1985 26.1041 39.7438 26.791C39.2925 27.478 39.0651 28.4421 39.0618 29.6833H39.1415C39.3273 29.4012 39.548 29.1606 39.8036 28.9615C40.0624 28.7591 40.3478 28.6031 40.6598 28.4936C40.9718 28.384 41.302 28.3293 41.6505 28.3293C42.2346 28.3293 42.7689 28.4753 43.2534 28.7674C43.738 29.0561 44.1263 29.456 44.4183 29.9671C44.7104 30.4749 44.8564 31.0573 44.8564 31.7144C44.8564 32.345 44.7153 32.9225 44.4332 33.4468C44.1511 33.9679 43.7546 34.3827 43.2435 34.6914C42.7357 34.9967 42.1383 35.146 41.4513 35.1394ZM41.4513 34.0442C41.8695 34.0442 42.2445 33.9397 42.5764 33.7306C42.9116 33.5215 43.1754 33.2411 43.3679 32.8893C43.5637 32.5375 43.6616 32.1459 43.6616 31.7144C43.6616 31.2929 43.567 30.9096 43.3779 30.5645C43.192 30.216 42.9348 29.9389 42.6063 29.7331C42.281 29.5274 41.9093 29.4245 41.4912 29.4245C41.1759 29.4245 40.8822 29.4875 40.61 29.6136C40.3379 29.7364 40.0989 29.9057 39.8932 30.1214C39.6907 30.3371 39.5314 30.5844 39.4153 30.8632C39.2991 31.1386 39.241 31.429 39.241 31.7343C39.241 32.1392 39.3356 32.5176 39.5248 32.8694C39.7173 33.2211 39.9795 33.5049 40.3113 33.7206C40.6465 33.9363 41.0265 34.0442 41.4513 34.0442Z"/>
</mask>
<path d="M23.4827 35.1394C22.8986 35.1394 22.3726 35.0232 21.9046 34.7909C21.4367 34.5586 21.0617 34.24 20.7796 33.8351C20.4975 33.4302 20.3432 32.9689 20.3166 32.4512H21.5114C21.5578 32.9125 21.7669 33.2942 22.1386 33.5962C22.5136 33.8949 22.9617 34.0442 23.4827 34.0442C23.9009 34.0442 24.2726 33.9463 24.5978 33.7505C24.9264 33.5547 25.1836 33.2859 25.3694 32.944C25.5586 32.5989 25.6532 32.2089 25.6532 31.7742C25.6532 31.3294 25.5553 30.9329 25.3595 30.5844C25.167 30.2326 24.9015 29.9555 24.563 29.753C24.2245 29.5506 23.8378 29.4477 23.4031 29.4444C23.0911 29.4411 22.7708 29.4892 22.4423 29.5888C22.1137 29.685 21.8432 29.8095 21.6308 29.9621L20.4759 29.8227L21.0932 24.8048H26.3899V25.8999H22.1287L21.7702 28.9067H21.83C22.039 28.7408 22.3012 28.6031 22.6165 28.4936C22.9318 28.384 23.2604 28.3293 23.6022 28.3293C24.2261 28.3293 24.782 28.4786 25.2699 28.7773C25.761 29.0727 26.146 29.4776 26.4248 29.992C26.7069 30.5064 26.8479 31.0938 26.8479 31.7542C26.8479 32.4047 26.7019 32.9855 26.4099 33.4966C26.1211 34.0044 25.7229 34.4059 25.2151 34.7013C24.7073 34.9934 24.1299 35.1394 23.4827 35.1394ZM34.8192 33.168L29.2038 27.5527L29.9605 26.796L35.5759 32.4114L34.8192 33.168ZM29.9605 33.168L29.2038 32.4114L34.8192 26.796L35.5759 27.5527L29.9605 33.168ZM41.4513 35.1394C41.0332 35.1328 40.615 35.0531 40.1968 34.9004C39.7787 34.7478 39.397 34.4906 39.0519 34.1288C38.7067 33.7638 38.4296 33.2709 38.2205 32.6503C38.0114 32.0264 37.9069 31.2432 37.9069 30.3006C37.9069 29.3979 37.9915 28.5981 38.1608 27.9012C38.33 27.2009 38.5756 26.6118 38.8975 26.1339C39.2195 25.6527 39.6078 25.2876 40.0624 25.0387C40.5204 24.7898 41.0365 24.6654 41.6106 24.6654C42.1815 24.6654 42.6892 24.7799 43.1339 25.0089C43.582 25.2345 43.947 25.5498 44.2291 25.9547C44.5112 26.3596 44.6938 26.8259 44.7767 27.3536H43.5621C43.4492 26.8956 43.2302 26.5156 42.9049 26.2136C42.5797 25.9116 42.1483 25.7606 41.6106 25.7606C40.8208 25.7606 40.1985 26.1041 39.7438 26.791C39.2925 27.478 39.0651 28.4421 39.0618 29.6833H39.1415C39.3273 29.4012 39.548 29.1606 39.8036 28.9615C40.0624 28.7591 40.3478 28.6031 40.6598 28.4936C40.9718 28.384 41.302 28.3293 41.6505 28.3293C42.2346 28.3293 42.7689 28.4753 43.2534 28.7674C43.738 29.0561 44.1263 29.456 44.4183 29.9671C44.7104 30.4749 44.8564 31.0573 44.8564 31.7144C44.8564 32.345 44.7153 32.9225 44.4332 33.4468C44.1511 33.9679 43.7546 34.3827 43.2435 34.6914C42.7357 34.9967 42.1383 35.146 41.4513 35.1394ZM41.4513 34.0442C41.8695 34.0442 42.2445 33.9397 42.5764 33.7306C42.9116 33.5215 43.1754 33.2411 43.3679 32.8893C43.5637 32.5375 43.6616 32.1459 43.6616 31.7144C43.6616 31.2929 43.567 30.9096 43.3779 30.5645C43.192 30.216 42.9348 29.9389 42.6063 29.7331C42.281 29.5274 41.9093 29.4245 41.4912 29.4245C41.1759 29.4245 40.8822 29.4875 40.61 29.6136C40.3379 29.7364 40.0989 29.9057 39.8932 30.1214C39.6907 30.3371 39.5314 30.5844 39.4153 30.8632C39.2991 31.1386 39.241 31.429 39.241 31.7343C39.241 32.1392 39.3356 32.5176 39.5248 32.8694C39.7173 33.2211 39.9795 33.5049 40.3113 33.7206C40.6465 33.9363 41.0265 34.0442 41.4513 34.0442Z" fill="#00C1FF"/>
<path d="M21.9046 34.7909L21.46 35.6866L21.46 35.6866L21.9046 34.7909ZM20.7796 33.8351L21.6001 33.2635L21.6001 33.2635L20.7796 33.8351ZM20.3166 32.4512V31.4512H19.264L19.3179 32.5024L20.3166 32.4512ZM21.5114 32.4512L22.5063 32.351L22.4157 31.4512H21.5114V32.4512ZM22.1386 33.5962L21.508 34.3723L21.5156 34.3784L22.1386 33.5962ZM24.5978 33.7505L24.0859 32.8915L24.082 32.8938L24.5978 33.7505ZM25.3694 32.944L24.4925 32.4634L24.4909 32.4664L25.3694 32.944ZM25.3595 30.5844L24.4822 31.0644L24.4877 31.0743L25.3595 30.5844ZM23.4031 29.4444L23.3924 30.4443L23.3954 30.4444L23.4031 29.4444ZM22.4423 29.5888L22.7234 30.5485L22.7323 30.5458L22.4423 29.5888ZM21.6308 29.9621L21.511 30.9549L21.898 31.0016L22.2145 30.7741L21.6308 29.9621ZM20.4759 29.8227L19.4834 29.7006L19.361 30.6954L20.3561 30.8155L20.4759 29.8227ZM21.0932 24.8048V23.8048H20.2087L20.1007 24.6827L21.0932 24.8048ZM26.3899 24.8048H27.3899V23.8048H26.3899V24.8048ZM26.3899 25.8999V26.8999H27.3899V25.8999H26.3899ZM22.1287 25.8999V24.8999H21.2408L21.1357 25.7816L22.1287 25.8999ZM21.7702 28.9067L20.7773 28.7884L20.6439 29.9067H21.7702V28.9067ZM21.83 28.9067V29.9067H22.1786L22.4516 29.69L21.83 28.9067ZM25.2699 28.7773L24.7477 29.6302L24.7545 29.6343L25.2699 28.7773ZM26.4248 29.992L25.5456 30.4685L25.548 30.4728L26.4248 29.992ZM26.4099 33.4966L25.5416 33.0005L25.5406 33.0023L26.4099 33.4966ZM25.2151 34.7013L25.7137 35.5682L25.7179 35.5657L25.2151 34.7013ZM23.4827 34.1394C23.0345 34.1394 22.6635 34.0512 22.3493 33.8952L21.46 35.6866C22.0817 35.9953 22.7627 36.1394 23.4827 36.1394V34.1394ZM22.3493 33.8952C22.0227 33.7331 21.7804 33.5223 21.6001 33.2635L19.9591 34.4068C20.3429 34.9577 20.8506 35.3841 21.46 35.6866L22.3493 33.8952ZM21.6001 33.2635C21.4304 33.0199 21.3328 32.7409 21.3153 32.4L19.3179 32.5024C19.3535 33.197 19.5646 33.8405 19.9591 34.4068L21.6001 33.2635ZM20.3166 33.4512H21.5114V31.4512H20.3166V33.4512ZM20.5164 32.5514C20.5905 33.2871 20.9374 33.9086 21.508 34.3723L22.7692 32.82C22.5964 32.6797 22.5252 32.5379 22.5063 32.351L20.5164 32.5514ZM21.5156 34.3784C22.0834 34.8306 22.7563 35.0442 23.4827 35.0442V33.0442C23.167 33.0442 22.9439 32.9591 22.7616 32.8139L21.5156 34.3784ZM23.4827 35.0442C24.0636 35.0442 24.6171 34.9061 25.1136 34.6072L24.082 32.8938C23.928 32.9865 23.7381 33.0442 23.4827 33.0442V35.0442ZM25.1098 34.6095C25.5953 34.3201 25.9779 33.9184 26.248 33.4217L24.4909 32.4664C24.3892 32.6533 24.2574 32.7892 24.0859 32.8915L25.1098 34.6095ZM26.2464 33.4246C26.5245 32.9172 26.6532 32.359 26.6532 31.7742H24.6532C24.6532 32.0589 24.5927 32.2806 24.4925 32.4634L26.2464 33.4246ZM26.6532 31.7742C26.6532 31.1776 26.5203 30.6089 26.2313 30.0945L24.4877 31.0743C24.5903 31.2568 24.6532 31.4813 24.6532 31.7742H26.6532ZM26.2367 30.1044C25.9603 29.5991 25.5702 29.1902 25.0762 28.8948L24.0497 30.6113C24.2327 30.7207 24.3737 30.8661 24.4822 31.0644L26.2367 30.1044ZM25.0762 28.8948C24.5695 28.5918 24.0049 28.449 23.4107 28.4444L23.3954 30.4444C23.6708 30.4465 23.8794 30.5094 24.0497 30.6113L25.0762 28.8948ZM23.4137 28.4444C22.9902 28.4399 22.5686 28.5056 22.1523 28.6317L22.7323 30.5458C22.9731 30.4728 23.1919 30.4422 23.3924 30.4443L23.4137 28.4444ZM22.1612 28.6291C21.7558 28.7478 21.3748 28.9147 21.0472 29.1501L22.2145 30.7741C22.3117 30.7043 22.4717 30.6222 22.7234 30.5484L22.1612 28.6291ZM21.7507 28.9693L20.5957 28.8299L20.3561 30.8155L21.511 30.9549L21.7507 28.9693ZM21.4684 29.9448L22.0857 24.9269L20.1007 24.6827L19.4834 29.7006L21.4684 29.9448ZM21.0932 25.8048H26.3899V23.8048H21.0932V25.8048ZM25.3899 24.8048V25.8999H27.3899V24.8048H25.3899ZM26.3899 24.8999H22.1287V26.8999H26.3899V24.8999ZM21.1357 25.7816L20.7773 28.7884L22.7632 29.0251L23.1216 26.0183L21.1357 25.7816ZM21.7702 29.9067H21.83V27.9067H21.7702V29.9067ZM22.4516 29.69C22.5537 29.609 22.7101 29.5197 22.9446 29.4382L22.2884 27.5489C21.8924 27.6865 21.5244 27.8726 21.2083 28.1235L22.4516 29.69ZM22.9446 29.4382C23.1519 29.3662 23.3693 29.3293 23.6022 29.3293V27.3293C23.1514 27.3293 22.7117 27.4019 22.2884 27.5489L22.9446 29.4382ZM23.6022 29.3293C24.0591 29.3293 24.4312 29.4364 24.7477 29.6302L25.792 27.9245C25.1329 27.5209 24.3931 27.3293 23.6022 27.3293V29.3293ZM24.7545 29.6343C25.0893 29.8356 25.3501 30.1077 25.5456 30.4685L27.304 29.5155C26.942 28.8475 26.4328 28.3098 25.7852 27.9203L24.7545 29.6343ZM25.548 30.4728C25.7395 30.8221 25.8479 31.2404 25.8479 31.7542H27.8479C27.8479 30.9472 27.6743 30.1907 27.3016 29.5112L25.548 30.4728ZM25.8479 31.7542C25.8479 32.2494 25.7385 32.6559 25.5416 33.0005L27.2781 33.9927C27.6653 33.3151 27.8479 32.56 27.8479 31.7542H25.8479ZM25.5406 33.0023C25.3397 33.3556 25.0683 33.6298 24.7123 33.8369L25.7179 35.5657C26.3775 35.182 26.9026 34.6532 27.2792 33.9909L25.5406 33.0023ZM24.7165 33.8345C24.3759 34.0304 23.9737 34.1394 23.4827 34.1394V36.1394C24.286 36.1394 25.0387 35.9564 25.7137 35.5682L24.7165 33.8345ZM34.8192 33.168L34.1121 33.8751L34.8192 34.5823L35.5263 33.8751L34.8192 33.168ZM29.2038 27.5527L28.4967 26.8456L27.7896 27.5527L28.4967 28.2598L29.2038 27.5527ZM29.9605 26.796L30.6676 26.0889L29.9605 25.3818L29.2534 26.0889L29.9605 26.796ZM35.5759 32.4114L36.283 33.1185L36.9901 32.4114L36.283 31.7043L35.5759 32.4114ZM29.9605 33.168L29.2534 33.8751L29.9605 34.5823L30.6676 33.8751L29.9605 33.168ZM29.2038 32.4114L28.4967 31.7043L27.7896 32.4114L28.4967 33.1185L29.2038 32.4114ZM34.8192 26.796L35.5263 26.0889L34.8192 25.3818L34.1121 26.0889L34.8192 26.796ZM35.5759 27.5527L36.283 28.2598L36.9901 27.5527L36.283 26.8456L35.5759 27.5527ZM35.5263 32.4609L29.911 26.8456L28.4967 28.2598L34.1121 33.8751L35.5263 32.4609ZM29.911 28.2598L30.6676 27.5031L29.2534 26.0889L28.4967 26.8456L29.911 28.2598ZM29.2534 27.5031L34.8688 33.1185L36.283 31.7043L30.6676 26.0889L29.2534 27.5031ZM34.8688 31.7043L34.1121 32.4609L35.5263 33.8751L36.283 33.1185L34.8688 31.7043ZM30.6676 32.4609L29.911 31.7043L28.4967 33.1185L29.2534 33.8751L30.6676 32.4609ZM29.911 33.1185L35.5263 27.5031L34.1121 26.0889L28.4967 31.7043L29.911 33.1185ZM34.1121 27.5031L34.8688 28.2598L36.283 26.8456L35.5263 26.0889L34.1121 27.5031ZM34.8688 26.8456L29.2534 32.4609L30.6676 33.8751L36.283 28.2598L34.8688 26.8456ZM41.4513 35.1394L41.4355 36.1393L41.4417 36.1393L41.4513 35.1394ZM40.1968 34.9004L39.8539 35.8398L39.8539 35.8398L40.1968 34.9004ZM39.0519 34.1288L38.3252 34.8158L38.3284 34.8191L39.0519 34.1288ZM38.2205 32.6503L37.2723 32.9681L37.2728 32.9696L38.2205 32.6503ZM38.1608 27.9012L39.1325 28.1372L39.1328 28.1361L38.1608 27.9012ZM38.8975 26.1339L39.7269 26.6926L39.7287 26.6899L38.8975 26.1339ZM40.0624 25.0387L39.5849 24.1601L39.5822 24.1616L40.0624 25.0387ZM43.1339 25.0089L42.6761 25.898L42.6841 25.902L43.1339 25.0089ZM44.2291 25.9547L45.0496 25.3831L45.0496 25.3831L44.2291 25.9547ZM44.7767 27.3536V28.3536H45.9463L45.7646 27.1982L44.7767 27.3536ZM43.5621 27.3536L42.5911 27.5928L42.7785 28.3536H43.5621V27.3536ZM42.9049 26.2136L42.2245 26.9464L42.2245 26.9464L42.9049 26.2136ZM39.7438 26.791L38.9099 26.2391L38.9081 26.2419L39.7438 26.791ZM39.0618 29.6833L38.0618 29.6807L38.0591 30.6833H39.0618V29.6833ZM39.1415 29.6833V30.6833H39.6802L39.9765 30.2335L39.1415 29.6833ZM39.8036 28.9615L40.4182 29.7503L40.4196 29.7492L39.8036 28.9615ZM40.6598 28.4936L40.3286 27.55L40.6598 28.4936ZM43.2534 28.7674L42.7372 29.6238L42.7415 29.6264L43.2534 28.7674ZM44.4183 29.9671L43.5501 30.4632L43.5515 30.4657L44.4183 29.9671ZM44.4332 33.4468L45.3126 33.9229L45.3139 33.9206L44.4332 33.4468ZM43.2435 34.6914L43.7588 35.5484L43.7604 35.5474L43.2435 34.6914ZM42.5764 33.7306L42.0471 32.8821L42.0434 32.8845L42.5764 33.7306ZM43.3679 32.8893L42.4941 32.4029L42.4907 32.4093L43.3679 32.8893ZM43.3779 30.5645L42.4955 31.0351L42.5009 31.0451L43.3779 30.5645ZM42.6063 29.7331L42.0716 30.5782L42.0755 30.5806L42.6063 29.7331ZM40.61 29.6136L41.0213 30.5252L41.0305 30.521L40.61 29.6136ZM39.8932 30.1214L39.1695 29.4312L39.164 29.4371L39.8932 30.1214ZM39.4153 30.8632L40.3367 31.2517L40.3383 31.2478L39.4153 30.8632ZM39.5248 32.8694L38.644 33.343L38.6475 33.3494L39.5248 32.8694ZM40.3113 33.7206L39.7663 34.5591L39.7702 34.5615L40.3113 33.7206ZM41.4672 34.1395C41.1677 34.1348 40.8598 34.0779 40.5398 33.9611L39.8539 35.8398C40.3702 36.0283 40.8987 36.1307 41.4355 36.1393L41.4672 34.1395ZM40.5398 33.9611C40.2828 33.8673 40.0277 33.7029 39.7754 33.4385L38.3284 34.8191C38.7664 35.2782 39.2745 35.6283 39.8539 35.8398L40.5398 33.9611ZM39.7785 33.4418C39.5581 33.2087 39.3445 32.8544 39.1682 32.331L37.2728 32.9696C37.5147 33.6874 37.8553 34.3188 38.3252 34.8158L39.7785 33.4418ZM39.1687 32.3326C39.0053 31.8449 38.9069 31.1778 38.9069 30.3006H36.9069C36.9069 31.3085 37.0176 32.2079 37.2723 32.9681L39.1687 32.3326ZM38.9069 30.3006C38.9069 29.458 38.9861 28.74 39.1325 28.1372L37.189 27.6652C36.9969 28.4562 36.9069 29.3379 36.9069 30.3006H38.9069ZM39.1328 28.1361C39.2808 27.5236 39.4857 27.0507 39.7269 26.6926L38.0682 25.5752C37.6655 26.1729 37.3792 26.8782 37.1888 27.6662L39.1328 28.1361ZM39.7287 26.6899C39.9718 26.3266 40.2449 26.0789 40.5426 25.9159L39.5822 24.1616C38.9706 24.4964 38.4671 24.9788 38.0664 25.5779L39.7287 26.6899ZM40.5399 25.9174C40.8369 25.756 41.186 25.6654 41.6106 25.6654V23.6654C40.887 23.6654 40.2039 23.8237 39.5849 24.1601L40.5399 25.9174ZM41.6106 25.6654C42.0448 25.6654 42.3919 25.7515 42.6761 25.8979L43.5917 24.1198C42.9866 23.8082 42.3181 23.6654 41.6106 23.6654V25.6654ZM42.6841 25.902C42.9864 26.0542 43.2231 26.2601 43.4086 26.5264L45.0496 25.3831C44.671 24.8396 44.1776 24.4149 43.5838 24.1158L42.6841 25.902ZM43.4086 26.5264C43.5971 26.7969 43.7275 27.1183 43.7889 27.5089L45.7646 27.1982C45.6601 26.5335 45.4253 25.9223 45.0496 25.3831L43.4086 26.5264ZM44.7767 26.3536H43.5621V28.3536H44.7767V26.3536ZM44.533 27.1143C44.3766 26.4795 44.0627 25.9239 43.5854 25.4808L42.2245 26.9464C42.3977 27.1072 42.5218 27.3117 42.5911 27.5928L44.533 27.1143ZM43.5854 25.4808C43.0377 24.9722 42.3444 24.7606 41.6106 24.7606V26.7606C41.9521 26.7606 42.1217 26.8509 42.2245 26.9464L43.5854 25.4808ZM41.6106 24.7606C40.4683 24.7606 39.5402 25.2868 38.9099 26.2391L40.5777 27.3429C40.8568 26.9214 41.1732 26.7606 41.6106 26.7606V24.7606ZM38.9081 26.2419C38.3086 27.1543 38.0654 28.3377 38.0618 29.6807L40.0618 29.686C40.0649 28.5465 40.2763 27.8017 40.5796 27.3401L38.9081 26.2419ZM39.0618 30.6833H39.1415V28.6833H39.0618V30.6833ZM39.9765 30.2335C40.105 30.0385 40.2523 29.8796 40.4182 29.7503L39.1889 28.1727C38.8437 28.4417 38.5496 28.764 38.3064 29.1332L39.9765 30.2335ZM40.4196 29.7492C40.5921 29.6143 40.7812 29.5108 40.991 29.4371L40.3286 27.55C39.9145 27.6954 39.5327 27.9038 39.1875 28.1738L40.4196 29.7492ZM40.991 29.4371C41.1909 29.3669 41.4087 29.3293 41.6505 29.3293V27.3293C41.1953 27.3293 40.7526 27.4012 40.3286 27.55L40.991 29.4371ZM41.6505 29.3293C42.0588 29.3293 42.4137 29.4288 42.7372 29.6238L43.7696 27.9109C43.1241 27.5218 42.4103 27.3293 41.6505 27.3293V29.3293ZM42.7415 29.6264C43.0714 29.823 43.3396 30.095 43.5501 30.4632L45.2865 29.471C44.9129 28.817 44.4045 28.2892 43.7653 27.9083L42.7415 29.6264ZM43.5515 30.4657C43.746 30.8039 43.8564 31.2105 43.8564 31.7144H45.8564C45.8564 30.9041 45.6747 30.1458 45.2851 29.4685L43.5515 30.4657ZM43.8564 31.7144C43.8564 32.1897 43.7517 32.6029 43.5526 32.9731L45.3139 33.9206C45.679 33.242 45.8564 32.5003 45.8564 31.7144H43.8564ZM43.5538 32.9707C43.3573 33.3338 43.0863 33.618 42.7265 33.8353L43.7604 35.5474C44.4228 35.1474 44.945 34.6019 45.3126 33.9229L43.5538 32.9707ZM42.7281 33.8344C42.4027 34.0301 41.9931 34.1446 41.461 34.1394L41.4417 36.1393C42.2835 36.1475 43.0687 35.9633 43.7588 35.5484L42.7281 33.8344ZM41.4513 35.0442C42.0451 35.0442 42.6073 34.893 43.1094 34.5767L42.0434 32.8845C41.8818 32.9863 41.6939 33.0442 41.4513 33.0442V35.0442ZM43.1056 34.579C43.5888 34.2776 43.9715 33.8694 44.2452 33.3693L42.4907 32.4093C42.3793 32.6128 42.2343 32.7653 42.0471 32.8821L43.1056 34.579ZM44.2417 33.3756C44.5262 32.8645 44.6616 32.3035 44.6616 31.7144H42.6616C42.6616 31.9882 42.6013 32.2105 42.4941 32.4029L44.2417 33.3756ZM44.6616 31.7144C44.6616 31.1372 44.5304 30.5867 44.2548 30.0838L42.5009 31.0451C42.6037 31.2325 42.6616 31.4487 42.6616 31.7144H44.6616ZM44.2602 30.0939C43.9937 29.5942 43.6166 29.1859 43.137 28.8856L42.0755 30.5806C42.253 30.6918 42.3903 30.8378 42.4955 31.0351L44.2602 30.0939ZM43.1409 28.888C42.6419 28.5723 42.0816 28.4245 41.4912 28.4245V30.4245C41.7371 30.4245 41.9201 30.4824 42.0716 30.5782L43.1409 28.888ZM41.4912 28.4245C41.0382 28.4245 40.6002 28.516 40.1896 28.7063L41.0305 30.521C41.1641 30.459 41.3135 30.4245 41.4912 30.4245V28.4245ZM40.1987 28.7021C39.8094 28.8778 39.4643 29.1222 39.1696 29.4312L40.6168 30.8116C40.7335 30.6892 40.8664 30.5951 41.0213 30.5252L40.1987 28.7021ZM39.164 29.4371C38.8777 29.7421 38.6535 30.0914 38.4922 30.4785L40.3383 31.2478C40.4093 31.0774 40.5037 30.9321 40.6224 30.8057L39.164 29.4371ZM38.4938 30.4746C38.3247 30.8757 38.241 31.2985 38.241 31.7343H40.241C40.241 31.5596 40.2735 31.4015 40.3367 31.2517L38.4938 30.4746ZM38.241 31.7343C38.241 32.3022 38.3755 32.8435 38.644 33.343L40.4055 32.3957C40.2958 32.1916 40.241 31.9763 40.241 31.7343H38.241ZM38.6475 33.3494C38.9183 33.8443 39.2939 34.252 39.7663 34.5591L40.8563 32.8822C40.665 32.7578 40.5162 32.598 40.402 32.3893L38.6475 33.3494ZM39.7702 34.5615C40.2775 34.888 40.8478 35.0442 41.4513 35.0442V33.0442C41.2052 33.0442 41.0156 32.9846 40.8525 32.8797L39.7702 34.5615Z" fill="#2F5764" mask="url(#path-7-outside-1_84_1882)"/>
<defs>
<linearGradient id="paint0_linear_84_1882" x1="3.72513" y1="32.3054" x2="33.5154" y2="49.1976" gradientUnits="userSpaceOnUse">
<stop stop-color="#4A4A4A"/>
<stop offset="1" stop-color="#303030"/>
</linearGradient>
</defs>
</svg>
