<svg width="64" height="64" viewBox="0 0 64 64" fill="none" xmlns="http://www.w3.org/2000/svg">
<path d="M4.4006 33.9298C3.80774 33.582 3.47546 33.1136 3.47547 32.6257L3.47547 30.5016C3.47547 29.9566 3.88975 29.439 4.60873 29.0857L30.1348 16.5442C31.3579 15.9433 33.1609 15.9544 34.3614 16.5703L60.0608 29.7535C60.7487 30.1064 61.1422 30.6122 61.1422 31.1434V32.5436C61.1422 33.0309 60.8108 33.4987 60.2194 33.8464L34.5631 48.9278C33.3018 49.6692 31.2326 49.6699 29.9699 48.9292L4.4006 33.9298Z" fill="url(#paint0_linear_84_1403)"/>
<rect width="34.7831" height="34.7831" rx="2.62954" transform="matrix(0.866044 -0.499967 0.866044 0.499967 2.14404 30.3906)" fill="white"/>
<rect width="10.8697" height="10.8697" transform="matrix(0.866044 -0.499967 0.866044 0.499967 12.2639 30.3906)" fill="#D9D9D9"/>
<rect width="10.8697" height="10.8697" transform="matrix(0.866044 -0.499967 0.866044 0.499967 22.8542 24.2769)" fill="#D9D9D9"/>
<rect width="10.8697" height="10.8697" transform="matrix(0.866044 -0.499967 0.866044 0.499967 22.8542 36.5044)" fill="#D9D9D9"/>
<rect width="10.8697" height="10.8697" transform="matrix(0.866044 -0.499967 0.866044 0.499967 33.4446 30.3906)" fill="#D9D9D9"/>
<mask id="path-7-outside-1_84_1403" maskUnits="userSpaceOnUse" x="18" y="23" width="28" height="13" fill="black">
<rect fill="white" x="18" y="23" width="28" height="13"/>
<path d="M19.2018 32.9092V31.8936L23.6821 24.8048H24.4189V26.3779H23.9211L20.536 31.7343V31.814H26.5695V32.9092H19.2018ZM24.0007 35V32.6005V32.1276V24.8048H25.1756V35H24.0007ZM34.4287 33.168L28.8134 27.5527L29.57 26.796L35.1854 32.4114L34.4287 33.168ZM29.57 33.168L28.8134 32.4114L34.4287 26.796L35.1854 27.5527L29.57 33.168ZM37.4368 32.9092V31.8936L41.9171 24.8048H42.6539V26.3779H42.156L38.7709 31.7343V31.814H44.8044V32.9092H37.4368ZM42.2357 35V32.6005V32.1276V24.8048H43.4105V35H42.2357Z"/>
</mask>
<path d="M19.2018 32.9092V31.8936L23.6821 24.8048H24.4189V26.3779H23.9211L20.536 31.7343V31.814H26.5695V32.9092H19.2018ZM24.0007 35V32.6005V32.1276V24.8048H25.1756V35H24.0007ZM34.4287 33.168L28.8134 27.5527L29.57 26.796L35.1854 32.4114L34.4287 33.168ZM29.57 33.168L28.8134 32.4114L34.4287 26.796L35.1854 27.5527L29.57 33.168ZM37.4368 32.9092V31.8936L41.9171 24.8048H42.6539V26.3779H42.156L38.7709 31.7343V31.814H44.8044V32.9092H37.4368ZM42.2357 35V32.6005V32.1276V24.8048H43.4105V35H42.2357Z" fill="#00C1FF"/>
<path d="M19.2018 32.9092H18.2018V33.9092H19.2018V32.9092ZM19.2018 31.8936L18.3565 31.3594L18.2018 31.6041V31.8936H19.2018ZM23.6821 24.8048V23.8048H23.1312L22.8368 24.2705L23.6821 24.8048ZM24.4189 24.8048H25.4189V23.8048H24.4189V24.8048ZM24.4189 26.3779V27.3779H25.4189V26.3779H24.4189ZM23.9211 26.3779V25.3779H23.3701L23.0758 25.8436L23.9211 26.3779ZM20.536 31.7343L19.6906 31.2001L19.536 31.4448V31.7343H20.536ZM20.536 31.814H19.536V32.814H20.536V31.814ZM26.5695 31.814H27.5695V30.814H26.5695V31.814ZM26.5695 32.9092V33.9092H27.5695V32.9092H26.5695ZM24.0007 35H23.0007V36H24.0007V35ZM24.0007 24.8048V23.8048H23.0007V24.8048H24.0007ZM25.1756 24.8048H26.1756V23.8048H25.1756V24.8048ZM25.1756 35V36H26.1756V35H25.1756ZM20.2018 32.9092V31.8936H18.2018V32.9092H20.2018ZM20.0471 32.4279L24.5275 25.339L22.8368 24.2705L18.3565 31.3594L20.0471 32.4279ZM23.6821 25.8048H24.4189V23.8048H23.6821V25.8048ZM23.4189 24.8048V26.3779H25.4189V24.8048H23.4189ZM24.4189 25.3779H23.9211V27.3779H24.4189V25.3779ZM23.0758 25.8436L19.6906 31.2001L21.3813 32.2686L24.7664 26.9121L23.0758 25.8436ZM19.536 31.7343V31.814H21.536V31.7343H19.536ZM20.536 32.814H26.5695V30.814H20.536V32.814ZM25.5695 31.814V32.9092H27.5695V31.814H25.5695ZM26.5695 31.9092H19.2018V33.9092H26.5695V31.9092ZM25.0007 35V32.6005H23.0007V35H25.0007ZM25.0007 32.6005V32.1276H23.0007V32.6005H25.0007ZM25.0007 32.1276V24.8048H23.0007V32.1276H25.0007ZM24.0007 25.8048H25.1756V23.8048H24.0007V25.8048ZM24.1756 24.8048V35H26.1756V24.8048H24.1756ZM25.1756 34H24.0007V36H25.1756V34ZM34.4287 33.168L33.7216 33.8751L34.4287 34.5823L35.1358 33.8751L34.4287 33.168ZM28.8134 27.5527L28.1063 26.8456L27.3992 27.5527L28.1063 28.2598L28.8134 27.5527ZM29.57 26.796L30.2771 26.0889L29.57 25.3818L28.8629 26.0889L29.57 26.796ZM35.1854 32.4114L35.8925 33.1185L36.5996 32.4114L35.8925 31.7043L35.1854 32.4114ZM29.57 33.168L28.8629 33.8751L29.57 34.5823L30.2771 33.8751L29.57 33.168ZM28.8134 32.4114L28.1063 31.7043L27.3992 32.4114L28.1063 33.1185L28.8134 32.4114ZM34.4287 26.796L35.1358 26.0889L34.4287 25.3818L33.7216 26.0889L34.4287 26.796ZM35.1854 27.5527L35.8925 28.2598L36.5996 27.5527L35.8925 26.8456L35.1854 27.5527ZM35.1358 32.4609L29.5205 26.8456L28.1063 28.2598L33.7216 33.8751L35.1358 32.4609ZM29.5205 28.2598L30.2771 27.5031L28.8629 26.0889L28.1063 26.8456L29.5205 28.2598ZM28.8629 27.5031L34.4783 33.1185L35.8925 31.7043L30.2771 26.0889L28.8629 27.5031ZM34.4783 31.7043L33.7216 32.4609L35.1358 33.8751L35.8925 33.1185L34.4783 31.7043ZM30.2771 32.4609L29.5205 31.7043L28.1063 33.1185L28.8629 33.8751L30.2771 32.4609ZM29.5205 33.1185L35.1358 27.5031L33.7216 26.0889L28.1063 31.7043L29.5205 33.1185ZM33.7216 27.5031L34.4783 28.2598L35.8925 26.8456L35.1358 26.0889L33.7216 27.5031ZM34.4783 26.8456L28.8629 32.4609L30.2771 33.8751L35.8925 28.2598L34.4783 26.8456ZM37.4368 32.9092H36.4368V33.9092H37.4368V32.9092ZM37.4368 31.8936L36.5914 31.3594L36.4368 31.6041V31.8936H37.4368ZM41.9171 24.8048V23.8048H41.3661L41.0718 24.2705L41.9171 24.8048ZM42.6539 24.8048H43.6539V23.8048H42.6539V24.8048ZM42.6539 26.3779V27.3779H43.6539V26.3779H42.6539ZM42.156 26.3779V25.3779H41.6051L41.3107 25.8436L42.156 26.3779ZM38.7709 31.7343L37.9256 31.2001L37.7709 31.4448V31.7343H38.7709ZM38.7709 31.814H37.7709V32.814H38.7709V31.814ZM44.8044 31.814H45.8044V30.814H44.8044V31.814ZM44.8044 32.9092V33.9092H45.8044V32.9092H44.8044ZM42.2357 35H41.2357V36H42.2357V35ZM42.2357 24.8048V23.8048H41.2357V24.8048H42.2357ZM43.4105 24.8048H44.4105V23.8048H43.4105V24.8048ZM43.4105 35V36H44.4105V35H43.4105ZM38.4368 32.9092V31.8936H36.4368V32.9092H38.4368ZM38.2821 32.4279L42.7624 25.339L41.0718 24.2705L36.5914 31.3594L38.2821 32.4279ZM41.9171 25.8048H42.6539V23.8048H41.9171V25.8048ZM41.6539 24.8048V26.3779H43.6539V24.8048H41.6539ZM42.6539 25.3779H42.156V27.3779H42.6539V25.3779ZM41.3107 25.8436L37.9256 31.2001L39.6162 32.2686L43.0014 26.9121L41.3107 25.8436ZM37.7709 31.7343V31.814H39.7709V31.7343H37.7709ZM38.7709 32.814H44.8044V30.814H38.7709V32.814ZM43.8044 31.814V32.9092H45.8044V31.814H43.8044ZM44.8044 31.9092H37.4368V33.9092H44.8044V31.9092ZM43.2357 35V32.6005H41.2357V35H43.2357ZM43.2357 32.6005V32.1276H41.2357V32.6005H43.2357ZM43.2357 32.1276V24.8048H41.2357V32.1276H43.2357ZM42.2357 25.8048H43.4105V23.8048H42.2357V25.8048ZM42.4105 24.8048V35H44.4105V24.8048H42.4105ZM43.4105 34H42.2357V36H43.4105V34Z" fill="#2F5764" mask="url(#path-7-outside-1_84_1403)"/>
<defs>
<linearGradient id="paint0_linear_84_1403" x1="3.72513" y1="32.3054" x2="33.5154" y2="49.1976" gradientUnits="userSpaceOnUse">
<stop stop-color="#4A4A4A"/>
<stop offset="1" stop-color="#303030"/>
</linearGradient>
</defs>
</svg>
