<svg width="64" height="64" viewBox="0 0 64 64" fill="none" xmlns="http://www.w3.org/2000/svg">
<path d="M4.4006 33.9298C3.80774 33.582 3.47546 33.1136 3.47547 32.6257L3.47547 30.5016C3.47547 29.9566 3.88975 29.439 4.60873 29.0857L30.1348 16.5442C31.3579 15.9433 33.1609 15.9544 34.3614 16.5703L60.0608 29.7535C60.7487 30.1064 61.1422 30.6122 61.1422 31.1434V32.5436C61.1422 33.0309 60.8108 33.4987 60.2194 33.8464L34.5631 48.9278C33.3018 49.6692 31.2326 49.6699 29.9699 48.9292L4.4006 33.9298Z" fill="url(#paint0_linear_84_1341)"/>
<rect width="34.7831" height="34.7831" rx="2.62954" transform="matrix(0.866044 -0.499967 0.866044 0.499967 2.14404 30.3906)" fill="white"/>
<rect width="10.8697" height="10.8697" transform="matrix(0.866044 -0.499967 0.866044 0.499967 12.2639 30.3906)" fill="#D9D9D9"/>
<rect width="10.8697" height="10.8697" transform="matrix(0.866044 -0.499967 0.866044 0.499967 22.8542 24.2769)" fill="#D9D9D9"/>
<rect width="10.8697" height="10.8697" transform="matrix(0.866044 -0.499967 0.866044 0.499967 22.8542 36.5044)" fill="#D9D9D9"/>
<rect width="10.8697" height="10.8697" transform="matrix(0.866044 -0.499967 0.866044 0.499967 33.4446 30.3906)" fill="#D9D9D9"/>
<mask id="path-7-outside-1_84_1341" maskUnits="userSpaceOnUse" x="19" y="23" width="27" height="14" fill="black">
<rect fill="white" x="19" y="23" width="27" height="14"/>
<path d="M23.6526 35.1394C22.9955 35.1394 22.4097 35.0266 21.8953 34.8009C21.3842 34.5752 20.9777 34.2616 20.6757 33.86C20.377 33.4551 20.2143 32.9855 20.1878 32.4512H21.4423C21.4688 32.7797 21.5817 33.0635 21.7808 33.3025C21.9799 33.5381 22.2405 33.7206 22.5624 33.85C22.8843 33.9795 23.2411 34.0442 23.6327 34.0442C24.0708 34.0442 24.459 33.9679 24.7976 33.8152C25.1361 33.6625 25.4016 33.4501 25.5941 33.178C25.7866 32.9059 25.8828 32.5906 25.8828 32.2322C25.8828 31.8571 25.7899 31.5269 25.604 31.2415C25.4182 30.9528 25.146 30.7271 24.7876 30.5645C24.4292 30.4019 23.9911 30.3205 23.4734 30.3205H22.657V29.2253H23.4734C23.8783 29.2253 24.2334 29.1523 24.5387 29.0063C24.8473 28.8603 25.088 28.6545 25.2605 28.389C25.4364 28.1235 25.5244 27.8116 25.5244 27.4531C25.5244 27.108 25.448 26.8076 25.2954 26.5521C25.1427 26.2965 24.927 26.0974 24.6482 25.9547C24.3728 25.812 24.0475 25.7406 23.6725 25.7406C23.3207 25.7406 22.9888 25.8054 22.6769 25.9348C22.3682 26.0609 22.116 26.2451 21.9202 26.4874C21.7244 26.7263 21.6182 27.0151 21.6016 27.3536H20.4068C20.4268 26.8192 20.5877 26.3513 20.8897 25.9497C21.1917 25.5448 21.5867 25.2296 22.0745 25.0039C22.5657 24.7782 23.105 24.6654 23.6924 24.6654C24.323 24.6654 24.8639 24.7931 25.3153 25.0487C25.7666 25.3009 26.1135 25.6344 26.3557 26.0493C26.598 26.4641 26.7191 26.9122 26.7191 27.3934C26.7191 27.9675 26.5681 28.4571 26.2661 28.8619C25.9674 29.2668 25.5609 29.5473 25.0465 29.7033V29.7829C25.6903 29.8891 26.1931 30.1629 26.5548 30.6043C26.9166 31.0424 27.0975 31.585 27.0975 32.2322C27.0975 32.7864 26.9465 33.2842 26.6445 33.7256C26.3458 34.1637 25.9376 34.5088 25.4198 34.761C24.9021 35.0133 24.313 35.1394 23.6526 35.1394ZM35.1272 33.168L29.5119 27.5527L30.2685 26.796L35.8839 32.4114L35.1272 33.168ZM30.2685 33.168L29.5119 32.4114L35.1272 26.796L35.8839 27.5527L30.2685 33.168ZM41.5602 35.1394C40.9761 35.1394 40.4501 35.0232 39.9822 34.7909C39.5142 34.5586 39.1392 34.24 38.8571 33.8351C38.575 33.4302 38.4207 32.9689 38.3941 32.4512H39.5889C39.6353 32.9125 39.8444 33.2942 40.2161 33.5962C40.5911 33.8949 41.0392 34.0442 41.5602 34.0442C41.9784 34.0442 42.3501 33.9463 42.6753 33.7505C43.0039 33.5547 43.2611 33.2859 43.4469 32.944C43.6361 32.5989 43.7307 32.2089 43.7307 31.7742C43.7307 31.3294 43.6328 30.9329 43.437 30.5844C43.2445 30.2326 42.979 29.9555 42.6405 29.753C42.302 29.5506 41.9153 29.4477 41.4806 29.4444C41.1686 29.4411 40.8483 29.4892 40.5198 29.5888C40.1912 29.685 39.9208 29.8095 39.7084 29.9621L38.5534 29.8227L39.1707 24.8048H44.4675V25.8999H40.2062L39.8477 28.9067H39.9075C40.1166 28.7408 40.3787 28.6031 40.694 28.4936C41.0093 28.384 41.3379 28.3293 41.6797 28.3293C42.3036 28.3293 42.8595 28.4786 43.3474 28.7773C43.8386 29.0727 44.2235 29.4776 44.5023 29.992C44.7844 30.5064 44.9255 31.0938 44.9255 31.7542C44.9255 32.4047 44.7794 32.9855 44.4874 33.4966C44.1986 34.0044 43.8004 34.4059 43.2926 34.7013C42.7848 34.9934 42.2074 35.1394 41.5602 35.1394Z"/>
</mask>
<path d="M23.6526 35.1394C22.9955 35.1394 22.4097 35.0266 21.8953 34.8009C21.3842 34.5752 20.9777 34.2616 20.6757 33.86C20.377 33.4551 20.2143 32.9855 20.1878 32.4512H21.4423C21.4688 32.7797 21.5817 33.0635 21.7808 33.3025C21.9799 33.5381 22.2405 33.7206 22.5624 33.85C22.8843 33.9795 23.2411 34.0442 23.6327 34.0442C24.0708 34.0442 24.459 33.9679 24.7976 33.8152C25.1361 33.6625 25.4016 33.4501 25.5941 33.178C25.7866 32.9059 25.8828 32.5906 25.8828 32.2322C25.8828 31.8571 25.7899 31.5269 25.604 31.2415C25.4182 30.9528 25.146 30.7271 24.7876 30.5645C24.4292 30.4019 23.9911 30.3205 23.4734 30.3205H22.657V29.2253H23.4734C23.8783 29.2253 24.2334 29.1523 24.5387 29.0063C24.8473 28.8603 25.088 28.6545 25.2605 28.389C25.4364 28.1235 25.5244 27.8116 25.5244 27.4531C25.5244 27.108 25.448 26.8076 25.2954 26.5521C25.1427 26.2965 24.927 26.0974 24.6482 25.9547C24.3728 25.812 24.0475 25.7406 23.6725 25.7406C23.3207 25.7406 22.9888 25.8054 22.6769 25.9348C22.3682 26.0609 22.116 26.2451 21.9202 26.4874C21.7244 26.7263 21.6182 27.0151 21.6016 27.3536H20.4068C20.4268 26.8192 20.5877 26.3513 20.8897 25.9497C21.1917 25.5448 21.5867 25.2296 22.0745 25.0039C22.5657 24.7782 23.105 24.6654 23.6924 24.6654C24.323 24.6654 24.8639 24.7931 25.3153 25.0487C25.7666 25.3009 26.1135 25.6344 26.3557 26.0493C26.598 26.4641 26.7191 26.9122 26.7191 27.3934C26.7191 27.9675 26.5681 28.4571 26.2661 28.8619C25.9674 29.2668 25.5609 29.5473 25.0465 29.7033V29.7829C25.6903 29.8891 26.1931 30.1629 26.5548 30.6043C26.9166 31.0424 27.0975 31.585 27.0975 32.2322C27.0975 32.7864 26.9465 33.2842 26.6445 33.7256C26.3458 34.1637 25.9376 34.5088 25.4198 34.761C24.9021 35.0133 24.313 35.1394 23.6526 35.1394ZM35.1272 33.168L29.5119 27.5527L30.2685 26.796L35.8839 32.4114L35.1272 33.168ZM30.2685 33.168L29.5119 32.4114L35.1272 26.796L35.8839 27.5527L30.2685 33.168ZM41.5602 35.1394C40.9761 35.1394 40.4501 35.0232 39.9822 34.7909C39.5142 34.5586 39.1392 34.24 38.8571 33.8351C38.575 33.4302 38.4207 32.9689 38.3941 32.4512H39.5889C39.6353 32.9125 39.8444 33.2942 40.2161 33.5962C40.5911 33.8949 41.0392 34.0442 41.5602 34.0442C41.9784 34.0442 42.3501 33.9463 42.6753 33.7505C43.0039 33.5547 43.2611 33.2859 43.4469 32.944C43.6361 32.5989 43.7307 32.2089 43.7307 31.7742C43.7307 31.3294 43.6328 30.9329 43.437 30.5844C43.2445 30.2326 42.979 29.9555 42.6405 29.753C42.302 29.5506 41.9153 29.4477 41.4806 29.4444C41.1686 29.4411 40.8483 29.4892 40.5198 29.5888C40.1912 29.685 39.9208 29.8095 39.7084 29.9621L38.5534 29.8227L39.1707 24.8048H44.4675V25.8999H40.2062L39.8477 28.9067H39.9075C40.1166 28.7408 40.3787 28.6031 40.694 28.4936C41.0093 28.384 41.3379 28.3293 41.6797 28.3293C42.3036 28.3293 42.8595 28.4786 43.3474 28.7773C43.8386 29.0727 44.2235 29.4776 44.5023 29.992C44.7844 30.5064 44.9255 31.0938 44.9255 31.7542C44.9255 32.4047 44.7794 32.9855 44.4874 33.4966C44.1986 34.0044 43.8004 34.4059 43.2926 34.7013C42.7848 34.9934 42.2074 35.1394 41.5602 35.1394Z" fill="#00C1FF"/>
<path d="M21.8953 34.8009L21.4914 35.7157L21.4936 35.7166L21.8953 34.8009ZM20.6757 33.86L19.8709 34.4537L19.8765 34.4611L20.6757 33.86ZM20.1878 32.4512V31.4512H19.1369L19.189 32.5008L20.1878 32.4512ZM21.4423 32.4512L22.439 32.3706L22.3647 31.4512H21.4423V32.4512ZM21.7808 33.3025L21.0126 33.9427L21.017 33.9479L21.7808 33.3025ZM22.5624 33.85L22.1893 34.7779L22.1893 34.7779L22.5624 33.85ZM25.5941 33.178L24.7777 32.6005L24.7777 32.6005L25.5941 33.178ZM25.604 31.2415L24.7631 31.7828L24.766 31.7872L25.604 31.2415ZM24.7876 30.5645L24.3744 31.4751L24.3744 31.4751L24.7876 30.5645ZM22.657 30.3205H21.657V31.3205H22.657V30.3205ZM22.657 29.2253V28.2253H21.657V29.2253H22.657ZM24.5387 29.0063L24.111 28.1024L24.1072 28.1042L24.5387 29.0063ZM25.2605 28.389L24.4268 27.8367L24.4221 27.844L25.2605 28.389ZM25.2954 26.5521L26.1539 26.0392L26.1539 26.0392L25.2954 26.5521ZM24.6482 25.9547L24.1882 26.8426L24.1925 26.8449L24.6482 25.9547ZM22.6769 25.9348L23.0551 26.8605L23.0601 26.8585L22.6769 25.9348ZM21.9202 26.4874L22.6937 27.1212L22.6979 27.116L21.9202 26.4874ZM21.6016 27.3536V28.3536H22.5538L22.6004 27.4025L21.6016 27.3536ZM20.4068 27.3536L19.4075 27.3163L19.3689 28.3536H20.4068V27.3536ZM20.8897 25.9497L21.6889 26.5508L21.6913 26.5476L20.8897 25.9497ZM22.0745 25.0039L21.657 24.0952L21.6547 24.0963L22.0745 25.0039ZM25.3153 25.0487L24.8226 25.9189L24.8275 25.9216L25.3153 25.0487ZM26.3557 26.0493L25.4922 26.5536L25.4922 26.5536L26.3557 26.0493ZM26.2661 28.8619L25.4645 28.264L25.4614 28.2683L26.2661 28.8619ZM25.0465 29.7033L24.7563 28.7463L24.0465 28.9615V29.7033H25.0465ZM25.0465 29.7829H24.0465V30.6315L24.8837 30.7696L25.0465 29.7829ZM26.5548 30.6043L25.7814 31.2382L25.7838 31.241L26.5548 30.6043ZM26.6445 33.7256L25.8191 33.1609L25.8182 33.1623L26.6445 33.7256ZM25.4198 34.761L25.8578 35.66L25.8578 35.66L25.4198 34.761ZM23.6526 34.1394C23.1105 34.1394 22.6651 34.0466 22.2971 33.8851L21.4936 35.7166C22.1543 36.0065 22.8804 36.1394 23.6526 36.1394V34.1394ZM22.2992 33.8861C21.9267 33.7216 21.663 33.5091 21.4749 33.2589L19.8765 34.4611C20.2924 35.0141 20.8417 35.4288 21.4914 35.7157L22.2992 33.8861ZM21.4804 33.2664C21.306 33.03 21.204 32.7525 21.1866 32.4016L19.189 32.5008C19.2247 33.2186 19.4479 33.8802 19.8709 34.4537L21.4804 33.2664ZM20.1878 33.4512H21.4423V31.4512H20.1878V33.4512ZM20.4455 32.5317C20.4877 33.0529 20.6733 33.5354 21.0126 33.9426L22.549 32.6623C22.4901 32.5916 22.45 32.5066 22.439 32.3706L20.4455 32.5317ZM21.017 33.9479C21.334 34.323 21.7352 34.5953 22.1893 34.7779L22.9354 32.9222C22.7457 32.846 22.6259 32.7532 22.5446 32.657L21.017 33.9479ZM22.1893 34.7779C22.6441 34.9607 23.1296 35.0442 23.6327 35.0442V33.0442C23.3525 33.0442 23.1245 32.9982 22.9354 32.9222L22.1893 34.7779ZM23.6327 35.0442C24.1873 35.0442 24.7198 34.9473 25.2087 34.7268L24.3865 32.9036C24.1983 32.9885 23.9542 33.0442 23.6327 33.0442V35.0442ZM25.2087 34.7268C25.6907 34.5094 26.1037 34.1892 26.4105 33.7555L24.7777 32.6005C24.6995 32.7111 24.5815 32.8157 24.3865 32.9036L25.2087 34.7268ZM26.4105 33.7555C26.7316 33.3015 26.8828 32.781 26.8828 32.2322H24.8828C24.8828 32.4002 24.8415 32.5102 24.7777 32.6005L26.4105 33.7555ZM26.8828 32.2322C26.8828 31.6837 26.7442 31.1598 26.442 30.6958L24.766 31.7872C24.8356 31.894 24.8828 32.0305 24.8828 32.2322H26.8828ZM26.4449 30.7003C26.1404 30.2272 25.7081 29.884 25.2008 29.6538L24.3744 31.4751C24.584 31.5702 24.696 31.6784 24.7632 31.7827L26.4449 30.7003ZM25.2008 29.6538C24.6785 29.4168 24.0907 29.3205 23.4734 29.3205V31.3205C23.8915 31.3205 24.1799 31.3869 24.3744 31.4751L25.2008 29.6538ZM23.4734 29.3205H22.657V31.3205H23.4734V29.3205ZM23.657 30.3205V29.2253H21.657V30.3205H23.657ZM22.657 30.2253H23.4734V28.2253H22.657V30.2253ZM23.4734 30.2253C23.9986 30.2253 24.5062 30.1303 24.9702 29.9084L24.1072 28.1042C23.9605 28.1744 23.7579 28.2253 23.4734 28.2253V30.2253ZM24.9664 29.9102C25.4289 29.6914 25.8175 29.3671 26.099 28.934L24.4221 27.844C24.3584 27.942 24.2658 28.0292 24.111 28.1024L24.9664 29.9102ZM26.0942 28.9413C26.3918 28.492 26.5244 27.9825 26.5244 27.4531H24.5244C24.5244 27.6406 24.481 27.755 24.4269 27.8367L26.0942 28.9413ZM26.5244 27.4531C26.5244 26.9566 26.4131 26.4731 26.1539 26.0392L24.4369 27.0649C24.483 27.1421 24.5244 27.2593 24.5244 27.4531H26.5244ZM26.1539 26.0392C25.8999 25.6141 25.5406 25.2881 25.1039 25.0646L24.1925 26.8449C24.3134 26.9067 24.3856 26.979 24.4369 27.0649L26.1539 26.0392ZM25.1082 25.0668C24.6639 24.8366 24.1745 24.7406 23.6725 24.7406V26.7406C23.9205 26.7406 24.0816 26.7874 24.1882 26.8426L25.1082 25.0668ZM23.6725 24.7406C23.1948 24.7406 22.7321 24.8292 22.2937 25.0111L23.0601 26.8585C23.2455 26.7815 23.4467 26.7406 23.6725 26.7406V24.7406ZM22.2986 25.0091C21.8452 25.1944 21.4517 25.4762 21.1425 25.8588L22.6979 27.116C22.7803 27.014 22.8912 26.9275 23.0551 26.8605L22.2986 25.0091ZM21.1467 25.8535C20.8018 26.2745 20.6288 26.7739 20.6028 27.3046L22.6004 27.4025C22.6076 27.2562 22.647 27.1782 22.6937 27.1212L21.1467 25.8535ZM21.6016 26.3536H20.4068V28.3536H21.6016V26.3536ZM21.4061 27.3908C21.419 27.0466 21.5176 26.7785 21.6889 26.5508L20.0905 25.3487C19.6578 25.9241 19.4345 26.5919 19.4075 27.3163L21.4061 27.3908ZM21.6913 26.5476C21.8874 26.2847 22.1475 26.0719 22.4944 25.9115L21.6547 24.0963C21.0258 24.3872 20.496 24.805 20.0881 25.3518L21.6913 26.5476ZM22.492 25.9126C22.8412 25.7521 23.2364 25.6654 23.6924 25.6654V23.6654C22.9735 23.6654 22.2902 23.8043 21.657 24.0952L22.492 25.9126ZM23.6924 25.6654C24.1874 25.6654 24.5508 25.765 24.8226 25.9189L25.808 24.1785C25.1771 23.8213 24.4586 23.6654 23.6924 23.6654V25.6654ZM24.8275 25.9216C25.1352 26.0936 25.3468 26.3047 25.4922 26.5536L27.2193 25.545C26.8801 24.9642 26.3981 24.5082 25.8031 24.1757L24.8275 25.9216ZM25.4922 26.5536C25.6449 26.8151 25.7191 27.0891 25.7191 27.3934H27.7191C27.7191 26.7353 27.5511 26.1131 27.2193 25.545L25.4922 26.5536ZM25.7191 27.3934C25.7191 27.7828 25.6205 28.055 25.4645 28.264L27.0677 29.4598C27.5158 28.8591 27.7191 28.1522 27.7191 27.3934H25.7191ZM25.4614 28.2683C25.2996 28.4876 25.0795 28.6483 24.7563 28.7463L25.3366 30.6602C26.0422 30.4463 26.6353 30.0461 27.0708 29.4556L25.4614 28.2683ZM24.0465 29.7033V29.7829H26.0465V29.7033H24.0465ZM24.8837 30.7696C25.3245 30.8423 25.5956 31.0115 25.7814 31.2382L27.3283 29.9704C26.7906 29.3143 26.0561 28.9359 25.2092 28.7962L24.8837 30.7696ZM25.7838 31.241C25.9771 31.4752 26.0975 31.7832 26.0975 32.2322H28.0975C28.0975 31.3868 27.8561 30.6095 27.3259 29.9676L25.7838 31.241ZM26.0975 32.2322C26.0975 32.5926 26.003 32.8921 25.8191 33.1609L27.4698 34.2903C27.8899 33.6763 28.0975 32.9802 28.0975 32.2322H26.0975ZM25.8182 33.1623C25.6259 33.4443 25.3571 33.6793 24.9819 33.8621L25.8578 35.66C26.5181 35.3384 27.0656 34.883 27.4707 34.2889L25.8182 33.1623ZM24.9819 33.8621C24.6193 34.0387 24.1836 34.1394 23.6526 34.1394V36.1394C24.4425 36.1394 25.1849 35.9879 25.8578 35.66L24.9819 33.8621ZM35.1272 33.168L34.4201 33.8751L35.1272 34.5823L35.8343 33.8751L35.1272 33.168ZM29.5119 27.5527L28.8048 26.8456L28.0977 27.5527L28.8048 28.2598L29.5119 27.5527ZM30.2685 26.796L30.9757 26.0889L30.2685 25.3818L29.5614 26.0889L30.2685 26.796ZM35.8839 32.4114L36.591 33.1185L37.2981 32.4114L36.591 31.7043L35.8839 32.4114ZM30.2685 33.168L29.5614 33.8751L30.2685 34.5823L30.9757 33.8751L30.2685 33.168ZM29.5119 32.4114L28.8048 31.7043L28.0977 32.4114L28.8048 33.1185L29.5119 32.4114ZM35.1272 26.796L35.8343 26.0889L35.1272 25.3818L34.4201 26.0889L35.1272 26.796ZM35.8839 27.5527L36.591 28.2598L37.2981 27.5527L36.591 26.8456L35.8839 27.5527ZM35.8343 32.4609L30.219 26.8456L28.8048 28.2598L34.4201 33.8751L35.8343 32.4609ZM30.219 28.2598L30.9757 27.5031L29.5614 26.0889L28.8048 26.8456L30.219 28.2598ZM29.5614 27.5031L35.1768 33.1185L36.591 31.7043L30.9757 26.0889L29.5614 27.5031ZM35.1768 31.7043L34.4201 32.4609L35.8343 33.8751L36.591 33.1185L35.1768 31.7043ZM30.9757 32.4609L30.219 31.7043L28.8048 33.1185L29.5614 33.8751L30.9757 32.4609ZM30.219 33.1185L35.8343 27.5031L34.4201 26.0889L28.8048 31.7043L30.219 33.1185ZM34.4201 27.5031L35.1768 28.2598L36.591 26.8456L35.8343 26.0889L34.4201 27.5031ZM35.1768 26.8456L29.5614 32.4609L30.9757 33.8751L36.591 28.2598L35.1768 26.8456ZM39.9822 34.7909L39.5375 35.6866L39.5375 35.6866L39.9822 34.7909ZM38.8571 33.8351L39.6776 33.2635L39.6776 33.2635L38.8571 33.8351ZM38.3941 32.4512V31.4512H37.3415L37.3954 32.5024L38.3941 32.4512ZM39.5889 32.4512L40.5838 32.351L40.4932 31.4512H39.5889V32.4512ZM40.2161 33.5962L39.5855 34.3723L39.5931 34.3784L40.2161 33.5962ZM42.6753 33.7505L42.1634 32.8915L42.1595 32.8938L42.6753 33.7505ZM43.4469 32.944L42.57 32.4634L42.5684 32.4664L43.4469 32.944ZM43.437 30.5844L42.5597 31.0644L42.5652 31.0743L43.437 30.5844ZM41.4806 29.4444L41.4699 30.4443L41.4729 30.4444L41.4806 29.4444ZM40.5198 29.5888L40.8009 30.5485L40.8098 30.5458L40.5198 29.5888ZM39.7084 29.9621L39.5885 30.9549L39.9755 31.0016L40.292 30.7741L39.7084 29.9621ZM38.5534 29.8227L37.5609 29.7006L37.4385 30.6954L38.4336 30.8155L38.5534 29.8227ZM39.1707 24.8048V23.8048H38.2862L38.1782 24.6827L39.1707 24.8048ZM44.4675 24.8048H45.4675V23.8048H44.4675V24.8048ZM44.4675 25.8999V26.8999H45.4675V25.8999H44.4675ZM40.2062 25.8999V24.8999H39.3183L39.2132 25.7816L40.2062 25.8999ZM39.8477 28.9067L38.8548 28.7884L38.7215 29.9067H39.8477V28.9067ZM39.9075 28.9067V29.9067H40.2561L40.5291 29.69L39.9075 28.9067ZM43.3474 28.7773L42.8252 29.6302L42.832 29.6343L43.3474 28.7773ZM44.5023 29.992L43.6231 30.4685L43.6255 30.4728L44.5023 29.992ZM44.4874 33.4966L43.6191 33.0005L43.6181 33.0023L44.4874 33.4966ZM43.2926 34.7013L43.7912 35.5682L43.7954 35.5657L43.2926 34.7013ZM41.5602 34.1394C41.112 34.1394 40.741 34.0512 40.4268 33.8952L39.5375 35.6866C40.1592 35.9953 40.8402 36.1394 41.5602 36.1394V34.1394ZM40.4268 33.8952C40.1003 33.7331 39.858 33.5223 39.6776 33.2635L38.0366 34.4068C38.4204 34.9577 38.9282 35.3841 39.5375 35.6866L40.4268 33.8952ZM39.6776 33.2635C39.5079 33.0199 39.4103 32.7409 39.3928 32.4L37.3954 32.5024C37.4311 33.197 37.6421 33.8405 38.0366 34.4068L39.6776 33.2635ZM38.3941 33.4512H39.5889V31.4512H38.3941V33.4512ZM38.5939 32.5514C38.668 33.2871 39.0149 33.9086 39.5855 34.3723L40.8467 32.82C40.674 32.6797 40.6027 32.5379 40.5838 32.351L38.5939 32.5514ZM39.5931 34.3784C40.1609 34.8306 40.8338 35.0442 41.5602 35.0442V33.0442C41.2445 33.0442 41.0214 32.9591 40.8391 32.8139L39.5931 34.3784ZM41.5602 35.0442C42.1411 35.0442 42.6946 34.9061 43.1911 34.6072L42.1595 32.8938C42.0055 32.9865 41.8156 33.0442 41.5602 33.0442V35.0442ZM43.1873 34.6095C43.6728 34.3201 44.0554 33.9184 44.3255 33.4217L42.5684 32.4664C42.4667 32.6533 42.3349 32.7892 42.1634 32.8915L43.1873 34.6095ZM44.3239 33.4246C44.602 32.9172 44.7307 32.359 44.7307 31.7742H42.7307C42.7307 32.0589 42.6702 32.2806 42.57 32.4634L44.3239 33.4246ZM44.7307 31.7742C44.7307 31.1776 44.5978 30.6089 44.3088 30.0945L42.5652 31.0743C42.6678 31.2568 42.7307 31.4813 42.7307 31.7742H44.7307ZM44.3142 30.1044C44.0378 29.5991 43.6478 29.1902 43.1537 28.8948L42.1272 30.6113C42.3102 30.7207 42.4512 30.8661 42.5597 31.0644L44.3142 30.1044ZM43.1537 28.8948C42.647 28.5918 42.0824 28.449 41.4882 28.4444L41.4729 30.4444C41.7483 30.4465 41.9569 30.5094 42.1272 30.6113L43.1537 28.8948ZM41.4912 28.4444C41.0678 28.4399 40.6461 28.5056 40.2298 28.6317L40.8098 30.5458C41.0506 30.4728 41.2695 30.4422 41.4699 30.4443L41.4912 28.4444ZM40.2387 28.6291C39.8333 28.7478 39.4523 28.9147 39.1247 29.1501L40.292 30.7741C40.3892 30.7043 40.5492 30.6222 40.8009 30.5484L40.2387 28.6291ZM39.8282 28.9693L38.6732 28.8299L38.4336 30.8155L39.5885 30.9549L39.8282 28.9693ZM39.5459 29.9448L40.1632 24.9269L38.1782 24.6827L37.5609 29.7006L39.5459 29.9448ZM39.1707 25.8048H44.4675V23.8048H39.1707V25.8048ZM43.4675 24.8048V25.8999H45.4675V24.8048H43.4675ZM44.4675 24.8999H40.2062V26.8999H44.4675V24.8999ZM39.2132 25.7816L38.8548 28.7884L40.8407 29.0251L41.1991 26.0183L39.2132 25.7816ZM39.8477 29.9067H39.9075V27.9067H39.8477V29.9067ZM40.5291 29.69C40.6312 29.609 40.7876 29.5197 41.0222 29.4382L40.3659 27.5489C39.9699 27.6865 39.6019 27.8726 39.2858 28.1235L40.5291 29.69ZM41.0222 29.4382C41.2294 29.3662 41.4468 29.3293 41.6797 29.3293V27.3293C41.2289 27.3293 40.7893 27.4019 40.3659 27.5489L41.0222 29.4382ZM41.6797 29.3293C42.1366 29.3293 42.5087 29.4364 42.8252 29.6302L43.8695 27.9245C43.2104 27.5209 42.4706 27.3293 41.6797 27.3293V29.3293ZM42.832 29.6343C43.1668 29.8356 43.4276 30.1077 43.6231 30.4685L45.3815 29.5155C45.0195 28.8475 44.5103 28.3098 43.8627 27.9203L42.832 29.6343ZM43.6255 30.4728C43.817 30.8221 43.9255 31.2404 43.9255 31.7542H45.9255C45.9255 30.9472 45.7518 30.1907 45.3791 29.5112L43.6255 30.4728ZM43.9255 31.7542C43.9255 32.2494 43.816 32.6559 43.6191 33.0005L45.3556 33.9927C45.7429 33.3151 45.9255 32.56 45.9255 31.7542H43.9255ZM43.6181 33.0023C43.4172 33.3556 43.1458 33.6298 42.7898 33.8369L43.7954 35.5657C44.455 35.182 44.9801 34.6532 45.3567 33.9909L43.6181 33.0023ZM42.794 33.8345C42.4535 34.0304 42.0512 34.1394 41.5602 34.1394V36.1394C42.3636 36.1394 43.1162 35.9564 43.7912 35.5682L42.794 33.8345Z" fill="#2F5764" mask="url(#path-7-outside-1_84_1341)"/>
<defs>
<linearGradient id="paint0_linear_84_1341" x1="3.72513" y1="32.3054" x2="33.5154" y2="49.1976" gradientUnits="userSpaceOnUse">
<stop stop-color="#4A4A4A"/>
<stop offset="1" stop-color="#303030"/>
</linearGradient>
</defs>
</svg>
