<svg width="64" height="64" viewBox="0 0 64 64" fill="none" xmlns="http://www.w3.org/2000/svg">
<path d="M4.4006 33.9298C3.80774 33.582 3.47546 33.1136 3.47547 32.6257L3.47547 30.5016C3.47547 29.9566 3.88975 29.439 4.60873 29.0857L30.1348 16.5442C31.3579 15.9433 33.1609 15.9544 34.3614 16.5703L60.0608 29.7535C60.7487 30.1064 61.1422 30.6122 61.1422 31.1434V32.5436C61.1422 33.0309 60.8108 33.4987 60.2194 33.8464L34.5631 48.9278C33.3018 49.6692 31.2326 49.6699 29.9699 48.9292L4.4006 33.9298Z" fill="url(#paint0_linear_84_2346)"/>
<rect width="34.7831" height="34.7831" rx="2.62954" transform="matrix(0.866044 -0.499967 0.866044 0.499967 2.14404 30.3906)" fill="white"/>
<rect width="10.8697" height="10.8697" transform="matrix(0.866044 -0.499967 0.866044 0.499967 12.2639 30.3906)" fill="#D9D9D9"/>
<rect width="10.8697" height="10.8697" transform="matrix(0.866044 -0.499967 0.866044 0.499967 22.8542 24.2769)" fill="#D9D9D9"/>
<rect width="10.8697" height="10.8697" transform="matrix(0.866044 -0.499967 0.866044 0.499967 22.8542 36.5044)" fill="#D9D9D9"/>
<rect width="10.8697" height="10.8697" transform="matrix(0.866044 -0.499967 0.866044 0.499967 33.4446 30.3906)" fill="#D9D9D9"/>
<mask id="path-7-outside-1_84_2346" maskUnits="userSpaceOnUse" x="19" y="23" width="27" height="14" fill="black">
<rect fill="white" x="19" y="23" width="27" height="14"/>
<path d="M23.6818 35.1394C23.2637 35.1328 22.8455 35.0531 22.4273 34.9004C22.0092 34.7478 21.6275 34.4906 21.2824 34.1288C20.9372 33.7638 20.6601 33.2709 20.451 32.6503C20.2419 32.0264 20.1374 31.2432 20.1374 30.3006C20.1374 29.3979 20.222 28.5981 20.3913 27.9012C20.5605 27.2009 20.8061 26.6118 21.128 26.1339C21.45 25.6527 21.8383 25.2876 22.2929 25.0387C22.7509 24.7898 23.267 24.6654 23.8411 24.6654C24.412 24.6654 24.9197 24.7799 25.3644 25.0089C25.8125 25.2345 26.1775 25.5498 26.4596 25.9547C26.7417 26.3596 26.9243 26.8259 27.0072 27.3536H25.7926C25.6797 26.8956 25.4607 26.5156 25.1355 26.2136C24.8102 25.9116 24.3788 25.7606 23.8411 25.7606C23.0513 25.7606 22.429 26.1041 21.9743 26.791C21.523 27.478 21.2956 28.4421 21.2923 29.6833H21.372C21.5578 29.4012 21.7785 29.1606 22.0341 28.9615C22.2929 28.7591 22.5783 28.6031 22.8903 28.4936C23.2023 28.384 23.5325 28.3293 23.881 28.3293C24.4651 28.3293 24.9994 28.4753 25.4839 28.7674C25.9685 29.0561 26.3568 29.456 26.6488 29.9671C26.9409 30.4749 27.0869 31.0573 27.0869 31.7144C27.0869 32.345 26.9458 32.9225 26.6637 33.4468C26.3817 33.9679 25.9851 34.3827 25.474 34.6914C24.9662 34.9967 24.3688 35.146 23.6818 35.1394ZM23.6818 34.0442C24.1 34.0442 24.475 33.9397 24.8069 33.7306C25.1421 33.5215 25.4059 33.2411 25.5984 32.8893C25.7942 32.5375 25.8921 32.1459 25.8921 31.7144C25.8921 31.2929 25.7975 30.9096 25.6084 30.5645C25.4225 30.216 25.1653 29.9389 24.8368 29.7331C24.5115 29.5274 24.1398 29.4245 23.7217 29.4245C23.4064 29.4245 23.1127 29.4875 22.8405 29.6136C22.5684 29.7364 22.3294 29.9057 22.1237 30.1214C21.9212 30.3371 21.7619 30.5844 21.6458 30.8632C21.5296 31.1386 21.4715 31.429 21.4715 31.7343C21.4715 32.1392 21.5661 32.5176 21.7553 32.8694C21.9478 33.2211 22.21 33.5049 22.5418 33.7206C22.877 33.9363 23.257 34.0442 23.6818 34.0442ZM35.0382 33.168L29.4229 27.5527L30.1796 26.796L35.7949 32.4114L35.0382 33.168ZM30.1796 33.168L29.4229 32.4114L35.0382 26.796L35.7949 27.5527L30.1796 33.168ZM41.4712 35.1394C40.8871 35.1394 40.3611 35.0232 39.8932 34.7909C39.4252 34.5586 39.0502 34.24 38.7681 33.8351C38.486 33.4302 38.3317 32.9689 38.3051 32.4512H39.4999C39.5464 32.9125 39.7554 33.2942 40.1271 33.5962C40.5022 33.8949 40.9502 34.0442 41.4712 34.0442C41.8894 34.0442 42.2611 33.9463 42.5863 33.7505C42.9149 33.5547 43.1721 33.2859 43.358 32.944C43.5471 32.5989 43.6417 32.2089 43.6417 31.7742C43.6417 31.3294 43.5438 30.9329 43.348 30.5844C43.1555 30.2326 42.89 29.9555 42.5515 29.753C42.213 29.5506 41.8264 29.4477 41.3916 29.4444C41.0796 29.4411 40.7594 29.4892 40.4308 29.5888C40.1023 29.685 39.8318 29.8095 39.6194 29.9621L38.4644 29.8227L39.0817 24.8048H44.3785V25.8999H40.1172L39.7588 28.9067H39.8185C40.0276 28.7408 40.2898 28.6031 40.605 28.4936C40.9203 28.384 41.2489 28.3293 41.5907 28.3293C42.2146 28.3293 42.7705 28.4786 43.2584 28.7773C43.7496 29.0727 44.1346 29.4776 44.4133 29.992C44.6954 30.5064 44.8365 31.0938 44.8365 31.7542C44.8365 32.4047 44.6904 32.9855 44.3984 33.4966C44.1097 34.0044 43.7114 34.4059 43.2036 34.7013C42.6959 34.9934 42.1184 35.1394 41.4712 35.1394Z"/>
</mask>
<path d="M23.6818 35.1394C23.2637 35.1328 22.8455 35.0531 22.4273 34.9004C22.0092 34.7478 21.6275 34.4906 21.2824 34.1288C20.9372 33.7638 20.6601 33.2709 20.451 32.6503C20.2419 32.0264 20.1374 31.2432 20.1374 30.3006C20.1374 29.3979 20.222 28.5981 20.3913 27.9012C20.5605 27.2009 20.8061 26.6118 21.128 26.1339C21.45 25.6527 21.8383 25.2876 22.2929 25.0387C22.7509 24.7898 23.267 24.6654 23.8411 24.6654C24.412 24.6654 24.9197 24.7799 25.3644 25.0089C25.8125 25.2345 26.1775 25.5498 26.4596 25.9547C26.7417 26.3596 26.9243 26.8259 27.0072 27.3536H25.7926C25.6797 26.8956 25.4607 26.5156 25.1355 26.2136C24.8102 25.9116 24.3788 25.7606 23.8411 25.7606C23.0513 25.7606 22.429 26.1041 21.9743 26.791C21.523 27.478 21.2956 28.4421 21.2923 29.6833H21.372C21.5578 29.4012 21.7785 29.1606 22.0341 28.9615C22.2929 28.7591 22.5783 28.6031 22.8903 28.4936C23.2023 28.384 23.5325 28.3293 23.881 28.3293C24.4651 28.3293 24.9994 28.4753 25.4839 28.7674C25.9685 29.0561 26.3568 29.456 26.6488 29.9671C26.9409 30.4749 27.0869 31.0573 27.0869 31.7144C27.0869 32.345 26.9458 32.9225 26.6637 33.4468C26.3817 33.9679 25.9851 34.3827 25.474 34.6914C24.9662 34.9967 24.3688 35.146 23.6818 35.1394ZM23.6818 34.0442C24.1 34.0442 24.475 33.9397 24.8069 33.7306C25.1421 33.5215 25.4059 33.2411 25.5984 32.8893C25.7942 32.5375 25.8921 32.1459 25.8921 31.7144C25.8921 31.2929 25.7975 30.9096 25.6084 30.5645C25.4225 30.216 25.1653 29.9389 24.8368 29.7331C24.5115 29.5274 24.1398 29.4245 23.7217 29.4245C23.4064 29.4245 23.1127 29.4875 22.8405 29.6136C22.5684 29.7364 22.3294 29.9057 22.1237 30.1214C21.9212 30.3371 21.7619 30.5844 21.6458 30.8632C21.5296 31.1386 21.4715 31.429 21.4715 31.7343C21.4715 32.1392 21.5661 32.5176 21.7553 32.8694C21.9478 33.2211 22.21 33.5049 22.5418 33.7206C22.877 33.9363 23.257 34.0442 23.6818 34.0442ZM35.0382 33.168L29.4229 27.5527L30.1796 26.796L35.7949 32.4114L35.0382 33.168ZM30.1796 33.168L29.4229 32.4114L35.0382 26.796L35.7949 27.5527L30.1796 33.168ZM41.4712 35.1394C40.8871 35.1394 40.3611 35.0232 39.8932 34.7909C39.4252 34.5586 39.0502 34.24 38.7681 33.8351C38.486 33.4302 38.3317 32.9689 38.3051 32.4512H39.4999C39.5464 32.9125 39.7554 33.2942 40.1271 33.5962C40.5022 33.8949 40.9502 34.0442 41.4712 34.0442C41.8894 34.0442 42.2611 33.9463 42.5863 33.7505C42.9149 33.5547 43.1721 33.2859 43.358 32.944C43.5471 32.5989 43.6417 32.2089 43.6417 31.7742C43.6417 31.3294 43.5438 30.9329 43.348 30.5844C43.1555 30.2326 42.89 29.9555 42.5515 29.753C42.213 29.5506 41.8264 29.4477 41.3916 29.4444C41.0796 29.4411 40.7594 29.4892 40.4308 29.5888C40.1023 29.685 39.8318 29.8095 39.6194 29.9621L38.4644 29.8227L39.0817 24.8048H44.3785V25.8999H40.1172L39.7588 28.9067H39.8185C40.0276 28.7408 40.2898 28.6031 40.605 28.4936C40.9203 28.384 41.2489 28.3293 41.5907 28.3293C42.2146 28.3293 42.7705 28.4786 43.2584 28.7773C43.7496 29.0727 44.1346 29.4776 44.4133 29.992C44.6954 30.5064 44.8365 31.0938 44.8365 31.7542C44.8365 32.4047 44.6904 32.9855 44.3984 33.4966C44.1097 34.0044 43.7114 34.4059 43.2036 34.7013C42.6959 34.9934 42.1184 35.1394 41.4712 35.1394Z" fill="#00C1FF"/>
<path d="M23.6818 35.1394L23.666 36.1393L23.6722 36.1393L23.6818 35.1394ZM22.4273 34.9004L22.0844 35.8398L22.0844 35.8398L22.4273 34.9004ZM21.2824 34.1288L20.5557 34.8158L20.5589 34.8191L21.2824 34.1288ZM20.451 32.6503L19.5028 32.9681L19.5034 32.9696L20.451 32.6503ZM20.3913 27.9012L21.363 28.1372L21.3633 28.1361L20.3913 27.9012ZM21.128 26.1339L21.9574 26.6926L21.9592 26.6899L21.128 26.1339ZM22.2929 25.0387L21.8154 24.1601L21.8127 24.1616L22.2929 25.0387ZM25.3644 25.0089L24.9066 25.898L24.9146 25.902L25.3644 25.0089ZM26.4596 25.9547L27.2801 25.3831L27.2801 25.3831L26.4596 25.9547ZM27.0072 27.3536V28.3536H28.1768L27.9951 27.1982L27.0072 27.3536ZM25.7926 27.3536L24.8216 27.5928L25.009 28.3536H25.7926V27.3536ZM25.1355 26.2136L24.455 26.9464L24.455 26.9464L25.1355 26.2136ZM21.9743 26.791L21.1404 26.2391L21.1386 26.2419L21.9743 26.791ZM21.2923 29.6833L20.2923 29.6807L20.2896 30.6833H21.2923V29.6833ZM21.372 29.6833V30.6833H21.9107L22.207 30.2335L21.372 29.6833ZM22.0341 28.9615L22.6487 29.7503L22.6501 29.7492L22.0341 28.9615ZM22.8903 28.4936L22.5591 27.55L22.8903 28.4936ZM25.4839 28.7674L24.9677 29.6238L24.972 29.6264L25.4839 28.7674ZM26.6488 29.9671L25.7806 30.4632L25.782 30.4657L26.6488 29.9671ZM26.6637 33.4468L27.5431 33.9229L27.5444 33.9206L26.6637 33.4468ZM25.474 34.6914L25.9893 35.5484L25.9909 35.5474L25.474 34.6914ZM24.8069 33.7306L24.2776 32.8821L24.2739 32.8845L24.8069 33.7306ZM25.5984 32.8893L24.7246 32.4029L24.7212 32.4093L25.5984 32.8893ZM25.6084 30.5645L24.726 31.0351L24.7315 31.0451L25.6084 30.5645ZM24.8368 29.7331L24.3021 30.5782L24.306 30.5806L24.8368 29.7331ZM22.8405 29.6136L23.2518 30.5252L23.261 30.521L22.8405 29.6136ZM22.1237 30.1214L21.4 29.4312L21.3945 29.4371L22.1237 30.1214ZM21.6458 30.8632L22.5672 31.2517L22.5689 31.2478L21.6458 30.8632ZM21.7553 32.8694L20.8745 33.343L20.878 33.3494L21.7553 32.8694ZM22.5418 33.7206L21.9968 34.5591L22.0007 34.5615L22.5418 33.7206ZM23.6977 34.1395C23.3982 34.1348 23.0904 34.0779 22.7703 33.9611L22.0844 35.8398C22.6007 36.0283 23.1292 36.1307 23.666 36.1393L23.6977 34.1395ZM22.7703 33.9611C22.5133 33.8673 22.2582 33.7029 22.0059 33.4385L20.5589 34.8191C20.9969 35.2782 21.505 35.6283 22.0844 35.8398L22.7703 33.9611ZM22.009 33.4418C21.7886 33.2087 21.575 32.8544 21.3987 32.331L19.5034 32.9696C19.7452 33.6874 20.0858 34.3188 20.5557 34.8158L22.009 33.4418ZM21.3992 32.3326C21.2358 31.8449 21.1374 31.1778 21.1374 30.3006H19.1374C19.1374 31.3085 19.2481 32.2079 19.5028 32.9681L21.3992 32.3326ZM21.1374 30.3006C21.1374 29.458 21.2166 28.74 21.363 28.1372L19.4195 27.6652C19.2274 28.4562 19.1374 29.3379 19.1374 30.3006H21.1374ZM21.3633 28.1361C21.5113 27.5236 21.7162 27.0507 21.9574 26.6926L20.2987 25.5752C19.8961 26.1729 19.6097 26.8782 19.4193 27.6662L21.3633 28.1361ZM21.9592 26.6899C22.2023 26.3266 22.4754 26.0789 22.7731 25.9159L21.8127 24.1616C21.2011 24.4964 20.6976 24.9788 20.2969 25.5779L21.9592 26.6899ZM22.7704 25.9174C23.0674 25.756 23.4165 25.6654 23.8411 25.6654V23.6654C23.1175 23.6654 22.4344 23.8237 21.8154 24.1601L22.7704 25.9174ZM23.8411 25.6654C24.2753 25.6654 24.6224 25.7515 24.9067 25.8979L25.8222 24.1198C25.2171 23.8082 24.5486 23.6654 23.8411 23.6654V25.6654ZM24.9146 25.902C25.2169 26.0542 25.4536 26.2601 25.6391 26.5264L27.2801 25.3831C26.9015 24.8396 26.4081 24.4149 25.8143 24.1158L24.9146 25.902ZM25.6391 26.5264C25.8276 26.7969 25.958 27.1183 26.0194 27.5089L27.9951 27.1982C27.8906 26.5335 27.6558 25.9223 27.2801 25.3831L25.6391 26.5264ZM27.0072 26.3536H25.7926V28.3536H27.0072V26.3536ZM26.7635 27.1143C26.6071 26.4795 26.2932 25.9239 25.8159 25.4808L24.455 26.9464C24.6282 27.1072 24.7523 27.3117 24.8216 27.5928L26.7635 27.1143ZM25.8159 25.4808C25.2682 24.9722 24.5749 24.7606 23.8411 24.7606V26.7606C24.1827 26.7606 24.3522 26.8509 24.455 26.9464L25.8159 25.4808ZM23.8411 24.7606C22.6988 24.7606 21.7707 25.2868 21.1404 26.2391L22.8082 27.3429C23.0873 26.9214 23.4037 26.7606 23.8411 26.7606V24.7606ZM21.1386 26.2419C20.5391 27.1543 20.2959 28.3377 20.2923 29.6807L22.2923 29.686C22.2954 28.5465 22.5068 27.8017 22.8101 27.3401L21.1386 26.2419ZM21.2923 30.6833H21.372V28.6833H21.2923V30.6833ZM22.207 30.2335C22.3355 30.0385 22.4828 29.8796 22.6487 29.7503L21.4194 28.1727C21.0743 28.4417 20.7802 28.764 20.5369 29.1332L22.207 30.2335ZM22.6501 29.7492C22.8226 29.6143 23.0117 29.5108 23.2216 29.4371L22.5591 27.55C22.145 27.6954 21.7632 27.9038 21.418 28.1738L22.6501 29.7492ZM23.2216 29.4371C23.4214 29.3669 23.6392 29.3293 23.881 29.3293V27.3293C23.4258 27.3293 22.9831 27.4012 22.5591 27.55L23.2216 29.4371ZM23.881 29.3293C24.2893 29.3293 24.6442 29.4288 24.9677 29.6238L26.0001 27.9109C25.3546 27.5218 24.6408 27.3293 23.881 27.3293V29.3293ZM24.972 29.6264C25.3019 29.823 25.5702 30.095 25.7806 30.4632L27.5171 29.471C27.1434 28.817 26.635 28.2892 25.9958 27.9083L24.972 29.6264ZM25.782 30.4657C25.9765 30.8039 26.0869 31.2105 26.0869 31.7144H28.0869C28.0869 30.9041 27.9052 30.1458 27.5157 29.4685L25.782 30.4657ZM26.0869 31.7144C26.0869 32.1897 25.9822 32.6029 25.7831 32.9731L27.5444 33.9206C27.9095 33.242 28.0869 32.5003 28.0869 31.7144H26.0869ZM25.7844 32.9707C25.5878 33.3338 25.3168 33.618 24.957 33.8353L25.9909 35.5474C26.6533 35.1474 27.1755 34.6019 27.5431 33.9229L25.7844 32.9707ZM24.9586 33.8344C24.6332 34.0301 24.2236 34.1446 23.6915 34.1394L23.6722 36.1393C24.514 36.1475 25.2992 35.9633 25.9893 35.5484L24.9586 33.8344ZM23.6818 35.0442C24.2756 35.0442 24.8378 34.893 25.3399 34.5767L24.2739 32.8845C24.1123 32.9863 23.9244 33.0442 23.6818 33.0442V35.0442ZM25.3361 34.579C25.8193 34.2776 26.2021 33.8694 26.4757 33.3693L24.7212 32.4093C24.6098 32.6128 24.4648 32.7653 24.2777 32.8821L25.3361 34.579ZM26.4722 33.3756C26.7567 32.8645 26.8921 32.3035 26.8921 31.7144H24.8921C24.8921 31.9882 24.8318 32.2105 24.7247 32.4029L26.4722 33.3756ZM26.8921 31.7144C26.8921 31.1372 26.7609 30.5867 26.4853 30.0838L24.7315 31.0451C24.8342 31.2325 24.8921 31.4487 24.8921 31.7144H26.8921ZM26.4907 30.0939C26.2243 29.5942 25.8471 29.1859 25.3675 28.8856L24.306 30.5806C24.4836 30.6918 24.6208 30.8378 24.726 31.0351L26.4907 30.0939ZM25.3714 28.888C24.8724 28.5723 24.3121 28.4245 23.7217 28.4245V30.4245C23.9676 30.4245 24.1506 30.4824 24.3021 30.5782L25.3714 28.888ZM23.7217 28.4245C23.2688 28.4245 22.8307 28.516 22.4201 28.7063L23.261 30.521C23.3946 30.459 23.544 30.4245 23.7217 30.4245V28.4245ZM22.4292 28.7021C22.0399 28.8778 21.6949 29.1222 21.4001 29.4312L22.8473 30.8116C22.964 30.6892 23.0969 30.5951 23.2518 30.5252L22.4292 28.7021ZM21.3945 29.4371C21.1082 29.7421 20.884 30.0914 20.7227 30.4785L22.5689 31.2478C22.6399 31.0774 22.7342 30.9321 22.8529 30.8057L21.3945 29.4371ZM20.7243 30.4746C20.5552 30.8757 20.4715 31.2985 20.4715 31.7343H22.4715C22.4715 31.5596 22.504 31.4015 22.5672 31.2517L20.7243 30.4746ZM20.4715 31.7343C20.4715 32.3022 20.606 32.8435 20.8746 33.343L22.636 32.3957C22.5263 32.1916 22.4715 31.9763 22.4715 31.7343H20.4715ZM20.878 33.3494C21.1488 33.8443 21.5244 34.252 21.9969 34.5591L23.0868 32.8822C22.8955 32.7578 22.7467 32.598 22.6326 32.3893L20.878 33.3494ZM22.0007 34.5615C22.508 34.888 23.0783 35.0442 23.6818 35.0442V33.0442C23.4358 33.0442 23.2461 32.9846 23.083 32.8797L22.0007 34.5615ZM35.0382 33.168L34.3311 33.8751L35.0382 34.5823L35.7453 33.8751L35.0382 33.168ZM29.4229 27.5527L28.7158 26.8456L28.0087 27.5527L28.7158 28.2598L29.4229 27.5527ZM30.1796 26.796L30.8867 26.0889L30.1796 25.3818L29.4725 26.0889L30.1796 26.796ZM35.7949 32.4114L36.502 33.1185L37.2091 32.4114L36.502 31.7043L35.7949 32.4114ZM30.1796 33.168L29.4725 33.8751L30.1796 34.5823L30.8867 33.8751L30.1796 33.168ZM29.4229 32.4114L28.7158 31.7043L28.0087 32.4114L28.7158 33.1185L29.4229 32.4114ZM35.0382 26.796L35.7453 26.0889L35.0382 25.3818L34.3311 26.0889L35.0382 26.796ZM35.7949 27.5527L36.502 28.2598L37.2091 27.5527L36.502 26.8456L35.7949 27.5527ZM35.7453 32.4609L30.13 26.8456L28.7158 28.2598L34.3311 33.8751L35.7453 32.4609ZM30.13 28.2598L30.8867 27.5031L29.4725 26.0889L28.7158 26.8456L30.13 28.2598ZM29.4725 27.5031L35.0878 33.1185L36.502 31.7043L30.8867 26.0889L29.4725 27.5031ZM35.0878 31.7043L34.3311 32.4609L35.7453 33.8751L36.502 33.1185L35.0878 31.7043ZM30.8867 32.4609L30.13 31.7043L28.7158 33.1185L29.4725 33.8751L30.8867 32.4609ZM30.13 33.1185L35.7453 27.5031L34.3311 26.0889L28.7158 31.7043L30.13 33.1185ZM34.3311 27.5031L35.0878 28.2598L36.502 26.8456L35.7453 26.0889L34.3311 27.5031ZM35.0878 26.8456L29.4725 32.4609L30.8867 33.8751L36.502 28.2598L35.0878 26.8456ZM39.8932 34.7909L39.4485 35.6866L39.4485 35.6866L39.8932 34.7909ZM38.7681 33.8351L39.5886 33.2635L39.5886 33.2635L38.7681 33.8351ZM38.3051 32.4512V31.4512H37.2525L37.3065 32.5024L38.3051 32.4512ZM39.4999 32.4512L40.4949 32.351L40.4042 31.4512H39.4999V32.4512ZM40.1271 33.5962L39.4965 34.3723L39.5041 34.3784L40.1271 33.5962ZM42.5863 33.7505L42.0744 32.8915L42.0706 32.8938L42.5863 33.7505ZM43.358 32.944L42.481 32.4634L42.4794 32.4664L43.358 32.944ZM43.348 30.5844L42.4707 31.0644L42.4762 31.0743L43.348 30.5844ZM41.3916 29.4444L41.381 30.4443L41.384 30.4444L41.3916 29.4444ZM40.4308 29.5888L40.7119 30.5485L40.7208 30.5458L40.4308 29.5888ZM39.6194 29.9621L39.4996 30.9549L39.8865 31.0016L40.203 30.7741L39.6194 29.9621ZM38.4644 29.8227L37.4719 29.7006L37.3495 30.6954L38.3446 30.8155L38.4644 29.8227ZM39.0817 24.8048V23.8048H38.1972L38.0892 24.6827L39.0817 24.8048ZM44.3785 24.8048H45.3785V23.8048H44.3785V24.8048ZM44.3785 25.8999V26.8999H45.3785V25.8999H44.3785ZM40.1172 25.8999V24.8999H39.2293L39.1242 25.7816L40.1172 25.8999ZM39.7588 28.9067L38.7658 28.7884L38.6325 29.9067H39.7588V28.9067ZM39.8185 28.9067V29.9067H40.1671L40.4402 29.69L39.8185 28.9067ZM43.2584 28.7773L42.7362 29.6302L42.7431 29.6343L43.2584 28.7773ZM44.4133 29.992L43.5341 30.4685L43.5365 30.4728L44.4133 29.992ZM44.3984 33.4966L43.5301 33.0005L43.5291 33.0023L44.3984 33.4966ZM43.2036 34.7013L43.7022 35.5682L43.7065 35.5657L43.2036 34.7013ZM41.4712 34.1394C41.023 34.1394 40.652 34.0512 40.3378 33.8952L39.4485 35.6866C40.0702 35.9953 40.7513 36.1394 41.4712 36.1394V34.1394ZM40.3378 33.8952C40.0113 33.7331 39.769 33.5223 39.5886 33.2635L37.9476 34.4068C38.3314 34.9577 38.8392 35.3841 39.4485 35.6866L40.3378 33.8952ZM39.5886 33.2635C39.4189 33.0199 39.3213 32.7409 39.3038 32.4L37.3065 32.5024C37.3421 33.197 37.5531 33.8405 37.9476 34.4068L39.5886 33.2635ZM38.3051 33.4512H39.4999V31.4512H38.3051V33.4512ZM38.5049 32.5514C38.579 33.2871 38.9259 33.9086 39.4966 34.3723L40.7577 32.82C40.585 32.6797 40.5137 32.5379 40.4949 32.351L38.5049 32.5514ZM39.5041 34.3784C40.0719 34.8306 40.7448 35.0442 41.4712 35.0442V33.0442C41.1556 33.0442 40.9324 32.9591 40.7501 32.8139L39.5041 34.3784ZM41.4712 35.0442C42.0521 35.0442 42.6057 34.9061 43.1021 34.6072L42.0706 32.8938C41.9166 32.9865 41.7267 33.0442 41.4712 33.0442V35.0442ZM43.0983 34.6095C43.5838 34.3201 43.9665 33.9184 44.2365 33.4217L42.4794 32.4664C42.3778 32.6533 42.246 32.7892 42.0744 32.8915L43.0983 34.6095ZM44.2349 33.4246C44.513 32.9172 44.6417 32.359 44.6417 31.7742H42.6417C42.6417 32.0589 42.5812 32.2806 42.481 32.4634L44.2349 33.4246ZM44.6417 31.7742C44.6417 31.1776 44.5088 30.6089 44.2198 30.0945L42.4762 31.0743C42.5788 31.2568 42.6417 31.4813 42.6417 31.7742H44.6417ZM44.2253 30.1044C43.9488 29.5991 43.5588 29.1902 43.0648 28.8948L42.0382 30.6113C42.2213 30.7207 42.3622 30.8661 42.4707 31.0644L44.2253 30.1044ZM43.0648 28.8948C42.558 28.5918 41.9934 28.449 41.3992 28.4444L41.384 30.4444C41.6593 30.4465 41.868 30.5094 42.0382 30.6113L43.0648 28.8948ZM41.4022 28.4444C40.9788 28.4399 40.5571 28.5056 40.1408 28.6317L40.7208 30.5458C40.9616 30.4728 41.1805 30.4422 41.381 30.4443L41.4022 28.4444ZM40.1497 28.6291C39.7443 28.7478 39.3633 28.9147 39.0357 29.1501L40.203 30.7741C40.3002 30.7043 40.4602 30.6222 40.7119 30.5484L40.1497 28.6291ZM39.7392 28.9693L38.5843 28.8299L38.3446 30.8155L39.4996 30.9549L39.7392 28.9693ZM39.457 29.9448L40.0743 24.9269L38.0892 24.6827L37.4719 29.7006L39.457 29.9448ZM39.0817 25.8048H44.3785V23.8048H39.0817V25.8048ZM43.3785 24.8048V25.8999H45.3785V24.8048H43.3785ZM44.3785 24.8999H40.1172V26.8999H44.3785V24.8999ZM39.1242 25.7816L38.7658 28.7884L40.7517 29.0251L41.1102 26.0183L39.1242 25.7816ZM39.7588 29.9067H39.8185V27.9067H39.7588V29.9067ZM40.4402 29.69C40.5423 29.609 40.6986 29.5197 40.9332 29.4382L40.2769 27.5489C39.8809 27.6865 39.5129 27.8726 39.1968 28.1235L40.4402 29.69ZM40.9332 29.4382C41.1404 29.3662 41.3578 29.3293 41.5907 29.3293V27.3293C41.1399 27.3293 40.7003 27.4019 40.2769 27.5489L40.9332 29.4382ZM41.5907 29.3293C42.0477 29.3293 42.4197 29.4364 42.7362 29.6302L43.7806 27.9245C43.1214 27.5209 42.3816 27.3293 41.5907 27.3293V29.3293ZM42.7431 29.6343C43.0778 29.8356 43.3386 30.1077 43.5341 30.4685L45.2925 29.5155C44.9305 28.8475 44.4213 28.3098 43.7737 27.9203L42.7431 29.6343ZM43.5365 30.4728C43.7281 30.8221 43.8365 31.2404 43.8365 31.7542H45.8365C45.8365 30.9472 45.6628 30.1907 45.2901 29.5112L43.5365 30.4728ZM43.8365 31.7542C43.8365 32.2494 43.727 32.6559 43.5301 33.0005L45.2666 33.9927C45.6539 33.3151 45.8365 32.56 45.8365 31.7542H43.8365ZM43.5291 33.0023C43.3282 33.3556 43.0568 33.6298 42.7008 33.8369L43.7065 35.5657C44.366 35.182 44.8911 34.6532 45.2677 33.9909L43.5291 33.0023ZM42.7051 33.8345C42.3645 34.0304 41.9622 34.1394 41.4712 34.1394V36.1394C42.2746 36.1394 43.0273 35.9564 43.7022 35.5682L42.7051 33.8345Z" fill="#2F5764" mask="url(#path-7-outside-1_84_2346)"/>
<defs>
<linearGradient id="paint0_linear_84_2346" x1="3.72513" y1="32.3054" x2="33.5154" y2="49.1976" gradientUnits="userSpaceOnUse">
<stop stop-color="#4A4A4A"/>
<stop offset="1" stop-color="#303030"/>
</linearGradient>
</defs>
</svg>
