<svg width="64" height="64" viewBox="0 0 64 64" fill="none" xmlns="http://www.w3.org/2000/svg">
<path d="M4.4006 33.9298C3.80774 33.582 3.47546 33.1136 3.47547 32.6257L3.47547 30.5016C3.47547 29.9566 3.88975 29.439 4.60873 29.0857L30.1348 16.5442C31.3579 15.9433 33.1609 15.9544 34.3614 16.5703L60.0608 29.7535C60.7487 30.1064 61.1422 30.6122 61.1422 31.1434V32.5436C61.1422 33.0309 60.8108 33.4987 60.2194 33.8464L34.5631 48.9278C33.3018 49.6692 31.2326 49.6699 29.9699 48.9292L4.4006 33.9298Z" fill="url(#paint0_linear_84_1872)"/>
<rect width="34.7831" height="34.7831" rx="2.62954" transform="matrix(0.866044 -0.499967 0.866044 0.499967 2.14404 30.3906)" fill="white"/>
<rect width="10.8697" height="10.8697" transform="matrix(0.866044 -0.499967 0.866044 0.499967 12.2639 30.3906)" fill="#D9D9D9"/>
<rect width="10.8697" height="10.8697" transform="matrix(0.866044 -0.499967 0.866044 0.499967 22.8542 24.2769)" fill="#D9D9D9"/>
<rect width="10.8697" height="10.8697" transform="matrix(0.866044 -0.499967 0.866044 0.499967 22.8542 36.5044)" fill="#D9D9D9"/>
<rect width="10.8697" height="10.8697" transform="matrix(0.866044 -0.499967 0.866044 0.499967 33.4446 30.3906)" fill="#D9D9D9"/>
<mask id="path-7-outside-1_84_1872" maskUnits="userSpaceOnUse" x="19" y="23" width="28" height="14" fill="black">
<rect fill="white" x="19" y="23" width="28" height="14"/>
<path d="M23.3595 35.1394C22.7754 35.1394 22.2494 35.0232 21.7814 34.7909C21.3135 34.5586 20.9385 34.24 20.6564 33.8351C20.3743 33.4302 20.2199 32.9689 20.1934 32.4512H21.3882C21.4346 32.9125 21.6437 33.2942 22.0154 33.5962C22.3904 33.8949 22.8385 34.0442 23.3595 34.0442C23.7777 34.0442 24.1494 33.9463 24.4746 33.7505C24.8032 33.5547 25.0604 33.2859 25.2462 32.944C25.4354 32.5989 25.53 32.2089 25.53 31.7742C25.53 31.3294 25.4321 30.9329 25.2363 30.5844C25.0438 30.2326 24.7783 29.9555 24.4398 29.753C24.1012 29.5506 23.7146 29.4477 23.2799 29.4444C22.9679 29.4411 22.6476 29.4892 22.3191 29.5888C21.9905 29.685 21.72 29.8095 21.5076 29.9621L20.3527 29.8227L20.97 24.8048H26.2667V25.8999H22.0054L21.647 28.9067H21.7068C21.9158 28.7408 22.178 28.6031 22.4933 28.4936C22.8086 28.384 23.1371 28.3293 23.479 28.3293C24.1029 28.3293 24.6588 28.4786 25.1467 28.7773C25.6378 29.0727 26.0228 29.4776 26.3016 29.992C26.5837 30.5064 26.7247 31.0938 26.7247 31.7542C26.7247 32.4047 26.5787 32.9855 26.2867 33.4966C25.9979 34.0044 25.5997 34.4059 25.0919 34.7013C24.5841 34.9934 24.0067 35.1394 23.3595 35.1394ZM34.696 33.168L29.0806 27.5527L29.8373 26.796L35.4527 32.4114L34.696 33.168ZM29.8373 33.168L29.0806 32.4114L34.696 26.796L35.4527 27.5527L29.8373 33.168ZM37.704 32.9092V31.8936L42.1844 24.8048H42.9211V26.3779H42.4233L39.0382 31.7343V31.814H45.0717V32.9092H37.704ZM42.503 35V32.6005V32.1276V24.8048H43.6778V35H42.503Z"/>
</mask>
<path d="M23.3595 35.1394C22.7754 35.1394 22.2494 35.0232 21.7814 34.7909C21.3135 34.5586 20.9385 34.24 20.6564 33.8351C20.3743 33.4302 20.2199 32.9689 20.1934 32.4512H21.3882C21.4346 32.9125 21.6437 33.2942 22.0154 33.5962C22.3904 33.8949 22.8385 34.0442 23.3595 34.0442C23.7777 34.0442 24.1494 33.9463 24.4746 33.7505C24.8032 33.5547 25.0604 33.2859 25.2462 32.944C25.4354 32.5989 25.53 32.2089 25.53 31.7742C25.53 31.3294 25.4321 30.9329 25.2363 30.5844C25.0438 30.2326 24.7783 29.9555 24.4398 29.753C24.1012 29.5506 23.7146 29.4477 23.2799 29.4444C22.9679 29.4411 22.6476 29.4892 22.3191 29.5888C21.9905 29.685 21.72 29.8095 21.5076 29.9621L20.3527 29.8227L20.97 24.8048H26.2667V25.8999H22.0054L21.647 28.9067H21.7068C21.9158 28.7408 22.178 28.6031 22.4933 28.4936C22.8086 28.384 23.1371 28.3293 23.479 28.3293C24.1029 28.3293 24.6588 28.4786 25.1467 28.7773C25.6378 29.0727 26.0228 29.4776 26.3016 29.992C26.5837 30.5064 26.7247 31.0938 26.7247 31.7542C26.7247 32.4047 26.5787 32.9855 26.2867 33.4966C25.9979 34.0044 25.5997 34.4059 25.0919 34.7013C24.5841 34.9934 24.0067 35.1394 23.3595 35.1394ZM34.696 33.168L29.0806 27.5527L29.8373 26.796L35.4527 32.4114L34.696 33.168ZM29.8373 33.168L29.0806 32.4114L34.696 26.796L35.4527 27.5527L29.8373 33.168ZM37.704 32.9092V31.8936L42.1844 24.8048H42.9211V26.3779H42.4233L39.0382 31.7343V31.814H45.0717V32.9092H37.704ZM42.503 35V32.6005V32.1276V24.8048H43.6778V35H42.503Z" fill="#00C1FF"/>
<path d="M21.7814 34.7909L21.3368 35.6866L21.3368 35.6866L21.7814 34.7909ZM20.6564 33.8351L21.4769 33.2635L21.4769 33.2635L20.6564 33.8351ZM20.1934 32.4512V31.4512H19.1408L19.1947 32.5024L20.1934 32.4512ZM21.3882 32.4512L22.3831 32.351L22.2925 31.4512H21.3882V32.4512ZM22.0154 33.5962L21.3848 34.3723L21.3924 34.3784L22.0154 33.5962ZM24.4746 33.7505L23.9627 32.8915L23.9588 32.8938L24.4746 33.7505ZM25.2462 32.944L24.3693 32.4634L24.3677 32.4664L25.2462 32.944ZM25.2363 30.5844L24.3589 31.0644L24.3645 31.0743L25.2363 30.5844ZM23.2799 29.4444L23.2692 30.4443L23.2722 30.4444L23.2799 29.4444ZM22.3191 29.5888L22.6002 30.5485L22.6091 30.5458L22.3191 29.5888ZM21.5076 29.9621L21.3878 30.9549L21.7748 31.0016L22.0913 30.7741L21.5076 29.9621ZM20.3527 29.8227L19.3602 29.7006L19.2378 30.6954L20.2329 30.8155L20.3527 29.8227ZM20.97 24.8048V23.8048H20.0855L19.9775 24.6827L20.97 24.8048ZM26.2667 24.8048H27.2667V23.8048H26.2667V24.8048ZM26.2667 25.8999V26.8999H27.2667V25.8999H26.2667ZM22.0054 25.8999V24.8999H21.1176L21.0125 25.7816L22.0054 25.8999ZM21.647 28.9067L20.654 28.7884L20.5207 29.9067H21.647V28.9067ZM21.7068 28.9067V29.9067H22.0554L22.3284 29.69L21.7068 28.9067ZM25.1467 28.7773L24.6245 29.6302L24.6313 29.6343L25.1467 28.7773ZM26.3016 29.992L25.4224 30.4685L25.4248 30.4728L26.3016 29.992ZM26.2867 33.4966L25.4184 33.0005L25.4174 33.0023L26.2867 33.4966ZM25.0919 34.7013L25.5905 35.5682L25.5947 35.5657L25.0919 34.7013ZM23.3595 34.1394C22.9113 34.1394 22.5403 34.0512 22.2261 33.8952L21.3368 35.6866C21.9585 35.9953 22.6395 36.1394 23.3595 36.1394V34.1394ZM22.2261 33.8952C21.8995 33.7331 21.6572 33.5223 21.4769 33.2635L19.8359 34.4068C20.2197 34.9577 20.7274 35.3841 21.3368 35.6866L22.2261 33.8952ZM21.4769 33.2635C21.3072 33.0199 21.2096 32.7409 21.1921 32.4L19.1947 32.5024C19.2303 33.197 19.4414 33.8405 19.8359 34.4068L21.4769 33.2635ZM20.1934 33.4512H21.3882V31.4512H20.1934V33.4512ZM20.3932 32.5514C20.4673 33.2871 20.8142 33.9086 21.3848 34.3723L22.646 32.82C22.4732 32.6797 22.4019 32.5379 22.3831 32.351L20.3932 32.5514ZM21.3924 34.3784C21.9602 34.8306 22.6331 35.0442 23.3595 35.0442V33.0442C23.0438 33.0442 22.8207 32.9591 22.6384 32.8139L21.3924 34.3784ZM23.3595 35.0442C23.9404 35.0442 24.4939 34.9061 24.9904 34.6072L23.9588 32.8938C23.8048 32.9865 23.6149 33.0442 23.3595 33.0442V35.0442ZM24.9865 34.6095C25.4721 34.3201 25.8547 33.9184 26.1248 33.4217L24.3677 32.4664C24.266 32.6533 24.1342 32.7892 23.9627 32.8915L24.9865 34.6095ZM26.1231 33.4246C26.4013 32.9172 26.53 32.359 26.53 31.7742H24.53C24.53 32.0589 24.4695 32.2806 24.3693 32.4634L26.1231 33.4246ZM26.53 31.7742C26.53 31.1776 26.3971 30.6089 26.1081 30.0945L24.3645 31.0743C24.4671 31.2568 24.53 31.4813 24.53 31.7742H26.53ZM26.1135 30.1044C25.837 29.5991 25.447 29.1902 24.953 28.8948L23.9265 30.6113C24.1095 30.7207 24.2505 30.8661 24.359 31.0644L26.1135 30.1044ZM24.953 28.8948C24.4463 28.5918 23.8817 28.449 23.2875 28.4444L23.2722 30.4444C23.5476 30.4465 23.7562 30.5094 23.9265 30.6113L24.953 28.8948ZM23.2905 28.4444C22.867 28.4399 22.4454 28.5056 22.0291 28.6317L22.6091 30.5458C22.8499 30.4728 23.0687 30.4422 23.2692 30.4443L23.2905 28.4444ZM22.038 28.6291C21.6326 28.7478 21.2516 28.9147 20.924 29.1501L22.0913 30.7741C22.1885 30.7043 22.3485 30.6222 22.6002 30.5484L22.038 28.6291ZM21.6275 28.9693L20.4725 28.8299L20.2329 30.8155L21.3878 30.9549L21.6275 28.9693ZM21.3452 29.9448L21.9625 24.9269L19.9775 24.6827L19.3602 29.7006L21.3452 29.9448ZM20.97 25.8048H26.2667V23.8048H20.97V25.8048ZM25.2667 24.8048V25.8999H27.2667V24.8048H25.2667ZM26.2667 24.8999H22.0054V26.8999H26.2667V24.8999ZM21.0125 25.7816L20.654 28.7884L22.64 29.0251L22.9984 26.0183L21.0125 25.7816ZM21.647 29.9067H21.7068V27.9067H21.647V29.9067ZM22.3284 29.69C22.4305 29.609 22.5869 29.5197 22.8214 29.4382L22.1652 27.5489C21.7692 27.6865 21.4012 27.8726 21.0851 28.1235L22.3284 29.69ZM22.8214 29.4382C23.0286 29.3662 23.2461 29.3293 23.479 29.3293V27.3293C23.0282 27.3293 22.5885 27.4019 22.1652 27.5489L22.8214 29.4382ZM23.479 29.3293C23.9359 29.3293 24.3079 29.4364 24.6245 29.6302L25.6688 27.9245C25.0097 27.5209 24.2699 27.3293 23.479 27.3293V29.3293ZM24.6313 29.6343C24.9661 29.8356 25.2269 30.1077 25.4224 30.4685L27.1808 29.5155C26.8187 28.8475 26.3096 28.3098 25.662 27.9203L24.6313 29.6343ZM25.4248 30.4728C25.6163 30.8221 25.7247 31.2404 25.7247 31.7542H27.7247C27.7247 30.9472 27.551 30.1907 27.1784 29.5112L25.4248 30.4728ZM25.7247 31.7542C25.7247 32.2494 25.6153 32.6559 25.4184 33.0005L27.1549 33.9927C27.5421 33.3151 27.7247 32.56 27.7247 31.7542H25.7247ZM25.4174 33.0023C25.2165 33.3556 24.9451 33.6298 24.5891 33.8369L25.5947 35.5657C26.2543 35.182 26.7794 34.6532 27.1559 33.9909L25.4174 33.0023ZM24.5933 33.8345C24.2527 34.0304 23.8505 34.1394 23.3595 34.1394V36.1394C24.1628 36.1394 24.9155 35.9564 25.5905 35.5682L24.5933 33.8345ZM34.696 33.168L33.9889 33.8751L34.696 34.5823L35.4031 33.8751L34.696 33.168ZM29.0806 27.5527L28.3735 26.8456L27.6664 27.5527L28.3735 28.2598L29.0806 27.5527ZM29.8373 26.796L30.5444 26.0889L29.8373 25.3818L29.1302 26.0889L29.8373 26.796ZM35.4527 32.4114L36.1598 33.1185L36.8669 32.4114L36.1598 31.7043L35.4527 32.4114ZM29.8373 33.168L29.1302 33.8751L29.8373 34.5823L30.5444 33.8751L29.8373 33.168ZM29.0806 32.4114L28.3735 31.7043L27.6664 32.4114L28.3735 33.1185L29.0806 32.4114ZM34.696 26.796L35.4031 26.0889L34.696 25.3818L33.9889 26.0889L34.696 26.796ZM35.4527 27.5527L36.1598 28.2598L36.8669 27.5527L36.1598 26.8456L35.4527 27.5527ZM35.4031 32.4609L29.7877 26.8456L28.3735 28.2598L33.9889 33.8751L35.4031 32.4609ZM29.7877 28.2598L30.5444 27.5031L29.1302 26.0889L28.3735 26.8456L29.7877 28.2598ZM29.1302 27.5031L34.7456 33.1185L36.1598 31.7043L30.5444 26.0889L29.1302 27.5031ZM34.7456 31.7043L33.9889 32.4609L35.4031 33.8751L36.1598 33.1185L34.7456 31.7043ZM30.5444 32.4609L29.7877 31.7043L28.3735 33.1185L29.1302 33.8751L30.5444 32.4609ZM29.7877 33.1185L35.4031 27.5031L33.9889 26.0889L28.3735 31.7043L29.7877 33.1185ZM33.9889 27.5031L34.7456 28.2598L36.1598 26.8456L35.4031 26.0889L33.9889 27.5031ZM34.7456 26.8456L29.1302 32.4609L30.5444 33.8751L36.1598 28.2598L34.7456 26.8456ZM37.704 32.9092H36.704V33.9092H37.704V32.9092ZM37.704 31.8936L36.8587 31.3594L36.704 31.6041V31.8936H37.704ZM42.1844 24.8048V23.8048H41.6334L41.339 24.2705L42.1844 24.8048ZM42.9211 24.8048H43.9211V23.8048H42.9211V24.8048ZM42.9211 26.3779V27.3779H43.9211V26.3779H42.9211ZM42.4233 26.3779V25.3779H41.8723L41.578 25.8436L42.4233 26.3779ZM39.0382 31.7343L38.1928 31.2001L38.0382 31.4448V31.7343H39.0382ZM39.0382 31.814H38.0382V32.814H39.0382V31.814ZM45.0717 31.814H46.0717V30.814H45.0717V31.814ZM45.0717 32.9092V33.9092H46.0717V32.9092H45.0717ZM42.503 35H41.503V36H42.503V35ZM42.503 24.8048V23.8048H41.503V24.8048H42.503ZM43.6778 24.8048H44.6778V23.8048H43.6778V24.8048ZM43.6778 35V36H44.6778V35H43.6778ZM38.704 32.9092V31.8936H36.704V32.9092H38.704ZM38.5493 32.4279L43.0297 25.339L41.339 24.2705L36.8587 31.3594L38.5493 32.4279ZM42.1844 25.8048H42.9211V23.8048H42.1844V25.8048ZM41.9211 24.8048V26.3779H43.9211V24.8048H41.9211ZM42.9211 25.3779H42.4233V27.3779H42.9211V25.3779ZM41.578 25.8436L38.1928 31.2001L39.8835 32.2686L43.2687 26.9121L41.578 25.8436ZM38.0382 31.7343V31.814H40.0382V31.7343H38.0382ZM39.0382 32.814H45.0717V30.814H39.0382V32.814ZM44.0717 31.814V32.9092H46.0717V31.814H44.0717ZM45.0717 31.9092H37.704V33.9092H45.0717V31.9092ZM43.503 35V32.6005H41.503V35H43.503ZM43.503 32.6005V32.1276H41.503V32.6005H43.503ZM43.503 32.1276V24.8048H41.503V32.1276H43.503ZM42.503 25.8048H43.6778V23.8048H42.503V25.8048ZM42.6778 24.8048V35H44.6778V24.8048H42.6778ZM43.6778 34H42.503V36H43.6778V34Z" fill="#2F5764" mask="url(#path-7-outside-1_84_1872)"/>
<defs>
<linearGradient id="paint0_linear_84_1872" x1="3.72513" y1="32.3054" x2="33.5154" y2="49.1976" gradientUnits="userSpaceOnUse">
<stop stop-color="#4A4A4A"/>
<stop offset="1" stop-color="#303030"/>
</linearGradient>
</defs>
</svg>
