<svg width="64" height="64" viewBox="0 0 64 64" fill="none" xmlns="http://www.w3.org/2000/svg">
<path d="M4.4006 33.9298C3.80774 33.582 3.47546 33.1136 3.47547 32.6257L3.47547 30.5016C3.47547 29.9566 3.88975 29.439 4.60873 29.0857L30.1348 16.5442C31.3579 15.9433 33.1609 15.9544 34.3614 16.5703L60.0608 29.7535C60.7487 30.1064 61.1422 30.6122 61.1422 31.1434V32.5436C61.1422 33.0309 60.8108 33.4987 60.2194 33.8464L34.5631 48.9278C33.3018 49.6692 31.2326 49.6699 29.9699 48.9292L4.4006 33.9298Z" fill="url(#paint0_linear_84_2336)"/>
<rect width="34.7831" height="34.7831" rx="2.62954" transform="matrix(0.866044 -0.499967 0.866044 0.499967 2.14404 30.3906)" fill="white"/>
<rect width="10.8697" height="10.8697" transform="matrix(0.866044 -0.499967 0.866044 0.499967 12.2639 30.3906)" fill="#D9D9D9"/>
<rect width="10.8697" height="10.8697" transform="matrix(0.866044 -0.499967 0.866044 0.499967 22.8542 24.2769)" fill="#D9D9D9"/>
<rect width="10.8697" height="10.8697" transform="matrix(0.866044 -0.499967 0.866044 0.499967 22.8542 36.5044)" fill="#D9D9D9"/>
<rect width="10.8697" height="10.8697" transform="matrix(0.866044 -0.499967 0.866044 0.499967 33.4446 30.3906)" fill="#D9D9D9"/>
<mask id="path-7-outside-1_84_2336" maskUnits="userSpaceOnUse" x="18" y="23" width="28" height="14" fill="black">
<rect fill="white" x="18" y="23" width="28" height="14"/>
<path d="M23.4833 35.1394C23.0652 35.1328 22.647 35.0531 22.2288 34.9004C21.8107 34.7478 21.429 34.4906 21.0839 34.1288C20.7387 33.7638 20.4616 33.2709 20.2525 32.6503C20.0434 32.0264 19.9389 31.2432 19.9389 30.3006C19.9389 29.3979 20.0235 28.5981 20.1928 27.9012C20.362 27.2009 20.6076 26.6118 20.9295 26.1339C21.2515 25.6527 21.6398 25.2876 22.0944 25.0387C22.5524 24.7898 23.0685 24.6654 23.6426 24.6654C24.2135 24.6654 24.7212 24.7799 25.1659 25.0089C25.614 25.2345 25.979 25.5498 26.2611 25.9547C26.5432 26.3596 26.7258 26.8259 26.8087 27.3536H25.5941C25.4812 26.8956 25.2622 26.5156 24.937 26.2136C24.6117 25.9116 24.1803 25.7606 23.6426 25.7606C22.8528 25.7606 22.2305 26.1041 21.7758 26.791C21.3245 27.478 21.0971 28.4421 21.0938 29.6833H21.1735C21.3593 29.4012 21.58 29.1606 21.8356 28.9615C22.0944 28.7591 22.3798 28.6031 22.6918 28.4936C23.0038 28.384 23.334 28.3293 23.6825 28.3293C24.2666 28.3293 24.8009 28.4753 25.2854 28.7674C25.77 29.0561 26.1583 29.456 26.4503 29.9671C26.7424 30.4749 26.8884 31.0573 26.8884 31.7144C26.8884 32.345 26.7473 32.9225 26.4652 33.4468C26.1831 33.9679 25.7866 34.3827 25.2755 34.6914C24.7677 34.9967 24.1703 35.146 23.4833 35.1394ZM23.4833 34.0442C23.9015 34.0442 24.2765 33.9397 24.6084 33.7306C24.9436 33.5215 25.2074 33.2411 25.3999 32.8893C25.5957 32.5375 25.6936 32.1459 25.6936 31.7144C25.6936 31.2929 25.599 30.9096 25.4099 30.5645C25.224 30.216 24.9668 29.9389 24.6383 29.7331C24.313 29.5274 23.9413 29.4245 23.5232 29.4245C23.2079 29.4245 22.9142 29.4875 22.642 29.6136C22.3699 29.7364 22.1309 29.9057 21.9252 30.1214C21.7227 30.3371 21.5634 30.5844 21.4473 30.8632C21.3311 31.1386 21.273 31.429 21.273 31.7343C21.273 32.1392 21.3676 32.5176 21.5568 32.8694C21.7493 33.2211 22.0115 33.5049 22.3433 33.7206C22.6785 33.9363 23.0585 34.0442 23.4833 34.0442ZM34.8397 33.168L29.2244 27.5527L29.9811 26.796L35.5964 32.4114L34.8397 33.168ZM29.9811 33.168L29.2244 32.4114L34.8397 26.796L35.5964 27.5527L29.9811 33.168ZM41.5316 35.1394C40.8745 35.1394 40.2887 35.0266 39.7743 34.8009C39.2632 34.5752 38.8567 34.2616 38.5547 33.86C38.256 33.4551 38.0934 32.9855 38.0668 32.4512H39.3213C39.3479 32.7797 39.4607 33.0635 39.6598 33.3025C39.8589 33.5381 40.1195 33.7206 40.4414 33.85C40.7633 33.9795 41.1201 34.0442 41.5117 34.0442C41.9498 34.0442 42.3381 33.9679 42.6766 33.8152C43.0151 33.6625 43.2806 33.4501 43.4731 33.178C43.6656 32.9059 43.7618 32.5906 43.7618 32.2322C43.7618 31.8571 43.6689 31.5269 43.483 31.2415C43.2972 30.9528 43.025 30.7271 42.6666 30.5645C42.3082 30.4019 41.8701 30.3205 41.3524 30.3205H40.536V29.2253H41.3524C41.7573 29.2253 42.1124 29.1523 42.4177 29.0063C42.7264 28.8603 42.967 28.6545 43.1395 28.389C43.3154 28.1235 43.4034 27.8116 43.4034 27.4531C43.4034 27.108 43.3271 26.8076 43.1744 26.5521C43.0217 26.2965 42.806 26.0974 42.5272 25.9547C42.2518 25.812 41.9265 25.7406 41.5515 25.7406C41.1997 25.7406 40.8679 25.8054 40.5559 25.9348C40.2472 26.0609 39.995 26.2451 39.7992 26.4874C39.6034 26.7263 39.4972 27.0151 39.4806 27.3536H38.2859C38.3058 26.8192 38.4667 26.3513 38.7687 25.9497C39.0707 25.5448 39.4657 25.2296 39.9535 25.0039C40.4447 24.7782 40.984 24.6654 41.5714 24.6654C42.202 24.6654 42.743 24.7931 43.1943 25.0487C43.6457 25.3009 43.9925 25.6344 44.2347 26.0493C44.477 26.4641 44.5981 26.9122 44.5981 27.3934C44.5981 27.9675 44.4471 28.4571 44.1451 28.8619C43.8464 29.2668 43.4399 29.5473 42.9255 29.7033V29.7829C43.5693 29.8891 44.0721 30.1629 44.4339 30.6043C44.7956 31.0424 44.9765 31.585 44.9765 32.2322C44.9765 32.7864 44.8255 33.2842 44.5235 33.7256C44.2248 34.1637 43.8166 34.5088 43.2988 34.761C42.7811 35.0133 42.192 35.1394 41.5316 35.1394Z"/>
</mask>
<path d="M23.4833 35.1394C23.0652 35.1328 22.647 35.0531 22.2288 34.9004C21.8107 34.7478 21.429 34.4906 21.0839 34.1288C20.7387 33.7638 20.4616 33.2709 20.2525 32.6503C20.0434 32.0264 19.9389 31.2432 19.9389 30.3006C19.9389 29.3979 20.0235 28.5981 20.1928 27.9012C20.362 27.2009 20.6076 26.6118 20.9295 26.1339C21.2515 25.6527 21.6398 25.2876 22.0944 25.0387C22.5524 24.7898 23.0685 24.6654 23.6426 24.6654C24.2135 24.6654 24.7212 24.7799 25.1659 25.0089C25.614 25.2345 25.979 25.5498 26.2611 25.9547C26.5432 26.3596 26.7258 26.8259 26.8087 27.3536H25.5941C25.4812 26.8956 25.2622 26.5156 24.937 26.2136C24.6117 25.9116 24.1803 25.7606 23.6426 25.7606C22.8528 25.7606 22.2305 26.1041 21.7758 26.791C21.3245 27.478 21.0971 28.4421 21.0938 29.6833H21.1735C21.3593 29.4012 21.58 29.1606 21.8356 28.9615C22.0944 28.7591 22.3798 28.6031 22.6918 28.4936C23.0038 28.384 23.334 28.3293 23.6825 28.3293C24.2666 28.3293 24.8009 28.4753 25.2854 28.7674C25.77 29.0561 26.1583 29.456 26.4503 29.9671C26.7424 30.4749 26.8884 31.0573 26.8884 31.7144C26.8884 32.345 26.7473 32.9225 26.4652 33.4468C26.1831 33.9679 25.7866 34.3827 25.2755 34.6914C24.7677 34.9967 24.1703 35.146 23.4833 35.1394ZM23.4833 34.0442C23.9015 34.0442 24.2765 33.9397 24.6084 33.7306C24.9436 33.5215 25.2074 33.2411 25.3999 32.8893C25.5957 32.5375 25.6936 32.1459 25.6936 31.7144C25.6936 31.2929 25.599 30.9096 25.4099 30.5645C25.224 30.216 24.9668 29.9389 24.6383 29.7331C24.313 29.5274 23.9413 29.4245 23.5232 29.4245C23.2079 29.4245 22.9142 29.4875 22.642 29.6136C22.3699 29.7364 22.1309 29.9057 21.9252 30.1214C21.7227 30.3371 21.5634 30.5844 21.4473 30.8632C21.3311 31.1386 21.273 31.429 21.273 31.7343C21.273 32.1392 21.3676 32.5176 21.5568 32.8694C21.7493 33.2211 22.0115 33.5049 22.3433 33.7206C22.6785 33.9363 23.0585 34.0442 23.4833 34.0442ZM34.8397 33.168L29.2244 27.5527L29.9811 26.796L35.5964 32.4114L34.8397 33.168ZM29.9811 33.168L29.2244 32.4114L34.8397 26.796L35.5964 27.5527L29.9811 33.168ZM41.5316 35.1394C40.8745 35.1394 40.2887 35.0266 39.7743 34.8009C39.2632 34.5752 38.8567 34.2616 38.5547 33.86C38.256 33.4551 38.0934 32.9855 38.0668 32.4512H39.3213C39.3479 32.7797 39.4607 33.0635 39.6598 33.3025C39.8589 33.5381 40.1195 33.7206 40.4414 33.85C40.7633 33.9795 41.1201 34.0442 41.5117 34.0442C41.9498 34.0442 42.3381 33.9679 42.6766 33.8152C43.0151 33.6625 43.2806 33.4501 43.4731 33.178C43.6656 32.9059 43.7618 32.5906 43.7618 32.2322C43.7618 31.8571 43.6689 31.5269 43.483 31.2415C43.2972 30.9528 43.025 30.7271 42.6666 30.5645C42.3082 30.4019 41.8701 30.3205 41.3524 30.3205H40.536V29.2253H41.3524C41.7573 29.2253 42.1124 29.1523 42.4177 29.0063C42.7264 28.8603 42.967 28.6545 43.1395 28.389C43.3154 28.1235 43.4034 27.8116 43.4034 27.4531C43.4034 27.108 43.3271 26.8076 43.1744 26.5521C43.0217 26.2965 42.806 26.0974 42.5272 25.9547C42.2518 25.812 41.9265 25.7406 41.5515 25.7406C41.1997 25.7406 40.8679 25.8054 40.5559 25.9348C40.2472 26.0609 39.995 26.2451 39.7992 26.4874C39.6034 26.7263 39.4972 27.0151 39.4806 27.3536H38.2859C38.3058 26.8192 38.4667 26.3513 38.7687 25.9497C39.0707 25.5448 39.4657 25.2296 39.9535 25.0039C40.4447 24.7782 40.984 24.6654 41.5714 24.6654C42.202 24.6654 42.743 24.7931 43.1943 25.0487C43.6457 25.3009 43.9925 25.6344 44.2347 26.0493C44.477 26.4641 44.5981 26.9122 44.5981 27.3934C44.5981 27.9675 44.4471 28.4571 44.1451 28.8619C43.8464 29.2668 43.4399 29.5473 42.9255 29.7033V29.7829C43.5693 29.8891 44.0721 30.1629 44.4339 30.6043C44.7956 31.0424 44.9765 31.585 44.9765 32.2322C44.9765 32.7864 44.8255 33.2842 44.5235 33.7256C44.2248 34.1637 43.8166 34.5088 43.2988 34.761C42.7811 35.0133 42.192 35.1394 41.5316 35.1394Z" fill="#00C1FF"/>
<path d="M23.4833 35.1394L23.4675 36.1393L23.4737 36.1393L23.4833 35.1394ZM22.2288 34.9004L21.8859 35.8398L21.8859 35.8398L22.2288 34.9004ZM21.0839 34.1288L20.3572 34.8158L20.3604 34.8191L21.0839 34.1288ZM20.2525 32.6503L19.3043 32.9681L19.3049 32.9696L20.2525 32.6503ZM20.1928 27.9012L21.1645 28.1372L21.1648 28.1361L20.1928 27.9012ZM20.9295 26.1339L21.7589 26.6926L21.7607 26.6899L20.9295 26.1339ZM22.0944 25.0387L21.6169 24.1601L21.6142 24.1616L22.0944 25.0387ZM25.1659 25.0089L24.7081 25.898L24.7161 25.902L25.1659 25.0089ZM26.2611 25.9547L27.0816 25.3831L27.0816 25.3831L26.2611 25.9547ZM26.8087 27.3536V28.3536H27.9783L27.7966 27.1982L26.8087 27.3536ZM25.5941 27.3536L24.6231 27.5928L24.8105 28.3536H25.5941V27.3536ZM24.937 26.2136L24.2565 26.9464L24.2565 26.9464L24.937 26.2136ZM21.7758 26.791L20.9419 26.2391L20.9401 26.2419L21.7758 26.791ZM21.0938 29.6833L20.0938 29.6807L20.0911 30.6833H21.0938V29.6833ZM21.1735 29.6833V30.6833H21.7122L22.0085 30.2335L21.1735 29.6833ZM21.8356 28.9615L22.4502 29.7503L22.4516 29.7492L21.8356 28.9615ZM22.6918 28.4936L22.3606 27.55L22.6918 28.4936ZM25.2854 28.7674L24.7692 29.6238L24.7735 29.6264L25.2854 28.7674ZM26.4503 29.9671L25.5821 30.4632L25.5835 30.4657L26.4503 29.9671ZM26.4652 33.4468L27.3446 33.9229L27.3459 33.9206L26.4652 33.4468ZM25.2755 34.6914L25.7908 35.5484L25.7924 35.5474L25.2755 34.6914ZM24.6084 33.7306L24.0791 32.8821L24.0754 32.8845L24.6084 33.7306ZM25.3999 32.8893L24.5261 32.4029L24.5227 32.4093L25.3999 32.8893ZM25.4099 30.5645L24.5275 31.0351L24.5329 31.0451L25.4099 30.5645ZM24.6383 29.7331L24.1036 30.5782L24.1075 30.5806L24.6383 29.7331ZM22.642 29.6136L23.0533 30.5252L23.0625 30.521L22.642 29.6136ZM21.9252 30.1214L21.2015 29.4312L21.196 29.4371L21.9252 30.1214ZM21.4473 30.8632L22.3687 31.2517L22.3703 31.2478L21.4473 30.8632ZM21.5568 32.8694L20.676 33.343L20.6795 33.3494L21.5568 32.8694ZM22.3433 33.7206L21.7983 34.5591L21.8022 34.5615L22.3433 33.7206ZM23.4992 34.1395C23.1997 34.1348 22.8919 34.0779 22.5718 33.9611L21.8859 35.8398C22.4022 36.0283 22.9307 36.1307 23.4675 36.1393L23.4992 34.1395ZM22.5718 33.9611C22.3148 33.8673 22.0597 33.7029 21.8074 33.4385L20.3604 34.8191C20.7984 35.2782 21.3065 35.6283 21.8859 35.8398L22.5718 33.9611ZM21.8105 33.4418C21.5901 33.2087 21.3765 32.8544 21.2002 32.331L19.3049 32.9696C19.5467 33.6874 19.8873 34.3188 20.3572 34.8158L21.8105 33.4418ZM21.2007 32.3326C21.0373 31.8449 20.9389 31.1778 20.9389 30.3006H18.9389C18.9389 31.3085 19.0496 32.2079 19.3043 32.9681L21.2007 32.3326ZM20.9389 30.3006C20.9389 29.458 21.0181 28.74 21.1645 28.1372L19.221 27.6652C19.0289 28.4562 18.9389 29.3379 18.9389 30.3006H20.9389ZM21.1648 28.1361C21.3128 27.5236 21.5177 27.0507 21.7589 26.6926L20.1002 25.5752C19.6976 26.1729 19.4112 26.8782 19.2208 27.6662L21.1648 28.1361ZM21.7607 26.6899C22.0038 26.3266 22.2769 26.0789 22.5746 25.9159L21.6142 24.1616C21.0026 24.4964 20.4991 24.9788 20.0984 25.5779L21.7607 26.6899ZM22.5719 25.9174C22.8689 25.756 23.218 25.6654 23.6426 25.6654V23.6654C22.919 23.6654 22.2359 23.8237 21.6169 24.1601L22.5719 25.9174ZM23.6426 25.6654C24.0768 25.6654 24.4239 25.7515 24.7081 25.8979L25.6237 24.1198C25.0186 23.8082 24.3501 23.6654 23.6426 23.6654V25.6654ZM24.7161 25.902C25.0184 26.0542 25.2551 26.2601 25.4406 26.5264L27.0816 25.3831C26.703 24.8396 26.2096 24.4149 25.6158 24.1158L24.7161 25.902ZM25.4406 26.5264C25.6291 26.7969 25.7595 27.1183 25.8209 27.5089L27.7966 27.1982C27.6921 26.5335 27.4573 25.9223 27.0816 25.3831L25.4406 26.5264ZM26.8087 26.3536H25.5941V28.3536H26.8087V26.3536ZM26.565 27.1143C26.4086 26.4795 26.0947 25.9239 25.6174 25.4808L24.2565 26.9464C24.4297 27.1072 24.5538 27.3117 24.6231 27.5928L26.565 27.1143ZM25.6174 25.4808C25.0697 24.9722 24.3764 24.7606 23.6426 24.7606V26.7606C23.9842 26.7606 24.1537 26.8509 24.2565 26.9464L25.6174 25.4808ZM23.6426 24.7606C22.5003 24.7606 21.5722 25.2868 20.9419 26.2391L22.6097 27.3429C22.8888 26.9214 23.2052 26.7606 23.6426 26.7606V24.7606ZM20.9401 26.2419C20.3406 27.1543 20.0974 28.3377 20.0938 29.6807L22.0938 29.686C22.0969 28.5465 22.3083 27.8017 22.6116 27.3401L20.9401 26.2419ZM21.0938 30.6833H21.1735V28.6833H21.0938V30.6833ZM22.0085 30.2335C22.137 30.0385 22.2843 29.8796 22.4502 29.7503L21.2209 28.1727C20.8758 28.4417 20.5816 28.764 20.3384 29.1332L22.0085 30.2335ZM22.4516 29.7492C22.6241 29.6143 22.8132 29.5108 23.0231 29.4371L22.3606 27.55C21.9465 27.6954 21.5647 27.9038 21.2195 28.1738L22.4516 29.7492ZM23.0231 29.4371C23.2229 29.3669 23.4407 29.3293 23.6825 29.3293V27.3293C23.2273 27.3293 22.7846 27.4012 22.3606 27.55L23.0231 29.4371ZM23.6825 29.3293C24.0908 29.3293 24.4457 29.4288 24.7692 29.6238L25.8016 27.9109C25.1561 27.5218 24.4423 27.3293 23.6825 27.3293V29.3293ZM24.7735 29.6264C25.1034 29.823 25.3717 30.095 25.5821 30.4632L27.3186 29.471C26.9449 28.817 26.4365 28.2892 25.7973 27.9083L24.7735 29.6264ZM25.5835 30.4657C25.778 30.8039 25.8884 31.2105 25.8884 31.7144H27.8884C27.8884 30.9041 27.7067 30.1458 27.3172 29.4685L25.5835 30.4657ZM25.8884 31.7144C25.8884 32.1897 25.7837 32.6029 25.5846 32.9731L27.3459 33.9206C27.711 33.242 27.8884 32.5003 27.8884 31.7144H25.8884ZM25.5859 32.9707C25.3893 33.3338 25.1183 33.618 24.7585 33.8353L25.7924 35.5474C26.4548 35.1474 26.977 34.6019 27.3446 33.9229L25.5859 32.9707ZM24.7601 33.8344C24.4347 34.0301 24.0251 34.1446 23.493 34.1394L23.4737 36.1393C24.3155 36.1475 25.1007 35.9633 25.7908 35.5484L24.7601 33.8344ZM23.4833 35.0442C24.0771 35.0442 24.6393 34.893 25.1414 34.5767L24.0754 32.8845C23.9138 32.9863 23.7259 33.0442 23.4833 33.0442V35.0442ZM25.1376 34.579C25.6208 34.2776 26.0036 33.8694 26.2772 33.3693L24.5227 32.4093C24.4113 32.6128 24.2663 32.7653 24.0791 32.8821L25.1376 34.579ZM26.2737 33.3756C26.5582 32.8645 26.6936 32.3035 26.6936 31.7144H24.6936C24.6936 31.9882 24.6333 32.2105 24.5262 32.4029L26.2737 33.3756ZM26.6936 31.7144C26.6936 31.1372 26.5624 30.5867 26.2868 30.0838L24.5329 31.0451C24.6357 31.2325 24.6936 31.4487 24.6936 31.7144H26.6936ZM26.2922 30.0939C26.0257 29.5942 25.6486 29.1859 25.169 28.8856L24.1075 30.5806C24.2851 30.6918 24.4223 30.8378 24.5275 31.0351L26.2922 30.0939ZM25.1729 28.888C24.6739 28.5723 24.1136 28.4245 23.5232 28.4245V30.4245C23.7691 30.4245 23.9521 30.4824 24.1036 30.5782L25.1729 28.888ZM23.5232 28.4245C23.0703 28.4245 22.6322 28.516 22.2216 28.7063L23.0625 30.521C23.1961 30.459 23.3455 30.4245 23.5232 30.4245V28.4245ZM22.2307 28.7021C21.8414 28.8778 21.4963 29.1222 21.2016 29.4312L22.6488 30.8116C22.7655 30.6892 22.8984 30.5951 23.0533 30.5252L22.2307 28.7021ZM21.196 29.4371C20.9097 29.7421 20.6855 30.0914 20.5242 30.4785L22.3703 31.2478C22.4414 31.0774 22.5357 30.9321 22.6544 30.8057L21.196 29.4371ZM20.5258 30.4746C20.3567 30.8757 20.273 31.2985 20.273 31.7343H22.273C22.273 31.5596 22.3055 31.4015 22.3687 31.2517L20.5258 30.4746ZM20.273 31.7343C20.273 32.3022 20.4075 32.8435 20.6761 33.343L22.4375 32.3957C22.3278 32.1916 22.273 31.9763 22.273 31.7343H20.273ZM20.6795 33.3494C20.9503 33.8443 21.3259 34.252 21.7983 34.5591L22.8883 32.8822C22.697 32.7578 22.5482 32.598 22.4341 32.3893L20.6795 33.3494ZM21.8022 34.5615C22.3095 34.888 22.8798 35.0442 23.4833 35.0442V33.0442C23.2373 33.0442 23.0476 32.9846 22.8845 32.8797L21.8022 34.5615ZM34.8397 33.168L34.1326 33.8751L34.8397 34.5823L35.5468 33.8751L34.8397 33.168ZM29.2244 27.5527L28.5173 26.8456L27.8102 27.5527L28.5173 28.2598L29.2244 27.5527ZM29.9811 26.796L30.6882 26.0889L29.9811 25.3818L29.274 26.0889L29.9811 26.796ZM35.5964 32.4114L36.3035 33.1185L37.0106 32.4114L36.3035 31.7043L35.5964 32.4114ZM29.9811 33.168L29.274 33.8751L29.9811 34.5823L30.6882 33.8751L29.9811 33.168ZM29.2244 32.4114L28.5173 31.7043L27.8102 32.4114L28.5173 33.1185L29.2244 32.4114ZM34.8397 26.796L35.5468 26.0889L34.8397 25.3818L34.1326 26.0889L34.8397 26.796ZM35.5964 27.5527L36.3035 28.2598L37.0106 27.5527L36.3035 26.8456L35.5964 27.5527ZM35.5468 32.4609L29.9315 26.8456L28.5173 28.2598L34.1326 33.8751L35.5468 32.4609ZM29.9315 28.2598L30.6882 27.5031L29.274 26.0889L28.5173 26.8456L29.9315 28.2598ZM29.274 27.5031L34.8893 33.1185L36.3035 31.7043L30.6882 26.0889L29.274 27.5031ZM34.8893 31.7043L34.1326 32.4609L35.5468 33.8751L36.3035 33.1185L34.8893 31.7043ZM30.6882 32.4609L29.9315 31.7043L28.5173 33.1185L29.274 33.8751L30.6882 32.4609ZM29.9315 33.1185L35.5468 27.5031L34.1326 26.0889L28.5173 31.7043L29.9315 33.1185ZM34.1326 27.5031L34.8893 28.2598L36.3035 26.8456L35.5468 26.0889L34.1326 27.5031ZM34.8893 26.8456L29.274 32.4609L30.6882 33.8751L36.3035 28.2598L34.8893 26.8456ZM39.7743 34.8009L39.3704 35.7157L39.3726 35.7166L39.7743 34.8009ZM38.5547 33.86L37.7499 34.4537L37.7555 34.4611L38.5547 33.86ZM38.0668 32.4512V31.4512H37.0159L37.068 32.5008L38.0668 32.4512ZM39.3213 32.4512L40.3181 32.3706L40.2438 31.4512H39.3213V32.4512ZM39.6598 33.3025L38.8916 33.9427L38.896 33.9479L39.6598 33.3025ZM40.4414 33.85L40.0683 34.7779L40.0683 34.7779L40.4414 33.85ZM43.4731 33.178L42.6567 32.6005L42.6567 32.6005L43.4731 33.178ZM43.483 31.2415L42.6422 31.7828L42.645 31.7872L43.483 31.2415ZM42.6666 30.5645L42.2535 31.4751L42.2535 31.4751L42.6666 30.5645ZM40.536 30.3205H39.536V31.3205H40.536V30.3205ZM40.536 29.2253V28.2253H39.536V29.2253H40.536ZM42.4177 29.0063L41.99 28.1024L41.9863 28.1042L42.4177 29.0063ZM43.1395 28.389L42.3059 27.8367L42.3011 27.844L43.1395 28.389ZM43.1744 26.5521L44.0329 26.0392L44.0329 26.0392L43.1744 26.5521ZM42.5272 25.9547L42.0672 26.8426L42.0716 26.8449L42.5272 25.9547ZM40.5559 25.9348L40.9341 26.8605L40.9391 26.8585L40.5559 25.9348ZM39.7992 26.4874L40.5727 27.1212L40.5769 27.116L39.7992 26.4874ZM39.4806 27.3536V28.3536H40.4328L40.4794 27.4025L39.4806 27.3536ZM38.2859 27.3536L37.2865 27.3163L37.2479 28.3536H38.2859V27.3536ZM38.7687 25.9497L39.5679 26.5508L39.5703 26.5476L38.7687 25.9497ZM39.9535 25.0039L39.536 24.0952L39.5337 24.0963L39.9535 25.0039ZM43.1943 25.0487L42.7016 25.9189L42.7065 25.9216L43.1943 25.0487ZM44.2347 26.0493L43.3712 26.5536L43.3712 26.5536L44.2347 26.0493ZM44.1451 28.8619L43.3435 28.264L43.3404 28.2683L44.1451 28.8619ZM42.9255 29.7033L42.6353 28.7463L41.9255 28.9615V29.7033H42.9255ZM42.9255 29.7829H41.9255V30.6315L42.7627 30.7696L42.9255 29.7829ZM44.4339 30.6043L43.6604 31.2382L43.6628 31.241L44.4339 30.6043ZM44.5235 33.7256L43.6982 33.1609L43.6972 33.1623L44.5235 33.7256ZM43.2988 34.761L43.7368 35.66L43.7368 35.66L43.2988 34.761ZM41.5316 34.1394C40.9896 34.1394 40.5442 34.0466 40.1761 33.8851L39.3726 35.7166C40.0333 36.0065 40.7594 36.1394 41.5316 36.1394V34.1394ZM40.1783 33.8861C39.8057 33.7216 39.542 33.5091 39.3539 33.2589L37.7555 34.4611C38.1714 35.0141 38.7208 35.4288 39.3704 35.7157L40.1783 33.8861ZM39.3594 33.2664C39.185 33.03 39.083 32.7525 39.0656 32.4016L37.068 32.5008C37.1037 33.2186 37.3269 33.8802 37.7499 34.4537L39.3594 33.2664ZM38.0668 33.4512H39.3213V31.4512H38.0668V33.4512ZM38.3246 32.5317C38.3667 33.0529 38.5523 33.5354 38.8916 33.9426L40.428 32.6623C40.3691 32.5916 40.329 32.5066 40.3181 32.3706L38.3246 32.5317ZM38.896 33.9479C39.213 34.323 39.6142 34.5953 40.0683 34.7779L40.8144 32.9222C40.6247 32.846 40.5049 32.7532 40.4236 32.657L38.896 33.9479ZM40.0683 34.7779C40.5232 34.9607 41.0086 35.0442 41.5117 35.0442V33.0442C41.2315 33.0442 41.0035 32.9982 40.8144 32.9222L40.0683 34.7779ZM41.5117 35.0442C42.0663 35.0442 42.5988 34.9473 43.0877 34.7268L42.2655 32.9036C42.0773 32.9885 41.8332 33.0442 41.5117 33.0442V35.0442ZM43.0877 34.7268C43.5697 34.5094 43.9827 34.1892 44.2895 33.7555L42.6567 32.6005C42.5785 32.7111 42.4605 32.8157 42.2655 32.9036L43.0877 34.7268ZM44.2895 33.7555C44.6106 33.3015 44.7618 32.781 44.7618 32.2322H42.7618C42.7618 32.4002 42.7206 32.5102 42.6567 32.6005L44.2895 33.7555ZM44.7618 32.2322C44.7618 31.6837 44.6232 31.1598 44.321 30.6958L42.645 31.7872C42.7146 31.894 42.7618 32.0305 42.7618 32.2322H44.7618ZM44.3239 30.7003C44.0194 30.2272 43.5871 29.884 43.0798 29.6538L42.2535 31.4751C42.463 31.5702 42.575 31.6784 42.6422 31.7827L44.3239 30.7003ZM43.0798 29.6538C42.5575 29.4168 41.9697 29.3205 41.3524 29.3205V31.3205C41.7705 31.3205 42.0589 31.3869 42.2535 31.4751L43.0798 29.6538ZM41.3524 29.3205H40.536V31.3205H41.3524V29.3205ZM41.536 30.3205V29.2253H39.536V30.3205H41.536ZM40.536 30.2253H41.3524V28.2253H40.536V30.2253ZM41.3524 30.2253C41.8776 30.2253 42.3853 30.1303 42.8492 29.9084L41.9863 28.1042C41.8395 28.1744 41.6369 28.2253 41.3524 28.2253V30.2253ZM42.8454 29.9102C43.3079 29.6914 43.6965 29.3671 43.978 28.934L42.3011 27.844C42.2375 27.942 42.1448 28.0292 41.99 28.1024L42.8454 29.9102ZM43.9732 28.9413C44.2708 28.492 44.4034 27.9825 44.4034 27.4531H42.4034C42.4034 27.6406 42.36 27.755 42.3059 27.8367L43.9732 28.9413ZM44.4034 27.4531C44.4034 26.9566 44.2921 26.4731 44.0329 26.0392L42.3159 27.0649C42.362 27.1421 42.4034 27.2593 42.4034 27.4531H44.4034ZM44.0329 26.0392C43.7789 25.6141 43.4196 25.2881 42.9829 25.0646L42.0716 26.8449C42.1924 26.9067 42.2646 26.979 42.3159 27.0649L44.0329 26.0392ZM42.9872 25.0668C42.5429 24.8366 42.0535 24.7406 41.5515 24.7406V26.7406C41.7995 26.7406 41.9607 26.7874 42.0672 26.8426L42.9872 25.0668ZM41.5515 24.7406C41.0738 24.7406 40.6111 24.8292 40.1727 25.0111L40.9391 26.8585C41.1246 26.7815 41.3257 26.7406 41.5515 26.7406V24.7406ZM40.1776 25.0091C39.7242 25.1944 39.3307 25.4762 39.0215 25.8588L40.5769 27.116C40.6593 27.014 40.7703 26.9275 40.9341 26.8605L40.1776 25.0091ZM39.0257 25.8535C38.6808 26.2745 38.5078 26.7739 38.4818 27.3046L40.4794 27.4025C40.4866 27.2562 40.526 27.1782 40.5727 27.1212L39.0257 25.8535ZM39.4806 26.3536H38.2859V28.3536H39.4806V26.3536ZM39.2852 27.3908C39.298 27.0466 39.3967 26.7785 39.5679 26.5508L37.9695 25.3487C37.5368 25.9241 37.3135 26.5919 37.2865 27.3163L39.2852 27.3908ZM39.5703 26.5476C39.7664 26.2847 40.0266 26.0719 40.3734 25.9115L39.5337 24.0963C38.9048 24.3872 38.375 24.805 37.9672 25.3518L39.5703 26.5476ZM40.371 25.9126C40.7202 25.7521 41.1155 25.6654 41.5714 25.6654V23.6654C40.8526 23.6654 40.1692 23.8043 39.536 24.0952L40.371 25.9126ZM41.5714 25.6654C42.0664 25.6654 42.4298 25.765 42.7016 25.9189L43.687 24.1785C43.0561 23.8213 42.3376 23.6654 41.5714 23.6654V25.6654ZM42.7065 25.9216C43.0142 26.0936 43.2259 26.3047 43.3712 26.5536L45.0983 25.545C44.7591 24.9642 44.2771 24.5082 43.6821 24.1757L42.7065 25.9216ZM43.3712 26.5536C43.5239 26.8151 43.5981 27.0891 43.5981 27.3934H45.5981C45.5981 26.7353 45.4301 26.1131 45.0983 25.545L43.3712 26.5536ZM43.5981 27.3934C43.5981 27.7828 43.4995 28.055 43.3436 28.264L44.9467 29.4598C45.3948 28.8591 45.5981 28.1522 45.5981 27.3934H43.5981ZM43.3404 28.2683C43.1786 28.4876 42.9585 28.6483 42.6353 28.7463L43.2157 30.6602C43.9213 30.4463 44.5143 30.0461 44.9499 29.4556L43.3404 28.2683ZM41.9255 29.7033V29.7829H43.9255V29.7033H41.9255ZM42.7627 30.7696C43.2035 30.8423 43.4746 31.0115 43.6604 31.2382L45.2073 29.9704C44.6696 29.3143 43.9351 28.9359 43.0882 28.7962L42.7627 30.7696ZM43.6628 31.241C43.8561 31.4752 43.9765 31.7832 43.9765 32.2322H45.9765C45.9765 31.3868 45.7351 30.6095 45.2049 29.9676L43.6628 31.241ZM43.9765 32.2322C43.9765 32.5926 43.8821 32.8921 43.6982 33.1609L45.3488 34.2903C45.7689 33.6763 45.9765 32.9802 45.9765 32.2322H43.9765ZM43.6972 33.1623C43.5049 33.4443 43.2361 33.6793 42.8609 33.8621L43.7368 35.66C44.3971 35.3384 44.9446 34.883 45.3497 34.2889L43.6972 33.1623ZM42.8609 33.8621C42.4983 34.0387 42.0626 34.1394 41.5316 34.1394V36.1394C42.3215 36.1394 43.0639 35.9879 43.7368 35.66L42.8609 33.8621Z" fill="#2F5764" mask="url(#path-7-outside-1_84_2336)"/>
<defs>
<linearGradient id="paint0_linear_84_2336" x1="3.72513" y1="32.3054" x2="33.5154" y2="49.1976" gradientUnits="userSpaceOnUse">
<stop stop-color="#4A4A4A"/>
<stop offset="1" stop-color="#303030"/>
</linearGradient>
</defs>
</svg>
