<svg width="32" height="32" viewBox="0 0 32 32" fill="none" xmlns="http://www.w3.org/2000/svg">
<rect width="32" height="32" fill="black" fill-opacity="0.2"/>
<path opacity="0.5" fill-rule="evenodd" clip-rule="evenodd" d="M12 8H28V24H12C7.58172 24 4 20.4183 4 16C4 11.5817 7.58172 8 12 8Z" fill="white"/>
<g opacity="0.5">
<mask id="path-2-outside-1_122_852" maskUnits="userSpaceOnUse" x="3" y="7" width="26" height="18" fill="black">
<rect fill="white" x="3" y="7" width="26" height="18"/>
<path fill-rule="evenodd" clip-rule="evenodd" d="M12 8H28V24H12C7.58172 24 4 20.4183 4 16C4 11.5817 7.58172 8 12 8Z"/>
</mask>
<path d="M28 8H29V7H28V8ZM28 24V25H29V24H28ZM12 9H28V7H12V9ZM27 8V24H29V8H27ZM28 23H12V25H28V23ZM12 23C8.13401 23 5 19.866 5 16H3C3 20.9706 7.02944 25 12 25V23ZM5 16C5 12.134 8.13401 9 12 9V7C7.02944 7 3 11.0294 3 16H5Z" fill="white" mask="url(#path-2-outside-1_122_852)"/>
</g>
<circle cx="12" cy="16" r="8" fill="white"/>
</svg>
