<svg width="64" height="64" viewBox="0 0 64 64" fill="none" xmlns="http://www.w3.org/2000/svg">
<rect width="35.8551" height="35.8551" rx="4.37833" transform="matrix(0.866025 0.5 -0.866025 0.5 31.8887 19)" fill="url(#paint0_linear_2122_5527)"/>
<rect width="26.8913" height="4.48189" transform="matrix(0.866025 0.5 0 1 4.71875 39.1685)" fill="url(#paint1_linear_2122_5527)"/>
<rect width="26.8913" height="4.48189" transform="matrix(0.866025 -0.5 0 1 35.7695 52.6143)" fill="url(#paint2_linear_2122_5527)"/>
<path d="M3.11133 36.9275C3.11133 37.8026 3.72572 38.5949 4.71907 39.1684V43.6503C3.72572 43.0768 3.11133 42.2845 3.11133 41.4094V36.9275Z" fill="url(#paint3_linear_2122_5527)"/>
<path d="M28.0059 52.6143C30.1495 53.8519 33.6251 53.8519 35.7687 52.6143V57.0961C33.6251 58.3338 30.1495 58.3338 28.0059 57.0961V52.6143Z" fill="url(#paint4_linear_2122_5527)"/>
<path d="M60.6663 36.9275C60.6663 37.8026 60.0519 38.5949 59.0586 39.1684V43.6503C60.0519 43.0768 60.6663 42.2845 60.6663 41.4094V36.9275Z" fill="url(#paint5_linear_2122_5527)"/>
<g clip-path="url(#clip0_2122_5527)">
<rect width="35.8992" height="35.8992" rx="4.44179" transform="matrix(0.866025 0.5 -0.866025 0.5 31.9102 19)" fill="url(#paint6_linear_2122_5527)"/>
<rect width="11.5594" height="11.5594" transform="matrix(0.866025 0.5 -0.866025 0.5 31.9102 19)" fill="black" fill-opacity="0.1"/>
<rect width="11.5594" height="11.5594" transform="matrix(0.866025 0.5 -0.866025 0.5 21.3711 25.085)" fill="black" fill-opacity="0.1"/>
<rect width="11.5594" height="11.5594" transform="matrix(0.866025 0.5 -0.866025 0.5 21.3711 37.2549)" fill="black" fill-opacity="0.1"/>
<rect width="11.5594" height="11.5594" transform="matrix(0.866025 0.5 -0.866025 0.5 42.4492 25.085)" fill="black" fill-opacity="0.1"/>
<rect width="11.5594" height="11.5594" transform="matrix(0.866025 0.5 -0.866025 0.5 42.4492 37.2549)" fill="black" fill-opacity="0.1"/>
<rect width="11.5594" height="11.5594" transform="matrix(0.866025 0.5 -0.866025 0.5 52.9883 31.1699)" fill="black" fill-opacity="0.1"/>
<rect width="11.5594" height="11.5594" transform="matrix(0.866025 0.5 -0.866025 0.5 10.832 31.1699)" fill="black" fill-opacity="0.1"/>
<rect width="11.5594" height="11.5594" transform="matrix(0.866025 0.5 -0.866025 0.5 31.9102 43.3398)" fill="black" fill-opacity="0.1"/>
<rect width="11.5594" height="11.5594" transform="matrix(0.866025 0.5 -0.866025 0.5 31.9102 31.1699)" fill="black" fill-opacity="0.1"/>
</g>
<rect width="36.3283" height="36.3283" rx="4.43612" transform="matrix(0.866025 0.5 -0.866025 0.5 31.4785 18.4607)" fill="url(#paint7_linear_2122_5527)"/>
<rect width="27.2462" height="4.54104" transform="matrix(0.866025 0.5 0 1 3.94922 38.8958)" fill="url(#paint8_linear_2122_5527)"/>
<rect width="27.2462" height="4.54104" transform="matrix(0.866025 -0.5 0 1 35.4102 52.5186)" fill="url(#paint9_linear_2122_5527)"/>
<path d="M2.32031 36.625C2.32031 37.5117 2.94282 38.3144 3.94927 38.8955V43.4366C2.94282 42.8555 2.32031 42.0527 2.32031 41.166V36.625Z" fill="url(#paint10_linear_2122_5527)"/>
<path d="M27.5449 52.5186C29.7169 53.7725 33.2383 53.7725 35.4102 52.5186V57.0596C33.2383 58.3136 29.7169 58.3136 27.5449 57.0596V52.5186Z" fill="url(#paint11_linear_2122_5527)"/>
<path d="M60.6348 36.625C60.6348 37.5117 60.0123 38.3144 59.0059 38.8955V43.4366C60.0123 42.8555 60.6348 42.0527 60.6348 41.166V36.625Z" fill="url(#paint12_linear_2122_5527)"/>
<g clip-path="url(#clip1_2122_5527)">
<rect width="11.712" height="11.712" transform="matrix(0.866025 0.5 -0.866025 0.5 31.5 18.4607)" fill="white" fill-opacity="0.2"/>
<rect width="11.712" height="11.712" transform="matrix(0.866025 0.5 -0.866025 0.5 20.8223 24.626)" fill="white" fill-opacity="0.2"/>
<rect width="11.712" height="11.712" transform="matrix(0.866025 0.5 -0.866025 0.5 20.8223 36.9565)" fill="white" fill-opacity="0.2"/>
<rect width="11.712" height="11.712" transform="matrix(0.866025 0.5 -0.866025 0.5 42.1777 24.626)" fill="white" fill-opacity="0.2"/>
<rect width="11.712" height="11.712" transform="matrix(0.866025 0.5 -0.866025 0.5 42.1777 36.9565)" fill="white" fill-opacity="0.2"/>
<rect width="11.712" height="11.712" transform="matrix(0.866025 0.5 -0.866025 0.5 52.8574 30.7913)" fill="white" fill-opacity="0.2"/>
<rect width="11.712" height="11.712" transform="matrix(0.866025 0.5 -0.866025 0.5 10.1426 30.7913)" fill="white" fill-opacity="0.2"/>
<rect width="11.712" height="11.712" transform="matrix(0.866025 0.5 -0.866025 0.5 31.5 43.1221)" fill="white" fill-opacity="0.2"/>
<rect width="11.712" height="11.712" transform="matrix(0.866025 0.5 -0.866025 0.5 31.5 30.7913)" fill="white" fill-opacity="0.2"/>
</g>
<mask id="path-33-outside-1_2122_5527" maskUnits="userSpaceOnUse" x="11" y="19" width="42" height="20" fill="black">
<rect fill="white" x="11" y="19" width="42" height="20"/>
<path d="M20.0999 20.2299V37H16.5543V23.5954H16.456L12.6156 26.0028V22.8585L16.7672 20.2299H20.0999ZM34.3786 34.6745L24.5933 24.9056L26.7387 22.7356L36.5322 32.5291L34.3786 34.6745ZM26.7387 34.6745L24.5933 32.5291L34.3786 22.7356L36.5322 24.9056L26.7387 34.6745ZM45.8834 37.2293C44.7261 37.2293 43.6944 37.0164 42.7882 36.5906C41.8874 36.1648 41.1723 35.5779 40.6428 34.83C40.1133 34.0822 39.8376 33.2251 39.8157 32.2589H43.2549C43.2931 32.9085 43.5661 33.4353 44.0738 33.8392C44.5814 34.2432 45.1847 34.4452 45.8834 34.4452C46.4402 34.4452 46.9315 34.3224 47.3574 34.0767C47.7886 33.8256 48.1243 33.4789 48.3645 33.0368C48.6102 32.5891 48.733 32.076 48.733 31.4973C48.733 30.9078 48.6075 30.3891 48.3563 29.9415C48.1107 29.4939 47.7695 29.1445 47.3328 28.8934C46.8961 28.6423 46.3966 28.514 45.8343 28.5085C45.343 28.5085 44.8653 28.6095 44.4013 28.8115C43.9427 29.0135 43.5852 29.2892 43.3286 29.6385L40.176 29.0735L40.9703 20.2299H51.2223V23.1287H43.8936L43.4596 27.3294H43.5579C43.8527 26.9145 44.2976 26.5706 44.8926 26.2976C45.4876 26.0247 46.1536 25.8882 46.8906 25.8882C47.9005 25.8882 48.8013 26.1257 49.5928 26.6006C50.3844 27.0755 51.0094 27.7279 51.468 28.5577C51.9265 29.382 52.1531 30.3318 52.1476 31.4073C52.1531 32.5373 51.8911 33.5417 51.3615 34.4206C50.8375 35.2941 50.1032 35.9819 49.1588 36.4841C48.2199 36.9809 47.1281 37.2293 45.8834 37.2293Z"/>
</mask>
<path d="M20.0999 20.2299V37H16.5543V23.5954H16.456L12.6156 26.0028V22.8585L16.7672 20.2299H20.0999ZM34.3786 34.6745L24.5933 24.9056L26.7387 22.7356L36.5322 32.5291L34.3786 34.6745ZM26.7387 34.6745L24.5933 32.5291L34.3786 22.7356L36.5322 24.9056L26.7387 34.6745ZM45.8834 37.2293C44.7261 37.2293 43.6944 37.0164 42.7882 36.5906C41.8874 36.1648 41.1723 35.5779 40.6428 34.83C40.1133 34.0822 39.8376 33.2251 39.8157 32.2589H43.2549C43.2931 32.9085 43.5661 33.4353 44.0738 33.8392C44.5814 34.2432 45.1847 34.4452 45.8834 34.4452C46.4402 34.4452 46.9315 34.3224 47.3574 34.0767C47.7886 33.8256 48.1243 33.4789 48.3645 33.0368C48.6102 32.5891 48.733 32.076 48.733 31.4973C48.733 30.9078 48.6075 30.3891 48.3563 29.9415C48.1107 29.4939 47.7695 29.1445 47.3328 28.8934C46.8961 28.6423 46.3966 28.514 45.8343 28.5085C45.343 28.5085 44.8653 28.6095 44.4013 28.8115C43.9427 29.0135 43.5852 29.2892 43.3286 29.6385L40.176 29.0735L40.9703 20.2299H51.2223V23.1287H43.8936L43.4596 27.3294H43.5579C43.8527 26.9145 44.2976 26.5706 44.8926 26.2976C45.4876 26.0247 46.1536 25.8882 46.8906 25.8882C47.9005 25.8882 48.8013 26.1257 49.5928 26.6006C50.3844 27.0755 51.0094 27.7279 51.468 28.5577C51.9265 29.382 52.1531 30.3318 52.1476 31.4073C52.1531 32.5373 51.8911 33.5417 51.3615 34.4206C50.8375 35.2941 50.1032 35.9819 49.1588 36.4841C48.2199 36.9809 47.1281 37.2293 45.8834 37.2293Z" fill="white"/>
<path d="M20.0999 20.2299H20.9234V19.4064H20.0999V20.2299ZM20.0999 37V37.8235H20.9234V37H20.0999ZM16.5543 37H15.7307V37.8235H16.5543V37ZM16.5543 23.5954H17.3778V22.7719H16.5543V23.5954ZM16.456 23.5954V22.7719H16.2192L16.0186 22.8977L16.456 23.5954ZM12.6156 26.0028H11.7921V27.491L13.053 26.7006L12.6156 26.0028ZM12.6156 22.8585L12.175 22.1627L11.7921 22.4051V22.8585H12.6156ZM16.7672 20.2299V19.4064H16.5284L16.3266 19.5341L16.7672 20.2299ZM20.0999 20.2299H19.2763V37H20.0999H20.9234V20.2299H20.0999ZM20.0999 37V36.1765H16.5543V37V37.8235H20.0999V37ZM16.5543 37H17.3778V23.5954H16.5543H15.7307V37H16.5543ZM16.5543 23.5954V22.7719H16.456V23.5954V24.4189H16.5543V23.5954ZM16.456 23.5954L16.0186 22.8977L12.1782 25.3051L12.6156 26.0028L13.053 26.7006L16.8934 24.2932L16.456 23.5954ZM12.6156 26.0028H13.4391V22.8585H12.6156H11.7921V26.0028H12.6156ZM12.6156 22.8585L13.0561 23.5543L17.2077 20.9257L16.7672 20.2299L16.3266 19.5341L12.175 22.1627L12.6156 22.8585ZM16.7672 20.2299V21.0535H20.0999V20.2299V19.4064H16.7672V20.2299ZM34.3786 34.6745L33.7967 35.2573L34.378 35.8375L34.9598 35.2579L34.3786 34.6745ZM24.5933 24.9056L24.0077 24.3266L23.4315 24.9094L24.0115 25.4884L24.5933 24.9056ZM26.7387 22.7356L27.321 22.1533L26.7354 21.5677L26.1531 22.1566L26.7387 22.7356ZM36.5322 32.5291L37.1134 33.1125L37.6979 32.5302L37.1145 31.9468L36.5322 32.5291ZM26.7387 34.6745L26.1564 35.2568L26.738 35.8384L27.3203 35.2575L26.7387 34.6745ZM24.5933 32.5291L24.0107 31.947L23.4289 32.5293L24.011 33.1114L24.5933 32.5291ZM34.3786 22.7356L34.9631 22.1555L34.3805 21.5685L33.796 22.1535L34.3786 22.7356ZM36.5322 24.9056L37.1137 25.4886L37.6953 24.9085L37.1167 24.3255L36.5322 24.9056ZM34.3786 34.6745L34.9604 34.0917L25.1751 24.3228L24.5933 24.9056L24.0115 25.4884L33.7967 35.2573L34.3786 34.6745ZM24.5933 24.9056L25.1789 25.4846L27.3243 23.3146L26.7387 22.7356L26.1531 22.1566L24.0077 24.3266L24.5933 24.9056ZM26.7387 22.7356L26.1564 23.3179L35.9498 33.1114L36.5322 32.5291L37.1145 31.9468L27.321 22.1533L26.7387 22.7356ZM36.5322 32.5291L35.9509 31.9456L33.7974 34.091L34.3786 34.6745L34.9598 35.2579L37.1134 33.1125L36.5322 32.5291ZM26.7387 34.6745L27.321 34.0921L25.1756 31.9468L24.5933 32.5291L24.011 33.1114L26.1564 35.2568L26.7387 34.6745ZM24.5933 32.5291L25.1759 33.1112L34.9611 23.3177L34.3786 22.7356L33.796 22.1535L24.0107 31.947L24.5933 32.5291ZM34.3786 22.7356L33.794 23.3157L35.9476 25.4857L36.5322 24.9056L37.1167 24.3255L34.9631 22.1555L34.3786 22.7356ZM36.5322 24.9056L35.9506 24.3225L26.1571 34.0914L26.7387 34.6745L27.3203 35.2575L37.1137 25.4886L36.5322 24.9056ZM42.7882 36.5906L42.4362 37.3351L42.4379 37.3359L42.7882 36.5906ZM40.6428 34.83L41.3149 34.3542L41.3149 34.3542L40.6428 34.83ZM39.8157 32.2589V31.4353H38.9734L38.9924 32.2775L39.8157 32.2589ZM43.2549 32.2589L44.077 32.2105L44.0314 31.4353H43.2549V32.2589ZM44.0738 33.8392L44.5865 33.1948L44.5865 33.1948L44.0738 33.8392ZM47.3574 34.0767L47.7689 34.79L47.7717 34.7884L47.3574 34.0767ZM48.3645 33.0368L47.6426 32.6406L47.6409 32.6437L48.3645 33.0368ZM48.3563 29.9415L47.6344 30.3377L47.6381 30.3444L48.3563 29.9415ZM47.3328 28.8934L46.9223 29.6073L46.9223 29.6073L47.3328 28.8934ZM45.8343 28.5085L45.8423 27.685H45.8343V28.5085ZM44.4013 28.8115L44.0726 28.0564L44.0693 28.0578L44.4013 28.8115ZM43.3286 29.6385L43.1833 30.4491L43.6886 30.5397L43.9924 30.126L43.3286 29.6385ZM40.176 29.0735L39.3558 28.9999L39.2883 29.7511L40.0308 29.8841L40.176 29.0735ZM40.9703 20.2299V19.4064H40.2174L40.1501 20.1563L40.9703 20.2299ZM51.2223 20.2299H52.0459V19.4064H51.2223V20.2299ZM51.2223 23.1287V23.9522H52.0459V23.1287H51.2223ZM43.8936 23.1287V22.3051H43.1508L43.0744 23.044L43.8936 23.1287ZM43.4596 27.3294L42.6405 27.2447L42.5466 28.1529H43.4596V27.3294ZM43.5579 27.3294V28.1529H43.983L44.2292 27.8064L43.5579 27.3294ZM44.8926 26.2976L45.236 27.0462L45.236 27.0462L44.8926 26.2976ZM49.5928 26.6006L50.0165 25.8944L50.0165 25.8944L49.5928 26.6006ZM51.468 28.5577L50.7472 28.956L50.7483 28.958L51.468 28.5577ZM52.1476 31.4073L51.3241 31.4031L51.3241 31.4112L52.1476 31.4073ZM51.3615 34.4206L50.6561 33.9956L50.6554 33.9969L51.3615 34.4206ZM49.1588 36.4841L49.5439 37.2121L49.5455 37.2112L49.1588 36.4841ZM45.8834 37.2293V36.4057C44.8284 36.4057 43.9192 36.2121 43.1384 35.8452L42.7882 36.5906L42.4379 37.3359C43.4695 37.8207 44.6239 38.0528 45.8834 38.0528V37.2293ZM42.7882 36.5906L43.1401 35.846C42.3559 35.4753 41.7555 34.9765 41.3149 34.3542L40.6428 34.83L39.9707 35.3059C40.5891 36.1793 41.4189 36.8542 42.4362 37.3351L42.7882 36.5906ZM40.6428 34.83L41.3149 34.3542C40.8855 33.7478 40.6574 33.0519 40.6391 32.2403L39.8157 32.2589L38.9924 32.2775C39.0178 33.3983 39.341 34.4166 39.9707 35.3059L40.6428 34.83ZM39.8157 32.2589V33.0824H43.2549V32.2589V31.4353H39.8157V32.2589ZM43.2549 32.2589L42.4328 32.3072C42.4847 33.1896 42.8696 33.9335 43.561 34.4837L44.0738 33.8392L44.5865 33.1948C44.2626 32.9371 44.1015 32.6273 44.077 32.2105L43.2549 32.2589ZM44.0738 33.8392L43.561 34.4837C44.226 35.0128 45.0137 35.2687 45.8834 35.2687V34.4452V33.6217C45.3556 33.6217 44.9369 33.4736 44.5865 33.1948L44.0738 33.8392ZM45.8834 34.4452V35.2687C46.5652 35.2687 47.2021 35.1171 47.7689 34.79L47.3574 34.0767L46.9458 33.3634C46.661 33.5277 46.3153 33.6217 45.8834 33.6217V34.4452ZM47.3574 34.0767L47.7717 34.7884C48.3345 34.4607 48.7767 34.0034 49.0882 33.4299L48.3645 33.0368L47.6409 32.6437C47.472 32.9545 47.2428 33.1905 46.943 33.365L47.3574 34.0767ZM48.3645 33.0368L49.0865 33.433C49.4072 32.8485 49.5565 32.1958 49.5565 31.4973H48.733H47.9095C47.9095 31.9562 47.8131 32.3298 47.6426 32.6406L48.3645 33.0368ZM48.733 31.4973H49.5565C49.5565 30.7879 49.4044 30.1266 49.0746 29.5386L48.3563 29.9415L47.6381 30.3444C47.8105 30.6517 47.9095 31.0276 47.9095 31.4973H48.733ZM48.3563 29.9415L49.0783 29.5453C48.761 28.9671 48.3129 28.507 47.7433 28.1795L47.3328 28.8934L46.9223 29.6073C47.2261 29.782 47.4604 30.0206 47.6344 30.3377L48.3563 29.9415ZM47.3328 28.8934L47.7433 28.1795C47.1703 27.85 46.5291 27.6917 45.8423 27.685L45.8343 28.5085L45.8263 29.332C46.264 29.3363 46.6219 29.4346 46.9223 29.6073L47.3328 28.8934ZM45.8343 28.5085V27.685C45.2264 27.685 44.6371 27.8107 44.0726 28.0564L44.4013 28.8115L44.73 29.5666C45.0935 29.4084 45.4595 29.3321 45.8343 29.3321V28.5085ZM44.4013 28.8115L44.0693 28.0578C43.4996 28.3088 43.0193 28.6684 42.6648 29.1511L43.3286 29.6385L43.9924 30.126C44.151 29.9099 44.3859 29.7182 44.7333 29.5652L44.4013 28.8115ZM43.3286 29.6385L43.4739 28.8279L40.3213 28.2629L40.176 29.0735L40.0308 29.8841L43.1833 30.4491L43.3286 29.6385ZM40.176 29.0735L40.9963 29.1472L41.7905 20.3036L40.9703 20.2299L40.1501 20.1563L39.3558 28.9999L40.176 29.0735ZM40.9703 20.2299V21.0535H51.2223V20.2299V19.4064H40.9703V20.2299ZM51.2223 20.2299H50.3988V23.1287H51.2223H52.0459V20.2299H51.2223ZM51.2223 23.1287V22.3051H43.8936V23.1287V23.9522H51.2223V23.1287ZM43.8936 23.1287L43.0744 23.044L42.6405 27.2447L43.4596 27.3294L44.2788 27.414L44.7128 23.2133L43.8936 23.1287ZM43.4596 27.3294V28.1529H43.5579V27.3294V26.5058H43.4596V27.3294ZM43.5579 27.3294L44.2292 27.8064C44.4197 27.5383 44.7354 27.2758 45.236 27.0462L44.8926 26.2976L44.5492 25.5491C43.8597 25.8654 43.2856 26.2907 42.8866 26.8524L43.5579 27.3294ZM44.8926 26.2976L45.236 27.0462C45.7105 26.8285 46.2572 26.7117 46.8906 26.7117V25.8882V25.0647C46.0501 25.0647 45.2648 25.2209 44.5492 25.5491L44.8926 26.2976ZM46.8906 25.8882V26.7117C47.7658 26.7117 48.5174 26.9158 49.1691 27.3068L49.5928 26.6006L50.0165 25.8944C49.0851 25.3356 48.0353 25.0647 46.8906 25.0647V25.8882ZM49.5928 26.6006L49.1691 27.3068C49.8328 27.705 50.3568 28.2496 50.7472 28.956L51.468 28.5577L52.1888 28.1593C51.662 27.2062 50.936 26.4461 50.0165 25.8944L49.5928 26.6006ZM51.468 28.5577L50.7483 28.958C51.1289 29.6422 51.3289 30.4491 51.3241 31.4031L52.1476 31.4073L52.9711 31.4114C52.9772 30.2146 52.7242 29.1218 52.1876 28.1573L51.468 28.5577ZM52.1476 31.4073L51.3241 31.4112C51.3289 32.4059 51.0999 33.2591 50.6561 33.9956L51.3615 34.4206L52.0669 34.8456C52.6822 33.8244 52.9773 32.6686 52.9711 31.4033L52.1476 31.4073ZM51.3615 34.4206L50.6554 33.9969C50.2122 34.7355 49.5914 35.3214 48.7722 35.757L49.1588 36.4841L49.5455 37.2112C50.6151 36.6424 51.4627 35.8526 52.0677 34.8443L51.3615 34.4206ZM49.1588 36.4841L48.7737 35.7562C47.9723 36.1802 47.0169 36.4057 45.8834 36.4057V37.2293V38.0528C47.2392 38.0528 48.4675 37.7816 49.5439 37.2121L49.1588 36.4841Z" fill="#2B3F46" mask="url(#path-33-outside-1_2122_5527)"/>
<defs>
<linearGradient id="paint0_linear_2122_5527" x1="35.8411" y1="35.864" x2="-1.88188" y2="2.08424" gradientUnits="userSpaceOnUse">
<stop stop-color="#FFD5EF"/>
<stop offset="1" stop-color="#EFBDFD"/>
</linearGradient>
<linearGradient id="paint1_linear_2122_5527" x1="26.8809" y1="4.483" x2="25.174" y2="-4.68761" gradientUnits="userSpaceOnUse">
<stop stop-color="#F95457"/>
<stop offset="1" stop-color="#FDBDCB"/>
</linearGradient>
<linearGradient id="paint2_linear_2122_5527" x1="26.8809" y1="4.483" x2="25.174" y2="-4.68761" gradientUnits="userSpaceOnUse">
<stop stop-color="#F95457"/>
<stop offset="1" stop-color="#FDBDCB"/>
</linearGradient>
<linearGradient id="paint3_linear_2122_5527" x1="4.71844" y1="43.652" x2="1.80424" y2="43.0279" gradientUnits="userSpaceOnUse">
<stop stop-color="#F95457"/>
<stop offset="1" stop-color="#FDBDCB"/>
</linearGradient>
<linearGradient id="paint4_linear_2122_5527" x1="35.7657" y1="58.0257" x2="30.2143" y2="50.8928" gradientUnits="userSpaceOnUse">
<stop stop-color="#F95457"/>
<stop offset="1" stop-color="#FDBDCB"/>
</linearGradient>
<linearGradient id="paint5_linear_2122_5527" x1="60.6657" y1="43.652" x2="57.7515" y2="43.0279" gradientUnits="userSpaceOnUse">
<stop stop-color="#F95457"/>
<stop offset="1" stop-color="#FDBDCB"/>
</linearGradient>
<linearGradient id="paint6_linear_2122_5527" x1="-1.09962e-05" y1="-0.0328651" x2="30.641" y2="-4.05264" gradientUnits="userSpaceOnUse">
<stop stop-color="#D74446"/>
<stop offset="1" stop-color="#E165B8"/>
</linearGradient>
<linearGradient id="paint7_linear_2122_5527" x1="-1.11276e-05" y1="-0.033258" x2="31.0073" y2="-4.10108" gradientUnits="userSpaceOnUse">
<stop stop-color="#D74446"/>
<stop offset="1" stop-color="#E165B8"/>
</linearGradient>
<linearGradient id="paint8_linear_2122_5527" x1="-8.34573e-06" y1="-0.00415724" x2="14.606" y2="-11.5011" gradientUnits="userSpaceOnUse">
<stop stop-color="#D1369D"/>
<stop offset="1" stop-color="#B31E20"/>
</linearGradient>
<linearGradient id="paint9_linear_2122_5527" x1="-8.34573e-06" y1="-0.00415724" x2="14.606" y2="-11.5011" gradientUnits="userSpaceOnUse">
<stop stop-color="#D74446"/>
<stop offset="1" stop-color="#E165B8"/>
</linearGradient>
<linearGradient id="paint10_linear_2122_5527" x1="2.32031" y1="36.6188" x2="3.73321" y2="36.5744" gradientUnits="userSpaceOnUse">
<stop stop-color="#D74446"/>
<stop offset="1" stop-color="#D1369D"/>
</linearGradient>
<linearGradient id="paint11_linear_2122_5527" x1="27.5449" y1="52.5135" x2="34.14" y2="51.2721" gradientUnits="userSpaceOnUse">
<stop stop-color="#B31E20"/>
<stop offset="1" stop-color="#D74446"/>
</linearGradient>
<linearGradient id="paint12_linear_2122_5527" x1="59.0059" y1="36.6188" x2="60.4188" y2="36.5744" gradientUnits="userSpaceOnUse">
<stop stop-color="#E165B8"/>
<stop offset="1" stop-color="#D74446"/>
</linearGradient>
<clipPath id="clip0_2122_5527">
<rect width="35.8992" height="35.8992" rx="4.44179" transform="matrix(0.866025 0.5 -0.866025 0.5 31.9102 19)" fill="white"/>
</clipPath>
<clipPath id="clip1_2122_5527">
<rect width="36.3731" height="36.3731" rx="4.50041" transform="matrix(0.866025 0.5 -0.866025 0.5 31.5 18.4607)" fill="white"/>
</clipPath>
</defs>
</svg>
