<svg width="450" height="432" viewBox="0 0 450 432" fill="none" xmlns="http://www.w3.org/2000/svg">
<path d="M205.327 306.842C202.41 305.157 200.951 302.631 200.951 299.262V39.9315C200.951 38.2473 201.316 37.1945 202.045 36.7734C202.774 36.3522 203.869 36.5627 205.327 37.4049L305.63 95.3146C308.431 96.9316 310.765 99.3572 312.632 102.591L347.641 163.23C349.625 166.666 350.617 169.934 350.617 173.033V251.863C350.617 255.097 349.625 257.219 347.641 258.23C347.641 258.23 338.889 263.283 330.137 268.336C321.384 273.389 312.632 278.443 312.632 278.443C310.765 279.655 308.431 279.453 305.63 277.836L263.793 253.682V335.544C263.793 337.228 263.429 338.281 262.699 338.702C261.97 339.123 260.876 338.913 259.417 338.07L205.327 306.842ZM274.121 195.974C282.29 200.691 288.067 202.004 291.451 199.916C294.835 197.692 296.527 191.46 296.527 181.219C296.527 170.978 294.835 162.792 291.451 156.66C288.067 150.529 282.29 145.105 274.121 140.389C266.069 135.74 260.351 134.527 256.967 136.751C253.582 138.974 251.89 145.207 251.89 155.448C251.89 165.689 253.582 173.875 256.967 180.006C260.351 186.003 266.069 191.325 274.121 195.974Z" fill="#EC008C"/>
<path d="M136 336.762C136 340.131 137.459 342.657 140.376 344.342L205.328 306.842C202.411 305.157 200.952 302.631 200.952 299.262L136 336.762Z" fill="url(#paint0_linear_2111_3762)"/>
<path d="M140.377 344.342L194.467 375.57L259.419 338.07L205.329 306.842L140.377 344.342Z" fill="url(#paint1_linear_2111_3762)"/>
<path d="M194.467 375.57C195.926 376.413 197.02 376.623 197.749 376.202L262.701 338.702C261.971 339.123 260.877 338.912 259.419 338.07L194.467 375.57Z" fill="url(#paint2_linear_2111_3762)"/>
<path d="M197.748 376.202C198.477 375.781 198.842 374.728 198.842 373.044L263.794 335.544C263.794 337.228 263.429 338.281 262.7 338.702L197.748 376.202Z" fill="url(#paint3_linear_2111_3762)"/>
<path d="M198.842 373.044V291.182L263.794 253.682V335.544L198.842 373.044Z" fill="url(#paint4_linear_2111_3762)"/>
<path d="M136 77.4315V336.762L200.952 299.262V39.9315L136 77.4315Z" fill="url(#paint5_linear_2111_3762)"/>
<path d="M198.842 291.182L240.678 315.336L305.63 277.836L263.794 253.682L198.842 291.182Z" fill="url(#paint6_linear_2111_3762)"/>
<path d="M247.68 315.943C245.812 317.155 243.479 316.953 240.678 315.336L305.63 277.836C308.206 279.324 310.388 279.614 312.174 278.706L312.632 278.443C312.482 278.54 312.33 278.628 312.174 278.706L247.68 315.943Z" fill="url(#paint7_linear_2111_3762)"/>
<path d="M209.17 233.474C201.118 228.825 195.4 223.503 192.016 217.506L256.968 180.006C260.352 186.003 266.07 191.325 274.122 195.974L209.17 233.474Z" fill="url(#paint8_linear_2111_3762)"/>
<path d="M192.016 217.506C188.632 211.375 186.939 203.189 186.939 192.948L251.891 155.448C251.891 165.689 253.583 173.875 256.968 180.006L192.016 217.506Z" fill="url(#paint9_linear_2111_3762)"/>
<path d="M226.5 237.416C223.115 239.505 217.339 238.191 209.17 233.474L274.122 195.974C282.061 200.558 287.74 201.928 291.16 200.084L291.452 199.916C291.356 199.975 291.259 200.031 291.16 200.084L226.5 237.416Z" fill="url(#paint10_linear_2111_3762)"/>
<path d="M186.939 192.948C186.939 182.707 188.632 176.474 192.016 174.251L256.968 136.751C253.583 138.974 251.891 145.207 251.891 155.448L186.939 192.948Z" fill="url(#paint11_linear_2111_3762)"/>
<path d="M137.094 74.2734C136.365 74.6946 136 75.7473 136 77.4316L200.952 39.9316C200.952 38.2473 201.317 37.1946 202.046 36.7734L137.094 74.2734Z" fill="url(#paint12_linear_2111_3762)"/>
<path d="M140.376 74.9049C138.917 74.0628 137.823 73.8522 137.094 74.2732L202.046 36.7734C202.775 36.3522 203.869 36.5627 205.328 37.4049L140.376 74.9049Z" fill="url(#paint13_linear_2111_3762)"/>
<path d="M231.576 218.719C231.576 228.96 229.884 235.192 226.5 237.416L291.452 199.916C294.836 197.692 296.528 191.46 296.528 181.219L231.576 218.719Z" fill="url(#paint14_linear_2111_3762)"/>
<path d="M209.17 177.889C201.572 173.502 196.052 172.175 192.61 173.908L192.016 174.251C192.206 174.126 192.404 174.011 192.61 173.908L256.968 136.751C260.352 134.527 266.07 135.74 274.122 140.389L209.17 177.889Z" fill="url(#paint15_linear_2111_3762)"/>
<path d="M226.5 194.16C229.884 200.292 231.576 208.478 231.576 218.719L296.528 181.219C296.528 170.978 294.836 162.792 291.452 156.66L226.5 194.16Z" fill="url(#paint16_linear_2111_3762)"/>
<path d="M209.17 177.889C217.339 182.605 223.115 188.029 226.5 194.16L291.452 156.66C288.067 150.529 282.291 145.105 274.122 140.389L209.17 177.889Z" fill="url(#paint17_linear_2111_3762)"/>
<path d="M283.147 295.466C284.826 294.373 285.665 292.338 285.665 289.363L350.617 251.863C350.617 255.097 349.625 257.219 347.641 258.23L283.147 295.466C283.001 295.561 282.848 295.649 282.689 295.73L283.147 295.466Z" fill="url(#paint18_linear_2111_3762)"/>
<path d="M240.679 132.815L140.377 74.9049L205.329 37.4049L305.631 95.3146L240.679 132.815Z" fill="url(#paint19_linear_2111_3762)"/>
<path d="M285.666 289.363V210.533L350.618 173.033V251.863L285.666 289.363Z" fill="url(#paint20_linear_2111_3762)"/>
<path d="M247.68 140.091C245.812 136.857 243.479 134.432 240.678 132.815L305.63 95.3146C308.43 96.9316 310.764 99.3571 312.632 102.591L247.68 140.091Z" fill="url(#paint21_linear_2111_3762)"/>
<path d="M285.665 210.533C285.665 207.434 284.673 204.166 282.689 200.73L347.641 163.23C349.625 166.666 350.617 169.934 350.617 173.033L285.665 210.533Z" fill="url(#paint22_linear_2111_3762)"/>
<path d="M282.689 200.73L247.68 140.091L312.632 102.591L347.641 163.23L282.689 200.73Z" fill="url(#paint23_linear_2111_3762)"/>
<mask id="path-27-inside-1_2111_3762" fill="white">
<path d="M140.376 344.342C137.459 342.657 136 340.131 136 336.762V77.4315C136 74.0627 137.459 73.2206 140.376 74.905L240.679 132.815C243.479 134.432 245.813 136.857 247.681 140.091L282.69 200.73C284.674 204.166 285.666 207.434 285.666 210.533V289.363C285.666 292.597 284.674 294.719 282.69 295.73L247.681 315.943C245.813 317.155 243.479 316.953 240.679 315.336L198.842 291.182V373.044C198.842 376.413 197.383 377.255 194.466 375.57L140.376 344.342ZM209.17 233.474C217.339 238.191 223.116 239.504 226.5 237.416C229.884 235.192 231.576 228.96 231.576 218.719C231.576 208.478 229.884 200.292 226.5 194.16C223.116 188.029 217.339 182.605 209.17 177.889C201.118 173.24 195.4 172.027 192.015 174.251C188.631 176.474 186.939 182.707 186.939 192.948C186.939 203.189 188.631 211.375 192.015 217.506C195.4 223.503 201.118 228.825 209.17 233.474Z"/>
</mask>
<path d="M140.376 344.342C137.459 342.657 136 340.131 136 336.762V77.4315C136 74.0627 137.459 73.2206 140.376 74.905L240.679 132.815C243.479 134.432 245.813 136.857 247.681 140.091L282.69 200.73C284.674 204.166 285.666 207.434 285.666 210.533V289.363C285.666 292.597 284.674 294.719 282.69 295.73L247.681 315.943C245.813 317.155 243.479 316.953 240.679 315.336L198.842 291.182V373.044C198.842 376.413 197.383 377.255 194.466 375.57L140.376 344.342ZM209.17 233.474C217.339 238.191 223.116 239.504 226.5 237.416C229.884 235.192 231.576 228.96 231.576 218.719C231.576 208.478 229.884 200.292 226.5 194.16C223.116 188.029 217.339 182.605 209.17 177.889C201.118 173.24 195.4 172.027 192.015 174.251C188.631 176.474 186.939 182.707 186.939 192.948C186.939 203.189 188.631 211.375 192.015 217.506C195.4 223.503 201.118 228.825 209.17 233.474Z" fill="url(#paint24_linear_2111_3762)"/>
<path d="M247.681 140.091L242.688 142.974L242.688 142.974L247.681 140.091ZM282.69 200.73L287.682 197.847L287.682 197.847L282.69 200.73ZM282.69 295.73L277.851 287L277.773 287.039L277.698 287.083L282.69 295.73ZM247.681 315.943L242.688 307.296L242.613 307.339L242.539 307.387L247.681 315.943ZM198.842 291.182V283.03L191.782 278.953V287.106L198.842 291.182ZM226.5 237.416L231.576 246.013L231.616 245.988L231.656 245.962L226.5 237.416ZM226.5 194.16L221.344 196.753L221.344 196.753L226.5 194.16ZM192.015 174.251L197.171 182.797L197.171 182.797L192.015 174.251ZM192.015 217.506L186.859 220.099L186.899 220.17L186.939 220.242L192.015 217.506ZM140.376 344.342V336.189C140.006 335.975 141.025 336.462 142.086 338.301C143.148 340.14 143.06 341.266 143.06 340.838L136 336.762L128.94 332.686C128.94 335.627 129.581 339.7 132.102 344.066C134.622 348.431 137.829 351.023 140.376 352.494V344.342ZM136 336.762L143.06 340.838V81.5077L136 77.4315L128.94 73.3554V332.686L136 336.762ZM136 77.4315L143.06 81.5077C143.06 81.08 143.148 82.3073 142.086 82.9202C141.025 83.5331 140.006 82.8434 140.376 83.0573V74.905V66.7526C137.829 65.2821 134.622 64.1713 132.102 65.6264C129.581 67.0815 128.94 70.4143 128.94 73.3554L136 77.4315ZM140.376 74.905V83.0573L240.679 140.967V132.815V124.662L140.376 66.7526V74.905ZM240.679 132.815V140.967C241.733 141.576 242.232 142.183 242.688 142.974L247.681 140.091L252.673 137.209C249.395 131.532 245.226 127.288 240.679 124.662V132.815ZM247.681 140.091L242.688 142.974L277.698 203.612L282.69 200.73L287.682 197.847L252.673 137.209L247.681 140.091ZM282.69 200.73L277.698 203.612C278.425 204.871 278.606 205.626 278.606 206.457L285.666 210.533L292.726 214.609C292.726 209.241 290.924 203.461 287.682 197.847L282.69 200.73ZM285.666 210.533L278.606 206.457V285.287L285.666 289.363L292.726 293.439V214.609L285.666 210.533ZM285.666 289.363L278.606 285.287C278.606 286.344 278.373 286.734 277.851 287L282.69 295.73L287.529 304.46C290.975 302.705 292.726 298.85 292.726 293.439L285.666 289.363ZM282.69 295.73L277.698 287.083L242.688 307.296L247.681 315.943L252.673 324.589L287.682 304.377L282.69 295.73ZM247.681 315.943L242.539 307.387C242.048 307.706 241.594 307.713 240.679 307.184V315.336V323.489C245.364 326.194 249.579 326.605 252.822 324.498L247.681 315.943ZM240.679 315.336V307.184L198.842 283.03V291.182V299.334L240.679 323.489V315.336ZM198.842 291.182L191.782 287.106V368.968L198.842 373.044L205.902 377.12V295.258L198.842 291.182ZM198.842 373.044L191.782 368.968C191.782 369.395 191.694 368.168 192.756 367.555C193.817 366.942 194.836 367.632 194.466 367.418V375.57V383.723C197.013 385.193 200.22 386.304 202.74 384.849C205.261 383.394 205.902 380.061 205.902 377.12L198.842 373.044ZM194.466 375.57V367.418L140.376 336.189V344.342V352.494L194.466 383.723V375.57ZM209.17 233.474V241.627C218.024 246.738 226.199 249.331 231.576 246.013L226.5 237.416L221.424 228.819C220.032 229.678 216.654 229.643 209.17 225.322V233.474ZM226.5 237.416L231.656 245.962C236.923 242.501 238.636 233.622 238.636 222.795L231.576 218.719L224.516 214.643C224.516 224.298 222.845 227.884 221.344 228.87L226.5 237.416ZM231.576 218.719L238.636 222.795C238.636 211.968 236.923 201.111 231.656 191.568L226.5 194.16L221.344 196.753C222.845 199.472 224.516 204.988 224.516 214.643L231.576 218.719ZM226.5 194.16L231.656 191.568C226.286 181.84 218.076 174.879 209.17 169.737V177.889V186.042C216.602 190.332 219.945 194.219 221.344 196.753L226.5 194.16ZM209.17 177.889V169.737C200.344 164.641 192.214 162.187 186.859 165.705L192.015 174.251L197.171 182.797C198.585 181.868 201.892 181.839 209.17 186.042V177.889ZM192.015 174.251L186.859 165.705C181.592 169.166 179.879 178.044 179.879 188.872L186.939 192.948L193.999 197.024C193.999 187.369 195.67 183.783 197.171 182.797L192.015 174.251ZM186.939 192.948L179.879 188.872C179.879 199.699 181.592 210.555 186.859 220.099L192.015 217.506L197.171 214.914C195.67 212.195 193.999 206.679 193.999 197.024L186.939 192.948ZM192.015 217.506L186.939 220.242C192.301 229.743 200.397 236.562 209.17 241.627V233.474V225.322C201.839 221.089 198.498 217.262 197.091 214.771L192.015 217.506Z" fill="black" fill-opacity="0.2" mask="url(#path-27-inside-1_2111_3762)"/>
<defs>
<linearGradient id="paint0_linear_2111_3762" x1="122.218" y1="344.719" x2="126.594" y2="352.299" gradientUnits="userSpaceOnUse">
<stop stop-color="#C30075"/>
<stop offset="1" stop-color="#770065"/>
</linearGradient>
<linearGradient id="paint1_linear_2111_3762" x1="105.068" y1="364.727" x2="132.113" y2="411.57" gradientUnits="userSpaceOnUse">
<stop stop-color="#770065"/>
<stop offset="1" stop-color="#770065"/>
</linearGradient>
<linearGradient id="paint2_linear_2111_3762" x1="181.158" y1="383.254" x2="182.253" y2="385.149" gradientUnits="userSpaceOnUse">
<stop stop-color="#770065"/>
<stop offset="0.5" stop-color="#A80074"/>
<stop offset="1" stop-color="#FF1164"/>
</linearGradient>
<linearGradient id="paint3_linear_2111_3762" x1="185.661" y1="380.654" x2="186.755" y2="382.549" gradientUnits="userSpaceOnUse">
<stop stop-color="#C30075"/>
<stop offset="1" stop-color="#FF1164"/>
</linearGradient>
<linearGradient id="paint4_linear_2111_3762" x1="186.955" y1="298.045" x2="222.402" y2="359.441" gradientUnits="userSpaceOnUse">
<stop stop-color="#C30075"/>
<stop offset="1" stop-color="#C30075"/>
</linearGradient>
<linearGradient id="paint5_linear_2111_3762" x1="124.113" y1="84.2945" x2="236.406" y2="278.792" gradientUnits="userSpaceOnUse">
<stop stop-color="#C30075"/>
<stop offset="1" stop-color="#C30075"/>
</linearGradient>
<linearGradient id="paint6_linear_2111_3762" x1="168.839" y1="308.504" x2="189.757" y2="344.735" gradientUnits="userSpaceOnUse">
<stop stop-color="#770065"/>
<stop offset="1" stop-color="#770065"/>
</linearGradient>
<linearGradient id="paint7_linear_2111_3762" x1="225.759" y1="323.95" x2="227.772" y2="327.436" gradientUnits="userSpaceOnUse">
<stop stop-color="#770065"/>
<stop offset="0.5" stop-color="#B70075"/>
<stop offset="1" stop-color="#FF1863"/>
</linearGradient>
<linearGradient id="paint8_linear_2111_3762" x1="172.7" y1="228.658" x2="183.903" y2="248.062" gradientUnits="userSpaceOnUse">
<stop stop-color="#780066"/>
<stop offset="0.5" stop-color="#560052"/>
<stop offset="1" stop-color="#770065"/>
</linearGradient>
<linearGradient id="paint9_linear_2111_3762" x1="172.854" y1="201.08" x2="184.758" y2="221.697" gradientUnits="userSpaceOnUse">
<stop stop-color="#C30075"/>
<stop offset="1" stop-color="#7A0066"/>
</linearGradient>
<linearGradient id="paint10_linear_2111_3762" x1="189.779" y1="244.67" x2="195.818" y2="255.13" gradientUnits="userSpaceOnUse">
<stop stop-color="#770065"/>
<stop offset="0.5" stop-color="#A30073"/>
<stop offset="1" stop-color="#FF1564"/>
</linearGradient>
<linearGradient id="paint11_linear_2111_3762" x1="174.123" y1="184.581" x2="180.95" y2="196.406" gradientUnits="userSpaceOnUse">
<stop stop-color="#FF1963"/>
<stop offset="1" stop-color="#C30075"/>
</linearGradient>
<linearGradient id="paint12_linear_2111_3762" x1="123.913" y1="81.8836" x2="125.007" y2="83.7785" gradientUnits="userSpaceOnUse">
<stop stop-color="#FF1164"/>
<stop offset="1" stop-color="#C30075"/>
</linearGradient>
<linearGradient id="paint13_linear_2111_3762" x1="123.877" y1="81.9043" x2="124.971" y2="83.7992" gradientUnits="userSpaceOnUse">
<stop stop-color="#FF1164"/>
<stop offset="0.5" stop-color="#A80074"/>
<stop offset="1" stop-color="#770065"/>
</linearGradient>
<linearGradient id="paint14_linear_2111_3762" x1="213.684" y1="229.049" x2="220.511" y2="240.874" gradientUnits="userSpaceOnUse">
<stop stop-color="#C30075"/>
<stop offset="1" stop-color="#FF1963"/>
</linearGradient>
<linearGradient id="paint15_linear_2111_3762" x1="173.168" y1="185.133" x2="179.032" y2="195.29" gradientUnits="userSpaceOnUse">
<stop stop-color="#FF1963"/>
<stop offset="0.5" stop-color="#A50073"/>
<stop offset="1" stop-color="#770065"/>
</linearGradient>
<linearGradient id="paint16_linear_2111_3762" x1="212.415" y1="202.292" x2="224.318" y2="222.91" gradientUnits="userSpaceOnUse">
<stop stop-color="#7A0066"/>
<stop offset="1" stop-color="#C30075"/>
</linearGradient>
<linearGradient id="paint17_linear_2111_3762" x1="189.779" y1="189.085" x2="201.157" y2="208.792" gradientUnits="userSpaceOnUse">
<stop stop-color="#770065"/>
<stop offset="0.5" stop-color="#550052"/>
<stop offset="1" stop-color="#7A0066"/>
</linearGradient>
<linearGradient id="paint18_linear_2111_3762" x1="270.258" y1="298.258" x2="272.271" y2="301.745" gradientUnits="userSpaceOnUse">
<stop stop-color="#C30075"/>
<stop offset="1" stop-color="#FF0965"/>
</linearGradient>
<linearGradient id="paint19_linear_2111_3762" x1="85.0577" y1="106.844" x2="135.209" y2="193.708" gradientUnits="userSpaceOnUse">
<stop stop-color="#770065"/>
<stop offset="1" stop-color="#770065"/>
</linearGradient>
<linearGradient id="paint20_linear_2111_3762" x1="273.779" y1="217.396" x2="307.913" y2="276.518" gradientUnits="userSpaceOnUse">
<stop stop-color="#C30075"/>
<stop offset="1" stop-color="#C30075"/>
</linearGradient>
<linearGradient id="paint21_linear_2111_3762" x1="225.759" y1="141.428" x2="230.66" y2="149.917" gradientUnits="userSpaceOnUse">
<stop stop-color="#770065"/>
<stop offset="0.5" stop-color="#530051"/>
<stop offset="1" stop-color="#770065"/>
</linearGradient>
<linearGradient id="paint22_linear_2111_3762" x1="269.514" y1="208.337" x2="274.503" y2="216.978" gradientUnits="userSpaceOnUse">
<stop stop-color="#770065"/>
<stop offset="1" stop-color="#C30075"/>
</linearGradient>
<linearGradient id="paint23_linear_2111_3762" x1="220.633" y1="155.707" x2="255.643" y2="216.345" gradientUnits="userSpaceOnUse">
<stop stop-color="#770065"/>
<stop offset="1" stop-color="#770065"/>
</linearGradient>
<linearGradient id="paint24_linear_2111_3762" x1="119" y1="180" x2="293.071" y2="180" gradientUnits="userSpaceOnUse">
<stop stop-color="#EC008C"/>
<stop offset="1" stop-color="#FC6767"/>
</linearGradient>
</defs>
</svg>
