<svg width="800" height="800" viewBox="0 0 800 800" fill="none" xmlns="http://www.w3.org/2000/svg">
<g clip-path="url(#clip0_2003_1004)">
<rect width="461.415" height="461.415" rx="56.3443" transform="matrix(0.866025 0.5 -0.866025 0.5 399.629 148.9)" fill="url(#paint0_linear_2003_1004)"/>
<rect width="346.061" height="57.6769" transform="matrix(0.866025 0.5 0 1 49.9785 408.446)" fill="url(#paint1_linear_2003_1004)"/>
<rect width="346.061" height="57.6769" transform="matrix(0.866025 -0.5 0 1 449.576 581.478)" fill="url(#paint2_linear_2003_1004)"/>
<path d="M29.291 379.608C29.291 390.87 37.1976 401.066 49.9809 408.446V466.123C37.1976 458.743 29.291 448.547 29.291 437.285V379.608Z" fill="url(#paint3_linear_2003_1004)"/>
<path d="M349.68 581.478C377.266 597.405 421.993 597.405 449.579 581.478V639.154C421.993 655.082 377.266 655.081 349.68 639.154V581.478Z" fill="url(#paint4_linear_2003_1004)"/>
<path d="M769.967 379.608C769.967 390.87 762.061 401.066 749.277 408.446V466.123C762.061 458.743 769.967 448.547 769.967 437.285V379.608Z" fill="url(#paint5_linear_2003_1004)"/>
<g clip-path="url(#clip1_2003_1004)">
<rect width="461.984" height="461.984" rx="57.1609" transform="matrix(0.866025 0.5 -0.866025 0.5 399.91 148.9)" fill="url(#paint6_linear_2003_1004)"/>
<rect width="148.757" height="148.757" transform="matrix(0.866025 0.5 -0.866025 0.5 399.91 148.9)" fill="black" fill-opacity="0.1"/>
<rect width="148.757" height="148.757" transform="matrix(0.866025 0.5 -0.866025 0.5 264.279 227.207)" fill="black" fill-opacity="0.1"/>
<rect width="148.757" height="148.757" transform="matrix(0.866025 0.5 -0.866025 0.5 264.279 383.821)" fill="black" fill-opacity="0.1"/>
<rect width="148.757" height="148.757" transform="matrix(0.866025 0.5 -0.866025 0.5 535.541 227.207)" fill="black" fill-opacity="0.1"/>
<rect width="148.757" height="148.757" transform="matrix(0.866025 0.5 -0.866025 0.5 535.541 383.821)" fill="black" fill-opacity="0.1"/>
<rect width="148.757" height="148.757" transform="matrix(0.866025 0.5 -0.866025 0.5 671.172 305.514)" fill="black" fill-opacity="0.1"/>
<rect width="148.757" height="148.757" transform="matrix(0.866025 0.5 -0.866025 0.5 128.648 305.514)" fill="black" fill-opacity="0.1"/>
<rect width="148.757" height="148.757" transform="matrix(0.866025 0.5 -0.866025 0.5 399.91 462.127)" fill="black" fill-opacity="0.1"/>
<rect width="148.757" height="148.757" transform="matrix(0.866025 0.5 -0.866025 0.5 399.91 305.514)" fill="black" fill-opacity="0.1"/>
<mask id="path-18-inside-1_2003_1004" fill="white">
<path d="M175.023 416.803C171.461 414.747 171.461 412.691 175.023 410.635L449.187 252.346C452.749 250.289 456.31 250.289 459.872 252.346L582.316 323.039C585.735 325.013 587.445 327.316 587.445 329.948L587.445 379.298C587.445 382.094 585.806 384.438 582.53 386.33L499.191 434.446C495.771 436.42 491.711 437.366 487.01 437.283H401.534C396.833 437.366 392.773 436.42 389.354 434.446L338.282 404.959L251.737 454.926C248.176 456.982 244.614 456.982 241.053 454.926L175.023 416.803ZM418.202 373.376C428.174 379.133 437.363 381.971 445.768 381.888C454.316 381.724 464.003 378.516 474.83 372.265C485.657 366.014 491.213 360.421 491.498 355.486C491.783 350.551 486.939 345.205 476.967 339.448C467.137 333.772 457.948 331.017 449.401 331.182C440.853 331.346 431.166 334.554 420.339 340.805C409.512 347.056 403.956 352.649 403.671 357.584C403.529 362.436 408.372 367.7 418.202 373.376Z"/>
</mask>
<path d="M175.023 416.803C171.461 414.747 171.461 412.691 175.023 410.635L449.187 252.346C452.749 250.289 456.31 250.289 459.872 252.346L582.316 323.039C585.735 325.013 587.445 327.316 587.445 329.948L587.445 379.298C587.445 382.094 585.806 384.438 582.53 386.33L499.191 434.446C495.771 436.42 491.711 437.366 487.01 437.283H401.534C396.833 437.366 392.773 436.42 389.354 434.446L338.282 404.959L251.737 454.926C248.176 456.982 244.614 456.982 241.053 454.926L175.023 416.803ZM418.202 373.376C428.174 379.133 437.363 381.971 445.768 381.888C454.316 381.724 464.003 378.516 474.83 372.265C485.657 366.014 491.213 360.421 491.498 355.486C491.783 350.551 486.939 345.205 476.967 339.448C467.137 333.772 457.948 331.017 449.401 331.182C440.853 331.346 431.166 334.554 420.339 340.805C409.512 347.056 403.956 352.649 403.671 357.584C403.529 362.436 408.372 367.7 418.202 373.376Z" fill="url(#paint7_linear_2003_1004)"/>
<path d="M587.445 329.948L575.256 329.948L575.256 329.948L587.445 329.948ZM587.445 379.298L599.633 379.298V379.298L587.445 379.298ZM487.01 437.283L487.379 430.249L487.195 430.246H487.01V437.283ZM401.534 437.283V430.246H401.349L401.165 430.249L401.534 437.283ZM338.282 404.959L346.901 399.983L338.282 395.007L329.663 399.983L338.282 404.959ZM445.768 381.888L445.975 388.925L446.074 388.924L446.174 388.922L445.768 381.888ZM491.498 355.486L479.316 355.252L479.316 355.252L491.498 355.486ZM449.401 331.182L449.807 338.215L449.807 338.215L449.401 331.182ZM403.671 357.584L391.489 357.349L391.486 357.407L391.484 357.464L403.671 357.584ZM175.023 416.803L183.641 411.827C183.189 411.566 184.54 412.222 184.54 413.719C184.54 415.215 183.189 415.872 183.641 415.611L175.023 410.635L166.404 405.659C163.295 407.454 160.163 410.166 160.163 413.719C160.163 417.272 163.295 419.984 166.404 421.779L175.023 416.803ZM175.023 410.635L183.641 415.611L457.806 257.322L449.187 252.346L440.568 247.37L166.404 405.659L175.023 410.635ZM449.187 252.346L457.806 257.322C458.258 257.061 457.121 257.841 454.529 257.841C451.937 257.841 450.801 257.061 451.253 257.322L459.872 252.346L468.49 247.37C465.381 245.574 460.683 243.766 454.529 243.766C448.376 243.766 443.678 245.574 440.568 247.37L449.187 252.346ZM459.872 252.346L451.253 257.322L573.697 328.015L582.316 323.039L590.935 318.063L468.49 247.37L459.872 252.346ZM582.316 323.039L573.697 328.015C574.984 328.758 575.256 329.304 575.256 329.948L587.445 329.948L599.633 329.948C599.633 325.328 596.486 321.268 590.935 318.063L582.316 323.039ZM587.445 329.948L575.256 329.948L575.256 379.298L587.445 379.298L599.633 379.298L599.633 329.948L587.445 329.948ZM587.445 379.298L575.256 379.297C575.256 380.322 574.789 380.847 573.911 381.354L582.53 386.33L591.148 391.306C596.824 388.029 599.633 383.866 599.633 379.298L587.445 379.298ZM582.53 386.33L573.911 381.354L490.572 429.47L499.191 434.446L507.809 439.422L591.148 391.306L582.53 386.33ZM499.191 434.446L490.572 429.47C489.454 430.115 488.616 430.271 487.379 430.249L487.01 437.283L486.641 444.317C494.806 444.46 502.089 442.724 507.809 439.422L499.191 434.446ZM487.01 437.283V430.246L401.534 430.246V437.283V444.32L487.01 444.32V437.283ZM401.534 437.283L401.165 430.249C399.928 430.271 399.09 430.115 397.972 429.47L389.354 434.446L380.735 439.422C386.455 442.724 393.738 444.46 401.903 444.317L401.534 437.283ZM389.354 434.446L397.972 429.47L346.901 399.983L338.282 404.959L329.663 409.935L380.735 439.422L389.354 434.446ZM338.282 404.959L329.663 399.983L243.119 449.95L251.737 454.926L260.356 459.902L346.901 409.935L338.282 404.959ZM251.737 454.926L243.119 449.95C242.666 450.211 243.803 449.431 246.395 449.431C248.987 449.431 250.124 450.211 249.671 449.95L241.053 454.926L232.434 459.902C235.543 461.697 240.241 463.505 246.395 463.505C252.549 463.505 257.247 461.697 260.356 459.902L251.737 454.926ZM241.053 454.926L249.671 449.95L183.641 411.827L175.023 416.803L166.404 421.779L232.434 459.902L241.053 454.926ZM418.202 373.376L409.583 378.352C420.391 384.592 432.619 389.055 445.975 388.925L445.768 381.888L445.561 374.852C442.106 374.886 435.957 373.674 426.821 368.4L418.202 373.376ZM445.768 381.888L446.174 388.922C459.479 388.666 472.002 383.85 483.449 377.241L474.83 372.265L466.211 367.289C456.004 373.182 449.152 374.782 445.362 374.855L445.768 381.888ZM474.83 372.265L483.449 377.241C494.895 370.633 503.236 363.402 503.68 355.721L491.498 355.486L479.316 355.252C479.189 357.44 476.419 361.396 466.211 367.289L474.83 372.265ZM491.498 355.486L503.68 355.721C504.132 347.891 496.457 340.749 485.585 334.472L476.967 339.448L468.348 344.424C477.421 349.662 479.434 353.212 479.316 355.252L491.498 355.486ZM476.967 339.448L485.585 334.472C474.811 328.251 462.518 323.888 448.995 324.148L449.401 331.182L449.807 338.215C453.379 338.146 459.463 339.294 468.348 344.424L476.967 339.448ZM449.401 331.182L448.995 324.148C435.69 324.404 423.167 329.22 411.72 335.829L420.339 340.805L428.958 345.781C439.165 339.888 446.016 338.288 449.807 338.215L449.401 331.182ZM420.339 340.805L411.72 335.829C400.274 342.437 391.933 349.668 391.489 357.349L403.671 357.584L415.853 357.818C415.979 355.63 418.75 351.674 428.958 345.781L420.339 340.805ZM403.671 357.584L391.484 357.464C391.258 365.154 398.874 372.168 409.583 378.352L418.202 373.376L426.821 368.4C417.871 363.232 415.799 359.719 415.858 357.703L403.671 357.584Z" fill="black" fill-opacity="0.2" mask="url(#path-18-inside-1_2003_1004)"/>
</g>
</g>
<defs>
<linearGradient id="paint0_linear_2003_1004" x1="461.236" y1="461.53" x2="-24.2177" y2="26.8218" gradientUnits="userSpaceOnUse">
<stop stop-color="#FFD5EF"/>
<stop offset="1" stop-color="#EFBDFD"/>
</linearGradient>
<linearGradient id="paint1_linear_2003_1004" x1="0" y1="0" x2="205.43" y2="201.238" gradientUnits="userSpaceOnUse">
<stop stop-color="#AC93FC"/>
<stop offset="1" stop-color="#E593FC"/>
</linearGradient>
<linearGradient id="paint2_linear_2003_1004" x1="-0.000106001" y1="-0.0528022" x2="185.515" y2="-146.078" gradientUnits="userSpaceOnUse">
<stop stop-color="#D744C2"/>
<stop offset="1" stop-color="#C665E1"/>
</linearGradient>
<linearGradient id="paint3_linear_2003_1004" x1="29.291" y1="379.608" x2="53.3221" y2="380.546" gradientUnits="userSpaceOnUse">
<stop stop-color="#AC93FC"/>
<stop offset="1" stop-color="#E593FC"/>
</linearGradient>
<linearGradient id="paint4_linear_2003_1004" x1="349.68" y1="581.414" x2="433.446" y2="565.646" gradientUnits="userSpaceOnUse">
<stop stop-color="#D744C2"/>
<stop offset="1" stop-color="#C665E1"/>
</linearGradient>
<linearGradient id="paint5_linear_2003_1004" x1="749.277" y1="379.529" x2="767.223" y2="378.966" gradientUnits="userSpaceOnUse">
<stop stop-color="#D744C2"/>
<stop offset="1" stop-color="#C665E1"/>
</linearGradient>
<linearGradient id="paint6_linear_2003_1004" x1="461.804" y1="462.098" x2="-24.2476" y2="26.8548" gradientUnits="userSpaceOnUse">
<stop stop-color="#FAD5FF"/>
<stop offset="1" stop-color="#CFBDFD"/>
</linearGradient>
<linearGradient id="paint7_linear_2003_1004" x1="429.033" y1="240.204" x2="543.662" y2="397.327" gradientUnits="userSpaceOnUse">
<stop stop-color="#D744C2"/>
<stop offset="1" stop-color="#C665E1"/>
</linearGradient>
<clipPath id="clip0_2003_1004">
<path d="M0 64.172C0 28.7308 28.7308 0 64.172 0H735.828C771.269 0 800 28.7308 800 64.172V735.828C800 771.269 771.269 800 735.828 800H64.172C28.7308 800 0 771.269 0 735.828V64.172Z" fill="white"/>
</clipPath>
<clipPath id="clip1_2003_1004">
<rect width="461.984" height="461.984" rx="57.1609" transform="matrix(0.866025 0.5 -0.866025 0.5 399.91 148.9)" fill="white"/>
</clipPath>
</defs>
</svg>
