<svg width="450" height="432" viewBox="0 0 450 432" fill="none" xmlns="http://www.w3.org/2000/svg">
<path d="M199.327 307.279C196.41 305.594 194.951 303.068 194.951 299.699V40.3688C194.951 38.6845 195.316 37.6318 196.045 37.2106C196.774 36.7894 197.869 36.9999 199.327 37.8422L299.63 95.7519C302.431 97.3689 304.765 99.7944 306.632 103.028L341.641 163.667C343.625 167.103 344.617 170.371 344.617 173.47V252.3C344.617 255.534 343.625 257.656 341.641 258.667C341.641 258.667 332.889 263.72 324.137 268.773C315.384 273.827 306.632 278.88 306.632 278.88C304.765 280.093 302.431 279.89 299.63 278.273L257.793 254.119V335.981C257.793 337.665 257.429 338.718 256.699 339.139C255.97 339.56 254.876 339.35 253.417 338.508L199.327 307.279ZM268.121 196.412C276.29 201.128 282.067 202.442 285.451 200.353C288.835 198.13 290.527 191.897 290.527 181.656C290.527 171.415 288.835 163.229 285.451 157.098C282.067 150.966 276.29 145.543 268.121 140.826C260.069 136.177 254.351 134.965 250.967 137.188C247.582 139.412 245.89 145.644 245.89 155.885C245.89 166.126 247.582 174.312 250.967 180.443C254.351 186.44 260.069 191.763 268.121 196.412Z" fill="#EC008C"/>
<path d="M130 337.199C130 340.568 131.459 343.094 134.376 344.779L199.328 307.279C196.411 305.594 194.952 303.068 194.952 299.699L130 337.199Z" fill="url(#paint0_linear_2111_3762)"/>
<path d="M134.377 344.779L188.467 376.008L253.419 338.508L199.329 307.279L134.377 344.779Z" fill="url(#paint1_linear_2111_3762)"/>
<path d="M188.467 376.008C189.926 376.85 191.02 377.06 191.749 376.639L256.701 339.139C255.971 339.56 254.877 339.35 253.419 338.508L188.467 376.008Z" fill="url(#paint2_linear_2111_3762)"/>
<path d="M191.748 376.639C192.477 376.218 192.842 375.165 192.842 373.481L257.794 335.981C257.794 337.665 257.429 338.718 256.7 339.139L191.748 376.639Z" fill="url(#paint3_linear_2111_3762)"/>
<path d="M192.842 373.481V291.619L257.794 254.119V335.981L192.842 373.481Z" fill="url(#paint4_linear_2111_3762)"/>
<path d="M130 77.8688V337.199L194.952 299.699V40.3688L130 77.8688Z" fill="url(#paint5_linear_2111_3762)"/>
<path d="M192.842 291.619L234.678 315.773L299.63 278.273L257.794 254.119L192.842 291.619Z" fill="url(#paint6_linear_2111_3762)"/>
<path d="M241.68 316.38C239.812 317.593 237.479 317.39 234.678 315.773L299.63 278.273C302.206 279.761 304.388 280.051 306.174 279.144L306.632 278.88C306.482 278.977 306.33 279.065 306.174 279.144L241.68 316.38Z" fill="url(#paint7_linear_2111_3762)"/>
<path d="M203.17 233.912C195.118 229.263 189.4 223.94 186.016 217.943L250.968 180.443C254.352 186.44 260.07 191.763 268.122 196.412L203.17 233.912Z" fill="url(#paint8_linear_2111_3762)"/>
<path d="M186.016 217.944C182.632 211.812 180.939 203.626 180.939 193.385L245.891 155.885C245.891 166.126 247.583 174.312 250.968 180.444L186.016 217.944Z" fill="url(#paint9_linear_2111_3762)"/>
<path d="M220.5 237.853C217.115 239.942 211.339 238.628 203.17 233.912L268.122 196.412C276.061 200.995 281.74 202.365 285.16 200.522L285.452 200.353C285.356 200.412 285.259 200.468 285.16 200.522L220.5 237.853Z" fill="url(#paint10_linear_2111_3762)"/>
<path d="M180.939 193.385C180.939 183.144 182.632 176.912 186.016 174.688L250.968 137.188C247.583 139.412 245.891 145.644 245.891 155.885L180.939 193.385Z" fill="url(#paint11_linear_2111_3762)"/>
<path d="M131.094 74.7107C130.365 75.1319 130 76.1846 130 77.8688L194.952 40.3688C194.952 38.6846 195.317 37.6319 196.046 37.2107L131.094 74.7107Z" fill="url(#paint12_linear_2111_3762)"/>
<path d="M134.376 75.3422C132.917 74.5001 131.823 74.2895 131.094 74.7105L196.046 37.2106C196.775 36.7894 197.869 36.9999 199.328 37.8422L134.376 75.3422Z" fill="url(#paint13_linear_2111_3762)"/>
<path d="M225.576 219.156C225.576 229.397 223.884 235.63 220.5 237.853L285.452 200.353C288.836 198.13 290.528 191.897 290.528 181.656L225.576 219.156Z" fill="url(#paint14_linear_2111_3762)"/>
<path d="M203.17 178.326C195.572 173.939 190.052 172.612 186.61 174.345L186.016 174.688C186.206 174.563 186.404 174.449 186.61 174.345L250.968 137.188C254.352 134.965 260.07 136.177 268.122 140.826L203.17 178.326Z" fill="url(#paint15_linear_2111_3762)"/>
<path d="M220.5 194.598C223.884 200.729 225.576 208.915 225.576 219.156L290.528 181.656C290.528 171.415 288.836 163.229 285.452 157.098L220.5 194.598Z" fill="url(#paint16_linear_2111_3762)"/>
<path d="M203.17 178.326C211.339 183.043 217.115 188.467 220.5 194.598L285.452 157.098C282.067 150.967 276.291 145.543 268.122 140.826L203.17 178.326Z" fill="url(#paint17_linear_2111_3762)"/>
<path d="M277.147 295.903C278.826 294.81 279.665 292.775 279.665 289.8L344.617 252.3C344.617 255.534 343.625 257.656 341.641 258.667L277.147 295.903C277.001 295.998 276.848 296.086 276.689 296.167L277.147 295.903Z" fill="url(#paint18_linear_2111_3762)"/>
<path d="M234.679 133.252L134.377 75.3422L199.329 37.8422L299.631 95.7518L234.679 133.252Z" fill="url(#paint19_linear_2111_3762)"/>
<path d="M279.666 289.8V210.97L344.618 173.47V252.3L279.666 289.8Z" fill="url(#paint20_linear_2111_3762)"/>
<path d="M241.68 140.528C239.812 137.294 237.479 134.869 234.678 133.252L299.63 95.7518C302.43 97.3689 304.764 99.7944 306.632 103.028L241.68 140.528Z" fill="url(#paint21_linear_2111_3762)"/>
<path d="M279.665 210.97C279.665 207.871 278.673 204.603 276.689 201.167L341.641 163.667C343.625 167.103 344.617 170.371 344.617 173.47L279.665 210.97Z" fill="url(#paint22_linear_2111_3762)"/>
<path d="M276.689 201.167L241.68 140.528L306.632 103.028L341.641 163.667L276.689 201.167Z" fill="url(#paint23_linear_2111_3762)"/>
<mask id="path-27-inside-1_2111_3762" fill="white">
<path d="M134.376 344.779C131.459 343.094 130 340.568 130 337.199V77.8688C130 74.5 131.459 73.6578 134.376 75.3422L234.679 133.252C237.479 134.869 239.813 137.294 241.681 140.528L276.69 201.167C278.674 204.603 279.666 207.871 279.666 210.97V289.8C279.666 293.034 278.674 295.156 276.69 296.167L241.681 316.38C239.813 317.593 237.479 317.39 234.679 315.773L192.842 291.619V373.481C192.842 376.85 191.383 377.692 188.466 376.008L134.376 344.779ZM203.17 233.912C211.339 238.628 217.116 239.942 220.5 237.853C223.884 235.63 225.576 229.397 225.576 219.156C225.576 208.915 223.884 200.729 220.5 194.598C217.116 188.466 211.339 183.043 203.17 178.326C195.118 173.677 189.4 172.465 186.015 174.688C182.631 176.912 180.939 183.144 180.939 193.385C180.939 203.626 182.631 211.812 186.015 217.943C189.4 223.94 195.118 229.263 203.17 233.912Z"/>
</mask>
<path d="M134.376 344.779C131.459 343.094 130 340.568 130 337.199V77.8688C130 74.5 131.459 73.6578 134.376 75.3422L234.679 133.252C237.479 134.869 239.813 137.294 241.681 140.528L276.69 201.167C278.674 204.603 279.666 207.871 279.666 210.97V289.8C279.666 293.034 278.674 295.156 276.69 296.167L241.681 316.38C239.813 317.593 237.479 317.39 234.679 315.773L192.842 291.619V373.481C192.842 376.85 191.383 377.692 188.466 376.008L134.376 344.779ZM203.17 233.912C211.339 238.628 217.116 239.942 220.5 237.853C223.884 235.63 225.576 229.397 225.576 219.156C225.576 208.915 223.884 200.729 220.5 194.598C217.116 188.466 211.339 183.043 203.17 178.326C195.118 173.677 189.4 172.465 186.015 174.688C182.631 176.912 180.939 183.144 180.939 193.385C180.939 203.626 182.631 211.812 186.015 217.943C189.4 223.94 195.118 229.263 203.17 233.912Z" fill="url(#paint24_linear_2111_3762)"/>
<path d="M241.681 140.528L236.688 143.411L236.688 143.411L241.681 140.528ZM276.69 201.167L281.682 198.285L281.682 198.285L276.69 201.167ZM276.69 296.167L271.851 287.437L271.773 287.476L271.698 287.52L276.69 296.167ZM241.681 316.38L236.688 307.733L236.613 307.777L236.539 307.824L241.681 316.38ZM192.842 291.619V283.467L185.782 279.391V287.543L192.842 291.619ZM220.5 237.853L225.576 246.45L225.616 246.425L225.656 246.399L220.5 237.853ZM220.5 194.598L215.344 197.19L215.344 197.19L220.5 194.598ZM186.015 174.688L191.171 183.234L191.171 183.234L186.015 174.688ZM186.015 217.943L180.859 220.536L180.899 220.608L180.939 220.679L186.015 217.943ZM134.376 344.779V336.626C134.006 336.413 135.025 336.899 136.086 338.738C137.148 340.577 137.06 341.703 137.06 341.275L130 337.199L122.94 333.123C122.94 336.064 123.581 340.137 126.102 344.503C128.622 348.868 131.829 351.461 134.376 352.931V344.779ZM130 337.199L137.06 341.275V81.945L130 77.8688L122.94 73.7926V333.123L130 337.199ZM130 77.8688L137.06 81.945C137.06 81.5172 137.148 82.7445 136.086 83.3575C135.025 83.9704 134.006 83.2807 134.376 83.4946V75.3422V67.1898C131.829 65.7193 128.622 64.6085 126.102 66.0637C123.581 67.5188 122.94 70.8516 122.94 73.7926L130 77.8688ZM134.376 75.3422V83.4946L234.679 141.404V133.252V125.099L134.376 67.1898V75.3422ZM234.679 133.252V141.404C235.733 142.013 236.232 142.62 236.688 143.411L241.681 140.528L246.673 137.646C243.395 131.969 239.226 127.725 234.679 125.099V133.252ZM241.681 140.528L236.688 143.411L271.698 204.049L276.69 201.167L281.682 198.285L246.673 137.646L241.681 140.528ZM276.69 201.167L271.698 204.049C272.425 205.308 272.606 206.063 272.606 206.894L279.666 210.97L286.726 215.046C286.726 209.678 284.924 203.898 281.682 198.285L276.69 201.167ZM279.666 210.97L272.606 206.894V285.724L279.666 289.8L286.726 293.876V215.046L279.666 210.97ZM279.666 289.8L272.606 285.724C272.606 286.781 272.373 287.171 271.851 287.437L276.69 296.167L281.529 304.897C284.975 303.142 286.726 299.287 286.726 293.876L279.666 289.8ZM276.69 296.167L271.698 287.52L236.688 307.733L241.681 316.38L246.673 325.027L281.682 304.814L276.69 296.167ZM241.681 316.38L236.539 307.824C236.048 308.143 235.594 308.15 234.679 307.621V315.773V323.926C239.364 326.631 243.579 327.042 246.822 324.935L241.681 316.38ZM234.679 315.773V307.621L192.842 283.467V291.619V299.772L234.679 323.926V315.773ZM192.842 291.619L185.782 287.543V369.405L192.842 373.481L199.902 377.557V295.695L192.842 291.619ZM192.842 373.481L185.782 369.405C185.782 369.833 185.694 368.605 186.756 367.992C187.817 367.379 188.836 368.069 188.466 367.855V376.008V384.16C191.013 385.63 194.22 386.741 196.74 385.286C199.261 383.831 199.902 380.498 199.902 377.557L192.842 373.481ZM188.466 376.008V367.855L134.376 336.626V344.779V352.931L188.466 384.16V376.008ZM203.17 233.912V242.064C212.024 247.176 220.199 249.769 225.576 246.45L220.5 237.853L215.424 229.256C214.032 230.115 210.654 230.08 203.17 225.759V233.912ZM220.5 237.853L225.656 246.399C230.923 242.938 232.636 234.06 232.636 223.232L225.576 219.156L218.516 215.08C218.516 224.735 216.845 228.321 215.344 229.307L220.5 237.853ZM225.576 219.156L232.636 223.232C232.636 212.405 230.923 201.549 225.656 192.005L220.5 194.598L215.344 197.19C216.845 199.909 218.516 205.425 218.516 215.08L225.576 219.156ZM220.5 194.598L225.656 192.005C220.286 182.277 212.076 175.316 203.17 170.174V178.326V186.479C210.602 190.77 213.945 194.656 215.344 197.19L220.5 194.598ZM203.17 178.326V170.174C194.344 165.078 186.214 162.624 180.859 166.142L186.015 174.688L191.171 183.234C192.585 182.305 195.892 182.277 203.17 186.479V178.326ZM186.015 174.688L180.859 166.142C175.592 169.603 173.879 178.482 173.879 189.309L180.939 193.385L187.999 197.461C187.999 187.806 189.67 184.22 191.171 183.234L186.015 174.688ZM180.939 193.385L173.879 189.309C173.879 200.136 175.592 210.993 180.859 220.536L186.015 217.943L191.171 215.351C189.67 212.632 187.999 207.116 187.999 197.461L180.939 193.385ZM186.015 217.943L180.939 220.679C186.301 230.18 194.397 236.999 203.17 242.064V233.912V225.759C195.839 221.526 192.498 217.7 191.091 215.208L186.015 217.943Z" fill="black" fill-opacity="0.2" mask="url(#path-27-inside-1_2111_3762)"/>
<defs>
<linearGradient id="paint0_linear_2111_3762" x1="116.218" y1="345.156" x2="120.594" y2="352.736" gradientUnits="userSpaceOnUse">
<stop stop-color="#C30075"/>
<stop offset="1" stop-color="#770065"/>
</linearGradient>
<linearGradient id="paint1_linear_2111_3762" x1="99.0684" y1="365.164" x2="126.113" y2="412.007" gradientUnits="userSpaceOnUse">
<stop stop-color="#770065"/>
<stop offset="1" stop-color="#770065"/>
</linearGradient>
<linearGradient id="paint2_linear_2111_3762" x1="175.158" y1="383.691" x2="176.253" y2="385.586" gradientUnits="userSpaceOnUse">
<stop stop-color="#770065"/>
<stop offset="0.5" stop-color="#A80074"/>
<stop offset="1" stop-color="#FF1164"/>
</linearGradient>
<linearGradient id="paint3_linear_2111_3762" x1="179.661" y1="381.091" x2="180.755" y2="382.986" gradientUnits="userSpaceOnUse">
<stop stop-color="#C30075"/>
<stop offset="1" stop-color="#FF1164"/>
</linearGradient>
<linearGradient id="paint4_linear_2111_3762" x1="180.955" y1="298.482" x2="216.402" y2="359.878" gradientUnits="userSpaceOnUse">
<stop stop-color="#C30075"/>
<stop offset="1" stop-color="#C30075"/>
</linearGradient>
<linearGradient id="paint5_linear_2111_3762" x1="118.113" y1="84.7317" x2="230.406" y2="279.229" gradientUnits="userSpaceOnUse">
<stop stop-color="#C30075"/>
<stop offset="1" stop-color="#C30075"/>
</linearGradient>
<linearGradient id="paint6_linear_2111_3762" x1="162.839" y1="308.941" x2="183.757" y2="345.173" gradientUnits="userSpaceOnUse">
<stop stop-color="#770065"/>
<stop offset="1" stop-color="#770065"/>
</linearGradient>
<linearGradient id="paint7_linear_2111_3762" x1="219.759" y1="324.387" x2="221.772" y2="327.874" gradientUnits="userSpaceOnUse">
<stop stop-color="#770065"/>
<stop offset="0.5" stop-color="#B70075"/>
<stop offset="1" stop-color="#FF1863"/>
</linearGradient>
<linearGradient id="paint8_linear_2111_3762" x1="166.7" y1="229.095" x2="177.903" y2="248.499" gradientUnits="userSpaceOnUse">
<stop stop-color="#780066"/>
<stop offset="0.5" stop-color="#560052"/>
<stop offset="1" stop-color="#770065"/>
</linearGradient>
<linearGradient id="paint9_linear_2111_3762" x1="166.854" y1="201.517" x2="178.758" y2="222.134" gradientUnits="userSpaceOnUse">
<stop stop-color="#C30075"/>
<stop offset="1" stop-color="#7A0066"/>
</linearGradient>
<linearGradient id="paint10_linear_2111_3762" x1="183.779" y1="245.107" x2="189.818" y2="255.567" gradientUnits="userSpaceOnUse">
<stop stop-color="#770065"/>
<stop offset="0.5" stop-color="#A30073"/>
<stop offset="1" stop-color="#FF1564"/>
</linearGradient>
<linearGradient id="paint11_linear_2111_3762" x1="168.123" y1="185.018" x2="174.95" y2="196.843" gradientUnits="userSpaceOnUse">
<stop stop-color="#FF1963"/>
<stop offset="1" stop-color="#C30075"/>
</linearGradient>
<linearGradient id="paint12_linear_2111_3762" x1="117.913" y1="82.3208" x2="119.007" y2="84.2158" gradientUnits="userSpaceOnUse">
<stop stop-color="#FF1164"/>
<stop offset="1" stop-color="#C30075"/>
</linearGradient>
<linearGradient id="paint13_linear_2111_3762" x1="117.877" y1="82.3415" x2="118.971" y2="84.2365" gradientUnits="userSpaceOnUse">
<stop stop-color="#FF1164"/>
<stop offset="0.5" stop-color="#A80074"/>
<stop offset="1" stop-color="#770065"/>
</linearGradient>
<linearGradient id="paint14_linear_2111_3762" x1="207.684" y1="229.486" x2="214.511" y2="241.311" gradientUnits="userSpaceOnUse">
<stop stop-color="#C30075"/>
<stop offset="1" stop-color="#FF1963"/>
</linearGradient>
<linearGradient id="paint15_linear_2111_3762" x1="167.168" y1="185.57" x2="173.032" y2="195.727" gradientUnits="userSpaceOnUse">
<stop stop-color="#FF1963"/>
<stop offset="0.5" stop-color="#A50073"/>
<stop offset="1" stop-color="#770065"/>
</linearGradient>
<linearGradient id="paint16_linear_2111_3762" x1="206.415" y1="202.73" x2="218.318" y2="223.347" gradientUnits="userSpaceOnUse">
<stop stop-color="#7A0066"/>
<stop offset="1" stop-color="#C30075"/>
</linearGradient>
<linearGradient id="paint17_linear_2111_3762" x1="183.779" y1="189.522" x2="195.157" y2="209.229" gradientUnits="userSpaceOnUse">
<stop stop-color="#770065"/>
<stop offset="0.5" stop-color="#550052"/>
<stop offset="1" stop-color="#7A0066"/>
</linearGradient>
<linearGradient id="paint18_linear_2111_3762" x1="264.258" y1="298.696" x2="266.271" y2="302.182" gradientUnits="userSpaceOnUse">
<stop stop-color="#C30075"/>
<stop offset="1" stop-color="#FF0965"/>
</linearGradient>
<linearGradient id="paint19_linear_2111_3762" x1="79.0577" y1="107.281" x2="129.209" y2="194.145" gradientUnits="userSpaceOnUse">
<stop stop-color="#AE0094"/>
<stop offset="1" stop-color="#770065"/>
</linearGradient>
<linearGradient id="paint20_linear_2111_3762" x1="267.779" y1="217.833" x2="301.913" y2="276.955" gradientUnits="userSpaceOnUse">
<stop stop-color="#C30075"/>
<stop offset="1" stop-color="#C30075"/>
</linearGradient>
<linearGradient id="paint21_linear_2111_3762" x1="219.759" y1="141.865" x2="224.66" y2="150.355" gradientUnits="userSpaceOnUse">
<stop stop-color="#770065"/>
<stop offset="0.5" stop-color="#6E006B"/>
<stop offset="1" stop-color="#770065"/>
</linearGradient>
<linearGradient id="paint22_linear_2111_3762" x1="263.514" y1="208.774" x2="268.503" y2="217.415" gradientUnits="userSpaceOnUse">
<stop stop-color="#770065"/>
<stop offset="1" stop-color="#C30075"/>
</linearGradient>
<linearGradient id="paint23_linear_2111_3762" x1="214.633" y1="156.144" x2="249.643" y2="216.782" gradientUnits="userSpaceOnUse">
<stop stop-color="#770065"/>
<stop offset="1" stop-color="#770065"/>
</linearGradient>
<linearGradient id="paint24_linear_2111_3762" x1="113" y1="180.437" x2="287.071" y2="180.437" gradientUnits="userSpaceOnUse">
<stop stop-color="#FF51B8"/>
<stop offset="1" stop-color="#FFB2B2"/>
</linearGradient>
</defs>
</svg>
