<svg width="64" height="64" viewBox="0 0 64 64" fill="none" xmlns="http://www.w3.org/2000/svg">
<rect width="35.8551" height="35.8551" rx="4.37833" transform="matrix(0.866025 0.5 -0.866025 0.5 31.8887 19)" fill="url(#paint0_linear_2025_1384)"/>
<rect width="26.8913" height="4.48189" transform="matrix(0.866025 0.5 0 1 4.71851 39.1685)" fill="url(#paint1_linear_2025_1384)"/>
<rect width="26.8913" height="4.48189" transform="matrix(0.866025 -0.5 0 1 35.7698 52.6143)" fill="url(#paint2_linear_2025_1384)"/>
<path d="M3.11084 36.9277C3.11084 37.8029 3.72524 38.5952 4.71858 39.1687V43.6506C3.72524 43.0771 3.11084 42.2848 3.11084 41.4096V36.9277Z" fill="url(#paint3_linear_2025_1384)"/>
<path d="M28.0071 52.6143C30.1507 53.8519 33.6263 53.8519 35.7699 52.6143V57.0961C33.6263 58.3338 30.1507 58.3338 28.0071 57.0961V52.6143Z" fill="url(#paint4_linear_2025_1384)"/>
<path d="M60.6663 36.9277C60.6663 37.8029 60.0519 38.5952 59.0586 39.1687V43.6506C60.0519 43.0771 60.6663 42.2848 60.6663 41.4096V36.9277Z" fill="url(#paint5_linear_2025_1384)"/>
<g clip-path="url(#clip0_2025_1384)">
<rect width="35.8992" height="35.8992" rx="4.44179" transform="matrix(0.866025 0.5 -0.866025 0.5 31.9104 19)" fill="url(#paint6_linear_2025_1384)"/>
<rect width="11.5594" height="11.5594" transform="matrix(0.866025 0.5 -0.866025 0.5 31.9104 19)" fill="black" fill-opacity="0.1"/>
<rect width="11.5594" height="11.5594" transform="matrix(0.866025 0.5 -0.866025 0.5 21.3711 25.085)" fill="black" fill-opacity="0.1"/>
<rect width="11.5594" height="11.5594" transform="matrix(0.866025 0.5 -0.866025 0.5 21.3711 37.2549)" fill="black" fill-opacity="0.1"/>
<rect width="11.5594" height="11.5594" transform="matrix(0.866025 0.5 -0.866025 0.5 42.45 25.085)" fill="black" fill-opacity="0.1"/>
<rect width="11.5594" height="11.5594" transform="matrix(0.866025 0.5 -0.866025 0.5 42.45 37.2549)" fill="black" fill-opacity="0.1"/>
<rect width="11.5594" height="11.5594" transform="matrix(0.866025 0.5 -0.866025 0.5 52.9893 31.1699)" fill="black" fill-opacity="0.1"/>
<rect width="11.5594" height="11.5594" transform="matrix(0.866025 0.5 -0.866025 0.5 10.8315 31.1699)" fill="black" fill-opacity="0.1"/>
<rect width="11.5594" height="11.5594" transform="matrix(0.866025 0.5 -0.866025 0.5 31.9104 43.3398)" fill="black" fill-opacity="0.1"/>
<rect width="11.5594" height="11.5594" transform="matrix(0.866025 0.5 -0.866025 0.5 31.9104 31.1699)" fill="black" fill-opacity="0.1"/>
</g>
<rect width="36.3283" height="36.3283" rx="4.43612" transform="matrix(0.866025 0.5 -0.866025 0.5 31.478 18.4604)" fill="url(#paint7_linear_2025_1384)"/>
<rect width="27.2462" height="4.54104" transform="matrix(0.866025 0.5 0 1 3.94922 38.8955)" fill="url(#paint8_linear_2025_1384)"/>
<rect width="27.2462" height="4.54104" transform="matrix(0.866025 -0.5 0 1 35.4104 52.5186)" fill="url(#paint9_linear_2025_1384)"/>
<path d="M2.32056 36.625C2.32056 37.5117 2.94306 38.3144 3.94952 38.8955V43.4366C2.94306 42.8555 2.32056 42.0527 2.32056 41.166V36.625Z" fill="url(#paint10_linear_2025_1384)"/>
<path d="M27.5452 52.5186C29.7171 53.7725 33.2385 53.7725 35.4105 52.5186V57.0596C33.2385 58.3136 29.7171 58.3136 27.5452 57.0596V52.5186Z" fill="url(#paint11_linear_2025_1384)"/>
<path d="M60.6356 36.625C60.6356 37.5117 60.013 38.3144 59.0066 38.8955V43.4366C60.013 42.8555 60.6356 42.0527 60.6356 41.166V36.625Z" fill="url(#paint12_linear_2025_1384)"/>
<g clip-path="url(#clip1_2025_1384)">
<rect width="11.712" height="11.712" transform="matrix(0.866025 0.5 -0.866025 0.5 31.5 18.4604)" fill="white" fill-opacity="0.2"/>
<rect width="11.712" height="11.712" transform="matrix(0.866025 0.5 -0.866025 0.5 20.8213 24.626)" fill="white" fill-opacity="0.2"/>
<rect width="11.712" height="11.712" transform="matrix(0.866025 0.5 -0.866025 0.5 20.8215 36.9561)" fill="white" fill-opacity="0.2"/>
<rect width="11.712" height="11.712" transform="matrix(0.866025 0.5 -0.866025 0.5 42.1785 24.6255)" fill="white" fill-opacity="0.2"/>
<rect width="11.712" height="11.712" transform="matrix(0.866025 0.5 -0.866025 0.5 42.1785 36.9561)" fill="white" fill-opacity="0.2"/>
<rect width="11.712" height="11.712" transform="matrix(0.866025 0.5 -0.866025 0.5 52.8569 30.791)" fill="white" fill-opacity="0.2"/>
<rect width="11.712" height="11.712" transform="matrix(0.866025 0.5 -0.866025 0.5 10.1428 30.791)" fill="white" fill-opacity="0.2"/>
<rect width="11.712" height="11.712" transform="matrix(0.866025 0.5 -0.866025 0.5 31.5 43.1216)" fill="white" fill-opacity="0.2"/>
<rect width="11.712" height="11.712" transform="matrix(0.866025 0.5 -0.866025 0.5 31.5 30.791)" fill="white" fill-opacity="0.2"/>
</g>
<mask id="path-33-outside-1_2025_1384" maskUnits="userSpaceOnUse" x="9" y="19" width="47" height="20" fill="black">
<rect fill="white" x="9" y="19" width="47" height="20"/>
<path d="M10.1969 34.0521V31.2599L17.1981 20.2299H19.6055V24.0949H18.1807L13.7671 31.0797V31.2107H23.7161V34.0521H10.1969ZM18.2462 37V33.2005L18.3117 31.9641V20.2299H21.6362V37H18.2462ZM36.3715 34.6745L26.5862 24.9056L28.7316 22.7356L38.525 32.5291L36.3715 34.6745ZM28.7316 34.6745L26.5862 32.5291L36.3715 22.7356L38.525 24.9056L28.7316 34.6745ZM48.1875 37.2293C47.3249 37.2238 46.4924 37.0792 45.69 36.7953C44.893 36.5114 44.1778 36.0501 43.5446 35.4114C42.9113 34.7727 42.4091 33.9266 42.0379 32.873C41.6721 31.8194 41.4893 30.5256 41.4893 28.9916C41.4947 27.5832 41.6558 26.3249 41.9724 25.2167C42.2945 24.1031 42.753 23.1587 43.3481 22.3835C43.9485 21.6083 44.6664 21.0188 45.5016 20.6148C46.3369 20.2054 47.2731 20.0007 48.3103 20.0007C49.4294 20.0007 50.4175 20.219 51.2745 20.6557C52.1316 21.087 52.8194 21.6739 53.338 22.4163C53.8621 23.1587 54.1787 23.9912 54.2879 24.9138H50.7914C50.6549 24.3297 50.3683 23.8711 49.9316 23.5381C49.4949 23.2051 48.9545 23.0386 48.3103 23.0386C47.2185 23.0386 46.3887 23.5135 45.821 24.4634C45.2587 25.4133 44.9721 26.7043 44.9612 28.3366H45.0758C45.3269 27.8398 45.6654 27.4167 46.0912 27.0673C46.5225 26.7125 47.011 26.4423 47.5569 26.2567C48.1083 26.0656 48.6897 25.9701 49.3011 25.9701C50.2946 25.9701 51.179 26.2048 51.9542 26.6743C52.7294 27.1383 53.3408 27.777 53.7884 28.5904C54.236 29.4038 54.4599 30.3346 54.4599 31.3827C54.4599 32.5182 54.1951 33.5281 53.6656 34.4124C53.1415 35.2968 52.4073 35.9901 51.4629 36.4923C50.5239 36.9891 49.4321 37.2347 48.1875 37.2293ZM48.1711 34.4452C48.717 34.4452 49.2056 34.3142 49.6368 34.0521C50.0681 33.7901 50.4065 33.4353 50.6522 32.9876C50.8979 32.54 51.0207 32.0378 51.0207 31.4809C51.0207 30.9241 50.8979 30.4246 50.6522 29.9825C50.412 29.5403 50.079 29.1882 49.6532 28.9261C49.2274 28.6641 48.7415 28.5331 48.1956 28.5331C47.7862 28.5331 47.4068 28.6095 47.0574 28.7624C46.7135 28.9152 46.4106 29.1281 46.1485 29.4011C45.892 29.674 45.69 29.9906 45.5426 30.3509C45.3952 30.7058 45.3215 31.0852 45.3215 31.4891C45.3215 32.0296 45.4443 32.5236 45.69 32.9713C45.9411 33.4189 46.2795 33.7765 46.7053 34.044C47.1366 34.3114 47.6252 34.4452 48.1711 34.4452Z"/>
</mask>
<path d="M10.1969 34.0521V31.2599L17.1981 20.2299H19.6055V24.0949H18.1807L13.7671 31.0797V31.2107H23.7161V34.0521H10.1969ZM18.2462 37V33.2005L18.3117 31.9641V20.2299H21.6362V37H18.2462ZM36.3715 34.6745L26.5862 24.9056L28.7316 22.7356L38.525 32.5291L36.3715 34.6745ZM28.7316 34.6745L26.5862 32.5291L36.3715 22.7356L38.525 24.9056L28.7316 34.6745ZM48.1875 37.2293C47.3249 37.2238 46.4924 37.0792 45.69 36.7953C44.893 36.5114 44.1778 36.0501 43.5446 35.4114C42.9113 34.7727 42.4091 33.9266 42.0379 32.873C41.6721 31.8194 41.4893 30.5256 41.4893 28.9916C41.4947 27.5832 41.6558 26.3249 41.9724 25.2167C42.2945 24.1031 42.753 23.1587 43.3481 22.3835C43.9485 21.6083 44.6664 21.0188 45.5016 20.6148C46.3369 20.2054 47.2731 20.0007 48.3103 20.0007C49.4294 20.0007 50.4175 20.219 51.2745 20.6557C52.1316 21.087 52.8194 21.6739 53.338 22.4163C53.8621 23.1587 54.1787 23.9912 54.2879 24.9138H50.7914C50.6549 24.3297 50.3683 23.8711 49.9316 23.5381C49.4949 23.2051 48.9545 23.0386 48.3103 23.0386C47.2185 23.0386 46.3887 23.5135 45.821 24.4634C45.2587 25.4133 44.9721 26.7043 44.9612 28.3366H45.0758C45.3269 27.8398 45.6654 27.4167 46.0912 27.0673C46.5225 26.7125 47.011 26.4423 47.5569 26.2567C48.1083 26.0656 48.6897 25.9701 49.3011 25.9701C50.2946 25.9701 51.179 26.2048 51.9542 26.6743C52.7294 27.1383 53.3408 27.777 53.7884 28.5904C54.236 29.4038 54.4599 30.3346 54.4599 31.3827C54.4599 32.5182 54.1951 33.5281 53.6656 34.4124C53.1415 35.2968 52.4073 35.9901 51.4629 36.4923C50.5239 36.9891 49.4321 37.2347 48.1875 37.2293ZM48.1711 34.4452C48.717 34.4452 49.2056 34.3142 49.6368 34.0521C50.0681 33.7901 50.4065 33.4353 50.6522 32.9876C50.8979 32.54 51.0207 32.0378 51.0207 31.4809C51.0207 30.9241 50.8979 30.4246 50.6522 29.9825C50.412 29.5403 50.079 29.1882 49.6532 28.9261C49.2274 28.6641 48.7415 28.5331 48.1956 28.5331C47.7862 28.5331 47.4068 28.6095 47.0574 28.7624C46.7135 28.9152 46.4106 29.1281 46.1485 29.4011C45.892 29.674 45.69 29.9906 45.5426 30.3509C45.3952 30.7058 45.3215 31.0852 45.3215 31.4891C45.3215 32.0296 45.4443 32.5236 45.69 32.9713C45.9411 33.4189 46.2795 33.7765 46.7053 34.044C47.1366 34.3114 47.6252 34.4452 48.1711 34.4452Z" fill="white"/>
<path d="M10.1969 34.0521H9.37337V34.8757H10.1969V34.0521ZM10.1969 31.2599L9.50161 30.8185L9.37337 31.0206V31.2599H10.1969ZM17.1981 20.2299V19.4064H16.7454L16.5028 19.7886L17.1981 20.2299ZM19.6055 20.2299H20.429V19.4064H19.6055V20.2299ZM19.6055 24.0949V24.9184H20.429V24.0949H19.6055ZM18.1807 24.0949V23.2714H17.7269L17.4845 23.655L18.1807 24.0949ZM13.7671 31.0797L13.0709 30.6398L12.9436 30.8413V31.0797H13.7671ZM13.7671 31.2107H12.9436V32.0343H13.7671V31.2107ZM23.7161 31.2107H24.5396V30.3872H23.7161V31.2107ZM23.7161 34.0521V34.8757H24.5396V34.0521H23.7161ZM18.2462 37H17.4227V37.8235H18.2462V37ZM18.2462 33.2005L17.4238 33.157L17.4227 33.1787V33.2005H18.2462ZM18.3117 31.9641L19.1341 32.0076L19.1352 31.9859V31.9641H18.3117ZM18.3117 20.2299V19.4064H17.4882V20.2299H18.3117ZM21.6362 20.2299H22.4598V19.4064H21.6362V20.2299ZM21.6362 37V37.8235H22.4598V37H21.6362ZM10.1969 34.0521H11.0204V31.2599H10.1969H9.37337V34.0521H10.1969ZM10.1969 31.2599L10.8922 31.7012L17.8934 20.6713L17.1981 20.2299L16.5028 19.7886L9.50161 30.8185L10.1969 31.2599ZM17.1981 20.2299V21.0535H19.6055V20.2299V19.4064H17.1981V20.2299ZM19.6055 20.2299H18.782V24.0949H19.6055H20.429V20.2299H19.6055ZM19.6055 24.0949V23.2714H18.1807V24.0949V24.9184H19.6055V24.0949ZM18.1807 24.0949L17.4845 23.655L13.0709 30.6398L13.7671 31.0797L14.4633 31.5196L18.8769 24.5348L18.1807 24.0949ZM13.7671 31.0797H12.9436V31.2107H13.7671H14.5906V31.0797H13.7671ZM13.7671 31.2107V32.0343H23.7161V31.2107V30.3872H13.7671V31.2107ZM23.7161 31.2107H22.8926V34.0521H23.7161H24.5396V31.2107H23.7161ZM23.7161 34.0521V33.2286H10.1969V34.0521V34.8757H23.7161V34.0521ZM18.2462 37H19.0697V33.2005H18.2462H17.4227V37H18.2462ZM18.2462 33.2005L19.0686 33.2441L19.1341 32.0076L18.3117 31.9641L17.4893 31.9205L17.4238 33.157L18.2462 33.2005ZM18.3117 31.9641H19.1352V20.2299H18.3117H17.4882V31.9641H18.3117ZM18.3117 20.2299V21.0535H21.6362V20.2299V19.4064H18.3117V20.2299ZM21.6362 20.2299H20.8127V37H21.6362H22.4598V20.2299H21.6362ZM21.6362 37V36.1765H18.2462V37V37.8235H21.6362V37ZM36.3715 34.6745L35.7896 35.2573L36.3708 35.8375L36.9527 35.2579L36.3715 34.6745ZM26.5862 24.9056L26.0006 24.3266L25.4244 24.9094L26.0044 25.4884L26.5862 24.9056ZM28.7316 22.7356L29.3139 22.1533L28.7283 21.5677L28.1459 22.1566L28.7316 22.7356ZM38.525 32.5291L39.1062 33.1125L39.6908 32.5302L39.1073 31.9468L38.525 32.5291ZM28.7316 34.6745L28.1493 35.2568L28.7308 35.8384L29.3132 35.2575L28.7316 34.6745ZM26.5862 32.5291L26.0036 31.947L25.4218 32.5293L26.0039 33.1114L26.5862 32.5291ZM36.3715 22.7356L36.956 22.1555L36.3734 21.5685L35.7889 22.1535L36.3715 22.7356ZM38.525 24.9056L39.1066 25.4886L39.6882 24.9085L39.1096 24.3255L38.525 24.9056ZM36.3715 34.6745L36.9533 34.0917L27.168 24.3228L26.5862 24.9056L26.0044 25.4884L35.7896 35.2573L36.3715 34.6745ZM26.5862 24.9056L27.1718 25.4846L29.3172 23.3146L28.7316 22.7356L28.1459 22.1566L26.0006 24.3266L26.5862 24.9056ZM28.7316 22.7356L28.1493 23.3179L37.9427 33.1114L38.525 32.5291L39.1073 31.9468L29.3139 22.1533L28.7316 22.7356ZM38.525 32.5291L37.9438 31.9456L35.7902 34.091L36.3715 34.6745L36.9527 35.2579L39.1062 33.1125L38.525 32.5291ZM28.7316 34.6745L29.3139 34.0921L27.1685 31.9468L26.5862 32.5291L26.0039 33.1114L28.1493 35.2568L28.7316 34.6745ZM26.5862 32.5291L27.1688 33.1112L36.954 23.3177L36.3715 22.7356L35.7889 22.1535L26.0036 31.947L26.5862 32.5291ZM36.3715 22.7356L35.7869 23.3157L37.9405 25.4857L38.525 24.9056L39.1096 24.3255L36.956 22.1555L36.3715 22.7356ZM38.525 24.9056L37.9434 24.3225L28.15 34.0914L28.7316 34.6745L29.3132 35.2575L39.1066 25.4886L38.525 24.9056ZM48.1875 37.2293L48.1822 38.0528L48.1838 38.0528L48.1875 37.2293ZM45.69 36.7953L45.4137 37.5711L45.4153 37.5717L45.69 36.7953ZM43.5446 35.4114L42.9598 35.9912L42.9598 35.9912L43.5446 35.4114ZM42.0379 32.873L41.2599 33.1431L41.2612 33.1467L42.0379 32.873ZM41.4893 28.9916L40.6657 28.9885V28.9916H41.4893ZM41.9724 25.2167L41.1813 24.9879L41.1805 24.9905L41.9724 25.2167ZM43.3481 22.3835L42.697 21.8792L42.6948 21.8821L43.3481 22.3835ZM45.5016 20.6148L45.8602 21.3562L45.8641 21.3543L45.5016 20.6148ZM51.2745 20.6557L50.9006 21.3895L50.9044 21.3914L51.2745 20.6557ZM53.338 22.4163L52.6629 22.8879L52.6652 22.8912L53.338 22.4163ZM54.2879 24.9138V25.7373H55.2146L55.1057 24.817L54.2879 24.9138ZM50.7914 24.9138L49.9895 25.1011L50.1381 25.7373H50.7914V24.9138ZM45.821 24.4634L45.1141 24.0409L45.1123 24.0439L45.821 24.4634ZM44.9612 28.3366L44.1377 28.3311L44.1321 29.1601H44.9612V28.3366ZM45.0758 28.3366V29.1601H45.5823L45.8108 28.7081L45.0758 28.3366ZM46.0912 27.0673L46.6136 27.704L46.6144 27.7033L46.0912 27.0673ZM47.5569 26.2567L47.822 27.0364L47.8266 27.0348L47.5569 26.2567ZM51.9542 26.6743L51.5276 27.3787L51.5312 27.3809L51.9542 26.6743ZM53.6656 34.4124L52.959 33.9894L52.9571 33.9926L53.6656 34.4124ZM51.4629 36.4923L51.848 37.2202L51.8495 37.2194L51.4629 36.4923ZM49.6368 34.0521L50.0645 34.7559L50.0645 34.7559L49.6368 34.0521ZM50.6522 32.9876L51.3742 33.3838L51.3742 33.3838L50.6522 32.9876ZM50.6522 29.9825L49.9285 30.3756L49.9323 30.3824L50.6522 29.9825ZM49.6532 28.9261L50.0848 28.2248L50.0848 28.2248L49.6532 28.9261ZM47.0574 28.7624L46.7274 28.0079L46.723 28.0098L47.0574 28.7624ZM46.1485 29.4011L45.5544 28.8307L45.5485 28.837L46.1485 29.4011ZM45.5426 30.3509L46.3031 30.6669L46.3048 30.6628L45.5426 30.3509ZM45.69 32.9713L44.968 33.3675L44.9717 33.3742L45.69 32.9713ZM46.7053 34.044L46.2673 34.7413L46.2713 34.7438L46.7053 34.044ZM48.1875 37.2293L48.1927 36.4058C47.4207 36.4009 46.6794 36.2717 45.9646 36.0189L45.69 36.7953L45.4153 37.5717C46.3055 37.8866 47.2292 38.0468 48.1822 38.0528L48.1875 37.2293ZM45.69 36.7953L45.9663 36.0195C45.2927 35.7796 44.6814 35.3884 44.1294 34.8316L43.5446 35.4114L42.9598 35.9912C43.6743 36.7119 44.4932 37.2432 45.4137 37.5711L45.69 36.7953ZM43.5446 35.4114L44.1294 34.8316C43.6002 34.2978 43.1549 33.5651 42.8146 32.5993L42.0379 32.873L41.2612 33.1467C41.6633 34.2881 42.2225 35.2476 42.9598 35.9912L43.5446 35.4114ZM42.0379 32.873L42.8159 32.6029C42.4892 31.662 42.3128 30.4657 42.3128 28.9916H41.4893H40.6657C40.6657 30.5855 40.855 31.9768 41.2599 33.1431L42.0379 32.873ZM41.4893 28.9916L42.3128 28.9948C42.318 27.6458 42.4723 26.4646 42.7642 25.443L41.9724 25.2167L41.1805 24.9905C40.8392 26.1852 40.6714 27.5206 40.6657 28.9885L41.4893 28.9916ZM41.9724 25.2167L42.7635 25.4455C43.0622 24.4126 43.4793 23.565 44.0013 22.885L43.3481 22.3835L42.6948 21.8821C42.0267 22.7524 41.5267 23.7936 41.1813 24.9879L41.9724 25.2167ZM43.3481 22.3835L43.9991 22.8878C44.5263 22.2073 45.146 21.7016 45.8602 21.3562L45.5016 20.6148L45.1431 19.8734C44.1868 20.3359 43.3708 21.0093 42.697 21.8792L43.3481 22.3835ZM45.5016 20.6148L45.8641 21.3543C46.5741 21.0062 47.3841 20.8242 48.3103 20.8242V20.0007V19.1771C47.162 19.1771 46.0996 19.4045 45.1391 19.8753L45.5016 20.6148ZM48.3103 20.0007V20.8242C49.3207 20.8242 50.1769 21.0207 50.9006 21.3895L51.2745 20.6557L51.6484 19.922C50.658 19.4173 49.5381 19.1771 48.3103 19.1771V20.0007ZM51.2745 20.6557L50.9044 21.3914C51.6469 21.765 52.2271 22.2641 52.6629 22.8879L53.338 22.4163L54.0132 21.9447C53.4117 21.0836 52.6162 20.409 51.6447 19.9201L51.2745 20.6557ZM53.338 22.4163L52.6652 22.8912C53.1084 23.519 53.3766 24.221 53.4701 25.0106L54.2879 24.9138L55.1057 24.817C54.9808 23.7614 54.6158 22.7984 54.0108 21.9414L53.338 22.4163ZM54.2879 24.9138V24.0902H50.7914V24.9138V25.7373H54.2879V24.9138ZM50.7914 24.9138L51.5933 24.7264C51.4176 23.9744 51.0341 23.3432 50.431 22.8832L49.9316 23.5381L49.4323 24.193C49.7025 24.399 49.8922 24.6849 49.9895 25.1011L50.7914 24.9138ZM49.9316 23.5381L50.431 22.8832C49.827 22.4227 49.1025 22.2151 48.3103 22.2151V23.0386V23.8621C48.8064 23.8621 49.1628 23.9875 49.4323 24.193L49.9316 23.5381ZM48.3103 23.0386V22.2151C46.9239 22.2151 45.828 22.8465 45.1141 24.0409L45.821 24.4634L46.5279 24.8859C46.9494 24.1806 47.5131 23.8621 48.3103 23.8621V23.0386ZM45.821 24.4634L45.1123 24.0439C44.4485 25.1653 44.1491 26.6181 44.1377 28.3311L44.9612 28.3366L45.7847 28.3421C45.7951 26.7906 46.0689 25.6613 46.5297 24.8829L45.821 24.4634ZM44.9612 28.3366V29.1601H45.0758V28.3366V27.513H44.9612V28.3366ZM45.0758 28.3366L45.8108 28.7081C46.0108 28.3124 46.2773 27.9799 46.6136 27.704L46.0912 27.0673L45.5688 26.4307C45.0535 26.8535 44.6431 27.3672 44.3409 27.965L45.0758 28.3366ZM46.0912 27.0673L46.6144 27.7033C46.9665 27.4136 47.3671 27.1911 47.822 27.0364L47.5569 26.2567L47.2919 25.477C46.655 25.6935 46.0784 26.0114 45.568 26.4314L46.0912 27.0673ZM47.5569 26.2567L47.8266 27.0348C48.2871 26.8752 48.777 26.7936 49.3011 26.7936V25.9701V25.1466C48.6023 25.1466 47.9295 25.256 47.2873 25.4786L47.5569 26.2567ZM49.3011 25.9701V26.7936C50.1592 26.7936 50.8933 26.9946 51.5276 27.3787L51.9542 26.6743L52.3808 25.9699C51.4647 25.4151 50.4301 25.1466 49.3011 25.1466V25.9701ZM51.9542 26.6743L51.5312 27.3809C52.1776 27.7679 52.6876 28.2982 53.0669 28.9875L53.7884 28.5904L54.5099 28.1933C53.994 27.2559 53.2811 26.5088 52.3771 25.9677L51.9542 26.6743ZM53.7884 28.5904L53.0669 28.9875C53.4394 29.6642 53.6363 30.4552 53.6363 31.3827H54.4599H55.2834C55.2834 30.2139 55.0327 29.1434 54.5099 28.1933L53.7884 28.5904ZM54.4599 31.3827H53.6363C53.6363 32.3847 53.4044 33.2456 52.959 33.9894L53.6656 34.4124L54.3721 34.8355C54.9858 33.8105 55.2834 32.6516 55.2834 31.3827H54.4599ZM53.6656 34.4124L52.9571 33.9926C52.5133 34.7415 51.8928 35.3309 51.0762 35.7652L51.4629 36.4923L51.8495 37.2194C52.9217 36.6493 53.7697 35.8521 54.374 34.8323L53.6656 34.4124ZM51.4629 36.4923L51.0777 35.7644C50.2776 36.1877 49.3236 36.4107 48.1911 36.4058L48.1875 37.2293L48.1838 38.0528C49.5407 38.0588 50.7703 37.7904 51.848 37.2202L51.4629 36.4923ZM48.1711 34.4452V35.2687C48.855 35.2687 49.4938 35.1027 50.0645 34.7559L49.6368 34.0521L49.2092 33.3483C48.9173 33.5257 48.579 33.6217 48.1711 33.6217V34.4452ZM49.6368 34.0521L50.0645 34.7559C50.6206 34.418 51.0599 33.9565 51.3742 33.3838L50.6522 32.9876L49.9302 32.5914C49.7532 32.9141 49.5156 33.1622 49.2092 33.3483L49.6368 34.0521ZM50.6522 32.9876L51.3742 33.3838C51.6924 32.804 51.8442 32.1634 51.8442 31.4809H51.0207H50.1972C50.1972 31.9121 50.1033 32.276 49.9302 32.5914L50.6522 32.9876ZM51.0207 31.4809H51.8442C51.8442 30.7986 51.6924 30.1591 51.3721 29.5825L50.6522 29.9825L49.9323 30.3824C50.1033 30.6902 50.1972 31.0496 50.1972 31.4809H51.0207ZM50.6522 29.9825L51.3759 29.5894C51.0674 29.0215 50.6341 28.5628 50.0848 28.2248L49.6532 28.9261L49.2216 29.6275C49.5239 29.8136 49.7566 30.059 49.9285 30.3755L50.6522 29.9825ZM49.6532 28.9261L50.0848 28.2248C49.5174 27.8756 48.8795 27.7096 48.1956 27.7096V28.5331V29.3566C48.6036 29.3566 48.9374 29.4526 49.2216 29.6275L49.6532 28.9261ZM48.1956 28.5331V27.7096C47.6811 27.7096 47.1883 27.8062 46.7274 28.0079L47.0574 28.7624L47.3875 29.5168C47.6253 29.4128 47.8914 29.3566 48.1956 29.3566V28.5331ZM47.0574 28.7624L46.723 28.0098C46.281 28.2063 45.89 28.4812 45.5544 28.8307L46.1485 29.4011L46.7426 29.9714C46.9311 29.775 47.1461 29.6242 47.3919 29.5149L47.0574 28.7624ZM46.1485 29.4011L45.5485 28.837C45.2202 29.1863 44.9644 29.5892 44.7804 30.0391L45.5426 30.3509L46.3048 30.6628C46.4155 30.392 46.5637 30.1618 46.7486 29.9651L46.1485 29.4011ZM45.5426 30.3509L44.782 30.035C44.5909 30.4951 44.498 30.9824 44.498 31.4891H45.3215H46.145C46.145 31.1879 46.1994 30.9165 46.3031 30.6668L45.5426 30.3509ZM45.3215 31.4891H44.498C44.498 32.1597 44.6518 32.7913 44.968 33.3675L45.69 32.9713L46.4119 32.5751C46.2368 32.256 46.145 31.8994 46.145 31.4891H45.3215ZM45.69 32.9713L44.9717 33.3742C45.2887 33.9392 45.7225 34.399 46.2673 34.7413L46.7053 34.044L47.1434 33.3466C46.8366 33.1539 46.5934 32.8986 46.4082 32.5683L45.69 32.9713ZM46.7053 34.044L46.2713 34.7438C46.8428 35.0983 47.4839 35.2687 48.1711 35.2687V34.4452V33.6217C47.7665 33.6217 47.4304 33.5246 47.1394 33.3441L46.7053 34.044Z" fill="#2B3F46" mask="url(#path-33-outside-1_2025_1384)"/>
<defs>
<linearGradient id="paint0_linear_2025_1384" x1="35.8411" y1="35.864" x2="-1.88188" y2="2.08424" gradientUnits="userSpaceOnUse">
<stop stop-color="#FFD5EF"/>
<stop offset="1" stop-color="#EFBDFD"/>
</linearGradient>
<linearGradient id="paint1_linear_2025_1384" x1="26.8809" y1="4.483" x2="25.174" y2="-4.68761" gradientUnits="userSpaceOnUse">
<stop stop-color="#F95457"/>
<stop offset="1" stop-color="#FDBDCB"/>
</linearGradient>
<linearGradient id="paint2_linear_2025_1384" x1="26.8809" y1="4.483" x2="25.174" y2="-4.68761" gradientUnits="userSpaceOnUse">
<stop stop-color="#F95457"/>
<stop offset="1" stop-color="#FDBDCB"/>
</linearGradient>
<linearGradient id="paint3_linear_2025_1384" x1="4.71795" y1="43.6522" x2="1.80375" y2="43.0282" gradientUnits="userSpaceOnUse">
<stop stop-color="#F95457"/>
<stop offset="1" stop-color="#FDBDCB"/>
</linearGradient>
<linearGradient id="paint4_linear_2025_1384" x1="35.7669" y1="58.0257" x2="30.2155" y2="50.8928" gradientUnits="userSpaceOnUse">
<stop stop-color="#F95457"/>
<stop offset="1" stop-color="#FDBDCB"/>
</linearGradient>
<linearGradient id="paint5_linear_2025_1384" x1="60.6657" y1="43.6522" x2="57.7515" y2="43.0282" gradientUnits="userSpaceOnUse">
<stop stop-color="#F95457"/>
<stop offset="1" stop-color="#FDBDCB"/>
</linearGradient>
<linearGradient id="paint6_linear_2025_1384" x1="-1.09962e-05" y1="-0.0328651" x2="30.641" y2="-4.05264" gradientUnits="userSpaceOnUse">
<stop stop-color="#D74446"/>
<stop offset="1" stop-color="#E165B8"/>
</linearGradient>
<linearGradient id="paint7_linear_2025_1384" x1="-1.11276e-05" y1="-0.033258" x2="31.0073" y2="-4.10108" gradientUnits="userSpaceOnUse">
<stop stop-color="#D74446"/>
<stop offset="1" stop-color="#E165B8"/>
</linearGradient>
<linearGradient id="paint8_linear_2025_1384" x1="-8.34573e-06" y1="-0.00415724" x2="14.606" y2="-11.5011" gradientUnits="userSpaceOnUse">
<stop stop-color="#D1369D"/>
<stop offset="1" stop-color="#B31E20"/>
</linearGradient>
<linearGradient id="paint9_linear_2025_1384" x1="-8.34573e-06" y1="-0.00415724" x2="14.606" y2="-11.5011" gradientUnits="userSpaceOnUse">
<stop stop-color="#D74446"/>
<stop offset="1" stop-color="#E165B8"/>
</linearGradient>
<linearGradient id="paint10_linear_2025_1384" x1="2.32056" y1="36.6188" x2="3.73346" y2="36.5744" gradientUnits="userSpaceOnUse">
<stop stop-color="#D74446"/>
<stop offset="1" stop-color="#D1369D"/>
</linearGradient>
<linearGradient id="paint11_linear_2025_1384" x1="27.5452" y1="52.5135" x2="34.1403" y2="51.2721" gradientUnits="userSpaceOnUse">
<stop stop-color="#B31E20"/>
<stop offset="1" stop-color="#D74446"/>
</linearGradient>
<linearGradient id="paint12_linear_2025_1384" x1="59.0066" y1="36.6188" x2="60.4195" y2="36.5744" gradientUnits="userSpaceOnUse">
<stop stop-color="#E165B8"/>
<stop offset="1" stop-color="#D74446"/>
</linearGradient>
<clipPath id="clip0_2025_1384">
<rect width="35.8992" height="35.8992" rx="4.44179" transform="matrix(0.866025 0.5 -0.866025 0.5 31.9104 19)" fill="white"/>
</clipPath>
<clipPath id="clip1_2025_1384">
<rect width="36.3731" height="36.3731" rx="4.50041" transform="matrix(0.866025 0.5 -0.866025 0.5 31.5 18.4604)" fill="white"/>
</clipPath>
</defs>
</svg>
