<svg width="64" height="64" viewBox="0 0 64 64" fill="none" xmlns="http://www.w3.org/2000/svg">
<path d="M4.4006 33.9298C3.80774 33.582 3.47546 33.1136 3.47547 32.6257L3.47547 30.5016C3.47547 29.9566 3.88975 29.439 4.60873 29.0857L30.1348 16.5442C31.3579 15.9433 33.1609 15.9544 34.3614 16.5703L60.0608 29.7535C60.7487 30.1064 61.1422 30.6122 61.1422 31.1434V32.5436C61.1422 33.0309 60.8108 33.4987 60.2194 33.8464L34.5631 48.9278C33.3018 49.6692 31.2326 49.6699 29.9699 48.9292L4.4006 33.9298Z" fill="url(#paint0_linear_84_1862)"/>
<rect width="34.7831" height="34.7831" rx="2.62954" transform="matrix(0.866044 -0.499967 0.866044 0.499967 2.14404 30.3906)" fill="white"/>
<rect width="10.8697" height="10.8697" transform="matrix(0.866044 -0.499967 0.866044 0.499967 12.2639 30.3906)" fill="#D9D9D9"/>
<rect width="10.8697" height="10.8697" transform="matrix(0.866044 -0.499967 0.866044 0.499967 22.8542 24.2769)" fill="#D9D9D9"/>
<rect width="10.8697" height="10.8697" transform="matrix(0.866044 -0.499967 0.866044 0.499967 22.8542 36.5044)" fill="#D9D9D9"/>
<rect width="10.8697" height="10.8697" transform="matrix(0.866044 -0.499967 0.866044 0.499967 33.4446 30.3906)" fill="#D9D9D9"/>
<mask id="path-7-outside-1_84_1862" maskUnits="userSpaceOnUse" x="19" y="23" width="27" height="14" fill="black">
<rect fill="white" x="19" y="23" width="27" height="14"/>
<path d="M23.6128 35.1394C23.0287 35.1394 22.5026 35.0232 22.0347 34.7909C21.5667 34.5586 21.1917 34.24 20.9096 33.8351C20.6275 33.4302 20.4732 32.9689 20.4467 32.4512H21.6414C21.6879 32.9125 21.897 33.2942 22.2687 33.5962C22.6437 33.8949 23.0917 34.0442 23.6128 34.0442C24.0309 34.0442 24.4026 33.9463 24.7279 33.7505C25.0564 33.5547 25.3136 33.2859 25.4995 32.944C25.6887 32.5989 25.7832 32.2089 25.7832 31.7742C25.7832 31.3294 25.6853 30.9329 25.4895 30.5844C25.297 30.2326 25.0315 29.9555 24.693 29.753C24.3545 29.5506 23.9679 29.4477 23.5331 29.4444C23.2212 29.4411 22.9009 29.4892 22.5723 29.5888C22.2438 29.685 21.9733 29.8095 21.7609 29.9621L20.606 29.8227L21.2233 24.8048H26.52V25.8999H22.2587L21.9003 28.9067H21.96C22.1691 28.7408 22.4313 28.6031 22.7466 28.4936C23.0618 28.384 23.3904 28.3293 23.7322 28.3293C24.3562 28.3293 24.9121 28.4786 25.3999 28.7773C25.8911 29.0727 26.2761 29.4776 26.5548 29.992C26.8369 30.5064 26.978 31.0938 26.978 31.7542C26.978 32.4047 26.832 32.9855 26.5399 33.4966C26.2512 34.0044 25.8529 34.4059 25.3452 34.7013C24.8374 34.9934 24.2599 35.1394 23.6128 35.1394ZM34.9492 33.168L29.3339 27.5527L30.0906 26.796L35.7059 32.4114L34.9492 33.168ZM30.0906 33.168L29.3339 32.4114L34.9492 26.796L35.7059 27.5527L30.0906 33.168ZM38.1962 35V34.1039L41.5615 30.4201C41.9564 29.9887 42.2816 29.6136 42.5372 29.295C42.7927 28.9731 42.9819 28.6711 43.1047 28.389C43.2308 28.1036 43.2939 27.8049 43.2939 27.493C43.2939 27.1345 43.2076 26.8242 43.035 26.562C42.8657 26.2999 42.6334 26.0974 42.3381 25.9547C42.0427 25.812 41.7108 25.7406 41.3424 25.7406C40.9508 25.7406 40.609 25.822 40.3169 25.9846C40.0282 26.1439 39.8042 26.3679 39.6449 26.6566C39.4889 26.9454 39.4109 27.2839 39.4109 27.6722H38.2361C38.2361 27.0748 38.3738 26.5504 38.6493 26.0991C38.9247 25.6477 39.2997 25.2959 39.7743 25.0437C40.2522 24.7915 40.7882 24.6654 41.3823 24.6654C41.9796 24.6654 42.509 24.7915 42.9703 25.0437C43.4316 25.2959 43.7933 25.6361 44.0555 26.0642C44.3177 26.4923 44.4488 26.9686 44.4488 27.493C44.4488 27.868 44.3808 28.2347 44.2447 28.5931C44.1119 28.9482 43.8796 29.3448 43.5478 29.7829C43.2192 30.2177 42.7629 30.7487 42.1788 31.3759L39.8888 33.8252V33.9048H44.628V35H38.1962Z"/>
</mask>
<path d="M23.6128 35.1394C23.0287 35.1394 22.5026 35.0232 22.0347 34.7909C21.5667 34.5586 21.1917 34.24 20.9096 33.8351C20.6275 33.4302 20.4732 32.9689 20.4467 32.4512H21.6414C21.6879 32.9125 21.897 33.2942 22.2687 33.5962C22.6437 33.8949 23.0917 34.0442 23.6128 34.0442C24.0309 34.0442 24.4026 33.9463 24.7279 33.7505C25.0564 33.5547 25.3136 33.2859 25.4995 32.944C25.6887 32.5989 25.7832 32.2089 25.7832 31.7742C25.7832 31.3294 25.6853 30.9329 25.4895 30.5844C25.297 30.2326 25.0315 29.9555 24.693 29.753C24.3545 29.5506 23.9679 29.4477 23.5331 29.4444C23.2212 29.4411 22.9009 29.4892 22.5723 29.5888C22.2438 29.685 21.9733 29.8095 21.7609 29.9621L20.606 29.8227L21.2233 24.8048H26.52V25.8999H22.2587L21.9003 28.9067H21.96C22.1691 28.7408 22.4313 28.6031 22.7466 28.4936C23.0618 28.384 23.3904 28.3293 23.7322 28.3293C24.3562 28.3293 24.9121 28.4786 25.3999 28.7773C25.8911 29.0727 26.2761 29.4776 26.5548 29.992C26.8369 30.5064 26.978 31.0938 26.978 31.7542C26.978 32.4047 26.832 32.9855 26.5399 33.4966C26.2512 34.0044 25.8529 34.4059 25.3452 34.7013C24.8374 34.9934 24.2599 35.1394 23.6128 35.1394ZM34.9492 33.168L29.3339 27.5527L30.0906 26.796L35.7059 32.4114L34.9492 33.168ZM30.0906 33.168L29.3339 32.4114L34.9492 26.796L35.7059 27.5527L30.0906 33.168ZM38.1962 35V34.1039L41.5615 30.4201C41.9564 29.9887 42.2816 29.6136 42.5372 29.295C42.7927 28.9731 42.9819 28.6711 43.1047 28.389C43.2308 28.1036 43.2939 27.8049 43.2939 27.493C43.2939 27.1345 43.2076 26.8242 43.035 26.562C42.8657 26.2999 42.6334 26.0974 42.3381 25.9547C42.0427 25.812 41.7108 25.7406 41.3424 25.7406C40.9508 25.7406 40.609 25.822 40.3169 25.9846C40.0282 26.1439 39.8042 26.3679 39.6449 26.6566C39.4889 26.9454 39.4109 27.2839 39.4109 27.6722H38.2361C38.2361 27.0748 38.3738 26.5504 38.6493 26.0991C38.9247 25.6477 39.2997 25.2959 39.7743 25.0437C40.2522 24.7915 40.7882 24.6654 41.3823 24.6654C41.9796 24.6654 42.509 24.7915 42.9703 25.0437C43.4316 25.2959 43.7933 25.6361 44.0555 26.0642C44.3177 26.4923 44.4488 26.9686 44.4488 27.493C44.4488 27.868 44.3808 28.2347 44.2447 28.5931C44.1119 28.9482 43.8796 29.3448 43.5478 29.7829C43.2192 30.2177 42.7629 30.7487 42.1788 31.3759L39.8888 33.8252V33.9048H44.628V35H38.1962Z" fill="#00C1FF"/>
<path d="M22.0347 34.7909L21.59 35.6866L21.59 35.6866L22.0347 34.7909ZM20.9096 33.8351L21.7301 33.2635L21.7301 33.2635L20.9096 33.8351ZM20.4467 32.4512V31.4512H19.3941L19.448 32.5024L20.4467 32.4512ZM21.6414 32.4512L22.6364 32.351L22.5458 31.4512H21.6414V32.4512ZM22.2687 33.5962L21.638 34.3723L21.6457 34.3784L22.2687 33.5962ZM24.7279 33.7505L24.2159 32.8915L24.2121 32.8938L24.7279 33.7505ZM25.4995 32.944L24.6226 32.4634L24.6209 32.4664L25.4995 32.944ZM25.4895 30.5844L24.6122 31.0644L24.6177 31.0743L25.4895 30.5844ZM23.5331 29.4444L23.5225 30.4443L23.5255 30.4444L23.5331 29.4444ZM22.5723 29.5888L22.8535 30.5485L22.8623 30.5458L22.5723 29.5888ZM21.7609 29.9621L21.6411 30.9549L22.028 31.0016L22.3445 30.7741L21.7609 29.9621ZM20.606 29.8227L19.6134 29.7006L19.4911 30.6954L20.4861 30.8155L20.606 29.8227ZM21.2233 24.8048V23.8048H20.3387L20.2307 24.6827L21.2233 24.8048ZM26.52 24.8048H27.52V23.8048H26.52V24.8048ZM26.52 25.8999V26.8999H27.52V25.8999H26.52ZM22.2587 25.8999V24.8999H21.3708L21.2657 25.7816L22.2587 25.8999ZM21.9003 28.9067L20.9073 28.7884L20.774 29.9067H21.9003V28.9067ZM21.96 28.9067V29.9067H22.3086L22.5817 29.69L21.96 28.9067ZM25.3999 28.7773L24.8777 29.6302L24.8846 29.6343L25.3999 28.7773ZM26.5548 29.992L25.6756 30.4685L25.678 30.4728L26.5548 29.992ZM26.5399 33.4966L25.6717 33.0005L25.6706 33.0023L26.5399 33.4966ZM25.3452 34.7013L25.8437 35.5682L25.848 35.5657L25.3452 34.7013ZM23.6128 34.1394C23.1645 34.1394 22.7935 34.0512 22.4794 33.8952L21.59 35.6866C22.2117 35.9953 22.8928 36.1394 23.6128 36.1394V34.1394ZM22.4794 33.8952C22.1528 33.7331 21.9105 33.5223 21.7301 33.2635L20.0891 34.4068C20.473 34.9577 20.9807 35.3841 21.59 35.6866L22.4794 33.8952ZM21.7301 33.2635C21.5604 33.0199 21.4628 32.7409 21.4454 32.4L19.448 32.5024C19.4836 33.197 19.6946 33.8405 20.0891 34.4068L21.7301 33.2635ZM20.4467 33.4512H21.6414V31.4512H20.4467V33.4512ZM20.6465 32.5514C20.7206 33.2871 21.0674 33.9086 21.6381 34.3723L22.8993 32.82C22.7265 32.6797 22.6552 32.5379 22.6364 32.351L20.6465 32.5514ZM21.6457 34.3784C22.2134 34.8306 22.8864 35.0442 23.6128 35.0442V33.0442C23.2971 33.0442 23.0739 32.9591 22.8917 32.8139L21.6457 34.3784ZM23.6128 35.0442C24.1937 35.0442 24.7472 34.9061 25.2437 34.6072L24.2121 32.8938C24.0581 32.9865 23.8682 33.0442 23.6128 33.0442V35.0442ZM25.2398 34.6095C25.7254 34.3201 26.108 33.9184 26.378 33.4217L24.6209 32.4664C24.5193 32.6533 24.3875 32.7892 24.2159 32.8915L25.2398 34.6095ZM26.3764 33.4246C26.6545 32.9172 26.7832 32.359 26.7832 31.7742H24.7832C24.7832 32.0589 24.7228 32.2806 24.6226 32.4634L26.3764 33.4246ZM26.7832 31.7742C26.7832 31.1776 26.6503 30.6089 26.3613 30.0945L24.6177 31.0743C24.7203 31.2568 24.7832 31.4813 24.7832 31.7742H26.7832ZM26.3668 30.1044C26.0903 29.5991 25.7003 29.1902 25.2063 28.8948L24.1798 30.6113C24.3628 30.7207 24.5038 30.8661 24.6123 31.0644L26.3668 30.1044ZM25.2063 28.8948C24.6995 28.5918 24.1349 28.449 23.5407 28.4444L23.5255 30.4444C23.8008 30.4465 24.0095 30.5094 24.1798 30.6113L25.2063 28.8948ZM23.5438 28.4444C23.1203 28.4399 22.6986 28.5056 22.2823 28.6317L22.8623 30.5458C23.1032 30.4728 23.322 30.4422 23.5225 30.4443L23.5438 28.4444ZM22.2912 28.6291C21.8858 28.7478 21.5048 28.9147 21.1773 29.1501L22.3445 30.7741C22.4418 30.7043 22.6017 30.6222 22.8534 30.5484L22.2912 28.6291ZM21.8807 28.9693L20.7258 28.8299L20.4861 30.8155L21.6411 30.9549L21.8807 28.9693ZM21.5985 29.9448L22.2158 24.9269L20.2307 24.6827L19.6134 29.7006L21.5985 29.9448ZM21.2233 25.8048H26.52V23.8048H21.2233V25.8048ZM25.52 24.8048V25.8999H27.52V24.8048H25.52ZM26.52 24.8999H22.2587V26.8999H26.52V24.8999ZM21.2657 25.7816L20.9073 28.7884L22.8933 29.0251L23.2517 26.0183L21.2657 25.7816ZM21.9003 29.9067H21.96V27.9067H21.9003V29.9067ZM22.5817 29.69C22.6838 29.609 22.8402 29.5197 23.0747 29.4382L22.4184 27.5489C22.0224 27.6865 21.6544 27.8726 21.3384 28.1235L22.5817 29.69ZM23.0747 29.4382C23.2819 29.3662 23.4994 29.3293 23.7322 29.3293V27.3293C23.2814 27.3293 22.8418 27.4019 22.4184 27.5489L23.0747 29.4382ZM23.7322 29.3293C24.1892 29.3293 24.5612 29.4364 24.8778 29.6302L25.9221 27.9245C25.2629 27.5209 24.5231 27.3293 23.7322 27.3293V29.3293ZM24.8846 29.6343C25.2193 29.8356 25.4801 30.1077 25.6757 30.4685L27.434 29.5155C27.072 28.8475 26.5629 28.3098 25.9153 27.9203L24.8846 29.6343ZM25.678 30.4728C25.8696 30.8221 25.978 31.2404 25.978 31.7542H27.978C27.978 30.9472 27.8043 30.1907 27.4317 29.5112L25.678 30.4728ZM25.978 31.7542C25.978 32.2494 25.8685 32.6559 25.6717 33.0005L27.4082 33.9927C27.7954 33.3151 27.978 32.56 27.978 31.7542H25.978ZM25.6706 33.0023C25.4697 33.3556 25.1983 33.6298 24.8423 33.8369L25.848 35.5657C26.5075 35.182 27.0326 34.6532 27.4092 33.9909L25.6706 33.0023ZM24.8466 33.8345C24.506 34.0304 24.1038 34.1394 23.6128 34.1394V36.1394C24.4161 36.1394 25.1688 35.9564 25.8437 35.5682L24.8466 33.8345ZM34.9492 33.168L34.2421 33.8751L34.9492 34.5823L35.6564 33.8751L34.9492 33.168ZM29.3339 27.5527L28.6268 26.8456L27.9197 27.5527L28.6268 28.2598L29.3339 27.5527ZM30.0906 26.796L30.7977 26.0889L30.0906 25.3818L29.3835 26.0889L30.0906 26.796ZM35.7059 32.4114L36.413 33.1185L37.1201 32.4114L36.413 31.7043L35.7059 32.4114ZM30.0906 33.168L29.3835 33.8751L30.0906 34.5823L30.7977 33.8751L30.0906 33.168ZM29.3339 32.4114L28.6268 31.7043L27.9197 32.4114L28.6268 33.1185L29.3339 32.4114ZM34.9492 26.796L35.6564 26.0889L34.9492 25.3818L34.2421 26.0889L34.9492 26.796ZM35.7059 27.5527L36.413 28.2598L37.1201 27.5527L36.413 26.8456L35.7059 27.5527ZM35.6564 32.4609L30.041 26.8456L28.6268 28.2598L34.2421 33.8751L35.6564 32.4609ZM30.041 28.2598L30.7977 27.5031L29.3835 26.0889L28.6268 26.8456L30.041 28.2598ZM29.3835 27.5031L34.9988 33.1185L36.413 31.7043L30.7977 26.0889L29.3835 27.5031ZM34.9988 31.7043L34.2421 32.4609L35.6564 33.8751L36.413 33.1185L34.9988 31.7043ZM30.7977 32.4609L30.041 31.7043L28.6268 33.1185L29.3835 33.8751L30.7977 32.4609ZM30.041 33.1185L35.6564 27.5031L34.2421 26.0889L28.6268 31.7043L30.041 33.1185ZM34.2421 27.5031L34.9988 28.2598L36.413 26.8456L35.6564 26.0889L34.2421 27.5031ZM34.9988 26.8456L29.3835 32.4609L30.7977 33.8751L36.413 28.2598L34.9988 26.8456ZM38.1962 35H37.1962V36H38.1962V35ZM38.1962 34.1039L37.4579 33.4295L37.1962 33.7159V34.1039H38.1962ZM41.5615 30.4201L40.8238 29.7449L40.8232 29.7456L41.5615 30.4201ZM42.5372 29.295L43.3173 29.9207L43.3204 29.9168L42.5372 29.295ZM43.1047 28.389L42.19 27.9849L42.1878 27.9899L43.1047 28.389ZM43.035 26.562L42.1948 27.1044L42.1997 27.1119L43.035 26.562ZM42.3381 25.9547L42.7731 25.0543L42.7731 25.0543L42.3381 25.9547ZM40.3169 25.9846L40.8 26.8602L40.8034 26.8583L40.3169 25.9846ZM39.6449 26.6566L38.7693 26.1735L38.7651 26.1813L39.6449 26.6566ZM39.4109 27.6722V28.6722H40.4109V27.6722H39.4109ZM38.2361 27.6722H37.2361V28.6722H38.2361V27.6722ZM38.6493 26.0991L39.5028 26.62L39.5028 26.62L38.6493 26.0991ZM39.7743 25.0437L39.3076 24.1593L39.305 24.1607L39.7743 25.0437ZM42.9703 25.0437L43.45 24.1663L43.45 24.1663L42.9703 25.0437ZM44.0555 26.0642L43.2027 26.5865L44.0555 26.0642ZM44.2447 28.5931L43.3098 28.2382L43.308 28.243L44.2447 28.5931ZM43.5478 29.7829L42.7507 29.179L42.7499 29.18L43.5478 29.7829ZM42.1788 31.3759L42.9092 32.0589L42.9106 32.0574L42.1788 31.3759ZM39.8888 33.8252L39.1584 33.1422L38.8888 33.4305V33.8252H39.8888ZM39.8888 33.9048H38.8888V34.9048H39.8888V33.9048ZM44.628 33.9048H45.628V32.9048H44.628V33.9048ZM44.628 35V36H45.628V35H44.628ZM39.1962 35V34.1039H37.1962V35H39.1962ZM38.9346 34.7784L42.2998 31.0946L40.8232 29.7456L37.4579 33.4295L38.9346 34.7784ZM42.2991 31.0953C42.703 30.654 43.0437 30.2618 43.3173 29.9207L41.7571 28.6694C41.5196 28.9655 41.2098 29.3233 40.8238 29.7449L42.2991 31.0953ZM43.3204 29.9168C43.6131 29.548 43.8547 29.1715 44.0216 28.7881L42.1878 27.9899C42.1091 28.1708 41.9723 28.3982 41.754 28.6733L43.3204 29.9168ZM44.0194 28.7932C44.2017 28.3805 44.2939 27.9441 44.2939 27.493H42.2939C42.2939 27.6657 42.2599 27.8267 42.19 27.9849L44.0194 28.7932ZM44.2939 27.493C44.2939 26.9676 44.165 26.46 43.8703 26.0122L42.1997 27.1119C42.2502 27.1885 42.2939 27.3014 42.2939 27.493H44.2939ZM43.8751 26.0197C43.6011 25.5952 43.225 25.2726 42.7731 25.0543L41.903 26.8551C42.0419 26.9222 42.1304 27.0046 42.1949 27.1044L43.8751 26.0197ZM42.7731 25.0543C42.3262 24.8384 41.8428 24.7406 41.3424 24.7406V26.7406C41.5788 26.7406 41.7592 26.7856 41.903 26.8551L42.7731 25.0543ZM41.3424 24.7406C40.8099 24.7406 40.295 24.8522 39.8304 25.1109L40.8034 26.8583C40.923 26.7917 41.0917 26.7406 41.3424 26.7406V24.7406ZM39.8339 25.109C39.3799 25.3595 39.0198 25.7196 38.7693 26.1735L40.5205 27.1397C40.5886 27.0162 40.6765 26.9283 40.8 26.8602L39.8339 25.109ZM38.7651 26.1813C38.5169 26.6407 38.4109 27.1483 38.4109 27.6722H40.4109C40.4109 27.4194 40.4609 27.2501 40.5247 27.1319L38.7651 26.1813ZM39.4109 26.6722H38.2361V28.6722H39.4109V26.6722ZM39.2361 27.6722C39.2361 27.2342 39.3351 26.8949 39.5028 26.62L37.7957 25.5781C37.4125 26.206 37.2361 26.9154 37.2361 27.6722H39.2361ZM39.5028 26.62C39.6834 26.3242 39.9245 26.0963 40.2436 25.9267L39.305 24.1607C38.6749 24.4955 38.1661 24.9712 37.7957 25.5781L39.5028 26.62ZM40.2411 25.9281C40.5612 25.7591 40.9344 25.6654 41.3823 25.6654V23.6654C40.642 23.6654 39.9432 23.8238 39.3076 24.1593L40.2411 25.9281ZM41.3823 25.6654C41.8351 25.6654 42.1954 25.7597 42.4906 25.9211L43.45 24.1663C42.8226 23.8232 42.1242 23.6654 41.3823 23.6654V25.6654ZM42.4906 25.9211C42.8062 26.0937 43.0361 26.3144 43.2027 26.5865L44.9083 25.542C44.5505 24.9578 44.057 24.4982 43.45 24.1663L42.4906 25.9211ZM43.2027 26.5865C43.3643 26.8502 43.4488 27.1443 43.4488 27.493H45.4488C45.4488 26.7929 45.2711 26.1345 44.9083 25.542L43.2027 26.5865ZM43.4488 27.493C43.4488 27.744 43.4038 27.9906 43.3098 28.2382L45.1796 28.948C45.3577 28.4788 45.4488 27.992 45.4488 27.493H43.4488ZM43.308 28.243C43.2207 28.4764 43.0478 28.7868 42.7507 29.179L44.3448 30.3868C44.7115 29.9028 45.0031 29.4201 45.1814 28.9433L43.308 28.243ZM42.7499 29.18C42.4502 29.5766 42.0193 30.0798 41.4469 30.6944L42.9106 32.0574C43.5064 31.4175 43.9882 30.8587 44.3456 30.3858L42.7499 29.18ZM41.4483 30.693L39.1584 33.1422L40.6193 34.5081L42.9092 32.0589L41.4483 30.693ZM38.8888 33.8252V33.9048H40.8888V33.8252H38.8888ZM39.8888 34.9048H44.628V32.9048H39.8888V34.9048ZM43.628 33.9048V35H45.628V33.9048H43.628ZM44.628 34H38.1962V36H44.628V34Z" fill="#2F5764" mask="url(#path-7-outside-1_84_1862)"/>
<defs>
<linearGradient id="paint0_linear_84_1862" x1="3.72513" y1="32.3054" x2="33.5154" y2="49.1976" gradientUnits="userSpaceOnUse">
<stop stop-color="#4A4A4A"/>
<stop offset="1" stop-color="#303030"/>
</linearGradient>
</defs>
</svg>
