<svg width="64" height="64" viewBox="0 0 64 64" fill="none" xmlns="http://www.w3.org/2000/svg">
<rect width="35.8551" height="35.8551" rx="4.37833" transform="matrix(0.866025 0.5 -0.866025 0.5 31.8887 19)" fill="url(#paint0_linear_2122_5525)"/>
<rect width="26.8913" height="4.48189" transform="matrix(0.866025 0.5 0 1 4.71875 39.1685)" fill="url(#paint1_linear_2122_5525)"/>
<rect width="26.8913" height="4.48189" transform="matrix(0.866025 -0.5 0 1 35.7695 52.6143)" fill="url(#paint2_linear_2122_5525)"/>
<path d="M3.11133 36.9275C3.11133 37.8026 3.72572 38.5949 4.71907 39.1684V43.6503C3.72572 43.0768 3.11133 42.2845 3.11133 41.4094V36.9275Z" fill="url(#paint3_linear_2122_5525)"/>
<path d="M28.0059 52.6143C30.1495 53.8519 33.6251 53.8519 35.7687 52.6143V57.0961C33.6251 58.3338 30.1495 58.3338 28.0059 57.0961V52.6143Z" fill="url(#paint4_linear_2122_5525)"/>
<path d="M60.6663 36.9275C60.6663 37.8026 60.0519 38.5949 59.0586 39.1684V43.6503C60.0519 43.0768 60.6663 42.2845 60.6663 41.4094V36.9275Z" fill="url(#paint5_linear_2122_5525)"/>
<g clip-path="url(#clip0_2122_5525)">
<rect width="35.8992" height="35.8992" rx="4.44179" transform="matrix(0.866025 0.5 -0.866025 0.5 31.9102 19)" fill="url(#paint6_linear_2122_5525)"/>
<rect width="11.5594" height="11.5594" transform="matrix(0.866025 0.5 -0.866025 0.5 31.9102 19)" fill="black" fill-opacity="0.1"/>
<rect width="11.5594" height="11.5594" transform="matrix(0.866025 0.5 -0.866025 0.5 21.3711 25.085)" fill="black" fill-opacity="0.1"/>
<rect width="11.5594" height="11.5594" transform="matrix(0.866025 0.5 -0.866025 0.5 21.3711 37.2549)" fill="black" fill-opacity="0.1"/>
<rect width="11.5594" height="11.5594" transform="matrix(0.866025 0.5 -0.866025 0.5 42.4492 25.085)" fill="black" fill-opacity="0.1"/>
<rect width="11.5594" height="11.5594" transform="matrix(0.866025 0.5 -0.866025 0.5 42.4492 37.2549)" fill="black" fill-opacity="0.1"/>
<rect width="11.5594" height="11.5594" transform="matrix(0.866025 0.5 -0.866025 0.5 52.9883 31.1699)" fill="black" fill-opacity="0.1"/>
<rect width="11.5594" height="11.5594" transform="matrix(0.866025 0.5 -0.866025 0.5 10.832 31.1699)" fill="black" fill-opacity="0.1"/>
<rect width="11.5594" height="11.5594" transform="matrix(0.866025 0.5 -0.866025 0.5 31.9102 43.3398)" fill="black" fill-opacity="0.1"/>
<rect width="11.5594" height="11.5594" transform="matrix(0.866025 0.5 -0.866025 0.5 31.9102 31.1699)" fill="black" fill-opacity="0.1"/>
</g>
<rect width="36.3283" height="36.3283" rx="4.43612" transform="matrix(0.866025 0.5 -0.866025 0.5 31.4785 18.4607)" fill="url(#paint7_linear_2122_5525)"/>
<rect width="27.2462" height="4.54104" transform="matrix(0.866025 0.5 0 1 3.94922 38.8958)" fill="url(#paint8_linear_2122_5525)"/>
<rect width="27.2462" height="4.54104" transform="matrix(0.866025 -0.5 0 1 35.4102 52.5186)" fill="url(#paint9_linear_2122_5525)"/>
<path d="M2.32031 36.625C2.32031 37.5117 2.94282 38.3144 3.94927 38.8955V43.4366C2.94282 42.8555 2.32031 42.0527 2.32031 41.166V36.625Z" fill="url(#paint10_linear_2122_5525)"/>
<path d="M27.5449 52.5186C29.7169 53.7725 33.2383 53.7725 35.4102 52.5186V57.0596C33.2383 58.3136 29.7169 58.3136 27.5449 57.0596V52.5186Z" fill="url(#paint11_linear_2122_5525)"/>
<path d="M60.6348 36.625C60.6348 37.5117 60.0123 38.3144 59.0059 38.8955V43.4366C60.0123 42.8555 60.6348 42.0527 60.6348 41.166V36.625Z" fill="url(#paint12_linear_2122_5525)"/>
<g clip-path="url(#clip1_2122_5525)">
<rect width="11.712" height="11.712" transform="matrix(0.866025 0.5 -0.866025 0.5 31.5 18.4607)" fill="white" fill-opacity="0.2"/>
<rect width="11.712" height="11.712" transform="matrix(0.866025 0.5 -0.866025 0.5 20.8223 24.626)" fill="white" fill-opacity="0.2"/>
<rect width="11.712" height="11.712" transform="matrix(0.866025 0.5 -0.866025 0.5 20.8223 36.9565)" fill="white" fill-opacity="0.2"/>
<rect width="11.712" height="11.712" transform="matrix(0.866025 0.5 -0.866025 0.5 42.1777 24.626)" fill="white" fill-opacity="0.2"/>
<rect width="11.712" height="11.712" transform="matrix(0.866025 0.5 -0.866025 0.5 42.1777 36.9565)" fill="white" fill-opacity="0.2"/>
<rect width="11.712" height="11.712" transform="matrix(0.866025 0.5 -0.866025 0.5 52.8574 30.7913)" fill="white" fill-opacity="0.2"/>
<rect width="11.712" height="11.712" transform="matrix(0.866025 0.5 -0.866025 0.5 10.1426 30.7913)" fill="white" fill-opacity="0.2"/>
<rect width="11.712" height="11.712" transform="matrix(0.866025 0.5 -0.866025 0.5 31.5 43.1221)" fill="white" fill-opacity="0.2"/>
<rect width="11.712" height="11.712" transform="matrix(0.866025 0.5 -0.866025 0.5 31.5 30.7913)" fill="white" fill-opacity="0.2"/>
</g>
<mask id="path-33-outside-1_2122_5525" maskUnits="userSpaceOnUse" x="11" y="19" width="43" height="20" fill="black">
<rect fill="white" x="11" y="19" width="43" height="20"/>
<path d="M19.931 20.2299V37H16.3854V23.5954H16.2871L12.4467 26.0028V22.8585L16.5983 20.2299H19.931ZM34.2097 34.6745L24.4244 24.9056L26.5698 22.7356L36.3633 32.5291L34.2097 34.6745ZM26.5698 34.6745L24.4244 32.5291L34.2097 22.7356L36.3633 24.9056L26.5698 34.6745ZM45.7882 37.2293C44.5654 37.2293 43.4763 37.0191 42.521 36.5988C41.5711 36.173 40.8205 35.5888 40.2692 34.8464C39.7233 34.0985 39.4421 33.236 39.4258 32.2589H42.9959C43.0178 32.6683 43.1515 33.0286 43.3972 33.3397C43.6483 33.6454 43.9813 33.8829 44.3962 34.0521C44.8111 34.2214 45.2778 34.306 45.7964 34.306C46.3369 34.306 46.8145 34.2104 47.2294 34.0194C47.6443 33.8283 47.9691 33.5636 48.2038 33.2251C48.4386 32.8866 48.5559 32.4963 48.5559 32.0541C48.5559 31.6065 48.4304 31.2107 48.1793 30.8668C47.9336 30.5174 47.5788 30.2445 47.1148 30.048C46.6562 29.8514 46.1103 29.7532 45.4771 29.7532H43.9131V27.1492H45.4771C46.012 27.1492 46.4843 27.0564 46.8937 26.8708C47.3086 26.6852 47.6306 26.4286 47.8599 26.1011C48.0892 25.7681 48.2038 25.3805 48.2038 24.9383C48.2038 24.518 48.1028 24.1495 47.9009 23.8329C47.7043 23.5108 47.4259 23.2597 47.0656 23.0795C46.7108 22.8994 46.2959 22.8093 45.821 22.8093C45.3406 22.8093 44.9011 22.8967 44.5026 23.0714C44.1041 23.2406 43.7848 23.4835 43.5446 23.8001C43.3044 24.1168 43.1761 24.488 43.1597 24.9138H39.7615C39.7779 23.9475 40.0535 23.0959 40.5885 22.359C41.1235 21.622 41.8441 21.0461 42.7503 20.6312C43.6619 20.2108 44.691 20.0007 45.8374 20.0007C46.9947 20.0007 48.0073 20.2108 48.8753 20.6312C49.7433 21.0515 50.4175 21.6193 50.8979 22.3344C51.3837 23.0441 51.6239 23.8411 51.6184 24.7254C51.6239 25.6644 51.3318 26.4477 50.7423 27.0755C50.1582 27.7033 49.3966 28.1018 48.4577 28.2711V28.4021C49.6914 28.5604 50.6304 28.9889 51.2745 29.6877C51.9241 30.381 52.2462 31.2489 52.2408 32.2916C52.2462 33.2469 51.9705 34.0958 51.4137 34.8382C50.8624 35.5807 50.1008 36.1648 49.1291 36.5906C48.1574 37.0164 47.0438 37.2293 45.7882 37.2293Z"/>
</mask>
<path d="M19.931 20.2299V37H16.3854V23.5954H16.2871L12.4467 26.0028V22.8585L16.5983 20.2299H19.931ZM34.2097 34.6745L24.4244 24.9056L26.5698 22.7356L36.3633 32.5291L34.2097 34.6745ZM26.5698 34.6745L24.4244 32.5291L34.2097 22.7356L36.3633 24.9056L26.5698 34.6745ZM45.7882 37.2293C44.5654 37.2293 43.4763 37.0191 42.521 36.5988C41.5711 36.173 40.8205 35.5888 40.2692 34.8464C39.7233 34.0985 39.4421 33.236 39.4258 32.2589H42.9959C43.0178 32.6683 43.1515 33.0286 43.3972 33.3397C43.6483 33.6454 43.9813 33.8829 44.3962 34.0521C44.8111 34.2214 45.2778 34.306 45.7964 34.306C46.3369 34.306 46.8145 34.2104 47.2294 34.0194C47.6443 33.8283 47.9691 33.5636 48.2038 33.2251C48.4386 32.8866 48.5559 32.4963 48.5559 32.0541C48.5559 31.6065 48.4304 31.2107 48.1793 30.8668C47.9336 30.5174 47.5788 30.2445 47.1148 30.048C46.6562 29.8514 46.1103 29.7532 45.4771 29.7532H43.9131V27.1492H45.4771C46.012 27.1492 46.4843 27.0564 46.8937 26.8708C47.3086 26.6852 47.6306 26.4286 47.8599 26.1011C48.0892 25.7681 48.2038 25.3805 48.2038 24.9383C48.2038 24.518 48.1028 24.1495 47.9009 23.8329C47.7043 23.5108 47.4259 23.2597 47.0656 23.0795C46.7108 22.8994 46.2959 22.8093 45.821 22.8093C45.3406 22.8093 44.9011 22.8967 44.5026 23.0714C44.1041 23.2406 43.7848 23.4835 43.5446 23.8001C43.3044 24.1168 43.1761 24.488 43.1597 24.9138H39.7615C39.7779 23.9475 40.0535 23.0959 40.5885 22.359C41.1235 21.622 41.8441 21.0461 42.7503 20.6312C43.6619 20.2108 44.691 20.0007 45.8374 20.0007C46.9947 20.0007 48.0073 20.2108 48.8753 20.6312C49.7433 21.0515 50.4175 21.6193 50.8979 22.3344C51.3837 23.0441 51.6239 23.8411 51.6184 24.7254C51.6239 25.6644 51.3318 26.4477 50.7423 27.0755C50.1582 27.7033 49.3966 28.1018 48.4577 28.2711V28.4021C49.6914 28.5604 50.6304 28.9889 51.2745 29.6877C51.9241 30.381 52.2462 31.2489 52.2408 32.2916C52.2462 33.2469 51.9705 34.0958 51.4137 34.8382C50.8624 35.5807 50.1008 36.1648 49.1291 36.5906C48.1574 37.0164 47.0438 37.2293 45.7882 37.2293Z" fill="white"/>
<path d="M19.931 20.2299H20.7545V19.4064H19.931V20.2299ZM19.931 37V37.8235H20.7545V37H19.931ZM16.3854 37H15.5618V37.8235H16.3854V37ZM16.3854 23.5954H17.2089V22.7719H16.3854V23.5954ZM16.2871 23.5954V22.7719H16.0503L15.8497 22.8977L16.2871 23.5954ZM12.4467 26.0028H11.6232V27.491L12.8841 26.7006L12.4467 26.0028ZM12.4467 22.8585L12.0062 22.1627L11.6232 22.4051V22.8585H12.4467ZM16.5983 20.2299V19.4064H16.3595L16.1577 19.5341L16.5983 20.2299ZM19.931 20.2299H19.1075V37H19.931H20.7545V20.2299H19.931ZM19.931 37V36.1765H16.3854V37V37.8235H19.931V37ZM16.3854 37H17.2089V23.5954H16.3854H15.5618V37H16.3854ZM16.3854 23.5954V22.7719H16.2871V23.5954V24.4189H16.3854V23.5954ZM16.2871 23.5954L15.8497 22.8977L12.0093 25.3051L12.4467 26.0028L12.8841 26.7006L16.7245 24.2932L16.2871 23.5954ZM12.4467 26.0028H13.2702V22.8585H12.4467H11.6232V26.0028H12.4467ZM12.4467 22.8585L12.8872 23.5543L17.0388 20.9257L16.5983 20.2299L16.1577 19.5341L12.0062 22.1627L12.4467 22.8585ZM16.5983 20.2299V21.0535H19.931V20.2299V19.4064H16.5983V20.2299ZM34.2097 34.6745L33.6279 35.2573L34.2091 35.8375L34.7909 35.2579L34.2097 34.6745ZM24.4244 24.9056L23.8388 24.3266L23.2626 24.9094L23.8426 25.4884L24.4244 24.9056ZM26.5698 22.7356L27.1521 22.1533L26.5665 21.5677L25.9842 22.1566L26.5698 22.7356ZM36.3633 32.5291L36.9445 33.1125L37.529 32.5302L36.9456 31.9468L36.3633 32.5291ZM26.5698 34.6745L25.9875 35.2568L26.5691 35.8384L27.1514 35.2575L26.5698 34.6745ZM24.4244 32.5291L23.8419 31.947L23.26 32.5293L23.8421 33.1114L24.4244 32.5291ZM34.2097 22.7356L34.7942 22.1555L34.2117 21.5685L33.6271 22.1535L34.2097 22.7356ZM36.3633 24.9056L36.9449 25.4886L37.5264 24.9085L36.9478 24.3255L36.3633 24.9056ZM34.2097 34.6745L34.7915 34.0917L25.0063 24.3228L24.4244 24.9056L23.8426 25.4884L33.6279 35.2573L34.2097 34.6745ZM24.4244 24.9056L25.0101 25.4846L27.1554 23.3146L26.5698 22.7356L25.9842 22.1566L23.8388 24.3266L24.4244 24.9056ZM26.5698 22.7356L25.9875 23.3179L35.7809 33.1114L36.3633 32.5291L36.9456 31.9468L27.1521 22.1533L26.5698 22.7356ZM36.3633 32.5291L35.782 31.9456L33.6285 34.091L34.2097 34.6745L34.7909 35.2579L36.9445 33.1125L36.3633 32.5291ZM26.5698 34.6745L27.1521 34.0921L25.0067 31.9468L24.4244 32.5291L23.8421 33.1114L25.9875 35.2568L26.5698 34.6745ZM24.4244 32.5291L25.007 33.1112L34.7923 23.3177L34.2097 22.7356L33.6271 22.1535L23.8419 31.947L24.4244 32.5291ZM34.2097 22.7356L33.6252 23.3157L35.7787 25.4857L36.3633 24.9056L36.9478 24.3255L34.7942 22.1555L34.2097 22.7356ZM36.3633 24.9056L35.7817 24.3225L25.9882 34.0914L26.5698 34.6745L27.1514 35.2575L36.9449 25.4886L36.3633 24.9056ZM42.521 36.5988L42.1841 37.3503L42.1893 37.3526L42.521 36.5988ZM40.2692 34.8464L39.604 35.332L39.608 35.3374L40.2692 34.8464ZM39.4258 32.2589V31.4353H38.5883L38.6023 32.2727L39.4258 32.2589ZM42.9959 32.2589L43.8183 32.215L43.7767 31.4353H42.9959V32.2589ZM43.3972 33.3397L42.7508 33.85L42.7558 33.8563L42.7608 33.8625L43.3972 33.3397ZM44.3962 34.0521L44.0851 34.8147L44.0851 34.8147L44.3962 34.0521ZM47.2294 34.0194L46.8849 33.2714L46.8849 33.2714L47.2294 34.0194ZM48.2038 33.2251L48.8805 33.6944L48.8805 33.6944L48.2038 33.2251ZM48.1793 30.8668L47.5056 31.3405L47.5098 31.3465L47.5142 31.3524L48.1793 30.8668ZM47.1148 30.048L46.7904 30.8049L46.7936 30.8063L47.1148 30.048ZM43.9131 29.7532H43.0895V30.5767H43.9131V29.7532ZM43.9131 27.1492V26.3257H43.0895V27.1492H43.9131ZM46.8937 26.8708L46.5574 26.1191L46.5537 26.1208L46.8937 26.8708ZM47.8599 26.1011L48.5346 26.5734L48.5382 26.5681L47.8599 26.1011ZM47.9009 23.8329L47.1979 24.2618L47.2022 24.2689L47.2066 24.2758L47.9009 23.8329ZM47.0656 23.0795L46.6928 23.8139L46.6973 23.8161L47.0656 23.0795ZM44.5026 23.0714L44.8246 23.8294L44.8333 23.8256L44.5026 23.0714ZM43.5446 23.8001L44.2007 24.2979L44.2007 24.2979L43.5446 23.8001ZM43.1597 24.9138V25.7373H43.9522L43.9826 24.9454L43.1597 24.9138ZM39.7615 24.9138L38.9381 24.8998L38.9239 25.7373H39.7615V24.9138ZM40.5885 22.359L41.255 22.8427L41.255 22.8427L40.5885 22.359ZM42.7503 20.6312L43.0931 21.38L43.0951 21.379L42.7503 20.6312ZM48.8753 20.6312L49.2342 19.89L49.2342 19.89L48.8753 20.6312ZM50.8979 22.3344L50.2142 22.7936L50.2183 22.7996L50.8979 22.3344ZM51.6184 24.7254L50.7949 24.7203L50.7949 24.7302L51.6184 24.7254ZM50.7423 27.0755L50.142 26.5118L50.1394 26.5146L50.7423 27.0755ZM48.4577 28.2711L48.3116 27.4606L47.6342 27.5827V28.2711H48.4577ZM48.4577 28.4021H47.6342V29.1267L48.3529 29.2189L48.4577 28.4021ZM51.2745 29.6877L50.669 30.2459L50.6736 30.2508L51.2745 29.6877ZM52.2408 32.2916L51.4172 32.2873L51.4173 32.2963L52.2408 32.2916ZM51.4137 34.8382L50.7549 34.3441L50.7526 34.3472L51.4137 34.8382ZM49.1291 36.5906L48.7986 35.8363L48.7986 35.8363L49.1291 36.5906ZM45.7882 37.2293V36.4057C44.6602 36.4057 43.6871 36.2121 42.8527 35.845L42.521 36.5988L42.1893 37.3526C43.2656 37.8261 44.4706 38.0528 45.7882 38.0528V37.2293ZM42.521 36.5988L42.8579 35.8473C42.0202 35.4718 41.3875 34.9711 40.9303 34.3554L40.2692 34.8464L39.608 35.3374C40.2535 36.2066 41.1221 36.8742 42.1841 37.3502L42.521 36.5988ZM40.2692 34.8464L40.9344 34.3609C40.4943 33.758 40.2629 33.0624 40.2492 32.2451L39.4258 32.2589L38.6023 32.2727C38.6214 33.4096 38.9522 34.4391 39.604 35.332L40.2692 34.8464ZM39.4258 32.2589V33.0824H42.9959V32.2589V31.4353H39.4258V32.2589ZM42.9959 32.2589L42.1736 32.3027C42.2042 32.8759 42.3959 33.4005 42.7508 33.85L43.3972 33.3397L44.0436 32.8294C43.9071 32.6566 43.8314 32.4607 43.8183 32.215L42.9959 32.2589ZM43.3972 33.3397L42.7608 33.8625C43.1097 34.2872 43.5606 34.6007 44.0851 34.8147L44.3962 34.0521L44.7072 33.2896C44.402 33.1651 44.1869 33.0037 44.0335 32.817L43.3972 33.3397ZM44.3962 34.0521L44.0851 34.8147C44.6131 35.03 45.1878 35.1295 45.7964 35.1295V34.306V33.4825C45.3679 33.4825 45.0091 33.4127 44.7072 33.2896L44.3962 34.0521ZM45.7964 34.306V35.1295C46.4343 35.1295 47.033 35.0165 47.5739 34.7674L47.2294 34.0194L46.8849 33.2714C46.5961 33.4044 46.2395 33.4825 45.7964 33.4825V34.306ZM47.2294 34.0194L47.5739 34.7674C48.1075 34.5217 48.553 34.1666 48.8805 33.6944L48.2038 33.2251L47.5271 32.7558C47.3852 32.9605 47.1811 33.135 46.8849 33.2714L47.2294 34.0194ZM48.2038 33.2251L48.8805 33.6944C49.218 33.2078 49.3795 32.6511 49.3795 32.0541H48.5559H47.7324C47.7324 32.3416 47.6591 32.5655 47.5271 32.7558L48.2038 33.2251ZM48.5559 32.0541H49.3795C49.3795 31.4414 49.2039 30.8736 48.8444 30.3812L48.1793 30.8668L47.5142 31.3524C47.6569 31.5479 47.7324 31.7716 47.7324 32.0541H48.5559ZM48.1793 30.8668L48.8529 30.3931C48.5038 29.8966 48.0159 29.5353 47.4359 29.2896L47.1148 30.048L46.7936 30.8063C47.1417 30.9537 47.3634 31.1382 47.5056 31.3405L48.1793 30.8668ZM47.1148 30.048L47.4392 29.291C46.8545 29.0404 46.1929 28.9296 45.4771 28.9296V29.7532V30.5767C46.0277 30.5767 46.4579 30.6624 46.7904 30.8049L47.1148 30.048ZM45.4771 29.7532V28.9296H43.9131V29.7532V30.5767H45.4771V29.7532ZM43.9131 29.7532H44.7366V27.1492H43.9131H43.0895V29.7532H43.9131ZM43.9131 27.1492V27.9728H45.4771V27.1492V26.3257H43.9131V27.1492ZM45.4771 27.1492V27.9728C46.1073 27.9728 46.6991 27.8632 47.2337 27.6209L46.8937 26.8708L46.5537 26.1208C46.2694 26.2496 45.9167 26.3257 45.4771 26.3257V27.1492ZM46.8937 26.8708L47.23 27.6226C47.7619 27.3846 48.2087 27.0389 48.5346 26.5734L47.8599 26.1011L47.1853 25.6288C47.0526 25.8183 46.8553 25.9858 46.5574 26.1191L46.8937 26.8708ZM47.8599 26.1011L48.5382 26.5681C48.871 26.0849 49.0274 25.5309 49.0274 24.9383H48.2038H47.3803C47.3803 25.2301 47.3074 25.4513 47.1816 25.6341L47.8599 26.1011ZM48.2038 24.9383H49.0274C49.0274 24.3804 48.8913 23.8543 48.5951 23.39L47.9009 23.8329L47.2066 24.2758C47.3143 24.4447 47.3803 24.6556 47.3803 24.9383H48.2038ZM47.9009 23.8329L48.6039 23.4039C48.3213 22.9409 47.9227 22.5873 47.4339 22.343L47.0656 23.0795L46.6973 23.8161C46.9292 23.932 47.0873 24.0807 47.1979 24.2618L47.9009 23.8329ZM47.0656 23.0795L47.4384 22.3452C46.9478 22.0961 46.4006 21.9858 45.821 21.9858V22.8093V23.6329C46.1912 23.6329 46.4738 23.7027 46.6928 23.8139L47.0656 23.0795ZM45.821 22.8093V21.9858C45.2387 21.9858 44.6851 22.0922 44.172 22.3171L44.5026 23.0714L44.8333 23.8256C45.1171 23.7012 45.4425 23.6329 45.821 23.6329V22.8093ZM44.5026 23.0714L44.1807 22.3133C43.6622 22.5335 43.2231 22.8613 42.8885 23.3024L43.5446 23.8001L44.2007 24.2979C44.3464 24.1057 44.546 23.9476 44.8245 23.8294L44.5026 23.0714ZM43.5446 23.8001L42.8885 23.3024C42.5387 23.7635 42.3592 24.3004 42.3368 24.8821L43.1597 24.9138L43.9826 24.9454C43.993 24.6756 44.0701 24.47 44.2007 24.2979L43.5446 23.8001ZM43.1597 24.9138V24.0902H39.7615V24.9138V25.7373H43.1597V24.9138ZM39.7615 24.9138L40.5849 24.9277C40.5986 24.1196 40.8255 23.4343 41.255 22.8427L40.5885 22.359L39.9221 21.8752C39.2816 22.7575 38.9571 23.7755 38.9381 24.8998L39.7615 24.9138ZM40.5885 22.359L41.255 22.8427C41.699 22.2311 42.3033 21.7416 43.0931 21.38L42.7503 20.6312L42.4075 19.8824C41.3849 20.3506 40.5481 21.0129 39.9221 21.8752L40.5885 22.359ZM42.7503 20.6312L43.0951 21.379C43.8843 21.0152 44.7931 20.8242 45.8374 20.8242V20.0007V19.1771C44.5888 19.1771 43.4396 19.4065 42.4055 19.8833L42.7503 20.6312ZM45.8374 20.0007V20.8242C46.8949 20.8242 47.7805 21.016 48.5164 21.3724L48.8753 20.6312L49.2342 19.89C48.2342 19.4057 47.0944 19.1771 45.8374 19.1771V20.0007ZM48.8753 20.6312L48.5164 21.3724C49.2691 21.7369 49.8246 22.2135 50.2142 22.7936L50.8979 22.3344L51.5815 21.8752C51.0103 21.025 50.2175 20.3661 49.2342 19.89L48.8753 20.6312ZM50.8979 22.3344L50.2183 22.7996C50.6066 23.3667 50.7994 23.9987 50.7949 24.7203L51.6184 24.7254L52.442 24.7305C52.4484 23.6834 52.1608 22.7214 51.5774 21.8692L50.8979 22.3344ZM51.6184 24.7254L50.7949 24.7302C50.7993 25.4789 50.5734 26.0524 50.142 26.5118L50.7423 27.0755L51.3426 27.6393C52.0903 26.8431 52.4485 25.8499 52.442 24.7206L51.6184 24.7254ZM50.7423 27.0755L50.1394 26.5146C49.6902 26.9973 49.0961 27.3192 48.3116 27.4606L48.4577 28.2711L48.6038 29.0815C49.6972 28.8845 50.6261 28.4093 51.3452 27.6365L50.7423 27.0755ZM48.4577 28.2711H47.6342V28.4021H48.4577H49.2812V28.2711H48.4577ZM48.4577 28.4021L48.3529 29.2189C49.4546 29.3603 50.1921 29.7285 50.669 30.2459L51.2745 29.6877L51.88 29.1295C51.0686 28.2493 49.9282 27.7605 48.5625 27.5852L48.4577 28.4021ZM51.2745 29.6877L50.6736 30.2508C51.1646 30.7747 51.4217 31.4329 51.4173 32.2873L52.2408 32.2916L53.0643 32.2959C53.0707 31.065 52.6837 29.9872 51.8755 29.1246L51.2745 29.6877ZM52.2408 32.2916L51.4173 32.2963C51.4217 33.0775 51.2005 33.75 50.7549 34.3441L51.4137 34.8382L52.0726 35.3324C52.7406 34.4416 53.0707 33.4163 53.0643 32.2869L52.2408 32.2916ZM51.4137 34.8382L50.7526 34.3472C50.2986 34.9586 49.6587 35.4594 48.7986 35.8363L49.1291 36.5906L49.4597 37.3449C50.543 36.8701 51.4262 36.2027 52.0749 35.3292L51.4137 34.8382ZM49.1291 36.5906L48.7986 35.8363C47.9484 36.2088 46.9506 36.4057 45.7882 36.4057V37.2293V38.0528C47.137 38.0528 48.3664 37.8239 49.4597 37.3449L49.1291 36.5906Z" fill="#2B3F46" mask="url(#path-33-outside-1_2122_5525)"/>
<defs>
<linearGradient id="paint0_linear_2122_5525" x1="35.8411" y1="35.864" x2="-1.88188" y2="2.08424" gradientUnits="userSpaceOnUse">
<stop stop-color="#FFD5EF"/>
<stop offset="1" stop-color="#EFBDFD"/>
</linearGradient>
<linearGradient id="paint1_linear_2122_5525" x1="26.8809" y1="4.483" x2="25.174" y2="-4.68761" gradientUnits="userSpaceOnUse">
<stop stop-color="#F95457"/>
<stop offset="1" stop-color="#FDBDCB"/>
</linearGradient>
<linearGradient id="paint2_linear_2122_5525" x1="26.8809" y1="4.483" x2="25.174" y2="-4.68761" gradientUnits="userSpaceOnUse">
<stop stop-color="#F95457"/>
<stop offset="1" stop-color="#FDBDCB"/>
</linearGradient>
<linearGradient id="paint3_linear_2122_5525" x1="4.71844" y1="43.652" x2="1.80424" y2="43.0279" gradientUnits="userSpaceOnUse">
<stop stop-color="#F95457"/>
<stop offset="1" stop-color="#FDBDCB"/>
</linearGradient>
<linearGradient id="paint4_linear_2122_5525" x1="35.7657" y1="58.0257" x2="30.2143" y2="50.8928" gradientUnits="userSpaceOnUse">
<stop stop-color="#F95457"/>
<stop offset="1" stop-color="#FDBDCB"/>
</linearGradient>
<linearGradient id="paint5_linear_2122_5525" x1="60.6657" y1="43.652" x2="57.7515" y2="43.0279" gradientUnits="userSpaceOnUse">
<stop stop-color="#F95457"/>
<stop offset="1" stop-color="#FDBDCB"/>
</linearGradient>
<linearGradient id="paint6_linear_2122_5525" x1="-1.09962e-05" y1="-0.0328651" x2="30.641" y2="-4.05264" gradientUnits="userSpaceOnUse">
<stop stop-color="#D74446"/>
<stop offset="1" stop-color="#E165B8"/>
</linearGradient>
<linearGradient id="paint7_linear_2122_5525" x1="-1.11276e-05" y1="-0.033258" x2="31.0073" y2="-4.10108" gradientUnits="userSpaceOnUse">
<stop stop-color="#D74446"/>
<stop offset="1" stop-color="#E165B8"/>
</linearGradient>
<linearGradient id="paint8_linear_2122_5525" x1="-8.34573e-06" y1="-0.00415724" x2="14.606" y2="-11.5011" gradientUnits="userSpaceOnUse">
<stop stop-color="#D1369D"/>
<stop offset="1" stop-color="#B31E20"/>
</linearGradient>
<linearGradient id="paint9_linear_2122_5525" x1="-8.34573e-06" y1="-0.00415724" x2="14.606" y2="-11.5011" gradientUnits="userSpaceOnUse">
<stop stop-color="#D74446"/>
<stop offset="1" stop-color="#E165B8"/>
</linearGradient>
<linearGradient id="paint10_linear_2122_5525" x1="2.32031" y1="36.6188" x2="3.73321" y2="36.5744" gradientUnits="userSpaceOnUse">
<stop stop-color="#D74446"/>
<stop offset="1" stop-color="#D1369D"/>
</linearGradient>
<linearGradient id="paint11_linear_2122_5525" x1="27.5449" y1="52.5135" x2="34.14" y2="51.2721" gradientUnits="userSpaceOnUse">
<stop stop-color="#B31E20"/>
<stop offset="1" stop-color="#D74446"/>
</linearGradient>
<linearGradient id="paint12_linear_2122_5525" x1="59.0059" y1="36.6188" x2="60.4188" y2="36.5744" gradientUnits="userSpaceOnUse">
<stop stop-color="#E165B8"/>
<stop offset="1" stop-color="#D74446"/>
</linearGradient>
<clipPath id="clip0_2122_5525">
<rect width="35.8992" height="35.8992" rx="4.44179" transform="matrix(0.866025 0.5 -0.866025 0.5 31.9102 19)" fill="white"/>
</clipPath>
<clipPath id="clip1_2122_5525">
<rect width="36.3731" height="36.3731" rx="4.50041" transform="matrix(0.866025 0.5 -0.866025 0.5 31.5 18.4607)" fill="white"/>
</clipPath>
</defs>
</svg>
