<svg width="64" height="64" viewBox="0 0 64 64" fill="none" xmlns="http://www.w3.org/2000/svg">
<path d="M4.4006 33.9298C3.80774 33.582 3.47546 33.1136 3.47547 32.6257L3.47547 30.5016C3.47547 29.9566 3.88975 29.439 4.60873 29.0857L30.1348 16.5442C31.3579 15.9433 33.1609 15.9544 34.3614 16.5703L60.0608 29.7535C60.7487 30.1064 61.1422 30.6122 61.1422 31.1434V32.5436C61.1422 33.0309 60.8108 33.4987 60.2194 33.8464L34.5631 48.9278C33.3018 49.6692 31.2326 49.6699 29.9699 48.9292L4.4006 33.9298Z" fill="url(#paint0_linear_84_1398)"/>
<rect width="34.7831" height="34.7831" rx="2.62954" transform="matrix(0.866044 -0.499967 0.866044 0.499967 2.14404 30.3906)" fill="white"/>
<rect width="10.8697" height="10.8697" transform="matrix(0.866044 -0.499967 0.866044 0.499967 12.2639 30.3906)" fill="#D9D9D9"/>
<rect width="10.8697" height="10.8697" transform="matrix(0.866044 -0.499967 0.866044 0.499967 22.8542 24.2769)" fill="#D9D9D9"/>
<rect width="10.8697" height="10.8697" transform="matrix(0.866044 -0.499967 0.866044 0.499967 22.8542 36.5044)" fill="#D9D9D9"/>
<rect width="10.8697" height="10.8697" transform="matrix(0.866044 -0.499967 0.866044 0.499967 33.4446 30.3906)" fill="#D9D9D9"/>
<mask id="path-7-outside-1_84_1398" maskUnits="userSpaceOnUse" x="18" y="23" width="28" height="14" fill="black">
<rect fill="white" x="18" y="23" width="28" height="14"/>
<path d="M19.236 32.9092V31.8936L23.7164 24.8048H24.4531V26.3779H23.9553L20.5702 31.7343V31.814H26.6037V32.9092H19.236ZM24.035 35V32.6005V32.1276V24.8048H25.2098V35H24.035ZM34.4629 33.168L28.8476 27.5527L29.6043 26.796L35.2196 32.4114L34.4629 33.168ZM29.6043 33.168L28.8476 32.4114L34.4629 26.796L35.2196 27.5527L29.6043 33.168ZM41.1548 35.1394C40.4977 35.1394 39.9119 35.0266 39.3975 34.8009C38.8864 34.5752 38.4799 34.2616 38.1779 33.86C37.8792 33.4551 37.7166 32.9855 37.69 32.4512H38.9445C38.9711 32.7797 39.0839 33.0635 39.283 33.3025C39.4822 33.5381 39.7427 33.7206 40.0646 33.85C40.3865 33.9795 40.7433 34.0442 41.1349 34.0442C41.573 34.0442 41.9613 33.9679 42.2998 33.8152C42.6383 33.6625 42.9038 33.4501 43.0963 33.178C43.2888 32.9059 43.385 32.5906 43.385 32.2322C43.385 31.8571 43.2921 31.5269 43.1062 31.2415C42.9204 30.9528 42.6483 30.7271 42.2898 30.5645C41.9314 30.4019 41.4933 30.3205 40.9756 30.3205H40.1592V29.2253H40.9756C41.3805 29.2253 41.7356 29.1523 42.0409 29.0063C42.3496 28.8603 42.5902 28.6545 42.7628 28.389C42.9386 28.1235 43.0266 27.8116 43.0266 27.4531C43.0266 27.108 42.9503 26.8076 42.7976 26.5521C42.6449 26.2965 42.4292 26.0974 42.1504 25.9547C41.875 25.812 41.5497 25.7406 41.1747 25.7406C40.8229 25.7406 40.4911 25.8054 40.1791 25.9348C39.8705 26.0609 39.6182 26.2451 39.4224 26.4874C39.2266 26.7263 39.1204 27.0151 39.1038 27.3536H37.9091C37.929 26.8192 38.0899 26.3513 38.3919 25.9497C38.6939 25.5448 39.0889 25.2296 39.5767 25.0039C40.0679 24.7782 40.6072 24.6654 41.1946 24.6654C41.8252 24.6654 42.3662 24.7931 42.8175 25.0487C43.2689 25.3009 43.6157 25.6344 43.8579 26.0493C44.1002 26.4641 44.2214 26.9122 44.2214 27.3934C44.2214 27.9675 44.0703 28.4571 43.7683 28.8619C43.4697 29.2668 43.0631 29.5473 42.5487 29.7033V29.7829C43.1925 29.8891 43.6953 30.1629 44.0571 30.6043C44.4188 31.0424 44.5997 31.585 44.5997 32.2322C44.5997 32.7864 44.4487 33.2842 44.1467 33.7256C43.848 34.1637 43.4398 34.5088 42.9221 34.761C42.4043 35.0133 41.8152 35.1394 41.1548 35.1394Z"/>
</mask>
<path d="M19.236 32.9092V31.8936L23.7164 24.8048H24.4531V26.3779H23.9553L20.5702 31.7343V31.814H26.6037V32.9092H19.236ZM24.035 35V32.6005V32.1276V24.8048H25.2098V35H24.035ZM34.4629 33.168L28.8476 27.5527L29.6043 26.796L35.2196 32.4114L34.4629 33.168ZM29.6043 33.168L28.8476 32.4114L34.4629 26.796L35.2196 27.5527L29.6043 33.168ZM41.1548 35.1394C40.4977 35.1394 39.9119 35.0266 39.3975 34.8009C38.8864 34.5752 38.4799 34.2616 38.1779 33.86C37.8792 33.4551 37.7166 32.9855 37.69 32.4512H38.9445C38.9711 32.7797 39.0839 33.0635 39.283 33.3025C39.4822 33.5381 39.7427 33.7206 40.0646 33.85C40.3865 33.9795 40.7433 34.0442 41.1349 34.0442C41.573 34.0442 41.9613 33.9679 42.2998 33.8152C42.6383 33.6625 42.9038 33.4501 43.0963 33.178C43.2888 32.9059 43.385 32.5906 43.385 32.2322C43.385 31.8571 43.2921 31.5269 43.1062 31.2415C42.9204 30.9528 42.6483 30.7271 42.2898 30.5645C41.9314 30.4019 41.4933 30.3205 40.9756 30.3205H40.1592V29.2253H40.9756C41.3805 29.2253 41.7356 29.1523 42.0409 29.0063C42.3496 28.8603 42.5902 28.6545 42.7628 28.389C42.9386 28.1235 43.0266 27.8116 43.0266 27.4531C43.0266 27.108 42.9503 26.8076 42.7976 26.5521C42.6449 26.2965 42.4292 26.0974 42.1504 25.9547C41.875 25.812 41.5497 25.7406 41.1747 25.7406C40.8229 25.7406 40.4911 25.8054 40.1791 25.9348C39.8705 26.0609 39.6182 26.2451 39.4224 26.4874C39.2266 26.7263 39.1204 27.0151 39.1038 27.3536H37.9091C37.929 26.8192 38.0899 26.3513 38.3919 25.9497C38.6939 25.5448 39.0889 25.2296 39.5767 25.0039C40.0679 24.7782 40.6072 24.6654 41.1946 24.6654C41.8252 24.6654 42.3662 24.7931 42.8175 25.0487C43.2689 25.3009 43.6157 25.6344 43.8579 26.0493C44.1002 26.4641 44.2214 26.9122 44.2214 27.3934C44.2214 27.9675 44.0703 28.4571 43.7683 28.8619C43.4697 29.2668 43.0631 29.5473 42.5487 29.7033V29.7829C43.1925 29.8891 43.6953 30.1629 44.0571 30.6043C44.4188 31.0424 44.5997 31.585 44.5997 32.2322C44.5997 32.7864 44.4487 33.2842 44.1467 33.7256C43.848 34.1637 43.4398 34.5088 42.9221 34.761C42.4043 35.0133 41.8152 35.1394 41.1548 35.1394Z" fill="#00C1FF"/>
<path d="M19.236 32.9092H18.236V33.9092H19.236V32.9092ZM19.236 31.8936L18.3907 31.3594L18.236 31.6041V31.8936H19.236ZM23.7164 24.8048V23.8048H23.1654L22.871 24.2705L23.7164 24.8048ZM24.4531 24.8048H25.4531V23.8048H24.4531V24.8048ZM24.4531 26.3779V27.3779H25.4531V26.3779H24.4531ZM23.9553 26.3779V25.3779H23.4043L23.11 25.8436L23.9553 26.3779ZM20.5702 31.7343L19.7248 31.2001L19.5702 31.4448V31.7343H20.5702ZM20.5702 31.814H19.5702V32.814H20.5702V31.814ZM26.6037 31.814H27.6037V30.814H26.6037V31.814ZM26.6037 32.9092V33.9092H27.6037V32.9092H26.6037ZM24.035 35H23.035V36H24.035V35ZM24.035 24.8048V23.8048H23.035V24.8048H24.035ZM25.2098 24.8048H26.2098V23.8048H25.2098V24.8048ZM25.2098 35V36H26.2098V35H25.2098ZM20.236 32.9092V31.8936H18.236V32.9092H20.236ZM20.0814 32.4279L24.5617 25.339L22.871 24.2705L18.3907 31.3594L20.0814 32.4279ZM23.7164 25.8048H24.4531V23.8048H23.7164V25.8048ZM23.4531 24.8048V26.3779H25.4531V24.8048H23.4531ZM24.4531 25.3779H23.9553V27.3779H24.4531V25.3779ZM23.11 25.8436L19.7248 31.2001L21.4155 32.2686L24.8007 26.9121L23.11 25.8436ZM19.5702 31.7343V31.814H21.5702V31.7343H19.5702ZM20.5702 32.814H26.6037V30.814H20.5702V32.814ZM25.6037 31.814V32.9092H27.6037V31.814H25.6037ZM26.6037 31.9092H19.236V33.9092H26.6037V31.9092ZM25.035 35V32.6005H23.035V35H25.035ZM25.035 32.6005V32.1276H23.035V32.6005H25.035ZM25.035 32.1276V24.8048H23.035V32.1276H25.035ZM24.035 25.8048H25.2098V23.8048H24.035V25.8048ZM24.2098 24.8048V35H26.2098V24.8048H24.2098ZM25.2098 34H24.035V36H25.2098V34ZM34.4629 33.168L33.7558 33.8751L34.4629 34.5823L35.17 33.8751L34.4629 33.168ZM28.8476 27.5527L28.1405 26.8456L27.4334 27.5527L28.1405 28.2598L28.8476 27.5527ZM29.6043 26.796L30.3114 26.0889L29.6043 25.3818L28.8972 26.0889L29.6043 26.796ZM35.2196 32.4114L35.9267 33.1185L36.6338 32.4114L35.9267 31.7043L35.2196 32.4114ZM29.6043 33.168L28.8972 33.8751L29.6043 34.5823L30.3114 33.8751L29.6043 33.168ZM28.8476 32.4114L28.1405 31.7043L27.4334 32.4114L28.1405 33.1185L28.8476 32.4114ZM34.4629 26.796L35.17 26.0889L34.4629 25.3818L33.7558 26.0889L34.4629 26.796ZM35.2196 27.5527L35.9267 28.2598L36.6338 27.5527L35.9267 26.8456L35.2196 27.5527ZM35.17 32.4609L29.5547 26.8456L28.1405 28.2598L33.7558 33.8751L35.17 32.4609ZM29.5547 28.2598L30.3114 27.5031L28.8972 26.0889L28.1405 26.8456L29.5547 28.2598ZM28.8972 27.5031L34.5125 33.1185L35.9267 31.7043L30.3114 26.0889L28.8972 27.5031ZM34.5125 31.7043L33.7558 32.4609L35.17 33.8751L35.9267 33.1185L34.5125 31.7043ZM30.3114 32.4609L29.5547 31.7043L28.1405 33.1185L28.8972 33.8751L30.3114 32.4609ZM29.5547 33.1185L35.17 27.5031L33.7558 26.0889L28.1405 31.7043L29.5547 33.1185ZM33.7558 27.5031L34.5125 28.2598L35.9267 26.8456L35.17 26.0889L33.7558 27.5031ZM34.5125 26.8456L28.8972 32.4609L30.3114 33.8751L35.9267 28.2598L34.5125 26.8456ZM39.3975 34.8009L38.9936 35.7157L38.9958 35.7166L39.3975 34.8009ZM38.1779 33.86L37.3731 34.4537L37.3787 34.4611L38.1779 33.86ZM37.69 32.4512V31.4512H36.6391L36.6913 32.5008L37.69 32.4512ZM38.9445 32.4512L39.9413 32.3706L39.867 31.4512H38.9445V32.4512ZM39.283 33.3025L38.5148 33.9427L38.5192 33.9479L39.283 33.3025ZM40.0646 33.85L39.6916 34.7779L39.6916 34.7779L40.0646 33.85ZM43.0963 33.178L42.2799 32.6005L42.2799 32.6005L43.0963 33.178ZM43.1062 31.2415L42.2654 31.7828L42.2682 31.7872L43.1062 31.2415ZM42.2898 30.5645L41.8767 31.4751L41.8767 31.4751L42.2898 30.5645ZM40.1592 30.3205H39.1592V31.3205H40.1592V30.3205ZM40.1592 29.2253V28.2253H39.1592V29.2253H40.1592ZM42.0409 29.0063L41.6133 28.1024L41.6095 28.1042L42.0409 29.0063ZM42.7628 28.389L41.9291 27.8367L41.9243 27.844L42.7628 28.389ZM42.7976 26.5521L43.6561 26.0392L43.6561 26.0392L42.7976 26.5521ZM42.1504 25.9547L41.6904 26.8426L41.6948 26.8449L42.1504 25.9547ZM40.1791 25.9348L40.5573 26.8605L40.5623 26.8585L40.1791 25.9348ZM39.4224 26.4874L40.1959 27.1212L40.2002 27.116L39.4224 26.4874ZM39.1038 27.3536V28.3536H40.056L40.1026 27.4025L39.1038 27.3536ZM37.9091 27.3536L36.9098 27.3163L36.8711 28.3536H37.9091V27.3536ZM38.3919 25.9497L39.1912 26.5508L39.1935 26.5476L38.3919 25.9497ZM39.5767 25.0039L39.1592 24.0952L39.1569 24.0963L39.5767 25.0039ZM42.8175 25.0487L42.3248 25.9189L42.3297 25.9216L42.8175 25.0487ZM43.8579 26.0493L42.9944 26.5536L42.9944 26.5536L43.8579 26.0493ZM43.7683 28.8619L42.9668 28.264L42.9636 28.2683L43.7683 28.8619ZM42.5487 29.7033L42.2585 28.7463L41.5487 28.9615V29.7033H42.5487ZM42.5487 29.7829H41.5487V30.6315L42.3859 30.7696L42.5487 29.7829ZM44.0571 30.6043L43.2836 31.2382L43.286 31.241L44.0571 30.6043ZM44.1467 33.7256L43.3214 33.1609L43.3205 33.1623L44.1467 33.7256ZM42.9221 34.761L43.36 35.66L43.36 35.66L42.9221 34.761ZM41.1548 34.1394C40.6128 34.1394 40.1674 34.0466 39.7993 33.8851L38.9958 35.7166C39.6565 36.0065 40.3826 36.1394 41.1548 36.1394V34.1394ZM39.8015 33.8861C39.4289 33.7216 39.1652 33.5091 38.9771 33.2589L37.3787 34.4611C37.7946 35.0141 38.344 35.4288 38.9936 35.7157L39.8015 33.8861ZM38.9826 33.2664C38.8082 33.03 38.7062 32.7525 38.6888 32.4016L36.6913 32.5008C36.7269 33.2186 36.9502 33.8802 37.3732 34.4537L38.9826 33.2664ZM37.69 33.4512H38.9445V31.4512H37.69V33.4512ZM37.9478 32.5317C37.9899 33.0529 38.1755 33.5354 38.5148 33.9426L40.0513 32.6623C39.9923 32.5916 39.9522 32.5066 39.9413 32.3706L37.9478 32.5317ZM38.5192 33.9479C38.8362 34.323 39.2374 34.5953 39.6916 34.7779L40.4376 32.9222C40.2479 32.846 40.1281 32.7532 40.0468 32.657L38.5192 33.9479ZM39.6916 34.7779C40.1464 34.9607 40.6318 35.0442 41.1349 35.0442V33.0442C40.8547 33.0442 40.6267 32.9982 40.4376 32.9222L39.6916 34.7779ZM41.1349 35.0442C41.6896 35.0442 42.222 34.9473 42.7109 34.7268L41.8887 32.9036C41.7005 32.9885 41.4564 33.0442 41.1349 33.0442V35.0442ZM42.7109 34.7268C43.1929 34.5094 43.6059 34.1892 43.9127 33.7555L42.2799 32.6005C42.2017 32.7111 42.0837 32.8157 41.8887 32.9036L42.7109 34.7268ZM43.9127 33.7555C44.2338 33.3015 44.385 32.781 44.385 32.2322H42.385C42.385 32.4002 42.3438 32.5102 42.2799 32.6005L43.9127 33.7555ZM44.385 32.2322C44.385 31.6837 44.2464 31.1598 43.9442 30.6958L42.2682 31.7872C42.3378 31.894 42.385 32.0305 42.385 32.2322H44.385ZM43.9471 30.7003C43.6426 30.2272 43.2103 29.884 42.703 29.6538L41.8767 31.4751C42.0862 31.5702 42.1982 31.6784 42.2654 31.7827L43.9471 30.7003ZM42.703 29.6538C42.1807 29.4168 41.5929 29.3205 40.9756 29.3205V31.3205C41.3937 31.3205 41.6821 31.3869 41.8767 31.4751L42.703 29.6538ZM40.9756 29.3205H40.1592V31.3205H40.9756V29.3205ZM41.1592 30.3205V29.2253H39.1592V30.3205H41.1592ZM40.1592 30.2253H40.9756V28.2253H40.1592V30.2253ZM40.9756 30.2253C41.5009 30.2253 42.0085 30.1303 42.4724 29.9084L41.6095 28.1042C41.4627 28.1744 41.2601 28.2253 40.9756 28.2253V30.2253ZM42.4686 29.9102C42.9312 29.6914 43.3197 29.3671 43.6012 28.934L41.9243 27.844C41.8607 27.942 41.768 28.0292 41.6133 28.1024L42.4686 29.9102ZM43.5964 28.9413C43.8941 28.492 44.0266 27.9825 44.0266 27.4531H42.0266C42.0266 27.6406 41.9832 27.755 41.9291 27.8367L43.5964 28.9413ZM44.0266 27.4531C44.0266 26.9566 43.9153 26.4731 43.6561 26.0392L41.9391 27.0649C41.9852 27.1421 42.0266 27.2593 42.0266 27.4531H44.0266ZM43.6561 26.0392C43.4021 25.6141 43.0428 25.2881 42.6061 25.0646L41.6948 26.8449C41.8157 26.9067 41.8878 26.979 41.9391 27.0649L43.6561 26.0392ZM42.6104 25.0668C42.1661 24.8366 41.6767 24.7406 41.1747 24.7406V26.7406C41.4228 26.7406 41.5839 26.7874 41.6904 26.8426L42.6104 25.0668ZM41.1747 24.7406C40.697 24.7406 40.2344 24.8292 39.7959 25.0111L40.5623 26.8585C40.7478 26.7815 40.9489 26.7406 41.1747 26.7406V24.7406ZM39.8009 25.0091C39.3474 25.1944 38.9539 25.4762 38.6447 25.8588L40.2002 27.116C40.2826 27.014 40.3935 26.9275 40.5573 26.8605L39.8009 25.0091ZM38.6489 25.8535C38.304 26.2745 38.131 26.7739 38.105 27.3046L40.1026 27.4025C40.1098 27.2562 40.1492 27.1782 40.1959 27.1212L38.6489 25.8535ZM39.1038 26.3536H37.9091V28.3536H39.1038V26.3536ZM38.9084 27.3908C38.9212 27.0466 39.0199 26.7785 39.1911 26.5508L37.5927 25.3487C37.16 25.9241 36.9368 26.5919 36.9098 27.3163L38.9084 27.3908ZM39.1935 26.5476C39.3896 26.2847 39.6498 26.0719 39.9966 25.9115L39.1569 24.0963C38.528 24.3872 37.9982 24.805 37.5904 25.3518L39.1935 26.5476ZM39.9942 25.9126C40.3434 25.7521 40.7387 25.6654 41.1946 25.6654V23.6654C40.4758 23.6654 39.7924 23.8043 39.1592 24.0952L39.9942 25.9126ZM41.1946 25.6654C41.6896 25.6654 42.053 25.765 42.3248 25.9189L43.3102 24.1785C42.6793 23.8213 41.9608 23.6654 41.1946 23.6654V25.6654ZM42.3297 25.9216C42.6374 26.0936 42.8491 26.3047 42.9944 26.5536L44.7215 25.545C44.3823 24.9642 43.9003 24.5082 43.3053 24.1757L42.3297 25.9216ZM42.9944 26.5536C43.1472 26.8151 43.2214 27.0891 43.2214 27.3934H45.2214C45.2214 26.7353 45.0533 26.1131 44.7215 25.545L42.9944 26.5536ZM43.2214 27.3934C43.2214 27.7828 43.1227 28.055 42.9668 28.264L44.5699 29.4598C45.018 28.8591 45.2214 28.1522 45.2214 27.3934H43.2214ZM42.9636 28.2683C42.8018 28.4876 42.5817 28.6483 42.2585 28.7463L42.8389 30.6602C43.5445 30.4463 44.1375 30.0461 44.5731 29.4556L42.9636 28.2683ZM41.5487 29.7033V29.7829H43.5487V29.7033H41.5487ZM42.3859 30.7696C42.8268 30.8423 43.0979 31.0115 43.2836 31.2382L44.8305 29.9704C44.2928 29.3143 43.5583 28.9359 42.7114 28.7962L42.3859 30.7696ZM43.286 31.241C43.4794 31.4752 43.5997 31.7832 43.5997 32.2322H45.5997C45.5997 31.3868 45.3583 30.6095 44.8282 29.9676L43.286 31.241ZM43.5997 32.2322C43.5997 32.5926 43.5053 32.8921 43.3214 33.1609L44.972 34.2903C45.3921 33.6763 45.5997 32.9802 45.5997 32.2322H43.5997ZM43.3205 33.1623C43.1281 33.4443 42.8593 33.6793 42.4841 33.8621L43.36 35.66C44.0203 35.3384 44.5679 34.883 44.9729 34.2889L43.3205 33.1623ZM42.4841 33.8621C42.1215 34.0387 41.6858 34.1394 41.1548 34.1394V36.1394C41.9447 36.1394 42.6871 35.9879 43.36 35.66L42.4841 33.8621Z" fill="#2F5764" mask="url(#path-7-outside-1_84_1398)"/>
<defs>
<linearGradient id="paint0_linear_84_1398" x1="3.72513" y1="32.3054" x2="33.5154" y2="49.1976" gradientUnits="userSpaceOnUse">
<stop stop-color="#4A4A4A"/>
<stop offset="1" stop-color="#303030"/>
</linearGradient>
</defs>
</svg>
