<svg width="64" height="64" viewBox="0 0 64 64" fill="none" xmlns="http://www.w3.org/2000/svg">
<path d="M4.4006 33.9298C3.80774 33.582 3.47546 33.1136 3.47547 32.6257L3.47547 30.5016C3.47547 29.9566 3.88975 29.439 4.60873 29.0857L30.1348 16.5442C31.3579 15.9433 33.1609 15.9544 34.3614 16.5703L60.0608 29.7535C60.7487 30.1064 61.1422 30.6122 61.1422 31.1434V32.5436C61.1422 33.0309 60.8108 33.4987 60.2194 33.8464L34.5631 48.9278C33.3018 49.6692 31.2326 49.6699 29.9699 48.9292L4.4006 33.9298Z" fill="url(#paint0_linear_84_1247)"/>
<rect width="34.7831" height="34.7831" rx="2.62954" transform="matrix(0.866044 -0.499967 0.866044 0.499967 2.14404 30.3906)" fill="white"/>
<rect width="10.8697" height="10.8697" transform="matrix(0.866044 -0.499967 0.866044 0.499967 12.2639 30.3906)" fill="#D9D9D9"/>
<rect width="10.8697" height="10.8697" transform="matrix(0.866044 -0.499967 0.866044 0.499967 22.8542 24.2769)" fill="#D9D9D9"/>
<rect width="10.8697" height="10.8697" transform="matrix(0.866044 -0.499967 0.866044 0.499967 22.8542 36.5044)" fill="#D9D9D9"/>
<rect width="10.8697" height="10.8697" transform="matrix(0.866044 -0.499967 0.866044 0.499967 33.4446 30.3906)" fill="#D9D9D9"/>
<mask id="path-7-outside-1_84_1247" maskUnits="userSpaceOnUse" x="19" y="23" width="27" height="14" fill="black">
<rect fill="white" x="19" y="23" width="27" height="14"/>
<path d="M20.2282 35V34.1039L23.5935 30.4201C23.9884 29.9887 24.3136 29.6136 24.5692 29.295C24.8247 28.9731 25.0139 28.6711 25.1367 28.389C25.2628 28.1036 25.3259 27.8049 25.3259 27.493C25.3259 27.1345 25.2396 26.8242 25.067 26.562C24.8977 26.2999 24.6654 26.0974 24.3701 25.9547C24.0747 25.812 23.7428 25.7406 23.3744 25.7406C22.9828 25.7406 22.641 25.822 22.3489 25.9846C22.0602 26.1439 21.8362 26.3679 21.6769 26.6566C21.5209 26.9454 21.4429 27.2839 21.4429 27.6722H20.2681C20.2681 27.0748 20.4058 26.5504 20.6813 26.0991C20.9567 25.6477 21.3317 25.2959 21.8063 25.0437C22.2842 24.7915 22.8202 24.6654 23.4143 24.6654C24.0116 24.6654 24.541 24.7915 25.0023 25.0437C25.4636 25.2959 25.8253 25.6361 26.0875 26.0642C26.3497 26.4923 26.4808 26.9686 26.4808 27.493C26.4808 27.868 26.4128 28.2347 26.2767 28.5931C26.1439 28.9482 25.9116 29.3448 25.5798 29.7829C25.2512 30.2177 24.7949 30.7487 24.2108 31.3759L21.9208 33.8252V33.9048H26.66V35H20.2282ZM34.7097 33.168L29.0943 27.5527L29.851 26.796L35.4664 32.4114L34.7097 33.168ZM29.851 33.168L29.0943 32.4114L34.7097 26.796L35.4664 27.5527L29.851 33.168ZM41.4015 35.1394C40.7444 35.1394 40.1587 35.0266 39.6443 34.8009C39.1332 34.5752 38.7266 34.2616 38.4246 33.86C38.1259 33.4551 37.9633 32.9855 37.9368 32.4512H39.1913C39.2178 32.7797 39.3306 33.0635 39.5298 33.3025C39.7289 33.5381 39.9894 33.7206 40.3113 33.85C40.6333 33.9795 40.99 34.0442 41.3816 34.0442C41.8197 34.0442 42.208 33.9679 42.5465 33.8152C42.885 33.6625 43.1505 33.4501 43.343 33.178C43.5355 32.9059 43.6318 32.5906 43.6318 32.2322C43.6318 31.8571 43.5388 31.5269 43.353 31.2415C43.1671 30.9528 42.895 30.7271 42.5366 30.5645C42.1781 30.4019 41.7401 30.3205 41.2223 30.3205H40.4059V29.2253H41.2223C41.6272 29.2253 41.9823 29.1523 42.2877 29.0063C42.5963 28.8603 42.8369 28.6545 43.0095 28.389C43.1854 28.1235 43.2733 27.8116 43.2733 27.4531C43.2733 27.108 43.197 26.8076 43.0443 26.5521C42.8917 26.2965 42.676 26.0974 42.3972 25.9547C42.1217 25.812 41.7965 25.7406 41.4215 25.7406C41.0697 25.7406 40.7378 25.8054 40.4258 25.9348C40.1172 26.0609 39.865 26.2451 39.6692 26.4874C39.4733 26.7263 39.3671 27.0151 39.3506 27.3536H38.1558C38.1757 26.8192 38.3367 26.3513 38.6387 25.9497C38.9407 25.5448 39.3356 25.2296 39.8235 25.0039C40.3147 24.7782 40.854 24.6654 41.4414 24.6654C42.0719 24.6654 42.6129 24.7931 43.0642 25.0487C43.5156 25.3009 43.8624 25.6344 44.1047 26.0493C44.347 26.4641 44.4681 26.9122 44.4681 27.3934C44.4681 27.9675 44.3171 28.4571 44.0151 28.8619C43.7164 29.2668 43.3098 29.5473 42.7954 29.7033V29.7829C43.4393 29.8891 43.9421 30.1629 44.3038 30.6043C44.6656 31.0424 44.8464 31.585 44.8464 32.2322C44.8464 32.7864 44.6954 33.2842 44.3934 33.7256C44.0947 34.1637 43.6865 34.5088 43.1688 34.761C42.6511 35.0133 42.062 35.1394 41.4015 35.1394Z"/>
</mask>
<path d="M20.2282 35V34.1039L23.5935 30.4201C23.9884 29.9887 24.3136 29.6136 24.5692 29.295C24.8247 28.9731 25.0139 28.6711 25.1367 28.389C25.2628 28.1036 25.3259 27.8049 25.3259 27.493C25.3259 27.1345 25.2396 26.8242 25.067 26.562C24.8977 26.2999 24.6654 26.0974 24.3701 25.9547C24.0747 25.812 23.7428 25.7406 23.3744 25.7406C22.9828 25.7406 22.641 25.822 22.3489 25.9846C22.0602 26.1439 21.8362 26.3679 21.6769 26.6566C21.5209 26.9454 21.4429 27.2839 21.4429 27.6722H20.2681C20.2681 27.0748 20.4058 26.5504 20.6813 26.0991C20.9567 25.6477 21.3317 25.2959 21.8063 25.0437C22.2842 24.7915 22.8202 24.6654 23.4143 24.6654C24.0116 24.6654 24.541 24.7915 25.0023 25.0437C25.4636 25.2959 25.8253 25.6361 26.0875 26.0642C26.3497 26.4923 26.4808 26.9686 26.4808 27.493C26.4808 27.868 26.4128 28.2347 26.2767 28.5931C26.1439 28.9482 25.9116 29.3448 25.5798 29.7829C25.2512 30.2177 24.7949 30.7487 24.2108 31.3759L21.9208 33.8252V33.9048H26.66V35H20.2282ZM34.7097 33.168L29.0943 27.5527L29.851 26.796L35.4664 32.4114L34.7097 33.168ZM29.851 33.168L29.0943 32.4114L34.7097 26.796L35.4664 27.5527L29.851 33.168ZM41.4015 35.1394C40.7444 35.1394 40.1587 35.0266 39.6443 34.8009C39.1332 34.5752 38.7266 34.2616 38.4246 33.86C38.1259 33.4551 37.9633 32.9855 37.9368 32.4512H39.1913C39.2178 32.7797 39.3306 33.0635 39.5298 33.3025C39.7289 33.5381 39.9894 33.7206 40.3113 33.85C40.6333 33.9795 40.99 34.0442 41.3816 34.0442C41.8197 34.0442 42.208 33.9679 42.5465 33.8152C42.885 33.6625 43.1505 33.4501 43.343 33.178C43.5355 32.9059 43.6318 32.5906 43.6318 32.2322C43.6318 31.8571 43.5388 31.5269 43.353 31.2415C43.1671 30.9528 42.895 30.7271 42.5366 30.5645C42.1781 30.4019 41.7401 30.3205 41.2223 30.3205H40.4059V29.2253H41.2223C41.6272 29.2253 41.9823 29.1523 42.2877 29.0063C42.5963 28.8603 42.8369 28.6545 43.0095 28.389C43.1854 28.1235 43.2733 27.8116 43.2733 27.4531C43.2733 27.108 43.197 26.8076 43.0443 26.5521C42.8917 26.2965 42.676 26.0974 42.3972 25.9547C42.1217 25.812 41.7965 25.7406 41.4215 25.7406C41.0697 25.7406 40.7378 25.8054 40.4258 25.9348C40.1172 26.0609 39.865 26.2451 39.6692 26.4874C39.4733 26.7263 39.3671 27.0151 39.3506 27.3536H38.1558C38.1757 26.8192 38.3367 26.3513 38.6387 25.9497C38.9407 25.5448 39.3356 25.2296 39.8235 25.0039C40.3147 24.7782 40.854 24.6654 41.4414 24.6654C42.0719 24.6654 42.6129 24.7931 43.0642 25.0487C43.5156 25.3009 43.8624 25.6344 44.1047 26.0493C44.347 26.4641 44.4681 26.9122 44.4681 27.3934C44.4681 27.9675 44.3171 28.4571 44.0151 28.8619C43.7164 29.2668 43.3098 29.5473 42.7954 29.7033V29.7829C43.4393 29.8891 43.9421 30.1629 44.3038 30.6043C44.6656 31.0424 44.8464 31.585 44.8464 32.2322C44.8464 32.7864 44.6954 33.2842 44.3934 33.7256C44.0947 34.1637 43.6865 34.5088 43.1688 34.761C42.6511 35.0133 42.062 35.1394 41.4015 35.1394Z" fill="#00C1FF"/>
<path d="M20.2282 35H19.2282V36H20.2282V35ZM20.2282 34.1039L19.4899 33.4295L19.2282 33.7159V34.1039H20.2282ZM23.5935 30.4201L22.8558 29.7449L22.8552 29.7456L23.5935 30.4201ZM24.5692 29.295L25.3493 29.9207L25.3524 29.9168L24.5692 29.295ZM25.1367 28.389L24.222 27.9849L24.2198 27.9899L25.1367 28.389ZM25.067 26.562L24.2268 27.1044L24.2317 27.1119L25.067 26.562ZM24.3701 25.9547L24.8051 25.0543L24.8051 25.0543L24.3701 25.9547ZM22.3489 25.9846L22.832 26.8602L22.8354 26.8583L22.3489 25.9846ZM21.6769 26.6566L20.8013 26.1735L20.7971 26.1813L21.6769 26.6566ZM21.4429 27.6722V28.6722H22.4429V27.6722H21.4429ZM20.2681 27.6722H19.2681V28.6722H20.2681V27.6722ZM20.6813 26.0991L21.5349 26.62L21.5349 26.62L20.6813 26.0991ZM21.8063 25.0437L21.3396 24.1593L21.337 24.1607L21.8063 25.0437ZM25.0023 25.0437L25.482 24.1663L25.482 24.1663L25.0023 25.0437ZM26.0875 26.0642L25.2347 26.5865L26.0875 26.0642ZM26.2767 28.5931L25.3418 28.2382L25.34 28.243L26.2767 28.5931ZM25.5798 29.7829L24.7827 29.179L24.782 29.18L25.5798 29.7829ZM24.2108 31.3759L24.9412 32.0589L24.9426 32.0574L24.2108 31.3759ZM21.9208 33.8252L21.1904 33.1422L20.9208 33.4305V33.8252H21.9208ZM21.9208 33.9048H20.9208V34.9048H21.9208V33.9048ZM26.66 33.9048H27.66V32.9048H26.66V33.9048ZM26.66 35V36H27.66V35H26.66ZM21.2282 35V34.1039H19.2282V35H21.2282ZM20.9666 34.7784L24.3318 31.0946L22.8552 29.7456L19.4899 33.4295L20.9666 34.7784ZM24.3311 31.0953C24.735 30.654 25.0757 30.2618 25.3493 29.9207L23.7891 28.6694C23.5516 28.9655 23.2418 29.3233 22.8558 29.7449L24.3311 31.0953ZM25.3524 29.9168C25.6451 29.548 25.8867 29.1715 26.0536 28.7881L24.2198 27.9899C24.1411 28.1708 24.0043 28.3982 23.786 28.6733L25.3524 29.9168ZM26.0514 28.7932C26.2337 28.3805 26.3259 27.9441 26.3259 27.493H24.3259C24.3259 27.6657 24.2919 27.8267 24.222 27.9849L26.0514 28.7932ZM26.3259 27.493C26.3259 26.9676 26.197 26.46 25.9023 26.0122L24.2317 27.1119C24.2822 27.1885 24.3259 27.3014 24.3259 27.493H26.3259ZM25.9071 26.0197C25.6331 25.5952 25.257 25.2726 24.8051 25.0543L23.935 26.8551C24.0739 26.9222 24.1624 27.0046 24.2269 27.1044L25.9071 26.0197ZM24.8051 25.0543C24.3582 24.8384 23.8748 24.7406 23.3744 24.7406V26.7406C23.6108 26.7406 23.7912 26.7856 23.935 26.8551L24.8051 25.0543ZM23.3744 24.7406C22.8419 24.7406 22.327 24.8522 21.8625 25.1109L22.8354 26.8583C22.955 26.7917 23.1237 26.7406 23.3744 26.7406V24.7406ZM21.8659 25.109C21.4119 25.3595 21.0518 25.7196 20.8013 26.1735L22.5525 27.1397C22.6206 27.0162 22.7085 26.9283 22.832 26.8602L21.8659 25.109ZM20.7971 26.1813C20.5489 26.6407 20.4429 27.1483 20.4429 27.6722H22.4429C22.4429 27.4194 22.4929 27.2501 22.5567 27.1319L20.7971 26.1813ZM21.4429 26.6722H20.2681V28.6722H21.4429V26.6722ZM21.2681 27.6722C21.2681 27.2342 21.3671 26.8949 21.5349 26.62L19.8277 25.5781C19.4445 26.206 19.2681 26.9154 19.2681 27.6722H21.2681ZM21.5349 26.62C21.7154 26.3242 21.9565 26.0963 22.2756 25.9267L21.337 24.1607C20.7069 24.4955 20.1981 24.9712 19.8277 25.5781L21.5349 26.62ZM22.2731 25.9281C22.5932 25.7591 22.9664 25.6654 23.4143 25.6654V23.6654C22.674 23.6654 21.9752 23.8238 21.3396 24.1593L22.2731 25.9281ZM23.4143 25.6654C23.8671 25.6654 24.2274 25.7597 24.5226 25.9211L25.482 24.1663C24.8546 23.8232 24.1562 23.6654 23.4143 23.6654V25.6654ZM24.5226 25.9211C24.8382 26.0937 25.0681 26.3144 25.2347 26.5865L26.9403 25.542C26.5825 24.9578 26.089 24.4982 25.482 24.1663L24.5226 25.9211ZM25.2347 26.5865C25.3963 26.8502 25.4808 27.1443 25.4808 27.493H27.4808C27.4808 26.7929 27.3032 26.1345 26.9403 25.542L25.2347 26.5865ZM25.4808 27.493C25.4808 27.744 25.4358 27.9906 25.3418 28.2382L27.2116 28.948C27.3897 28.4788 27.4808 27.992 27.4808 27.493H25.4808ZM25.34 28.243C25.2527 28.4764 25.0798 28.7868 24.7827 29.179L26.3768 30.3868C26.7435 29.9028 27.0351 29.4201 27.2134 28.9433L25.34 28.243ZM24.782 29.18C24.4822 29.5766 24.0513 30.0798 23.4789 30.6944L24.9426 32.0574C25.5385 31.4175 26.0202 30.8587 26.3776 30.3858L24.782 29.18ZM23.4803 30.693L21.1904 33.1422L22.6513 34.5081L24.9412 32.0589L23.4803 30.693ZM20.9208 33.8252V33.9048H22.9208V33.8252H20.9208ZM21.9208 34.9048H26.66V32.9048H21.9208V34.9048ZM25.66 33.9048V35H27.66V33.9048H25.66ZM26.66 34H20.2282V36H26.66V34ZM34.7097 33.168L34.0026 33.8751L34.7097 34.5823L35.4168 33.8751L34.7097 33.168ZM29.0943 27.5527L28.3872 26.8456L27.6801 27.5527L28.3872 28.2598L29.0943 27.5527ZM29.851 26.796L30.5581 26.0889L29.851 25.3818L29.1439 26.0889L29.851 26.796ZM35.4664 32.4114L36.1735 33.1185L36.8806 32.4114L36.1735 31.7043L35.4664 32.4114ZM29.851 33.168L29.1439 33.8751L29.851 34.5823L30.5581 33.8751L29.851 33.168ZM29.0943 32.4114L28.3872 31.7043L27.6801 32.4114L28.3872 33.1185L29.0943 32.4114ZM34.7097 26.796L35.4168 26.0889L34.7097 25.3818L34.0026 26.0889L34.7097 26.796ZM35.4664 27.5527L36.1735 28.2598L36.8806 27.5527L36.1735 26.8456L35.4664 27.5527ZM35.4168 32.4609L29.8014 26.8456L28.3872 28.2598L34.0026 33.8751L35.4168 32.4609ZM29.8014 28.2598L30.5581 27.5031L29.1439 26.0889L28.3872 26.8456L29.8014 28.2598ZM29.1439 27.5031L34.7592 33.1185L36.1735 31.7043L30.5581 26.0889L29.1439 27.5031ZM34.7592 31.7043L34.0026 32.4609L35.4168 33.8751L36.1735 33.1185L34.7592 31.7043ZM30.5581 32.4609L29.8014 31.7043L28.3872 33.1185L29.1439 33.8751L30.5581 32.4609ZM29.8014 33.1185L35.4168 27.5031L34.0026 26.0889L28.3872 31.7043L29.8014 33.1185ZM34.0026 27.5031L34.7592 28.2598L36.1735 26.8456L35.4168 26.0889L34.0026 27.5031ZM34.7592 26.8456L29.1439 32.4609L30.5581 33.8751L36.1735 28.2598L34.7592 26.8456ZM39.6443 34.8009L39.2403 35.7157L39.2425 35.7166L39.6443 34.8009ZM38.4246 33.86L37.6199 34.4537L37.6254 34.4611L38.4246 33.86ZM37.9368 32.4512V31.4512H36.8858L36.938 32.5008L37.9368 32.4512ZM39.1913 32.4512L40.188 32.3706L40.1137 31.4512H39.1913V32.4512ZM39.5298 33.3025L38.7615 33.9427L38.766 33.9479L39.5298 33.3025ZM40.3113 33.85L39.9383 34.7779L39.9383 34.7779L40.3113 33.85ZM43.343 33.178L42.5266 32.6005L42.5266 32.6005L43.343 33.178ZM43.353 31.2415L42.5121 31.7828L42.515 31.7872L43.353 31.2415ZM42.5366 30.5645L42.1234 31.4751L42.1234 31.4751L42.5366 30.5645ZM40.4059 30.3205H39.4059V31.3205H40.4059V30.3205ZM40.4059 29.2253V28.2253H39.4059V29.2253H40.4059ZM42.2877 29.0063L41.86 28.1024L41.8562 28.1042L42.2877 29.0063ZM43.0095 28.389L42.1758 27.8367L42.171 27.844L43.0095 28.389ZM43.0443 26.5521L43.9028 26.0392L43.9028 26.0392L43.0443 26.5521ZM42.3972 25.9547L41.9372 26.8426L41.9415 26.8449L42.3972 25.9547ZM40.4258 25.9348L40.8041 26.8605L40.8091 26.8585L40.4258 25.9348ZM39.6692 26.4874L40.4426 27.1212L40.4469 27.116L39.6692 26.4874ZM39.3506 27.3536V28.3536H40.3027L40.3494 27.4025L39.3506 27.3536ZM38.1558 27.3536L37.1565 27.3163L37.1178 28.3536H38.1558V27.3536ZM38.6387 25.9497L39.4379 26.5508L39.4403 26.5476L38.6387 25.9497ZM39.8235 25.0039L39.406 24.0952L39.4036 24.0963L39.8235 25.0039ZM43.0642 25.0487L42.5716 25.9189L42.5764 25.9216L43.0642 25.0487ZM44.1047 26.0493L43.2412 26.5536L43.2412 26.5536L44.1047 26.0493ZM44.0151 28.8619L43.2135 28.264L43.2104 28.2683L44.0151 28.8619ZM42.7954 29.7033L42.5053 28.7463L41.7954 28.9615V29.7033H42.7954ZM42.7954 29.7829H41.7954V30.6315L42.6327 30.7696L42.7954 29.7829ZM44.3038 30.6043L43.5304 31.2382L43.5327 31.241L44.3038 30.6043ZM44.3934 33.7256L43.5681 33.1609L43.5672 33.1623L44.3934 33.7256ZM43.1688 34.761L43.6068 35.66L43.6068 35.66L43.1688 34.761ZM41.4015 34.1394C40.8595 34.1394 40.4141 34.0466 40.046 33.8851L39.2425 35.7166C39.9032 36.0065 40.6294 36.1394 41.4015 36.1394V34.1394ZM40.0482 33.8861C39.6756 33.7216 39.4119 33.5091 39.2238 33.2589L37.6254 34.4611C38.0413 35.0141 38.5907 35.4288 39.2403 35.7157L40.0482 33.8861ZM39.2293 33.2664C39.055 33.03 38.953 32.7525 38.9355 32.4016L36.938 32.5008C36.9737 33.2186 37.1969 33.8802 37.6199 34.4537L39.2293 33.2664ZM37.9368 33.4512H39.1913V31.4512H37.9368V33.4512ZM38.1945 32.5317C38.2366 33.0529 38.4222 33.5354 38.7615 33.9426L40.298 32.6623C40.2391 32.5916 40.199 32.5066 40.188 32.3706L38.1945 32.5317ZM38.766 33.9479C39.0829 34.323 39.4842 34.5953 39.9383 34.7779L40.6844 32.9222C40.4947 32.846 40.3749 32.7532 40.2936 32.657L38.766 33.9479ZM39.9383 34.7779C40.3931 34.9607 40.8786 35.0442 41.3816 35.0442V33.0442C41.1015 33.0442 40.8734 32.9982 40.6844 32.9222L39.9383 34.7779ZM41.3816 35.0442C41.9363 35.0442 42.4688 34.9473 42.9576 34.7268L42.1354 32.9036C41.9473 32.9885 41.7031 33.0442 41.3816 33.0442V35.0442ZM42.9576 34.7268C43.4396 34.5094 43.8526 34.1892 44.1594 33.7555L42.5266 32.6005C42.4484 32.7111 42.3305 32.8157 42.1354 32.9036L42.9576 34.7268ZM44.1594 33.7555C44.4805 33.3015 44.6318 32.781 44.6318 32.2322H42.6318C42.6318 32.4002 42.5905 32.5102 42.5266 32.6005L44.1594 33.7555ZM44.6318 32.2322C44.6318 31.6837 44.4931 31.1598 44.191 30.6958L42.515 31.7872C42.5845 31.894 42.6318 32.0305 42.6318 32.2322H44.6318ZM44.1938 30.7003C43.8893 30.2272 43.457 29.884 42.9497 29.6538L42.1234 31.4751C42.333 31.5702 42.4449 31.6784 42.5121 31.7827L44.1938 30.7003ZM42.9497 29.6538C42.4274 29.4168 41.8397 29.3205 41.2223 29.3205V31.3205C41.6404 31.3205 41.9288 31.3869 42.1234 31.4751L42.9497 29.6538ZM41.2223 29.3205H40.4059V31.3205H41.2223V29.3205ZM41.4059 30.3205V29.2253H39.4059V30.3205H41.4059ZM40.4059 30.2253H41.2223V28.2253H40.4059V30.2253ZM41.2223 30.2253C41.7476 30.2253 42.2552 30.1303 42.7191 29.9084L41.8562 28.1042C41.7095 28.1744 41.5069 28.2253 41.2223 28.2253V30.2253ZM42.7153 29.9102C43.1779 29.6914 43.5664 29.3671 43.8479 28.934L42.171 27.844C42.1074 27.942 42.0147 28.0292 41.86 28.1024L42.7153 29.9102ZM43.8431 28.9413C44.1408 28.492 44.2733 27.9825 44.2733 27.4531H42.2733C42.2733 27.6406 42.23 27.755 42.1758 27.8367L43.8431 28.9413ZM44.2733 27.4531C44.2733 26.9566 44.162 26.4731 43.9028 26.0392L42.1859 27.0649C42.232 27.1421 42.2733 27.2593 42.2733 27.4531H44.2733ZM43.9028 26.0392C43.6488 25.6141 43.2895 25.2881 42.8528 25.0646L41.9415 26.8449C42.0624 26.9067 42.1345 26.979 42.1859 27.0649L43.9028 26.0392ZM42.8572 25.0668C42.4128 24.8366 41.9235 24.7406 41.4215 24.7406V26.7406C41.6695 26.7406 41.8306 26.7874 41.9372 26.8426L42.8572 25.0668ZM41.4215 24.7406C40.9437 24.7406 40.4811 24.8292 40.0426 25.0111L40.8091 26.8585C40.9945 26.7815 41.1956 26.7406 41.4215 26.7406V24.7406ZM40.0476 25.0091C39.5942 25.1944 39.2006 25.4762 38.8914 25.8588L40.4469 27.116C40.5293 27.014 40.6402 26.9275 40.8041 26.8605L40.0476 25.0091ZM38.8957 25.8535C38.5507 26.2745 38.3778 26.7739 38.3518 27.3046L40.3494 27.4025C40.3565 27.2562 40.3959 27.1782 40.4426 27.1212L38.8957 25.8535ZM39.3506 26.3536H38.1558V28.3536H39.3506V26.3536ZM39.1551 27.3908C39.1679 27.0466 39.2666 26.7785 39.4379 26.5508L37.8395 25.3487C37.4067 25.9241 37.1835 26.5919 37.1565 27.3163L39.1551 27.3908ZM39.4403 26.5476C39.6364 26.2847 39.8965 26.0719 40.2433 25.9115L39.4036 24.0963C38.7747 24.3872 38.245 24.805 37.8371 25.3518L39.4403 26.5476ZM40.241 25.9126C40.5902 25.7521 40.9854 25.6654 41.4414 25.6654V23.6654C40.7225 23.6654 40.0392 23.8043 39.406 24.0952L40.241 25.9126ZM41.4414 25.6654C41.9363 25.6654 42.2997 25.765 42.5716 25.9189L43.5569 24.1785C42.9261 23.8213 42.2075 23.6654 41.4414 23.6654V25.6654ZM42.5764 25.9216C42.8842 26.0936 43.0958 26.3047 43.2412 26.5536L44.9682 25.545C44.629 24.9642 44.147 24.5082 43.5521 24.1757L42.5764 25.9216ZM43.2412 26.5536C43.3939 26.8151 43.4681 27.0891 43.4681 27.3934H45.4681C45.4681 26.7353 45.3 26.1131 44.9682 25.545L43.2412 26.5536ZM43.4681 27.3934C43.4681 27.7828 43.3694 28.055 43.2135 28.264L44.8166 29.4598C45.2647 28.8591 45.4681 28.1522 45.4681 27.3934H43.4681ZM43.2104 28.2683C43.0486 28.4876 42.8285 28.6483 42.5053 28.7463L43.0856 30.6602C43.7912 30.4463 44.3842 30.0461 44.8198 29.4556L43.2104 28.2683ZM41.7954 29.7033V29.7829H43.7954V29.7033H41.7954ZM42.6327 30.7696C43.0735 30.8423 43.3446 31.0115 43.5304 31.2382L45.0772 29.9704C44.5395 29.3143 43.805 28.9359 42.9582 28.7962L42.6327 30.7696ZM43.5327 31.241C43.7261 31.4752 43.8464 31.7832 43.8464 32.2322H45.8464C45.8464 31.3868 45.605 30.6095 45.0749 29.9676L43.5327 31.241ZM43.8464 32.2322C43.8464 32.5926 43.752 32.8921 43.5681 33.1609L45.2187 34.2903C45.6388 33.6763 45.8464 32.9802 45.8464 32.2322H43.8464ZM43.5672 33.1623C43.3749 33.4443 43.106 33.6793 42.7308 33.8621L43.6068 35.66C44.267 35.3384 44.8146 34.883 45.2196 34.2889L43.5672 33.1623ZM42.7308 33.8621C42.3683 34.0387 41.9325 34.1394 41.4015 34.1394V36.1394C42.1914 36.1394 42.9339 35.9879 43.6068 35.66L42.7308 33.8621Z" fill="#2F5764" mask="url(#path-7-outside-1_84_1247)"/>
<defs>
<linearGradient id="paint0_linear_84_1247" x1="3.72513" y1="32.3054" x2="33.5154" y2="49.1976" gradientUnits="userSpaceOnUse">
<stop stop-color="#4A4A4A"/>
<stop offset="1" stop-color="#303030"/>
</linearGradient>
</defs>
</svg>
