<svg width="64" height="64" viewBox="0 0 64 64" fill="none" xmlns="http://www.w3.org/2000/svg">
<path d="M4.4006 33.9298C3.80774 33.582 3.47546 33.1136 3.47547 32.6257L3.47547 30.5016C3.47547 29.9566 3.88975 29.439 4.60873 29.0857L30.1348 16.5442C31.3579 15.9433 33.1609 15.9544 34.3614 16.5703L60.0608 29.7535C60.7487 30.1064 61.1422 30.6122 61.1422 31.1434V32.5436C61.1422 33.0309 60.8108 33.4987 60.2194 33.8464L34.5631 48.9278C33.3018 49.6692 31.2326 49.6699 29.9699 48.9292L4.4006 33.9298Z" fill="url(#paint0_linear_84_2331)"/>
<rect width="34.7831" height="34.7831" rx="2.62954" transform="matrix(0.866044 -0.499967 0.866044 0.499967 2.14404 30.3906)" fill="white"/>
<rect width="10.8697" height="10.8697" transform="matrix(0.866044 -0.499967 0.866044 0.499967 12.2639 30.3906)" fill="#D9D9D9"/>
<rect width="10.8697" height="10.8697" transform="matrix(0.866044 -0.499967 0.866044 0.499967 22.8542 24.2769)" fill="#D9D9D9"/>
<rect width="10.8697" height="10.8697" transform="matrix(0.866044 -0.499967 0.866044 0.499967 22.8542 36.5044)" fill="#D9D9D9"/>
<rect width="10.8697" height="10.8697" transform="matrix(0.866044 -0.499967 0.866044 0.499967 33.4446 30.3906)" fill="#D9D9D9"/>
<mask id="path-7-outside-1_84_2331" maskUnits="userSpaceOnUse" x="19" y="23" width="27" height="14" fill="black">
<rect fill="white" x="19" y="23" width="27" height="14"/>
<path d="M23.7024 35.1394C23.2842 35.1328 22.866 35.0531 22.4479 34.9004C22.0297 34.7478 21.6481 34.4906 21.3029 34.1288C20.9578 33.7638 20.6806 33.2709 20.4716 32.6503C20.2625 32.0264 20.1579 31.2432 20.1579 30.3006C20.1579 29.3979 20.2426 28.5981 20.4118 27.9012C20.5811 27.2009 20.8267 26.6118 21.1486 26.1339C21.4705 25.6527 21.8588 25.2876 22.3135 25.0387C22.7715 24.7898 23.2875 24.6654 23.8617 24.6654C24.4325 24.6654 24.9403 24.7799 25.385 25.0089C25.833 25.2345 26.1981 25.5498 26.4802 25.9547C26.7623 26.3596 26.9448 26.8259 27.0278 27.3536H25.8131C25.7003 26.8956 25.4812 26.5156 25.156 26.2136C24.8308 25.9116 24.3993 25.7606 23.8617 25.7606C23.0718 25.7606 22.4495 26.1041 21.9949 26.791C21.5435 27.478 21.3162 28.4421 21.3129 29.6833H21.3925C21.5784 29.4012 21.7991 29.1606 22.0546 28.9615C22.3135 28.7591 22.5989 28.6031 22.9108 28.4936C23.2228 28.384 23.553 28.3293 23.9015 28.3293C24.4856 28.3293 25.0199 28.4753 25.5045 28.7674C25.989 29.0561 26.3773 29.456 26.6693 29.9671C26.9614 30.4749 27.1074 31.0573 27.1074 31.7144C27.1074 32.345 26.9664 32.9225 26.6843 33.4468C26.4022 33.9679 26.0056 34.3827 25.4945 34.6914C24.9867 34.9967 24.3894 35.146 23.7024 35.1394ZM23.7024 34.0442C24.1205 34.0442 24.4956 33.9397 24.8274 33.7306C25.1626 33.5215 25.4265 33.2411 25.619 32.8893C25.8148 32.5375 25.9127 32.1459 25.9127 31.7144C25.9127 31.2929 25.8181 30.9096 25.6289 30.5645C25.4431 30.216 25.1859 29.9389 24.8573 29.7331C24.5321 29.5274 24.1604 29.4245 23.7422 29.4245C23.4269 29.4245 23.1332 29.4875 22.8611 29.6136C22.5889 29.7364 22.35 29.9057 22.1442 30.1214C21.9418 30.3371 21.7825 30.5844 21.6663 30.8632C21.5502 31.1386 21.4921 31.429 21.4921 31.7343C21.4921 32.1392 21.5867 32.5176 21.7758 32.8694C21.9683 33.2211 22.2305 33.5049 22.5624 33.7206C22.8976 33.9363 23.2776 34.0442 23.7024 34.0442ZM35.0588 33.168L29.4434 27.5527L30.2001 26.796L35.8154 32.4114L35.0588 33.168ZM30.2001 33.168L29.4434 32.4114L35.0588 26.796L35.8154 27.5527L30.2001 33.168ZM38.3058 35V34.1039L41.671 30.4201C42.0659 29.9887 42.3912 29.6136 42.6467 29.295C42.9023 28.9731 43.0914 28.6711 43.2142 28.389C43.3403 28.1036 43.4034 27.8049 43.4034 27.493C43.4034 27.1345 43.3171 26.8242 43.1445 26.562C42.9753 26.2999 42.743 26.0974 42.4476 25.9547C42.1522 25.812 41.8203 25.7406 41.452 25.7406C41.0603 25.7406 40.7185 25.822 40.4265 25.9846C40.1377 26.1439 39.9137 26.3679 39.7544 26.6566C39.5984 26.9454 39.5204 27.2839 39.5204 27.6722H38.3456C38.3456 27.0748 38.4833 26.5504 38.7588 26.0991C39.0342 25.6477 39.4093 25.2959 39.8838 25.0437C40.3617 24.7915 40.8977 24.6654 41.4918 24.6654C42.0892 24.6654 42.6185 24.7915 43.0798 25.0437C43.5411 25.2959 43.9029 25.6361 44.165 26.0642C44.4272 26.4923 44.5583 26.9686 44.5583 27.493C44.5583 27.868 44.4903 28.2347 44.3542 28.5931C44.2215 28.9482 43.9891 29.3448 43.6573 29.7829C43.3287 30.2177 42.8724 30.7487 42.2883 31.3759L39.9983 33.8252V33.9048H44.7375V35H38.3058Z"/>
</mask>
<path d="M23.7024 35.1394C23.2842 35.1328 22.866 35.0531 22.4479 34.9004C22.0297 34.7478 21.6481 34.4906 21.3029 34.1288C20.9578 33.7638 20.6806 33.2709 20.4716 32.6503C20.2625 32.0264 20.1579 31.2432 20.1579 30.3006C20.1579 29.3979 20.2426 28.5981 20.4118 27.9012C20.5811 27.2009 20.8267 26.6118 21.1486 26.1339C21.4705 25.6527 21.8588 25.2876 22.3135 25.0387C22.7715 24.7898 23.2875 24.6654 23.8617 24.6654C24.4325 24.6654 24.9403 24.7799 25.385 25.0089C25.833 25.2345 26.1981 25.5498 26.4802 25.9547C26.7623 26.3596 26.9448 26.8259 27.0278 27.3536H25.8131C25.7003 26.8956 25.4812 26.5156 25.156 26.2136C24.8308 25.9116 24.3993 25.7606 23.8617 25.7606C23.0718 25.7606 22.4495 26.1041 21.9949 26.791C21.5435 27.478 21.3162 28.4421 21.3129 29.6833H21.3925C21.5784 29.4012 21.7991 29.1606 22.0546 28.9615C22.3135 28.7591 22.5989 28.6031 22.9108 28.4936C23.2228 28.384 23.553 28.3293 23.9015 28.3293C24.4856 28.3293 25.0199 28.4753 25.5045 28.7674C25.989 29.0561 26.3773 29.456 26.6693 29.9671C26.9614 30.4749 27.1074 31.0573 27.1074 31.7144C27.1074 32.345 26.9664 32.9225 26.6843 33.4468C26.4022 33.9679 26.0056 34.3827 25.4945 34.6914C24.9867 34.9967 24.3894 35.146 23.7024 35.1394ZM23.7024 34.0442C24.1205 34.0442 24.4956 33.9397 24.8274 33.7306C25.1626 33.5215 25.4265 33.2411 25.619 32.8893C25.8148 32.5375 25.9127 32.1459 25.9127 31.7144C25.9127 31.2929 25.8181 30.9096 25.6289 30.5645C25.4431 30.216 25.1859 29.9389 24.8573 29.7331C24.5321 29.5274 24.1604 29.4245 23.7422 29.4245C23.4269 29.4245 23.1332 29.4875 22.8611 29.6136C22.5889 29.7364 22.35 29.9057 22.1442 30.1214C21.9418 30.3371 21.7825 30.5844 21.6663 30.8632C21.5502 31.1386 21.4921 31.429 21.4921 31.7343C21.4921 32.1392 21.5867 32.5176 21.7758 32.8694C21.9683 33.2211 22.2305 33.5049 22.5624 33.7206C22.8976 33.9363 23.2776 34.0442 23.7024 34.0442ZM35.0588 33.168L29.4434 27.5527L30.2001 26.796L35.8154 32.4114L35.0588 33.168ZM30.2001 33.168L29.4434 32.4114L35.0588 26.796L35.8154 27.5527L30.2001 33.168ZM38.3058 35V34.1039L41.671 30.4201C42.0659 29.9887 42.3912 29.6136 42.6467 29.295C42.9023 28.9731 43.0914 28.6711 43.2142 28.389C43.3403 28.1036 43.4034 27.8049 43.4034 27.493C43.4034 27.1345 43.3171 26.8242 43.1445 26.562C42.9753 26.2999 42.743 26.0974 42.4476 25.9547C42.1522 25.812 41.8203 25.7406 41.452 25.7406C41.0603 25.7406 40.7185 25.822 40.4265 25.9846C40.1377 26.1439 39.9137 26.3679 39.7544 26.6566C39.5984 26.9454 39.5204 27.2839 39.5204 27.6722H38.3456C38.3456 27.0748 38.4833 26.5504 38.7588 26.0991C39.0342 25.6477 39.4093 25.2959 39.8838 25.0437C40.3617 24.7915 40.8977 24.6654 41.4918 24.6654C42.0892 24.6654 42.6185 24.7915 43.0798 25.0437C43.5411 25.2959 43.9029 25.6361 44.165 26.0642C44.4272 26.4923 44.5583 26.9686 44.5583 27.493C44.5583 27.868 44.4903 28.2347 44.3542 28.5931C44.2215 28.9482 43.9891 29.3448 43.6573 29.7829C43.3287 30.2177 42.8724 30.7487 42.2883 31.3759L39.9983 33.8252V33.9048H44.7375V35H38.3058Z" fill="#00C1FF"/>
<path d="M23.7024 35.1394L23.6865 36.1393L23.6927 36.1393L23.7024 35.1394ZM22.4479 34.9004L22.1049 35.8398L22.1049 35.8398L22.4479 34.9004ZM21.3029 34.1288L20.5762 34.8158L20.5794 34.8191L21.3029 34.1288ZM20.4716 32.6503L19.5234 32.9681L19.5239 32.9696L20.4716 32.6503ZM20.4118 27.9012L21.3836 28.1372L21.3838 28.1361L20.4118 27.9012ZM21.1486 26.1339L21.978 26.6926L21.9797 26.6899L21.1486 26.1339ZM22.3135 25.0387L21.836 24.1601L21.8333 24.1616L22.3135 25.0387ZM25.385 25.0089L24.9272 25.898L24.9351 25.902L25.385 25.0089ZM26.4802 25.9547L27.3007 25.3831L27.3007 25.3831L26.4802 25.9547ZM27.0278 27.3536V28.3536H28.1973L28.0156 27.1982L27.0278 27.3536ZM25.8131 27.3536L24.8421 27.5928L25.0296 28.3536H25.8131V27.3536ZM25.156 26.2136L24.4755 26.9464L24.4755 26.9464L25.156 26.2136ZM21.9949 26.791L21.161 26.2391L21.1591 26.2419L21.9949 26.791ZM21.3129 29.6833L20.3129 29.6807L20.3102 30.6833H21.3129V29.6833ZM21.3925 29.6833V30.6833H21.9312L22.2276 30.2335L21.3925 29.6833ZM22.0546 28.9615L22.6693 29.7503L22.6706 29.7492L22.0546 28.9615ZM22.9108 28.4936L22.5796 27.55L22.9108 28.4936ZM25.5045 28.7674L24.9882 29.6238L24.9926 29.6264L25.5045 28.7674ZM26.6693 29.9671L25.8011 30.4632L25.8025 30.4657L26.6693 29.9671ZM26.6843 33.4468L27.5637 33.9229L27.5649 33.9206L26.6843 33.4468ZM25.4945 34.6914L26.0098 35.5484L26.0114 35.5474L25.4945 34.6914ZM24.8274 33.7306L24.2982 32.8821L24.2944 32.8845L24.8274 33.7306ZM25.619 32.8893L24.7452 32.4029L24.7417 32.4093L25.619 32.8893ZM25.6289 30.5645L24.7465 31.0351L24.752 31.0451L25.6289 30.5645ZM24.8573 29.7331L24.3227 30.5782L24.3265 30.5806L24.8573 29.7331ZM22.8611 29.6136L23.2724 30.5252L23.2815 30.521L22.8611 29.6136ZM22.1442 30.1214L21.4206 29.4312L21.415 29.4371L22.1442 30.1214ZM21.6663 30.8632L22.5877 31.2517L22.5894 31.2478L21.6663 30.8632ZM21.7758 32.8694L20.8951 33.343L20.8986 33.3494L21.7758 32.8694ZM22.5624 33.7206L22.0174 34.5591L22.0212 34.5615L22.5624 33.7206ZM23.7182 34.1395C23.4187 34.1348 23.1109 34.0779 22.7908 33.9611L22.1049 35.8398C22.6212 36.0283 23.1497 36.1307 23.6865 36.1393L23.7182 34.1395ZM22.7908 33.9611C22.5339 33.8673 22.2787 33.7029 22.0264 33.4385L20.5794 34.8191C21.0174 35.2782 21.5256 35.6283 22.1049 35.8398L22.7908 33.9611ZM22.0296 33.4418C21.8092 33.2087 21.5955 32.8544 21.4192 32.331L19.5239 32.9696C19.7657 33.6874 20.1064 34.3188 20.5763 34.8158L22.0296 33.4418ZM21.4197 32.3326C21.2563 31.8449 21.1579 31.1778 21.1579 30.3006H19.1579C19.1579 31.3085 19.2686 32.2079 19.5234 32.9681L21.4197 32.3326ZM21.1579 30.3006C21.1579 29.458 21.2372 28.74 21.3836 28.1372L19.4401 27.6652C19.2479 28.4562 19.1579 29.3379 19.1579 30.3006H21.1579ZM21.3838 28.1361C21.5319 27.5236 21.7367 27.0507 21.978 26.6926L20.3192 25.5752C19.9166 26.1729 19.6303 26.8782 19.4398 27.6662L21.3838 28.1361ZM21.9797 26.6899C22.2228 26.3266 22.496 26.0789 22.7937 25.9159L21.8333 24.1616C21.2216 24.4964 20.7182 24.9788 20.3174 25.5779L21.9797 26.6899ZM22.791 25.9174C23.0879 25.756 23.437 25.6654 23.8617 25.6654V23.6654C23.138 23.6654 22.455 23.8237 21.836 24.1601L22.791 25.9174ZM23.8617 25.6654C24.2959 25.6654 24.6429 25.7515 24.9272 25.8979L25.8428 24.1198C25.2376 23.8082 24.5691 23.6654 23.8617 23.6654V25.6654ZM24.9351 25.902C25.2374 26.0542 25.4742 26.2601 25.6597 26.5264L27.3007 25.3831C26.922 24.8396 26.4286 24.4149 25.8348 24.1158L24.9351 25.902ZM25.6597 26.5264C25.8482 26.7969 25.9785 27.1183 26.0399 27.5089L28.0156 27.1982C27.9111 26.5335 27.6764 25.9223 27.3007 25.3831L25.6597 26.5264ZM27.0278 26.3536H25.8131V28.3536H27.0278V26.3536ZM26.7841 27.1143C26.6277 26.4795 26.3137 25.9239 25.8364 25.4808L24.4755 26.9464C24.6488 27.1072 24.7729 27.3117 24.8421 27.5928L26.7841 27.1143ZM25.8364 25.4808C25.2887 24.9722 24.5954 24.7606 23.8617 24.7606V26.7606C24.2032 26.7606 24.3728 26.8509 24.4755 26.9464L25.8364 25.4808ZM23.8617 24.7606C22.7193 24.7606 21.7913 25.2868 21.161 26.2391L22.8288 27.3429C23.1078 26.9214 23.4243 26.7606 23.8617 26.7606V24.7606ZM21.1591 26.2419C20.5597 27.1543 20.3165 28.3377 20.3129 29.6807L22.3129 29.686C22.3159 28.5465 22.5274 27.8017 22.8306 27.3401L21.1591 26.2419ZM21.3129 30.6833H21.3925V28.6833H21.3129V30.6833ZM22.2276 30.2335C22.356 30.0385 22.5033 29.8796 22.6693 29.7503L21.44 28.1727C21.0948 28.4417 20.8007 28.764 20.5574 29.1332L22.2276 30.2335ZM22.6706 29.7492C22.8432 29.6143 23.0323 29.5108 23.2421 29.4371L22.5796 27.55C22.1655 27.6954 21.7838 27.9038 21.4386 28.1738L22.6706 29.7492ZM23.2421 29.4371C23.442 29.3669 23.6597 29.3293 23.9015 29.3293V27.3293C23.4464 27.3293 23.0036 27.4012 22.5796 27.55L23.2421 29.4371ZM23.9015 29.3293C24.3099 29.3293 24.6647 29.4288 24.9882 29.6238L26.0207 27.9109C25.3751 27.5218 24.6613 27.3293 23.9015 27.3293V29.3293ZM24.9926 29.6264C25.3225 29.823 25.5907 30.095 25.8011 30.4632L27.5376 29.471C27.1639 28.817 26.6555 28.2892 26.0164 27.9083L24.9926 29.6264ZM25.8025 30.4657C25.9971 30.8039 26.1074 31.2105 26.1074 31.7144H28.1074C28.1074 30.9041 27.9257 30.1458 27.5362 29.4685L25.8025 30.4657ZM26.1074 31.7144C26.1074 32.1897 26.0027 32.6029 25.8036 32.9731L27.5649 33.9206C27.93 33.242 28.1074 32.5003 28.1074 31.7144H26.1074ZM25.8049 32.9707C25.6083 33.3338 25.3374 33.618 24.9776 33.8353L26.0114 35.5474C26.6738 35.1474 27.1961 34.6019 27.5637 33.9229L25.8049 32.9707ZM24.9792 33.8344C24.6537 34.0301 24.2442 34.1446 23.712 34.1394L23.6927 36.1393C24.5345 36.1475 25.3198 35.9633 26.0098 35.5484L24.9792 33.8344ZM23.7024 35.0442C24.2962 35.0442 24.8583 34.893 25.3605 34.5767L24.2944 32.8845C24.1328 32.9863 23.9449 33.0442 23.7024 33.0442V35.0442ZM25.3567 34.579C25.8399 34.2776 26.2226 33.8694 26.4962 33.3693L24.7417 32.4093C24.6303 32.6128 24.4854 32.7653 24.2982 32.8821L25.3567 34.579ZM26.4927 33.3756C26.7772 32.8645 26.9127 32.3035 26.9127 31.7144H24.9127C24.9127 31.9882 24.8523 32.2105 24.7452 32.4029L26.4927 33.3756ZM26.9127 31.7144C26.9127 31.1372 26.7815 30.5867 26.5058 30.0838L24.752 31.0451C24.8547 31.2325 24.9127 31.4487 24.9127 31.7144H26.9127ZM26.5113 30.0939C26.2448 29.5942 25.8676 29.1859 25.3881 28.8856L24.3265 30.5806C24.5041 30.6918 24.6413 30.8378 24.7466 31.0351L26.5113 30.0939ZM25.3919 28.888C24.8929 28.5723 24.3326 28.4245 23.7422 28.4245V30.4245C23.9881 30.4245 24.1712 30.4824 24.3227 30.5782L25.3919 28.888ZM23.7422 28.4245C23.2893 28.4245 22.8512 28.516 22.4406 28.7063L23.2815 30.521C23.4152 30.459 23.5645 30.4245 23.7422 30.4245V28.4245ZM22.4498 28.7021C22.0604 28.8778 21.7154 29.1222 21.4206 29.4312L22.8678 30.8116C22.9846 30.6892 23.1174 30.5951 23.2724 30.5252L22.4498 28.7021ZM21.415 29.4371C21.1288 29.7421 20.9045 30.0914 20.7432 30.4785L22.5894 31.2478C22.6604 31.0774 22.7548 30.9321 22.8734 30.8057L21.415 29.4371ZM20.7449 30.4746C20.5757 30.8757 20.4921 31.2985 20.4921 31.7343H22.4921C22.4921 31.5596 22.5246 31.4015 22.5877 31.2517L20.7449 30.4746ZM20.4921 31.7343C20.4921 32.3022 20.6265 32.8435 20.8951 33.343L22.6566 32.3957C22.5468 32.1916 22.4921 31.9763 22.4921 31.7343H20.4921ZM20.8986 33.3494C21.1694 33.8443 21.5449 34.252 22.0174 34.5591L23.1074 32.8822C22.9161 32.7578 22.7673 32.598 22.6531 32.3893L20.8986 33.3494ZM22.0212 34.5615C22.5285 34.888 23.0988 35.0442 23.7024 35.0442V33.0442C23.4563 33.0442 23.2666 32.9846 23.1036 32.8797L22.0212 34.5615ZM35.0588 33.168L34.3517 33.8751L35.0588 34.5823L35.7659 33.8751L35.0588 33.168ZM29.4434 27.5527L28.7363 26.8456L28.0292 27.5527L28.7363 28.2598L29.4434 27.5527ZM30.2001 26.796L30.9072 26.0889L30.2001 25.3818L29.493 26.0889L30.2001 26.796ZM35.8154 32.4114L36.5226 33.1185L37.2297 32.4114L36.5226 31.7043L35.8154 32.4114ZM30.2001 33.168L29.493 33.8751L30.2001 34.5823L30.9072 33.8751L30.2001 33.168ZM29.4434 32.4114L28.7363 31.7043L28.0292 32.4114L28.7363 33.1185L29.4434 32.4114ZM35.0588 26.796L35.7659 26.0889L35.0588 25.3818L34.3517 26.0889L35.0588 26.796ZM35.8154 27.5527L36.5226 28.2598L37.2297 27.5527L36.5226 26.8456L35.8154 27.5527ZM35.7659 32.4609L30.1505 26.8456L28.7363 28.2598L34.3517 33.8751L35.7659 32.4609ZM30.1505 28.2598L30.9072 27.5031L29.493 26.0889L28.7363 26.8456L30.1505 28.2598ZM29.493 27.5031L35.1083 33.1185L36.5226 31.7043L30.9072 26.0889L29.493 27.5031ZM35.1083 31.7043L34.3517 32.4609L35.7659 33.8751L36.5226 33.1185L35.1083 31.7043ZM30.9072 32.4609L30.1505 31.7043L28.7363 33.1185L29.493 33.8751L30.9072 32.4609ZM30.1505 33.1185L35.7659 27.5031L34.3517 26.0889L28.7363 31.7043L30.1505 33.1185ZM34.3517 27.5031L35.1083 28.2598L36.5226 26.8456L35.7659 26.0889L34.3517 27.5031ZM35.1083 26.8456L29.493 32.4609L30.9072 33.8751L36.5226 28.2598L35.1083 26.8456ZM38.3058 35H37.3058V36H38.3058V35ZM38.3058 34.1039L37.5675 33.4295L37.3058 33.7159V34.1039H38.3058ZM41.671 30.4201L40.9334 29.7449L40.9327 29.7456L41.671 30.4201ZM42.6467 29.295L43.4268 29.9207L43.4299 29.9168L42.6467 29.295ZM43.2142 28.389L42.2995 27.9849L42.2973 27.9899L43.2142 28.389ZM43.1445 26.562L42.3043 27.1044L42.3092 27.1119L43.1445 26.562ZM42.4476 25.9547L42.8826 25.0543L42.8826 25.0543L42.4476 25.9547ZM40.4265 25.9846L40.9095 26.8602L40.9129 26.8583L40.4265 25.9846ZM39.7544 26.6566L38.8788 26.1735L38.8746 26.1813L39.7544 26.6566ZM39.5204 27.6722V28.6722H40.5204V27.6722H39.5204ZM38.3456 27.6722H37.3456V28.6722H38.3456V27.6722ZM38.7588 26.0991L39.6124 26.62L39.6124 26.62L38.7588 26.0991ZM39.8838 25.0437L39.4171 24.1593L39.4145 24.1607L39.8838 25.0437ZM43.0798 25.0437L43.5595 24.1663L43.5595 24.1663L43.0798 25.0437ZM44.165 26.0642L43.3123 26.5865L44.165 26.0642ZM44.3542 28.5931L43.4193 28.2382L43.4175 28.243L44.3542 28.5931ZM43.6573 29.7829L42.8602 29.179L42.8595 29.18L43.6573 29.7829ZM42.2883 31.3759L43.0187 32.0589L43.0201 32.0574L42.2883 31.3759ZM39.9983 33.8252L39.2679 33.1422L38.9983 33.4305V33.8252H39.9983ZM39.9983 33.9048H38.9983V34.9048H39.9983V33.9048ZM44.7375 33.9048H45.7375V32.9048H44.7375V33.9048ZM44.7375 35V36H45.7375V35H44.7375ZM39.3058 35V34.1039H37.3058V35H39.3058ZM39.0441 34.7784L42.4093 31.0946L40.9327 29.7456L37.5675 33.4295L39.0441 34.7784ZM42.4086 31.0953C42.8125 30.654 43.1532 30.2618 43.4268 29.9207L41.8666 28.6694C41.6291 28.9655 41.3193 29.3233 40.9334 29.7449L42.4086 31.0953ZM43.4299 29.9168C43.7226 29.548 43.9642 29.1715 44.1311 28.7881L42.2973 27.9899C42.2186 28.1708 42.0819 28.3982 41.8635 28.6733L43.4299 29.9168ZM44.1289 28.7932C44.3113 28.3805 44.4034 27.9441 44.4034 27.493H42.4034C42.4034 27.6657 42.3694 27.8267 42.2995 27.9849L44.1289 28.7932ZM44.4034 27.493C44.4034 26.9676 44.2745 26.46 43.9798 26.0122L42.3092 27.1119C42.3597 27.1885 42.4034 27.3014 42.4034 27.493H44.4034ZM43.9847 26.0197C43.7106 25.5952 43.3345 25.2726 42.8826 25.0543L42.0125 26.8551C42.1514 26.9222 42.2399 27.0046 42.3044 27.1044L43.9847 26.0197ZM42.8826 25.0543C42.4357 24.8384 41.9523 24.7406 41.452 24.7406V26.7406C41.6883 26.7406 41.8687 26.7856 42.0126 26.8551L42.8826 25.0543ZM41.452 24.7406C40.9194 24.7406 40.4045 24.8522 39.94 25.1109L40.9129 26.8583C41.0325 26.7917 41.2012 26.7406 41.452 26.7406V24.7406ZM39.9434 25.109C39.4894 25.3595 39.1293 25.7196 38.8788 26.1735L40.63 27.1397C40.6981 27.0162 40.786 26.9283 40.9095 26.8602L39.9434 25.109ZM38.8746 26.1813C38.6264 26.6407 38.5204 27.1483 38.5204 27.6722H40.5204C40.5204 27.4194 40.5704 27.2501 40.6342 27.1319L38.8746 26.1813ZM39.5204 26.6722H38.3456V28.6722H39.5204V26.6722ZM39.3456 27.6722C39.3456 27.2342 39.4446 26.8949 39.6124 26.62L37.9052 25.5781C37.522 26.206 37.3456 26.9154 37.3456 27.6722H39.3456ZM39.6124 26.62C39.7929 26.3242 40.0341 26.0963 40.3531 25.9267L39.4145 24.1607C38.7845 24.4955 38.2756 24.9712 37.9052 25.5781L39.6124 26.62ZM40.3506 25.9281C40.6707 25.7591 41.0439 25.6654 41.4918 25.6654V23.6654C40.7515 23.6654 40.0527 23.8238 39.4171 24.1593L40.3506 25.9281ZM41.4918 25.6654C41.9446 25.6654 42.3049 25.7597 42.6001 25.9211L43.5595 24.1663C42.9321 23.8232 42.2337 23.6654 41.4918 23.6654V25.6654ZM42.6001 25.9211C42.9157 26.0937 43.1457 26.3144 43.3123 26.5865L45.0178 25.542C44.6601 24.9578 44.1665 24.4982 43.5595 24.1663L42.6001 25.9211ZM43.3123 26.5865C43.4738 26.8502 43.5583 27.1443 43.5583 27.493H45.5583C45.5583 26.7929 45.3807 26.1345 45.0178 25.542L43.3123 26.5865ZM43.5583 27.493C43.5583 27.744 43.5133 27.9906 43.4193 28.2382L45.2891 28.948C45.4672 28.4788 45.5583 27.992 45.5583 27.493H43.5583ZM43.4175 28.243C43.3303 28.4764 43.1573 28.7868 42.8602 29.179L44.4544 30.3868C44.821 29.9028 45.1127 29.4201 45.2909 28.9433L43.4175 28.243ZM42.8595 29.18C42.5597 29.5766 42.1288 30.0798 41.5565 30.6944L43.0201 32.0574C43.616 31.4175 44.0977 30.8587 44.4551 30.3858L42.8595 29.18ZM41.5578 30.693L39.2679 33.1422L40.7288 34.5081L43.0187 32.0589L41.5578 30.693ZM38.9983 33.8252V33.9048H40.9983V33.8252H38.9983ZM39.9983 34.9048H44.7375V32.9048H39.9983V34.9048ZM43.7375 33.9048V35H45.7375V33.9048H43.7375ZM44.7375 34H38.3058V36H44.7375V34Z" fill="#2F5764" mask="url(#path-7-outside-1_84_2331)"/>
<defs>
<linearGradient id="paint0_linear_84_2331" x1="3.72513" y1="32.3054" x2="33.5154" y2="49.1976" gradientUnits="userSpaceOnUse">
<stop stop-color="#4A4A4A"/>
<stop offset="1" stop-color="#303030"/>
</linearGradient>
</defs>
</svg>
