<svg width="64" height="64" viewBox="0 0 64 64" fill="none" xmlns="http://www.w3.org/2000/svg">
<path d="M4.4006 33.9298C3.80774 33.582 3.47546 33.1136 3.47547 32.6257L3.47547 30.5016C3.47547 29.9566 3.88975 29.439 4.60873 29.0857L30.1348 16.5442C31.3579 15.9433 33.1609 15.9544 34.3614 16.5703L60.0608 29.7535C60.7487 30.1064 61.1422 30.6122 61.1422 31.1434V32.5436C61.1422 33.0309 60.8108 33.4987 60.2194 33.8464L34.5631 48.9278C33.3018 49.6692 31.2326 49.6699 29.9699 48.9292L4.4006 33.9298Z" fill="url(#paint0_linear_84_2351)"/>
<rect width="34.7831" height="34.7831" rx="2.62954" transform="matrix(0.866044 -0.499967 0.866044 0.499967 2.14404 30.3906)" fill="white"/>
<rect width="10.8697" height="10.8697" transform="matrix(0.866044 -0.499967 0.866044 0.499967 12.2639 30.3906)" fill="#D9D9D9"/>
<rect width="10.8697" height="10.8697" transform="matrix(0.866044 -0.499967 0.866044 0.499967 22.8542 24.2769)" fill="#D9D9D9"/>
<rect width="10.8697" height="10.8697" transform="matrix(0.866044 -0.499967 0.866044 0.499967 22.8542 36.5044)" fill="#D9D9D9"/>
<rect width="10.8697" height="10.8697" transform="matrix(0.866044 -0.499967 0.866044 0.499967 33.4446 30.3906)" fill="#D9D9D9"/>
<mask id="path-7-outside-1_84_2351" maskUnits="userSpaceOnUse" x="19" y="23" width="28" height="14" fill="black">
<rect fill="white" x="19" y="23" width="28" height="14"/>
<path d="M23.5723 35.1394C23.1542 35.1328 22.736 35.0531 22.3178 34.9004C21.8997 34.7478 21.518 34.4906 21.1729 34.1288C20.8277 33.7638 20.5506 33.2709 20.3415 32.6503C20.1324 32.0264 20.0279 31.2432 20.0279 30.3006C20.0279 29.3979 20.1125 28.5981 20.2818 27.9012C20.451 27.2009 20.6966 26.6118 21.0185 26.1339C21.3404 25.6527 21.7287 25.2876 22.1834 25.0387C22.6414 24.7898 23.1575 24.6654 23.7316 24.6654C24.3024 24.6654 24.8102 24.7799 25.2549 25.0089C25.703 25.2345 26.068 25.5498 26.3501 25.9547C26.6322 26.3596 26.8147 26.8259 26.8977 27.3536H25.6831C25.5702 26.8956 25.3512 26.5156 25.0259 26.2136C24.7007 25.9116 24.2693 25.7606 23.7316 25.7606C22.9418 25.7606 22.3195 26.1041 21.8648 26.791C21.4135 27.478 21.1861 28.4421 21.1828 29.6833H21.2625C21.4483 29.4012 21.669 29.1606 21.9246 28.9615C22.1834 28.7591 22.4688 28.6031 22.7808 28.4936C23.0928 28.384 23.423 28.3293 23.7714 28.3293C24.3555 28.3293 24.8899 28.4753 25.3744 28.7674C25.8589 29.0561 26.2472 29.456 26.5393 29.9671C26.8313 30.4749 26.9774 31.0573 26.9774 31.7144C26.9774 32.345 26.8363 32.9225 26.5542 33.4468C26.2721 33.9679 25.8755 34.3827 25.3644 34.6914C24.8567 34.9967 24.2593 35.146 23.5723 35.1394ZM23.5723 34.0442C23.9905 34.0442 24.3655 33.9397 24.6974 33.7306C25.0326 33.5215 25.2964 33.2411 25.4889 32.8893C25.6847 32.5375 25.7826 32.1459 25.7826 31.7144C25.7826 31.2929 25.688 30.9096 25.4989 30.5645C25.313 30.216 25.0558 29.9389 24.7272 29.7331C24.402 29.5274 24.0303 29.4245 23.6121 29.4245C23.2969 29.4245 23.0031 29.4875 22.731 29.6136C22.4589 29.7364 22.2199 29.9057 22.0142 30.1214C21.8117 30.3371 21.6524 30.5844 21.5363 30.8632C21.4201 31.1386 21.362 31.429 21.362 31.7343C21.362 32.1392 21.4566 32.5176 21.6458 32.8694C21.8383 33.2211 22.1004 33.5049 22.4323 33.7206C22.7675 33.9363 23.1475 34.0442 23.5723 34.0442ZM34.9287 33.168L29.3134 27.5527L30.07 26.796L35.6854 32.4114L34.9287 33.168ZM30.07 33.168L29.3134 32.4114L34.9287 26.796L35.6854 27.5527L30.07 33.168ZM41.5608 35.1394C41.1427 35.1328 40.7245 35.0531 40.3064 34.9004C39.8882 34.7478 39.5065 34.4906 39.1614 34.1288C38.8162 33.7638 38.5391 33.2709 38.33 32.6503C38.1209 32.0264 38.0164 31.2432 38.0164 30.3006C38.0164 29.3979 38.101 28.5981 38.2703 27.9012C38.4396 27.2009 38.6851 26.6118 39.0071 26.1339C39.329 25.6527 39.7173 25.2876 40.1719 25.0387C40.6299 24.7898 41.146 24.6654 41.7201 24.6654C42.291 24.6654 42.7987 24.7799 43.2435 25.0089C43.6915 25.2345 44.0566 25.5498 44.3387 25.9547C44.6207 26.3596 44.8033 26.8259 44.8863 27.3536H43.6716C43.5587 26.8956 43.3397 26.5156 43.0145 26.2136C42.6892 25.9116 42.2578 25.7606 41.7201 25.7606C40.9303 25.7606 40.308 26.1041 39.8533 26.791C39.402 27.478 39.1747 28.4421 39.1713 29.6833H39.251C39.4368 29.4012 39.6575 29.1606 39.9131 28.9615C40.1719 28.7591 40.4574 28.6031 40.7693 28.4936C41.0813 28.384 41.4115 28.3293 41.76 28.3293C42.3441 28.3293 42.8784 28.4753 43.3629 28.7674C43.8475 29.0561 44.2358 29.456 44.5278 29.9671C44.8199 30.4749 44.9659 31.0573 44.9659 31.7144C44.9659 32.345 44.8249 32.9225 44.5428 33.4468C44.2607 33.9679 43.8641 34.3827 43.353 34.6914C42.8452 34.9967 42.2478 35.146 41.5608 35.1394ZM41.5608 34.0442C41.979 34.0442 42.354 33.9397 42.6859 33.7306C43.0211 33.5215 43.2849 33.2411 43.4774 32.8893C43.6732 32.5375 43.7711 32.1459 43.7711 31.7144C43.7711 31.2929 43.6766 30.9096 43.4874 30.5645C43.3015 30.216 43.0443 29.9389 42.7158 29.7331C42.3905 29.5274 42.0188 29.4245 41.6007 29.4245C41.2854 29.4245 40.9917 29.4875 40.7195 29.6136C40.4474 29.7364 40.2085 29.9057 40.0027 30.1214C39.8002 30.3371 39.6409 30.5844 39.5248 30.8632C39.4086 31.1386 39.3506 31.429 39.3506 31.7343C39.3506 32.1392 39.4451 32.5176 39.6343 32.8694C39.8268 33.2211 40.089 33.5049 40.4209 33.7206C40.756 33.9363 41.136 34.0442 41.5608 34.0442Z"/>
</mask>
<path d="M23.5723 35.1394C23.1542 35.1328 22.736 35.0531 22.3178 34.9004C21.8997 34.7478 21.518 34.4906 21.1729 34.1288C20.8277 33.7638 20.5506 33.2709 20.3415 32.6503C20.1324 32.0264 20.0279 31.2432 20.0279 30.3006C20.0279 29.3979 20.1125 28.5981 20.2818 27.9012C20.451 27.2009 20.6966 26.6118 21.0185 26.1339C21.3404 25.6527 21.7287 25.2876 22.1834 25.0387C22.6414 24.7898 23.1575 24.6654 23.7316 24.6654C24.3024 24.6654 24.8102 24.7799 25.2549 25.0089C25.703 25.2345 26.068 25.5498 26.3501 25.9547C26.6322 26.3596 26.8147 26.8259 26.8977 27.3536H25.6831C25.5702 26.8956 25.3512 26.5156 25.0259 26.2136C24.7007 25.9116 24.2693 25.7606 23.7316 25.7606C22.9418 25.7606 22.3195 26.1041 21.8648 26.791C21.4135 27.478 21.1861 28.4421 21.1828 29.6833H21.2625C21.4483 29.4012 21.669 29.1606 21.9246 28.9615C22.1834 28.7591 22.4688 28.6031 22.7808 28.4936C23.0928 28.384 23.423 28.3293 23.7714 28.3293C24.3555 28.3293 24.8899 28.4753 25.3744 28.7674C25.8589 29.0561 26.2472 29.456 26.5393 29.9671C26.8313 30.4749 26.9774 31.0573 26.9774 31.7144C26.9774 32.345 26.8363 32.9225 26.5542 33.4468C26.2721 33.9679 25.8755 34.3827 25.3644 34.6914C24.8567 34.9967 24.2593 35.146 23.5723 35.1394ZM23.5723 34.0442C23.9905 34.0442 24.3655 33.9397 24.6974 33.7306C25.0326 33.5215 25.2964 33.2411 25.4889 32.8893C25.6847 32.5375 25.7826 32.1459 25.7826 31.7144C25.7826 31.2929 25.688 30.9096 25.4989 30.5645C25.313 30.216 25.0558 29.9389 24.7272 29.7331C24.402 29.5274 24.0303 29.4245 23.6121 29.4245C23.2969 29.4245 23.0031 29.4875 22.731 29.6136C22.4589 29.7364 22.2199 29.9057 22.0142 30.1214C21.8117 30.3371 21.6524 30.5844 21.5363 30.8632C21.4201 31.1386 21.362 31.429 21.362 31.7343C21.362 32.1392 21.4566 32.5176 21.6458 32.8694C21.8383 33.2211 22.1004 33.5049 22.4323 33.7206C22.7675 33.9363 23.1475 34.0442 23.5723 34.0442ZM34.9287 33.168L29.3134 27.5527L30.07 26.796L35.6854 32.4114L34.9287 33.168ZM30.07 33.168L29.3134 32.4114L34.9287 26.796L35.6854 27.5527L30.07 33.168ZM41.5608 35.1394C41.1427 35.1328 40.7245 35.0531 40.3064 34.9004C39.8882 34.7478 39.5065 34.4906 39.1614 34.1288C38.8162 33.7638 38.5391 33.2709 38.33 32.6503C38.1209 32.0264 38.0164 31.2432 38.0164 30.3006C38.0164 29.3979 38.101 28.5981 38.2703 27.9012C38.4396 27.2009 38.6851 26.6118 39.0071 26.1339C39.329 25.6527 39.7173 25.2876 40.1719 25.0387C40.6299 24.7898 41.146 24.6654 41.7201 24.6654C42.291 24.6654 42.7987 24.7799 43.2435 25.0089C43.6915 25.2345 44.0566 25.5498 44.3387 25.9547C44.6207 26.3596 44.8033 26.8259 44.8863 27.3536H43.6716C43.5587 26.8956 43.3397 26.5156 43.0145 26.2136C42.6892 25.9116 42.2578 25.7606 41.7201 25.7606C40.9303 25.7606 40.308 26.1041 39.8533 26.791C39.402 27.478 39.1747 28.4421 39.1713 29.6833H39.251C39.4368 29.4012 39.6575 29.1606 39.9131 28.9615C40.1719 28.7591 40.4574 28.6031 40.7693 28.4936C41.0813 28.384 41.4115 28.3293 41.76 28.3293C42.3441 28.3293 42.8784 28.4753 43.3629 28.7674C43.8475 29.0561 44.2358 29.456 44.5278 29.9671C44.8199 30.4749 44.9659 31.0573 44.9659 31.7144C44.9659 32.345 44.8249 32.9225 44.5428 33.4468C44.2607 33.9679 43.8641 34.3827 43.353 34.6914C42.8452 34.9967 42.2478 35.146 41.5608 35.1394ZM41.5608 34.0442C41.979 34.0442 42.354 33.9397 42.6859 33.7306C43.0211 33.5215 43.2849 33.2411 43.4774 32.8893C43.6732 32.5375 43.7711 32.1459 43.7711 31.7144C43.7711 31.2929 43.6766 30.9096 43.4874 30.5645C43.3015 30.216 43.0443 29.9389 42.7158 29.7331C42.3905 29.5274 42.0188 29.4245 41.6007 29.4245C41.2854 29.4245 40.9917 29.4875 40.7195 29.6136C40.4474 29.7364 40.2085 29.9057 40.0027 30.1214C39.8002 30.3371 39.6409 30.5844 39.5248 30.8632C39.4086 31.1386 39.3506 31.429 39.3506 31.7343C39.3506 32.1392 39.4451 32.5176 39.6343 32.8694C39.8268 33.2211 40.089 33.5049 40.4209 33.7206C40.756 33.9363 41.136 34.0442 41.5608 34.0442Z" fill="#00C1FF"/>
<path d="M23.5723 35.1394L23.5564 36.1393L23.5627 36.1393L23.5723 35.1394ZM22.3178 34.9004L21.9749 35.8398L21.9749 35.8398L22.3178 34.9004ZM21.1729 34.1288L20.4462 34.8158L20.4493 34.8191L21.1729 34.1288ZM20.3415 32.6503L19.3933 32.9681L19.3938 32.9696L20.3415 32.6503ZM20.2818 27.9012L21.2535 28.1372L21.2538 28.1361L20.2818 27.9012ZM21.0185 26.1339L21.8479 26.6926L21.8497 26.6899L21.0185 26.1339ZM22.1834 25.0387L21.7059 24.1601L21.7032 24.1616L22.1834 25.0387ZM25.2549 25.0089L24.7971 25.898L24.8051 25.902L25.2549 25.0089ZM26.3501 25.9547L27.1706 25.3831L27.1706 25.3831L26.3501 25.9547ZM26.8977 27.3536V28.3536H28.0672L27.8856 27.1982L26.8977 27.3536ZM25.6831 27.3536L24.7121 27.5928L24.8995 28.3536H25.6831V27.3536ZM25.0259 26.2136L24.3455 26.9464L24.3455 26.9464L25.0259 26.2136ZM21.8648 26.791L21.0309 26.2391L21.0291 26.2419L21.8648 26.791ZM21.1828 29.6833L20.1828 29.6807L20.1801 30.6833H21.1828V29.6833ZM21.2625 29.6833V30.6833H21.8012L22.0975 30.2335L21.2625 29.6833ZM21.9246 28.9615L22.5392 29.7503L22.5406 29.7492L21.9246 28.9615ZM22.7808 28.4936L22.4495 27.55L22.7808 28.4936ZM25.3744 28.7674L24.8582 29.6238L24.8625 29.6264L25.3744 28.7674ZM26.5393 29.9671L25.671 30.4632L25.6724 30.4657L26.5393 29.9671ZM26.5542 33.4468L27.4336 33.9229L27.4349 33.9206L26.5542 33.4468ZM25.3644 34.6914L25.8798 35.5484L25.8814 35.5474L25.3644 34.6914ZM24.6974 33.7306L24.1681 32.8821L24.1643 32.8845L24.6974 33.7306ZM25.4889 32.8893L24.6151 32.4029L24.6116 32.4093L25.4889 32.8893ZM25.4989 30.5645L24.6164 31.0351L24.6219 31.0451L25.4989 30.5645ZM24.7272 29.7331L24.1926 30.5782L24.1965 30.5806L24.7272 29.7331ZM22.731 29.6136L23.1423 30.5252L23.1515 30.521L22.731 29.6136ZM22.0142 30.1214L21.2905 29.4312L21.285 29.4371L22.0142 30.1214ZM21.5363 30.8632L22.4577 31.2517L22.4593 31.2478L21.5363 30.8632ZM21.6458 32.8694L20.765 33.343L20.7685 33.3494L21.6458 32.8694ZM22.4323 33.7206L21.8873 34.5591L21.8911 34.5615L22.4323 33.7206ZM23.5882 34.1395C23.2887 34.1348 22.9808 34.0779 22.6608 33.9611L21.9749 35.8398C22.4911 36.0283 23.0196 36.1307 23.5564 36.1393L23.5882 34.1395ZM22.6608 33.9611C22.4038 33.8673 22.1486 33.7029 21.8964 33.4385L20.4493 34.8191C20.8874 35.2782 21.3955 35.6283 21.9749 35.8398L22.6608 33.9611ZM21.8995 33.4418C21.6791 33.2087 21.4655 32.8544 21.2892 32.331L19.3938 32.9696C19.6357 33.6874 19.9763 34.3188 20.4462 34.8158L21.8995 33.4418ZM21.2897 32.3326C21.1263 31.8449 21.0279 31.1778 21.0279 30.3006H19.0279C19.0279 31.3085 19.1386 32.2079 19.3933 32.9681L21.2897 32.3326ZM21.0279 30.3006C21.0279 29.458 21.1071 28.74 21.2535 28.1372L19.31 27.6652C19.1179 28.4562 19.0279 29.3379 19.0279 30.3006H21.0279ZM21.2538 28.1361C21.4018 27.5236 21.6067 27.0507 21.8479 26.6926L20.1891 25.5752C19.7865 26.1729 19.5002 26.8782 19.3098 27.6662L21.2538 28.1361ZM21.8497 26.6899C22.0928 26.3266 22.3659 26.0789 22.6636 25.9159L21.7032 24.1616C21.0916 24.4964 20.5881 24.9788 20.1874 25.5779L21.8497 26.6899ZM22.6609 25.9174C22.9579 25.756 23.307 25.6654 23.7316 25.6654V23.6654C23.008 23.6654 22.3249 23.8237 21.7059 24.1601L22.6609 25.9174ZM23.7316 25.6654C24.1658 25.6654 24.5129 25.7515 24.7971 25.8979L25.7127 24.1198C25.1076 23.8082 24.4391 23.6654 23.7316 23.6654V25.6654ZM24.8051 25.902C25.1074 26.0542 25.3441 26.2601 25.5296 26.5264L27.1706 25.3831C26.792 24.8396 26.2986 24.4149 25.7048 24.1158L24.8051 25.902ZM25.5296 26.5264C25.7181 26.7969 25.8484 27.1183 25.9099 27.5089L27.8856 27.1982C27.7811 26.5335 27.5463 25.9223 27.1706 25.3831L25.5296 26.5264ZM26.8977 26.3536H25.6831V28.3536H26.8977V26.3536ZM26.654 27.1143C26.4976 26.4795 26.1836 25.9239 25.7064 25.4808L24.3455 26.9464C24.5187 27.1072 24.6428 27.3117 24.7121 27.5928L26.654 27.1143ZM25.7064 25.4808C25.1587 24.9722 24.4654 24.7606 23.7316 24.7606V26.7606C24.0731 26.7606 24.2427 26.8509 24.3455 26.9464L25.7064 25.4808ZM23.7316 24.7606C22.5893 24.7606 21.6612 25.2868 21.0309 26.2391L22.6987 27.3429C22.9777 26.9214 23.2942 26.7606 23.7316 26.7606V24.7606ZM21.0291 26.2419C20.4296 27.1543 20.1864 28.3377 20.1828 29.6807L22.1828 29.686C22.1858 28.5465 22.3973 27.8017 22.7006 27.3401L21.0291 26.2419ZM21.1828 30.6833H21.2625V28.6833H21.1828V30.6833ZM22.0975 30.2335C22.226 30.0385 22.3733 29.8796 22.5392 29.7503L21.3099 28.1727C20.9647 28.4417 20.6706 28.764 20.4274 29.1332L22.0975 30.2335ZM22.5406 29.7492C22.7131 29.6143 22.9022 29.5108 23.112 29.4371L22.4495 27.55C22.0354 27.6954 21.6537 27.9038 21.3085 28.1738L22.5406 29.7492ZM23.112 29.4371C23.3119 29.3669 23.5296 29.3293 23.7714 29.3293V27.3293C23.3163 27.3293 22.8736 27.4012 22.4495 27.55L23.112 29.4371ZM23.7714 29.3293C24.1798 29.3293 24.5347 29.4288 24.8582 29.6238L25.8906 27.9109C25.2451 27.5218 24.5313 27.3293 23.7714 27.3293V29.3293ZM24.8625 29.6264C25.1924 29.823 25.4606 30.095 25.671 30.4632L27.4075 29.471C27.0338 28.817 26.5255 28.2892 25.8863 27.9083L24.8625 29.6264ZM25.6724 30.4657C25.867 30.8039 25.9774 31.2105 25.9774 31.7144H27.9774C27.9774 30.9041 27.7957 30.1458 27.4061 29.4685L25.6724 30.4657ZM25.9774 31.7144C25.9774 32.1897 25.8727 32.6029 25.6736 32.9731L27.4349 33.9206C27.8 33.242 27.9774 32.5003 27.9774 31.7144H25.9774ZM25.6748 32.9707C25.4782 33.3338 25.2073 33.618 24.8475 33.8353L25.8814 35.5474C26.5438 35.1474 27.066 34.6019 27.4336 33.9229L25.6748 32.9707ZM24.8491 33.8344C24.5237 34.0301 24.1141 34.1446 23.582 34.1394L23.5627 36.1393C24.4045 36.1475 25.1897 35.9633 25.8798 35.5484L24.8491 33.8344ZM23.5723 35.0442C24.1661 35.0442 24.7283 34.893 25.2304 34.5767L24.1643 32.8845C24.0027 32.9863 23.8149 33.0442 23.5723 33.0442V35.0442ZM25.2266 34.579C25.7098 34.2776 26.0925 33.8694 26.3662 33.3693L24.6116 32.4093C24.5003 32.6128 24.3553 32.7653 24.1681 32.8821L25.2266 34.579ZM26.3627 33.3756C26.6472 32.8645 26.7826 32.3035 26.7826 31.7144H24.7826C24.7826 31.9882 24.7223 32.2105 24.6151 32.4029L26.3627 33.3756ZM26.7826 31.7144C26.7826 31.1372 26.6514 30.5867 26.3758 30.0838L24.6219 31.0451C24.7247 31.2325 24.7826 31.4487 24.7826 31.7144H26.7826ZM26.3812 30.0939C26.1147 29.5942 25.7376 29.1859 25.258 28.8856L24.1965 30.5806C24.374 30.6918 24.5113 30.8378 24.6165 31.0351L26.3812 30.0939ZM25.2619 28.888C24.7629 28.5723 24.2026 28.4245 23.6121 28.4245V30.4245C23.858 30.4245 24.0411 30.4824 24.1926 30.5782L25.2619 28.888ZM23.6121 28.4245C23.1592 28.4245 22.7212 28.516 22.3105 28.7063L23.1515 30.521C23.2851 30.459 23.4345 30.4245 23.6121 30.4245V28.4245ZM22.3197 28.7021C21.9304 28.8778 21.5853 29.1222 21.2905 29.4312L22.7378 30.8116C22.8545 30.6892 22.9874 30.5951 23.1423 30.5252L22.3197 28.7021ZM21.285 29.4371C20.9987 29.7421 20.7745 30.0914 20.6132 30.4785L22.4593 31.2478C22.5303 31.0774 22.6247 30.9321 22.7433 30.8057L21.285 29.4371ZM20.6148 30.4746C20.4457 30.8757 20.362 31.2985 20.362 31.7343H22.362C22.362 31.5596 22.3945 31.4015 22.4577 31.2517L20.6148 30.4746ZM20.362 31.7343C20.362 32.3022 20.4965 32.8435 20.765 33.343L22.5265 32.3957C22.4167 32.1916 22.362 31.9763 22.362 31.7343H20.362ZM20.7685 33.3494C21.0393 33.8443 21.4149 34.252 21.8873 34.5591L22.9773 32.8822C22.786 32.7578 22.6372 32.598 22.523 32.3893L20.7685 33.3494ZM21.8911 34.5615C22.3985 34.888 22.9688 35.0442 23.5723 35.0442V33.0442C23.3262 33.0442 23.1366 32.9846 22.9735 32.8797L21.8911 34.5615ZM34.9287 33.168L34.2216 33.8751L34.9287 34.5823L35.6358 33.8751L34.9287 33.168ZM29.3134 27.5527L28.6063 26.8456L27.8992 27.5527L28.6063 28.2598L29.3134 27.5527ZM30.07 26.796L30.7771 26.0889L30.07 25.3818L29.3629 26.0889L30.07 26.796ZM35.6854 32.4114L36.3925 33.1185L37.0996 32.4114L36.3925 31.7043L35.6854 32.4114ZM30.07 33.168L29.3629 33.8751L30.07 34.5823L30.7771 33.8751L30.07 33.168ZM29.3134 32.4114L28.6063 31.7043L27.8992 32.4114L28.6063 33.1185L29.3134 32.4114ZM34.9287 26.796L35.6358 26.0889L34.9287 25.3818L34.2216 26.0889L34.9287 26.796ZM35.6854 27.5527L36.3925 28.2598L37.0996 27.5527L36.3925 26.8456L35.6854 27.5527ZM35.6358 32.4609L30.0205 26.8456L28.6063 28.2598L34.2216 33.8751L35.6358 32.4609ZM30.0205 28.2598L30.7771 27.5031L29.3629 26.0889L28.6063 26.8456L30.0205 28.2598ZM29.3629 27.5031L34.9783 33.1185L36.3925 31.7043L30.7771 26.0889L29.3629 27.5031ZM34.9783 31.7043L34.2216 32.4609L35.6358 33.8751L36.3925 33.1185L34.9783 31.7043ZM30.7771 32.4609L30.0205 31.7043L28.6063 33.1185L29.3629 33.8751L30.7771 32.4609ZM30.0205 33.1185L35.6358 27.5031L34.2216 26.0889L28.6063 31.7043L30.0205 33.1185ZM34.2216 27.5031L34.9783 28.2598L36.3925 26.8456L35.6358 26.0889L34.2216 27.5031ZM34.9783 26.8456L29.3629 32.4609L30.7771 33.8751L36.3925 28.2598L34.9783 26.8456ZM41.5608 35.1394L41.545 36.1393L41.5512 36.1393L41.5608 35.1394ZM40.3064 34.9004L39.9634 35.8398L39.9634 35.8398L40.3064 34.9004ZM39.1614 34.1288L38.4347 34.8158L38.4379 34.8191L39.1614 34.1288ZM38.33 32.6503L37.3819 32.9681L37.3824 32.9696L38.33 32.6503ZM38.2703 27.9012L39.242 28.1372L39.2423 28.1361L38.2703 27.9012ZM39.0071 26.1339L39.8364 26.6926L39.8382 26.6899L39.0071 26.1339ZM40.1719 25.0387L39.6944 24.1601L39.6917 24.1616L40.1719 25.0387ZM43.2435 25.0089L42.7856 25.898L42.7936 25.902L43.2435 25.0089ZM44.3387 25.9547L45.1591 25.3831L45.1591 25.3831L44.3387 25.9547ZM44.8863 27.3536V28.3536H46.0558L45.8741 27.1982L44.8863 27.3536ZM43.6716 27.3536L42.7006 27.5928L42.8881 28.3536H43.6716V27.3536ZM43.0145 26.2136L42.334 26.9464L42.334 26.9464L43.0145 26.2136ZM39.8533 26.791L39.0194 26.2391L39.0176 26.2419L39.8533 26.791ZM39.1713 29.6833L38.1713 29.6807L38.1687 30.6833H39.1713V29.6833ZM39.251 29.6833V30.6833H39.7897L40.086 30.2335L39.251 29.6833ZM39.9131 28.9615L40.5277 29.7503L40.5291 29.7492L39.9131 28.9615ZM40.7693 28.4936L40.4381 27.55L40.7693 28.4936ZM43.3629 28.7674L42.8467 29.6238L42.851 29.6264L43.3629 28.7674ZM44.5278 29.9671L43.6596 30.4632L43.661 30.4657L44.5278 29.9671ZM44.5428 33.4468L45.4222 33.9229L45.4234 33.9206L44.5428 33.4468ZM43.353 34.6914L43.8683 35.5484L43.8699 35.5474L43.353 34.6914ZM42.6859 33.7306L42.1567 32.8821L42.1529 32.8845L42.6859 33.7306ZM43.4774 32.8893L42.6036 32.4029L42.6002 32.4093L43.4774 32.8893ZM43.4874 30.5645L42.605 31.0351L42.6105 31.0451L43.4874 30.5645ZM42.7158 29.7331L42.1811 30.5782L42.185 30.5806L42.7158 29.7331ZM40.7195 29.6136L41.1309 30.5252L41.14 30.521L40.7195 29.6136ZM40.0027 30.1214L39.2791 29.4312L39.2735 29.4371L40.0027 30.1214ZM39.5248 30.8632L40.4462 31.2517L40.4479 31.2478L39.5248 30.8632ZM39.6343 32.8694L38.7535 33.343L38.757 33.3494L39.6343 32.8694ZM40.4209 33.7206L39.8759 34.5591L39.8797 34.5615L40.4209 33.7206ZM41.5767 34.1395C41.2772 34.1348 40.9694 34.0779 40.6493 33.9611L39.9634 35.8398C40.4797 36.0283 41.0082 36.1307 41.545 36.1393L41.5767 34.1395ZM40.6493 33.9611C40.3923 33.8673 40.1372 33.7029 39.8849 33.4385L38.4379 34.8191C38.8759 35.2782 39.384 35.6283 39.9634 35.8398L40.6493 33.9611ZM39.888 33.4418C39.6676 33.2087 39.454 32.8544 39.2777 32.331L37.3824 32.9696C37.6242 33.6874 37.9648 34.3188 38.4347 34.8158L39.888 33.4418ZM39.2782 32.3326C39.1148 31.8449 39.0164 31.1778 39.0164 30.3006H37.0164C37.0164 31.3085 37.1271 32.2079 37.3819 32.9681L39.2782 32.3326ZM39.0164 30.3006C39.0164 29.458 39.0956 28.74 39.242 28.1372L37.2985 27.6652C37.1064 28.4562 37.0164 29.3379 37.0164 30.3006H39.0164ZM39.2423 28.1361C39.3903 27.5236 39.5952 27.0507 39.8364 26.6926L38.1777 25.5752C37.7751 26.1729 37.4888 26.8782 37.2983 27.6662L39.2423 28.1361ZM39.8382 26.6899C40.0813 26.3266 40.3544 26.0789 40.6521 25.9159L39.6917 24.1616C39.0801 24.4964 38.5767 24.9788 38.1759 25.5779L39.8382 26.6899ZM40.6495 25.9174C40.9464 25.756 41.2955 25.6654 41.7201 25.6654V23.6654C40.9965 23.6654 40.3135 23.8237 39.6944 24.1601L40.6495 25.9174ZM41.7201 25.6654C42.1544 25.6654 42.5014 25.7515 42.7857 25.8979L43.7013 24.1198C43.0961 23.8082 42.4276 23.6654 41.7201 23.6654V25.6654ZM42.7936 25.902C43.0959 26.0542 43.3326 26.2601 43.5182 26.5264L45.1591 25.3831C44.7805 24.8396 44.2871 24.4149 43.6933 24.1158L42.7936 25.902ZM43.5182 26.5264C43.7067 26.7969 43.837 27.1183 43.8984 27.5089L45.8741 27.1982C45.7696 26.5335 45.5348 25.9223 45.1591 25.3831L43.5182 26.5264ZM44.8863 26.3536H43.6716V28.3536H44.8863V26.3536ZM44.6425 27.1143C44.4861 26.4795 44.1722 25.9239 43.6949 25.4808L42.334 26.9464C42.5072 27.1072 42.6314 27.3117 42.7006 27.5928L44.6425 27.1143ZM43.6949 25.4808C43.1472 24.9722 42.4539 24.7606 41.7201 24.7606V26.7606C42.0617 26.7606 42.2312 26.8509 42.334 26.9464L43.6949 25.4808ZM41.7201 24.7606C40.5778 24.7606 39.6498 25.2868 39.0194 26.2391L40.6872 27.3429C40.9663 26.9214 41.2828 26.7606 41.7201 26.7606V24.7606ZM39.0176 26.2419C38.4181 27.1543 38.1749 28.3377 38.1713 29.6807L40.1713 29.686C40.1744 28.5465 40.3858 27.8017 40.6891 27.3401L39.0176 26.2419ZM39.1713 30.6833H39.251V28.6833H39.1713V30.6833ZM40.086 30.2335C40.2145 30.0385 40.3618 29.8796 40.5277 29.7503L39.2984 28.1727C38.9533 28.4417 38.6592 28.764 38.4159 29.1332L40.086 30.2335ZM40.5291 29.7492C40.7016 29.6143 40.8907 29.5108 41.1006 29.4371L40.4381 27.55C40.024 27.6954 39.6423 27.9038 39.297 28.1738L40.5291 29.7492ZM41.1006 29.4371C41.3005 29.3669 41.5182 29.3293 41.76 29.3293V27.3293C41.3048 27.3293 40.8621 27.4012 40.4381 27.55L41.1006 29.4371ZM41.76 29.3293C42.1683 29.3293 42.5232 29.4288 42.8467 29.6238L43.8792 27.9109C43.2336 27.5218 42.5198 27.3293 41.76 27.3293V29.3293ZM42.851 29.6264C43.1809 29.823 43.4492 30.095 43.6596 30.4632L45.3961 29.471C45.0224 28.817 44.514 28.2892 43.8748 27.9083L42.851 29.6264ZM43.661 30.4657C43.8555 30.8039 43.9659 31.2105 43.9659 31.7144H45.9659C45.9659 30.9041 45.7842 30.1458 45.3947 29.4685L43.661 30.4657ZM43.9659 31.7144C43.9659 32.1897 43.8612 32.6029 43.6621 32.9731L45.4234 33.9206C45.7885 33.242 45.9659 32.5003 45.9659 31.7144H43.9659ZM43.6634 32.9707C43.4668 33.3338 43.1959 33.618 42.836 33.8353L43.8699 35.5474C44.5323 35.1474 45.0546 34.6019 45.4221 33.9229L43.6634 32.9707ZM42.8377 33.8344C42.5122 34.0301 42.1026 34.1446 41.5705 34.1394L41.5512 36.1393C42.393 36.1475 43.1782 35.9633 43.8683 35.5484L42.8377 33.8344ZM41.5608 35.0442C42.1546 35.0442 42.7168 34.893 43.2189 34.5767L42.1529 32.8845C41.9913 32.9863 41.8034 33.0442 41.5608 33.0442V35.0442ZM43.2152 34.579C43.6984 34.2776 44.0811 33.8694 44.3547 33.3693L42.6002 32.4093C42.4888 32.6128 42.3439 32.7653 42.1567 32.8821L43.2152 34.579ZM44.3512 33.3756C44.6357 32.8645 44.7711 32.3035 44.7711 31.7144H42.7711C42.7711 31.9882 42.7108 32.2105 42.6037 32.4029L44.3512 33.3756ZM44.7711 31.7144C44.7711 31.1372 44.6399 30.5867 44.3643 30.0838L42.6105 31.0451C42.7132 31.2325 42.7711 31.4487 42.7711 31.7144H44.7711ZM44.3697 30.0939C44.1033 29.5942 43.7261 29.1859 43.2465 28.8856L42.185 30.5806C42.3626 30.6918 42.4998 30.8378 42.605 31.0351L44.3697 30.0939ZM43.2504 28.888C42.7514 28.5723 42.1911 28.4245 41.6007 28.4245V30.4245C41.8466 30.4245 42.0297 30.4824 42.1811 30.5782L43.2504 28.888ZM41.6007 28.4245C41.1478 28.4245 40.7097 28.516 40.2991 28.7063L41.14 30.521C41.2737 30.459 41.423 30.4245 41.6007 30.4245V28.4245ZM40.3083 28.7021C39.9189 28.8778 39.5739 29.1222 39.2791 29.4312L40.7263 30.8116C40.843 30.6892 40.9759 30.5951 41.1308 30.5252L40.3083 28.7021ZM39.2735 29.4371C38.9872 29.7421 38.763 30.0914 38.6017 30.4785L40.4479 31.2478C40.5189 31.0774 40.6132 30.9321 40.7319 30.8057L39.2735 29.4371ZM38.6034 30.4746C38.4342 30.8757 38.3506 31.2985 38.3506 31.7343H40.3506C40.3506 31.5596 40.383 31.4015 40.4462 31.2517L38.6034 30.4746ZM38.3506 31.7343C38.3506 32.3022 38.485 32.8435 38.7536 33.343L40.515 32.3957C40.4053 32.1916 40.3506 31.9763 40.3506 31.7343H38.3506ZM38.757 33.3494C39.0279 33.8443 39.4034 34.252 39.8759 34.5591L40.9658 32.8822C40.7745 32.7578 40.6257 32.598 40.5116 32.3893L38.757 33.3494ZM39.8797 34.5615C40.387 34.888 40.9573 35.0442 41.5608 35.0442V33.0442C41.3148 33.0442 41.1251 32.9846 40.962 32.8797L39.8797 34.5615Z" fill="#2F5764" mask="url(#path-7-outside-1_84_2351)"/>
<defs>
<linearGradient id="paint0_linear_84_2351" x1="3.72513" y1="32.3054" x2="33.5154" y2="49.1976" gradientUnits="userSpaceOnUse">
<stop stop-color="#4A4A4A"/>
<stop offset="1" stop-color="#303030"/>
</linearGradient>
</defs>
</svg>
