<svg width="64" height="64" viewBox="0 0 64 64" fill="none" xmlns="http://www.w3.org/2000/svg">
<rect width="35.8551" height="35.8551" rx="4.37833" transform="matrix(0.866025 0.5 -0.866025 0.5 31.8887 19)" fill="url(#paint0_linear_2025_1024)"/>
<rect width="26.8913" height="4.48189" transform="matrix(0.866025 0.5 0 1 4.71851 39.1685)" fill="url(#paint1_linear_2025_1024)"/>
<rect width="26.8913" height="4.48189" transform="matrix(0.866025 -0.5 0 1 35.7698 52.6143)" fill="url(#paint2_linear_2025_1024)"/>
<path d="M3.11084 36.9277C3.11084 37.8029 3.72524 38.5952 4.71858 39.1687V43.6506C3.72524 43.0771 3.11084 42.2848 3.11084 41.4096V36.9277Z" fill="url(#paint3_linear_2025_1024)"/>
<path d="M28.0071 52.6143C30.1507 53.8519 33.6263 53.8519 35.7699 52.6143V57.0961C33.6263 58.3338 30.1507 58.3338 28.0071 57.0961V52.6143Z" fill="url(#paint4_linear_2025_1024)"/>
<path d="M60.6663 36.9277C60.6663 37.8029 60.0519 38.5952 59.0586 39.1687V43.6506C60.0519 43.0771 60.6663 42.2848 60.6663 41.4096V36.9277Z" fill="url(#paint5_linear_2025_1024)"/>
<g clip-path="url(#clip0_2025_1024)">
<rect width="35.8992" height="35.8992" rx="4.44179" transform="matrix(0.866025 0.5 -0.866025 0.5 31.9104 19)" fill="url(#paint6_linear_2025_1024)"/>
<rect width="11.5594" height="11.5594" transform="matrix(0.866025 0.5 -0.866025 0.5 31.9104 19)" fill="black" fill-opacity="0.1"/>
<rect width="11.5594" height="11.5594" transform="matrix(0.866025 0.5 -0.866025 0.5 21.3711 25.085)" fill="black" fill-opacity="0.1"/>
<rect width="11.5594" height="11.5594" transform="matrix(0.866025 0.5 -0.866025 0.5 21.3711 37.2549)" fill="black" fill-opacity="0.1"/>
<rect width="11.5594" height="11.5594" transform="matrix(0.866025 0.5 -0.866025 0.5 42.45 25.085)" fill="black" fill-opacity="0.1"/>
<rect width="11.5594" height="11.5594" transform="matrix(0.866025 0.5 -0.866025 0.5 42.45 37.2549)" fill="black" fill-opacity="0.1"/>
<rect width="11.5594" height="11.5594" transform="matrix(0.866025 0.5 -0.866025 0.5 52.9893 31.1699)" fill="black" fill-opacity="0.1"/>
<rect width="11.5594" height="11.5594" transform="matrix(0.866025 0.5 -0.866025 0.5 10.8315 31.1699)" fill="black" fill-opacity="0.1"/>
<rect width="11.5594" height="11.5594" transform="matrix(0.866025 0.5 -0.866025 0.5 31.9104 43.3398)" fill="black" fill-opacity="0.1"/>
<rect width="11.5594" height="11.5594" transform="matrix(0.866025 0.5 -0.866025 0.5 31.9104 31.1699)" fill="black" fill-opacity="0.1"/>
</g>
<rect width="36.3283" height="36.3283" rx="4.43612" transform="matrix(0.866025 0.5 -0.866025 0.5 31.478 18.4604)" fill="url(#paint7_linear_2025_1024)"/>
<rect width="27.2462" height="4.54104" transform="matrix(0.866025 0.5 0 1 3.94922 38.8955)" fill="url(#paint8_linear_2025_1024)"/>
<rect width="27.2462" height="4.54104" transform="matrix(0.866025 -0.5 0 1 35.4104 52.5186)" fill="url(#paint9_linear_2025_1024)"/>
<path d="M2.32056 36.625C2.32056 37.5117 2.94306 38.3144 3.94952 38.8955V43.4366C2.94306 42.8555 2.32056 42.0527 2.32056 41.166V36.625Z" fill="url(#paint10_linear_2025_1024)"/>
<path d="M27.5452 52.5186C29.7171 53.7725 33.2385 53.7725 35.4105 52.5186V57.0596C33.2385 58.3136 29.7171 58.3136 27.5452 57.0596V52.5186Z" fill="url(#paint11_linear_2025_1024)"/>
<path d="M60.6356 36.625C60.6356 37.5117 60.013 38.3144 59.0066 38.8955V43.4366C60.013 42.8555 60.6356 42.0527 60.6356 41.166V36.625Z" fill="url(#paint12_linear_2025_1024)"/>
<g clip-path="url(#clip1_2025_1024)">
<rect width="11.712" height="11.712" transform="matrix(0.866025 0.5 -0.866025 0.5 31.5 18.4604)" fill="white" fill-opacity="0.2"/>
<rect width="11.712" height="11.712" transform="matrix(0.866025 0.5 -0.866025 0.5 20.8213 24.626)" fill="white" fill-opacity="0.2"/>
<rect width="11.712" height="11.712" transform="matrix(0.866025 0.5 -0.866025 0.5 20.8215 36.9561)" fill="white" fill-opacity="0.2"/>
<rect width="11.712" height="11.712" transform="matrix(0.866025 0.5 -0.866025 0.5 42.1785 24.6255)" fill="white" fill-opacity="0.2"/>
<rect width="11.712" height="11.712" transform="matrix(0.866025 0.5 -0.866025 0.5 42.1785 36.9561)" fill="white" fill-opacity="0.2"/>
<rect width="11.712" height="11.712" transform="matrix(0.866025 0.5 -0.866025 0.5 52.8569 30.791)" fill="white" fill-opacity="0.2"/>
<rect width="11.712" height="11.712" transform="matrix(0.866025 0.5 -0.866025 0.5 10.1428 30.791)" fill="white" fill-opacity="0.2"/>
<rect width="11.712" height="11.712" transform="matrix(0.866025 0.5 -0.866025 0.5 31.5 43.1216)" fill="white" fill-opacity="0.2"/>
<rect width="11.712" height="11.712" transform="matrix(0.866025 0.5 -0.866025 0.5 31.5 30.791)" fill="white" fill-opacity="0.2"/>
</g>
<mask id="path-33-outside-1_2025_1024" maskUnits="userSpaceOnUse" x="9" y="19" width="47" height="19" fill="black">
<rect fill="white" x="9" y="19" width="47" height="19"/>
<path d="M10.7998 37V34.4452L16.7692 28.9179C17.2769 28.4266 17.7027 27.9845 18.0466 27.5914C18.396 27.1984 18.6607 26.8135 18.8409 26.4368C19.021 26.0547 19.1111 25.6425 19.1111 25.2004C19.1111 24.7091 18.9992 24.286 18.7754 23.9311C18.5516 23.5709 18.2459 23.2952 17.8583 23.1041C17.4707 22.9076 17.0312 22.8093 16.5399 22.8093C16.0268 22.8093 15.5791 22.913 15.197 23.1205C14.8149 23.3279 14.5201 23.6254 14.3126 24.013C14.1052 24.4006 14.0015 24.8619 14.0015 25.3969H10.636C10.636 24.2996 10.8844 23.347 11.3812 22.5391C11.8779 21.7312 12.574 21.1061 13.4692 20.6639C14.3645 20.2218 15.3963 20.0007 16.5645 20.0007C17.7655 20.0007 18.8109 20.2136 19.7007 20.6394C20.596 21.0597 21.292 21.6438 21.7887 22.3917C22.2855 23.1396 22.5339 23.9967 22.5339 24.9629C22.5339 25.5961 22.4083 26.2212 22.1572 26.8381C21.9116 27.4549 21.4721 28.14 20.8389 28.8934C20.2056 29.6413 19.3131 30.5393 18.1612 31.5874L15.7129 33.9866V34.1013H22.755V37H10.7998ZM35.6171 34.6745L25.8318 24.9056L27.9772 22.7356L37.7707 32.5291L35.6171 34.6745ZM27.9772 34.6745L25.8318 32.5291L35.6171 22.7356L37.7707 24.9056L27.9772 34.6745ZM40.7431 34.0521V31.2599L47.7443 20.2299H50.1517V24.0949H48.7269L44.3133 31.0797V31.2107H54.2623V34.0521H40.7431ZM48.7924 37V33.2005L48.8579 31.9641V20.2299H52.1824V37H48.7924Z"/>
</mask>
<path d="M10.7998 37V34.4452L16.7692 28.9179C17.2769 28.4266 17.7027 27.9845 18.0466 27.5914C18.396 27.1984 18.6607 26.8135 18.8409 26.4368C19.021 26.0547 19.1111 25.6425 19.1111 25.2004C19.1111 24.7091 18.9992 24.286 18.7754 23.9311C18.5516 23.5709 18.2459 23.2952 17.8583 23.1041C17.4707 22.9076 17.0312 22.8093 16.5399 22.8093C16.0268 22.8093 15.5791 22.913 15.197 23.1205C14.8149 23.3279 14.5201 23.6254 14.3126 24.013C14.1052 24.4006 14.0015 24.8619 14.0015 25.3969H10.636C10.636 24.2996 10.8844 23.347 11.3812 22.5391C11.8779 21.7312 12.574 21.1061 13.4692 20.6639C14.3645 20.2218 15.3963 20.0007 16.5645 20.0007C17.7655 20.0007 18.8109 20.2136 19.7007 20.6394C20.596 21.0597 21.292 21.6438 21.7887 22.3917C22.2855 23.1396 22.5339 23.9967 22.5339 24.9629C22.5339 25.5961 22.4083 26.2212 22.1572 26.8381C21.9116 27.4549 21.4721 28.14 20.8389 28.8934C20.2056 29.6413 19.3131 30.5393 18.1612 31.5874L15.7129 33.9866V34.1013H22.755V37H10.7998ZM35.6171 34.6745L25.8318 24.9056L27.9772 22.7356L37.7707 32.5291L35.6171 34.6745ZM27.9772 34.6745L25.8318 32.5291L35.6171 22.7356L37.7707 24.9056L27.9772 34.6745ZM40.7431 34.0521V31.2599L47.7443 20.2299H50.1517V24.0949H48.7269L44.3133 31.0797V31.2107H54.2623V34.0521H40.7431ZM48.7924 37V33.2005L48.8579 31.9641V20.2299H52.1824V37H48.7924Z" fill="white"/>
<path d="M10.7998 37H9.97625V37.8235H10.7998V37ZM10.7998 34.4452L10.2403 33.8409L9.97625 34.0854V34.4452H10.7998ZM16.7692 28.9179L17.3287 29.5222L17.3354 29.5161L17.3419 29.5097L16.7692 28.9179ZM18.0466 27.5914L17.4311 27.0443L17.4268 27.0491L18.0466 27.5914ZM18.8409 26.4368L19.5838 26.7922L19.5858 26.788L18.8409 26.4368ZM18.7754 23.9311L18.0758 24.3657L18.0788 24.3705L18.7754 23.9311ZM17.8583 23.1041L17.4858 23.8387L17.4941 23.8428L17.8583 23.1041ZM14.3126 24.013L15.0387 24.4016L15.0387 24.4016L14.3126 24.013ZM14.0015 25.3969V26.2204H14.825V25.3969H14.0015ZM10.636 25.3969H9.81248V26.2204H10.636V25.3969ZM11.3812 22.5391L12.0827 22.9704L12.0827 22.9704L11.3812 22.5391ZM13.4692 20.6639L13.1045 19.9256L13.1045 19.9256L13.4692 20.6639ZM19.7007 20.6394L19.3452 21.3822L19.3507 21.3848L19.7007 20.6394ZM21.7887 22.3917L21.1028 22.8474L21.1028 22.8474L21.7887 22.3917ZM22.1572 26.8381L21.3945 26.5276L21.3921 26.5334L22.1572 26.8381ZM20.8389 28.8934L21.4674 29.4255L21.4693 29.4233L20.8389 28.8934ZM18.1612 31.5874L17.607 30.9783L17.5957 30.9885L17.5849 30.9992L18.1612 31.5874ZM15.7129 33.9866L15.1365 33.3984L14.8894 33.6406V33.9866H15.7129ZM15.7129 34.1013H14.8894V34.9248H15.7129V34.1013ZM22.755 34.1013H23.5785V33.2777H22.755V34.1013ZM22.755 37V37.8235H23.5785V37H22.755ZM10.7998 37H11.6233V34.4452H10.7998H9.97625V37H10.7998ZM10.7998 34.4452L11.3593 35.0495L17.3287 29.5222L16.7692 28.9179L16.2097 28.3137L10.2403 33.8409L10.7998 34.4452ZM16.7692 28.9179L17.3419 29.5097C17.8607 29.0077 18.3033 28.5487 18.6664 28.1337L18.0466 27.5914L17.4268 27.0491C17.1021 27.4203 16.6931 27.8456 16.1965 28.3262L16.7692 28.9179ZM18.0466 27.5914L18.6621 28.1385C19.0501 27.702 19.3631 27.2537 19.5838 26.7921L18.8409 26.4368L18.098 26.0815C17.9584 26.3733 17.7419 26.6947 17.4311 27.0443L18.0466 27.5914ZM18.8409 26.4368L19.5858 26.788C19.8201 26.2909 19.9346 25.7582 19.9346 25.2004H19.1111H18.2876C18.2876 25.5269 18.2219 25.8185 18.096 26.0857L18.8409 26.4368ZM19.1111 25.2004H19.9346C19.9346 24.5806 19.792 23.9993 19.4719 23.4918L18.7754 23.9311L18.0788 24.3705C18.2064 24.5727 18.2876 24.8375 18.2876 25.2004H19.1111ZM18.7754 23.9311L19.4749 23.4966C19.1683 23.003 18.7453 22.6232 18.2224 22.3655L17.8583 23.1041L17.4941 23.8428C17.7465 23.9671 17.9348 24.1387 18.0758 24.3657L18.7754 23.9311ZM17.8583 23.1041L18.2307 22.3696C17.7134 22.1073 17.1436 21.9858 16.5399 21.9858V22.8093V23.6329C16.9189 23.6329 17.228 23.7079 17.4858 23.8386L17.8583 23.1041ZM16.5399 22.8093V21.9858C15.9143 21.9858 15.3269 22.1129 14.8041 22.3967L15.197 23.1205L15.5899 23.8442C15.8314 23.7132 16.1393 23.6329 16.5399 23.6329V22.8093ZM15.197 23.1205L14.8041 22.3967C14.2789 22.6818 13.869 23.0966 13.5866 23.6244L14.3126 24.013L15.0387 24.4016C15.1711 24.1543 15.3508 23.974 15.5899 23.8442L15.197 23.1205ZM14.3126 24.013L13.5866 23.6244C13.3027 24.1548 13.178 24.7555 13.178 25.3969H14.0015H14.825C14.825 24.9684 14.9077 24.6464 15.0387 24.4016L14.3126 24.013ZM14.0015 25.3969V24.5734H10.636V25.3969V26.2204H14.0015V25.3969ZM10.636 25.3969H11.4595C11.4595 24.4276 11.6775 23.6294 12.0827 22.9704L11.3812 22.5391L10.6796 22.1078C10.0912 23.0647 9.81248 24.1717 9.81248 25.3969H10.636ZM11.3812 22.5391L12.0827 22.9704C12.4939 22.3016 13.0699 21.7797 13.8339 21.4023L13.4692 20.6639L13.1045 19.9256C12.078 20.4326 11.2619 21.1607 10.6796 22.1078L11.3812 22.5391ZM13.4692 20.6639L13.8339 21.4023C14.598 21.0249 15.5013 20.8242 16.5645 20.8242V20.0007V19.1771C15.2912 19.1771 14.131 19.4186 13.1045 19.9256L13.4692 20.6639ZM16.5645 20.0007V20.8242C17.6687 20.8242 18.5879 21.0198 19.3452 21.3822L19.7007 20.6394L20.0562 19.8965C19.0339 19.4073 17.8622 19.1771 16.5645 19.1771V20.0007ZM19.7007 20.6394L19.3507 21.3848C20.1239 21.7478 20.6977 22.2375 21.1028 22.8474L21.7887 22.3917L22.4747 21.9361C21.8863 21.0501 21.0681 20.3716 20.0507 19.8939L19.7007 20.6394ZM21.7887 22.3917L21.1028 22.8474C21.5029 23.4498 21.7104 24.1458 21.7104 24.9629H22.5339H23.3574C23.3574 23.8475 23.0681 22.8294 22.4747 21.9361L21.7887 22.3917ZM22.5339 24.9629H21.7104C21.7104 25.4842 21.6076 26.0041 21.3945 26.5276L22.1572 26.8381L22.92 27.1486C23.2091 26.4383 23.3574 25.7081 23.3574 24.9629H22.5339ZM22.1572 26.8381L21.3921 26.5334C21.1907 27.0392 20.8097 27.6483 20.2085 28.3635L20.8389 28.8934L21.4693 29.4233C22.1346 28.6318 22.6325 27.8706 22.9223 27.1428L22.1572 26.8381ZM20.8389 28.8934L20.2104 28.3612C19.6095 29.0709 18.7459 29.942 17.607 30.9783L18.1612 31.5874L18.7155 32.1965C19.8803 31.1366 20.8018 30.2117 21.4674 29.4255L20.8389 28.8934ZM18.1612 31.5874L17.5849 30.9992L15.1365 33.3984L15.7129 33.9866L16.2893 34.5748L18.7376 32.1756L18.1612 31.5874ZM15.7129 33.9866H14.8894V34.1013H15.7129H16.5364V33.9866H15.7129ZM15.7129 34.1013V34.9248H22.755V34.1013V33.2777H15.7129V34.1013ZM22.755 34.1013H21.9315V37H22.755H23.5785V34.1013H22.755ZM22.755 37V36.1765H10.7998V37V37.8235H22.755V37ZM35.6171 34.6745L35.0352 35.2573L35.6165 35.8375L36.1983 35.2579L35.6171 34.6745ZM25.8318 24.9056L25.2462 24.3266L24.67 24.9094L25.25 25.4884L25.8318 24.9056ZM27.9772 22.7356L28.5595 22.1533L27.9739 21.5677L27.3916 22.1566L27.9772 22.7356ZM37.7707 32.5291L38.3519 33.1125L38.9364 32.5302L38.353 31.9468L37.7707 32.5291ZM27.9772 34.6745L27.3949 35.2568L27.9765 35.8384L28.5588 35.2575L27.9772 34.6745ZM25.8318 32.5291L25.2493 31.947L24.6674 32.5293L25.2495 33.1114L25.8318 32.5291ZM35.6171 22.7356L36.2016 22.1555L35.6191 21.5685L35.0345 22.1535L35.6171 22.7356ZM37.7707 24.9056L38.3523 25.4886L38.9338 24.9085L38.3552 24.3255L37.7707 24.9056ZM35.6171 34.6745L36.1989 34.0917L26.4137 24.3228L25.8318 24.9056L25.25 25.4884L35.0352 35.2573L35.6171 34.6745ZM25.8318 24.9056L26.4175 25.4846L28.5628 23.3146L27.9772 22.7356L27.3916 22.1566L25.2462 24.3266L25.8318 24.9056ZM27.9772 22.7356L27.3949 23.3179L37.1883 33.1114L37.7707 32.5291L38.353 31.9468L28.5595 22.1533L27.9772 22.7356ZM37.7707 32.5291L37.1894 31.9456L35.0359 34.091L35.6171 34.6745L36.1983 35.2579L38.3519 33.1125L37.7707 32.5291ZM27.9772 34.6745L28.5595 34.0921L26.4141 31.9468L25.8318 32.5291L25.2495 33.1114L27.3949 35.2568L27.9772 34.6745ZM25.8318 32.5291L26.4144 33.1112L36.1997 23.3177L35.6171 22.7356L35.0345 22.1535L25.2493 31.947L25.8318 32.5291ZM35.6171 22.7356L35.0326 23.3157L37.1861 25.4857L37.7707 24.9056L38.3552 24.3255L36.2016 22.1555L35.6171 22.7356ZM37.7707 24.9056L37.1891 24.3225L27.3956 34.0914L27.9772 34.6745L28.5588 35.2575L38.3523 25.4886L37.7707 24.9056ZM40.7431 34.0521H39.9196V34.8757H40.7431V34.0521ZM40.7431 31.2599L40.0478 30.8185L39.9196 31.0206V31.2599H40.7431ZM47.7443 20.2299V19.4064H47.2916L47.049 19.7886L47.7443 20.2299ZM50.1517 20.2299H50.9752V19.4064H50.1517V20.2299ZM50.1517 24.0949V24.9184H50.9752V24.0949H50.1517ZM48.7269 24.0949V23.2714H48.2731L48.0307 23.655L48.7269 24.0949ZM44.3133 31.0797L43.6171 30.6398L43.4897 30.8413V31.0797H44.3133ZM44.3133 31.2107H43.4897V32.0343H44.3133V31.2107ZM54.2623 31.2107H55.0858V30.3872H54.2623V31.2107ZM54.2623 34.0521V34.8757H55.0858V34.0521H54.2623ZM48.7924 37H47.9689V37.8235H48.7924V37ZM48.7924 33.2005L47.97 33.157L47.9689 33.1787V33.2005H48.7924ZM48.8579 31.9641L49.6803 32.0076L49.6814 31.9859V31.9641H48.8579ZM48.8579 20.2299V19.4064H48.0344V20.2299H48.8579ZM52.1824 20.2299H53.006V19.4064H52.1824V20.2299ZM52.1824 37V37.8235H53.006V37H52.1824ZM40.7431 34.0521H41.5666V31.2599H40.7431H39.9196V34.0521H40.7431ZM40.7431 31.2599L41.4384 31.7012L48.4395 20.6713L47.7443 20.2299L47.049 19.7886L40.0478 30.8185L40.7431 31.2599ZM47.7443 20.2299V21.0535H50.1517V20.2299V19.4064H47.7443V20.2299ZM50.1517 20.2299H49.3281V24.0949H50.1517H50.9752V20.2299H50.1517ZM50.1517 24.0949V23.2714H48.7269V24.0949V24.9184H50.1517V24.0949ZM48.7269 24.0949L48.0307 23.655L43.6171 30.6398L44.3133 31.0797L45.0095 31.5196L49.4231 24.5348L48.7269 24.0949ZM44.3133 31.0797H43.4897V31.2107H44.3133H45.1368V31.0797H44.3133ZM44.3133 31.2107V32.0343H54.2623V31.2107V30.3872H44.3133V31.2107ZM54.2623 31.2107H53.4388V34.0521H54.2623H55.0858V31.2107H54.2623ZM54.2623 34.0521V33.2286H40.7431V34.0521V34.8757H54.2623V34.0521ZM48.7924 37H49.6159V33.2005H48.7924H47.9689V37H48.7924ZM48.7924 33.2005L49.6148 33.2441L49.6803 32.0076L48.8579 31.9641L48.0355 31.9205L47.97 33.157L48.7924 33.2005ZM48.8579 31.9641H49.6814V20.2299H48.8579H48.0344V31.9641H48.8579ZM48.8579 20.2299V21.0535H52.1824V20.2299V19.4064H48.8579V20.2299ZM52.1824 20.2299H51.3589V37H52.1824H53.006V20.2299H52.1824ZM52.1824 37V36.1765H48.7924V37V37.8235H52.1824V37Z" fill="#2B3F46" mask="url(#path-33-outside-1_2025_1024)"/>
<defs>
<linearGradient id="paint0_linear_2025_1024" x1="35.8411" y1="35.864" x2="-1.88188" y2="2.08424" gradientUnits="userSpaceOnUse">
<stop stop-color="#FFD5EF"/>
<stop offset="1" stop-color="#EFBDFD"/>
</linearGradient>
<linearGradient id="paint1_linear_2025_1024" x1="26.8809" y1="4.483" x2="25.174" y2="-4.68761" gradientUnits="userSpaceOnUse">
<stop stop-color="#F95457"/>
<stop offset="1" stop-color="#FDBDCB"/>
</linearGradient>
<linearGradient id="paint2_linear_2025_1024" x1="26.8809" y1="4.483" x2="25.174" y2="-4.68761" gradientUnits="userSpaceOnUse">
<stop stop-color="#F95457"/>
<stop offset="1" stop-color="#FDBDCB"/>
</linearGradient>
<linearGradient id="paint3_linear_2025_1024" x1="4.71795" y1="43.6522" x2="1.80375" y2="43.0282" gradientUnits="userSpaceOnUse">
<stop stop-color="#F95457"/>
<stop offset="1" stop-color="#FDBDCB"/>
</linearGradient>
<linearGradient id="paint4_linear_2025_1024" x1="35.7669" y1="58.0257" x2="30.2155" y2="50.8928" gradientUnits="userSpaceOnUse">
<stop stop-color="#F95457"/>
<stop offset="1" stop-color="#FDBDCB"/>
</linearGradient>
<linearGradient id="paint5_linear_2025_1024" x1="60.6657" y1="43.6522" x2="57.7515" y2="43.0282" gradientUnits="userSpaceOnUse">
<stop stop-color="#F95457"/>
<stop offset="1" stop-color="#FDBDCB"/>
</linearGradient>
<linearGradient id="paint6_linear_2025_1024" x1="-1.09962e-05" y1="-0.0328651" x2="30.641" y2="-4.05264" gradientUnits="userSpaceOnUse">
<stop stop-color="#D74446"/>
<stop offset="1" stop-color="#E165B8"/>
</linearGradient>
<linearGradient id="paint7_linear_2025_1024" x1="-1.11276e-05" y1="-0.033258" x2="31.0073" y2="-4.10108" gradientUnits="userSpaceOnUse">
<stop stop-color="#D74446"/>
<stop offset="1" stop-color="#E165B8"/>
</linearGradient>
<linearGradient id="paint8_linear_2025_1024" x1="-8.34573e-06" y1="-0.00415724" x2="14.606" y2="-11.5011" gradientUnits="userSpaceOnUse">
<stop stop-color="#D1369D"/>
<stop offset="1" stop-color="#B31E20"/>
</linearGradient>
<linearGradient id="paint9_linear_2025_1024" x1="-8.34573e-06" y1="-0.00415724" x2="14.606" y2="-11.5011" gradientUnits="userSpaceOnUse">
<stop stop-color="#D74446"/>
<stop offset="1" stop-color="#E165B8"/>
</linearGradient>
<linearGradient id="paint10_linear_2025_1024" x1="2.32056" y1="36.6188" x2="3.73346" y2="36.5744" gradientUnits="userSpaceOnUse">
<stop stop-color="#D74446"/>
<stop offset="1" stop-color="#D1369D"/>
</linearGradient>
<linearGradient id="paint11_linear_2025_1024" x1="27.5452" y1="52.5135" x2="34.1403" y2="51.2721" gradientUnits="userSpaceOnUse">
<stop stop-color="#B31E20"/>
<stop offset="1" stop-color="#D74446"/>
</linearGradient>
<linearGradient id="paint12_linear_2025_1024" x1="59.0066" y1="36.6188" x2="60.4195" y2="36.5744" gradientUnits="userSpaceOnUse">
<stop stop-color="#E165B8"/>
<stop offset="1" stop-color="#D74446"/>
</linearGradient>
<clipPath id="clip0_2025_1024">
<rect width="35.8992" height="35.8992" rx="4.44179" transform="matrix(0.866025 0.5 -0.866025 0.5 31.9104 19)" fill="white"/>
</clipPath>
<clipPath id="clip1_2025_1024">
<rect width="36.3731" height="36.3731" rx="4.50041" transform="matrix(0.866025 0.5 -0.866025 0.5 31.5 18.4604)" fill="white"/>
</clipPath>
</defs>
</svg>
