<svg width="64" height="64" viewBox="0 0 64 64" fill="none" xmlns="http://www.w3.org/2000/svg">
<rect width="35.8551" height="35.8551" rx="4.37833" transform="matrix(0.866025 0.5 -0.866025 0.5 31.8887 19)" fill="url(#paint0_linear_2025_1054)"/>
<rect width="26.8913" height="4.48189" transform="matrix(0.866025 0.5 0 1 4.71851 39.1685)" fill="url(#paint1_linear_2025_1054)"/>
<rect width="26.8913" height="4.48189" transform="matrix(0.866025 -0.5 0 1 35.7698 52.6143)" fill="url(#paint2_linear_2025_1054)"/>
<path d="M3.11084 36.9277C3.11084 37.8029 3.72524 38.5952 4.71858 39.1687V43.6506C3.72524 43.0771 3.11084 42.2848 3.11084 41.4096V36.9277Z" fill="url(#paint3_linear_2025_1054)"/>
<path d="M28.0071 52.6143C30.1507 53.8519 33.6263 53.8519 35.7699 52.6143V57.0961C33.6263 58.3338 30.1507 58.3338 28.0071 57.0961V52.6143Z" fill="url(#paint4_linear_2025_1054)"/>
<path d="M60.6663 36.9277C60.6663 37.8029 60.0519 38.5952 59.0586 39.1687V43.6506C60.0519 43.0771 60.6663 42.2848 60.6663 41.4096V36.9277Z" fill="url(#paint5_linear_2025_1054)"/>
<g clip-path="url(#clip0_2025_1054)">
<rect width="35.8992" height="35.8992" rx="4.44179" transform="matrix(0.866025 0.5 -0.866025 0.5 31.9104 19)" fill="url(#paint6_linear_2025_1054)"/>
<rect width="11.5594" height="11.5594" transform="matrix(0.866025 0.5 -0.866025 0.5 31.9104 19)" fill="black" fill-opacity="0.1"/>
<rect width="11.5594" height="11.5594" transform="matrix(0.866025 0.5 -0.866025 0.5 21.3711 25.085)" fill="black" fill-opacity="0.1"/>
<rect width="11.5594" height="11.5594" transform="matrix(0.866025 0.5 -0.866025 0.5 21.3711 37.2549)" fill="black" fill-opacity="0.1"/>
<rect width="11.5594" height="11.5594" transform="matrix(0.866025 0.5 -0.866025 0.5 42.45 25.085)" fill="black" fill-opacity="0.1"/>
<rect width="11.5594" height="11.5594" transform="matrix(0.866025 0.5 -0.866025 0.5 42.45 37.2549)" fill="black" fill-opacity="0.1"/>
<rect width="11.5594" height="11.5594" transform="matrix(0.866025 0.5 -0.866025 0.5 52.9893 31.1699)" fill="black" fill-opacity="0.1"/>
<rect width="11.5594" height="11.5594" transform="matrix(0.866025 0.5 -0.866025 0.5 10.8315 31.1699)" fill="black" fill-opacity="0.1"/>
<rect width="11.5594" height="11.5594" transform="matrix(0.866025 0.5 -0.866025 0.5 31.9104 43.3398)" fill="black" fill-opacity="0.1"/>
<rect width="11.5594" height="11.5594" transform="matrix(0.866025 0.5 -0.866025 0.5 31.9104 31.1699)" fill="black" fill-opacity="0.1"/>
</g>
<rect width="36.3283" height="36.3283" rx="4.43612" transform="matrix(0.866025 0.5 -0.866025 0.5 31.478 18.4604)" fill="url(#paint7_linear_2025_1054)"/>
<rect width="27.2462" height="4.54104" transform="matrix(0.866025 0.5 0 1 3.94922 38.8955)" fill="url(#paint8_linear_2025_1054)"/>
<rect width="27.2462" height="4.54104" transform="matrix(0.866025 -0.5 0 1 35.4104 52.5186)" fill="url(#paint9_linear_2025_1054)"/>
<path d="M2.32056 36.625C2.32056 37.5117 2.94306 38.3144 3.94952 38.8955V43.4366C2.94306 42.8555 2.32056 42.0527 2.32056 41.166V36.625Z" fill="url(#paint10_linear_2025_1054)"/>
<path d="M27.5452 52.5186C29.7171 53.7725 33.2385 53.7725 35.4105 52.5186V57.0596C33.2385 58.3136 29.7171 58.3136 27.5452 57.0596V52.5186Z" fill="url(#paint11_linear_2025_1054)"/>
<path d="M60.6356 36.625C60.6356 37.5117 60.013 38.3144 59.0066 38.8955V43.4366C60.013 42.8555 60.6356 42.0527 60.6356 41.166V36.625Z" fill="url(#paint12_linear_2025_1054)"/>
<g clip-path="url(#clip1_2025_1054)">
<rect width="11.712" height="11.712" transform="matrix(0.866025 0.5 -0.866025 0.5 31.5 18.4604)" fill="white" fill-opacity="0.2"/>
<rect width="11.712" height="11.712" transform="matrix(0.866025 0.5 -0.866025 0.5 20.8213 24.626)" fill="white" fill-opacity="0.2"/>
<rect width="11.712" height="11.712" transform="matrix(0.866025 0.5 -0.866025 0.5 20.8215 36.9561)" fill="white" fill-opacity="0.2"/>
<rect width="11.712" height="11.712" transform="matrix(0.866025 0.5 -0.866025 0.5 42.1785 24.6255)" fill="white" fill-opacity="0.2"/>
<rect width="11.712" height="11.712" transform="matrix(0.866025 0.5 -0.866025 0.5 42.1785 36.9561)" fill="white" fill-opacity="0.2"/>
<rect width="11.712" height="11.712" transform="matrix(0.866025 0.5 -0.866025 0.5 52.8569 30.791)" fill="white" fill-opacity="0.2"/>
<rect width="11.712" height="11.712" transform="matrix(0.866025 0.5 -0.866025 0.5 10.1428 30.791)" fill="white" fill-opacity="0.2"/>
<rect width="11.712" height="11.712" transform="matrix(0.866025 0.5 -0.866025 0.5 31.5 43.1216)" fill="white" fill-opacity="0.2"/>
<rect width="11.712" height="11.712" transform="matrix(0.866025 0.5 -0.866025 0.5 31.5 30.791)" fill="white" fill-opacity="0.2"/>
</g>
<mask id="path-33-outside-1_2025_1054" maskUnits="userSpaceOnUse" x="10" y="19" width="45" height="20" fill="black">
<rect fill="white" x="10" y="19" width="45" height="20"/>
<path d="M11.1826 37V34.4452L17.152 28.9179C17.6597 28.4266 18.0855 27.9845 18.4294 27.5914C18.7788 27.1984 19.0436 26.8135 19.2237 26.4368C19.4038 26.0547 19.4939 25.6425 19.4939 25.2004C19.4939 24.7091 19.382 24.286 19.1582 23.9311C18.9344 23.5709 18.6287 23.2952 18.2411 23.1041C17.8535 22.9076 17.414 22.8093 16.9227 22.8093C16.4096 22.8093 15.9619 22.913 15.5798 23.1205C15.1977 23.3279 14.9029 23.6254 14.6955 24.013C14.488 24.4006 14.3843 24.8619 14.3843 25.3969H11.0188C11.0188 24.2996 11.2672 23.347 11.764 22.5391C12.2607 21.7312 12.9568 21.1061 13.852 20.6639C14.7473 20.2218 15.7791 20.0007 16.9473 20.0007C18.1483 20.0007 19.1937 20.2136 20.0835 20.6394C20.9788 21.0597 21.6748 21.6438 22.1716 22.3917C22.6683 23.1396 22.9167 23.9967 22.9167 24.9629C22.9167 25.5961 22.7912 26.2212 22.54 26.8381C22.2944 27.4549 21.8549 28.14 21.2217 28.8934C20.5885 29.6413 19.6959 30.5393 18.5441 31.5874L16.0957 33.9866V34.1013H23.1378V37H11.1826ZM35.9999 34.6745L26.2146 24.9056L28.36 22.7356L38.1535 32.5291L35.9999 34.6745ZM28.36 34.6745L26.2146 32.5291L35.9999 22.7356L38.1535 24.9056L28.36 34.6745ZM47.5047 37.2293C46.3474 37.2293 45.3157 37.0164 44.4095 36.5906C43.5088 36.1648 42.7936 35.5779 42.2641 34.83C41.7346 34.0822 41.4589 33.2251 41.4371 32.2589H44.8762C44.9144 32.9085 45.1874 33.4353 45.6951 33.8392C46.2028 34.2432 46.806 34.4452 47.5047 34.4452C48.0616 34.4452 48.5529 34.3224 48.9787 34.0767C49.4099 33.8256 49.7457 33.4789 49.9859 33.0368C50.2315 32.5891 50.3543 32.076 50.3543 31.4973C50.3543 30.9078 50.2288 30.3891 49.9777 29.9415C49.732 29.4939 49.3908 29.1445 48.9541 28.8934C48.5174 28.6423 48.0179 28.514 47.4556 28.5085C46.9643 28.5085 46.4866 28.6095 46.0226 28.8115C45.5641 29.0135 45.2065 29.2892 44.9499 29.6385L41.7974 29.0735L42.5916 20.2299H52.8436V23.1287H45.5149L45.0809 27.3294H45.1792C45.474 26.9145 45.9189 26.5706 46.5139 26.2976C47.109 26.0247 47.775 25.8882 48.5119 25.8882C49.5218 25.8882 50.4226 26.1257 51.2141 26.6006C52.0057 27.0755 52.6307 27.7279 53.0893 28.5577C53.5479 29.382 53.7744 30.3318 53.7689 31.4073C53.7744 32.5373 53.5124 33.5417 52.9829 34.4206C52.4588 35.2941 51.7246 35.9819 50.7801 36.4841C49.8412 36.9809 48.7494 37.2293 47.5047 37.2293Z"/>
</mask>
<path d="M11.1826 37V34.4452L17.152 28.9179C17.6597 28.4266 18.0855 27.9845 18.4294 27.5914C18.7788 27.1984 19.0436 26.8135 19.2237 26.4368C19.4038 26.0547 19.4939 25.6425 19.4939 25.2004C19.4939 24.7091 19.382 24.286 19.1582 23.9311C18.9344 23.5709 18.6287 23.2952 18.2411 23.1041C17.8535 22.9076 17.414 22.8093 16.9227 22.8093C16.4096 22.8093 15.9619 22.913 15.5798 23.1205C15.1977 23.3279 14.9029 23.6254 14.6955 24.013C14.488 24.4006 14.3843 24.8619 14.3843 25.3969H11.0188C11.0188 24.2996 11.2672 23.347 11.764 22.5391C12.2607 21.7312 12.9568 21.1061 13.852 20.6639C14.7473 20.2218 15.7791 20.0007 16.9473 20.0007C18.1483 20.0007 19.1937 20.2136 20.0835 20.6394C20.9788 21.0597 21.6748 21.6438 22.1716 22.3917C22.6683 23.1396 22.9167 23.9967 22.9167 24.9629C22.9167 25.5961 22.7912 26.2212 22.54 26.8381C22.2944 27.4549 21.8549 28.14 21.2217 28.8934C20.5885 29.6413 19.6959 30.5393 18.5441 31.5874L16.0957 33.9866V34.1013H23.1378V37H11.1826ZM35.9999 34.6745L26.2146 24.9056L28.36 22.7356L38.1535 32.5291L35.9999 34.6745ZM28.36 34.6745L26.2146 32.5291L35.9999 22.7356L38.1535 24.9056L28.36 34.6745ZM47.5047 37.2293C46.3474 37.2293 45.3157 37.0164 44.4095 36.5906C43.5088 36.1648 42.7936 35.5779 42.2641 34.83C41.7346 34.0822 41.4589 33.2251 41.4371 32.2589H44.8762C44.9144 32.9085 45.1874 33.4353 45.6951 33.8392C46.2028 34.2432 46.806 34.4452 47.5047 34.4452C48.0616 34.4452 48.5529 34.3224 48.9787 34.0767C49.4099 33.8256 49.7457 33.4789 49.9859 33.0368C50.2315 32.5891 50.3543 32.076 50.3543 31.4973C50.3543 30.9078 50.2288 30.3891 49.9777 29.9415C49.732 29.4939 49.3908 29.1445 48.9541 28.8934C48.5174 28.6423 48.0179 28.514 47.4556 28.5085C46.9643 28.5085 46.4866 28.6095 46.0226 28.8115C45.5641 29.0135 45.2065 29.2892 44.9499 29.6385L41.7974 29.0735L42.5916 20.2299H52.8436V23.1287H45.5149L45.0809 27.3294H45.1792C45.474 26.9145 45.9189 26.5706 46.5139 26.2976C47.109 26.0247 47.775 25.8882 48.5119 25.8882C49.5218 25.8882 50.4226 26.1257 51.2141 26.6006C52.0057 27.0755 52.6307 27.7279 53.0893 28.5577C53.5479 29.382 53.7744 30.3318 53.7689 31.4073C53.7744 32.5373 53.5124 33.5417 52.9829 34.4206C52.4588 35.2941 51.7246 35.9819 50.7801 36.4841C49.8412 36.9809 48.7494 37.2293 47.5047 37.2293Z" fill="white"/>
<path d="M11.1826 37H10.3591V37.8235H11.1826V37ZM11.1826 34.4452L10.6231 33.8409L10.3591 34.0854V34.4452H11.1826ZM17.152 28.9179L17.7115 29.5222L17.7182 29.5161L17.7247 29.5097L17.152 28.9179ZM18.4294 27.5914L17.8139 27.0443L17.8096 27.0491L18.4294 27.5914ZM19.2237 26.4368L19.9666 26.7922L19.9686 26.788L19.2237 26.4368ZM19.1582 23.9311L18.4586 24.3657L18.4617 24.3705L19.1582 23.9311ZM18.2411 23.1041L17.8686 23.8387L17.877 23.8428L18.2411 23.1041ZM14.6955 24.013L15.4215 24.4016L15.4215 24.4016L14.6955 24.013ZM14.3843 25.3969V26.2204H15.2078V25.3969H14.3843ZM11.0188 25.3969H10.1953V26.2204H11.0188V25.3969ZM11.764 22.5391L12.4655 22.9704L12.4655 22.9704L11.764 22.5391ZM13.852 20.6639L13.4874 19.9256L13.4874 19.9256L13.852 20.6639ZM20.0835 20.6394L19.728 21.3822L19.7335 21.3848L20.0835 20.6394ZM22.1716 22.3917L21.4856 22.8474L21.4856 22.8474L22.1716 22.3917ZM22.54 26.8381L21.7773 26.5276L21.775 26.5334L22.54 26.8381ZM21.2217 28.8934L21.8502 29.4255L21.8521 29.4233L21.2217 28.8934ZM18.5441 31.5874L17.9898 30.9783L17.9785 30.9885L17.9677 30.9992L18.5441 31.5874ZM16.0957 33.9866L15.5193 33.3984L15.2722 33.6406V33.9866H16.0957ZM16.0957 34.1013H15.2722V34.9248H16.0957V34.1013ZM23.1378 34.1013H23.9613V33.2777H23.1378V34.1013ZM23.1378 37V37.8235H23.9613V37H23.1378ZM11.1826 37H12.0061V34.4452H11.1826H10.3591V37H11.1826ZM11.1826 34.4452L11.7421 35.0495L17.7115 29.5222L17.152 28.9179L16.5925 28.3137L10.6231 33.8409L11.1826 34.4452ZM17.152 28.9179L17.7247 29.5097C18.2435 29.0077 18.6861 28.5487 19.0492 28.1337L18.4294 27.5914L17.8096 27.0491C17.4849 27.4203 17.0759 27.8456 16.5793 28.3262L17.152 28.9179ZM18.4294 27.5914L19.0449 28.1385C19.4329 27.702 19.7459 27.2537 19.9666 26.7921L19.2237 26.4368L18.4808 26.0815C18.3412 26.3733 18.1247 26.6947 17.8139 27.0443L18.4294 27.5914ZM19.2237 26.4368L19.9686 26.788C20.2029 26.2909 20.3175 25.7582 20.3175 25.2004H19.4939H18.6704C18.6704 25.5269 18.6047 25.8185 18.4788 26.0857L19.2237 26.4368ZM19.4939 25.2004H20.3175C20.3175 24.5806 20.1749 23.9993 19.8547 23.4918L19.1582 23.9311L18.4617 24.3705C18.5892 24.5727 18.6704 24.8375 18.6704 25.2004H19.4939ZM19.1582 23.9311L19.8577 23.4966C19.5511 23.003 19.1281 22.6232 18.6052 22.3655L18.2411 23.1041L17.877 23.8428C18.1293 23.9671 18.3176 24.1387 18.4587 24.3657L19.1582 23.9311ZM18.2411 23.1041L18.6135 22.3696C18.0962 22.1073 17.5264 21.9858 16.9227 21.9858V22.8093V23.6329C17.3017 23.6329 17.6108 23.7079 17.8687 23.8386L18.2411 23.1041ZM16.9227 22.8093V21.9858C16.2971 21.9858 15.7097 22.1129 15.1869 22.3967L15.5798 23.1205L15.9727 23.8442C16.2142 23.7132 16.5221 23.6329 16.9227 23.6329V22.8093ZM15.5798 23.1205L15.1869 22.3967C14.6617 22.6818 14.2519 23.0966 13.9694 23.6244L14.6955 24.013L15.4215 24.4016C15.5539 24.1543 15.7337 23.974 15.9727 23.8442L15.5798 23.1205ZM14.6955 24.013L13.9694 23.6244C13.6855 24.1548 13.5608 24.7555 13.5608 25.3969H14.3843H15.2078C15.2078 24.9684 15.2905 24.6464 15.4215 24.4016L14.6955 24.013ZM14.3843 25.3969V24.5734H11.0188V25.3969V26.2204H14.3843V25.3969ZM11.0188 25.3969H11.8424C11.8424 24.4276 12.0604 23.6294 12.4655 22.9704L11.764 22.5391L11.0624 22.1078C10.4741 23.0647 10.1953 24.1717 10.1953 25.3969H11.0188ZM11.764 22.5391L12.4655 22.9704C12.8767 22.3016 13.4527 21.7797 14.2167 21.4023L13.852 20.6639L13.4874 19.9256C12.4608 20.4326 11.6448 21.1607 11.0624 22.1078L11.764 22.5391ZM13.852 20.6639L14.2167 21.4023C14.9808 21.0249 15.8841 20.8242 16.9473 20.8242V20.0007V19.1771C15.674 19.1771 14.5138 19.4186 13.4874 19.9256L13.852 20.6639ZM16.9473 20.0007V20.8242C18.0515 20.8242 18.9707 21.0198 19.728 21.3822L20.0835 20.6394L20.439 19.8965C19.4167 19.4073 18.245 19.1771 16.9473 19.1771V20.0007ZM20.0835 20.6394L19.7335 21.3848C20.5067 21.7478 21.0805 22.2375 21.4856 22.8474L22.1716 22.3917L22.8575 21.9361C22.2691 21.0501 21.4509 20.3716 20.4335 19.8939L20.0835 20.6394ZM22.1716 22.3917L21.4856 22.8474C21.8857 23.4498 22.0932 24.1458 22.0932 24.9629H22.9167H23.7402C23.7402 23.8475 23.4509 22.8294 22.8575 21.9361L22.1716 22.3917ZM22.9167 24.9629H22.0932C22.0932 25.4842 21.9904 26.0041 21.7773 26.5276L22.54 26.8381L23.3028 27.1486C23.5919 26.4383 23.7402 25.7081 23.7402 24.9629H22.9167ZM22.54 26.8381L21.775 26.5334C21.5735 27.0392 21.1925 27.6483 20.5913 28.3635L21.2217 28.8934L21.8521 29.4233C22.5174 28.6318 23.0153 27.8706 23.3051 27.1428L22.54 26.8381ZM21.2217 28.8934L20.5932 28.3612C19.9923 29.0709 19.1287 29.942 17.9898 30.9783L18.5441 31.5874L19.0983 32.1965C20.2631 31.1366 21.1846 30.2117 21.8502 29.4255L21.2217 28.8934ZM18.5441 31.5874L17.9677 30.9992L15.5193 33.3984L16.0957 33.9866L16.6721 34.5748L19.1204 32.1756L18.5441 31.5874ZM16.0957 33.9866H15.2722V34.1013H16.0957H16.9192V33.9866H16.0957ZM16.0957 34.1013V34.9248H23.1378V34.1013V33.2777H16.0957V34.1013ZM23.1378 34.1013H22.3143V37H23.1378H23.9613V34.1013H23.1378ZM23.1378 37V36.1765H11.1826V37V37.8235H23.1378V37ZM35.9999 34.6745L35.4181 35.2573L35.9993 35.8375L36.5811 35.2579L35.9999 34.6745ZM26.2146 24.9056L25.629 24.3266L25.0528 24.9094L25.6328 25.4884L26.2146 24.9056ZM28.36 22.7356L28.9423 22.1533L28.3567 21.5677L27.7744 22.1566L28.36 22.7356ZM38.1535 32.5291L38.7347 33.1125L39.3192 32.5302L38.7358 31.9468L38.1535 32.5291ZM28.36 34.6745L27.7777 35.2568L28.3593 35.8384L28.9416 35.2575L28.36 34.6745ZM26.2146 32.5291L25.6321 31.947L25.0502 32.5293L25.6323 33.1114L26.2146 32.5291ZM35.9999 22.7356L36.5844 22.1555L36.0019 21.5685L35.4173 22.1535L35.9999 22.7356ZM38.1535 24.9056L38.7351 25.4886L39.3166 24.9085L38.738 24.3255L38.1535 24.9056ZM35.9999 34.6745L36.5817 34.0917L26.7965 24.3228L26.2146 24.9056L25.6328 25.4884L35.4181 35.2573L35.9999 34.6745ZM26.2146 24.9056L26.8003 25.4846L28.9457 23.3146L28.36 22.7356L27.7744 22.1566L25.629 24.3266L26.2146 24.9056ZM28.36 22.7356L27.7777 23.3179L37.5711 33.1114L38.1535 32.5291L38.7358 31.9468L28.9423 22.1533L28.36 22.7356ZM38.1535 32.5291L37.5723 31.9456L35.4187 34.091L35.9999 34.6745L36.5811 35.2579L38.7347 33.1125L38.1535 32.5291ZM28.36 34.6745L28.9423 34.0921L26.797 31.9468L26.2146 32.5291L25.6323 33.1114L27.7777 35.2568L28.36 34.6745ZM26.2146 32.5291L26.7972 33.1112L36.5825 23.3177L35.9999 22.7356L35.4173 22.1535L25.6321 31.947L26.2146 32.5291ZM35.9999 22.7356L35.4154 23.3157L37.5689 25.4857L38.1535 24.9056L38.738 24.3255L36.5844 22.1555L35.9999 22.7356ZM38.1535 24.9056L37.5719 24.3225L27.7784 34.0914L28.36 34.6745L28.9416 35.2575L38.7351 25.4886L38.1535 24.9056ZM44.4095 36.5906L44.0575 37.3351L44.0593 37.3359L44.4095 36.5906ZM42.2641 34.83L42.9362 34.3542L42.9362 34.3542L42.2641 34.83ZM41.4371 32.2589V31.4353H40.5947L40.6137 32.2775L41.4371 32.2589ZM44.8762 32.2589L45.6983 32.2105L45.6527 31.4353H44.8762V32.2589ZM45.6951 33.8392L46.2078 33.1948L46.2078 33.1948L45.6951 33.8392ZM48.9787 34.0767L49.3902 34.79L49.3931 34.7884L48.9787 34.0767ZM49.9859 33.0368L49.2639 32.6406L49.2622 32.6437L49.9859 33.0368ZM49.9777 29.9415L49.2557 30.3377L49.2594 30.3444L49.9777 29.9415ZM48.9541 28.8934L48.5436 29.6073L48.5436 29.6073L48.9541 28.8934ZM47.4556 28.5085L47.4636 27.685H47.4556V28.5085ZM46.0226 28.8115L45.6939 28.0564L45.6907 28.0578L46.0226 28.8115ZM44.9499 29.6385L44.8047 30.4491L45.3099 30.5397L45.6137 30.126L44.9499 29.6385ZM41.7974 29.0735L40.9771 28.9999L40.9097 29.7511L41.6521 29.8841L41.7974 29.0735ZM42.5916 20.2299V19.4064H41.8388L41.7714 20.1563L42.5916 20.2299ZM52.8436 20.2299H53.6672V19.4064H52.8436V20.2299ZM52.8436 23.1287V23.9522H53.6672V23.1287H52.8436ZM45.5149 23.1287V22.3051H44.7721L44.6958 23.044L45.5149 23.1287ZM45.0809 27.3294L44.2618 27.2447L44.168 28.1529H45.0809V27.3294ZM45.1792 27.3294V28.1529H45.6043L45.8505 27.8064L45.1792 27.3294ZM46.5139 26.2976L46.8573 27.0462L46.8573 27.0462L46.5139 26.2976ZM51.2141 26.6006L51.6378 25.8944L51.6378 25.8944L51.2141 26.6006ZM53.0893 28.5577L52.3685 28.956L52.3696 28.958L53.0893 28.5577ZM53.7689 31.4073L52.9454 31.4031L52.9454 31.4112L53.7689 31.4073ZM52.9829 34.4206L52.2775 33.9956L52.2767 33.9969L52.9829 34.4206ZM50.7801 36.4841L51.1653 37.2121L51.1668 37.2112L50.7801 36.4841ZM47.5047 37.2293V36.4057C46.4497 36.4057 45.5405 36.2121 44.7597 35.8452L44.4095 36.5906L44.0593 37.3359C45.0909 37.8207 46.2452 38.0528 47.5047 38.0528V37.2293ZM44.4095 36.5906L44.7614 35.846C43.9773 35.4753 43.3769 34.9765 42.9362 34.3542L42.2641 34.83L41.592 35.3059C42.2104 36.1793 43.0402 36.8542 44.0575 37.3351L44.4095 36.5906ZM42.2641 34.83L42.9362 34.3542C42.5069 33.7478 42.2787 33.0519 42.2604 32.2403L41.4371 32.2589L40.6137 32.2775C40.6391 33.3983 40.9623 34.4166 41.592 35.3059L42.2641 34.83ZM41.4371 32.2589V33.0824H44.8762V32.2589V31.4353H41.4371V32.2589ZM44.8762 32.2589L44.0541 32.3072C44.106 33.1896 44.4909 33.9335 45.1823 34.4837L45.6951 33.8392L46.2078 33.1948C45.8839 32.9371 45.7229 32.6273 45.6983 32.2105L44.8762 32.2589ZM45.6951 33.8392L45.1823 34.4837C45.8473 35.0128 46.6351 35.2687 47.5047 35.2687V34.4452V33.6217C46.9769 33.6217 46.5582 33.4736 46.2078 33.1948L45.6951 33.8392ZM47.5047 34.4452V35.2687C48.1865 35.2687 48.8234 35.1171 49.3902 34.79L48.9787 34.0767L48.5671 33.3634C48.2824 33.5277 47.9366 33.6217 47.5047 33.6217V34.4452ZM48.9787 34.0767L49.3931 34.7884C49.9558 34.4607 50.398 34.0034 50.7095 33.4299L49.9859 33.0368L49.2622 32.6437C49.0934 32.9545 48.8641 33.1905 48.5643 33.365L48.9787 34.0767ZM49.9859 33.0368L50.7078 33.433C51.0286 32.8485 51.1779 32.1958 51.1779 31.4973H50.3543H49.5308C49.5308 31.9562 49.4345 32.3298 49.2639 32.6406L49.9859 33.0368ZM50.3543 31.4973H51.1779C51.1779 30.7879 51.0257 30.1266 50.6959 29.5386L49.9777 29.9415L49.2594 30.3444C49.4318 30.6517 49.5308 31.0276 49.5308 31.4973H50.3543ZM49.9777 29.9415L50.6996 29.5453C50.3823 28.9671 49.9342 28.507 49.3646 28.1795L48.9541 28.8934L48.5436 29.6073C48.8475 29.782 49.0817 30.0206 49.2557 30.3377L49.9777 29.9415ZM48.9541 28.8934L49.3646 28.1795C48.7916 27.85 48.1505 27.6917 47.4636 27.685L47.4556 28.5085L47.4476 29.332C47.8853 29.3363 48.2432 29.4346 48.5436 29.6073L48.9541 28.8934ZM47.4556 28.5085V27.685C46.8478 27.685 46.2585 27.8107 45.6939 28.0564L46.0226 28.8115L46.3513 29.5666C46.7148 29.4084 47.0808 29.3321 47.4556 29.3321V28.5085ZM46.0226 28.8115L45.6907 28.0578C45.1209 28.3088 44.6407 28.6684 44.2862 29.1511L44.9499 29.6385L45.6137 30.126C45.7724 29.9099 46.0072 29.7182 46.3546 29.5652L46.0226 28.8115ZM44.9499 29.6385L45.0952 28.8279L41.9426 28.2629L41.7974 29.0735L41.6521 29.8841L44.8047 30.4491L44.9499 29.6385ZM41.7974 29.0735L42.6176 29.1472L43.4119 20.3036L42.5916 20.2299L41.7714 20.1563L40.9771 28.9999L41.7974 29.0735ZM42.5916 20.2299V21.0535H52.8436V20.2299V19.4064H42.5916V20.2299ZM52.8436 20.2299H52.0201V23.1287H52.8436H53.6672V20.2299H52.8436ZM52.8436 23.1287V22.3051H45.5149V23.1287V23.9522H52.8436V23.1287ZM45.5149 23.1287L44.6958 23.044L44.2618 27.2447L45.0809 27.3294L45.9001 27.414L46.3341 23.2133L45.5149 23.1287ZM45.0809 27.3294V28.1529H45.1792V27.3294V26.5058H45.0809V27.3294ZM45.1792 27.3294L45.8505 27.8064C46.041 27.5383 46.3567 27.2758 46.8573 27.0462L46.5139 26.2976L46.1706 25.5491C45.4811 25.8654 44.907 26.2907 44.5079 26.8524L45.1792 27.3294ZM46.5139 26.2976L46.8573 27.0462C47.3318 26.8285 47.8785 26.7117 48.5119 26.7117V25.8882V25.0647C47.6714 25.0647 46.8861 25.2209 46.1706 25.5491L46.5139 26.2976ZM48.5119 25.8882V26.7117C49.3871 26.7117 50.1387 26.9158 50.7904 27.3068L51.2141 26.6006L51.6378 25.8944C50.7064 25.3356 49.6566 25.0647 48.5119 25.0647V25.8882ZM51.2141 26.6006L50.7904 27.3068C51.4541 27.705 51.9782 28.2496 52.3685 28.956L53.0893 28.5577L53.8101 28.1593C53.2833 27.2062 52.5573 26.4461 51.6378 25.8944L51.2141 26.6006ZM53.0893 28.5577L52.3696 28.958C52.7502 29.6422 52.9503 30.4491 52.9454 31.4031L53.7689 31.4073L54.5925 31.4114C54.5985 30.2146 54.3455 29.1218 53.809 28.1573L53.0893 28.5577ZM53.7689 31.4073L52.9454 31.4112C52.9502 32.4059 52.7212 33.2591 52.2775 33.9956L52.9829 34.4206L53.6882 34.8456C54.3035 33.8244 54.5986 32.6686 54.5925 31.4033L53.7689 31.4073ZM52.9829 34.4206L52.2767 33.9969C51.8335 34.7355 51.2127 35.3214 50.3935 35.757L50.7801 36.4841L51.1668 37.2112C52.2364 36.6424 53.0841 35.8526 53.689 34.8443L52.9829 34.4206ZM50.7801 36.4841L50.395 35.7562C49.5936 36.1802 48.6382 36.4057 47.5047 36.4057V37.2293V38.0528C48.8606 38.0528 50.0888 37.7816 51.1653 37.2121L50.7801 36.4841Z" fill="#2B3F46" mask="url(#path-33-outside-1_2025_1054)"/>
<defs>
<linearGradient id="paint0_linear_2025_1054" x1="35.8411" y1="35.864" x2="-1.88188" y2="2.08424" gradientUnits="userSpaceOnUse">
<stop stop-color="#FFD5EF"/>
<stop offset="1" stop-color="#EFBDFD"/>
</linearGradient>
<linearGradient id="paint1_linear_2025_1054" x1="26.8809" y1="4.483" x2="25.174" y2="-4.68761" gradientUnits="userSpaceOnUse">
<stop stop-color="#F95457"/>
<stop offset="1" stop-color="#FDBDCB"/>
</linearGradient>
<linearGradient id="paint2_linear_2025_1054" x1="26.8809" y1="4.483" x2="25.174" y2="-4.68761" gradientUnits="userSpaceOnUse">
<stop stop-color="#F95457"/>
<stop offset="1" stop-color="#FDBDCB"/>
</linearGradient>
<linearGradient id="paint3_linear_2025_1054" x1="4.71795" y1="43.6522" x2="1.80375" y2="43.0282" gradientUnits="userSpaceOnUse">
<stop stop-color="#F95457"/>
<stop offset="1" stop-color="#FDBDCB"/>
</linearGradient>
<linearGradient id="paint4_linear_2025_1054" x1="35.7669" y1="58.0257" x2="30.2155" y2="50.8928" gradientUnits="userSpaceOnUse">
<stop stop-color="#F95457"/>
<stop offset="1" stop-color="#FDBDCB"/>
</linearGradient>
<linearGradient id="paint5_linear_2025_1054" x1="60.6657" y1="43.6522" x2="57.7515" y2="43.0282" gradientUnits="userSpaceOnUse">
<stop stop-color="#F95457"/>
<stop offset="1" stop-color="#FDBDCB"/>
</linearGradient>
<linearGradient id="paint6_linear_2025_1054" x1="-1.09962e-05" y1="-0.0328651" x2="30.641" y2="-4.05264" gradientUnits="userSpaceOnUse">
<stop stop-color="#D74446"/>
<stop offset="1" stop-color="#E165B8"/>
</linearGradient>
<linearGradient id="paint7_linear_2025_1054" x1="-1.11276e-05" y1="-0.033258" x2="31.0073" y2="-4.10108" gradientUnits="userSpaceOnUse">
<stop stop-color="#D74446"/>
<stop offset="1" stop-color="#E165B8"/>
</linearGradient>
<linearGradient id="paint8_linear_2025_1054" x1="-8.34573e-06" y1="-0.00415724" x2="14.606" y2="-11.5011" gradientUnits="userSpaceOnUse">
<stop stop-color="#D1369D"/>
<stop offset="1" stop-color="#B31E20"/>
</linearGradient>
<linearGradient id="paint9_linear_2025_1054" x1="-8.34573e-06" y1="-0.00415724" x2="14.606" y2="-11.5011" gradientUnits="userSpaceOnUse">
<stop stop-color="#D74446"/>
<stop offset="1" stop-color="#E165B8"/>
</linearGradient>
<linearGradient id="paint10_linear_2025_1054" x1="2.32056" y1="36.6188" x2="3.73346" y2="36.5744" gradientUnits="userSpaceOnUse">
<stop stop-color="#D74446"/>
<stop offset="1" stop-color="#D1369D"/>
</linearGradient>
<linearGradient id="paint11_linear_2025_1054" x1="27.5452" y1="52.5135" x2="34.1403" y2="51.2721" gradientUnits="userSpaceOnUse">
<stop stop-color="#B31E20"/>
<stop offset="1" stop-color="#D74446"/>
</linearGradient>
<linearGradient id="paint12_linear_2025_1054" x1="59.0066" y1="36.6188" x2="60.4195" y2="36.5744" gradientUnits="userSpaceOnUse">
<stop stop-color="#E165B8"/>
<stop offset="1" stop-color="#D74446"/>
</linearGradient>
<clipPath id="clip0_2025_1054">
<rect width="35.8992" height="35.8992" rx="4.44179" transform="matrix(0.866025 0.5 -0.866025 0.5 31.9104 19)" fill="white"/>
</clipPath>
<clipPath id="clip1_2025_1054">
<rect width="36.3731" height="36.3731" rx="4.50041" transform="matrix(0.866025 0.5 -0.866025 0.5 31.5 18.4604)" fill="white"/>
</clipPath>
</defs>
</svg>
