<svg width="64" height="64" viewBox="0 0 64 64" fill="none" xmlns="http://www.w3.org/2000/svg">
<rect width="35.8551" height="35.8551" rx="4.37833" transform="matrix(0.866025 0.5 -0.866025 0.5 31.8887 19)" fill="url(#paint0_linear_2025_1564)"/>
<rect width="26.8913" height="4.48189" transform="matrix(0.866025 0.5 0 1 4.71851 39.1685)" fill="url(#paint1_linear_2025_1564)"/>
<rect width="26.8913" height="4.48189" transform="matrix(0.866025 -0.5 0 1 35.7698 52.6143)" fill="url(#paint2_linear_2025_1564)"/>
<path d="M3.11084 36.9277C3.11084 37.8029 3.72524 38.5952 4.71858 39.1687V43.6506C3.72524 43.0771 3.11084 42.2848 3.11084 41.4096V36.9277Z" fill="url(#paint3_linear_2025_1564)"/>
<path d="M28.0071 52.6143C30.1507 53.8519 33.6263 53.8519 35.7699 52.6143V57.0961C33.6263 58.3338 30.1507 58.3338 28.0071 57.0961V52.6143Z" fill="url(#paint4_linear_2025_1564)"/>
<path d="M60.6663 36.9277C60.6663 37.8029 60.0519 38.5952 59.0586 39.1687V43.6506C60.0519 43.0771 60.6663 42.2848 60.6663 41.4096V36.9277Z" fill="url(#paint5_linear_2025_1564)"/>
<g clip-path="url(#clip0_2025_1564)">
<rect width="35.8992" height="35.8992" rx="4.44179" transform="matrix(0.866025 0.5 -0.866025 0.5 31.9104 19)" fill="url(#paint6_linear_2025_1564)"/>
<rect width="11.5594" height="11.5594" transform="matrix(0.866025 0.5 -0.866025 0.5 31.9104 19)" fill="black" fill-opacity="0.1"/>
<rect width="11.5594" height="11.5594" transform="matrix(0.866025 0.5 -0.866025 0.5 21.3711 25.085)" fill="black" fill-opacity="0.1"/>
<rect width="11.5594" height="11.5594" transform="matrix(0.866025 0.5 -0.866025 0.5 21.3711 37.2549)" fill="black" fill-opacity="0.1"/>
<rect width="11.5594" height="11.5594" transform="matrix(0.866025 0.5 -0.866025 0.5 42.45 25.085)" fill="black" fill-opacity="0.1"/>
<rect width="11.5594" height="11.5594" transform="matrix(0.866025 0.5 -0.866025 0.5 42.45 37.2549)" fill="black" fill-opacity="0.1"/>
<rect width="11.5594" height="11.5594" transform="matrix(0.866025 0.5 -0.866025 0.5 52.9893 31.1699)" fill="black" fill-opacity="0.1"/>
<rect width="11.5594" height="11.5594" transform="matrix(0.866025 0.5 -0.866025 0.5 10.8315 31.1699)" fill="black" fill-opacity="0.1"/>
<rect width="11.5594" height="11.5594" transform="matrix(0.866025 0.5 -0.866025 0.5 31.9104 43.3398)" fill="black" fill-opacity="0.1"/>
<rect width="11.5594" height="11.5594" transform="matrix(0.866025 0.5 -0.866025 0.5 31.9104 31.1699)" fill="black" fill-opacity="0.1"/>
</g>
<mask id="path-17-outside-1_2025_1564" maskUnits="userSpaceOnUse" x="9" y="19" width="46" height="20" fill="black">
<rect fill="white" x="9" y="19" width="46" height="20"/>
<path d="M17.4386 37.2293C16.5761 37.2238 15.7436 37.0792 14.9411 36.7953C14.1441 36.5114 13.429 36.0501 12.7957 35.4114C12.1625 34.7727 11.6603 33.9266 11.289 32.873C10.9233 31.8194 10.7404 30.5256 10.7404 28.9916C10.7459 27.5832 10.9069 26.3249 11.2235 25.2167C11.5456 24.1031 12.0042 23.1587 12.5992 22.3835C13.1997 21.6083 13.9176 21.0188 14.7528 20.6148C15.588 20.2054 16.5242 20.0007 17.5614 20.0007C18.6805 20.0007 19.6686 20.219 20.5257 20.6557C21.3827 21.087 22.0706 21.6739 22.5892 22.4163C23.1132 23.1587 23.4299 23.9912 23.539 24.9138H20.0426C19.9061 24.3297 19.6195 23.8711 19.1828 23.5381C18.746 23.2051 18.2056 23.0386 17.5614 23.0386C16.4696 23.0386 15.6399 23.5135 15.0721 24.4634C14.5099 25.4133 14.2233 26.7043 14.2123 28.3366H14.327C14.5781 27.8398 14.9165 27.4167 15.3424 27.0673C15.7736 26.7125 16.2622 26.4423 16.8081 26.2567C17.3595 26.0656 17.9408 25.9701 18.5522 25.9701C19.5458 25.9701 20.4301 26.2048 21.2053 26.6743C21.9805 27.1383 22.5919 27.777 23.0395 28.5904C23.4872 29.4038 23.711 30.3346 23.711 31.3827C23.711 32.5182 23.4462 33.5281 22.9167 34.4124C22.3927 35.2968 21.6584 35.9901 20.714 36.4923C19.7751 36.9891 18.6833 37.2347 17.4386 37.2293ZM17.4222 34.4452C17.9681 34.4452 18.4567 34.3142 18.888 34.0521C19.3192 33.7901 19.6577 33.4353 19.9033 32.9876C20.149 32.54 20.2718 32.0378 20.2718 31.4809C20.2718 30.9241 20.149 30.4246 19.9033 29.9825C19.6632 29.5403 19.3302 29.1882 18.9043 28.9261C18.4785 28.6641 17.9927 28.5331 17.4468 28.5331C17.0374 28.5331 16.658 28.6095 16.3086 28.7624C15.9647 28.9152 15.6617 29.1281 15.3997 29.4011C15.1431 29.674 14.9411 29.9906 14.7937 30.3509C14.6463 30.7058 14.5726 31.0852 14.5726 31.4891C14.5726 32.0296 14.6955 32.5236 14.9411 32.9713C15.1922 33.4189 15.5307 33.7765 15.9565 34.044C16.3877 34.3114 16.8763 34.4452 17.4222 34.4452ZM36.5178 34.6745L26.7326 24.9056L28.8779 22.7356L38.6714 32.5291L36.5178 34.6745ZM28.8779 34.6745L26.7326 32.5291L36.5178 22.7356L38.6714 24.9056L28.8779 34.6745ZM41.8977 37V34.4452L47.8671 28.9179C48.3748 28.4266 48.8006 27.9845 49.1445 27.5914C49.4939 27.1984 49.7586 26.8135 49.9388 26.4368C50.1189 26.0547 50.209 25.6425 50.209 25.2004C50.209 24.7091 50.0971 24.286 49.8733 23.9311C49.6495 23.5709 49.3437 23.2952 48.9562 23.1041C48.5686 22.9076 48.1291 22.8093 47.6378 22.8093C47.1247 22.8093 46.677 22.913 46.2949 23.1205C45.9128 23.3279 45.618 23.6254 45.4105 24.013C45.2031 24.4006 45.0994 24.8619 45.0994 25.3969H41.7339C41.7339 24.2996 41.9823 23.347 42.4791 22.5391C42.9758 21.7312 43.6718 21.1061 44.5671 20.6639C45.4624 20.2218 46.4941 20.0007 47.6624 20.0007C48.8634 20.0007 49.9088 20.2136 50.7986 20.6394C51.6938 21.0597 52.3899 21.6438 52.8866 22.3917C53.3834 23.1396 53.6318 23.9967 53.6318 24.9629C53.6318 25.5961 53.5062 26.2212 53.2551 26.8381C53.0095 27.4549 52.57 28.14 51.9368 28.8934C51.3035 29.6413 50.411 30.5393 49.2591 31.5874L46.8108 33.9866V34.1013H53.8529V37H41.8977Z"/>
</mask>
<path d="M17.4386 37.2293C16.5761 37.2238 15.7436 37.0792 14.9411 36.7953C14.1441 36.5114 13.429 36.0501 12.7957 35.4114C12.1625 34.7727 11.6603 33.9266 11.289 32.873C10.9233 31.8194 10.7404 30.5256 10.7404 28.9916C10.7459 27.5832 10.9069 26.3249 11.2235 25.2167C11.5456 24.1031 12.0042 23.1587 12.5992 22.3835C13.1997 21.6083 13.9176 21.0188 14.7528 20.6148C15.588 20.2054 16.5242 20.0007 17.5614 20.0007C18.6805 20.0007 19.6686 20.219 20.5257 20.6557C21.3827 21.087 22.0706 21.6739 22.5892 22.4163C23.1132 23.1587 23.4299 23.9912 23.539 24.9138H20.0426C19.9061 24.3297 19.6195 23.8711 19.1828 23.5381C18.746 23.2051 18.2056 23.0386 17.5614 23.0386C16.4696 23.0386 15.6399 23.5135 15.0721 24.4634C14.5099 25.4133 14.2233 26.7043 14.2123 28.3366H14.327C14.5781 27.8398 14.9165 27.4167 15.3424 27.0673C15.7736 26.7125 16.2622 26.4423 16.8081 26.2567C17.3595 26.0656 17.9408 25.9701 18.5522 25.9701C19.5458 25.9701 20.4301 26.2048 21.2053 26.6743C21.9805 27.1383 22.5919 27.777 23.0395 28.5904C23.4872 29.4038 23.711 30.3346 23.711 31.3827C23.711 32.5182 23.4462 33.5281 22.9167 34.4124C22.3927 35.2968 21.6584 35.9901 20.714 36.4923C19.7751 36.9891 18.6833 37.2347 17.4386 37.2293ZM17.4222 34.4452C17.9681 34.4452 18.4567 34.3142 18.888 34.0521C19.3192 33.7901 19.6577 33.4353 19.9033 32.9876C20.149 32.54 20.2718 32.0378 20.2718 31.4809C20.2718 30.9241 20.149 30.4246 19.9033 29.9825C19.6632 29.5403 19.3302 29.1882 18.9043 28.9261C18.4785 28.6641 17.9927 28.5331 17.4468 28.5331C17.0374 28.5331 16.658 28.6095 16.3086 28.7624C15.9647 28.9152 15.6617 29.1281 15.3997 29.4011C15.1431 29.674 14.9411 29.9906 14.7937 30.3509C14.6463 30.7058 14.5726 31.0852 14.5726 31.4891C14.5726 32.0296 14.6955 32.5236 14.9411 32.9713C15.1922 33.4189 15.5307 33.7765 15.9565 34.044C16.3877 34.3114 16.8763 34.4452 17.4222 34.4452ZM36.5178 34.6745L26.7326 24.9056L28.8779 22.7356L38.6714 32.5291L36.5178 34.6745ZM28.8779 34.6745L26.7326 32.5291L36.5178 22.7356L38.6714 24.9056L28.8779 34.6745ZM41.8977 37V34.4452L47.8671 28.9179C48.3748 28.4266 48.8006 27.9845 49.1445 27.5914C49.4939 27.1984 49.7586 26.8135 49.9388 26.4368C50.1189 26.0547 50.209 25.6425 50.209 25.2004C50.209 24.7091 50.0971 24.286 49.8733 23.9311C49.6495 23.5709 49.3437 23.2952 48.9562 23.1041C48.5686 22.9076 48.1291 22.8093 47.6378 22.8093C47.1247 22.8093 46.677 22.913 46.2949 23.1205C45.9128 23.3279 45.618 23.6254 45.4105 24.013C45.2031 24.4006 45.0994 24.8619 45.0994 25.3969H41.7339C41.7339 24.2996 41.9823 23.347 42.4791 22.5391C42.9758 21.7312 43.6718 21.1061 44.5671 20.6639C45.4624 20.2218 46.4941 20.0007 47.6624 20.0007C48.8634 20.0007 49.9088 20.2136 50.7986 20.6394C51.6938 21.0597 52.3899 21.6438 52.8866 22.3917C53.3834 23.1396 53.6318 23.9967 53.6318 24.9629C53.6318 25.5961 53.5062 26.2212 53.2551 26.8381C53.0095 27.4549 52.57 28.14 51.9368 28.8934C51.3035 29.6413 50.411 30.5393 49.2591 31.5874L46.8108 33.9866V34.1013H53.8529V37H41.8977Z" fill="white"/>
<path d="M17.4386 37.2293L17.4334 38.0528L17.435 38.0528L17.4386 37.2293ZM14.9411 36.7953L14.6648 37.5711L14.6665 37.5717L14.9411 36.7953ZM12.7957 35.4114L12.2109 35.9912L12.2109 35.9912L12.7957 35.4114ZM11.289 32.873L10.511 33.1431L10.5123 33.1467L11.289 32.873ZM10.7404 28.9916L9.91688 28.9885V28.9916H10.7404ZM11.2235 25.2167L10.4324 24.9879L10.4317 24.9905L11.2235 25.2167ZM12.5992 22.3835L11.9482 21.8792L11.9459 21.8821L12.5992 22.3835ZM14.7528 20.6148L15.1114 21.3562L15.1153 21.3543L14.7528 20.6148ZM20.5257 20.6557L20.1518 21.3895L20.1555 21.3914L20.5257 20.6557ZM22.5892 22.4163L21.914 22.8879L21.9164 22.8912L22.5892 22.4163ZM23.539 24.9138V25.7373H24.4658L24.3569 24.817L23.539 24.9138ZM20.0426 24.9138L19.2406 25.1011L19.3893 25.7373H20.0426V24.9138ZM15.0721 24.4634L14.3652 24.0409L14.3635 24.0439L15.0721 24.4634ZM14.2123 28.3366L13.3888 28.3311L13.3833 29.1601H14.2123V28.3366ZM14.327 28.3366V29.1601H14.8335L15.0619 28.7081L14.327 28.3366ZM15.3424 27.0673L15.8647 27.704L15.8656 27.7033L15.3424 27.0673ZM16.8081 26.2567L17.0732 27.0364L17.0777 27.0348L16.8081 26.2567ZM21.2053 26.6743L20.7787 27.3787L20.7823 27.3809L21.2053 26.6743ZM22.9167 34.4124L22.2102 33.9894L22.2082 33.9926L22.9167 34.4124ZM20.714 36.4923L21.0991 37.2202L21.1007 37.2194L20.714 36.4923ZM18.888 34.0521L19.3156 34.7559L19.3156 34.7559L18.888 34.0521ZM19.9033 32.9876L20.6253 33.3838L20.6253 33.3838L19.9033 32.9876ZM19.9033 29.9825L19.1797 30.3756L19.1835 30.3824L19.9033 29.9825ZM18.9043 28.9261L19.336 28.2248L19.336 28.2248L18.9043 28.9261ZM16.3086 28.7624L15.9785 28.0079L15.9741 28.0098L16.3086 28.7624ZM15.3997 29.4011L14.8056 28.8307L14.7996 28.837L15.3997 29.4011ZM14.7937 30.3509L15.5543 30.6669L15.5559 30.6628L14.7937 30.3509ZM14.9411 32.9713L14.2191 33.3675L14.2229 33.3742L14.9411 32.9713ZM15.9565 34.044L15.5184 34.7413L15.5224 34.7438L15.9565 34.044ZM17.4386 37.2293L17.4438 36.4058C16.6719 36.4009 15.9305 36.2717 15.2158 36.0189L14.9411 36.7953L14.6665 37.5717C15.5567 37.8866 16.4803 38.0468 17.4334 38.0528L17.4386 37.2293ZM14.9411 36.7953L15.2174 36.0195C14.5439 35.7796 13.9325 35.3884 13.3805 34.8316L12.7957 35.4114L12.2109 35.9912C12.9254 36.7119 13.7443 37.2432 14.6648 37.5711L14.9411 36.7953ZM12.7957 35.4114L13.3805 34.8316C12.8513 34.2978 12.406 33.5651 12.0658 32.5993L11.289 32.873L10.5123 33.1467C10.9145 34.2881 11.4736 35.2476 12.2109 35.9912L12.7957 35.4114ZM11.289 32.873L12.067 32.6029C11.7404 31.662 11.5639 30.4657 11.5639 28.9916H10.7404H9.91688C9.91688 30.5855 10.1062 31.9768 10.5111 33.1431L11.289 32.873ZM10.7404 28.9916L11.5639 28.9948C11.5692 27.6458 11.7235 26.4646 12.0154 25.443L11.2235 25.2167L10.4317 24.9905C10.0903 26.1852 9.92258 27.5206 9.91689 28.9885L10.7404 28.9916ZM11.2235 25.2167L12.0146 25.4455C12.3134 24.4126 12.7305 23.565 13.2525 22.885L12.5992 22.3835L11.9459 21.8821C11.2779 22.7524 10.7778 23.7936 10.4324 24.9879L11.2235 25.2167ZM12.5992 22.3835L13.2502 22.8878C13.7774 22.2073 14.3971 21.7016 15.1113 21.3562L14.7528 20.6148L14.3942 19.8734C13.438 20.3359 12.622 21.0093 11.9482 21.8792L12.5992 22.3835ZM14.7528 20.6148L15.1153 21.3543C15.8252 21.0062 16.6353 20.8242 17.5614 20.8242V20.0007V19.1771C16.4132 19.1771 15.3508 19.4045 14.3903 19.8753L14.7528 20.6148ZM17.5614 20.0007V20.8242C18.5718 20.8242 19.4281 21.0207 20.1518 21.3895L20.5257 20.6557L20.8996 19.922C19.9091 19.4173 18.7893 19.1771 17.5614 19.1771V20.0007ZM20.5257 20.6557L20.1555 21.3914C20.8981 21.765 21.4783 22.2641 21.914 22.8879L22.5892 22.4163L23.2643 21.9447C22.6628 21.0836 21.8674 20.409 20.8958 19.9201L20.5257 20.6557ZM22.5892 22.4163L21.9164 22.8912C22.3596 23.519 22.6278 24.221 22.7212 25.0106L23.539 24.9138L24.3569 24.817C24.2319 23.7614 23.8669 22.7984 23.262 21.9414L22.5892 22.4163ZM23.539 24.9138V24.0902H20.0426V24.9138V25.7373H23.539V24.9138ZM20.0426 24.9138L20.8445 24.7264C20.6688 23.9744 20.2853 23.3432 19.6821 22.8832L19.1828 23.5381L18.6834 24.193C18.9537 24.399 19.1434 24.6849 19.2406 25.1011L20.0426 24.9138ZM19.1828 23.5381L19.6821 22.8832C19.0781 22.4227 18.3536 22.2151 17.5614 22.2151V23.0386V23.8621C18.0575 23.8621 18.414 23.9875 18.6834 24.193L19.1828 23.5381ZM17.5614 23.0386V22.2151C16.1751 22.2151 15.0792 22.8465 14.3652 24.0409L15.0721 24.4634L15.779 24.8859C16.2006 24.1806 16.7642 23.8621 17.5614 23.8621V23.0386ZM15.0721 24.4634L14.3635 24.0439C13.6997 25.1653 13.4003 26.6181 13.3888 28.3311L14.2123 28.3366L15.0358 28.3421C15.0462 26.7906 15.32 25.6613 15.7808 24.8829L15.0721 24.4634ZM14.2123 28.3366V29.1601H14.327V28.3366V27.513H14.2123V28.3366ZM14.327 28.3366L15.0619 28.7081C15.262 28.3124 15.5284 27.9799 15.8647 27.704L15.3424 27.0673L14.82 26.4307C14.3047 26.8535 13.8942 27.3672 13.592 27.965L14.327 28.3366ZM15.3424 27.0673L15.8656 27.7033C16.2177 27.4136 16.6182 27.1911 17.0732 27.0364L16.8081 26.2567L16.543 25.477C15.9062 25.6935 15.3295 26.0114 14.8191 26.4314L15.3424 27.0673ZM16.8081 26.2567L17.0777 27.0348C17.5383 26.8752 18.0282 26.7936 18.5522 26.7936V25.9701V25.1466C17.8535 25.1466 17.1806 25.256 16.5384 25.4786L16.8081 26.2567ZM18.5522 25.9701V26.7936C19.4103 26.7936 20.1444 26.9946 20.7787 27.3787L21.2053 26.6743L21.6319 25.9699C20.7159 25.4151 19.6812 25.1466 18.5522 25.1466V25.9701ZM21.2053 26.6743L20.7823 27.3809C21.4288 27.7679 21.9387 28.2982 22.3181 28.9875L23.0395 28.5904L23.761 28.1933C23.2451 27.2559 22.5322 26.5088 21.6283 25.9677L21.2053 26.6743ZM23.0395 28.5904L22.3181 28.9875C22.6905 29.6642 22.8875 30.4552 22.8875 31.3827H23.711H24.5345C24.5345 30.2139 24.2839 29.1434 23.761 28.1933L23.0395 28.5904ZM23.711 31.3827H22.8875C22.8875 32.3847 22.6555 33.2456 22.2102 33.9894L22.9167 34.4124L23.6233 34.8355C24.237 33.8105 24.5345 32.6516 24.5345 31.3827H23.711ZM22.9167 34.4124L22.2082 33.9926C21.7644 34.7415 21.144 35.3309 20.3273 35.7652L20.714 36.4923L21.1007 37.2194C22.1728 36.6493 23.0209 35.8521 23.6252 34.8323L22.9167 34.4124ZM20.714 36.4923L20.3289 35.7644C19.5287 36.1877 18.5747 36.4107 17.4422 36.4058L17.4386 37.2293L17.435 38.0528C18.7918 38.0588 20.0214 37.7904 21.0991 37.2202L20.714 36.4923ZM17.4222 34.4452V35.2687C18.1062 35.2687 18.7449 35.1027 19.3156 34.7559L18.888 34.0521L18.4603 33.3483C18.1685 33.5257 17.8301 33.6217 17.4222 33.6217V34.4452ZM18.888 34.0521L19.3156 34.7559C19.8718 34.418 20.3111 33.9565 20.6253 33.3838L19.9033 32.9876L19.1814 32.5914C19.0043 32.9141 18.7667 33.1622 18.4603 33.3483L18.888 34.0521ZM19.9033 32.9876L20.6253 33.3838C20.9435 32.804 21.0954 32.1634 21.0954 31.4809H20.2718H19.4483C19.4483 31.9121 19.3545 32.276 19.1814 32.5914L19.9033 32.9876ZM20.2718 31.4809H21.0954C21.0954 30.7986 20.9435 30.1591 20.6232 29.5825L19.9033 29.9825L19.1835 30.3824C19.3545 30.6902 19.4483 31.0496 19.4483 31.4809H20.2718ZM19.9033 29.9825L20.627 29.5894C20.3185 29.0215 19.8852 28.5628 19.336 28.2248L18.9043 28.9261L18.4727 29.6275C18.7751 29.8136 19.0078 30.059 19.1797 30.3755L19.9033 29.9825ZM18.9043 28.9261L19.336 28.2248C18.7685 27.8756 18.1306 27.7096 17.4468 27.7096V28.5331V29.3566C17.8548 29.3566 18.1885 29.4526 18.4727 29.6275L18.9043 28.9261ZM17.4468 28.5331V27.7096C16.9322 27.7096 16.4395 27.8062 15.9785 28.0079L16.3086 28.7624L16.6387 29.5168C16.8765 29.4128 17.1425 29.3566 17.4468 29.3566V28.5331ZM16.3086 28.7624L15.9741 28.0098C15.5321 28.2063 15.1411 28.4812 14.8056 28.8307L15.3997 29.4011L15.9938 29.9714C16.1823 29.775 16.3972 29.6242 16.6431 29.5149L16.3086 28.7624ZM15.3997 29.4011L14.7996 28.837C14.4713 29.1863 14.2155 29.5892 14.0315 30.0391L14.7937 30.3509L15.5559 30.6628C15.6667 30.392 15.8149 30.1618 15.9997 29.9651L15.3997 29.4011ZM14.7937 30.3509L14.0332 30.035C13.8421 30.4951 13.7491 30.9824 13.7491 31.4891H14.5726H15.3962C15.3962 31.1879 15.4506 30.9165 15.5542 30.6668L14.7937 30.3509ZM14.5726 31.4891H13.7491C13.7491 32.1597 13.903 32.7913 14.2192 33.3675L14.9411 32.9713L15.6631 32.5751C15.488 32.256 15.3962 31.8994 15.3962 31.4891H14.5726ZM14.9411 32.9713L14.2229 33.3742C14.5399 33.9392 14.9736 34.399 15.5184 34.7413L15.9565 34.044L16.3946 33.3466C16.0878 33.1539 15.8446 32.8986 15.6593 32.5683L14.9411 32.9713ZM15.9565 34.044L15.5224 34.7438C16.0939 35.0983 16.735 35.2687 17.4222 35.2687V34.4452V33.6217C17.0176 33.6217 16.6816 33.5246 16.3906 33.3441L15.9565 34.044ZM36.5178 34.6745L35.936 35.2573L36.5172 35.8375L37.099 35.2579L36.5178 34.6745ZM26.7326 24.9056L26.1469 24.3266L25.5707 24.9094L26.1507 25.4884L26.7326 24.9056ZM28.8779 22.7356L29.4603 22.1533L28.8746 21.5677L28.2923 22.1566L28.8779 22.7356ZM38.6714 32.5291L39.2526 33.1125L39.8372 32.5302L39.2537 31.9468L38.6714 32.5291ZM28.8779 34.6745L28.2956 35.2568L28.8772 35.8384L29.4595 35.2575L28.8779 34.6745ZM26.7326 32.5291L26.15 31.947L25.5682 32.5293L26.1502 33.1114L26.7326 32.5291ZM36.5178 22.7356L37.1023 22.1555L36.5198 21.5685L35.9353 22.1535L36.5178 22.7356ZM38.6714 24.9056L39.253 25.4886L39.8346 24.9085L39.2559 24.3255L38.6714 24.9056ZM36.5178 34.6745L37.0997 34.0917L27.3144 24.3228L26.7326 24.9056L26.1507 25.4884L35.936 35.2573L36.5178 34.6745ZM26.7326 24.9056L27.3182 25.4846L29.4636 23.3146L28.8779 22.7356L28.2923 22.1566L26.1469 24.3266L26.7326 24.9056ZM28.8779 22.7356L28.2956 23.3179L38.0891 33.1114L38.6714 32.5291L39.2537 31.9468L29.4603 22.1533L28.8779 22.7356ZM38.6714 32.5291L38.0902 31.9456L35.9366 34.091L36.5178 34.6745L37.099 35.2579L39.2526 33.1125L38.6714 32.5291ZM28.8779 34.6745L29.4603 34.0921L27.3149 31.9468L26.7326 32.5291L26.1502 33.1114L28.2956 35.2568L28.8779 34.6745ZM26.7326 32.5291L27.3151 33.1112L37.1004 23.3177L36.5178 22.7356L35.9353 22.1535L26.15 31.947L26.7326 32.5291ZM36.5178 22.7356L35.9333 23.3157L38.0869 25.4857L38.6714 24.9056L39.2559 24.3255L37.1023 22.1555L36.5178 22.7356ZM38.6714 24.9056L38.0898 24.3225L28.2964 34.0914L28.8779 34.6745L29.4595 35.2575L39.253 25.4886L38.6714 24.9056ZM41.8977 37H41.0741V37.8235H41.8977V37ZM41.8977 34.4452L41.3382 33.8409L41.0741 34.0854V34.4452H41.8977ZM47.8671 28.9179L48.4266 29.5222L48.4333 29.5161L48.4398 29.5097L47.8671 28.9179ZM49.1445 27.5914L48.529 27.0443L48.5247 27.0491L49.1445 27.5914ZM49.9388 26.4368L50.6817 26.7922L50.6837 26.788L49.9388 26.4368ZM49.8733 23.9311L49.1737 24.3657L49.1767 24.3705L49.8733 23.9311ZM48.9562 23.1041L48.5837 23.8387L48.592 23.8428L48.9562 23.1041ZM45.4105 24.013L46.1366 24.4016L46.1366 24.4016L45.4105 24.013ZM45.0994 25.3969V26.2204H45.9229V25.3969H45.0994ZM41.7339 25.3969H40.9104V26.2204H41.7339V25.3969ZM42.4791 22.5391L43.1806 22.9704L43.1806 22.9704L42.4791 22.5391ZM44.5671 20.6639L44.2024 19.9256L44.2024 19.9256L44.5671 20.6639ZM50.7986 20.6394L50.4431 21.3822L50.4486 21.3848L50.7986 20.6394ZM52.8866 22.3917L52.2007 22.8474L52.2007 22.8474L52.8866 22.3917ZM53.2551 26.8381L52.4923 26.5276L52.49 26.5334L53.2551 26.8381ZM51.9368 28.8934L52.5653 29.4255L52.5672 29.4233L51.9368 28.8934ZM49.2591 31.5874L48.7049 30.9783L48.6936 30.9885L48.6827 30.9992L49.2591 31.5874ZM46.8108 33.9866L46.2344 33.3984L45.9872 33.6406V33.9866H46.8108ZM46.8108 34.1013H45.9872V34.9248H46.8108V34.1013ZM53.8529 34.1013H54.6764V33.2777H53.8529V34.1013ZM53.8529 37V37.8235H54.6764V37H53.8529ZM41.8977 37H42.7212V34.4452H41.8977H41.0741V37H41.8977ZM41.8977 34.4452L42.4572 35.0495L48.4266 29.5222L47.8671 28.9179L47.3076 28.3137L41.3382 33.8409L41.8977 34.4452ZM47.8671 28.9179L48.4398 29.5097C48.9586 29.0077 49.4012 28.5487 49.7643 28.1337L49.1445 27.5914L48.5247 27.0491C48.2 27.4203 47.791 27.8456 47.2944 28.3262L47.8671 28.9179ZM49.1445 27.5914L49.76 28.1385C50.148 27.702 50.461 27.2537 50.6817 26.7921L49.9388 26.4368L49.1958 26.0815C49.0563 26.3733 48.8397 26.6947 48.529 27.0443L49.1445 27.5914ZM49.9388 26.4368L50.6837 26.788C50.918 26.2909 51.0325 25.7582 51.0325 25.2004H50.209H49.3855C49.3855 25.5269 49.3198 25.8185 49.1939 26.0857L49.9388 26.4368ZM50.209 25.2004H51.0325C51.0325 24.5806 50.8899 23.9993 50.5698 23.4918L49.8733 23.9311L49.1767 24.3705C49.3042 24.5727 49.3855 24.8375 49.3855 25.2004H50.209ZM49.8733 23.9311L50.5728 23.4966C50.2662 23.003 49.8432 22.6232 49.3203 22.3655L48.9562 23.1041L48.592 23.8428C48.8443 23.9671 49.0327 24.1387 49.1737 24.3657L49.8733 23.9311ZM48.9562 23.1041L49.3286 22.3696C48.8113 22.1073 48.2415 21.9858 47.6378 21.9858V22.8093V23.6329C48.0168 23.6329 48.3259 23.7079 48.5837 23.8386L48.9562 23.1041ZM47.6378 22.8093V21.9858C47.0122 21.9858 46.4248 22.1129 45.902 22.3967L46.2949 23.1205L46.6878 23.8442C46.9293 23.7132 47.2371 23.6329 47.6378 23.6329V22.8093ZM46.2949 23.1205L45.902 22.3967C45.3768 22.6818 44.9669 23.0966 44.6845 23.6244L45.4105 24.013L46.1366 24.4016C46.269 24.1543 46.4487 23.974 46.6878 23.8442L46.2949 23.1205ZM45.4105 24.013L44.6845 23.6244C44.4006 24.1548 44.2758 24.7555 44.2758 25.3969H45.0994H45.9229C45.9229 24.9684 46.0056 24.6464 46.1366 24.4016L45.4105 24.013ZM45.0994 25.3969V24.5734H41.7339V25.3969V26.2204H45.0994V25.3969ZM41.7339 25.3969H42.5574C42.5574 24.4276 42.7754 23.6294 43.1806 22.9704L42.4791 22.5391L41.7775 22.1078C41.1891 23.0647 40.9104 24.1717 40.9104 25.3969H41.7339ZM42.4791 22.5391L43.1806 22.9704C43.5918 22.3016 44.1678 21.7797 44.9318 21.4023L44.5671 20.6639L44.2024 19.9256C43.1759 20.4326 42.3598 21.1607 41.7775 22.1078L42.4791 22.5391ZM44.5671 20.6639L44.9318 21.4023C45.6959 21.0249 46.5992 20.8242 47.6624 20.8242V20.0007V19.1771C46.3891 19.1771 45.2289 19.4186 44.2024 19.9256L44.5671 20.6639ZM47.6624 20.0007V20.8242C48.7666 20.8242 49.6857 21.0198 50.4431 21.3822L50.7986 20.6394L51.154 19.8965C50.1318 19.4073 48.9601 19.1771 47.6624 19.1771V20.0007ZM50.7986 20.6394L50.4486 21.3848C51.2217 21.7478 51.7956 22.2375 52.2007 22.8474L52.8866 22.3917L53.5726 21.9361C52.9842 21.0501 52.166 20.3716 51.1486 19.8939L50.7986 20.6394ZM52.8866 22.3917L52.2007 22.8474C52.6008 23.4498 52.8083 24.1458 52.8083 24.9629H53.6318H54.4553C54.4553 23.8475 54.166 22.8294 53.5726 21.9361L52.8866 22.3917ZM53.6318 24.9629H52.8083C52.8083 25.4842 52.7055 26.0041 52.4924 26.5276L53.2551 26.8381L54.0179 27.1486C54.307 26.4383 54.4553 25.7081 54.4553 24.9629H53.6318ZM53.2551 26.8381L52.49 26.5334C52.2886 27.0392 51.9076 27.6483 51.3064 28.3635L51.9368 28.8934L52.5672 29.4233C53.2325 28.6318 53.7303 27.8706 54.0202 27.1428L53.2551 26.8381ZM51.9368 28.8934L51.3083 28.3612C50.7074 29.0709 49.8438 29.942 48.7049 30.9783L49.2591 31.5874L49.8134 32.1965C50.9782 31.1366 51.8996 30.2117 52.5653 29.4255L51.9368 28.8934ZM49.2591 31.5874L48.6827 30.9992L46.2344 33.3984L46.8108 33.9866L47.3872 34.5748L49.8355 32.1756L49.2591 31.5874ZM46.8108 33.9866H45.9872V34.1013H46.8108H47.6343V33.9866H46.8108ZM46.8108 34.1013V34.9248H53.8529V34.1013V33.2777H46.8108V34.1013ZM53.8529 34.1013H53.0294V37H53.8529H54.6764V34.1013H53.8529ZM53.8529 37V36.1765H41.8977V37V37.8235H53.8529V37Z" fill="#2B3F46" mask="url(#path-17-outside-1_2025_1564)"/>
<defs>
<linearGradient id="paint0_linear_2025_1564" x1="35.8411" y1="35.864" x2="-1.88188" y2="2.08424" gradientUnits="userSpaceOnUse">
<stop stop-color="#FFD5EF"/>
<stop offset="1" stop-color="#EFBDFD"/>
</linearGradient>
<linearGradient id="paint1_linear_2025_1564" x1="0" y1="0" x2="15.9633" y2="15.6375" gradientUnits="userSpaceOnUse">
<stop stop-color="#AC93FC"/>
<stop offset="1" stop-color="#E593FC"/>
</linearGradient>
<linearGradient id="paint2_linear_2025_1564" x1="-8.23702e-06" y1="-0.00410309" x2="14.4158" y2="-11.3513" gradientUnits="userSpaceOnUse">
<stop stop-color="#D744C2"/>
<stop offset="1" stop-color="#C665E1"/>
</linearGradient>
<linearGradient id="paint3_linear_2025_1564" x1="3.11084" y1="36.9277" x2="4.97822" y2="37.0006" gradientUnits="userSpaceOnUse">
<stop stop-color="#AC93FC"/>
<stop offset="1" stop-color="#E593FC"/>
</linearGradient>
<linearGradient id="paint4_linear_2025_1564" x1="28.0071" y1="52.6093" x2="34.5163" y2="51.384" gradientUnits="userSpaceOnUse">
<stop stop-color="#D744C2"/>
<stop offset="1" stop-color="#C665E1"/>
</linearGradient>
<linearGradient id="paint5_linear_2025_1564" x1="59.0586" y1="36.9216" x2="60.4531" y2="36.8778" gradientUnits="userSpaceOnUse">
<stop stop-color="#D744C2"/>
<stop offset="1" stop-color="#C665E1"/>
</linearGradient>
<linearGradient id="paint6_linear_2025_1564" x1="35.8853" y1="35.9081" x2="-1.8842" y2="2.0868" gradientUnits="userSpaceOnUse">
<stop stop-color="#FAD5FF"/>
<stop offset="1" stop-color="#CFBDFD"/>
</linearGradient>
<clipPath id="clip0_2025_1564">
<rect width="35.8992" height="35.8992" rx="4.44179" transform="matrix(0.866025 0.5 -0.866025 0.5 31.9104 19)" fill="white"/>
</clipPath>
</defs>
</svg>
