<svg width="64" height="64" viewBox="0 0 64 64" fill="none" xmlns="http://www.w3.org/2000/svg">
<path d="M4.4006 33.9298C3.80774 33.582 3.47546 33.1136 3.47547 32.6257L3.47547 30.5016C3.47547 29.9566 3.88975 29.439 4.60873 29.0857L30.1348 16.5442C31.3579 15.9433 33.1609 15.9544 34.3614 16.5703L60.0608 29.7535C60.7487 30.1064 61.1422 30.6122 61.1422 31.1434V32.5436C61.1422 33.0309 60.8108 33.4987 60.2194 33.8464L34.5631 48.9278C33.3018 49.6692 31.2326 49.6699 29.9699 48.9292L4.4006 33.9298Z" fill="url(#paint0_linear_84_1192)"/>
<rect width="34.7831" height="34.7831" rx="2.62954" transform="matrix(0.866044 -0.499967 0.866044 0.499967 2.14404 30.3906)" fill="white"/>
<rect width="10.8697" height="10.8697" transform="matrix(0.866044 -0.499967 0.866044 0.499967 12.2639 30.3906)" fill="#D9D9D9"/>
<rect width="10.8697" height="10.8697" transform="matrix(0.866044 -0.499967 0.866044 0.499967 22.8542 24.2769)" fill="#D9D9D9"/>
<rect width="10.8697" height="10.8697" transform="matrix(0.866044 -0.499967 0.866044 0.499967 22.8542 36.5044)" fill="#D9D9D9"/>
<rect width="10.8697" height="10.8697" transform="matrix(0.866044 -0.499967 0.866044 0.499967 33.4446 30.3906)" fill="#D9D9D9"/>
<mask id="path-7-outside-1_84_1192" maskUnits="userSpaceOnUse" x="19" y="23" width="27" height="13" fill="black">
<rect fill="white" x="19" y="23" width="27" height="13"/>
<path d="M20.4473 35V34.1039L23.8125 30.4201C24.2074 29.9887 24.5327 29.6136 24.7882 29.295C25.0438 28.9731 25.2329 28.6711 25.3557 28.389C25.4819 28.1036 25.5449 27.8049 25.5449 27.493C25.5449 27.1345 25.4586 26.8242 25.286 26.562C25.1168 26.2999 24.8845 26.0974 24.5891 25.9547C24.2937 25.812 23.9619 25.7406 23.5935 25.7406C23.2019 25.7406 22.86 25.822 22.568 25.9846C22.2792 26.1439 22.0552 26.3679 21.8959 26.6566C21.7399 26.9454 21.662 27.2839 21.662 27.6722H20.4871C20.4871 27.0748 20.6248 26.5504 20.9003 26.0991C21.1758 25.6477 21.5508 25.2959 22.0254 25.0437C22.5033 24.7915 23.0392 24.6654 23.6333 24.6654C24.2307 24.6654 24.76 24.7915 25.2213 25.0437C25.6826 25.2959 26.0444 25.6361 26.3066 26.0642C26.5687 26.4923 26.6998 26.9686 26.6998 27.493C26.6998 27.868 26.6318 28.2347 26.4957 28.5931C26.363 28.9482 26.1307 29.3448 25.7988 29.7829C25.4702 30.2177 25.0139 30.7487 24.4298 31.3759L22.1399 33.8252V33.9048H26.8791V35H20.4473ZM34.9287 33.168L29.3134 27.5527L30.07 26.796L35.6854 32.4114L34.9287 33.168ZM30.07 33.168L29.3134 32.4114L34.9287 26.796L35.6854 27.5527L30.07 33.168ZM38.1757 35V34.1039L41.5409 30.4201C41.9359 29.9887 42.2611 29.6136 42.5167 29.295C42.7722 28.9731 42.9614 28.6711 43.0842 28.389C43.2103 28.1036 43.2733 27.8049 43.2733 27.493C43.2733 27.1345 43.187 26.8242 43.0145 26.562C42.8452 26.2999 42.6129 26.0974 42.3175 25.9547C42.0222 25.812 41.6903 25.7406 41.3219 25.7406C40.9303 25.7406 40.5885 25.822 40.2964 25.9846C40.0077 26.1439 39.7837 26.3679 39.6244 26.6566C39.4684 26.9454 39.3904 27.2839 39.3904 27.6722H38.2155C38.2155 27.0748 38.3533 26.5504 38.6287 26.0991C38.9042 25.6477 39.2792 25.2959 39.7538 25.0437C40.2317 24.7915 40.7677 24.6654 41.3617 24.6654C41.9591 24.6654 42.4884 24.7915 42.9498 25.0437C43.4111 25.2959 43.7728 25.6361 44.035 26.0642C44.2972 26.4923 44.4283 26.9686 44.4283 27.493C44.4283 27.868 44.3602 28.2347 44.2242 28.5931C44.0914 28.9482 43.8591 29.3448 43.5272 29.7829C43.1987 30.2177 42.7423 30.7487 42.1582 31.3759L39.8683 33.8252V33.9048H44.6075V35H38.1757Z"/>
</mask>
<path d="M20.4473 35V34.1039L23.8125 30.4201C24.2074 29.9887 24.5327 29.6136 24.7882 29.295C25.0438 28.9731 25.2329 28.6711 25.3557 28.389C25.4819 28.1036 25.5449 27.8049 25.5449 27.493C25.5449 27.1345 25.4586 26.8242 25.286 26.562C25.1168 26.2999 24.8845 26.0974 24.5891 25.9547C24.2937 25.812 23.9619 25.7406 23.5935 25.7406C23.2019 25.7406 22.86 25.822 22.568 25.9846C22.2792 26.1439 22.0552 26.3679 21.8959 26.6566C21.7399 26.9454 21.662 27.2839 21.662 27.6722H20.4871C20.4871 27.0748 20.6248 26.5504 20.9003 26.0991C21.1758 25.6477 21.5508 25.2959 22.0254 25.0437C22.5033 24.7915 23.0392 24.6654 23.6333 24.6654C24.2307 24.6654 24.76 24.7915 25.2213 25.0437C25.6826 25.2959 26.0444 25.6361 26.3066 26.0642C26.5687 26.4923 26.6998 26.9686 26.6998 27.493C26.6998 27.868 26.6318 28.2347 26.4957 28.5931C26.363 28.9482 26.1307 29.3448 25.7988 29.7829C25.4702 30.2177 25.0139 30.7487 24.4298 31.3759L22.1399 33.8252V33.9048H26.8791V35H20.4473ZM34.9287 33.168L29.3134 27.5527L30.07 26.796L35.6854 32.4114L34.9287 33.168ZM30.07 33.168L29.3134 32.4114L34.9287 26.796L35.6854 27.5527L30.07 33.168ZM38.1757 35V34.1039L41.5409 30.4201C41.9359 29.9887 42.2611 29.6136 42.5167 29.295C42.7722 28.9731 42.9614 28.6711 43.0842 28.389C43.2103 28.1036 43.2733 27.8049 43.2733 27.493C43.2733 27.1345 43.187 26.8242 43.0145 26.562C42.8452 26.2999 42.6129 26.0974 42.3175 25.9547C42.0222 25.812 41.6903 25.7406 41.3219 25.7406C40.9303 25.7406 40.5885 25.822 40.2964 25.9846C40.0077 26.1439 39.7837 26.3679 39.6244 26.6566C39.4684 26.9454 39.3904 27.2839 39.3904 27.6722H38.2155C38.2155 27.0748 38.3533 26.5504 38.6287 26.0991C38.9042 25.6477 39.2792 25.2959 39.7538 25.0437C40.2317 24.7915 40.7677 24.6654 41.3617 24.6654C41.9591 24.6654 42.4884 24.7915 42.9498 25.0437C43.4111 25.2959 43.7728 25.6361 44.035 26.0642C44.2972 26.4923 44.4283 26.9686 44.4283 27.493C44.4283 27.868 44.3602 28.2347 44.2242 28.5931C44.0914 28.9482 43.8591 29.3448 43.5272 29.7829C43.1987 30.2177 42.7423 30.7487 42.1582 31.3759L39.8683 33.8252V33.9048H44.6075V35H38.1757Z" fill="#00C1FF"/>
<path d="M20.4473 35H19.4473V36H20.4473V35ZM20.4473 34.1039L19.709 33.4295L19.4473 33.7159V34.1039H20.4473ZM23.8125 30.4201L23.0749 29.7449L23.0742 29.7456L23.8125 30.4201ZM24.7882 29.295L25.5683 29.9207L25.5715 29.9168L24.7882 29.295ZM25.3557 28.389L24.441 27.9849L24.4388 27.9899L25.3557 28.389ZM25.286 26.562L24.4459 27.1044L24.4508 27.1119L25.286 26.562ZM24.5891 25.9547L25.0241 25.0543L25.0241 25.0543L24.5891 25.9547ZM22.568 25.9846L23.0511 26.8602L23.0545 26.8583L22.568 25.9846ZM21.8959 26.6566L21.0203 26.1735L21.0161 26.1813L21.8959 26.6566ZM21.662 27.6722V28.6722H22.662V27.6722H21.662ZM20.4871 27.6722H19.4871V28.6722H20.4871V27.6722ZM20.9003 26.0991L21.7539 26.62L21.7539 26.62L20.9003 26.0991ZM22.0254 25.0437L21.5586 24.1593L21.5561 24.1607L22.0254 25.0437ZM25.2213 25.0437L25.7011 24.1663L25.7011 24.1663L25.2213 25.0437ZM26.3066 26.0642L25.4538 26.5865L26.3066 26.0642ZM26.4957 28.5931L25.5608 28.2382L25.559 28.243L26.4957 28.5931ZM25.7988 29.7829L25.0017 29.179L25.001 29.18L25.7988 29.7829ZM24.4298 31.3759L25.1603 32.0589L25.1616 32.0574L24.4298 31.3759ZM22.1399 33.8252L21.4094 33.1422L21.1399 33.4305V33.8252H22.1399ZM22.1399 33.9048H21.1399V34.9048H22.1399V33.9048ZM26.8791 33.9048H27.8791V32.9048H26.8791V33.9048ZM26.8791 35V36H27.8791V35H26.8791ZM21.4473 35V34.1039H19.4473V35H21.4473ZM21.1856 34.7784L24.5508 31.0946L23.0742 29.7456L19.709 33.4295L21.1856 34.7784ZM24.5501 31.0953C24.9541 30.654 25.2947 30.2618 25.5683 29.9207L24.0082 28.6694C23.7706 28.9655 23.4608 29.3233 23.0749 29.7449L24.5501 31.0953ZM25.5715 29.9168C25.8642 29.548 26.1058 29.1715 26.2726 28.7881L24.4388 27.9899C24.3601 28.1708 24.2234 28.3982 24.005 28.6733L25.5715 29.9168ZM26.2704 28.7932C26.4528 28.3805 26.5449 27.9441 26.5449 27.493H24.5449C24.5449 27.6657 24.5109 27.8267 24.4411 27.9849L26.2704 28.7932ZM26.5449 27.493C26.5449 26.9676 26.416 26.46 26.1213 26.0122L24.4508 27.1119C24.5012 27.1885 24.5449 27.3014 24.5449 27.493H26.5449ZM26.1262 26.0197C25.8521 25.5952 25.476 25.2726 25.0241 25.0543L24.1541 26.8551C24.2929 26.9222 24.3814 27.0046 24.4459 27.1044L26.1262 26.0197ZM25.0241 25.0543C24.5772 24.8384 24.0939 24.7406 23.5935 24.7406V26.7406C23.8299 26.7406 24.0102 26.7856 24.1541 26.8551L25.0241 25.0543ZM23.5935 24.7406C23.061 24.7406 22.546 24.8522 22.0815 25.1109L23.0545 26.8583C23.174 26.7917 23.3428 26.7406 23.5935 26.7406V24.7406ZM22.0849 25.109C21.6309 25.3595 21.2708 25.7196 21.0203 26.1735L22.7715 27.1397C22.8396 27.0162 22.9276 26.9283 23.0511 26.8602L22.0849 25.109ZM21.0161 26.1813C20.768 26.6407 20.662 27.1483 20.662 27.6722H22.662C22.662 27.4194 22.7119 27.2501 22.7757 27.1319L21.0161 26.1813ZM21.662 26.6722H20.4871V28.6722H21.662V26.6722ZM21.4871 27.6722C21.4871 27.2342 21.5862 26.8949 21.7539 26.62L20.0467 25.5781C19.6635 26.206 19.4871 26.9154 19.4871 27.6722H21.4871ZM21.7539 26.62C21.9344 26.3242 22.1756 26.0963 22.4947 25.9267L21.5561 24.1607C20.926 24.4955 20.4171 24.9712 20.0467 25.5781L21.7539 26.62ZM22.4921 25.9281C22.8123 25.7591 23.1854 25.6654 23.6333 25.6654V23.6654C22.893 23.6654 22.1943 23.8238 21.5586 24.1593L22.4921 25.9281ZM23.6333 25.6654C24.0862 25.6654 24.4464 25.7597 24.7416 25.9211L25.7011 24.1663C25.0736 23.8232 24.3752 23.6654 23.6333 23.6654V25.6654ZM24.7416 25.9211C25.0572 26.0937 25.2872 26.3144 25.4538 26.5865L27.1594 25.542C26.8016 24.9578 26.3081 24.4982 25.7011 24.1663L24.7416 25.9211ZM25.4538 26.5865C25.6153 26.8502 25.6998 27.1443 25.6998 27.493H27.6998C27.6998 26.7929 27.5222 26.1345 27.1594 25.542L25.4538 26.5865ZM25.6998 27.493C25.6998 27.744 25.6548 27.9906 25.5608 28.2382L27.4306 28.948C27.6088 28.4788 27.6998 27.992 27.6998 27.493H25.6998ZM25.559 28.243C25.4718 28.4764 25.2988 28.7868 25.0017 29.179L26.5959 30.3868C26.9625 29.9028 27.2542 29.4201 27.4324 28.9433L25.559 28.243ZM25.001 29.18C24.7012 29.5766 24.2703 30.0798 23.698 30.6944L25.1616 32.0574C25.7575 31.4175 26.2392 30.8587 26.5966 30.3858L25.001 29.18ZM23.6993 30.693L21.4094 33.1422L22.8703 34.5081L25.1603 32.0589L23.6993 30.693ZM21.1399 33.8252V33.9048H23.1399V33.8252H21.1399ZM22.1399 34.9048H26.8791V32.9048H22.1399V34.9048ZM25.8791 33.9048V35H27.8791V33.9048H25.8791ZM26.8791 34H20.4473V36H26.8791V34ZM34.9287 33.168L34.2216 33.8751L34.9287 34.5823L35.6358 33.8751L34.9287 33.168ZM29.3134 27.5527L28.6063 26.8456L27.8992 27.5527L28.6063 28.2598L29.3134 27.5527ZM30.07 26.796L30.7771 26.0889L30.07 25.3818L29.3629 26.0889L30.07 26.796ZM35.6854 32.4114L36.3925 33.1185L37.0996 32.4114L36.3925 31.7043L35.6854 32.4114ZM30.07 33.168L29.3629 33.8751L30.07 34.5823L30.7771 33.8751L30.07 33.168ZM29.3134 32.4114L28.6063 31.7043L27.8992 32.4114L28.6063 33.1185L29.3134 32.4114ZM34.9287 26.796L35.6358 26.0889L34.9287 25.3818L34.2216 26.0889L34.9287 26.796ZM35.6854 27.5527L36.3925 28.2598L37.0996 27.5527L36.3925 26.8456L35.6854 27.5527ZM35.6358 32.4609L30.0205 26.8456L28.6063 28.2598L34.2216 33.8751L35.6358 32.4609ZM30.0205 28.2598L30.7771 27.5031L29.3629 26.0889L28.6063 26.8456L30.0205 28.2598ZM29.3629 27.5031L34.9783 33.1185L36.3925 31.7043L30.7771 26.0889L29.3629 27.5031ZM34.9783 31.7043L34.2216 32.4609L35.6358 33.8751L36.3925 33.1185L34.9783 31.7043ZM30.7771 32.4609L30.0205 31.7043L28.6063 33.1185L29.3629 33.8751L30.7771 32.4609ZM30.0205 33.1185L35.6358 27.5031L34.2216 26.0889L28.6063 31.7043L30.0205 33.1185ZM34.2216 27.5031L34.9783 28.2598L36.3925 26.8456L35.6358 26.0889L34.2216 27.5031ZM34.9783 26.8456L29.3629 32.4609L30.7771 33.8751L36.3925 28.2598L34.9783 26.8456ZM38.1757 35H37.1757V36H38.1757V35ZM38.1757 34.1039L37.4374 33.4295L37.1757 33.7159V34.1039H38.1757ZM41.5409 30.4201L40.8033 29.7449L40.8026 29.7456L41.5409 30.4201ZM42.5167 29.295L43.2967 29.9207L43.2999 29.9168L42.5167 29.295ZM43.0842 28.389L42.1695 27.9849L42.1673 27.9899L43.0842 28.389ZM43.0145 26.562L42.1743 27.1044L42.1792 27.1119L43.0145 26.562ZM42.3175 25.9547L42.7526 25.0543L42.7526 25.0543L42.3175 25.9547ZM40.2964 25.9846L40.7795 26.8602L40.7829 26.8583L40.2964 25.9846ZM39.6244 26.6566L38.7487 26.1735L38.7445 26.1813L39.6244 26.6566ZM39.3904 27.6722V28.6722H40.3904V27.6722H39.3904ZM38.2155 27.6722H37.2155V28.6722H38.2155V27.6722ZM38.6287 26.0991L39.4823 26.62L39.4823 26.62L38.6287 26.0991ZM39.7538 25.0437L39.287 24.1593L39.2845 24.1607L39.7538 25.0437ZM42.9498 25.0437L43.4295 24.1663L43.4295 24.1663L42.9498 25.0437ZM44.035 26.0642L43.1822 26.5865L44.035 26.0642ZM44.2242 28.5931L43.2892 28.2382L43.2875 28.243L44.2242 28.5931ZM43.5272 29.7829L42.7301 29.179L42.7294 29.18L43.5272 29.7829ZM42.1582 31.3759L42.8887 32.0589L42.8901 32.0574L42.1582 31.3759ZM39.8683 33.8252L39.1378 33.1422L38.8683 33.4305V33.8252H39.8683ZM39.8683 33.9048H38.8683V34.9048H39.8683V33.9048ZM44.6075 33.9048H45.6075V32.9048H44.6075V33.9048ZM44.6075 35V36H45.6075V35H44.6075ZM39.1757 35V34.1039H37.1757V35H39.1757ZM38.914 34.7784L42.2792 31.0946L40.8026 29.7456L37.4374 33.4295L38.914 34.7784ZM42.2786 31.0953C42.6825 30.654 43.0232 30.2618 43.2967 29.9207L41.7366 28.6694C41.499 28.9655 41.1892 29.3233 40.8033 29.7449L42.2786 31.0953ZM43.2999 29.9168C43.5926 29.548 43.8342 29.1715 44.0011 28.7881L42.1673 27.9899C42.0885 28.1708 41.9518 28.3982 41.7334 28.6733L43.2999 29.9168ZM43.9988 28.7932C44.1812 28.3805 44.2733 27.9441 44.2733 27.493H42.2733C42.2733 27.6657 42.2393 27.8267 42.1695 27.9849L43.9988 28.7932ZM44.2733 27.493C44.2733 26.9676 44.1445 26.46 43.8498 26.0122L42.1792 27.1119C42.2296 27.1885 42.2733 27.3014 42.2733 27.493H44.2733ZM43.8546 26.0197C43.5806 25.5952 43.2044 25.2726 42.7526 25.0543L41.8825 26.8551C42.0214 26.9222 42.1099 27.0046 42.1743 27.1044L43.8546 26.0197ZM42.7526 25.0543C42.3057 24.8384 41.8223 24.7406 41.3219 24.7406V26.7406C41.5583 26.7406 41.7386 26.7856 41.8825 26.8551L42.7526 25.0543ZM41.3219 24.7406C40.7894 24.7406 40.2744 24.8522 39.8099 25.1109L40.7829 26.8583C40.9025 26.7917 41.0712 26.7406 41.3219 26.7406V24.7406ZM39.8133 25.109C39.3593 25.3595 38.9992 25.7196 38.7488 26.1735L40.4999 27.1397C40.5681 27.0162 40.656 26.9283 40.7795 26.8602L39.8133 25.109ZM38.7445 26.1813C38.4964 26.6407 38.3904 27.1483 38.3904 27.6722H40.3904C40.3904 27.4194 40.4404 27.2501 40.5042 27.1319L38.7445 26.1813ZM39.3904 26.6722H38.2155V28.6722H39.3904V26.6722ZM39.2155 27.6722C39.2155 27.2342 39.3146 26.8949 39.4823 26.62L37.7751 25.5781C37.3919 26.206 37.2155 26.9154 37.2155 27.6722H39.2155ZM39.4823 26.62C39.6628 26.3242 39.904 26.0963 40.2231 25.9267L39.2845 24.1607C38.6544 24.4955 38.1455 24.9712 37.7751 25.5781L39.4823 26.62ZM40.2205 25.9281C40.5407 25.7591 40.9139 25.6654 41.3617 25.6654V23.6654C40.6215 23.6654 39.9227 23.8238 39.287 24.1593L40.2205 25.9281ZM41.3617 25.6654C41.8146 25.6654 42.1749 25.7597 42.47 25.9211L43.4295 24.1663C42.802 23.8232 42.1036 23.6654 41.3617 23.6654V25.6654ZM42.47 25.9211C42.7856 26.0937 43.0156 26.3144 43.1822 26.5865L44.8878 25.542C44.53 24.9578 44.0365 24.4982 43.4295 24.1663L42.47 25.9211ZM43.1822 26.5865C43.3437 26.8502 43.4283 27.1443 43.4283 27.493H45.4283C45.4283 26.7929 45.2506 26.1345 44.8878 25.542L43.1822 26.5865ZM43.4283 27.493C43.4283 27.744 43.3833 27.9906 43.2893 28.2382L45.1591 28.948C45.3372 28.4788 45.4283 27.992 45.4283 27.493H43.4283ZM43.2875 28.243C43.2002 28.4764 43.0273 28.7868 42.7301 29.179L44.3243 30.3868C44.6909 29.9028 44.9826 29.4201 45.1608 28.9433L43.2875 28.243ZM42.7294 29.18C42.4297 29.5766 41.9987 30.0798 41.4264 30.6944L42.8901 32.0574C43.4859 31.4175 43.9676 30.8587 44.325 30.3858L42.7294 29.18ZM41.4278 30.693L39.1378 33.1422L40.5987 34.5081L42.8887 32.0589L41.4278 30.693ZM38.8683 33.8252V33.9048H40.8683V33.8252H38.8683ZM39.8683 34.9048H44.6075V32.9048H39.8683V34.9048ZM43.6075 33.9048V35H45.6075V33.9048H43.6075ZM44.6075 34H38.1757V36H44.6075V34Z" fill="#2F5764" mask="url(#path-7-outside-1_84_1192)"/>
<defs>
<linearGradient id="paint0_linear_84_1192" x1="3.72513" y1="32.3054" x2="33.5154" y2="49.1976" gradientUnits="userSpaceOnUse">
<stop stop-color="#4A4A4A"/>
<stop offset="1" stop-color="#303030"/>
</linearGradient>
</defs>
</svg>
