<svg width="64" height="64" viewBox="0 0 64 64" fill="none" xmlns="http://www.w3.org/2000/svg">
<rect width="35.8551" height="35.8551" rx="4.37833" transform="matrix(0.866025 0.5 -0.866025 0.5 31.8887 19)" fill="url(#paint0_linear_2025_1444)"/>
<rect width="26.8913" height="4.48189" transform="matrix(0.866025 0.5 0 1 4.71851 39.1685)" fill="url(#paint1_linear_2025_1444)"/>
<rect width="26.8913" height="4.48189" transform="matrix(0.866025 -0.5 0 1 35.7698 52.6143)" fill="url(#paint2_linear_2025_1444)"/>
<path d="M3.11084 36.9277C3.11084 37.8029 3.72524 38.5952 4.71858 39.1687V43.6506C3.72524 43.0771 3.11084 42.2848 3.11084 41.4096V36.9277Z" fill="url(#paint3_linear_2025_1444)"/>
<path d="M28.0071 52.6143C30.1507 53.8519 33.6263 53.8519 35.7699 52.6143V57.0961C33.6263 58.3338 30.1507 58.3338 28.0071 57.0961V52.6143Z" fill="url(#paint4_linear_2025_1444)"/>
<path d="M60.6663 36.9277C60.6663 37.8029 60.0519 38.5952 59.0586 39.1687V43.6506C60.0519 43.0771 60.6663 42.2848 60.6663 41.4096V36.9277Z" fill="url(#paint5_linear_2025_1444)"/>
<g clip-path="url(#clip0_2025_1444)">
<rect width="35.8992" height="35.8992" rx="4.44179" transform="matrix(0.866025 0.5 -0.866025 0.5 31.9104 19)" fill="url(#paint6_linear_2025_1444)"/>
<rect width="11.5594" height="11.5594" transform="matrix(0.866025 0.5 -0.866025 0.5 31.9104 19)" fill="black" fill-opacity="0.1"/>
<rect width="11.5594" height="11.5594" transform="matrix(0.866025 0.5 -0.866025 0.5 21.3711 25.085)" fill="black" fill-opacity="0.1"/>
<rect width="11.5594" height="11.5594" transform="matrix(0.866025 0.5 -0.866025 0.5 21.3711 37.2549)" fill="black" fill-opacity="0.1"/>
<rect width="11.5594" height="11.5594" transform="matrix(0.866025 0.5 -0.866025 0.5 42.45 25.085)" fill="black" fill-opacity="0.1"/>
<rect width="11.5594" height="11.5594" transform="matrix(0.866025 0.5 -0.866025 0.5 42.45 37.2549)" fill="black" fill-opacity="0.1"/>
<rect width="11.5594" height="11.5594" transform="matrix(0.866025 0.5 -0.866025 0.5 52.9893 31.1699)" fill="black" fill-opacity="0.1"/>
<rect width="11.5594" height="11.5594" transform="matrix(0.866025 0.5 -0.866025 0.5 10.8315 31.1699)" fill="black" fill-opacity="0.1"/>
<rect width="11.5594" height="11.5594" transform="matrix(0.866025 0.5 -0.866025 0.5 31.9104 43.3398)" fill="black" fill-opacity="0.1"/>
<rect width="11.5594" height="11.5594" transform="matrix(0.866025 0.5 -0.866025 0.5 31.9104 31.1699)" fill="black" fill-opacity="0.1"/>
</g>
<rect width="36.3283" height="36.3283" rx="4.43612" transform="matrix(0.866025 0.5 -0.866025 0.5 31.478 18.4604)" fill="url(#paint7_linear_2025_1444)"/>
<rect width="27.2462" height="4.54104" transform="matrix(0.866025 0.5 0 1 3.94922 38.8955)" fill="url(#paint8_linear_2025_1444)"/>
<rect width="27.2462" height="4.54104" transform="matrix(0.866025 -0.5 0 1 35.4104 52.5186)" fill="url(#paint9_linear_2025_1444)"/>
<path d="M2.32056 36.625C2.32056 37.5117 2.94306 38.3144 3.94952 38.8955V43.4366C2.94306 42.8555 2.32056 42.0527 2.32056 41.166V36.625Z" fill="url(#paint10_linear_2025_1444)"/>
<path d="M27.5452 52.5186C29.7171 53.7725 33.2385 53.7725 35.4105 52.5186V57.0596C33.2385 58.3136 29.7171 58.3136 27.5452 57.0596V52.5186Z" fill="url(#paint11_linear_2025_1444)"/>
<path d="M60.6356 36.625C60.6356 37.5117 60.013 38.3144 59.0066 38.8955V43.4366C60.013 42.8555 60.6356 42.0527 60.6356 41.166V36.625Z" fill="url(#paint12_linear_2025_1444)"/>
<g clip-path="url(#clip1_2025_1444)">
<rect width="11.712" height="11.712" transform="matrix(0.866025 0.5 -0.866025 0.5 31.5 18.4604)" fill="white" fill-opacity="0.2"/>
<rect width="11.712" height="11.712" transform="matrix(0.866025 0.5 -0.866025 0.5 20.8213 24.626)" fill="white" fill-opacity="0.2"/>
<rect width="11.712" height="11.712" transform="matrix(0.866025 0.5 -0.866025 0.5 20.8215 36.9561)" fill="white" fill-opacity="0.2"/>
<rect width="11.712" height="11.712" transform="matrix(0.866025 0.5 -0.866025 0.5 42.1785 24.6255)" fill="white" fill-opacity="0.2"/>
<rect width="11.712" height="11.712" transform="matrix(0.866025 0.5 -0.866025 0.5 42.1785 36.9561)" fill="white" fill-opacity="0.2"/>
<rect width="11.712" height="11.712" transform="matrix(0.866025 0.5 -0.866025 0.5 52.8569 30.791)" fill="white" fill-opacity="0.2"/>
<rect width="11.712" height="11.712" transform="matrix(0.866025 0.5 -0.866025 0.5 10.1428 30.791)" fill="white" fill-opacity="0.2"/>
<rect width="11.712" height="11.712" transform="matrix(0.866025 0.5 -0.866025 0.5 31.5 43.1216)" fill="white" fill-opacity="0.2"/>
<rect width="11.712" height="11.712" transform="matrix(0.866025 0.5 -0.866025 0.5 31.5 30.791)" fill="white" fill-opacity="0.2"/>
</g>
<mask id="path-33-outside-1_2025_1444" maskUnits="userSpaceOnUse" x="10" y="19" width="45" height="20" fill="black">
<rect fill="white" x="10" y="19" width="45" height="20"/>
<path d="M16.9698 37.2293C15.8125 37.2293 14.7808 37.0164 13.8746 36.5906C12.9738 36.1648 12.2587 35.5779 11.7292 34.83C11.1996 34.0822 10.924 33.2251 10.9021 32.2589H14.3413C14.3795 32.9085 14.6525 33.4353 15.1602 33.8392C15.6678 34.2432 16.2711 34.4452 16.9698 34.4452C17.5266 34.4452 18.0179 34.3224 18.4437 34.0767C18.875 33.8256 19.2107 33.4789 19.4509 33.0368C19.6966 32.5891 19.8194 32.076 19.8194 31.4973C19.8194 30.9078 19.6939 30.3891 19.4427 29.9415C19.1971 29.4939 18.8559 29.1445 18.4192 28.8934C17.9825 28.6423 17.483 28.514 16.9207 28.5085C16.4294 28.5085 15.9517 28.6095 15.4877 28.8115C15.0291 29.0135 14.6716 29.2892 14.415 29.6385L11.2624 29.0735L12.0567 20.2299H22.3087V23.1287H14.98L14.546 27.3294H14.6443C14.9391 26.9145 15.384 26.5706 15.979 26.2976C16.574 26.0247 17.24 25.8882 17.977 25.8882C18.9869 25.8882 19.8877 26.1257 20.6792 26.6006C21.4708 27.0755 22.0958 27.7279 22.5544 28.5577C23.0129 29.382 23.2395 30.3318 23.234 31.4073C23.2395 32.5373 22.9774 33.5417 22.4479 34.4206C21.9239 35.2941 21.1896 35.9819 20.2452 36.4841C19.3063 36.9809 18.2145 37.2293 16.9698 37.2293ZM35.9999 34.6745L26.2146 24.9056L28.36 22.7356L38.1535 32.5291L35.9999 34.6745ZM28.36 34.6745L26.2146 32.5291L35.9999 22.7356L38.1535 24.9056L28.36 34.6745ZM47.5784 37.2293C46.3556 37.2293 45.2666 37.0191 44.3112 36.5988C43.3614 36.173 42.6107 35.5888 42.0594 34.8464C41.5135 34.0985 41.2323 33.236 41.216 32.2589H44.7862C44.808 32.6683 44.9417 33.0286 45.1874 33.3397C45.4385 33.6454 45.7715 33.8829 46.1864 34.0521C46.6013 34.2214 47.068 34.306 47.5866 34.306C48.1271 34.306 48.6047 34.2104 49.0196 34.0194C49.4345 33.8283 49.7593 33.5636 49.994 33.2251C50.2288 32.8866 50.3462 32.4963 50.3462 32.0541C50.3462 31.6065 50.2206 31.2107 49.9695 30.8668C49.7238 30.5174 49.369 30.2445 48.905 30.048C48.4464 29.8514 47.9005 29.7532 47.2673 29.7532H45.7033V27.1492H47.2673C47.8023 27.1492 48.2745 27.0564 48.6839 26.8708C49.0988 26.6852 49.4209 26.4286 49.6501 26.1011C49.8794 25.7681 49.994 25.3805 49.994 24.9383C49.994 24.518 49.8931 24.1495 49.6911 23.8329C49.4945 23.5108 49.2161 23.2597 48.8558 23.0795C48.501 22.8994 48.0861 22.8093 47.6112 22.8093C47.1308 22.8093 46.6914 22.8967 46.2928 23.0714C45.8943 23.2406 45.575 23.4835 45.3348 23.8001C45.0946 24.1168 44.9663 24.488 44.9499 24.9138H41.5517C41.5681 23.9475 41.8438 23.0959 42.3787 22.359C42.9137 21.622 43.6343 21.0461 44.5405 20.6312C45.4522 20.2108 46.4812 20.0007 47.6276 20.0007C48.7849 20.0007 49.7975 20.2108 50.6655 20.6312C51.5335 21.0515 52.2077 21.6193 52.6881 22.3344C53.1739 23.0441 53.4141 23.8411 53.4087 24.7254C53.4141 25.6644 53.1221 26.4477 52.5325 27.0755C51.9484 27.7033 51.1868 28.1018 50.2479 28.2711V28.4021C51.4816 28.5604 52.4206 28.9889 53.0647 29.6877C53.7144 30.381 54.0364 31.2489 54.031 32.2916C54.0364 33.2469 53.7608 34.0958 53.2039 34.8382C52.6526 35.5807 51.8911 36.1648 50.9193 36.5906C49.9476 37.0164 48.834 37.2293 47.5784 37.2293Z"/>
</mask>
<path d="M16.9698 37.2293C15.8125 37.2293 14.7808 37.0164 13.8746 36.5906C12.9738 36.1648 12.2587 35.5779 11.7292 34.83C11.1996 34.0822 10.924 33.2251 10.9021 32.2589H14.3413C14.3795 32.9085 14.6525 33.4353 15.1602 33.8392C15.6678 34.2432 16.2711 34.4452 16.9698 34.4452C17.5266 34.4452 18.0179 34.3224 18.4437 34.0767C18.875 33.8256 19.2107 33.4789 19.4509 33.0368C19.6966 32.5891 19.8194 32.076 19.8194 31.4973C19.8194 30.9078 19.6939 30.3891 19.4427 29.9415C19.1971 29.4939 18.8559 29.1445 18.4192 28.8934C17.9825 28.6423 17.483 28.514 16.9207 28.5085C16.4294 28.5085 15.9517 28.6095 15.4877 28.8115C15.0291 29.0135 14.6716 29.2892 14.415 29.6385L11.2624 29.0735L12.0567 20.2299H22.3087V23.1287H14.98L14.546 27.3294H14.6443C14.9391 26.9145 15.384 26.5706 15.979 26.2976C16.574 26.0247 17.24 25.8882 17.977 25.8882C18.9869 25.8882 19.8877 26.1257 20.6792 26.6006C21.4708 27.0755 22.0958 27.7279 22.5544 28.5577C23.0129 29.382 23.2395 30.3318 23.234 31.4073C23.2395 32.5373 22.9774 33.5417 22.4479 34.4206C21.9239 35.2941 21.1896 35.9819 20.2452 36.4841C19.3063 36.9809 18.2145 37.2293 16.9698 37.2293ZM35.9999 34.6745L26.2146 24.9056L28.36 22.7356L38.1535 32.5291L35.9999 34.6745ZM28.36 34.6745L26.2146 32.5291L35.9999 22.7356L38.1535 24.9056L28.36 34.6745ZM47.5784 37.2293C46.3556 37.2293 45.2666 37.0191 44.3112 36.5988C43.3614 36.173 42.6107 35.5888 42.0594 34.8464C41.5135 34.0985 41.2323 33.236 41.216 32.2589H44.7862C44.808 32.6683 44.9417 33.0286 45.1874 33.3397C45.4385 33.6454 45.7715 33.8829 46.1864 34.0521C46.6013 34.2214 47.068 34.306 47.5866 34.306C48.1271 34.306 48.6047 34.2104 49.0196 34.0194C49.4345 33.8283 49.7593 33.5636 49.994 33.2251C50.2288 32.8866 50.3462 32.4963 50.3462 32.0541C50.3462 31.6065 50.2206 31.2107 49.9695 30.8668C49.7238 30.5174 49.369 30.2445 48.905 30.048C48.4464 29.8514 47.9005 29.7532 47.2673 29.7532H45.7033V27.1492H47.2673C47.8023 27.1492 48.2745 27.0564 48.6839 26.8708C49.0988 26.6852 49.4209 26.4286 49.6501 26.1011C49.8794 25.7681 49.994 25.3805 49.994 24.9383C49.994 24.518 49.8931 24.1495 49.6911 23.8329C49.4945 23.5108 49.2161 23.2597 48.8558 23.0795C48.501 22.8994 48.0861 22.8093 47.6112 22.8093C47.1308 22.8093 46.6914 22.8967 46.2928 23.0714C45.8943 23.2406 45.575 23.4835 45.3348 23.8001C45.0946 24.1168 44.9663 24.488 44.9499 24.9138H41.5517C41.5681 23.9475 41.8438 23.0959 42.3787 22.359C42.9137 21.622 43.6343 21.0461 44.5405 20.6312C45.4522 20.2108 46.4812 20.0007 47.6276 20.0007C48.7849 20.0007 49.7975 20.2108 50.6655 20.6312C51.5335 21.0515 52.2077 21.6193 52.6881 22.3344C53.1739 23.0441 53.4141 23.8411 53.4087 24.7254C53.4141 25.6644 53.1221 26.4477 52.5325 27.0755C51.9484 27.7033 51.1868 28.1018 50.2479 28.2711V28.4021C51.4816 28.5604 52.4206 28.9889 53.0647 29.6877C53.7144 30.381 54.0364 31.2489 54.031 32.2916C54.0364 33.2469 53.7608 34.0958 53.2039 34.8382C52.6526 35.5807 51.8911 36.1648 50.9193 36.5906C49.9476 37.0164 48.834 37.2293 47.5784 37.2293Z" fill="white"/>
<path d="M13.8746 36.5906L13.5226 37.3351L13.5243 37.3359L13.8746 36.5906ZM11.7292 34.83L12.4013 34.3542L12.4013 34.3542L11.7292 34.83ZM10.9021 32.2589V31.4353H10.0598L10.0788 32.2775L10.9021 32.2589ZM14.3413 32.2589L15.1634 32.2105L15.1178 31.4353H14.3413V32.2589ZM15.1602 33.8392L15.6729 33.1948L15.6729 33.1948L15.1602 33.8392ZM18.4437 34.0767L18.8553 34.79L18.8581 34.7884L18.4437 34.0767ZM19.4509 33.0368L18.729 32.6406L18.7273 32.6437L19.4509 33.0368ZM19.4427 29.9415L18.7208 30.3377L18.7245 30.3444L19.4427 29.9415ZM18.4192 28.8934L18.0087 29.6073L18.0087 29.6073L18.4192 28.8934ZM16.9207 28.5085L16.9287 27.685H16.9207V28.5085ZM15.4877 28.8115L15.159 28.0564L15.1557 28.0578L15.4877 28.8115ZM14.415 29.6385L14.2697 30.4491L14.775 30.5397L15.0788 30.126L14.415 29.6385ZM11.2624 29.0735L10.4422 28.9999L10.3747 29.7511L11.1171 29.8841L11.2624 29.0735ZM12.0567 20.2299V19.4064H11.3038L11.2365 20.1563L12.0567 20.2299ZM22.3087 20.2299H23.1322V19.4064H22.3087V20.2299ZM22.3087 23.1287V23.9522H23.1322V23.1287H22.3087ZM14.98 23.1287V22.3051H14.2372L14.1608 23.044L14.98 23.1287ZM14.546 27.3294L13.7268 27.2447L13.633 28.1529H14.546V27.3294ZM14.6443 27.3294V28.1529H15.0694L15.3156 27.8064L14.6443 27.3294ZM15.979 26.2976L16.3224 27.0462L16.3224 27.0462L15.979 26.2976ZM20.6792 26.6006L21.1029 25.8944L21.1029 25.8944L20.6792 26.6006ZM22.5544 28.5577L21.8336 28.956L21.8347 28.958L22.5544 28.5577ZM23.234 31.4073L22.4105 31.4031L22.4105 31.4112L23.234 31.4073ZM22.4479 34.4206L21.7425 33.9956L21.7418 33.9969L22.4479 34.4206ZM20.2452 36.4841L20.6303 37.2121L20.6319 37.2112L20.2452 36.4841ZM16.9698 37.2293V36.4057C15.9148 36.4057 15.0056 36.2121 14.2248 35.8452L13.8746 36.5906L13.5243 37.3359C14.5559 37.8207 15.7102 38.0528 16.9698 38.0528V37.2293ZM13.8746 36.5906L14.2265 35.846C13.4423 35.4753 12.8419 34.9765 12.4013 34.3542L11.7292 34.83L11.0571 35.3059C11.6755 36.1793 12.5053 36.8542 13.5226 37.3351L13.8746 36.5906ZM11.7292 34.83L12.4013 34.3542C11.9719 33.7478 11.7438 33.0519 11.7255 32.2403L10.9021 32.2589L10.0788 32.2775C10.1041 33.3983 10.4274 34.4166 11.0571 35.3059L11.7292 34.83ZM10.9021 32.2589V33.0824H14.3413V32.2589V31.4353H10.9021V32.2589ZM14.3413 32.2589L13.5192 32.3072C13.5711 33.1896 13.956 33.9335 14.6474 34.4837L15.1602 33.8392L15.6729 33.1948C15.349 32.9371 15.1879 32.6273 15.1634 32.2105L14.3413 32.2589ZM15.1602 33.8392L14.6474 34.4837C15.3124 35.0128 16.1001 35.2687 16.9698 35.2687V34.4452V33.6217C16.442 33.6217 16.0233 33.4736 15.6729 33.1948L15.1602 33.8392ZM16.9698 34.4452V35.2687C17.6516 35.2687 18.2884 35.1171 18.8553 34.79L18.4437 34.0767L18.0322 33.3634C17.7474 33.5277 17.4017 33.6217 16.9698 33.6217V34.4452ZM18.4437 34.0767L18.8581 34.7884C19.4209 34.4607 19.863 34.0034 20.1746 33.4299L19.4509 33.0368L18.7273 32.6437C18.5584 32.9545 18.3292 33.1905 18.0294 33.365L18.4437 34.0767ZM19.4509 33.0368L20.1729 33.433C20.4936 32.8485 20.6429 32.1958 20.6429 31.4973H19.8194H18.9959C18.9959 31.9562 18.8995 32.3298 18.729 32.6406L19.4509 33.0368ZM19.8194 31.4973H20.6429C20.6429 30.7879 20.4908 30.1266 20.161 29.5386L19.4427 29.9415L18.7245 30.3444C18.8969 30.6517 18.9959 31.0276 18.9959 31.4973H19.8194ZM19.4427 29.9415L20.1647 29.5453C19.8474 28.9671 19.3993 28.507 18.8297 28.1795L18.4192 28.8934L18.0087 29.6073C18.3125 29.782 18.5468 30.0206 18.7208 30.3377L19.4427 29.9415ZM18.4192 28.8934L18.8297 28.1795C18.2567 27.85 17.6155 27.6917 16.9287 27.685L16.9207 28.5085L16.9127 29.332C17.3504 29.3363 17.7083 29.4346 18.0087 29.6073L18.4192 28.8934ZM16.9207 28.5085V27.685C16.3128 27.685 15.7235 27.8107 15.159 28.0564L15.4877 28.8115L15.8164 29.5666C16.1799 29.4084 16.5459 29.3321 16.9207 29.3321V28.5085ZM15.4877 28.8115L15.1557 28.0578C14.586 28.3088 14.1057 28.6684 13.7512 29.1511L14.415 29.6385L15.0788 30.126C15.2374 29.9099 15.4723 29.7182 15.8197 29.5652L15.4877 28.8115ZM14.415 29.6385L14.5603 28.8279L11.4077 28.2629L11.2624 29.0735L11.1171 29.8841L14.2697 30.4491L14.415 29.6385ZM11.2624 29.0735L12.0827 29.1472L12.8769 20.3036L12.0567 20.2299L11.2365 20.1563L10.4422 28.9999L11.2624 29.0735ZM12.0567 20.2299V21.0535H22.3087V20.2299V19.4064H12.0567V20.2299ZM22.3087 20.2299H21.4852V23.1287H22.3087H23.1322V20.2299H22.3087ZM22.3087 23.1287V22.3051H14.98V23.1287V23.9522H22.3087V23.1287ZM14.98 23.1287L14.1608 23.044L13.7268 27.2447L14.546 27.3294L15.3652 27.414L15.7992 23.2133L14.98 23.1287ZM14.546 27.3294V28.1529H14.6443V27.3294V26.5058H14.546V27.3294ZM14.6443 27.3294L15.3156 27.8064C15.5061 27.5383 15.8218 27.2758 16.3224 27.0462L15.979 26.2976L15.6356 25.5491C14.9461 25.8654 14.372 26.2907 13.973 26.8524L14.6443 27.3294ZM15.979 26.2976L16.3224 27.0462C16.7969 26.8285 17.3436 26.7117 17.977 26.7117V25.8882V25.0647C17.1365 25.0647 16.3512 25.2209 15.6356 25.5491L15.979 26.2976ZM17.977 25.8882V26.7117C18.8521 26.7117 19.6038 26.9158 20.2555 27.3068L20.6792 26.6006L21.1029 25.8944C20.1715 25.3356 19.1217 25.0647 17.977 25.0647V25.8882ZM20.6792 26.6006L20.2555 27.3068C20.9192 27.705 21.4432 28.2496 21.8336 28.956L22.5544 28.5577L23.2752 28.1593C22.7484 27.2062 22.0224 26.4461 21.1029 25.8944L20.6792 26.6006ZM22.5544 28.5577L21.8347 28.958C22.2153 29.6422 22.4153 30.4491 22.4105 31.4031L23.234 31.4073L24.0575 31.4114C24.0636 30.2146 23.8106 29.1218 23.274 28.1573L22.5544 28.5577ZM23.234 31.4073L22.4105 31.4112C22.4153 32.4059 22.1863 33.2591 21.7425 33.9956L22.4479 34.4206L23.1533 34.8456C23.7686 33.8244 24.0637 32.6686 24.0575 31.4033L23.234 31.4073ZM22.4479 34.4206L21.7418 33.9969C21.2986 34.7355 20.6778 35.3214 19.8585 35.757L20.2452 36.4841L20.6319 37.2112C21.7015 36.6424 22.5491 35.8526 23.1541 34.8443L22.4479 34.4206ZM20.2452 36.4841L19.8601 35.7562C19.0587 36.1802 18.1033 36.4057 16.9698 36.4057V37.2293V38.0528C18.3256 38.0528 19.5539 37.7816 20.6303 37.2121L20.2452 36.4841ZM35.9999 34.6745L35.4181 35.2573L35.9993 35.8375L36.5811 35.2579L35.9999 34.6745ZM26.2146 24.9056L25.629 24.3266L25.0528 24.9094L25.6328 25.4884L26.2146 24.9056ZM28.36 22.7356L28.9423 22.1533L28.3567 21.5677L27.7744 22.1566L28.36 22.7356ZM38.1535 32.5291L38.7347 33.1125L39.3192 32.5302L38.7358 31.9468L38.1535 32.5291ZM28.36 34.6745L27.7777 35.2568L28.3593 35.8384L28.9416 35.2575L28.36 34.6745ZM26.2146 32.5291L25.6321 31.947L25.0502 32.5293L25.6323 33.1114L26.2146 32.5291ZM35.9999 22.7356L36.5844 22.1555L36.0019 21.5685L35.4173 22.1535L35.9999 22.7356ZM38.1535 24.9056L38.7351 25.4886L39.3166 24.9085L38.738 24.3255L38.1535 24.9056ZM35.9999 34.6745L36.5817 34.0917L26.7965 24.3228L26.2146 24.9056L25.6328 25.4884L35.4181 35.2573L35.9999 34.6745ZM26.2146 24.9056L26.8003 25.4846L28.9457 23.3146L28.36 22.7356L27.7744 22.1566L25.629 24.3266L26.2146 24.9056ZM28.36 22.7356L27.7777 23.3179L37.5711 33.1114L38.1535 32.5291L38.7358 31.9468L28.9423 22.1533L28.36 22.7356ZM38.1535 32.5291L37.5723 31.9456L35.4187 34.091L35.9999 34.6745L36.5811 35.2579L38.7347 33.1125L38.1535 32.5291ZM28.36 34.6745L28.9423 34.0921L26.797 31.9468L26.2146 32.5291L25.6323 33.1114L27.7777 35.2568L28.36 34.6745ZM26.2146 32.5291L26.7972 33.1112L36.5825 23.3177L35.9999 22.7356L35.4173 22.1535L25.6321 31.947L26.2146 32.5291ZM35.9999 22.7356L35.4154 23.3157L37.5689 25.4857L38.1535 24.9056L38.738 24.3255L36.5844 22.1555L35.9999 22.7356ZM38.1535 24.9056L37.5719 24.3225L27.7784 34.0914L28.36 34.6745L28.9416 35.2575L38.7351 25.4886L38.1535 24.9056ZM44.3112 36.5988L43.9743 37.3503L43.9796 37.3526L44.3112 36.5988ZM42.0594 34.8464L41.3942 35.332L41.3982 35.3374L42.0594 34.8464ZM41.216 32.2589V31.4353H40.3785L40.3926 32.2727L41.216 32.2589ZM44.7862 32.2589L45.6085 32.215L45.5669 31.4353H44.7862V32.2589ZM45.1874 33.3397L44.541 33.85L44.546 33.8563L44.551 33.8625L45.1874 33.3397ZM46.1864 34.0521L45.8754 34.8147L45.8754 34.8147L46.1864 34.0521ZM49.0196 34.0194L48.6751 33.2714L48.6751 33.2714L49.0196 34.0194ZM49.994 33.2251L50.6708 33.6944L50.6708 33.6944L49.994 33.2251ZM49.9695 30.8668L49.2958 31.3405L49.3 31.3465L49.3044 31.3524L49.9695 30.8668ZM48.905 30.048L48.5806 30.8049L48.5838 30.8063L48.905 30.048ZM45.7033 29.7532H44.8797V30.5767H45.7033V29.7532ZM45.7033 27.1492V26.3257H44.8797V27.1492H45.7033ZM48.6839 26.8708L48.3476 26.1191L48.3439 26.1208L48.6839 26.8708ZM49.6501 26.1011L50.3248 26.5734L50.3284 26.5681L49.6501 26.1011ZM49.6911 23.8329L48.9881 24.2618L48.9924 24.2689L48.9968 24.2758L49.6911 23.8329ZM48.8558 23.0795L48.483 23.8139L48.4876 23.8161L48.8558 23.0795ZM46.2928 23.0714L46.6148 23.8294L46.6235 23.8256L46.2928 23.0714ZM45.3348 23.8001L45.9909 24.2979L45.9909 24.2979L45.3348 23.8001ZM44.9499 24.9138V25.7373H45.7424L45.7729 24.9454L44.9499 24.9138ZM41.5517 24.9138L40.7283 24.8998L40.7141 25.7373H41.5517V24.9138ZM42.3787 22.359L43.0452 22.8427L43.0452 22.8427L42.3787 22.359ZM44.5405 20.6312L44.8833 21.38L44.8853 21.379L44.5405 20.6312ZM50.6655 20.6312L51.0244 19.89L51.0244 19.89L50.6655 20.6312ZM52.6881 22.3344L52.0044 22.7936L52.0085 22.7996L52.6881 22.3344ZM53.4087 24.7254L52.5851 24.7203L52.5851 24.7302L53.4087 24.7254ZM52.5325 27.0755L51.9322 26.5118L51.9296 26.5146L52.5325 27.0755ZM50.2479 28.2711L50.1018 27.4606L49.4244 27.5827V28.2711H50.2479ZM50.2479 28.4021H49.4244V29.1267L50.1431 29.2189L50.2479 28.4021ZM53.0647 29.6877L52.4592 30.2459L52.4638 30.2508L53.0647 29.6877ZM54.031 32.2916L53.2074 32.2873L53.2075 32.2963L54.031 32.2916ZM53.2039 34.8382L52.5451 34.3441L52.5428 34.3472L53.2039 34.8382ZM50.9193 36.5906L50.5888 35.8363L50.5888 35.8363L50.9193 36.5906ZM47.5784 37.2293V36.4057C46.4504 36.4057 45.4773 36.2121 44.6429 35.845L44.3112 36.5988L43.9796 37.3526C45.0558 37.8261 46.2608 38.0528 47.5784 38.0528V37.2293ZM44.3112 36.5988L44.6481 35.8473C43.8104 35.4718 43.1777 34.9711 42.7205 34.3554L42.0594 34.8464L41.3982 35.3374C42.0437 36.2066 42.9123 36.8742 43.9744 37.3502L44.3112 36.5988ZM42.0594 34.8464L42.7246 34.3609C42.2845 33.758 42.0531 33.0624 42.0394 32.2451L41.216 32.2589L40.3926 32.2727C40.4116 33.4096 40.7425 34.4391 41.3942 35.332L42.0594 34.8464ZM41.216 32.2589V33.0824H44.7862V32.2589V31.4353H41.216V32.2589ZM44.7862 32.2589L43.9638 32.3027C43.9944 32.8759 44.1861 33.4005 44.541 33.85L45.1874 33.3397L45.8338 32.8294C45.6973 32.6566 45.6216 32.4607 45.6085 32.215L44.7862 32.2589ZM45.1874 33.3397L44.551 33.8625C44.8999 34.2872 45.3508 34.6007 45.8754 34.8147L46.1864 34.0521L46.4974 33.2896C46.1922 33.1651 45.9771 33.0037 45.8238 32.817L45.1874 33.3397ZM46.1864 34.0521L45.8754 34.8147C46.4033 35.03 46.978 35.1295 47.5866 35.1295V34.306V33.4825C47.1581 33.4825 46.7993 33.4127 46.4974 33.2896L46.1864 34.0521ZM47.5866 34.306V35.1295C48.2245 35.1295 48.8232 35.0165 49.3641 34.7674L49.0196 34.0194L48.6751 33.2714C48.3863 33.4044 48.0297 33.4825 47.5866 33.4825V34.306ZM49.0196 34.0194L49.3641 34.7674C49.8977 34.5217 50.3433 34.1666 50.6708 33.6944L49.994 33.2251L49.3173 32.7558C49.1754 32.9605 48.9713 33.135 48.6751 33.2714L49.0196 34.0194ZM49.994 33.2251L50.6708 33.6944C51.0082 33.2078 51.1697 32.6511 51.1697 32.0541H50.3462H49.5226C49.5226 32.3416 49.4493 32.5655 49.3173 32.7558L49.994 33.2251ZM50.3462 32.0541H51.1697C51.1697 31.4414 50.9941 30.8736 50.6346 30.3812L49.9695 30.8668L49.3044 31.3524C49.4471 31.5479 49.5226 31.7716 49.5226 32.0541H50.3462ZM49.9695 30.8668L50.6432 30.3931C50.2941 29.8966 49.8061 29.5353 49.2261 29.2896L48.905 30.048L48.5838 30.8063C48.9319 30.9537 49.1536 31.1382 49.2958 31.3405L49.9695 30.8668ZM48.905 30.048L49.2294 29.291C48.6447 29.0404 47.9831 28.9296 47.2673 28.9296V29.7532V30.5767C47.8179 30.5767 48.2481 30.6624 48.5806 30.8049L48.905 30.048ZM47.2673 29.7532V28.9296H45.7033V29.7532V30.5767H47.2673V29.7532ZM45.7033 29.7532H46.5268V27.1492H45.7033H44.8797V29.7532H45.7033ZM45.7033 27.1492V27.9728H47.2673V27.1492V26.3257H45.7033V27.1492ZM47.2673 27.1492V27.9728C47.8976 27.9728 48.4893 27.8632 49.0239 27.6209L48.6839 26.8708L48.3439 26.1208C48.0596 26.2496 47.707 26.3257 47.2673 26.3257V27.1492ZM48.6839 26.8708L49.0202 27.6226C49.5521 27.3846 49.9989 27.0389 50.3248 26.5734L49.6501 26.1011L48.9755 25.6288C48.8428 25.8183 48.6455 25.9858 48.3476 26.1191L48.6839 26.8708ZM49.6501 26.1011L50.3284 26.5681C50.6612 26.0849 50.8176 25.5309 50.8176 24.9383H49.994H49.1705C49.1705 25.2301 49.0977 25.4513 48.9718 25.6341L49.6501 26.1011ZM49.994 24.9383H50.8176C50.8176 24.3804 50.6816 23.8543 50.3854 23.39L49.6911 23.8329L48.9968 24.2758C49.1046 24.4447 49.1705 24.6556 49.1705 24.9383H49.994ZM49.6911 23.8329L50.3941 23.4039C50.1116 22.9409 49.7129 22.5873 49.2241 22.343L48.8558 23.0795L48.4876 23.8161C48.7194 23.932 48.8775 24.0807 48.9881 24.2618L49.6911 23.8329ZM48.8558 23.0795L49.2287 22.3452C48.738 22.0961 48.1908 21.9858 47.6112 21.9858V22.8093V23.6329C47.9814 23.6329 48.264 23.7027 48.483 23.8139L48.8558 23.0795ZM47.6112 22.8093V21.9858C47.0289 21.9858 46.4753 22.0922 45.9622 22.3171L46.2928 23.0714L46.6235 23.8256C46.9074 23.7012 47.2327 23.6329 47.6112 23.6329V22.8093ZM46.2928 23.0714L45.9709 22.3133C45.4524 22.5335 45.0133 22.8613 44.6787 23.3024L45.3348 23.8001L45.9909 24.2979C46.1366 24.1057 46.3363 23.9476 46.6147 23.8294L46.2928 23.0714ZM45.3348 23.8001L44.6787 23.3024C44.3289 23.7635 44.1494 24.3004 44.127 24.8821L44.9499 24.9138L45.7729 24.9454C45.7832 24.6756 45.8603 24.47 45.9909 24.2979L45.3348 23.8001ZM44.9499 24.9138V24.0902H41.5517V24.9138V25.7373H44.9499V24.9138ZM41.5517 24.9138L42.3751 24.9277C42.3888 24.1196 42.6157 23.4343 43.0452 22.8427L42.3787 22.359L41.7123 21.8752C41.0718 22.7575 40.7473 23.7755 40.7283 24.8998L41.5517 24.9138ZM42.3787 22.359L43.0452 22.8427C43.4892 22.2311 44.0935 21.7416 44.8833 21.38L44.5405 20.6312L44.1977 19.8824C43.1751 20.3506 42.3383 21.0129 41.7123 21.8752L42.3787 22.359ZM44.5405 20.6312L44.8853 21.379C45.6745 21.0152 46.5834 20.8242 47.6276 20.8242V20.0007V19.1771C46.379 19.1771 45.2298 19.4065 44.1957 19.8833L44.5405 20.6312ZM47.6276 20.0007V20.8242C48.6851 20.8242 49.5707 21.016 50.3066 21.3724L50.6655 20.6312L51.0244 19.89C50.0244 19.4057 48.8846 19.1771 47.6276 19.1771V20.0007ZM50.6655 20.6312L50.3066 21.3724C51.0593 21.7369 51.6148 22.2135 52.0045 22.7936L52.6881 22.3344L53.3717 21.8752C52.8005 21.025 52.0077 20.3661 51.0244 19.89L50.6655 20.6312ZM52.6881 22.3344L52.0085 22.7996C52.3968 23.3667 52.5896 23.9987 52.5851 24.7203L53.4087 24.7254L54.2322 24.7305C54.2386 23.6834 53.951 22.7214 53.3676 21.8692L52.6881 22.3344ZM53.4087 24.7254L52.5851 24.7302C52.5895 25.4789 52.3636 26.0524 51.9322 26.5118L52.5325 27.0755L53.1328 27.6393C53.8805 26.8431 54.2387 25.8499 54.2322 24.7206L53.4087 24.7254ZM52.5325 27.0755L51.9296 26.5146C51.4804 26.9973 50.8863 27.3192 50.1018 27.4606L50.2479 28.2711L50.394 29.0815C51.4874 28.8845 52.4164 28.4093 53.1354 27.6365L52.5325 27.0755ZM50.2479 28.2711H49.4244V28.4021H50.2479H51.0714V28.2711H50.2479ZM50.2479 28.4021L50.1431 29.2189C51.2448 29.3603 51.9823 29.7285 52.4592 30.2459L53.0647 29.6877L53.6702 29.1295C52.8588 28.2493 51.7184 27.7605 50.3527 27.5852L50.2479 28.4021ZM53.0647 29.6877L52.4638 30.2508C52.9548 30.7747 53.2119 31.4329 53.2075 32.2873L54.031 32.2916L54.8545 32.2959C54.8609 31.065 54.4739 29.9872 53.6657 29.1246L53.0647 29.6877ZM54.031 32.2916L53.2075 32.2963C53.2119 33.0775 52.9907 33.75 52.5451 34.3441L53.2039 34.8382L53.8628 35.3324C54.5308 34.4416 54.8609 33.4163 54.8545 32.2869L54.031 32.2916ZM53.2039 34.8382L52.5428 34.3472C52.0888 34.9586 51.4489 35.4594 50.5888 35.8363L50.9193 36.5906L51.2499 37.3449C52.3332 36.8701 53.2164 36.2027 53.8651 35.3292L53.2039 34.8382ZM50.9193 36.5906L50.5888 35.8363C49.7387 36.2088 48.7408 36.4057 47.5784 36.4057V37.2293V38.0528C48.9272 38.0528 50.1566 37.8239 51.2499 37.3449L50.9193 36.5906Z" fill="#2B3F46" mask="url(#path-33-outside-1_2025_1444)"/>
<defs>
<linearGradient id="paint0_linear_2025_1444" x1="35.8411" y1="35.864" x2="-1.88188" y2="2.08424" gradientUnits="userSpaceOnUse">
<stop stop-color="#FFD5EF"/>
<stop offset="1" stop-color="#EFBDFD"/>
</linearGradient>
<linearGradient id="paint1_linear_2025_1444" x1="26.8809" y1="4.483" x2="25.174" y2="-4.68761" gradientUnits="userSpaceOnUse">
<stop stop-color="#F95457"/>
<stop offset="1" stop-color="#FDBDCB"/>
</linearGradient>
<linearGradient id="paint2_linear_2025_1444" x1="26.8809" y1="4.483" x2="25.174" y2="-4.68761" gradientUnits="userSpaceOnUse">
<stop stop-color="#F95457"/>
<stop offset="1" stop-color="#FDBDCB"/>
</linearGradient>
<linearGradient id="paint3_linear_2025_1444" x1="4.71795" y1="43.6522" x2="1.80375" y2="43.0282" gradientUnits="userSpaceOnUse">
<stop stop-color="#F95457"/>
<stop offset="1" stop-color="#FDBDCB"/>
</linearGradient>
<linearGradient id="paint4_linear_2025_1444" x1="35.7669" y1="58.0257" x2="30.2155" y2="50.8928" gradientUnits="userSpaceOnUse">
<stop stop-color="#F95457"/>
<stop offset="1" stop-color="#FDBDCB"/>
</linearGradient>
<linearGradient id="paint5_linear_2025_1444" x1="60.6657" y1="43.6522" x2="57.7515" y2="43.0282" gradientUnits="userSpaceOnUse">
<stop stop-color="#F95457"/>
<stop offset="1" stop-color="#FDBDCB"/>
</linearGradient>
<linearGradient id="paint6_linear_2025_1444" x1="-1.09962e-05" y1="-0.0328651" x2="30.641" y2="-4.05264" gradientUnits="userSpaceOnUse">
<stop stop-color="#D74446"/>
<stop offset="1" stop-color="#E165B8"/>
</linearGradient>
<linearGradient id="paint7_linear_2025_1444" x1="-1.11276e-05" y1="-0.033258" x2="31.0073" y2="-4.10108" gradientUnits="userSpaceOnUse">
<stop stop-color="#D74446"/>
<stop offset="1" stop-color="#E165B8"/>
</linearGradient>
<linearGradient id="paint8_linear_2025_1444" x1="-8.34573e-06" y1="-0.00415724" x2="14.606" y2="-11.5011" gradientUnits="userSpaceOnUse">
<stop stop-color="#D1369D"/>
<stop offset="1" stop-color="#B31E20"/>
</linearGradient>
<linearGradient id="paint9_linear_2025_1444" x1="-8.34573e-06" y1="-0.00415724" x2="14.606" y2="-11.5011" gradientUnits="userSpaceOnUse">
<stop stop-color="#D74446"/>
<stop offset="1" stop-color="#E165B8"/>
</linearGradient>
<linearGradient id="paint10_linear_2025_1444" x1="2.32056" y1="36.6188" x2="3.73346" y2="36.5744" gradientUnits="userSpaceOnUse">
<stop stop-color="#D74446"/>
<stop offset="1" stop-color="#D1369D"/>
</linearGradient>
<linearGradient id="paint11_linear_2025_1444" x1="27.5452" y1="52.5135" x2="34.1403" y2="51.2721" gradientUnits="userSpaceOnUse">
<stop stop-color="#B31E20"/>
<stop offset="1" stop-color="#D74446"/>
</linearGradient>
<linearGradient id="paint12_linear_2025_1444" x1="59.0066" y1="36.6188" x2="60.4195" y2="36.5744" gradientUnits="userSpaceOnUse">
<stop stop-color="#E165B8"/>
<stop offset="1" stop-color="#D74446"/>
</linearGradient>
<clipPath id="clip0_2025_1444">
<rect width="35.8992" height="35.8992" rx="4.44179" transform="matrix(0.866025 0.5 -0.866025 0.5 31.9104 19)" fill="white"/>
</clipPath>
<clipPath id="clip1_2025_1444">
<rect width="36.3731" height="36.3731" rx="4.50041" transform="matrix(0.866025 0.5 -0.866025 0.5 31.5 18.4604)" fill="white"/>
</clipPath>
</defs>
</svg>
