<svg width="64" height="64" viewBox="0 0 64 64" fill="none" xmlns="http://www.w3.org/2000/svg">
<rect width="35.8551" height="35.8551" rx="4.37833" transform="matrix(0.866025 0.5 -0.866025 0.5 31.8887 19)" fill="url(#paint0_linear_2025_1234)"/>
<rect width="26.8913" height="4.48189" transform="matrix(0.866025 0.5 0 1 4.71851 39.1685)" fill="url(#paint1_linear_2025_1234)"/>
<rect width="26.8913" height="4.48189" transform="matrix(0.866025 -0.5 0 1 35.7698 52.6143)" fill="url(#paint2_linear_2025_1234)"/>
<path d="M3.11084 36.9277C3.11084 37.8029 3.72524 38.5952 4.71858 39.1687V43.6506C3.72524 43.0771 3.11084 42.2848 3.11084 41.4096V36.9277Z" fill="url(#paint3_linear_2025_1234)"/>
<path d="M28.0071 52.6143C30.1507 53.8519 33.6263 53.8519 35.7699 52.6143V57.0961C33.6263 58.3338 30.1507 58.3338 28.0071 57.0961V52.6143Z" fill="url(#paint4_linear_2025_1234)"/>
<path d="M60.6663 36.9277C60.6663 37.8029 60.0519 38.5952 59.0586 39.1687V43.6506C60.0519 43.0771 60.6663 42.2848 60.6663 41.4096V36.9277Z" fill="url(#paint5_linear_2025_1234)"/>
<g clip-path="url(#clip0_2025_1234)">
<rect width="35.8992" height="35.8992" rx="4.44179" transform="matrix(0.866025 0.5 -0.866025 0.5 31.9104 19)" fill="url(#paint6_linear_2025_1234)"/>
<rect width="11.5594" height="11.5594" transform="matrix(0.866025 0.5 -0.866025 0.5 31.9104 19)" fill="black" fill-opacity="0.1"/>
<rect width="11.5594" height="11.5594" transform="matrix(0.866025 0.5 -0.866025 0.5 21.3711 25.085)" fill="black" fill-opacity="0.1"/>
<rect width="11.5594" height="11.5594" transform="matrix(0.866025 0.5 -0.866025 0.5 21.3711 37.2549)" fill="black" fill-opacity="0.1"/>
<rect width="11.5594" height="11.5594" transform="matrix(0.866025 0.5 -0.866025 0.5 42.45 25.085)" fill="black" fill-opacity="0.1"/>
<rect width="11.5594" height="11.5594" transform="matrix(0.866025 0.5 -0.866025 0.5 42.45 37.2549)" fill="black" fill-opacity="0.1"/>
<rect width="11.5594" height="11.5594" transform="matrix(0.866025 0.5 -0.866025 0.5 52.9893 31.1699)" fill="black" fill-opacity="0.1"/>
<rect width="11.5594" height="11.5594" transform="matrix(0.866025 0.5 -0.866025 0.5 10.8315 31.1699)" fill="black" fill-opacity="0.1"/>
<rect width="11.5594" height="11.5594" transform="matrix(0.866025 0.5 -0.866025 0.5 31.9104 43.3398)" fill="black" fill-opacity="0.1"/>
<rect width="11.5594" height="11.5594" transform="matrix(0.866025 0.5 -0.866025 0.5 31.9104 31.1699)" fill="black" fill-opacity="0.1"/>
</g>
<mask id="path-17-outside-1_2025_1234" maskUnits="userSpaceOnUse" x="9" y="19" width="47" height="20" fill="black">
<rect fill="white" x="9" y="19" width="47" height="20"/>
<path d="M16.8634 37.2293C15.6405 37.2293 14.5515 37.0191 13.5962 36.5988C12.6463 36.173 11.8957 35.5888 11.3443 34.8464C10.7984 34.0985 10.5173 33.236 10.5009 32.2589H14.0711C14.0929 32.6683 14.2267 33.0286 14.4723 33.3397C14.7234 33.6454 15.0564 33.8829 15.4713 34.0521C15.8862 34.2214 16.3529 34.306 16.8716 34.306C17.412 34.306 17.8897 34.2104 18.3045 34.0194C18.7194 33.8283 19.0442 33.5636 19.279 33.2251C19.5137 32.8866 19.6311 32.4963 19.6311 32.0541C19.6311 31.6065 19.5055 31.2107 19.2544 30.8668C19.0088 30.5174 18.6539 30.2445 18.1899 30.048C17.7313 29.8514 17.1854 29.7532 16.5522 29.7532H14.9882V27.1492H16.5522C17.0872 27.1492 17.5594 27.0564 17.9688 26.8708C18.3837 26.6852 18.7058 26.4286 18.9351 26.1011C19.1643 25.7681 19.279 25.3805 19.279 24.9383C19.279 24.518 19.178 24.1495 18.976 23.8329C18.7795 23.5108 18.5011 23.2597 18.1408 23.0795C17.7859 22.8994 17.3711 22.8093 16.8961 22.8093C16.4157 22.8093 15.9763 22.8967 15.5778 23.0714C15.1793 23.2406 14.8599 23.4835 14.6197 23.8001C14.3795 24.1168 14.2512 24.488 14.2349 24.9138H10.8366C10.853 23.9475 11.1287 23.0959 11.6637 22.359C12.1986 21.622 12.9192 21.0461 13.8254 20.6312C14.7371 20.2108 15.7661 20.0007 16.9125 20.0007C18.0698 20.0007 19.0824 20.2108 19.9504 20.6312C20.8184 21.0515 21.4926 21.6193 21.973 22.3344C22.4588 23.0441 22.699 23.8411 22.6936 24.7254C22.699 25.6644 22.407 26.4477 21.8174 27.0755C21.2333 27.7033 20.4718 28.1018 19.5328 28.2711V28.4021C20.7666 28.5604 21.7055 28.9889 22.3497 29.6877C22.9993 30.381 23.3214 31.2489 23.3159 32.2916C23.3214 33.2469 23.0457 34.0958 22.4889 34.8382C21.9375 35.5807 21.176 36.1648 20.2043 36.5906C19.2326 37.0164 18.1189 37.2293 16.8634 37.2293ZM36.1575 34.6745L26.3723 24.9056L28.5177 22.7356L38.3111 32.5291L36.1575 34.6745ZM28.5177 34.6745L26.3723 32.5291L36.1575 22.7356L38.3111 24.9056L28.5177 34.6745ZM47.9735 37.2293C47.111 37.2238 46.2785 37.0792 45.476 36.7953C44.679 36.5114 43.9639 36.0501 43.3307 35.4114C42.6974 34.7727 42.1952 33.9266 41.824 32.873C41.4582 31.8194 41.2753 30.5256 41.2753 28.9916C41.2808 27.5832 41.4418 26.3249 41.7585 25.2167C42.0805 24.1031 42.5391 23.1587 43.1341 22.3835C43.7346 21.6083 44.4525 21.0188 45.2877 20.6148C46.1229 20.2054 47.0592 20.0007 48.0964 20.0007C49.2155 20.0007 50.2035 20.219 51.0606 20.6557C51.9177 21.087 52.6055 21.6739 53.1241 22.4163C53.6482 23.1587 53.9648 23.9912 54.074 24.9138H50.5775C50.441 24.3297 50.1544 23.8711 49.7177 23.5381C49.281 23.2051 48.7405 23.0386 48.0964 23.0386C47.0046 23.0386 46.1748 23.5135 45.6071 24.4634C45.0448 25.4133 44.7582 26.7043 44.7473 28.3366H44.8619C45.113 27.8398 45.4515 27.4167 45.8773 27.0673C46.3085 26.7125 46.7971 26.4423 47.343 26.2567C47.8944 26.0656 48.4758 25.9701 49.0872 25.9701C50.0807 25.9701 50.9651 26.2048 51.7402 26.6743C52.5154 27.1383 53.1268 27.777 53.5745 28.5904C54.0221 29.4038 54.2459 30.3346 54.2459 31.3827C54.2459 32.5182 53.9812 33.5281 53.4516 34.4124C52.9276 35.2968 52.1933 35.9901 51.2489 36.4923C50.31 36.9891 49.2182 37.2347 47.9735 37.2293ZM47.9572 34.4452C48.5031 34.4452 48.9916 34.3142 49.4229 34.0521C49.8542 33.7901 50.1926 33.4353 50.4383 32.9876C50.6839 32.54 50.8068 32.0378 50.8068 31.4809C50.8068 30.9241 50.6839 30.4246 50.4383 29.9825C50.1981 29.5403 49.8651 29.1882 49.4393 28.9261C49.0135 28.6641 48.5276 28.5331 47.9817 28.5331C47.5723 28.5331 47.1929 28.6095 46.8435 28.7624C46.4996 28.9152 46.1966 29.1281 45.9346 29.4011C45.678 29.674 45.476 29.9906 45.3286 30.3509C45.1813 30.7058 45.1076 31.0852 45.1076 31.4891C45.1076 32.0296 45.2304 32.5236 45.476 32.9713C45.7272 33.4189 46.0656 33.7765 46.4914 34.044C46.9227 34.3114 47.4113 34.4452 47.9572 34.4452Z"/>
</mask>
<path d="M16.8634 37.2293C15.6405 37.2293 14.5515 37.0191 13.5962 36.5988C12.6463 36.173 11.8957 35.5888 11.3443 34.8464C10.7984 34.0985 10.5173 33.236 10.5009 32.2589H14.0711C14.0929 32.6683 14.2267 33.0286 14.4723 33.3397C14.7234 33.6454 15.0564 33.8829 15.4713 34.0521C15.8862 34.2214 16.3529 34.306 16.8716 34.306C17.412 34.306 17.8897 34.2104 18.3045 34.0194C18.7194 33.8283 19.0442 33.5636 19.279 33.2251C19.5137 32.8866 19.6311 32.4963 19.6311 32.0541C19.6311 31.6065 19.5055 31.2107 19.2544 30.8668C19.0088 30.5174 18.6539 30.2445 18.1899 30.048C17.7313 29.8514 17.1854 29.7532 16.5522 29.7532H14.9882V27.1492H16.5522C17.0872 27.1492 17.5594 27.0564 17.9688 26.8708C18.3837 26.6852 18.7058 26.4286 18.9351 26.1011C19.1643 25.7681 19.279 25.3805 19.279 24.9383C19.279 24.518 19.178 24.1495 18.976 23.8329C18.7795 23.5108 18.5011 23.2597 18.1408 23.0795C17.7859 22.8994 17.3711 22.8093 16.8961 22.8093C16.4157 22.8093 15.9763 22.8967 15.5778 23.0714C15.1793 23.2406 14.8599 23.4835 14.6197 23.8001C14.3795 24.1168 14.2512 24.488 14.2349 24.9138H10.8366C10.853 23.9475 11.1287 23.0959 11.6637 22.359C12.1986 21.622 12.9192 21.0461 13.8254 20.6312C14.7371 20.2108 15.7661 20.0007 16.9125 20.0007C18.0698 20.0007 19.0824 20.2108 19.9504 20.6312C20.8184 21.0515 21.4926 21.6193 21.973 22.3344C22.4588 23.0441 22.699 23.8411 22.6936 24.7254C22.699 25.6644 22.407 26.4477 21.8174 27.0755C21.2333 27.7033 20.4718 28.1018 19.5328 28.2711V28.4021C20.7666 28.5604 21.7055 28.9889 22.3497 29.6877C22.9993 30.381 23.3214 31.2489 23.3159 32.2916C23.3214 33.2469 23.0457 34.0958 22.4889 34.8382C21.9375 35.5807 21.176 36.1648 20.2043 36.5906C19.2326 37.0164 18.1189 37.2293 16.8634 37.2293ZM36.1575 34.6745L26.3723 24.9056L28.5177 22.7356L38.3111 32.5291L36.1575 34.6745ZM28.5177 34.6745L26.3723 32.5291L36.1575 22.7356L38.3111 24.9056L28.5177 34.6745ZM47.9735 37.2293C47.111 37.2238 46.2785 37.0792 45.476 36.7953C44.679 36.5114 43.9639 36.0501 43.3307 35.4114C42.6974 34.7727 42.1952 33.9266 41.824 32.873C41.4582 31.8194 41.2753 30.5256 41.2753 28.9916C41.2808 27.5832 41.4418 26.3249 41.7585 25.2167C42.0805 24.1031 42.5391 23.1587 43.1341 22.3835C43.7346 21.6083 44.4525 21.0188 45.2877 20.6148C46.1229 20.2054 47.0592 20.0007 48.0964 20.0007C49.2155 20.0007 50.2035 20.219 51.0606 20.6557C51.9177 21.087 52.6055 21.6739 53.1241 22.4163C53.6482 23.1587 53.9648 23.9912 54.074 24.9138H50.5775C50.441 24.3297 50.1544 23.8711 49.7177 23.5381C49.281 23.2051 48.7405 23.0386 48.0964 23.0386C47.0046 23.0386 46.1748 23.5135 45.6071 24.4634C45.0448 25.4133 44.7582 26.7043 44.7473 28.3366H44.8619C45.113 27.8398 45.4515 27.4167 45.8773 27.0673C46.3085 26.7125 46.7971 26.4423 47.343 26.2567C47.8944 26.0656 48.4758 25.9701 49.0872 25.9701C50.0807 25.9701 50.9651 26.2048 51.7402 26.6743C52.5154 27.1383 53.1268 27.777 53.5745 28.5904C54.0221 29.4038 54.2459 30.3346 54.2459 31.3827C54.2459 32.5182 53.9812 33.5281 53.4516 34.4124C52.9276 35.2968 52.1933 35.9901 51.2489 36.4923C50.31 36.9891 49.2182 37.2347 47.9735 37.2293ZM47.9572 34.4452C48.5031 34.4452 48.9916 34.3142 49.4229 34.0521C49.8542 33.7901 50.1926 33.4353 50.4383 32.9876C50.6839 32.54 50.8068 32.0378 50.8068 31.4809C50.8068 30.9241 50.6839 30.4246 50.4383 29.9825C50.1981 29.5403 49.8651 29.1882 49.4393 28.9261C49.0135 28.6641 48.5276 28.5331 47.9817 28.5331C47.5723 28.5331 47.1929 28.6095 46.8435 28.7624C46.4996 28.9152 46.1966 29.1281 45.9346 29.4011C45.678 29.674 45.476 29.9906 45.3286 30.3509C45.1813 30.7058 45.1076 31.0852 45.1076 31.4891C45.1076 32.0296 45.2304 32.5236 45.476 32.9713C45.7272 33.4189 46.0656 33.7765 46.4914 34.044C46.9227 34.3114 47.4113 34.4452 47.9572 34.4452Z" fill="white"/>
<path d="M13.5962 36.5988L13.2593 37.3503L13.2645 37.3526L13.5962 36.5988ZM11.3443 34.8464L10.6791 35.332L10.6832 35.3374L11.3443 34.8464ZM10.5009 32.2589V31.4353H9.66345L9.67748 32.2727L10.5009 32.2589ZM14.0711 32.2589L14.8934 32.215L14.8519 31.4353H14.0711V32.2589ZM14.4723 33.3397L13.8259 33.85L13.8309 33.8563L13.836 33.8625L14.4723 33.3397ZM15.4713 34.0521L15.1603 34.8147L15.1603 34.8147L15.4713 34.0521ZM18.3045 34.0194L17.9601 33.2714L17.9601 33.2714L18.3045 34.0194ZM19.279 33.2251L19.9557 33.6944L19.9557 33.6944L19.279 33.2251ZM19.2544 30.8668L18.5807 31.3405L18.585 31.3465L18.5893 31.3524L19.2544 30.8668ZM18.1899 30.048L17.8655 30.8049L17.8687 30.8063L18.1899 30.048ZM14.9882 29.7532H14.1647V30.5767H14.9882V29.7532ZM14.9882 27.1492V26.3257H14.1647V27.1492H14.9882ZM17.9688 26.8708L17.6325 26.1191L17.6288 26.1208L17.9688 26.8708ZM18.9351 26.1011L19.6097 26.5734L19.6134 26.5681L18.9351 26.1011ZM18.976 23.8329L18.273 24.2618L18.2773 24.2689L18.2817 24.2758L18.976 23.8329ZM18.1408 23.0795L17.768 23.8139L17.7725 23.8161L18.1408 23.0795ZM15.5778 23.0714L15.8997 23.8294L15.9084 23.8256L15.5778 23.0714ZM14.6197 23.8001L15.2758 24.2979L15.2758 24.2979L14.6197 23.8001ZM14.2349 24.9138V25.7373H15.0273L15.0578 24.9454L14.2349 24.9138ZM10.8366 24.9138L10.0132 24.8998L9.99902 25.7373H10.8366V24.9138ZM11.6637 22.359L12.3301 22.8427L12.3301 22.8427L11.6637 22.359ZM13.8254 20.6312L14.1682 21.38L14.1703 21.379L13.8254 20.6312ZM19.9504 20.6312L20.3094 19.89L20.3094 19.89L19.9504 20.6312ZM21.973 22.3344L21.2894 22.7936L21.2935 22.7996L21.973 22.3344ZM22.6936 24.7254L21.87 24.7203L21.8701 24.7302L22.6936 24.7254ZM21.8174 27.0755L21.2171 26.5118L21.2145 26.5146L21.8174 27.0755ZM19.5328 28.2711L19.3867 27.4606L18.7093 27.5827V28.2711H19.5328ZM19.5328 28.4021H18.7093V29.1267L19.428 29.2189L19.5328 28.4021ZM22.3497 29.6877L21.7441 30.2459L21.7487 30.2508L22.3497 29.6877ZM23.3159 32.2916L22.4923 32.2873L22.4924 32.2963L23.3159 32.2916ZM22.4889 34.8382L21.83 34.3441L21.8277 34.3472L22.4889 34.8382ZM20.2043 36.5906L19.8737 35.8363L19.8737 35.8363L20.2043 36.5906ZM16.8634 37.2293V36.4057C15.7354 36.4057 14.7622 36.2121 13.9278 35.845L13.5962 36.5988L13.2645 37.3526C14.3407 37.8261 15.5457 38.0528 16.8634 38.0528V37.2293ZM13.5962 36.5988L13.933 35.8473C13.0953 35.4718 12.4627 34.9711 12.0055 34.3554L11.3443 34.8464L10.6832 35.3374C11.3287 36.2066 12.1973 36.8742 13.2593 37.3502L13.5962 36.5988ZM11.3443 34.8464L12.0095 34.3609C11.5694 33.758 11.338 33.0624 11.3243 32.2451L10.5009 32.2589L9.67748 32.2727C9.69654 33.4096 10.0274 34.4391 10.6791 35.332L11.3443 34.8464ZM10.5009 32.2589V33.0824H14.0711V32.2589V31.4353H10.5009V32.2589ZM14.0711 32.2589L13.2487 32.3027C13.2793 32.8759 13.4711 33.4005 13.8259 33.85L14.4723 33.3397L15.1187 32.8294C14.9823 32.6566 14.9065 32.4607 14.8934 32.215L14.0711 32.2589ZM14.4723 33.3397L13.836 33.8625C14.1849 34.2872 14.6357 34.6007 15.1603 34.8147L15.4713 34.0521L15.7824 33.2896C15.4771 33.1651 15.262 33.0037 15.1087 32.817L14.4723 33.3397ZM15.4713 34.0521L15.1603 34.8147C15.6882 35.03 16.2629 35.1295 16.8716 35.1295V34.306V33.4825C16.443 33.4825 16.0842 33.4127 15.7824 33.2896L15.4713 34.0521ZM16.8716 34.306V35.1295C17.5094 35.1295 18.1081 35.0165 18.649 34.7674L18.3045 34.0194L17.9601 33.2714C17.6712 33.4044 17.3146 33.4825 16.8716 33.4825V34.306ZM18.3045 34.0194L18.649 34.7674C19.1826 34.5217 19.6282 34.1666 19.9557 33.6944L19.279 33.2251L18.6023 32.7558C18.4603 32.9605 18.2562 33.135 17.9601 33.2714L18.3045 34.0194ZM19.279 33.2251L19.9557 33.6944C20.2932 33.2078 20.4546 32.6511 20.4546 32.0541H19.6311H18.8075C18.8075 32.3416 18.7343 32.5655 18.6023 32.7558L19.279 33.2251ZM19.6311 32.0541H20.4546C20.4546 31.4414 20.279 30.8736 19.9195 30.3812L19.2544 30.8668L18.5893 31.3524C18.732 31.5479 18.8075 31.7716 18.8075 32.0541H19.6311ZM19.2544 30.8668L19.9281 30.3931C19.579 29.8966 19.091 29.5353 18.5111 29.2896L18.1899 30.048L17.8687 30.8063C18.2168 30.9537 18.4385 31.1382 18.5807 31.3405L19.2544 30.8668ZM18.1899 30.048L18.5143 29.291C17.9296 29.0404 17.2681 28.9296 16.5522 28.9296V29.7532V30.5767C17.1028 30.5767 17.5331 30.6624 17.8655 30.8049L18.1899 30.048ZM16.5522 29.7532V28.9296H14.9882V29.7532V30.5767H16.5522V29.7532ZM14.9882 29.7532H15.8117V27.1492H14.9882H14.1647V29.7532H14.9882ZM14.9882 27.1492V27.9728H16.5522V27.1492V26.3257H14.9882V27.1492ZM16.5522 27.1492V27.9728C17.1825 27.9728 17.7742 27.8632 18.3088 27.6209L17.9688 26.8708L17.6288 26.1208C17.3445 26.2496 16.9919 26.3257 16.5522 26.3257V27.1492ZM17.9688 26.8708L18.3051 27.6226C18.837 27.3846 19.2838 27.0389 19.6097 26.5734L18.9351 26.1011L18.2604 25.6288C18.1277 25.8183 17.9304 25.9858 17.6325 26.1191L17.9688 26.8708ZM18.9351 26.1011L19.6134 26.5681C19.9461 26.0849 20.1025 25.5309 20.1025 24.9383H19.279H18.4554C18.4554 25.2301 18.3826 25.4513 18.2568 25.6341L18.9351 26.1011ZM19.279 24.9383H20.1025C20.1025 24.3804 19.9665 23.8543 19.6703 23.39L18.976 23.8329L18.2817 24.2758C18.3895 24.4447 18.4554 24.6556 18.4554 24.9383H19.279ZM18.976 23.8329L19.679 23.4039C19.3965 22.9409 18.9978 22.5873 18.5091 22.343L18.1408 23.0795L17.7725 23.8161C18.0043 23.932 18.1625 24.0807 18.273 24.2618L18.976 23.8329ZM18.1408 23.0795L18.5136 22.3452C18.0229 22.0961 17.4757 21.9858 16.8961 21.9858V22.8093V23.6329C17.2664 23.6329 17.549 23.7027 17.768 23.8139L18.1408 23.0795ZM16.8961 22.8093V21.9858C16.3138 21.9858 15.7603 22.0922 15.2471 22.3171L15.5778 23.0714L15.9084 23.8256C16.1923 23.7012 16.5176 23.6329 16.8961 23.6329V22.8093ZM15.5778 23.0714L15.2559 22.3133C14.7373 22.5335 14.2983 22.8613 13.9636 23.3024L14.6197 23.8001L15.2758 24.2979C15.4216 24.1057 15.6212 23.9476 15.8997 23.8294L15.5778 23.0714ZM14.6197 23.8001L13.9636 23.3024C13.6138 23.7635 13.4343 24.3004 13.4119 24.8821L14.2349 24.9138L15.0578 24.9454C15.0682 24.6756 15.1452 24.47 15.2758 24.2979L14.6197 23.8001ZM14.2349 24.9138V24.0902H10.8366V24.9138V25.7373H14.2349V24.9138ZM10.8366 24.9138L11.66 24.9277C11.6737 24.1196 11.9007 23.4343 12.3301 22.8427L11.6637 22.359L10.9972 21.8752C10.3567 22.7575 10.0323 23.7755 10.0132 24.8998L10.8366 24.9138ZM11.6637 22.359L12.3301 22.8427C12.7741 22.2311 13.3784 21.7416 14.1682 21.38L13.8254 20.6312L13.4826 19.8824C12.46 20.3506 11.6232 21.0129 10.9972 21.8752L11.6637 22.359ZM13.8254 20.6312L14.1703 21.379C14.9594 21.0152 15.8683 20.8242 16.9125 20.8242V20.0007V19.1771C15.6639 19.1771 14.5147 19.4065 13.4806 19.8833L13.8254 20.6312ZM16.9125 20.0007V20.8242C17.97 20.8242 18.8556 21.016 19.5915 21.3724L19.9504 20.6312L20.3094 19.89C19.3093 19.4057 18.1696 19.1771 16.9125 19.1771V20.0007ZM19.9504 20.6312L19.5915 21.3724C20.3442 21.7369 20.8997 22.2135 21.2894 22.7936L21.973 22.3344L22.6566 21.8752C22.0855 21.025 21.2926 20.3661 20.3094 19.89L19.9504 20.6312ZM21.973 22.3344L21.2935 22.7996C21.6817 23.3667 21.8745 23.9987 21.8701 24.7203L22.6936 24.7254L23.5171 24.7305C23.5236 23.6834 23.236 22.7214 22.6525 21.8692L21.973 22.3344ZM22.6936 24.7254L21.8701 24.7302C21.8744 25.4789 21.6485 26.0524 21.2171 26.5118L21.8174 27.0755L22.4177 27.6393C23.1655 26.8431 23.5237 25.8499 23.5171 24.7206L22.6936 24.7254ZM21.8174 27.0755L21.2145 26.5146C20.7653 26.9973 20.1712 27.3192 19.3867 27.4606L19.5328 28.2711L19.6789 29.0815C20.7723 28.8845 21.7013 28.4093 22.4203 27.6365L21.8174 27.0755ZM19.5328 28.2711H18.7093V28.4021H19.5328H20.3563V28.2711H19.5328ZM19.5328 28.4021L19.428 29.2189C20.5298 29.3603 21.2672 29.7285 21.7442 30.2459L22.3497 29.6877L22.9552 29.1295C22.1438 28.2493 21.0033 27.7605 19.6376 27.5852L19.5328 28.4021ZM22.3497 29.6877L21.7487 30.2508C22.2397 30.7747 22.4969 31.4329 22.4924 32.2873L23.3159 32.2916L24.1394 32.2959C24.1459 31.065 23.7589 29.9872 22.9506 29.1246L22.3497 29.6877ZM23.3159 32.2916L22.4924 32.2963C22.4969 33.0775 22.2756 33.75 21.83 34.3441L22.4889 34.8382L23.1477 35.3324C23.8158 34.4416 24.1459 33.4163 24.1394 32.2869L23.3159 32.2916ZM22.4889 34.8382L21.8277 34.3472C21.3737 34.9586 20.7338 35.4594 19.8737 35.8363L20.2043 36.5906L20.5348 37.3449C21.6182 36.8701 22.5013 36.2027 23.15 35.3292L22.4889 34.8382ZM20.2043 36.5906L19.8737 35.8363C19.0236 36.2088 18.0257 36.4057 16.8634 36.4057V37.2293V38.0528C18.2121 38.0528 19.4416 37.8239 20.5348 37.3449L20.2043 36.5906ZM36.1575 34.6745L35.5757 35.2573L36.1569 35.8375L36.7387 35.2579L36.1575 34.6745ZM26.3723 24.9056L25.7866 24.3266L25.2104 24.9094L25.7904 25.4884L26.3723 24.9056ZM28.5177 22.7356L29.1 22.1533L28.5143 21.5677L27.932 22.1566L28.5177 22.7356ZM38.3111 32.5291L38.8923 33.1125L39.4769 32.5302L38.8934 31.9468L38.3111 32.5291ZM28.5177 34.6745L27.9353 35.2568L28.5169 35.8384L29.0992 35.2575L28.5177 34.6745ZM26.3723 32.5291L25.7897 31.947L25.2079 32.5293L25.7899 33.1114L26.3723 32.5291ZM36.1575 22.7356L36.7421 22.1555L36.1595 21.5685L35.575 22.1535L36.1575 22.7356ZM38.3111 24.9056L38.8927 25.4886L39.4743 24.9085L38.8956 24.3255L38.3111 24.9056ZM36.1575 34.6745L36.7394 34.0917L26.9541 24.3228L26.3723 24.9056L25.7904 25.4884L35.5757 35.2573L36.1575 34.6745ZM26.3723 24.9056L26.9579 25.4846L29.1033 23.3146L28.5177 22.7356L27.932 22.1566L25.7866 24.3266L26.3723 24.9056ZM28.5177 22.7356L27.9353 23.3179L37.7288 33.1114L38.3111 32.5291L38.8934 31.9468L29.1 22.1533L28.5177 22.7356ZM38.3111 32.5291L37.7299 31.9456L35.5763 34.091L36.1575 34.6745L36.7387 35.2579L38.8923 33.1125L38.3111 32.5291ZM28.5177 34.6745L29.1 34.0921L26.9546 31.9468L26.3723 32.5291L25.7899 33.1114L27.9353 35.2568L28.5177 34.6745ZM26.3723 32.5291L26.9548 33.1112L36.7401 23.3177L36.1575 22.7356L35.575 22.1535L25.7897 31.947L26.3723 32.5291ZM36.1575 22.7356L35.573 23.3157L37.7266 25.4857L38.3111 24.9056L38.8956 24.3255L36.7421 22.1555L36.1575 22.7356ZM38.3111 24.9056L37.7295 24.3225L27.9361 34.0914L28.5177 34.6745L29.0992 35.2575L38.8927 25.4886L38.3111 24.9056ZM47.9735 37.2293L47.9683 38.0528L47.9699 38.0528L47.9735 37.2293ZM45.476 36.7953L45.1997 37.5711L45.2014 37.5717L45.476 36.7953ZM43.3307 35.4114L42.7458 35.9912L42.7458 35.9912L43.3307 35.4114ZM41.824 32.873L41.046 33.1431L41.0472 33.1467L41.824 32.873ZM41.2753 28.9916L40.4518 28.9885V28.9916H41.2753ZM41.7585 25.2167L40.9673 24.9879L40.9666 24.9905L41.7585 25.2167ZM43.1341 22.3835L42.4831 21.8792L42.4809 21.8821L43.1341 22.3835ZM45.2877 20.6148L45.6463 21.3562L45.6502 21.3543L45.2877 20.6148ZM51.0606 20.6557L50.6867 21.3895L50.6904 21.3914L51.0606 20.6557ZM53.1241 22.4163L52.449 22.8879L52.4513 22.8912L53.1241 22.4163ZM54.074 24.9138V25.7373H55.0007L54.8918 24.817L54.074 24.9138ZM50.5775 24.9138L49.7755 25.1011L49.9242 25.7373H50.5775V24.9138ZM45.6071 24.4634L44.9002 24.0409L44.8984 24.0439L45.6071 24.4634ZM44.7473 28.3366L43.9238 28.3311L43.9182 29.1601H44.7473V28.3366ZM44.8619 28.3366V29.1601H45.3684L45.5969 28.7081L44.8619 28.3366ZM45.8773 27.0673L46.3997 27.704L46.4005 27.7033L45.8773 27.0673ZM47.343 26.2567L47.6081 27.0364L47.6127 27.0348L47.343 26.2567ZM51.7402 26.6743L51.3136 27.3787L51.3173 27.3809L51.7402 26.6743ZM53.4516 34.4124L52.7451 33.9894L52.7432 33.9926L53.4516 34.4124ZM51.2489 36.4923L51.6341 37.2202L51.6356 37.2194L51.2489 36.4923ZM49.4229 34.0521L49.8505 34.7559L49.8505 34.7559L49.4229 34.0521ZM50.4383 32.9876L51.1602 33.3838L51.1602 33.3838L50.4383 32.9876ZM50.4383 29.9825L49.7146 30.3756L49.7184 30.3824L50.4383 29.9825ZM49.4393 28.9261L49.8709 28.2248L49.8709 28.2248L49.4393 28.9261ZM46.8435 28.7624L46.5134 28.0079L46.5091 28.0098L46.8435 28.7624ZM45.9346 29.4011L45.3405 28.8307L45.3345 28.837L45.9346 29.4011ZM45.3286 30.3509L46.0892 30.6669L46.0909 30.6628L45.3286 30.3509ZM45.476 32.9713L44.754 33.3675L44.7578 33.3742L45.476 32.9713ZM46.4914 34.044L46.0533 34.7413L46.0573 34.7438L46.4914 34.044ZM47.9735 37.2293L47.9787 36.4058C47.2068 36.4009 46.4654 36.2717 45.7507 36.0189L45.476 36.7953L45.2014 37.5717C46.0916 37.8866 47.0152 38.0468 47.9683 38.0528L47.9735 37.2293ZM45.476 36.7953L45.7523 36.0195C45.0788 35.7796 44.4675 35.3884 43.9155 34.8316L43.3307 35.4114L42.7458 35.9912C43.4603 36.7119 44.2792 37.2432 45.1997 37.5711L45.476 36.7953ZM43.3307 35.4114L43.9155 34.8316C43.3863 34.2978 42.941 33.5651 42.6007 32.5993L41.824 32.873L41.0472 33.1467C41.4494 34.2881 42.0086 35.2476 42.7458 35.9912L43.3307 35.4114ZM41.824 32.873L42.602 32.6029C42.2753 31.662 42.0989 30.4657 42.0989 28.9916H41.2753H40.4518C40.4518 30.5855 40.6411 31.9768 41.046 33.1431L41.824 32.873ZM41.2753 28.9916L42.0989 28.9948C42.1041 27.6458 42.2584 26.4646 42.5503 25.443L41.7585 25.2167L40.9666 24.9905C40.6253 26.1852 40.4575 27.5206 40.4518 28.9885L41.2753 28.9916ZM41.7585 25.2167L42.5496 25.4455C42.8483 24.4126 43.2654 23.565 43.7874 22.885L43.1341 22.3835L42.4809 21.8821C41.8128 22.7524 41.3128 23.7936 40.9674 24.9879L41.7585 25.2167ZM43.1341 22.3835L43.7852 22.8878C44.3123 22.2073 44.932 21.7016 45.6463 21.3562L45.2877 20.6148L44.9291 19.8734C43.9729 20.3359 43.1569 21.0093 42.4831 21.8792L43.1341 22.3835ZM45.2877 20.6148L45.6502 21.3543C46.3602 21.0062 47.1702 20.8242 48.0964 20.8242V20.0007V19.1771C46.9481 19.1771 45.8857 19.4045 44.9252 19.8753L45.2877 20.6148ZM48.0964 20.0007V20.8242C49.1067 20.8242 49.963 21.0207 50.6867 21.3895L51.0606 20.6557L51.4345 19.922C50.4441 19.4173 49.3242 19.1771 48.0964 19.1771V20.0007ZM51.0606 20.6557L50.6904 21.3914C51.433 21.765 52.0132 22.2641 52.449 22.8879L53.1241 22.4163L53.7992 21.9447C53.1978 21.0836 52.4023 20.409 51.4308 19.9201L51.0606 20.6557ZM53.1241 22.4163L52.4513 22.8912C52.8945 23.519 53.1627 24.221 53.2561 25.0106L54.074 24.9138L54.8918 24.817C54.7669 23.7614 54.4018 22.7984 53.7969 21.9414L53.1241 22.4163ZM54.074 24.9138V24.0902H50.5775V24.9138V25.7373H54.074V24.9138ZM50.5775 24.9138L51.3794 24.7264C51.2037 23.9744 50.8202 23.3432 50.217 22.8832L49.7177 23.5381L49.2183 24.193C49.4886 24.399 49.6783 24.6849 49.7755 25.1011L50.5775 24.9138ZM49.7177 23.5381L50.217 22.8832C49.613 22.4227 48.8886 22.2151 48.0964 22.2151V23.0386V23.8621C48.5925 23.8621 48.9489 23.9875 49.2183 24.193L49.7177 23.5381ZM48.0964 23.0386V22.2151C46.71 22.2151 45.6141 22.8465 44.9002 24.0409L45.6071 24.4634L46.3139 24.8859C46.7355 24.1806 47.2991 23.8621 48.0964 23.8621V23.0386ZM45.6071 24.4634L44.8984 24.0439C44.2346 25.1653 43.9352 26.6181 43.9238 28.3311L44.7473 28.3366L45.5708 28.3421C45.5812 26.7906 45.855 25.6613 46.3157 24.8829L45.6071 24.4634ZM44.7473 28.3366V29.1601H44.8619V28.3366V27.513H44.7473V28.3366ZM44.8619 28.3366L45.5969 28.7081C45.7969 28.3124 46.0633 27.9799 46.3997 27.704L45.8773 27.0673L45.3549 26.4307C44.8396 26.8535 44.4291 27.3672 44.1269 27.965L44.8619 28.3366ZM45.8773 27.0673L46.4005 27.7033C46.7526 27.4136 47.1531 27.1911 47.6081 27.0364L47.343 26.2567L47.0779 25.477C46.4411 25.6935 45.8645 26.0114 45.354 26.4314L45.8773 27.0673ZM47.343 26.2567L47.6127 27.0348C48.0732 26.8752 48.5631 26.7936 49.0872 26.7936V25.9701V25.1466C48.3884 25.1466 47.7155 25.256 47.0734 25.4786L47.343 26.2567ZM49.0872 25.9701V26.7936C49.9453 26.7936 50.6793 26.9946 51.3136 27.3787L51.7402 26.6743L52.1669 25.9699C51.2508 25.4151 50.2162 25.1466 49.0872 25.1466V25.9701ZM51.7402 26.6743L51.3173 27.3809C51.9637 27.7679 52.4736 28.2982 52.853 28.9875L53.5745 28.5904L54.296 28.1933C53.78 27.2559 53.0671 26.5088 52.1632 25.9677L51.7402 26.6743ZM53.5745 28.5904L52.853 28.9875C53.2254 29.6642 53.4224 30.4552 53.4224 31.3827H54.2459H55.0695C55.0695 30.2139 54.8188 29.1434 54.296 28.1933L53.5745 28.5904ZM54.2459 31.3827H53.4224C53.4224 32.3847 53.1904 33.2456 52.7451 33.9894L53.4516 34.4124L54.1582 34.8355C54.7719 33.8105 55.0695 32.6516 55.0695 31.3827H54.2459ZM53.4516 34.4124L52.7432 33.9926C52.2994 34.7415 51.6789 35.3309 50.8623 35.7652L51.2489 36.4923L51.6356 37.2194C52.7078 36.6493 53.5558 35.8521 54.1601 34.8323L53.4516 34.4124ZM51.2489 36.4923L50.8638 35.7644C50.0636 36.1877 49.1096 36.4107 47.9771 36.4058L47.9735 37.2293L47.9699 38.0528C49.3267 38.0588 50.5563 37.7904 51.6341 37.2202L51.2489 36.4923ZM47.9572 34.4452V35.2687C48.6411 35.2687 49.2799 35.1027 49.8505 34.7559L49.4229 34.0521L48.9953 33.3483C48.7034 33.5257 48.365 33.6217 47.9572 33.6217V34.4452ZM49.4229 34.0521L49.8505 34.7559C50.4067 34.418 50.846 33.9565 51.1602 33.3838L50.4383 32.9876L49.7163 32.5914C49.5392 32.9141 49.3016 33.1622 48.9953 33.3483L49.4229 34.0521ZM50.4383 32.9876L51.1602 33.3838C51.4784 32.804 51.6303 32.1634 51.6303 31.4809H50.8068H49.9832C49.9832 31.9121 49.8894 32.276 49.7163 32.5914L50.4383 32.9876ZM50.8068 31.4809H51.6303C51.6303 30.7986 51.4785 30.1591 51.1582 29.5825L50.4383 29.9825L49.7184 30.3824C49.8894 30.6902 49.9832 31.0496 49.9832 31.4809H50.8068ZM50.4383 29.9825L51.1619 29.5894C50.8535 29.0215 50.4201 28.5628 49.8709 28.2248L49.4393 28.9261L49.0077 29.6275C49.31 29.8136 49.5427 30.059 49.7146 30.3755L50.4383 29.9825ZM49.4393 28.9261L49.8709 28.2248C49.3035 27.8756 48.6655 27.7096 47.9817 27.7096V28.5331V29.3566C48.3897 29.3566 48.7235 29.4526 49.0077 29.6275L49.4393 28.9261ZM47.9817 28.5331V27.7096C47.4672 27.7096 46.9744 27.8062 46.5134 28.0079L46.8435 28.7624L47.1736 29.5168C47.4114 29.4128 47.6774 29.3566 47.9817 29.3566V28.5331ZM46.8435 28.7624L46.5091 28.0098C46.0671 28.2063 45.6761 28.4812 45.3405 28.8307L45.9346 29.4011L46.5287 29.9714C46.7172 29.775 46.9321 29.6242 47.178 29.5149L46.8435 28.7624ZM45.9346 29.4011L45.3345 28.837C45.0062 29.1863 44.7505 29.5892 44.5664 30.0391L45.3286 30.3509L46.0909 30.6628C46.2016 30.392 46.3498 30.1618 46.5346 29.9651L45.9346 29.4011ZM45.3286 30.3509L44.5681 30.035C44.377 30.4951 44.284 30.9824 44.284 31.4891H45.1076H45.9311C45.9311 31.1879 45.9855 30.9165 46.0892 30.6668L45.3286 30.3509ZM45.1076 31.4891H44.284C44.284 32.1597 44.4379 32.7913 44.7541 33.3675L45.476 32.9713L46.198 32.5751C46.0229 32.256 45.9311 31.8994 45.9311 31.4891H45.1076ZM45.476 32.9713L44.7578 33.3742C45.0748 33.9392 45.5085 34.399 46.0533 34.7413L46.4914 34.044L46.9295 33.3466C46.6227 33.1539 46.3795 32.8986 46.1943 32.5683L45.476 32.9713ZM46.4914 34.044L46.0573 34.7438C46.6288 35.0983 47.2699 35.2687 47.9572 35.2687V34.4452V33.6217C47.5526 33.6217 47.2165 33.5246 46.9255 33.3441L46.4914 34.044Z" fill="#2B3F46" mask="url(#path-17-outside-1_2025_1234)"/>
<defs>
<linearGradient id="paint0_linear_2025_1234" x1="35.8411" y1="35.864" x2="-1.88188" y2="2.08424" gradientUnits="userSpaceOnUse">
<stop stop-color="#FFD5EF"/>
<stop offset="1" stop-color="#EFBDFD"/>
</linearGradient>
<linearGradient id="paint1_linear_2025_1234" x1="0" y1="0" x2="15.9633" y2="15.6375" gradientUnits="userSpaceOnUse">
<stop stop-color="#AC93FC"/>
<stop offset="1" stop-color="#E593FC"/>
</linearGradient>
<linearGradient id="paint2_linear_2025_1234" x1="-8.23702e-06" y1="-0.00410309" x2="14.4158" y2="-11.3513" gradientUnits="userSpaceOnUse">
<stop stop-color="#D744C2"/>
<stop offset="1" stop-color="#C665E1"/>
</linearGradient>
<linearGradient id="paint3_linear_2025_1234" x1="3.11084" y1="36.9277" x2="4.97822" y2="37.0006" gradientUnits="userSpaceOnUse">
<stop stop-color="#AC93FC"/>
<stop offset="1" stop-color="#E593FC"/>
</linearGradient>
<linearGradient id="paint4_linear_2025_1234" x1="28.0071" y1="52.6093" x2="34.5163" y2="51.384" gradientUnits="userSpaceOnUse">
<stop stop-color="#D744C2"/>
<stop offset="1" stop-color="#C665E1"/>
</linearGradient>
<linearGradient id="paint5_linear_2025_1234" x1="59.0586" y1="36.9216" x2="60.4531" y2="36.8778" gradientUnits="userSpaceOnUse">
<stop stop-color="#D744C2"/>
<stop offset="1" stop-color="#C665E1"/>
</linearGradient>
<linearGradient id="paint6_linear_2025_1234" x1="35.8853" y1="35.9081" x2="-1.8842" y2="2.0868" gradientUnits="userSpaceOnUse">
<stop stop-color="#FAD5FF"/>
<stop offset="1" stop-color="#CFBDFD"/>
</linearGradient>
<clipPath id="clip0_2025_1234">
<rect width="35.8992" height="35.8992" rx="4.44179" transform="matrix(0.866025 0.5 -0.866025 0.5 31.9104 19)" fill="white"/>
</clipPath>
</defs>
</svg>
