<svg width="64" height="64" viewBox="0 0 64 64" fill="none" xmlns="http://www.w3.org/2000/svg">
<path d="M4.4006 33.9298C3.80774 33.582 3.47546 33.1136 3.47547 32.6257L3.47547 30.5016C3.47547 29.9566 3.88975 29.439 4.60873 29.0857L30.1348 16.5442C31.3579 15.9433 33.1609 15.9544 34.3614 16.5703L60.0608 29.7535C60.7487 30.1064 61.1422 30.6122 61.1422 31.1434V32.5436C61.1422 33.0309 60.8108 33.4987 60.2194 33.8464L34.5631 48.9278C33.3018 49.6692 31.2326 49.6699 29.9699 48.9292L4.4006 33.9298Z" fill="url(#paint0_linear_84_1867)"/>
<rect width="34.7831" height="34.7831" rx="2.62954" transform="matrix(0.866044 -0.499967 0.866044 0.499967 2.14404 30.3906)" fill="white"/>
<rect width="10.8697" height="10.8697" transform="matrix(0.866044 -0.499967 0.866044 0.499967 12.2639 30.3906)" fill="#D9D9D9"/>
<rect width="10.8697" height="10.8697" transform="matrix(0.866044 -0.499967 0.866044 0.499967 22.8542 24.2769)" fill="#D9D9D9"/>
<rect width="10.8697" height="10.8697" transform="matrix(0.866044 -0.499967 0.866044 0.499967 22.8542 36.5044)" fill="#D9D9D9"/>
<rect width="10.8697" height="10.8697" transform="matrix(0.866044 -0.499967 0.866044 0.499967 33.4446 30.3906)" fill="#D9D9D9"/>
<mask id="path-7-outside-1_84_1867" maskUnits="userSpaceOnUse" x="19" y="23" width="27" height="14" fill="black">
<rect fill="white" x="19" y="23" width="27" height="14"/>
<path d="M23.3937 35.1394C22.8096 35.1394 22.2836 35.0232 21.8157 34.7909C21.3477 34.5586 20.9727 34.24 20.6906 33.8351C20.4085 33.4302 20.2542 32.9689 20.2276 32.4512H21.4224C21.4688 32.9125 21.6779 33.2942 22.0496 33.5962C22.4246 33.8949 22.8727 34.0442 23.3937 34.0442C23.8119 34.0442 24.1836 33.9463 24.5088 33.7505C24.8374 33.5547 25.0946 33.2859 25.2804 32.944C25.4696 32.5989 25.5642 32.2089 25.5642 31.7742C25.5642 31.3294 25.4663 30.9329 25.2705 30.5844C25.078 30.2326 24.8125 29.9555 24.474 29.753C24.1355 29.5506 23.7488 29.4477 23.3141 29.4444C23.0021 29.4411 22.6819 29.4892 22.3533 29.5888C22.0247 29.685 21.7543 29.8095 21.5419 29.9621L20.3869 29.8227L21.0042 24.8048H26.301V25.8999H22.0397L21.6812 28.9067H21.741C21.9501 28.7408 22.2122 28.6031 22.5275 28.4936C22.8428 28.384 23.1714 28.3293 23.5132 28.3293C24.1371 28.3293 24.693 28.4786 25.1809 28.7773C25.6721 29.0727 26.057 29.4776 26.3358 29.992C26.6179 30.5064 26.759 31.0938 26.759 31.7542C26.759 32.4047 26.6129 32.9855 26.3209 33.4966C26.0321 34.0044 25.6339 34.4059 25.1261 34.7013C24.6183 34.9934 24.0409 35.1394 23.3937 35.1394ZM34.7302 33.168L29.1149 27.5527L29.8715 26.796L35.4869 32.4114L34.7302 33.168ZM29.8715 33.168L29.1149 32.4114L34.7302 26.796L35.4869 27.5527L29.8715 33.168ZM41.4221 35.1394C40.765 35.1394 40.1792 35.0266 39.6648 34.8009C39.1537 34.5752 38.7472 34.2616 38.4451 33.86C38.1465 33.4551 37.9838 32.9855 37.9573 32.4512H39.2118C39.2383 32.7797 39.3512 33.0635 39.5503 33.3025C39.7494 33.5381 40.0099 33.7206 40.3319 33.85C40.6538 33.9795 41.0106 34.0442 41.4022 34.0442C41.8402 34.0442 42.2285 33.9679 42.5671 33.8152C42.9056 33.6625 43.1711 33.4501 43.3636 33.178C43.556 32.9059 43.6523 32.5906 43.6523 32.2322C43.6523 31.8571 43.5594 31.5269 43.3735 31.2415C43.1877 30.9528 42.9155 30.7271 42.5571 30.5645C42.1987 30.4019 41.7606 30.3205 41.2429 30.3205H40.4265V29.2253H41.2429C41.6478 29.2253 42.0029 29.1523 42.3082 29.0063C42.6168 28.8603 42.8574 28.6545 43.03 28.389C43.2059 28.1235 43.2939 27.8116 43.2939 27.4531C43.2939 27.108 43.2175 26.8076 43.0649 26.5521C42.9122 26.2965 42.6965 26.0974 42.4177 25.9547C42.1423 25.812 41.817 25.7406 41.442 25.7406C41.0902 25.7406 40.7583 25.8054 40.4464 25.9348C40.1377 26.0609 39.8855 26.2451 39.6897 26.4874C39.4939 26.7263 39.3877 27.0151 39.3711 27.3536H38.1763C38.1962 26.8192 38.3572 26.3513 38.6592 25.9497C38.9612 25.5448 39.3562 25.2296 39.844 25.0039C40.3352 24.7782 40.8745 24.6654 41.4619 24.6654C42.0925 24.6654 42.6334 24.7931 43.0848 25.0487C43.5361 25.3009 43.8829 25.6344 44.1252 26.0493C44.3675 26.4641 44.4886 26.9122 44.4886 27.3934C44.4886 27.9675 44.3376 28.4571 44.0356 28.8619C43.7369 29.2668 43.3304 29.5473 42.816 29.7033V29.7829C43.4598 29.8891 43.9626 30.1629 44.3243 30.6043C44.6861 31.0424 44.867 31.585 44.867 32.2322C44.867 32.7864 44.716 33.2842 44.4139 33.7256C44.1153 34.1637 43.7071 34.5088 43.1893 34.761C42.6716 35.0133 42.0825 35.1394 41.4221 35.1394Z"/>
</mask>
<path d="M23.3937 35.1394C22.8096 35.1394 22.2836 35.0232 21.8157 34.7909C21.3477 34.5586 20.9727 34.24 20.6906 33.8351C20.4085 33.4302 20.2542 32.9689 20.2276 32.4512H21.4224C21.4688 32.9125 21.6779 33.2942 22.0496 33.5962C22.4246 33.8949 22.8727 34.0442 23.3937 34.0442C23.8119 34.0442 24.1836 33.9463 24.5088 33.7505C24.8374 33.5547 25.0946 33.2859 25.2804 32.944C25.4696 32.5989 25.5642 32.2089 25.5642 31.7742C25.5642 31.3294 25.4663 30.9329 25.2705 30.5844C25.078 30.2326 24.8125 29.9555 24.474 29.753C24.1355 29.5506 23.7488 29.4477 23.3141 29.4444C23.0021 29.4411 22.6819 29.4892 22.3533 29.5888C22.0247 29.685 21.7543 29.8095 21.5419 29.9621L20.3869 29.8227L21.0042 24.8048H26.301V25.8999H22.0397L21.6812 28.9067H21.741C21.9501 28.7408 22.2122 28.6031 22.5275 28.4936C22.8428 28.384 23.1714 28.3293 23.5132 28.3293C24.1371 28.3293 24.693 28.4786 25.1809 28.7773C25.6721 29.0727 26.057 29.4776 26.3358 29.992C26.6179 30.5064 26.759 31.0938 26.759 31.7542C26.759 32.4047 26.6129 32.9855 26.3209 33.4966C26.0321 34.0044 25.6339 34.4059 25.1261 34.7013C24.6183 34.9934 24.0409 35.1394 23.3937 35.1394ZM34.7302 33.168L29.1149 27.5527L29.8715 26.796L35.4869 32.4114L34.7302 33.168ZM29.8715 33.168L29.1149 32.4114L34.7302 26.796L35.4869 27.5527L29.8715 33.168ZM41.4221 35.1394C40.765 35.1394 40.1792 35.0266 39.6648 34.8009C39.1537 34.5752 38.7472 34.2616 38.4451 33.86C38.1465 33.4551 37.9838 32.9855 37.9573 32.4512H39.2118C39.2383 32.7797 39.3512 33.0635 39.5503 33.3025C39.7494 33.5381 40.0099 33.7206 40.3319 33.85C40.6538 33.9795 41.0106 34.0442 41.4022 34.0442C41.8402 34.0442 42.2285 33.9679 42.5671 33.8152C42.9056 33.6625 43.1711 33.4501 43.3636 33.178C43.556 32.9059 43.6523 32.5906 43.6523 32.2322C43.6523 31.8571 43.5594 31.5269 43.3735 31.2415C43.1877 30.9528 42.9155 30.7271 42.5571 30.5645C42.1987 30.4019 41.7606 30.3205 41.2429 30.3205H40.4265V29.2253H41.2429C41.6478 29.2253 42.0029 29.1523 42.3082 29.0063C42.6168 28.8603 42.8574 28.6545 43.03 28.389C43.2059 28.1235 43.2939 27.8116 43.2939 27.4531C43.2939 27.108 43.2175 26.8076 43.0649 26.5521C42.9122 26.2965 42.6965 26.0974 42.4177 25.9547C42.1423 25.812 41.817 25.7406 41.442 25.7406C41.0902 25.7406 40.7583 25.8054 40.4464 25.9348C40.1377 26.0609 39.8855 26.2451 39.6897 26.4874C39.4939 26.7263 39.3877 27.0151 39.3711 27.3536H38.1763C38.1962 26.8192 38.3572 26.3513 38.6592 25.9497C38.9612 25.5448 39.3562 25.2296 39.844 25.0039C40.3352 24.7782 40.8745 24.6654 41.4619 24.6654C42.0925 24.6654 42.6334 24.7931 43.0848 25.0487C43.5361 25.3009 43.8829 25.6344 44.1252 26.0493C44.3675 26.4641 44.4886 26.9122 44.4886 27.3934C44.4886 27.9675 44.3376 28.4571 44.0356 28.8619C43.7369 29.2668 43.3304 29.5473 42.816 29.7033V29.7829C43.4598 29.8891 43.9626 30.1629 44.3243 30.6043C44.6861 31.0424 44.867 31.585 44.867 32.2322C44.867 32.7864 44.716 33.2842 44.4139 33.7256C44.1153 34.1637 43.7071 34.5088 43.1893 34.761C42.6716 35.0133 42.0825 35.1394 41.4221 35.1394Z" fill="#00C1FF"/>
<path d="M21.8157 34.7909L21.371 35.6866L21.371 35.6866L21.8157 34.7909ZM20.6906 33.8351L21.5111 33.2635L21.5111 33.2635L20.6906 33.8351ZM20.2276 32.4512V31.4512H19.175L19.2289 32.5024L20.2276 32.4512ZM21.4224 32.4512L22.4173 32.351L22.3267 31.4512H21.4224V32.4512ZM22.0496 33.5962L21.419 34.3723L21.4266 34.3784L22.0496 33.5962ZM24.5088 33.7505L23.9969 32.8915L23.993 32.8938L24.5088 33.7505ZM25.2804 32.944L24.4035 32.4634L24.4019 32.4664L25.2804 32.944ZM25.2705 30.5844L24.3932 31.0644L24.3987 31.0743L25.2705 30.5844ZM23.3141 29.4444L23.3034 30.4443L23.3064 30.4444L23.3141 29.4444ZM22.3533 29.5888L22.6344 30.5485L22.6433 30.5458L22.3533 29.5888ZM21.5419 29.9621L21.422 30.9549L21.809 31.0016L22.1255 30.7741L21.5419 29.9621ZM20.3869 29.8227L19.3944 29.7006L19.272 30.6954L20.2671 30.8155L20.3869 29.8227ZM21.0042 24.8048V23.8048H20.1197L20.0117 24.6827L21.0042 24.8048ZM26.301 24.8048H27.301V23.8048H26.301V24.8048ZM26.301 25.8999V26.8999H27.301V25.8999H26.301ZM22.0397 25.8999V24.8999H21.1518L21.0467 25.7816L22.0397 25.8999ZM21.6812 28.9067L20.6883 28.7884L20.555 29.9067H21.6812V28.9067ZM21.741 28.9067V29.9067H22.0896L22.3626 29.69L21.741 28.9067ZM25.1809 28.7773L24.6587 29.6302L24.6655 29.6343L25.1809 28.7773ZM26.3358 29.992L25.4566 30.4685L25.459 30.4728L26.3358 29.992ZM26.3209 33.4966L25.4526 33.0005L25.4516 33.0023L26.3209 33.4966ZM25.1261 34.7013L25.6247 35.5682L25.6289 35.5657L25.1261 34.7013ZM23.3937 34.1394C22.9455 34.1394 22.5745 34.0512 22.2603 33.8952L21.371 35.6866C21.9927 35.9953 22.6737 36.1394 23.3937 36.1394V34.1394ZM22.2603 33.8952C21.9338 33.7331 21.6915 33.5223 21.5111 33.2635L19.8701 34.4068C20.2539 34.9577 20.7617 35.3841 21.371 35.6866L22.2603 33.8952ZM21.5111 33.2635C21.3414 33.0199 21.2438 32.7409 21.2263 32.4L19.2289 32.5024C19.2646 33.197 19.4756 33.8405 19.8701 34.4068L21.5111 33.2635ZM20.2276 33.4512H21.4224V31.4512H20.2276V33.4512ZM20.4274 32.5514C20.5015 33.2871 20.8484 33.9086 21.419 34.3723L22.6802 32.82C22.5075 32.6797 22.4362 32.5379 22.4173 32.351L20.4274 32.5514ZM21.4266 34.3784C21.9944 34.8306 22.6673 35.0442 23.3937 35.0442V33.0442C23.078 33.0442 22.8549 32.9591 22.6726 32.8139L21.4266 34.3784ZM23.3937 35.0442C23.9746 35.0442 24.5281 34.9061 25.0246 34.6072L23.993 32.8938C23.839 32.9865 23.6492 33.0442 23.3937 33.0442V35.0442ZM25.0208 34.6095C25.5063 34.3201 25.8889 33.9184 26.159 33.4217L24.4019 32.4664C24.3002 32.6533 24.1684 32.7892 23.9969 32.8915L25.0208 34.6095ZM26.1574 33.4246C26.4355 32.9172 26.5642 32.359 26.5642 31.7742H24.5642C24.5642 32.0589 24.5037 32.2806 24.4035 32.4634L26.1574 33.4246ZM26.5642 31.7742C26.5642 31.1776 26.4313 30.6089 26.1423 30.0945L24.3987 31.0743C24.5013 31.2568 24.5642 31.4813 24.5642 31.7742H26.5642ZM26.1477 30.1044C25.8713 29.5991 25.4813 29.1902 24.9872 28.8948L23.9607 30.6113C24.1437 30.7207 24.2847 30.8661 24.3932 31.0644L26.1477 30.1044ZM24.9872 28.8948C24.4805 28.5918 23.9159 28.449 23.3217 28.4444L23.3064 30.4444C23.5818 30.4465 23.7904 30.5094 23.9607 30.6113L24.9872 28.8948ZM23.3247 28.4444C22.9013 28.4399 22.4796 28.5056 22.0633 28.6317L22.6433 30.5458C22.8841 30.4728 23.103 30.4422 23.3034 30.4443L23.3247 28.4444ZM22.0722 28.6291C21.6668 28.7478 21.2858 28.9147 20.9582 29.1501L22.1255 30.7741C22.2227 30.7043 22.3827 30.6222 22.6344 30.5484L22.0722 28.6291ZM21.6617 28.9693L20.5067 28.8299L20.2671 30.8155L21.422 30.9549L21.6617 28.9693ZM21.3794 29.9448L21.9967 24.9269L20.0117 24.6827L19.3944 29.7006L21.3794 29.9448ZM21.0042 25.8048H26.301V23.8048H21.0042V25.8048ZM25.301 24.8048V25.8999H27.301V24.8048H25.301ZM26.301 24.8999H22.0397V26.8999H26.301V24.8999ZM21.0467 25.7816L20.6883 28.7884L22.6742 29.0251L23.0326 26.0183L21.0467 25.7816ZM21.6812 29.9067H21.741V27.9067H21.6812V29.9067ZM22.3626 29.69C22.4647 29.609 22.6211 29.5197 22.8557 29.4382L22.1994 27.5489C21.8034 27.6865 21.4354 27.8726 21.1193 28.1235L22.3626 29.69ZM22.8557 29.4382C23.0629 29.3662 23.2803 29.3293 23.5132 29.3293V27.3293C23.0624 27.3293 22.6228 27.4019 22.1994 27.5489L22.8557 29.4382ZM23.5132 29.3293C23.9701 29.3293 24.3422 29.4364 24.6587 29.6302L25.703 27.9245C25.0439 27.5209 24.3041 27.3293 23.5132 27.3293V29.3293ZM24.6655 29.6343C25.0003 29.8356 25.2611 30.1077 25.4566 30.4685L27.215 29.5155C26.853 28.8475 26.3438 28.3098 25.6962 27.9203L24.6655 29.6343ZM25.459 30.4728C25.6505 30.8221 25.759 31.2404 25.759 31.7542H27.759C27.759 30.9472 27.5853 30.1907 27.2126 29.5112L25.459 30.4728ZM25.759 31.7542C25.759 32.2494 25.6495 32.6559 25.4526 33.0005L27.1891 33.9927C27.5764 33.3151 27.759 32.56 27.759 31.7542H25.759ZM25.4516 33.0023C25.2507 33.3556 24.9793 33.6298 24.6233 33.8369L25.6289 35.5657C26.2885 35.182 26.8136 34.6532 27.1902 33.9909L25.4516 33.0023ZM24.6275 33.8345C24.287 34.0304 23.8847 34.1394 23.3937 34.1394V36.1394C24.1971 36.1394 24.9497 35.9564 25.6247 35.5682L24.6275 33.8345ZM34.7302 33.168L34.0231 33.8751L34.7302 34.5823L35.4373 33.8751L34.7302 33.168ZM29.1149 27.5527L28.4078 26.8456L27.7006 27.5527L28.4078 28.2598L29.1149 27.5527ZM29.8715 26.796L30.5786 26.0889L29.8715 25.3818L29.1644 26.0889L29.8715 26.796ZM35.4869 32.4114L36.194 33.1185L36.9011 32.4114L36.194 31.7043L35.4869 32.4114ZM29.8715 33.168L29.1644 33.8751L29.8715 34.5823L30.5786 33.8751L29.8715 33.168ZM29.1149 32.4114L28.4078 31.7043L27.7006 32.4114L28.4078 33.1185L29.1149 32.4114ZM34.7302 26.796L35.4373 26.0889L34.7302 25.3818L34.0231 26.0889L34.7302 26.796ZM35.4869 27.5527L36.194 28.2598L36.9011 27.5527L36.194 26.8456L35.4869 27.5527ZM35.4373 32.4609L29.822 26.8456L28.4078 28.2598L34.0231 33.8751L35.4373 32.4609ZM29.822 28.2598L30.5786 27.5031L29.1644 26.0889L28.4078 26.8456L29.822 28.2598ZM29.1644 27.5031L34.7798 33.1185L36.194 31.7043L30.5786 26.0889L29.1644 27.5031ZM34.7798 31.7043L34.0231 32.4609L35.4373 33.8751L36.194 33.1185L34.7798 31.7043ZM30.5786 32.4609L29.822 31.7043L28.4078 33.1185L29.1644 33.8751L30.5786 32.4609ZM29.822 33.1185L35.4373 27.5031L34.0231 26.0889L28.4078 31.7043L29.822 33.1185ZM34.0231 27.5031L34.7798 28.2598L36.194 26.8456L35.4373 26.0889L34.0231 27.5031ZM34.7798 26.8456L29.1644 32.4609L30.5786 33.8751L36.194 28.2598L34.7798 26.8456ZM39.6648 34.8009L39.2609 35.7157L39.263 35.7166L39.6648 34.8009ZM38.4451 33.86L37.6404 34.4537L37.6459 34.4611L38.4451 33.86ZM37.9573 32.4512V31.4512H36.9064L36.9585 32.5008L37.9573 32.4512ZM39.2118 32.4512L40.2085 32.3706L40.1342 31.4512H39.2118V32.4512ZM39.5503 33.3025L38.7821 33.9427L38.7865 33.9479L39.5503 33.3025ZM40.3319 33.85L39.9588 34.7779L39.9588 34.7779L40.3319 33.85ZM43.3636 33.178L42.5471 32.6005L42.5471 32.6005L43.3636 33.178ZM43.3735 31.2415L42.5326 31.7828L42.5355 31.7872L43.3735 31.2415ZM42.5571 30.5645L42.1439 31.4751L42.1439 31.4751L42.5571 30.5645ZM40.4265 30.3205H39.4265V31.3205H40.4265V30.3205ZM40.4265 29.2253V28.2253H39.4265V29.2253H40.4265ZM42.3082 29.0063L41.8805 28.1024L41.8767 28.1042L42.3082 29.0063ZM43.03 28.389L42.1963 27.8367L42.1916 27.844L43.03 28.389ZM43.0649 26.5521L43.9233 26.0392L43.9233 26.0392L43.0649 26.5521ZM42.4177 25.9547L41.9577 26.8426L41.962 26.8449L42.4177 25.9547ZM40.4464 25.9348L40.8246 26.8605L40.8296 26.8585L40.4464 25.9348ZM39.6897 26.4874L40.4632 27.1212L40.4674 27.116L39.6897 26.4874ZM39.3711 27.3536V28.3536H40.3233L40.3699 27.4025L39.3711 27.3536ZM38.1763 27.3536L37.177 27.3163L37.1384 28.3536H38.1763V27.3536ZM38.6592 25.9497L39.4584 26.5508L39.4608 26.5476L38.6592 25.9497ZM39.844 25.0039L39.4265 24.0952L39.4242 24.0963L39.844 25.0039ZM43.0848 25.0487L42.5921 25.9189L42.597 25.9216L43.0848 25.0487ZM44.1252 26.0493L43.2617 26.5536L43.2617 26.5536L44.1252 26.0493ZM44.0356 28.8619L43.234 28.264L43.2309 28.2683L44.0356 28.8619ZM42.816 29.7033L42.5258 28.7463L41.816 28.9615V29.7033H42.816ZM42.816 29.7829H41.816V30.6315L42.6532 30.7696L42.816 29.7829ZM44.3243 30.6043L43.5509 31.2382L43.5533 31.241L44.3243 30.6043ZM44.4139 33.7256L43.5886 33.1609L43.5877 33.1623L44.4139 33.7256ZM43.1893 34.761L43.6273 35.66L43.6273 35.66L43.1893 34.761ZM41.4221 34.1394C40.88 34.1394 40.4346 34.0466 40.0665 33.8851L39.263 35.7166C39.9238 36.0065 40.6499 36.1394 41.4221 36.1394V34.1394ZM40.0687 33.8861C39.6962 33.7216 39.4325 33.5091 39.2444 33.2589L37.6459 34.4611C38.0619 35.0141 38.6112 35.4288 39.2609 35.7157L40.0687 33.8861ZM39.2499 33.2664C39.0755 33.03 38.9735 32.7525 38.9561 32.4016L36.9585 32.5008C36.9942 33.2186 37.2174 33.8802 37.6404 34.4537L39.2499 33.2664ZM37.9573 33.4512H39.2118V31.4512H37.9573V33.4512ZM38.215 32.5317C38.2572 33.0529 38.4427 33.5354 38.7821 33.9426L40.3185 32.6623C40.2596 32.5916 40.2195 32.5066 40.2085 32.3706L38.215 32.5317ZM38.7865 33.9479C39.1034 34.323 39.5047 34.5953 39.9588 34.7779L40.7049 32.9222C40.5152 32.846 40.3954 32.7532 40.3141 32.657L38.7865 33.9479ZM39.9588 34.7779C40.4136 34.9607 40.8991 35.0442 41.4022 35.0442V33.0442C41.122 33.0442 40.8939 32.9982 40.7049 32.9222L39.9588 34.7779ZM41.4022 35.0442C41.9568 35.0442 42.4893 34.9473 42.9782 34.7268L42.1559 32.9036C41.9678 32.9885 41.7237 33.0442 41.4022 33.0442V35.0442ZM42.9782 34.7268C43.4601 34.5094 43.8732 34.1892 44.18 33.7555L42.5471 32.6005C42.469 32.7111 42.351 32.8157 42.1559 32.9036L42.9782 34.7268ZM44.18 33.7555C44.5011 33.3015 44.6523 32.781 44.6523 32.2322H42.6523C42.6523 32.4002 42.611 32.5102 42.5471 32.6005L44.18 33.7555ZM44.6523 32.2322C44.6523 31.6837 44.5137 31.1598 44.2115 30.6958L42.5355 31.7872C42.6051 31.894 42.6523 32.0305 42.6523 32.2322H44.6523ZM44.2144 30.7003C43.9099 30.2272 43.4775 29.884 42.9703 29.6538L42.1439 31.4751C42.3535 31.5702 42.4655 31.6784 42.5327 31.7827L44.2144 30.7003ZM42.9703 29.6538C42.448 29.4168 41.8602 29.3205 41.2429 29.3205V31.3205C41.661 31.3205 41.9494 31.3869 42.1439 31.4751L42.9703 29.6538ZM41.2429 29.3205H40.4265V31.3205H41.2429V29.3205ZM41.4265 30.3205V29.2253H39.4265V30.3205H41.4265ZM40.4265 30.2253H41.2429V28.2253H40.4265V30.2253ZM41.2429 30.2253C41.7681 30.2253 42.2757 30.1303 42.7396 29.9084L41.8767 28.1042C41.73 28.1744 41.5274 28.2253 41.2429 28.2253V30.2253ZM42.7359 29.9102C43.1984 29.6914 43.587 29.3671 43.8685 28.934L42.1916 27.844C42.1279 27.942 42.0353 28.0292 41.8805 28.1024L42.7359 29.9102ZM43.8637 28.9413C44.1613 28.492 44.2939 27.9825 44.2939 27.4531H42.2939C42.2939 27.6406 42.2505 27.755 42.1964 27.8367L43.8637 28.9413ZM44.2939 27.4531C44.2939 26.9566 44.1825 26.4731 43.9233 26.0392L42.2064 27.0649C42.2525 27.1421 42.2939 27.2593 42.2939 27.4531H44.2939ZM43.9233 26.0392C43.6693 25.6141 43.31 25.2881 42.8734 25.0646L41.962 26.8449C42.0829 26.9067 42.1551 26.979 42.2064 27.0649L43.9233 26.0392ZM42.8777 25.0668C42.4334 24.8366 41.944 24.7406 41.442 24.7406V26.7406C41.69 26.7406 41.8511 26.7874 41.9577 26.8426L42.8777 25.0668ZM41.442 24.7406C40.9643 24.7406 40.5016 24.8292 40.0631 25.0111L40.8296 26.8585C41.015 26.7815 41.2162 26.7406 41.442 26.7406V24.7406ZM40.0681 25.0091C39.6147 25.1944 39.2212 25.4762 38.9119 25.8588L40.4674 27.116C40.5498 27.014 40.6607 26.9275 40.8246 26.8605L40.0681 25.0091ZM38.9162 25.8535C38.5713 26.2745 38.3983 26.7739 38.3723 27.3046L40.3699 27.4025C40.3771 27.2562 40.4165 27.1782 40.4632 27.1212L38.9162 25.8535ZM39.3711 26.3536H38.1763V28.3536H39.3711V26.3536ZM39.1756 27.3908C39.1885 27.0466 39.2871 26.7785 39.4584 26.5508L37.86 25.3487C37.4273 25.9241 37.204 26.5919 37.177 27.3163L39.1756 27.3908ZM39.4608 26.5476C39.6569 26.2847 39.917 26.0719 40.2638 25.9115L39.4242 24.0963C38.7953 24.3872 38.2655 24.805 37.8576 25.3518L39.4608 26.5476ZM40.2615 25.9126C40.6107 25.7521 41.0059 25.6654 41.4619 25.6654V23.6654C40.743 23.6654 40.0597 23.8043 39.4265 24.0952L40.2615 25.9126ZM41.4619 25.6654C41.9569 25.6654 42.3203 25.765 42.5921 25.9189L43.5775 24.1785C42.9466 23.8213 42.2281 23.6654 41.4619 23.6654V25.6654ZM42.597 25.9216C42.9047 26.0936 43.1163 26.3047 43.2617 26.5536L44.9887 25.545C44.6495 24.9642 44.1676 24.5082 43.5726 24.1757L42.597 25.9216ZM43.2617 26.5536C43.4144 26.8151 43.4886 27.0891 43.4886 27.3934H45.4886C45.4886 26.7353 45.3205 26.1131 44.9887 25.545L43.2617 26.5536ZM43.4886 27.3934C43.4886 27.7828 43.39 28.055 43.234 28.264L44.8372 29.4598C45.2853 28.8591 45.4886 28.1522 45.4886 27.3934H43.4886ZM43.2309 28.2683C43.0691 28.4876 42.849 28.6483 42.5258 28.7463L43.1061 30.6602C43.8117 30.4463 44.4047 30.0461 44.8403 29.4556L43.2309 28.2683ZM41.816 29.7033V29.7829H43.816V29.7033H41.816ZM42.6532 30.7696C43.094 30.8423 43.3651 31.0115 43.5509 31.2382L45.0978 29.9704C44.5601 29.3143 43.8256 28.9359 42.9787 28.7962L42.6532 30.7696ZM43.5533 31.241C43.7466 31.4752 43.867 31.7832 43.867 32.2322H45.867C45.867 31.3868 45.6255 30.6095 45.0954 29.9676L43.5533 31.241ZM43.867 32.2322C43.867 32.5926 43.7725 32.8921 43.5886 33.1609L45.2393 34.2903C45.6594 33.6763 45.867 32.9802 45.867 32.2322H43.867ZM43.5877 33.1623C43.3954 33.4443 43.1265 33.6793 42.7514 33.8621L43.6273 35.66C44.2876 35.3384 44.8351 34.883 45.2402 34.2889L43.5877 33.1623ZM42.7514 33.8621C42.3888 34.0387 41.9531 34.1394 41.4221 34.1394V36.1394C42.212 36.1394 42.9544 35.9879 43.6273 35.66L42.7514 33.8621Z" fill="#2F5764" mask="url(#path-7-outside-1_84_1867)"/>
<defs>
<linearGradient id="paint0_linear_84_1867" x1="3.72513" y1="32.3054" x2="33.5154" y2="49.1976" gradientUnits="userSpaceOnUse">
<stop stop-color="#4A4A4A"/>
<stop offset="1" stop-color="#303030"/>
</linearGradient>
</defs>
</svg>
