<svg width="64" height="64" viewBox="0 0 64 64" fill="none" xmlns="http://www.w3.org/2000/svg">
<rect width="35.8551" height="35.8551" rx="4.37833" transform="matrix(0.866025 0.5 -0.866025 0.5 31.8887 19)" fill="url(#paint0_linear_2122_5524)"/>
<rect width="26.8913" height="4.48189" transform="matrix(0.866025 0.5 0 1 4.71875 39.1685)" fill="url(#paint1_linear_2122_5524)"/>
<rect width="26.8913" height="4.48189" transform="matrix(0.866025 -0.5 0 1 35.7695 52.6143)" fill="url(#paint2_linear_2122_5524)"/>
<path d="M3.11133 36.9275C3.11133 37.8026 3.72572 38.5949 4.71907 39.1684V43.6503C3.72572 43.0768 3.11133 42.2845 3.11133 41.4094V36.9275Z" fill="url(#paint3_linear_2122_5524)"/>
<path d="M28.0059 52.6143C30.1495 53.8519 33.6251 53.8519 35.7687 52.6143V57.0961C33.6251 58.3338 30.1495 58.3338 28.0059 57.0961V52.6143Z" fill="url(#paint4_linear_2122_5524)"/>
<path d="M60.6663 36.9275C60.6663 37.8026 60.0519 38.5949 59.0586 39.1684V43.6503C60.0519 43.0768 60.6663 42.2845 60.6663 41.4094V36.9275Z" fill="url(#paint5_linear_2122_5524)"/>
<g clip-path="url(#clip0_2122_5524)">
<rect width="35.8992" height="35.8992" rx="4.44179" transform="matrix(0.866025 0.5 -0.866025 0.5 31.9102 19)" fill="url(#paint6_linear_2122_5524)"/>
<rect width="11.5594" height="11.5594" transform="matrix(0.866025 0.5 -0.866025 0.5 31.9102 19)" fill="black" fill-opacity="0.1"/>
<rect width="11.5594" height="11.5594" transform="matrix(0.866025 0.5 -0.866025 0.5 21.3711 25.085)" fill="black" fill-opacity="0.1"/>
<rect width="11.5594" height="11.5594" transform="matrix(0.866025 0.5 -0.866025 0.5 21.3711 37.2549)" fill="black" fill-opacity="0.1"/>
<rect width="11.5594" height="11.5594" transform="matrix(0.866025 0.5 -0.866025 0.5 42.4492 25.085)" fill="black" fill-opacity="0.1"/>
<rect width="11.5594" height="11.5594" transform="matrix(0.866025 0.5 -0.866025 0.5 42.4492 37.2549)" fill="black" fill-opacity="0.1"/>
<rect width="11.5594" height="11.5594" transform="matrix(0.866025 0.5 -0.866025 0.5 52.9883 31.1699)" fill="black" fill-opacity="0.1"/>
<rect width="11.5594" height="11.5594" transform="matrix(0.866025 0.5 -0.866025 0.5 10.832 31.1699)" fill="black" fill-opacity="0.1"/>
<rect width="11.5594" height="11.5594" transform="matrix(0.866025 0.5 -0.866025 0.5 31.9102 43.3398)" fill="black" fill-opacity="0.1"/>
<rect width="11.5594" height="11.5594" transform="matrix(0.866025 0.5 -0.866025 0.5 31.9102 31.1699)" fill="black" fill-opacity="0.1"/>
</g>
<rect width="36.3283" height="36.3283" rx="4.43612" transform="matrix(0.866025 0.5 -0.866025 0.5 31.4785 18.4607)" fill="url(#paint7_linear_2122_5524)"/>
<rect width="27.2462" height="4.54104" transform="matrix(0.866025 0.5 0 1 3.94922 38.8958)" fill="url(#paint8_linear_2122_5524)"/>
<rect width="27.2462" height="4.54104" transform="matrix(0.866025 -0.5 0 1 35.4102 52.5186)" fill="url(#paint9_linear_2122_5524)"/>
<path d="M2.32031 36.625C2.32031 37.5117 2.94282 38.3144 3.94927 38.8955V43.4366C2.94282 42.8555 2.32031 42.0527 2.32031 41.166V36.625Z" fill="url(#paint10_linear_2122_5524)"/>
<path d="M27.5449 52.5186C29.7169 53.7725 33.2383 53.7725 35.4102 52.5186V57.0596C33.2383 58.3136 29.7169 58.3136 27.5449 57.0596V52.5186Z" fill="url(#paint11_linear_2122_5524)"/>
<path d="M60.6348 36.625C60.6348 37.5117 60.0123 38.3144 59.0059 38.8955V43.4366C60.0123 42.8555 60.6348 42.0527 60.6348 41.166V36.625Z" fill="url(#paint12_linear_2122_5524)"/>
<g clip-path="url(#clip1_2122_5524)">
<rect width="11.712" height="11.712" transform="matrix(0.866025 0.5 -0.866025 0.5 31.5 18.4607)" fill="white" fill-opacity="0.2"/>
<rect width="11.712" height="11.712" transform="matrix(0.866025 0.5 -0.866025 0.5 20.8223 24.626)" fill="white" fill-opacity="0.2"/>
<rect width="11.712" height="11.712" transform="matrix(0.866025 0.5 -0.866025 0.5 20.8223 36.9565)" fill="white" fill-opacity="0.2"/>
<rect width="11.712" height="11.712" transform="matrix(0.866025 0.5 -0.866025 0.5 42.1777 24.626)" fill="white" fill-opacity="0.2"/>
<rect width="11.712" height="11.712" transform="matrix(0.866025 0.5 -0.866025 0.5 42.1777 36.9565)" fill="white" fill-opacity="0.2"/>
<rect width="11.712" height="11.712" transform="matrix(0.866025 0.5 -0.866025 0.5 52.8574 30.7913)" fill="white" fill-opacity="0.2"/>
<rect width="11.712" height="11.712" transform="matrix(0.866025 0.5 -0.866025 0.5 10.1426 30.7913)" fill="white" fill-opacity="0.2"/>
<rect width="11.712" height="11.712" transform="matrix(0.866025 0.5 -0.866025 0.5 31.5 43.1221)" fill="white" fill-opacity="0.2"/>
<rect width="11.712" height="11.712" transform="matrix(0.866025 0.5 -0.866025 0.5 31.5 30.7913)" fill="white" fill-opacity="0.2"/>
</g>
<mask id="path-33-outside-1_2122_5524" maskUnits="userSpaceOnUse" x="11" y="19" width="42" height="19" fill="black">
<rect fill="white" x="11" y="19" width="42" height="19"/>
<path d="M20.2688 20.2299V37H16.7231V23.5954H16.6249L12.7845 26.0028V22.8585L16.936 20.2299H20.2688ZM34.5475 34.6745L24.7622 24.9056L26.9076 22.7356L36.701 32.5291L34.5475 34.6745ZM26.9076 34.6745L24.7622 32.5291L34.5475 22.7356L36.701 24.9056L26.9076 34.6745ZM39.9273 37V34.4452L45.8967 28.9179C46.4044 28.4266 46.8302 27.9845 47.1741 27.5914C47.5235 27.1984 47.7883 26.8135 47.9684 26.4368C48.1486 26.0547 48.2386 25.6425 48.2386 25.2004C48.2386 24.7091 48.1267 24.286 47.9029 23.9311C47.6791 23.5709 47.3734 23.2952 46.9858 23.1041C46.5982 22.9076 46.1588 22.8093 45.6674 22.8093C45.1543 22.8093 44.7067 22.913 44.3245 23.1205C43.9424 23.3279 43.6476 23.6254 43.4402 24.013C43.2327 24.4006 43.129 24.8619 43.129 25.3969H39.7635C39.7635 24.2996 40.0119 23.347 40.5087 22.5391C41.0055 21.7312 41.7015 21.1061 42.5968 20.6639C43.492 20.2218 44.5238 20.0007 45.692 20.0007C46.893 20.0007 47.9384 20.2136 48.8282 20.6394C49.7235 21.0597 50.4195 21.6438 50.9163 22.3917C51.413 23.1396 51.6614 23.9967 51.6614 24.9629C51.6614 25.5961 51.5359 26.2212 51.2848 26.8381C51.0391 27.4549 50.5997 28.14 49.9664 28.8934C49.3332 29.6413 48.4406 30.5393 47.2888 31.5874L44.8404 33.9866V34.1013H51.8825V37H39.9273Z"/>
</mask>
<path d="M20.2688 20.2299V37H16.7231V23.5954H16.6249L12.7845 26.0028V22.8585L16.936 20.2299H20.2688ZM34.5475 34.6745L24.7622 24.9056L26.9076 22.7356L36.701 32.5291L34.5475 34.6745ZM26.9076 34.6745L24.7622 32.5291L34.5475 22.7356L36.701 24.9056L26.9076 34.6745ZM39.9273 37V34.4452L45.8967 28.9179C46.4044 28.4266 46.8302 27.9845 47.1741 27.5914C47.5235 27.1984 47.7883 26.8135 47.9684 26.4368C48.1486 26.0547 48.2386 25.6425 48.2386 25.2004C48.2386 24.7091 48.1267 24.286 47.9029 23.9311C47.6791 23.5709 47.3734 23.2952 46.9858 23.1041C46.5982 22.9076 46.1588 22.8093 45.6674 22.8093C45.1543 22.8093 44.7067 22.913 44.3245 23.1205C43.9424 23.3279 43.6476 23.6254 43.4402 24.013C43.2327 24.4006 43.129 24.8619 43.129 25.3969H39.7635C39.7635 24.2996 40.0119 23.347 40.5087 22.5391C41.0055 21.7312 41.7015 21.1061 42.5968 20.6639C43.492 20.2218 44.5238 20.0007 45.692 20.0007C46.893 20.0007 47.9384 20.2136 48.8282 20.6394C49.7235 21.0597 50.4195 21.6438 50.9163 22.3917C51.413 23.1396 51.6614 23.9967 51.6614 24.9629C51.6614 25.5961 51.5359 26.2212 51.2848 26.8381C51.0391 27.4549 50.5997 28.14 49.9664 28.8934C49.3332 29.6413 48.4406 30.5393 47.2888 31.5874L44.8404 33.9866V34.1013H51.8825V37H39.9273Z" fill="white"/>
<path d="M20.2688 20.2299H21.0923V19.4064H20.2688V20.2299ZM20.2688 37V37.8235H21.0923V37H20.2688ZM16.7231 37H15.8996V37.8235H16.7231V37ZM16.7231 23.5954H17.5467V22.7719H16.7231V23.5954ZM16.6249 23.5954V22.7719H16.3881L16.1875 22.8977L16.6249 23.5954ZM12.7845 26.0028H11.9609V27.491L13.2219 26.7006L12.7845 26.0028ZM12.7845 22.8585L12.3439 22.1627L11.9609 22.4051V22.8585H12.7845ZM16.936 20.2299V19.4064H16.6973L16.4955 19.5341L16.936 20.2299ZM20.2688 20.2299H19.4452V37H20.2688H21.0923V20.2299H20.2688ZM20.2688 37V36.1765H16.7231V37V37.8235H20.2688V37ZM16.7231 37H17.5467V23.5954H16.7231H15.8996V37H16.7231ZM16.7231 23.5954V22.7719H16.6249V23.5954V24.4189H16.7231V23.5954ZM16.6249 23.5954L16.1875 22.8977L12.3471 25.3051L12.7845 26.0028L13.2219 26.7006L17.0623 24.2932L16.6249 23.5954ZM12.7845 26.0028H13.608V22.8585H12.7845H11.9609V26.0028H12.7845ZM12.7845 22.8585L13.225 23.5543L17.3766 20.9257L16.936 20.2299L16.4955 19.5341L12.3439 22.1627L12.7845 22.8585ZM16.936 20.2299V21.0535H20.2688V20.2299V19.4064H16.936V20.2299ZM34.5475 34.6745L33.9656 35.2573L34.5468 35.8375L35.1287 35.2579L34.5475 34.6745ZM24.7622 24.9056L24.1766 24.3266L23.6004 24.9094L24.1804 25.4884L24.7622 24.9056ZM26.9076 22.7356L27.4899 22.1533L26.9043 21.5677L26.322 22.1566L26.9076 22.7356ZM36.701 32.5291L37.2823 33.1125L37.8668 32.5302L37.2834 31.9468L36.701 32.5291ZM26.9076 34.6745L26.3253 35.2568L26.9069 35.8384L27.4892 35.2575L26.9076 34.6745ZM24.7622 32.5291L24.1796 31.947L23.5978 32.5293L24.1799 33.1114L24.7622 32.5291ZM34.5475 22.7356L35.132 22.1555L34.5494 21.5685L33.9649 22.1535L34.5475 22.7356ZM36.701 24.9056L37.2826 25.4886L37.8642 24.9085L37.2856 24.3255L36.701 24.9056ZM34.5475 34.6745L35.1293 34.0917L25.344 24.3228L24.7622 24.9056L24.1804 25.4884L33.9656 35.2573L34.5475 34.6745ZM24.7622 24.9056L25.3478 25.4846L27.4932 23.3146L26.9076 22.7356L26.322 22.1566L24.1766 24.3266L24.7622 24.9056ZM26.9076 22.7356L26.3253 23.3179L36.1187 33.1114L36.701 32.5291L37.2834 31.9468L27.4899 22.1533L26.9076 22.7356ZM36.701 32.5291L36.1198 31.9456L33.9662 34.091L34.5475 34.6745L35.1287 35.2579L37.2823 33.1125L36.701 32.5291ZM26.9076 34.6745L27.4899 34.0921L25.3445 31.9468L24.7622 32.5291L24.1799 33.1114L26.3253 35.2568L26.9076 34.6745ZM24.7622 32.5291L25.3448 33.1112L35.13 23.3177L34.5475 22.7356L33.9649 22.1535L24.1796 31.947L24.7622 32.5291ZM34.5475 22.7356L33.9629 23.3157L36.1165 25.4857L36.701 24.9056L37.2856 24.3255L35.132 22.1555L34.5475 22.7356ZM36.701 24.9056L36.1194 24.3225L26.326 34.0914L26.9076 34.6745L27.4892 35.2575L37.2826 25.4886L36.701 24.9056ZM39.9273 37H39.1038V37.8235H39.9273V37ZM39.9273 34.4452L39.3678 33.8409L39.1038 34.0854V34.4452H39.9273ZM45.8967 28.9179L46.4562 29.5222L46.4629 29.5161L46.4694 29.5097L45.8967 28.9179ZM47.1741 27.5914L46.5586 27.0443L46.5544 27.0491L47.1741 27.5914ZM47.9684 26.4368L48.7114 26.7922L48.7133 26.788L47.9684 26.4368ZM47.9029 23.9311L47.2034 24.3657L47.2064 24.3705L47.9029 23.9311ZM46.9858 23.1041L46.6133 23.8387L46.6217 23.8428L46.9858 23.1041ZM43.4402 24.013L44.1663 24.4016L44.1663 24.4016L43.4402 24.013ZM43.129 25.3969V26.2204H43.9525V25.3969H43.129ZM39.7635 25.3969H38.94V26.2204H39.7635V25.3969ZM40.5087 22.5391L41.2102 22.9704L41.2102 22.9704L40.5087 22.5391ZM42.5968 20.6639L42.2321 19.9256L42.2321 19.9256L42.5968 20.6639ZM48.8282 20.6394L48.4727 21.3822L48.4782 21.3848L48.8282 20.6394ZM50.9163 22.3917L50.2303 22.8474L50.2303 22.8474L50.9163 22.3917ZM51.2848 26.8381L50.522 26.5276L50.5197 26.5334L51.2848 26.8381ZM49.9664 28.8934L50.5949 29.4255L50.5968 29.4233L49.9664 28.8934ZM47.2888 31.5874L46.7345 30.9783L46.7233 30.9885L46.7124 30.9992L47.2888 31.5874ZM44.8404 33.9866L44.264 33.3984L44.0169 33.6406V33.9866H44.8404ZM44.8404 34.1013H44.0169V34.9248H44.8404V34.1013ZM51.8825 34.1013H52.7061V33.2777H51.8825V34.1013ZM51.8825 37V37.8235H52.7061V37H51.8825ZM39.9273 37H40.7508V34.4452H39.9273H39.1038V37H39.9273ZM39.9273 34.4452L40.4868 35.0495L46.4562 29.5222L45.8967 28.9179L45.3372 28.3137L39.3678 33.8409L39.9273 34.4452ZM45.8967 28.9179L46.4694 29.5097C46.9882 29.0077 47.4308 28.5487 47.7939 28.1337L47.1741 27.5914L46.5544 27.0491C46.2296 27.4203 45.8206 27.8456 45.324 28.3262L45.8967 28.9179ZM47.1741 27.5914L47.7896 28.1385C48.1776 27.702 48.4906 27.2537 48.7114 26.7921L47.9684 26.4368L47.2255 26.0815C47.0859 26.3733 46.8694 26.6947 46.5586 27.0443L47.1741 27.5914ZM47.9684 26.4368L48.7133 26.788C48.9477 26.2909 49.0622 25.7582 49.0622 25.2004H48.2386H47.4151C47.4151 25.5269 47.3495 25.8185 47.2235 26.0857L47.9684 26.4368ZM48.2386 25.2004H49.0622C49.0622 24.5806 48.9196 23.9993 48.5994 23.4918L47.9029 23.9311L47.2064 24.3705C47.3339 24.5727 47.4151 24.8375 47.4151 25.2004H48.2386ZM47.9029 23.9311L48.6024 23.4966C48.2958 23.003 47.8728 22.6232 47.3499 22.3655L46.9858 23.1041L46.6217 23.8428C46.874 23.9671 47.0623 24.1387 47.2034 24.3657L47.9029 23.9311ZM46.9858 23.1041L47.3582 22.3696C46.8409 22.1073 46.2711 21.9858 45.6674 21.9858V22.8093V23.6329C46.0464 23.6329 46.3555 23.7079 46.6134 23.8386L46.9858 23.1041ZM45.6674 22.8093V21.9858C45.0418 21.9858 44.4544 22.1129 43.9316 22.3967L44.3245 23.1205L44.7174 23.8442C44.9589 23.7132 45.2668 23.6329 45.6674 23.6329V22.8093ZM44.3245 23.1205L43.9316 22.3967C43.4064 22.6818 42.9966 23.0966 42.7141 23.6244L43.4402 24.013L44.1663 24.4016C44.2987 24.1543 44.4784 23.974 44.7174 23.8442L44.3245 23.1205ZM43.4402 24.013L42.7141 23.6244C42.4302 24.1548 42.3055 24.7555 42.3055 25.3969H43.129H43.9525C43.9525 24.9684 44.0353 24.6464 44.1663 24.4016L43.4402 24.013ZM43.129 25.3969V24.5734H39.7635V25.3969V26.2204H43.129V25.3969ZM39.7635 25.3969H40.5871C40.5871 24.4276 40.8051 23.6294 41.2102 22.9704L40.5087 22.5391L39.8072 22.1078C39.2188 23.0647 38.94 24.1717 38.94 25.3969H39.7635ZM40.5087 22.5391L41.2102 22.9704C41.6215 22.3016 42.1974 21.7797 42.9614 21.4023L42.5968 20.6639L42.2321 19.9256C41.2056 20.4326 40.3895 21.1607 39.8072 22.1078L40.5087 22.5391ZM42.5968 20.6639L42.9614 21.4023C43.7256 21.0249 44.6289 20.8242 45.692 20.8242V20.0007V19.1771C44.4187 19.1771 43.2585 19.4186 42.2321 19.9256L42.5968 20.6639ZM45.692 20.0007V20.8242C46.7962 20.8242 47.7154 21.0198 48.4727 21.3822L48.8282 20.6394L49.1837 19.8965C48.1614 19.4073 46.9897 19.1771 45.692 19.1771V20.0007ZM48.8282 20.6394L48.4782 21.3848C49.2514 21.7478 49.8252 22.2375 50.2303 22.8474L50.9163 22.3917L51.6023 21.9361C51.0138 21.0501 50.1956 20.3716 49.1782 19.8939L48.8282 20.6394ZM50.9163 22.3917L50.2303 22.8474C50.6305 23.4498 50.8379 24.1458 50.8379 24.9629H51.6614H52.485C52.485 23.8475 52.1956 22.8294 51.6023 21.9361L50.9163 22.3917ZM51.6614 24.9629H50.8379C50.8379 25.4842 50.7351 26.0041 50.522 26.5276L51.2848 26.8381L52.0475 27.1486C52.3367 26.4383 52.485 25.7081 52.485 24.9629H51.6614ZM51.2848 26.8381L50.5197 26.5334C50.3182 27.0392 49.9372 27.6483 49.336 28.3635L49.9664 28.8934L50.5968 29.4233C51.2621 28.6318 51.76 27.8706 52.0499 27.1428L51.2848 26.8381ZM49.9664 28.8934L49.3379 28.3612C48.7371 29.0709 47.8734 29.942 46.7345 30.9783L47.2888 31.5874L47.843 32.1965C49.0078 31.1366 49.9293 30.2117 50.5949 29.4255L49.9664 28.8934ZM47.2888 31.5874L46.7124 30.9992L44.264 33.3984L44.8404 33.9866L45.4168 34.5748L47.8652 32.1756L47.2888 31.5874ZM44.8404 33.9866H44.0169V34.1013H44.8404H45.6639V33.9866H44.8404ZM44.8404 34.1013V34.9248H51.8825V34.1013V33.2777H44.8404V34.1013ZM51.8825 34.1013H51.059V37H51.8825H52.7061V34.1013H51.8825ZM51.8825 37V36.1765H39.9273V37V37.8235H51.8825V37Z" fill="#2B3F46" mask="url(#path-33-outside-1_2122_5524)"/>
<defs>
<linearGradient id="paint0_linear_2122_5524" x1="35.8411" y1="35.864" x2="-1.88188" y2="2.08424" gradientUnits="userSpaceOnUse">
<stop stop-color="#FFD5EF"/>
<stop offset="1" stop-color="#EFBDFD"/>
</linearGradient>
<linearGradient id="paint1_linear_2122_5524" x1="26.8809" y1="4.483" x2="25.174" y2="-4.68761" gradientUnits="userSpaceOnUse">
<stop stop-color="#F95457"/>
<stop offset="1" stop-color="#FDBDCB"/>
</linearGradient>
<linearGradient id="paint2_linear_2122_5524" x1="26.8809" y1="4.483" x2="25.174" y2="-4.68761" gradientUnits="userSpaceOnUse">
<stop stop-color="#F95457"/>
<stop offset="1" stop-color="#FDBDCB"/>
</linearGradient>
<linearGradient id="paint3_linear_2122_5524" x1="4.71844" y1="43.652" x2="1.80424" y2="43.0279" gradientUnits="userSpaceOnUse">
<stop stop-color="#F95457"/>
<stop offset="1" stop-color="#FDBDCB"/>
</linearGradient>
<linearGradient id="paint4_linear_2122_5524" x1="35.7657" y1="58.0257" x2="30.2143" y2="50.8928" gradientUnits="userSpaceOnUse">
<stop stop-color="#F95457"/>
<stop offset="1" stop-color="#FDBDCB"/>
</linearGradient>
<linearGradient id="paint5_linear_2122_5524" x1="60.6657" y1="43.652" x2="57.7515" y2="43.0279" gradientUnits="userSpaceOnUse">
<stop stop-color="#F95457"/>
<stop offset="1" stop-color="#FDBDCB"/>
</linearGradient>
<linearGradient id="paint6_linear_2122_5524" x1="-1.09962e-05" y1="-0.0328651" x2="30.641" y2="-4.05264" gradientUnits="userSpaceOnUse">
<stop stop-color="#D74446"/>
<stop offset="1" stop-color="#E165B8"/>
</linearGradient>
<linearGradient id="paint7_linear_2122_5524" x1="-1.11276e-05" y1="-0.033258" x2="31.0073" y2="-4.10108" gradientUnits="userSpaceOnUse">
<stop stop-color="#D74446"/>
<stop offset="1" stop-color="#E165B8"/>
</linearGradient>
<linearGradient id="paint8_linear_2122_5524" x1="-8.34573e-06" y1="-0.00415724" x2="14.606" y2="-11.5011" gradientUnits="userSpaceOnUse">
<stop stop-color="#D1369D"/>
<stop offset="1" stop-color="#B31E20"/>
</linearGradient>
<linearGradient id="paint9_linear_2122_5524" x1="-8.34573e-06" y1="-0.00415724" x2="14.606" y2="-11.5011" gradientUnits="userSpaceOnUse">
<stop stop-color="#D74446"/>
<stop offset="1" stop-color="#E165B8"/>
</linearGradient>
<linearGradient id="paint10_linear_2122_5524" x1="2.32031" y1="36.6188" x2="3.73321" y2="36.5744" gradientUnits="userSpaceOnUse">
<stop stop-color="#D74446"/>
<stop offset="1" stop-color="#D1369D"/>
</linearGradient>
<linearGradient id="paint11_linear_2122_5524" x1="27.5449" y1="52.5135" x2="34.14" y2="51.2721" gradientUnits="userSpaceOnUse">
<stop stop-color="#B31E20"/>
<stop offset="1" stop-color="#D74446"/>
</linearGradient>
<linearGradient id="paint12_linear_2122_5524" x1="59.0059" y1="36.6188" x2="60.4188" y2="36.5744" gradientUnits="userSpaceOnUse">
<stop stop-color="#E165B8"/>
<stop offset="1" stop-color="#D74446"/>
</linearGradient>
<clipPath id="clip0_2122_5524">
<rect width="35.8992" height="35.8992" rx="4.44179" transform="matrix(0.866025 0.5 -0.866025 0.5 31.9102 19)" fill="white"/>
</clipPath>
<clipPath id="clip1_2122_5524">
<rect width="36.3731" height="36.3731" rx="4.50041" transform="matrix(0.866025 0.5 -0.866025 0.5 31.5 18.4607)" fill="white"/>
</clipPath>
</defs>
</svg>
