<svg width="64" height="64" viewBox="0 0 64 64" fill="none" xmlns="http://www.w3.org/2000/svg">
<rect width="35.8551" height="35.8551" rx="4.37833" transform="matrix(0.866025 0.5 -0.866025 0.5 31.8887 19)" fill="url(#paint0_linear_2025_994)"/>
<rect width="26.8913" height="4.48189" transform="matrix(0.866025 0.5 0 1 4.71851 39.1685)" fill="url(#paint1_linear_2025_994)"/>
<rect width="26.8913" height="4.48189" transform="matrix(0.866025 -0.5 0 1 35.7698 52.6143)" fill="url(#paint2_linear_2025_994)"/>
<path d="M3.11084 36.9277C3.11084 37.8029 3.72524 38.5952 4.71858 39.1687V43.6506C3.72524 43.0771 3.11084 42.2848 3.11084 41.4096V36.9277Z" fill="url(#paint3_linear_2025_994)"/>
<path d="M28.0071 52.6143C30.1507 53.8519 33.6263 53.8519 35.7699 52.6143V57.0961C33.6263 58.3338 30.1507 58.3338 28.0071 57.0961V52.6143Z" fill="url(#paint4_linear_2025_994)"/>
<path d="M60.6663 36.9277C60.6663 37.8029 60.0519 38.5952 59.0586 39.1687V43.6506C60.0519 43.0771 60.6663 42.2848 60.6663 41.4096V36.9277Z" fill="url(#paint5_linear_2025_994)"/>
<g clip-path="url(#clip0_2025_994)">
<rect width="35.8992" height="35.8992" rx="4.44179" transform="matrix(0.866025 0.5 -0.866025 0.5 31.9104 19)" fill="url(#paint6_linear_2025_994)"/>
<rect width="11.5594" height="11.5594" transform="matrix(0.866025 0.5 -0.866025 0.5 31.9104 19)" fill="black" fill-opacity="0.1"/>
<rect width="11.5594" height="11.5594" transform="matrix(0.866025 0.5 -0.866025 0.5 21.3711 25.085)" fill="black" fill-opacity="0.1"/>
<rect width="11.5594" height="11.5594" transform="matrix(0.866025 0.5 -0.866025 0.5 21.3711 37.2549)" fill="black" fill-opacity="0.1"/>
<rect width="11.5594" height="11.5594" transform="matrix(0.866025 0.5 -0.866025 0.5 42.45 25.085)" fill="black" fill-opacity="0.1"/>
<rect width="11.5594" height="11.5594" transform="matrix(0.866025 0.5 -0.866025 0.5 42.45 37.2549)" fill="black" fill-opacity="0.1"/>
<rect width="11.5594" height="11.5594" transform="matrix(0.866025 0.5 -0.866025 0.5 52.9893 31.1699)" fill="black" fill-opacity="0.1"/>
<rect width="11.5594" height="11.5594" transform="matrix(0.866025 0.5 -0.866025 0.5 10.8315 31.1699)" fill="black" fill-opacity="0.1"/>
<rect width="11.5594" height="11.5594" transform="matrix(0.866025 0.5 -0.866025 0.5 31.9104 43.3398)" fill="black" fill-opacity="0.1"/>
<rect width="11.5594" height="11.5594" transform="matrix(0.866025 0.5 -0.866025 0.5 31.9104 31.1699)" fill="black" fill-opacity="0.1"/>
</g>
<mask id="path-17-outside-1_2025_994" maskUnits="userSpaceOnUse" x="10" y="19" width="45" height="20" fill="black">
<rect fill="white" x="10" y="19" width="45" height="20"/>
<path d="M11.0137 37V34.4452L16.9831 28.9179C17.4908 28.4266 17.9166 27.9845 18.2605 27.5914C18.6099 27.1984 18.8747 26.8135 19.0548 26.4368C19.235 26.0547 19.325 25.6425 19.325 25.2004C19.325 24.7091 19.2131 24.286 18.9893 23.9311C18.7655 23.5709 18.4598 23.2952 18.0722 23.1041C17.6846 22.9076 17.2452 22.8093 16.7538 22.8093C16.2407 22.8093 15.7931 22.913 15.4109 23.1205C15.0288 23.3279 14.734 23.6254 14.5266 24.013C14.3191 24.4006 14.2154 24.8619 14.2154 25.3969H10.8499C10.8499 24.2996 11.0983 23.347 11.5951 22.5391C12.0919 21.7312 12.7879 21.1061 13.6832 20.6639C14.5784 20.2218 15.6102 20.0007 16.7784 20.0007C17.9794 20.0007 19.0248 20.2136 19.9146 20.6394C20.8099 21.0597 21.5059 21.6438 22.0027 22.3917C22.4994 23.1396 22.7478 23.9967 22.7478 24.9629C22.7478 25.5961 22.6223 26.2212 22.3712 26.8381C22.1255 27.4549 21.6861 28.14 21.0528 28.8934C20.4196 29.6413 19.527 30.5393 18.3752 31.5874L15.9268 33.9866V34.1013H22.9689V37H11.0137ZM35.831 34.6745L26.0457 24.9056L28.1911 22.7356L37.9846 32.5291L35.831 34.6745ZM28.1911 34.6745L26.0457 32.5291L35.831 22.7356L37.9846 24.9056L28.1911 34.6745ZM47.4096 37.2293C46.1867 37.2293 45.0977 37.0191 44.1423 36.5988C43.1925 36.173 42.4419 35.5888 41.8905 34.8464C41.3446 34.0985 41.0635 33.236 41.0471 32.2589H44.6173C44.6391 32.6683 44.7729 33.0286 45.0185 33.3397C45.2696 33.6454 45.6026 33.8829 46.0175 34.0521C46.4324 34.2214 46.8991 34.306 47.4177 34.306C47.9582 34.306 48.4358 34.2104 48.8507 34.0194C49.2656 33.8283 49.5904 33.5636 49.8252 33.2251C50.0599 32.8866 50.1773 32.4963 50.1773 32.0541C50.1773 31.6065 50.0517 31.2107 49.8006 30.8668C49.5549 30.5174 49.2001 30.2445 48.7361 30.048C48.2775 29.8514 47.7316 29.7532 47.0984 29.7532H45.5344V27.1492H47.0984C47.6334 27.1492 48.1056 27.0564 48.515 26.8708C48.9299 26.6852 49.252 26.4286 49.4812 26.1011C49.7105 25.7681 49.8252 25.3805 49.8252 24.9383C49.8252 24.518 49.7242 24.1495 49.5222 23.8329C49.3257 23.5108 49.0473 23.2597 48.687 23.0795C48.3321 22.8994 47.9172 22.8093 47.4423 22.8093C46.9619 22.8093 46.5225 22.8967 46.124 23.0714C45.7254 23.2406 45.4061 23.4835 45.1659 23.8001C44.9257 24.1168 44.7974 24.488 44.781 24.9138H41.3828C41.3992 23.9475 41.6749 23.0959 42.2099 22.359C42.7448 21.622 43.4654 21.0461 44.3716 20.6312C45.2833 20.2108 46.3123 20.0007 47.4587 20.0007C48.616 20.0007 49.6286 20.2108 50.4966 20.6312C51.3646 21.0515 52.0388 21.6193 52.5192 22.3344C53.005 23.0441 53.2452 23.8411 53.2398 24.7254C53.2452 25.6644 52.9532 26.4477 52.3636 27.0755C51.7795 27.7033 51.018 28.1018 50.079 28.2711V28.4021C51.3127 28.5604 52.2517 28.9889 52.8958 29.6877C53.5455 30.381 53.8676 31.2489 53.8621 32.2916C53.8676 33.2469 53.5919 34.0958 53.0351 34.8382C52.4837 35.5807 51.7222 36.1648 50.7505 36.5906C49.7788 37.0164 48.6651 37.2293 47.4096 37.2293Z"/>
</mask>
<path d="M11.0137 37V34.4452L16.9831 28.9179C17.4908 28.4266 17.9166 27.9845 18.2605 27.5914C18.6099 27.1984 18.8747 26.8135 19.0548 26.4368C19.235 26.0547 19.325 25.6425 19.325 25.2004C19.325 24.7091 19.2131 24.286 18.9893 23.9311C18.7655 23.5709 18.4598 23.2952 18.0722 23.1041C17.6846 22.9076 17.2452 22.8093 16.7538 22.8093C16.2407 22.8093 15.7931 22.913 15.4109 23.1205C15.0288 23.3279 14.734 23.6254 14.5266 24.013C14.3191 24.4006 14.2154 24.8619 14.2154 25.3969H10.8499C10.8499 24.2996 11.0983 23.347 11.5951 22.5391C12.0919 21.7312 12.7879 21.1061 13.6832 20.6639C14.5784 20.2218 15.6102 20.0007 16.7784 20.0007C17.9794 20.0007 19.0248 20.2136 19.9146 20.6394C20.8099 21.0597 21.5059 21.6438 22.0027 22.3917C22.4994 23.1396 22.7478 23.9967 22.7478 24.9629C22.7478 25.5961 22.6223 26.2212 22.3712 26.8381C22.1255 27.4549 21.6861 28.14 21.0528 28.8934C20.4196 29.6413 19.527 30.5393 18.3752 31.5874L15.9268 33.9866V34.1013H22.9689V37H11.0137ZM35.831 34.6745L26.0457 24.9056L28.1911 22.7356L37.9846 32.5291L35.831 34.6745ZM28.1911 34.6745L26.0457 32.5291L35.831 22.7356L37.9846 24.9056L28.1911 34.6745ZM47.4096 37.2293C46.1867 37.2293 45.0977 37.0191 44.1423 36.5988C43.1925 36.173 42.4419 35.5888 41.8905 34.8464C41.3446 34.0985 41.0635 33.236 41.0471 32.2589H44.6173C44.6391 32.6683 44.7729 33.0286 45.0185 33.3397C45.2696 33.6454 45.6026 33.8829 46.0175 34.0521C46.4324 34.2214 46.8991 34.306 47.4177 34.306C47.9582 34.306 48.4358 34.2104 48.8507 34.0194C49.2656 33.8283 49.5904 33.5636 49.8252 33.2251C50.0599 32.8866 50.1773 32.4963 50.1773 32.0541C50.1773 31.6065 50.0517 31.2107 49.8006 30.8668C49.5549 30.5174 49.2001 30.2445 48.7361 30.048C48.2775 29.8514 47.7316 29.7532 47.0984 29.7532H45.5344V27.1492H47.0984C47.6334 27.1492 48.1056 27.0564 48.515 26.8708C48.9299 26.6852 49.252 26.4286 49.4812 26.1011C49.7105 25.7681 49.8252 25.3805 49.8252 24.9383C49.8252 24.518 49.7242 24.1495 49.5222 23.8329C49.3257 23.5108 49.0473 23.2597 48.687 23.0795C48.3321 22.8994 47.9172 22.8093 47.4423 22.8093C46.9619 22.8093 46.5225 22.8967 46.124 23.0714C45.7254 23.2406 45.4061 23.4835 45.1659 23.8001C44.9257 24.1168 44.7974 24.488 44.781 24.9138H41.3828C41.3992 23.9475 41.6749 23.0959 42.2099 22.359C42.7448 21.622 43.4654 21.0461 44.3716 20.6312C45.2833 20.2108 46.3123 20.0007 47.4587 20.0007C48.616 20.0007 49.6286 20.2108 50.4966 20.6312C51.3646 21.0515 52.0388 21.6193 52.5192 22.3344C53.005 23.0441 53.2452 23.8411 53.2398 24.7254C53.2452 25.6644 52.9532 26.4477 52.3636 27.0755C51.7795 27.7033 51.018 28.1018 50.079 28.2711V28.4021C51.3127 28.5604 52.2517 28.9889 52.8958 29.6877C53.5455 30.381 53.8676 31.2489 53.8621 32.2916C53.8676 33.2469 53.5919 34.0958 53.0351 34.8382C52.4837 35.5807 51.7222 36.1648 50.7505 36.5906C49.7788 37.0164 48.6651 37.2293 47.4096 37.2293Z" fill="white"/>
<path d="M11.0137 37H10.1902V37.8235H11.0137V37ZM11.0137 34.4452L10.4542 33.8409L10.1902 34.0854V34.4452H11.0137ZM16.9831 28.9179L17.5426 29.5222L17.5493 29.5161L17.5558 29.5097L16.9831 28.9179ZM18.2605 27.5914L17.645 27.0443L17.6408 27.0491L18.2605 27.5914ZM19.0548 26.4368L19.7978 26.7922L19.7997 26.788L19.0548 26.4368ZM18.9893 23.9311L18.2897 24.3657L18.2928 24.3705L18.9893 23.9311ZM18.0722 23.1041L17.6997 23.8387L17.7081 23.8428L18.0722 23.1041ZM14.5266 24.013L15.2526 24.4016L15.2526 24.4016L14.5266 24.013ZM14.2154 25.3969V26.2204H15.0389V25.3969H14.2154ZM10.8499 25.3969H10.0264V26.2204H10.8499V25.3969ZM11.5951 22.5391L12.2966 22.9704L12.2966 22.9704L11.5951 22.5391ZM13.6832 20.6639L13.3185 19.9256L13.3185 19.9256L13.6832 20.6639ZM19.9146 20.6394L19.5591 21.3822L19.5646 21.3848L19.9146 20.6394ZM22.0027 22.3917L21.3167 22.8474L21.3167 22.8474L22.0027 22.3917ZM22.3712 26.8381L21.6084 26.5276L21.6061 26.5334L22.3712 26.8381ZM21.0528 28.8934L21.6813 29.4255L21.6832 29.4233L21.0528 28.8934ZM18.3752 31.5874L17.8209 30.9783L17.8097 30.9885L17.7988 30.9992L18.3752 31.5874ZM15.9268 33.9866L15.3504 33.3984L15.1033 33.6406V33.9866H15.9268ZM15.9268 34.1013H15.1033V34.9248H15.9268V34.1013ZM22.9689 34.1013H23.7924V33.2777H22.9689V34.1013ZM22.9689 37V37.8235H23.7924V37H22.9689ZM11.0137 37H11.8372V34.4452H11.0137H10.1902V37H11.0137ZM11.0137 34.4452L11.5732 35.0495L17.5426 29.5222L16.9831 28.9179L16.4236 28.3137L10.4542 33.8409L11.0137 34.4452ZM16.9831 28.9179L17.5558 29.5097C18.0746 29.0077 18.5172 28.5487 18.8803 28.1337L18.2605 27.5914L17.6408 27.0491C17.316 27.4203 16.907 27.8456 16.4104 28.3262L16.9831 28.9179ZM18.2605 27.5914L18.876 28.1385C19.264 27.702 19.577 27.2537 19.7977 26.7921L19.0548 26.4368L18.3119 26.0815C18.1723 26.3733 17.9558 26.6947 17.645 27.0443L18.2605 27.5914ZM19.0548 26.4368L19.7997 26.788C20.0341 26.2909 20.1486 25.7582 20.1486 25.2004H19.325H18.5015C18.5015 25.5269 18.4359 25.8185 18.3099 26.0857L19.0548 26.4368ZM19.325 25.2004H20.1486C20.1486 24.5806 20.006 23.9993 19.6858 23.4918L18.9893 23.9311L18.2928 24.3705C18.4203 24.5727 18.5015 24.8375 18.5015 25.2004H19.325ZM18.9893 23.9311L19.6888 23.4966C19.3822 23.003 18.9592 22.6232 18.4363 22.3655L18.0722 23.1041L17.7081 23.8428C17.9604 23.9671 18.1487 24.1387 18.2898 24.3657L18.9893 23.9311ZM18.0722 23.1041L18.4446 22.3696C17.9273 22.1073 17.3575 21.9858 16.7538 21.9858V22.8093V23.6329C17.1328 23.6329 17.4419 23.7079 17.6998 23.8386L18.0722 23.1041ZM16.7538 22.8093V21.9858C16.1282 21.9858 15.5408 22.1129 15.018 22.3967L15.4109 23.1205L15.8038 23.8442C16.0453 23.7132 16.3532 23.6329 16.7538 23.6329V22.8093ZM15.4109 23.1205L15.018 22.3967C14.4928 22.6818 14.083 23.0966 13.8005 23.6244L14.5266 24.013L15.2526 24.4016C15.3851 24.1543 15.5648 23.974 15.8038 23.8442L15.4109 23.1205ZM14.5266 24.013L13.8005 23.6244C13.5166 24.1548 13.3919 24.7555 13.3919 25.3969H14.2154H15.0389C15.0389 24.9684 15.1216 24.6464 15.2526 24.4016L14.5266 24.013ZM14.2154 25.3969V24.5734H10.8499V25.3969V26.2204H14.2154V25.3969ZM10.8499 25.3969H11.6735C11.6735 24.4276 11.8915 23.6294 12.2966 22.9704L11.5951 22.5391L10.8936 22.1078C10.3052 23.0647 10.0264 24.1717 10.0264 25.3969H10.8499ZM11.5951 22.5391L12.2966 22.9704C12.7078 22.3016 13.2838 21.7797 14.0478 21.4023L13.6832 20.6639L13.3185 19.9256C12.2919 20.4326 11.4759 21.1607 10.8936 22.1078L11.5951 22.5391ZM13.6832 20.6639L14.0478 21.4023C14.8119 21.0249 15.7152 20.8242 16.7784 20.8242V20.0007V19.1771C15.5051 19.1771 14.3449 19.4186 13.3185 19.9256L13.6832 20.6639ZM16.7784 20.0007V20.8242C17.8826 20.8242 18.8018 21.0198 19.5591 21.3822L19.9146 20.6394L20.2701 19.8965C19.2478 19.4073 18.0761 19.1771 16.7784 19.1771V20.0007ZM19.9146 20.6394L19.5646 21.3848C20.3378 21.7478 20.9116 22.2375 21.3167 22.8474L22.0027 22.3917L22.6887 21.9361C22.1002 21.0501 21.282 20.3716 20.2646 19.8939L19.9146 20.6394ZM22.0027 22.3917L21.3167 22.8474C21.7169 23.4498 21.9243 24.1458 21.9243 24.9629H22.7478H23.5714C23.5714 23.8475 23.282 22.8294 22.6887 21.9361L22.0027 22.3917ZM22.7478 24.9629H21.9243C21.9243 25.4842 21.8215 26.0041 21.6084 26.5276L22.3712 26.8381L23.1339 27.1486C23.4231 26.4383 23.5714 25.7081 23.5714 24.9629H22.7478ZM22.3712 26.8381L21.6061 26.5334C21.4046 27.0392 21.0236 27.6483 20.4224 28.3635L21.0528 28.8934L21.6832 29.4233C22.3485 28.6318 22.8464 27.8706 23.1363 27.1428L22.3712 26.8381ZM21.0528 28.8934L20.4243 28.3612C19.8234 29.0709 18.9598 29.942 17.8209 30.9783L18.3752 31.5874L18.9294 32.1965C20.0942 31.1366 21.0157 30.2117 21.6813 29.4255L21.0528 28.8934ZM18.3752 31.5874L17.7988 30.9992L15.3504 33.3984L15.9268 33.9866L16.5032 34.5748L18.9516 32.1756L18.3752 31.5874ZM15.9268 33.9866H15.1033V34.1013H15.9268H16.7503V33.9866H15.9268ZM15.9268 34.1013V34.9248H22.9689V34.1013V33.2777H15.9268V34.1013ZM22.9689 34.1013H22.1454V37H22.9689H23.7924V34.1013H22.9689ZM22.9689 37V36.1765H11.0137V37V37.8235H22.9689V37ZM35.831 34.6745L35.2492 35.2573L35.8304 35.8375L36.4122 35.2579L35.831 34.6745ZM26.0457 24.9056L25.4601 24.3266L24.8839 24.9094L25.4639 25.4884L26.0457 24.9056ZM28.1911 22.7356L28.7735 22.1533L28.1878 21.5677L27.6055 22.1566L28.1911 22.7356ZM37.9846 32.5291L38.5658 33.1125L39.1503 32.5302L38.5669 31.9468L37.9846 32.5291ZM28.1911 34.6745L27.6088 35.2568L28.1904 35.8384L28.7727 35.2575L28.1911 34.6745ZM26.0457 32.5291L25.4632 31.947L24.8813 32.5293L25.4634 33.1114L26.0457 32.5291ZM35.831 22.7356L36.4155 22.1555L35.833 21.5685L35.2484 22.1535L35.831 22.7356ZM37.9846 24.9056L38.5662 25.4886L39.1478 24.9085L38.5691 24.3255L37.9846 24.9056ZM35.831 34.6745L36.4128 34.0917L26.6276 24.3228L26.0457 24.9056L25.4639 25.4884L35.2492 35.2573L35.831 34.6745ZM26.0457 24.9056L26.6314 25.4846L28.7768 23.3146L28.1911 22.7356L27.6055 22.1566L25.4601 24.3266L26.0457 24.9056ZM28.1911 22.7356L27.6088 23.3179L37.4023 33.1114L37.9846 32.5291L38.5669 31.9468L28.7735 22.1533L28.1911 22.7356ZM37.9846 32.5291L37.4034 31.9456L35.2498 34.091L35.831 34.6745L36.4122 35.2579L38.5658 33.1125L37.9846 32.5291ZM28.1911 34.6745L28.7735 34.0921L26.6281 31.9468L26.0457 32.5291L25.4634 33.1114L27.6088 35.2568L28.1911 34.6745ZM26.0457 32.5291L26.6283 33.1112L36.4136 23.3177L35.831 22.7356L35.2484 22.1535L25.4632 31.947L26.0457 32.5291ZM35.831 22.7356L35.2465 23.3157L37.4001 25.4857L37.9846 24.9056L38.5691 24.3255L36.4155 22.1555L35.831 22.7356ZM37.9846 24.9056L37.403 24.3225L27.6095 34.0914L28.1911 34.6745L28.7727 35.2575L38.5662 25.4886L37.9846 24.9056ZM44.1423 36.5988L43.8055 37.3503L43.8107 37.3526L44.1423 36.5988ZM41.8905 34.8464L41.2253 35.332L41.2294 35.3374L41.8905 34.8464ZM41.0471 32.2589V31.4353H40.2096L40.2237 32.2727L41.0471 32.2589ZM44.6173 32.2589L45.4396 32.215L45.398 31.4353H44.6173V32.2589ZM45.0185 33.3397L44.3721 33.85L44.3771 33.8563L44.3821 33.8625L45.0185 33.3397ZM46.0175 34.0521L45.7065 34.8147L45.7065 34.8147L46.0175 34.0521ZM48.8507 34.0194L48.5062 33.2714L48.5062 33.2714L48.8507 34.0194ZM49.8252 33.2251L50.5019 33.6944L50.5019 33.6944L49.8252 33.2251ZM49.8006 30.8668L49.1269 31.3405L49.1312 31.3465L49.1355 31.3524L49.8006 30.8668ZM48.7361 30.048L48.4117 30.8049L48.4149 30.8063L48.7361 30.048ZM45.5344 29.7532H44.7109V30.5767H45.5344V29.7532ZM45.5344 27.1492V26.3257H44.7109V27.1492H45.5344ZM48.515 26.8708L48.1787 26.1191L48.175 26.1208L48.515 26.8708ZM49.4812 26.1011L50.1559 26.5734L50.1595 26.5681L49.4812 26.1011ZM49.5222 23.8329L48.8192 24.2618L48.8235 24.2689L48.8279 24.2758L49.5222 23.8329ZM48.687 23.0795L48.3141 23.8139L48.3187 23.8161L48.687 23.0795ZM46.124 23.0714L46.4459 23.8294L46.4546 23.8256L46.124 23.0714ZM45.1659 23.8001L45.822 24.2979L45.822 24.2979L45.1659 23.8001ZM44.781 24.9138V25.7373H45.5735L45.604 24.9454L44.781 24.9138ZM41.3828 24.9138L40.5594 24.8998L40.5452 25.7373H41.3828V24.9138ZM42.2099 22.359L42.8763 22.8427L42.8763 22.8427L42.2099 22.359ZM44.3716 20.6312L44.7144 21.38L44.7164 21.379L44.3716 20.6312ZM50.4966 20.6312L50.8556 19.89L50.8556 19.89L50.4966 20.6312ZM52.5192 22.3344L51.8355 22.7936L51.8396 22.7996L52.5192 22.3344ZM53.2398 24.7254L52.4162 24.7203L52.4162 24.7302L53.2398 24.7254ZM52.3636 27.0755L51.7633 26.5118L51.7607 26.5146L52.3636 27.0755ZM50.079 28.2711L49.9329 27.4606L49.2555 27.5827V28.2711H50.079ZM50.079 28.4021H49.2555V29.1267L49.9742 29.2189L50.079 28.4021ZM52.8958 29.6877L52.2903 30.2459L52.2949 30.2508L52.8958 29.6877ZM53.8621 32.2916L53.0385 32.2873L53.0386 32.2963L53.8621 32.2916ZM53.0351 34.8382L52.3762 34.3441L52.3739 34.3472L53.0351 34.8382ZM50.7505 36.5906L50.4199 35.8363L50.4199 35.8363L50.7505 36.5906ZM47.4096 37.2293V36.4057C46.2816 36.4057 45.3084 36.2121 44.474 35.845L44.1423 36.5988L43.8107 37.3526C44.8869 37.8261 46.0919 38.0528 47.4096 38.0528V37.2293ZM44.1423 36.5988L44.4792 35.8473C43.6415 35.4718 43.0089 34.9711 42.5516 34.3554L41.8905 34.8464L41.2294 35.3374C41.8749 36.2066 42.7434 36.8742 43.8055 37.3502L44.1423 36.5988ZM41.8905 34.8464L42.5557 34.3609C42.1156 33.758 41.8842 33.0624 41.8705 32.2451L41.0471 32.2589L40.2237 32.2727C40.2427 33.4096 40.5736 34.4391 41.2253 35.332L41.8905 34.8464ZM41.0471 32.2589V33.0824H44.6173V32.2589V31.4353H41.0471V32.2589ZM44.6173 32.2589L43.7949 32.3027C43.8255 32.8759 44.0173 33.4005 44.3721 33.85L45.0185 33.3397L45.6649 32.8294C45.5285 32.6566 45.4527 32.4607 45.4396 32.215L44.6173 32.2589ZM45.0185 33.3397L44.3821 33.8625C44.7311 34.2872 45.1819 34.6007 45.7065 34.8147L46.0175 34.0521L46.3285 33.2896C46.0233 33.1651 45.8082 33.0037 45.6549 32.817L45.0185 33.3397ZM46.0175 34.0521L45.7065 34.8147C46.2344 35.03 46.8091 35.1295 47.4177 35.1295V34.306V33.4825C46.9892 33.4825 46.6304 33.4127 46.3285 33.2896L46.0175 34.0521ZM47.4177 34.306V35.1295C48.0556 35.1295 48.6543 35.0165 49.1952 34.7674L48.8507 34.0194L48.5062 33.2714C48.2174 33.4044 47.8608 33.4825 47.4177 33.4825V34.306ZM48.8507 34.0194L49.1952 34.7674C49.7288 34.5217 50.1744 34.1666 50.5019 33.6944L49.8252 33.2251L49.1485 32.7558C49.0065 32.9605 48.8024 33.135 48.5062 33.2714L48.8507 34.0194ZM49.8252 33.2251L50.5019 33.6944C50.8393 33.2078 51.0008 32.6511 51.0008 32.0541H50.1773H49.3537C49.3537 32.3416 49.2804 32.5655 49.1485 32.7558L49.8252 33.2251ZM50.1773 32.0541H51.0008C51.0008 31.4414 50.8252 30.8736 50.4657 30.3812L49.8006 30.8668L49.1355 31.3524C49.2782 31.5479 49.3537 31.7716 49.3537 32.0541H50.1773ZM49.8006 30.8668L50.4743 30.3931C50.1252 29.8966 49.6372 29.5353 49.0573 29.2896L48.7361 30.048L48.4149 30.8063C48.763 30.9537 48.9847 31.1382 49.1269 31.3405L49.8006 30.8668ZM48.7361 30.048L49.0605 29.291C48.4758 29.0404 47.8142 28.9296 47.0984 28.9296V29.7532V30.5767C47.649 30.5767 48.0792 30.6624 48.4117 30.8049L48.7361 30.048ZM47.0984 29.7532V28.9296H45.5344V29.7532V30.5767H47.0984V29.7532ZM45.5344 29.7532H46.3579V27.1492H45.5344H44.7109V29.7532H45.5344ZM45.5344 27.1492V27.9728H47.0984V27.1492V26.3257H45.5344V27.1492ZM47.0984 27.1492V27.9728C47.7287 27.9728 48.3204 27.8632 48.855 27.6209L48.515 26.8708L48.175 26.1208C47.8907 26.2496 47.5381 26.3257 47.0984 26.3257V27.1492ZM48.515 26.8708L48.8513 27.6226C49.3832 27.3846 49.83 27.0389 50.1559 26.5734L49.4812 26.1011L48.8066 25.6288C48.6739 25.8183 48.4766 25.9858 48.1787 26.1191L48.515 26.8708ZM49.4812 26.1011L50.1595 26.5681C50.4923 26.0849 50.6487 25.5309 50.6487 24.9383H49.8252H49.0016C49.0016 25.2301 48.9288 25.4513 48.8029 25.6341L49.4812 26.1011ZM49.8252 24.9383H50.6487C50.6487 24.3804 50.5127 23.8543 50.2165 23.39L49.5222 23.8329L48.8279 24.2758C48.9357 24.4447 49.0016 24.6556 49.0016 24.9383H49.8252ZM49.5222 23.8329L50.2252 23.4039C49.9427 22.9409 49.544 22.5873 49.0553 22.343L48.687 23.0795L48.3187 23.8161C48.5505 23.932 48.7087 24.0807 48.8192 24.2618L49.5222 23.8329ZM48.687 23.0795L49.0598 22.3452C48.5691 22.0961 48.0219 21.9858 47.4423 21.9858V22.8093V23.6329C47.8126 23.6329 48.0951 23.7027 48.3142 23.8139L48.687 23.0795ZM47.4423 22.8093V21.9858C46.86 21.9858 46.3065 22.0922 45.7933 22.3171L46.124 23.0714L46.4546 23.8256C46.7385 23.7012 47.0638 23.6329 47.4423 23.6329V22.8093ZM46.124 23.0714L45.8021 22.3133C45.2835 22.5335 44.8445 22.8613 44.5098 23.3024L45.1659 23.8001L45.822 24.2979C45.9677 24.1057 46.1674 23.9476 46.4459 23.8294L46.124 23.0714ZM45.1659 23.8001L44.5098 23.3024C44.16 23.7635 43.9805 24.3004 43.9581 24.8821L44.781 24.9138L45.604 24.9454C45.6143 24.6756 45.6914 24.47 45.822 24.2979L45.1659 23.8001ZM44.781 24.9138V24.0902H41.3828V24.9138V25.7373H44.781V24.9138ZM41.3828 24.9138L42.2062 24.9277C42.2199 24.1196 42.4469 23.4343 42.8763 22.8427L42.2099 22.359L41.5434 21.8752C40.9029 22.7575 40.5785 23.7755 40.5594 24.8998L41.3828 24.9138ZM42.2099 22.359L42.8763 22.8427C43.3203 22.2311 43.9246 21.7416 44.7144 21.38L44.3716 20.6312L44.0288 19.8824C43.0062 20.3506 42.1694 21.0129 41.5434 21.8752L42.2099 22.359ZM44.3716 20.6312L44.7164 21.379C45.5056 21.0152 46.4145 20.8242 47.4587 20.8242V20.0007V19.1771C46.2101 19.1771 45.0609 19.4065 44.0268 19.8833L44.3716 20.6312ZM47.4587 20.0007V20.8242C48.5162 20.8242 49.4018 21.016 50.1377 21.3724L50.4966 20.6312L50.8556 19.89C49.8555 19.4057 48.7158 19.1771 47.4587 19.1771V20.0007ZM50.4966 20.6312L50.1377 21.3724C50.8904 21.7369 51.4459 22.2135 51.8356 22.7936L52.5192 22.3344L53.2028 21.8752C52.6317 21.025 51.8388 20.3661 50.8556 19.89L50.4966 20.6312ZM52.5192 22.3344L51.8396 22.7996C52.2279 23.3667 52.4207 23.9987 52.4163 24.7203L53.2398 24.7254L54.0633 24.7305C54.0697 23.6834 53.7822 22.7214 53.1987 21.8692L52.5192 22.3344ZM53.2398 24.7254L52.4162 24.7302C52.4206 25.4789 52.1947 26.0524 51.7633 26.5118L52.3636 27.0755L52.9639 27.6393C53.7117 26.8431 54.0698 25.8499 54.0633 24.7206L53.2398 24.7254ZM52.3636 27.0755L51.7607 26.5146C51.3115 26.9973 50.7174 27.3192 49.9329 27.4606L50.079 28.2711L50.2251 29.0815C51.3185 28.8845 52.2475 28.4093 52.9665 27.6365L52.3636 27.0755ZM50.079 28.2711H49.2555V28.4021H50.079H50.9025V28.2711H50.079ZM50.079 28.4021L49.9742 29.2189C51.076 29.3603 51.8134 29.7285 52.2904 30.2459L52.8958 29.6877L53.5013 29.1295C52.6899 28.2493 51.5495 27.7605 50.1838 27.5852L50.079 28.4021ZM52.8958 29.6877L52.2949 30.2508C52.7859 30.7747 53.043 31.4329 53.0386 32.2873L53.8621 32.2916L54.6856 32.2959C54.6921 31.065 54.305 29.9872 53.4968 29.1246L52.8958 29.6877ZM53.8621 32.2916L53.0386 32.2963C53.043 33.0775 52.8218 33.75 52.3762 34.3441L53.0351 34.8382L53.6939 35.3324C54.3619 34.4416 54.6921 33.4163 54.6856 32.2869L53.8621 32.2916ZM53.0351 34.8382L52.3739 34.3472C51.9199 34.9586 51.28 35.4594 50.4199 35.8363L50.7505 36.5906L51.081 37.3449C52.1643 36.8701 53.0475 36.2027 53.6962 35.3292L53.0351 34.8382ZM50.7505 36.5906L50.4199 35.8363C49.5698 36.2088 48.5719 36.4057 47.4096 36.4057V37.2293V38.0528C48.7583 38.0528 49.9878 37.8239 51.081 37.3449L50.7505 36.5906Z" fill="#2B3F46" mask="url(#path-17-outside-1_2025_994)"/>
<defs>
<linearGradient id="paint0_linear_2025_994" x1="35.8411" y1="35.864" x2="-1.88188" y2="2.08424" gradientUnits="userSpaceOnUse">
<stop stop-color="#FFD5EF"/>
<stop offset="1" stop-color="#EFBDFD"/>
</linearGradient>
<linearGradient id="paint1_linear_2025_994" x1="0" y1="0" x2="15.9633" y2="15.6375" gradientUnits="userSpaceOnUse">
<stop stop-color="#AC93FC"/>
<stop offset="1" stop-color="#E593FC"/>
</linearGradient>
<linearGradient id="paint2_linear_2025_994" x1="-8.23702e-06" y1="-0.00410309" x2="14.4158" y2="-11.3513" gradientUnits="userSpaceOnUse">
<stop stop-color="#D744C2"/>
<stop offset="1" stop-color="#C665E1"/>
</linearGradient>
<linearGradient id="paint3_linear_2025_994" x1="3.11084" y1="36.9277" x2="4.97822" y2="37.0006" gradientUnits="userSpaceOnUse">
<stop stop-color="#AC93FC"/>
<stop offset="1" stop-color="#E593FC"/>
</linearGradient>
<linearGradient id="paint4_linear_2025_994" x1="28.0071" y1="52.6093" x2="34.5163" y2="51.384" gradientUnits="userSpaceOnUse">
<stop stop-color="#D744C2"/>
<stop offset="1" stop-color="#C665E1"/>
</linearGradient>
<linearGradient id="paint5_linear_2025_994" x1="59.0586" y1="36.9216" x2="60.4531" y2="36.8778" gradientUnits="userSpaceOnUse">
<stop stop-color="#D744C2"/>
<stop offset="1" stop-color="#C665E1"/>
</linearGradient>
<linearGradient id="paint6_linear_2025_994" x1="35.8853" y1="35.9081" x2="-1.8842" y2="2.0868" gradientUnits="userSpaceOnUse">
<stop stop-color="#FAD5FF"/>
<stop offset="1" stop-color="#CFBDFD"/>
</linearGradient>
<clipPath id="clip0_2025_994">
<rect width="35.8992" height="35.8992" rx="4.44179" transform="matrix(0.866025 0.5 -0.866025 0.5 31.9104 19)" fill="white"/>
</clipPath>
</defs>
</svg>
