<svg width="64" height="64" viewBox="0 0 64 64" fill="none" xmlns="http://www.w3.org/2000/svg">
<rect width="35.8551" height="35.8551" rx="4.37833" transform="matrix(0.866025 0.5 -0.866025 0.5 31.8887 19)" fill="url(#paint0_linear_2025_1684)"/>
<rect width="26.8913" height="4.48189" transform="matrix(0.866025 0.5 0 1 4.71851 39.1685)" fill="url(#paint1_linear_2025_1684)"/>
<rect width="26.8913" height="4.48189" transform="matrix(0.866025 -0.5 0 1 35.7698 52.6143)" fill="url(#paint2_linear_2025_1684)"/>
<path d="M3.11084 36.9277C3.11084 37.8029 3.72524 38.5952 4.71858 39.1687V43.6506C3.72524 43.0771 3.11084 42.2848 3.11084 41.4096V36.9277Z" fill="url(#paint3_linear_2025_1684)"/>
<path d="M28.0071 52.6143C30.1507 53.8519 33.6263 53.8519 35.7699 52.6143V57.0961C33.6263 58.3338 30.1507 58.3338 28.0071 57.0961V52.6143Z" fill="url(#paint4_linear_2025_1684)"/>
<path d="M60.6663 36.9277C60.6663 37.8029 60.0519 38.5952 59.0586 39.1687V43.6506C60.0519 43.0771 60.6663 42.2848 60.6663 41.4096V36.9277Z" fill="url(#paint5_linear_2025_1684)"/>
<g clip-path="url(#clip0_2025_1684)">
<rect width="35.8992" height="35.8992" rx="4.44179" transform="matrix(0.866025 0.5 -0.866025 0.5 31.9104 19)" fill="url(#paint6_linear_2025_1684)"/>
<rect width="11.5594" height="11.5594" transform="matrix(0.866025 0.5 -0.866025 0.5 31.9104 19)" fill="black" fill-opacity="0.1"/>
<rect width="11.5594" height="11.5594" transform="matrix(0.866025 0.5 -0.866025 0.5 21.3711 25.085)" fill="black" fill-opacity="0.1"/>
<rect width="11.5594" height="11.5594" transform="matrix(0.866025 0.5 -0.866025 0.5 21.3711 37.2549)" fill="black" fill-opacity="0.1"/>
<rect width="11.5594" height="11.5594" transform="matrix(0.866025 0.5 -0.866025 0.5 42.45 25.085)" fill="black" fill-opacity="0.1"/>
<rect width="11.5594" height="11.5594" transform="matrix(0.866025 0.5 -0.866025 0.5 42.45 37.2549)" fill="black" fill-opacity="0.1"/>
<rect width="11.5594" height="11.5594" transform="matrix(0.866025 0.5 -0.866025 0.5 52.9893 31.1699)" fill="black" fill-opacity="0.1"/>
<rect width="11.5594" height="11.5594" transform="matrix(0.866025 0.5 -0.866025 0.5 10.8315 31.1699)" fill="black" fill-opacity="0.1"/>
<rect width="11.5594" height="11.5594" transform="matrix(0.866025 0.5 -0.866025 0.5 31.9104 43.3398)" fill="black" fill-opacity="0.1"/>
<rect width="11.5594" height="11.5594" transform="matrix(0.866025 0.5 -0.866025 0.5 31.9104 31.1699)" fill="black" fill-opacity="0.1"/>
</g>
<rect width="36.3283" height="36.3283" rx="4.43612" transform="matrix(0.866025 0.5 -0.866025 0.5 31.478 18.4604)" fill="url(#paint7_linear_2025_1684)"/>
<rect width="27.2462" height="4.54104" transform="matrix(0.866025 0.5 0 1 3.94922 38.8955)" fill="url(#paint8_linear_2025_1684)"/>
<rect width="27.2462" height="4.54104" transform="matrix(0.866025 -0.5 0 1 35.4104 52.5186)" fill="url(#paint9_linear_2025_1684)"/>
<path d="M2.32056 36.625C2.32056 37.5117 2.94306 38.3144 3.94952 38.8955V43.4366C2.94306 42.8555 2.32056 42.0527 2.32056 41.166V36.625Z" fill="url(#paint10_linear_2025_1684)"/>
<path d="M27.5452 52.5186C29.7171 53.7725 33.2385 53.7725 35.4105 52.5186V57.0596C33.2385 58.3136 29.7171 58.3136 27.5452 57.0596V52.5186Z" fill="url(#paint11_linear_2025_1684)"/>
<path d="M60.6356 36.625C60.6356 37.5117 60.013 38.3144 59.0066 38.8955V43.4366C60.013 42.8555 60.6356 42.0527 60.6356 41.166V36.625Z" fill="url(#paint12_linear_2025_1684)"/>
<g clip-path="url(#clip1_2025_1684)">
<rect width="11.712" height="11.712" transform="matrix(0.866025 0.5 -0.866025 0.5 31.5 18.4604)" fill="white" fill-opacity="0.2"/>
<rect width="11.712" height="11.712" transform="matrix(0.866025 0.5 -0.866025 0.5 20.8213 24.626)" fill="white" fill-opacity="0.2"/>
<rect width="11.712" height="11.712" transform="matrix(0.866025 0.5 -0.866025 0.5 20.8215 36.9561)" fill="white" fill-opacity="0.2"/>
<rect width="11.712" height="11.712" transform="matrix(0.866025 0.5 -0.866025 0.5 42.1785 24.6255)" fill="white" fill-opacity="0.2"/>
<rect width="11.712" height="11.712" transform="matrix(0.866025 0.5 -0.866025 0.5 42.1785 36.9561)" fill="white" fill-opacity="0.2"/>
<rect width="11.712" height="11.712" transform="matrix(0.866025 0.5 -0.866025 0.5 52.8569 30.791)" fill="white" fill-opacity="0.2"/>
<rect width="11.712" height="11.712" transform="matrix(0.866025 0.5 -0.866025 0.5 10.1428 30.791)" fill="white" fill-opacity="0.2"/>
<rect width="11.712" height="11.712" transform="matrix(0.866025 0.5 -0.866025 0.5 31.5 43.1216)" fill="white" fill-opacity="0.2"/>
<rect width="11.712" height="11.712" transform="matrix(0.866025 0.5 -0.866025 0.5 31.5 30.791)" fill="white" fill-opacity="0.2"/>
</g>
<mask id="path-33-outside-1_2025_1684" maskUnits="userSpaceOnUse" x="9" y="19" width="47" height="20" fill="black">
<rect fill="white" x="9" y="19" width="47" height="20"/>
<path d="M17.0896 37.2293C16.227 37.2238 15.3946 37.0792 14.5921 36.7953C13.7951 36.5114 13.0799 36.0501 12.4467 35.4114C11.8134 34.7727 11.3112 33.9266 10.94 32.873C10.5743 31.8194 10.3914 30.5256 10.3914 28.9916C10.3968 27.5832 10.5579 26.3249 10.8745 25.2167C11.1966 24.1031 11.6551 23.1587 12.2502 22.3835C12.8507 21.6083 13.5685 21.0188 14.4037 20.6148C15.239 20.2054 16.1752 20.0007 17.2124 20.0007C18.3315 20.0007 19.3196 20.219 20.1766 20.6557C21.0337 21.087 21.7215 21.6739 22.2401 22.4163C22.7642 23.1587 23.0808 23.9912 23.19 24.9138H19.6935C19.557 24.3297 19.2704 23.8711 18.8337 23.5381C18.397 23.2051 17.8566 23.0386 17.2124 23.0386C16.1206 23.0386 15.2908 23.5135 14.7231 24.4634C14.1608 25.4133 13.8742 26.7043 13.8633 28.3366H13.9779C14.2291 27.8398 14.5675 27.4167 14.9933 27.0673C15.4246 26.7125 15.9132 26.4423 16.4591 26.2567C17.0104 26.0656 17.5918 25.9701 18.2032 25.9701C19.1967 25.9701 20.0811 26.2048 20.8563 26.6743C21.6315 27.1383 22.2429 27.777 22.6905 28.5904C23.1381 29.4038 23.362 30.3346 23.362 31.3827C23.362 32.5182 23.0972 33.5281 22.5677 34.4124C22.0436 35.2968 21.3094 35.9901 20.365 36.4923C19.426 36.9891 18.3342 37.2347 17.0896 37.2293ZM17.0732 34.4452C17.6191 34.4452 18.1077 34.3142 18.5389 34.0521C18.9702 33.7901 19.3087 33.4353 19.5543 32.9876C19.8 32.54 19.9228 32.0378 19.9228 31.4809C19.9228 30.9241 19.8 30.4246 19.5543 29.9825C19.3141 29.5403 18.9811 29.1882 18.5553 28.9261C18.1295 28.6641 17.6437 28.5331 17.0978 28.5331C16.6883 28.5331 16.3089 28.6095 15.9596 28.7624C15.6156 28.9152 15.3127 29.1281 15.0506 29.4011C14.7941 29.674 14.5921 29.9906 14.4447 30.3509C14.2973 30.7058 14.2236 31.0852 14.2236 31.4891C14.2236 32.0296 14.3464 32.5236 14.5921 32.9713C14.8432 33.4189 15.1817 33.7765 15.6075 34.044C16.0387 34.3114 16.5273 34.4452 17.0732 34.4452ZM36.1688 34.6745L26.3835 24.9056L28.5289 22.7356L38.3224 32.5291L36.1688 34.6745ZM28.5289 34.6745L26.3835 32.5291L36.1688 22.7356L38.3224 24.9056L28.5289 34.6745ZM47.9848 37.2293C47.1223 37.2238 46.2898 37.0792 45.4873 36.7953C44.6903 36.5114 43.9752 36.0501 43.3419 35.4114C42.7087 34.7727 42.2064 33.9266 41.8352 32.873C41.4695 31.8194 41.2866 30.5256 41.2866 28.9916C41.2921 27.5832 41.4531 26.3249 41.7697 25.2167C42.0918 24.1031 42.5504 23.1587 43.1454 22.3835C43.7459 21.6083 44.4637 21.0188 45.299 20.6148C46.1342 20.2054 47.0704 20.0007 48.1076 20.0007C49.2267 20.0007 50.2148 20.219 51.0719 20.6557C51.9289 21.087 52.6168 21.6739 53.1354 22.4163C53.6594 23.1587 53.976 23.9912 54.0852 24.9138H50.5887C50.4523 24.3297 50.1657 23.8711 49.7289 23.5381C49.2922 23.2051 48.7518 23.0386 48.1076 23.0386C47.0158 23.0386 46.1861 23.5135 45.6183 24.4634C45.056 25.4133 44.7694 26.7043 44.7585 28.3366H44.8732C45.1243 27.8398 45.4627 27.4167 45.8885 27.0673C46.3198 26.7125 46.8084 26.4423 47.3543 26.2567C47.9056 26.0656 48.487 25.9701 49.0984 25.9701C50.092 25.9701 50.9763 26.2048 51.7515 26.6743C52.5267 27.1383 53.1381 27.777 53.5857 28.5904C54.0334 29.4038 54.2572 30.3346 54.2572 31.3827C54.2572 32.5182 53.9924 33.5281 53.4629 34.4124C52.9388 35.2968 52.2046 35.9901 51.2602 36.4923C50.3212 36.9891 49.2294 37.2347 47.9848 37.2293ZM47.9684 34.4452C48.5143 34.4452 49.0029 34.3142 49.4342 34.0521C49.8654 33.7901 50.2039 33.4353 50.4495 32.9876C50.6952 32.54 50.818 32.0378 50.818 31.4809C50.818 30.9241 50.6952 30.4246 50.4495 29.9825C50.2093 29.5403 49.8763 29.1882 49.4505 28.9261C49.0247 28.6641 48.5389 28.5331 47.993 28.5331C47.5836 28.5331 47.2042 28.6095 46.8548 28.7624C46.5109 28.9152 46.2079 29.1281 45.9459 29.4011C45.6893 29.674 45.4873 29.9906 45.3399 30.3509C45.1925 30.7058 45.1188 31.0852 45.1188 31.4891C45.1188 32.0296 45.2416 32.5236 45.4873 32.9713C45.7384 33.4189 46.0769 33.7765 46.5027 34.044C46.9339 34.3114 47.4225 34.4452 47.9684 34.4452Z"/>
</mask>
<path d="M17.0896 37.2293C16.227 37.2238 15.3946 37.0792 14.5921 36.7953C13.7951 36.5114 13.0799 36.0501 12.4467 35.4114C11.8134 34.7727 11.3112 33.9266 10.94 32.873C10.5743 31.8194 10.3914 30.5256 10.3914 28.9916C10.3968 27.5832 10.5579 26.3249 10.8745 25.2167C11.1966 24.1031 11.6551 23.1587 12.2502 22.3835C12.8507 21.6083 13.5685 21.0188 14.4037 20.6148C15.239 20.2054 16.1752 20.0007 17.2124 20.0007C18.3315 20.0007 19.3196 20.219 20.1766 20.6557C21.0337 21.087 21.7215 21.6739 22.2401 22.4163C22.7642 23.1587 23.0808 23.9912 23.19 24.9138H19.6935C19.557 24.3297 19.2704 23.8711 18.8337 23.5381C18.397 23.2051 17.8566 23.0386 17.2124 23.0386C16.1206 23.0386 15.2908 23.5135 14.7231 24.4634C14.1608 25.4133 13.8742 26.7043 13.8633 28.3366H13.9779C14.2291 27.8398 14.5675 27.4167 14.9933 27.0673C15.4246 26.7125 15.9132 26.4423 16.4591 26.2567C17.0104 26.0656 17.5918 25.9701 18.2032 25.9701C19.1967 25.9701 20.0811 26.2048 20.8563 26.6743C21.6315 27.1383 22.2429 27.777 22.6905 28.5904C23.1381 29.4038 23.362 30.3346 23.362 31.3827C23.362 32.5182 23.0972 33.5281 22.5677 34.4124C22.0436 35.2968 21.3094 35.9901 20.365 36.4923C19.426 36.9891 18.3342 37.2347 17.0896 37.2293ZM17.0732 34.4452C17.6191 34.4452 18.1077 34.3142 18.5389 34.0521C18.9702 33.7901 19.3087 33.4353 19.5543 32.9876C19.8 32.54 19.9228 32.0378 19.9228 31.4809C19.9228 30.9241 19.8 30.4246 19.5543 29.9825C19.3141 29.5403 18.9811 29.1882 18.5553 28.9261C18.1295 28.6641 17.6437 28.5331 17.0978 28.5331C16.6883 28.5331 16.3089 28.6095 15.9596 28.7624C15.6156 28.9152 15.3127 29.1281 15.0506 29.4011C14.7941 29.674 14.5921 29.9906 14.4447 30.3509C14.2973 30.7058 14.2236 31.0852 14.2236 31.4891C14.2236 32.0296 14.3464 32.5236 14.5921 32.9713C14.8432 33.4189 15.1817 33.7765 15.6075 34.044C16.0387 34.3114 16.5273 34.4452 17.0732 34.4452ZM36.1688 34.6745L26.3835 24.9056L28.5289 22.7356L38.3224 32.5291L36.1688 34.6745ZM28.5289 34.6745L26.3835 32.5291L36.1688 22.7356L38.3224 24.9056L28.5289 34.6745ZM47.9848 37.2293C47.1223 37.2238 46.2898 37.0792 45.4873 36.7953C44.6903 36.5114 43.9752 36.0501 43.3419 35.4114C42.7087 34.7727 42.2064 33.9266 41.8352 32.873C41.4695 31.8194 41.2866 30.5256 41.2866 28.9916C41.2921 27.5832 41.4531 26.3249 41.7697 25.2167C42.0918 24.1031 42.5504 23.1587 43.1454 22.3835C43.7459 21.6083 44.4637 21.0188 45.299 20.6148C46.1342 20.2054 47.0704 20.0007 48.1076 20.0007C49.2267 20.0007 50.2148 20.219 51.0719 20.6557C51.9289 21.087 52.6168 21.6739 53.1354 22.4163C53.6594 23.1587 53.976 23.9912 54.0852 24.9138H50.5887C50.4523 24.3297 50.1657 23.8711 49.7289 23.5381C49.2922 23.2051 48.7518 23.0386 48.1076 23.0386C47.0158 23.0386 46.1861 23.5135 45.6183 24.4634C45.056 25.4133 44.7694 26.7043 44.7585 28.3366H44.8732C45.1243 27.8398 45.4627 27.4167 45.8885 27.0673C46.3198 26.7125 46.8084 26.4423 47.3543 26.2567C47.9056 26.0656 48.487 25.9701 49.0984 25.9701C50.092 25.9701 50.9763 26.2048 51.7515 26.6743C52.5267 27.1383 53.1381 27.777 53.5857 28.5904C54.0334 29.4038 54.2572 30.3346 54.2572 31.3827C54.2572 32.5182 53.9924 33.5281 53.4629 34.4124C52.9388 35.2968 52.2046 35.9901 51.2602 36.4923C50.3212 36.9891 49.2294 37.2347 47.9848 37.2293ZM47.9684 34.4452C48.5143 34.4452 49.0029 34.3142 49.4342 34.0521C49.8654 33.7901 50.2039 33.4353 50.4495 32.9876C50.6952 32.54 50.818 32.0378 50.818 31.4809C50.818 30.9241 50.6952 30.4246 50.4495 29.9825C50.2093 29.5403 49.8763 29.1882 49.4505 28.9261C49.0247 28.6641 48.5389 28.5331 47.993 28.5331C47.5836 28.5331 47.2042 28.6095 46.8548 28.7624C46.5109 28.9152 46.2079 29.1281 45.9459 29.4011C45.6893 29.674 45.4873 29.9906 45.3399 30.3509C45.1925 30.7058 45.1188 31.0852 45.1188 31.4891C45.1188 32.0296 45.2416 32.5236 45.4873 32.9713C45.7384 33.4189 46.0769 33.7765 46.5027 34.044C46.9339 34.3114 47.4225 34.4452 47.9684 34.4452Z" fill="white"/>
<path d="M17.0896 37.2293L17.0844 38.0528L17.086 38.0528L17.0896 37.2293ZM14.5921 36.7953L14.3158 37.5711L14.3174 37.5717L14.5921 36.7953ZM12.4467 35.4114L11.8619 35.9912L11.8619 35.9912L12.4467 35.4114ZM10.94 32.873L10.162 33.1431L10.1633 33.1467L10.94 32.873ZM10.3914 28.9916L9.56785 28.9885V28.9916H10.3914ZM10.8745 25.2167L10.0834 24.9879L10.0827 24.9905L10.8745 25.2167ZM12.2502 22.3835L11.5991 21.8792L11.5969 21.8821L12.2502 22.3835ZM14.4037 20.6148L14.7623 21.3562L14.7662 21.3543L14.4037 20.6148ZM20.1766 20.6557L19.8027 21.3895L19.8065 21.3914L20.1766 20.6557ZM22.2401 22.4163L21.565 22.8879L21.5673 22.8912L22.2401 22.4163ZM23.19 24.9138V25.7373H24.1167L24.0078 24.817L23.19 24.9138ZM19.6935 24.9138L18.8916 25.1011L19.0402 25.7373H19.6935V24.9138ZM14.7231 24.4634L14.0162 24.0409L14.0144 24.0439L14.7231 24.4634ZM13.8633 28.3366L13.0398 28.3311L13.0342 29.1601H13.8633V28.3366ZM13.9779 28.3366V29.1601H14.4844L14.7129 28.7081L13.9779 28.3366ZM14.9933 27.0673L15.5157 27.704L15.5166 27.7033L14.9933 27.0673ZM16.4591 26.2567L16.7242 27.0364L16.7287 27.0348L16.4591 26.2567ZM20.8563 26.6743L20.4297 27.3787L20.4333 27.3809L20.8563 26.6743ZM22.5677 34.4124L21.8611 33.9894L21.8592 33.9926L22.5677 34.4124ZM20.365 36.4923L20.7501 37.2202L20.7516 37.2194L20.365 36.4923ZM18.5389 34.0521L18.9666 34.7559L18.9666 34.7559L18.5389 34.0521ZM19.5543 32.9876L20.2763 33.3838L20.2763 33.3838L19.5543 32.9876ZM19.5543 29.9825L18.8306 30.3756L18.8344 30.3824L19.5543 29.9825ZM18.5553 28.9261L18.9869 28.2248L18.9869 28.2248L18.5553 28.9261ZM15.9596 28.7624L15.6295 28.0079L15.6251 28.0098L15.9596 28.7624ZM15.0506 29.4011L14.4565 28.8307L14.4506 28.837L15.0506 29.4011ZM14.4447 30.3509L15.2052 30.6669L15.2069 30.6628L14.4447 30.3509ZM14.5921 32.9713L13.8701 33.3675L13.8738 33.3742L14.5921 32.9713ZM15.6075 34.044L15.1694 34.7413L15.1734 34.7438L15.6075 34.044ZM17.0896 37.2293L17.0948 36.4058C16.3228 36.4009 15.5815 36.2717 14.8667 36.0189L14.5921 36.7953L14.3174 37.5717C15.2076 37.8866 16.1313 38.0468 17.0844 38.0528L17.0896 37.2293ZM14.5921 36.7953L14.8684 36.0195C14.1949 35.7796 13.5835 35.3884 13.0315 34.8316L12.4467 35.4114L11.8619 35.9912C12.5764 36.7119 13.3953 37.2432 14.3158 37.5711L14.5921 36.7953ZM12.4467 35.4114L13.0315 34.8316C12.5023 34.2978 12.057 33.5651 11.7167 32.5993L10.94 32.873L10.1633 33.1467C10.5654 34.2881 11.1246 35.2476 11.8619 35.9912L12.4467 35.4114ZM10.94 32.873L11.718 32.6029C11.3913 31.662 11.2149 30.4657 11.2149 28.9916H10.3914H9.56785C9.56785 30.5855 9.75716 31.9768 10.162 33.1431L10.94 32.873ZM10.3914 28.9916L11.2149 28.9948C11.2201 27.6458 11.3744 26.4646 11.6663 25.443L10.8745 25.2167L10.0827 24.9905C9.74131 26.1852 9.57354 27.5206 9.56785 28.9885L10.3914 28.9916ZM10.8745 25.2167L11.6656 25.4455C11.9644 24.4126 12.3814 23.565 12.9034 22.885L12.2502 22.3835L11.5969 21.8821C10.9288 22.7524 10.4288 23.7936 10.0834 24.9879L10.8745 25.2167ZM12.2502 22.3835L12.9012 22.8878C13.4284 22.2073 14.0481 21.7016 14.7623 21.3562L14.4037 20.6148L14.0452 19.8734C13.089 20.3359 12.273 21.0093 11.5991 21.8792L12.2502 22.3835ZM14.4037 20.6148L14.7662 21.3543C15.4762 21.0062 16.2862 20.8242 17.2124 20.8242V20.0007V19.1771C16.0641 19.1771 15.0017 19.4045 14.0413 19.8753L14.4037 20.6148ZM17.2124 20.0007V20.8242C18.2228 20.8242 19.079 21.0207 19.8027 21.3895L20.1766 20.6557L20.5505 19.922C19.5601 19.4173 18.4402 19.1771 17.2124 19.1771V20.0007ZM20.1766 20.6557L19.8065 21.3914C20.549 21.765 21.1293 22.2641 21.565 22.8879L22.2401 22.4163L22.9153 21.9447C22.3138 21.0836 21.5184 20.409 20.5468 19.9201L20.1766 20.6557ZM22.2401 22.4163L21.5673 22.8912C22.0105 23.519 22.2787 24.221 22.3722 25.0106L23.19 24.9138L24.0078 24.817C23.8829 23.7614 23.5179 22.7984 22.9129 21.9414L22.2401 22.4163ZM23.19 24.9138V24.0902H19.6935V24.9138V25.7373H23.19V24.9138ZM19.6935 24.9138L20.4954 24.7264C20.3198 23.9744 19.9362 23.3432 19.3331 22.8832L18.8337 23.5381L18.3344 24.193C18.6046 24.399 18.7943 24.6849 18.8916 25.1011L19.6935 24.9138ZM18.8337 23.5381L19.3331 22.8832C18.7291 22.4227 18.0046 22.2151 17.2124 22.2151V23.0386V23.8621C17.7085 23.8621 18.0649 23.9875 18.3344 24.193L18.8337 23.5381ZM17.2124 23.0386V22.2151C15.826 22.2151 14.7301 22.8465 14.0162 24.0409L14.7231 24.4634L15.43 24.8859C15.8515 24.1806 16.4152 23.8621 17.2124 23.8621V23.0386ZM14.7231 24.4634L14.0144 24.0439C13.3506 25.1653 13.0512 26.6181 13.0398 28.3311L13.8633 28.3366L14.6868 28.3421C14.6972 26.7906 14.971 25.6613 15.4318 24.8829L14.7231 24.4634ZM13.8633 28.3366V29.1601H13.9779V28.3366V27.513H13.8633V28.3366ZM13.9779 28.3366L14.7129 28.7081C14.9129 28.3124 15.1794 27.9799 15.5157 27.704L14.9933 27.0673L14.4709 26.4307C13.9556 26.8535 13.5452 27.3672 13.243 27.965L13.9779 28.3366ZM14.9933 27.0673L15.5166 27.7033C15.8687 27.4136 16.2692 27.1911 16.7242 27.0364L16.4591 26.2567L16.194 25.477C15.5571 25.6935 14.9805 26.0114 14.4701 26.4314L14.9933 27.0673ZM16.4591 26.2567L16.7287 27.0348C17.1893 26.8752 17.6792 26.7936 18.2032 26.7936V25.9701V25.1466C17.5044 25.1466 16.8316 25.256 16.1894 25.4786L16.4591 26.2567ZM18.2032 25.9701V26.7936C19.0613 26.7936 19.7954 26.9946 20.4297 27.3787L20.8563 26.6743L21.2829 25.9699C20.3668 25.4151 19.3322 25.1466 18.2032 25.1466V25.9701ZM20.8563 26.6743L20.4333 27.3809C21.0798 27.7679 21.5897 28.2982 21.969 28.9875L22.6905 28.5904L23.412 28.1933C22.8961 27.2559 22.1832 26.5088 21.2793 25.9677L20.8563 26.6743ZM22.6905 28.5904L21.969 28.9875C22.3415 29.6642 22.5384 30.4552 22.5384 31.3827H23.362H24.1855C24.1855 30.2139 23.9348 29.1434 23.412 28.1933L22.6905 28.5904ZM23.362 31.3827H22.5384C22.5384 32.3847 22.3065 33.2456 21.8611 33.9894L22.5677 34.4124L23.2742 34.8355C23.8879 33.8105 24.1855 32.6516 24.1855 31.3827H23.362ZM22.5677 34.4124L21.8592 33.9926C21.4154 34.7415 20.7949 35.3309 19.9783 35.7652L20.365 36.4923L20.7516 37.2194C21.8238 36.6493 22.6718 35.8521 23.2762 34.8323L22.5677 34.4124ZM20.365 36.4923L19.9798 35.7644C19.1797 36.1877 18.2257 36.4107 17.0932 36.4058L17.0896 37.2293L17.086 38.0528C18.4428 38.0588 19.6724 37.7904 20.7501 37.2202L20.365 36.4923ZM17.0732 34.4452V35.2687C17.7571 35.2687 18.3959 35.1027 18.9666 34.7559L18.5389 34.0521L18.1113 33.3483C17.8194 33.5257 17.4811 33.6217 17.0732 33.6217V34.4452ZM18.5389 34.0521L18.9666 34.7559C19.5227 34.418 19.962 33.9565 20.2763 33.3838L19.5543 32.9876L18.8324 32.5914C18.6553 32.9141 18.4177 33.1622 18.1113 33.3483L18.5389 34.0521ZM19.5543 32.9876L20.2763 33.3838C20.5945 32.804 20.7463 32.1634 20.7463 31.4809H19.9228H19.0993C19.0993 31.9121 19.0055 32.276 18.8324 32.5914L19.5543 32.9876ZM19.9228 31.4809H20.7463C20.7463 30.7986 20.5945 30.1591 20.2742 29.5825L19.5543 29.9825L18.8344 30.3824C19.0054 30.6902 19.0993 31.0496 19.0993 31.4809H19.9228ZM19.5543 29.9825L20.278 29.5894C19.9695 29.0215 19.5362 28.5628 18.9869 28.2248L18.5553 28.9261L18.1237 29.6275C18.4261 29.8136 18.6587 30.059 18.8307 30.3755L19.5543 29.9825ZM18.5553 28.9261L18.9869 28.2248C18.4195 27.8756 17.7816 27.7096 17.0978 27.7096V28.5331V29.3566C17.5058 29.3566 17.8395 29.4526 18.1237 29.6275L18.5553 28.9261ZM17.0978 28.5331V27.7096C16.5832 27.7096 16.0904 27.8062 15.6295 28.0079L15.9596 28.7624L16.2896 29.5168C16.5274 29.4128 16.7935 29.3566 17.0978 29.3566V28.5331ZM15.9596 28.7624L15.6251 28.0098C15.1831 28.2063 14.7921 28.4812 14.4566 28.8307L15.0506 29.4011L15.6447 29.9714C15.8332 29.775 16.0482 29.6242 16.294 29.5149L15.9596 28.7624ZM15.0506 29.4011L14.4506 28.837C14.1223 29.1863 13.8665 29.5892 13.6825 30.0391L14.4447 30.3509L15.2069 30.6628C15.3176 30.392 15.4658 30.1618 15.6507 29.9651L15.0506 29.4011ZM14.4447 30.3509L13.6842 30.035C13.4931 30.4951 13.4001 30.9824 13.4001 31.4891H14.2236H15.0471C15.0471 31.1879 15.1015 30.9165 15.2052 30.6668L14.4447 30.3509ZM14.2236 31.4891H13.4001C13.4001 32.1597 13.5539 32.7913 13.8701 33.3675L14.5921 32.9713L15.314 32.5751C15.1389 32.256 15.0471 31.8994 15.0471 31.4891H14.2236ZM14.5921 32.9713L13.8738 33.3742C14.1908 33.9392 14.6246 34.399 15.1694 34.7413L15.6075 34.044L16.0455 33.3466C15.7387 33.1539 15.4956 32.8986 15.3103 32.5683L14.5921 32.9713ZM15.6075 34.044L15.1734 34.7438C15.7449 35.0983 16.386 35.2687 17.0732 35.2687V34.4452V33.6217C16.6686 33.6217 16.3325 33.5246 16.0415 33.3441L15.6075 34.044ZM36.1688 34.6745L35.5869 35.2573L36.1682 35.8375L36.75 35.2579L36.1688 34.6745ZM26.3835 24.9056L25.7979 24.3266L25.2217 24.9094L25.8017 25.4884L26.3835 24.9056ZM28.5289 22.7356L29.1112 22.1533L28.5256 21.5677L27.9433 22.1566L28.5289 22.7356ZM38.3224 32.5291L38.9036 33.1125L39.4881 32.5302L38.9047 31.9468L38.3224 32.5291ZM28.5289 34.6745L27.9466 35.2568L28.5282 35.8384L29.1105 35.2575L28.5289 34.6745ZM26.3835 32.5291L25.801 31.947L25.2191 32.5293L25.8012 33.1114L26.3835 32.5291ZM36.1688 22.7356L36.7533 22.1555L36.1708 21.5685L35.5862 22.1535L36.1688 22.7356ZM38.3224 24.9056L38.904 25.4886L39.4855 24.9085L38.9069 24.3255L38.3224 24.9056ZM36.1688 34.6745L36.7506 34.0917L26.9654 24.3228L26.3835 24.9056L25.8017 25.4884L35.5869 35.2573L36.1688 34.6745ZM26.3835 24.9056L26.9692 25.4846L29.1145 23.3146L28.5289 22.7356L27.9433 22.1566L25.7979 24.3266L26.3835 24.9056ZM28.5289 22.7356L27.9466 23.3179L37.74 33.1114L38.3224 32.5291L38.9047 31.9468L29.1112 22.1533L28.5289 22.7356ZM38.3224 32.5291L37.7411 31.9456L35.5876 34.091L36.1688 34.6745L36.75 35.2579L38.9036 33.1125L38.3224 32.5291ZM28.5289 34.6745L29.1112 34.0921L26.9658 31.9468L26.3835 32.5291L25.8012 33.1114L27.9466 35.2568L28.5289 34.6745ZM26.3835 32.5291L26.9661 33.1112L36.7514 23.3177L36.1688 22.7356L35.5862 22.1535L25.801 31.947L26.3835 32.5291ZM36.1688 22.7356L35.5843 23.3157L37.7378 25.4857L38.3224 24.9056L38.9069 24.3255L36.7533 22.1555L36.1688 22.7356ZM38.3224 24.9056L37.7408 24.3225L27.9473 34.0914L28.5289 34.6745L29.1105 35.2575L38.904 25.4886L38.3224 24.9056ZM47.9848 37.2293L47.9796 38.0528L47.9812 38.0528L47.9848 37.2293ZM45.4873 36.7953L45.211 37.5711L45.2127 37.5717L45.4873 36.7953ZM43.3419 35.4114L42.7571 35.9912L42.7571 35.9912L43.3419 35.4114ZM41.8352 32.873L41.0572 33.1431L41.0585 33.1467L41.8352 32.873ZM41.2866 28.9916L40.4631 28.9885V28.9916H41.2866ZM41.7697 25.2167L40.9786 24.9879L40.9779 24.9905L41.7697 25.2167ZM43.1454 22.3835L42.4943 21.8792L42.4921 21.8821L43.1454 22.3835ZM45.299 20.6148L45.6575 21.3562L45.6614 21.3543L45.299 20.6148ZM51.0719 20.6557L50.698 21.3895L50.7017 21.3914L51.0719 20.6557ZM53.1354 22.4163L52.4602 22.8879L52.4626 22.8912L53.1354 22.4163ZM54.0852 24.9138V25.7373H55.012L54.9031 24.817L54.0852 24.9138ZM50.5887 24.9138L49.7868 25.1011L49.9354 25.7373H50.5887V24.9138ZM45.6183 24.4634L44.9114 24.0409L44.9096 24.0439L45.6183 24.4634ZM44.7585 28.3366L43.935 28.3311L43.9295 29.1601H44.7585V28.3366ZM44.8732 28.3366V29.1601H45.3796L45.6081 28.7081L44.8732 28.3366ZM45.8885 27.0673L46.4109 27.704L46.4118 27.7033L45.8885 27.0673ZM47.3543 26.2567L47.6194 27.0364L47.6239 27.0348L47.3543 26.2567ZM51.7515 26.6743L51.3249 27.3787L51.3285 27.3809L51.7515 26.6743ZM53.4629 34.4124L52.7563 33.9894L52.7544 33.9926L53.4629 34.4124ZM51.2602 36.4923L51.6453 37.2202L51.6469 37.2194L51.2602 36.4923ZM49.4342 34.0521L49.8618 34.7559L49.8618 34.7559L49.4342 34.0521ZM50.4495 32.9876L51.1715 33.3838L51.1715 33.3838L50.4495 32.9876ZM50.4495 29.9825L49.7258 30.3756L49.7296 30.3824L50.4495 29.9825ZM49.4505 28.9261L49.8821 28.2248L49.8821 28.2248L49.4505 28.9261ZM46.8548 28.7624L46.5247 28.0079L46.5203 28.0098L46.8548 28.7624ZM45.9459 29.4011L45.3517 28.8307L45.3458 28.837L45.9459 29.4011ZM45.3399 30.3509L46.1004 30.6669L46.1021 30.6628L45.3399 30.3509ZM45.4873 32.9713L44.7653 33.3675L44.7691 33.3742L45.4873 32.9713ZM46.5027 34.044L46.0646 34.7413L46.0686 34.7438L46.5027 34.044ZM47.9848 37.2293L47.99 36.4058C47.218 36.4009 46.4767 36.2717 45.7619 36.0189L45.4873 36.7953L45.2127 37.5717C46.1029 37.8866 47.0265 38.0468 47.9796 38.0528L47.9848 37.2293ZM45.4873 36.7953L45.7636 36.0195C45.0901 35.7796 44.4787 35.3884 43.9267 34.8316L43.3419 35.4114L42.7571 35.9912C43.4716 36.7119 44.2905 37.2432 45.211 37.5711L45.4873 36.7953ZM43.3419 35.4114L43.9267 34.8316C43.3975 34.2978 42.9522 33.5651 42.612 32.5993L41.8352 32.873L41.0585 33.1467C41.4607 34.2881 42.0198 35.2476 42.7571 35.9912L43.3419 35.4114ZM41.8352 32.873L42.6132 32.6029C42.2866 31.662 42.1101 30.4657 42.1101 28.9916H41.2866H40.4631C40.4631 30.5855 40.6524 31.9768 41.0572 33.1431L41.8352 32.873ZM41.2866 28.9916L42.1101 28.9948C42.1154 27.6458 42.2697 26.4646 42.5616 25.443L41.7697 25.2167L40.9779 24.9905C40.6365 26.1852 40.4688 27.5206 40.4631 28.9885L41.2866 28.9916ZM41.7697 25.2167L42.5608 25.4455C42.8596 24.4126 43.2766 23.565 43.7987 22.885L43.1454 22.3835L42.4921 21.8821C41.8241 22.7524 41.324 23.7936 40.9786 24.9879L41.7697 25.2167ZM43.1454 22.3835L43.7964 22.8878C44.3236 22.2073 44.9433 21.7016 45.6575 21.3562L45.299 20.6148L44.9404 19.8734C43.9842 20.3359 43.1682 21.0093 42.4943 21.8792L43.1454 22.3835ZM45.299 20.6148L45.6614 21.3543C46.3714 21.0062 47.1815 20.8242 48.1076 20.8242V20.0007V19.1771C46.9594 19.1771 45.897 19.4045 44.9365 19.8753L45.299 20.6148ZM48.1076 20.0007V20.8242C49.118 20.8242 49.9743 21.0207 50.698 21.3895L51.0719 20.6557L51.4458 19.922C50.4553 19.4173 49.3354 19.1771 48.1076 19.1771V20.0007ZM51.0719 20.6557L50.7017 21.3914C51.4443 21.765 52.0245 22.2641 52.4602 22.8879L53.1354 22.4163L53.8105 21.9447C53.209 21.0836 52.4136 20.409 51.442 19.9201L51.0719 20.6557ZM53.1354 22.4163L52.4626 22.8912C52.9057 23.519 53.174 24.221 53.2674 25.0106L54.0852 24.9138L54.9031 24.817C54.7781 23.7614 54.4131 22.7984 53.8082 21.9414L53.1354 22.4163ZM54.0852 24.9138V24.0902H50.5887V24.9138V25.7373H54.0852V24.9138ZM50.5887 24.9138L51.3907 24.7264C51.215 23.9744 50.8315 23.3432 50.2283 22.8832L49.7289 23.5381L49.2296 24.193C49.4999 24.399 49.6896 24.6849 49.7868 25.1011L50.5887 24.9138ZM49.7289 23.5381L50.2283 22.8832C49.6243 22.4227 48.8998 22.2151 48.1076 22.2151V23.0386V23.8621C48.6037 23.8621 48.9601 23.9875 49.2296 24.193L49.7289 23.5381ZM48.1076 23.0386V22.2151C46.7212 22.2151 45.6253 22.8465 44.9114 24.0409L45.6183 24.4634L46.3252 24.8859C46.7468 24.1806 47.3104 23.8621 48.1076 23.8621V23.0386ZM45.6183 24.4634L44.9096 24.0439C44.2458 25.1653 43.9465 26.6181 43.935 28.3311L44.7585 28.3366L45.582 28.3421C45.5924 26.7906 45.8662 25.6613 46.327 24.8829L45.6183 24.4634ZM44.7585 28.3366V29.1601H44.8732V28.3366V27.513H44.7585V28.3366ZM44.8732 28.3366L45.6081 28.7081C45.8081 28.3124 46.0746 27.9799 46.4109 27.704L45.8885 27.0673L45.3662 26.4307C44.8509 26.8535 44.4404 27.3672 44.1382 27.965L44.8732 28.3366ZM45.8885 27.0673L46.4118 27.7033C46.7639 27.4136 47.1644 27.1911 47.6194 27.0364L47.3543 26.2567L47.0892 25.477C46.4524 25.6935 45.8757 26.0114 45.3653 26.4314L45.8885 27.0673ZM47.3543 26.2567L47.6239 27.0348C48.0845 26.8752 48.5744 26.7936 49.0984 26.7936V25.9701V25.1466C48.3997 25.1466 47.7268 25.256 47.0846 25.4786L47.3543 26.2567ZM49.0984 25.9701V26.7936C49.9565 26.7936 50.6906 26.9946 51.3249 27.3787L51.7515 26.6743L52.1781 25.9699C51.2621 25.4151 50.2274 25.1466 49.0984 25.1466V25.9701ZM51.7515 26.6743L51.3285 27.3809C51.975 27.7679 52.4849 28.2982 52.8642 28.9875L53.5857 28.5904L54.3072 28.1933C53.7913 27.2559 53.0784 26.5088 52.1745 25.9677L51.7515 26.6743ZM53.5857 28.5904L52.8642 28.9875C53.2367 29.6642 53.4337 30.4552 53.4337 31.3827H54.2572H55.0807C55.0807 30.2139 54.83 29.1434 54.3072 28.1933L53.5857 28.5904ZM54.2572 31.3827H53.4337C53.4337 32.3847 53.2017 33.2456 52.7563 33.9894L53.4629 34.4124L54.1695 34.8355C54.7832 33.8105 55.0807 32.6516 55.0807 31.3827H54.2572ZM53.4629 34.4124L52.7544 33.9926C52.3106 34.7415 51.6902 35.3309 50.8735 35.7652L51.2602 36.4923L51.6469 37.2194C52.719 36.6493 53.5671 35.8521 54.1714 34.8323L53.4629 34.4124ZM51.2602 36.4923L50.8751 35.7644C50.0749 36.1877 49.1209 36.4107 47.9884 36.4058L47.9848 37.2293L47.9812 38.0528C49.338 38.0588 50.5676 37.7904 51.6453 37.2202L51.2602 36.4923ZM47.9684 34.4452V35.2687C48.6523 35.2687 49.2911 35.1027 49.8618 34.7559L49.4342 34.0521L49.0065 33.3483C48.7147 33.5257 48.3763 33.6217 47.9684 33.6217V34.4452ZM49.4342 34.0521L49.8618 34.7559C50.418 34.418 50.8573 33.9565 51.1715 33.3838L50.4495 32.9876L49.7276 32.5914C49.5505 32.9141 49.3129 33.1622 49.0065 33.3483L49.4342 34.0521ZM50.4495 32.9876L51.1715 33.3838C51.4897 32.804 51.6415 32.1634 51.6415 31.4809H50.818H49.9945C49.9945 31.9121 49.9007 32.276 49.7276 32.5914L50.4495 32.9876ZM50.818 31.4809H51.6415C51.6415 30.7986 51.4897 30.1591 51.1694 29.5825L50.4495 29.9825L49.7296 30.3824C49.9006 30.6902 49.9945 31.0496 49.9945 31.4809H50.818ZM50.4495 29.9825L51.1732 29.5894C50.8647 29.0215 50.4314 28.5628 49.8821 28.2248L49.4505 28.9261L49.0189 29.6275C49.3213 29.8136 49.5539 30.059 49.7259 30.3755L50.4495 29.9825ZM49.4505 28.9261L49.8821 28.2248C49.3147 27.8756 48.6768 27.7096 47.993 27.7096V28.5331V29.3566C48.401 29.3566 48.7347 29.4526 49.0189 29.6275L49.4505 28.9261ZM47.993 28.5331V27.7096C47.4784 27.7096 46.9857 27.8062 46.5247 28.0079L46.8548 28.7624L47.1849 29.5168C47.4227 29.4128 47.6887 29.3566 47.993 29.3566V28.5331ZM46.8548 28.7624L46.5203 28.0098C46.0783 28.2063 45.6873 28.4812 45.3518 28.8307L45.9459 29.4011L46.5399 29.9714C46.7285 29.775 46.9434 29.6242 47.1892 29.5149L46.8548 28.7624ZM45.9459 29.4011L45.3458 28.837C45.0175 29.1863 44.7617 29.5892 44.5777 30.0391L45.3399 30.3509L46.1021 30.6628C46.2129 30.392 46.3611 30.1618 46.5459 29.9651L45.9459 29.4011ZM45.3399 30.3509L44.5794 30.035C44.3883 30.4951 44.2953 30.9824 44.2953 31.4891H45.1188H45.9423C45.9423 31.1879 45.9968 30.9165 46.1004 30.6668L45.3399 30.3509ZM45.1188 31.4891H44.2953C44.2953 32.1597 44.4491 32.7913 44.7653 33.3675L45.4873 32.9713L46.2093 32.5751C46.0342 32.256 45.9423 31.8994 45.9423 31.4891H45.1188ZM45.4873 32.9713L44.7691 33.3742C45.086 33.9392 45.5198 34.399 46.0646 34.7413L46.5027 34.044L46.9408 33.3466C46.634 33.1539 46.3908 32.8986 46.2055 32.5683L45.4873 32.9713ZM46.5027 34.044L46.0686 34.7438C46.6401 35.0983 47.2812 35.2687 47.9684 35.2687V34.4452V33.6217C47.5638 33.6217 47.2278 33.5246 46.9368 33.3441L46.5027 34.044Z" fill="#2B3F46" mask="url(#path-33-outside-1_2025_1684)"/>
<defs>
<linearGradient id="paint0_linear_2025_1684" x1="35.8411" y1="35.864" x2="-1.88188" y2="2.08424" gradientUnits="userSpaceOnUse">
<stop stop-color="#FFD5EF"/>
<stop offset="1" stop-color="#EFBDFD"/>
</linearGradient>
<linearGradient id="paint1_linear_2025_1684" x1="26.8809" y1="4.483" x2="25.174" y2="-4.68761" gradientUnits="userSpaceOnUse">
<stop stop-color="#F95457"/>
<stop offset="1" stop-color="#FDBDCB"/>
</linearGradient>
<linearGradient id="paint2_linear_2025_1684" x1="26.8809" y1="4.483" x2="25.174" y2="-4.68761" gradientUnits="userSpaceOnUse">
<stop stop-color="#F95457"/>
<stop offset="1" stop-color="#FDBDCB"/>
</linearGradient>
<linearGradient id="paint3_linear_2025_1684" x1="4.71795" y1="43.6522" x2="1.80375" y2="43.0282" gradientUnits="userSpaceOnUse">
<stop stop-color="#F95457"/>
<stop offset="1" stop-color="#FDBDCB"/>
</linearGradient>
<linearGradient id="paint4_linear_2025_1684" x1="35.7669" y1="58.0257" x2="30.2155" y2="50.8928" gradientUnits="userSpaceOnUse">
<stop stop-color="#F95457"/>
<stop offset="1" stop-color="#FDBDCB"/>
</linearGradient>
<linearGradient id="paint5_linear_2025_1684" x1="60.6657" y1="43.6522" x2="57.7515" y2="43.0282" gradientUnits="userSpaceOnUse">
<stop stop-color="#F95457"/>
<stop offset="1" stop-color="#FDBDCB"/>
</linearGradient>
<linearGradient id="paint6_linear_2025_1684" x1="-1.09962e-05" y1="-0.0328651" x2="30.641" y2="-4.05264" gradientUnits="userSpaceOnUse">
<stop stop-color="#D74446"/>
<stop offset="1" stop-color="#E165B8"/>
</linearGradient>
<linearGradient id="paint7_linear_2025_1684" x1="-1.11276e-05" y1="-0.033258" x2="31.0073" y2="-4.10108" gradientUnits="userSpaceOnUse">
<stop stop-color="#D74446"/>
<stop offset="1" stop-color="#E165B8"/>
</linearGradient>
<linearGradient id="paint8_linear_2025_1684" x1="-8.34573e-06" y1="-0.00415724" x2="14.606" y2="-11.5011" gradientUnits="userSpaceOnUse">
<stop stop-color="#D1369D"/>
<stop offset="1" stop-color="#B31E20"/>
</linearGradient>
<linearGradient id="paint9_linear_2025_1684" x1="-8.34573e-06" y1="-0.00415724" x2="14.606" y2="-11.5011" gradientUnits="userSpaceOnUse">
<stop stop-color="#D74446"/>
<stop offset="1" stop-color="#E165B8"/>
</linearGradient>
<linearGradient id="paint10_linear_2025_1684" x1="2.32056" y1="36.6188" x2="3.73346" y2="36.5744" gradientUnits="userSpaceOnUse">
<stop stop-color="#D74446"/>
<stop offset="1" stop-color="#D1369D"/>
</linearGradient>
<linearGradient id="paint11_linear_2025_1684" x1="27.5452" y1="52.5135" x2="34.1403" y2="51.2721" gradientUnits="userSpaceOnUse">
<stop stop-color="#B31E20"/>
<stop offset="1" stop-color="#D74446"/>
</linearGradient>
<linearGradient id="paint12_linear_2025_1684" x1="59.0066" y1="36.6188" x2="60.4195" y2="36.5744" gradientUnits="userSpaceOnUse">
<stop stop-color="#E165B8"/>
<stop offset="1" stop-color="#D74446"/>
</linearGradient>
<clipPath id="clip0_2025_1684">
<rect width="35.8992" height="35.8992" rx="4.44179" transform="matrix(0.866025 0.5 -0.866025 0.5 31.9104 19)" fill="white"/>
</clipPath>
<clipPath id="clip1_2025_1684">
<rect width="36.3731" height="36.3731" rx="4.50041" transform="matrix(0.866025 0.5 -0.866025 0.5 31.5 18.4604)" fill="white"/>
</clipPath>
</defs>
</svg>
