<svg width="64" height="64" viewBox="0 0 64 64" fill="none" xmlns="http://www.w3.org/2000/svg">
<rect width="35.8551" height="35.8551" rx="4.37833" transform="matrix(0.866025 0.5 -0.866025 0.5 31.8887 19)" fill="url(#paint0_linear_2025_1654)"/>
<rect width="26.8913" height="4.48189" transform="matrix(0.866025 0.5 0 1 4.71851 39.1685)" fill="url(#paint1_linear_2025_1654)"/>
<rect width="26.8913" height="4.48189" transform="matrix(0.866025 -0.5 0 1 35.7698 52.6143)" fill="url(#paint2_linear_2025_1654)"/>
<path d="M3.11084 36.9277C3.11084 37.8029 3.72524 38.5952 4.71858 39.1687V43.6506C3.72524 43.0771 3.11084 42.2848 3.11084 41.4096V36.9277Z" fill="url(#paint3_linear_2025_1654)"/>
<path d="M28.0071 52.6143C30.1507 53.8519 33.6263 53.8519 35.7699 52.6143V57.0961C33.6263 58.3338 30.1507 58.3338 28.0071 57.0961V52.6143Z" fill="url(#paint4_linear_2025_1654)"/>
<path d="M60.6663 36.9277C60.6663 37.8029 60.0519 38.5952 59.0586 39.1687V43.6506C60.0519 43.0771 60.6663 42.2848 60.6663 41.4096V36.9277Z" fill="url(#paint5_linear_2025_1654)"/>
<g clip-path="url(#clip0_2025_1654)">
<rect width="35.8992" height="35.8992" rx="4.44179" transform="matrix(0.866025 0.5 -0.866025 0.5 31.9104 19)" fill="url(#paint6_linear_2025_1654)"/>
<rect width="11.5594" height="11.5594" transform="matrix(0.866025 0.5 -0.866025 0.5 31.9104 19)" fill="black" fill-opacity="0.1"/>
<rect width="11.5594" height="11.5594" transform="matrix(0.866025 0.5 -0.866025 0.5 21.3711 25.085)" fill="black" fill-opacity="0.1"/>
<rect width="11.5594" height="11.5594" transform="matrix(0.866025 0.5 -0.866025 0.5 21.3711 37.2549)" fill="black" fill-opacity="0.1"/>
<rect width="11.5594" height="11.5594" transform="matrix(0.866025 0.5 -0.866025 0.5 42.45 25.085)" fill="black" fill-opacity="0.1"/>
<rect width="11.5594" height="11.5594" transform="matrix(0.866025 0.5 -0.866025 0.5 42.45 37.2549)" fill="black" fill-opacity="0.1"/>
<rect width="11.5594" height="11.5594" transform="matrix(0.866025 0.5 -0.866025 0.5 52.9893 31.1699)" fill="black" fill-opacity="0.1"/>
<rect width="11.5594" height="11.5594" transform="matrix(0.866025 0.5 -0.866025 0.5 10.8315 31.1699)" fill="black" fill-opacity="0.1"/>
<rect width="11.5594" height="11.5594" transform="matrix(0.866025 0.5 -0.866025 0.5 31.9104 43.3398)" fill="black" fill-opacity="0.1"/>
<rect width="11.5594" height="11.5594" transform="matrix(0.866025 0.5 -0.866025 0.5 31.9104 31.1699)" fill="black" fill-opacity="0.1"/>
</g>
<rect width="36.3283" height="36.3283" rx="4.43612" transform="matrix(0.866025 0.5 -0.866025 0.5 31.478 18.4604)" fill="url(#paint7_linear_2025_1654)"/>
<rect width="27.2462" height="4.54104" transform="matrix(0.866025 0.5 0 1 3.94922 38.8955)" fill="url(#paint8_linear_2025_1654)"/>
<rect width="27.2462" height="4.54104" transform="matrix(0.866025 -0.5 0 1 35.4104 52.5186)" fill="url(#paint9_linear_2025_1654)"/>
<path d="M2.32056 36.625C2.32056 37.5117 2.94306 38.3144 3.94952 38.8955V43.4366C2.94306 42.8555 2.32056 42.0527 2.32056 41.166V36.625Z" fill="url(#paint10_linear_2025_1654)"/>
<path d="M27.5452 52.5186C29.7171 53.7725 33.2385 53.7725 35.4105 52.5186V57.0596C33.2385 58.3136 29.7171 58.3136 27.5452 57.0596V52.5186Z" fill="url(#paint11_linear_2025_1654)"/>
<path d="M60.6356 36.625C60.6356 37.5117 60.013 38.3144 59.0066 38.8955V43.4366C60.013 42.8555 60.6356 42.0527 60.6356 41.166V36.625Z" fill="url(#paint12_linear_2025_1654)"/>
<g clip-path="url(#clip1_2025_1654)">
<rect width="11.712" height="11.712" transform="matrix(0.866025 0.5 -0.866025 0.5 31.5 18.4604)" fill="white" fill-opacity="0.2"/>
<rect width="11.712" height="11.712" transform="matrix(0.866025 0.5 -0.866025 0.5 20.8213 24.626)" fill="white" fill-opacity="0.2"/>
<rect width="11.712" height="11.712" transform="matrix(0.866025 0.5 -0.866025 0.5 20.8215 36.9561)" fill="white" fill-opacity="0.2"/>
<rect width="11.712" height="11.712" transform="matrix(0.866025 0.5 -0.866025 0.5 42.1785 24.6255)" fill="white" fill-opacity="0.2"/>
<rect width="11.712" height="11.712" transform="matrix(0.866025 0.5 -0.866025 0.5 42.1785 36.9561)" fill="white" fill-opacity="0.2"/>
<rect width="11.712" height="11.712" transform="matrix(0.866025 0.5 -0.866025 0.5 52.8569 30.791)" fill="white" fill-opacity="0.2"/>
<rect width="11.712" height="11.712" transform="matrix(0.866025 0.5 -0.866025 0.5 10.1428 30.791)" fill="white" fill-opacity="0.2"/>
<rect width="11.712" height="11.712" transform="matrix(0.866025 0.5 -0.866025 0.5 31.5 43.1216)" fill="white" fill-opacity="0.2"/>
<rect width="11.712" height="11.712" transform="matrix(0.866025 0.5 -0.866025 0.5 31.5 30.791)" fill="white" fill-opacity="0.2"/>
</g>
<mask id="path-33-outside-1_2025_1654" maskUnits="userSpaceOnUse" x="9" y="19" width="46" height="20" fill="black">
<rect fill="white" x="9" y="19" width="46" height="20"/>
<path d="M17.2697 37.2293C16.4072 37.2238 15.5747 37.0792 14.7722 36.7953C13.9752 36.5114 13.2601 36.0501 12.6268 35.4114C11.9936 34.7727 11.4914 33.9266 11.1202 32.873C10.7544 31.8194 10.5715 30.5256 10.5715 28.9916C10.577 27.5832 10.738 26.3249 11.0546 25.2167C11.3767 24.1031 11.8353 23.1587 12.4303 22.3835C13.0308 21.6083 13.7487 21.0188 14.5839 20.6148C15.4191 20.2054 16.3553 20.0007 17.3925 20.0007C18.5116 20.0007 19.4997 20.219 20.3568 20.6557C21.2138 21.087 21.9017 21.6739 22.4203 22.4163C22.9444 23.1587 23.261 23.9912 23.3702 24.9138H19.8737C19.7372 24.3297 19.4506 23.8711 19.0139 23.5381C18.5772 23.2051 18.0367 23.0386 17.3925 23.0386C16.3007 23.0386 15.471 23.5135 14.9032 24.4634C14.341 25.4133 14.0544 26.7043 14.0434 28.3366H14.1581C14.4092 27.8398 14.7477 27.4167 15.1735 27.0673C15.6047 26.7125 16.0933 26.4423 16.6392 26.2567C17.1906 26.0656 17.7719 25.9701 18.3834 25.9701C19.3769 25.9701 20.2613 26.2048 21.0364 26.6743C21.8116 27.1383 22.423 27.777 22.8707 28.5904C23.3183 29.4038 23.5421 30.3346 23.5421 31.3827C23.5421 32.5182 23.2774 33.5281 22.7478 34.4124C22.2238 35.2968 21.4895 35.9901 20.5451 36.4923C19.6062 36.9891 18.5144 37.2347 17.2697 37.2293ZM17.2533 34.4452C17.7992 34.4452 18.2878 34.3142 18.7191 34.0521C19.1503 33.7901 19.4888 33.4353 19.7345 32.9876C19.9801 32.54 20.1029 32.0378 20.1029 31.4809C20.1029 30.9241 19.9801 30.4246 19.7345 29.9825C19.4943 29.5403 19.1613 29.1882 18.7355 28.9261C18.3097 28.6641 17.8238 28.5331 17.2779 28.5331C16.8685 28.5331 16.4891 28.6095 16.1397 28.7624C15.7958 28.9152 15.4928 29.1281 15.2308 29.4011C14.9742 29.674 14.7722 29.9906 14.6248 30.3509C14.4774 30.7058 14.4037 31.0852 14.4037 31.4891C14.4037 32.0296 14.5266 32.5236 14.7722 32.9713C15.0233 33.4189 15.3618 33.7765 15.7876 34.044C16.2189 34.3114 16.7074 34.4452 17.2533 34.4452ZM36.3489 34.6745L26.5637 24.9056L28.7091 22.7356L38.5025 32.5291L36.3489 34.6745ZM28.7091 34.6745L26.5637 32.5291L36.3489 22.7356L38.5025 24.9056L28.7091 34.6745ZM47.8538 37.2293C46.6965 37.2293 45.6647 37.0164 44.7585 36.5906C43.8578 36.1648 43.1427 35.5779 42.6131 34.83C42.0836 34.0822 41.8079 33.2251 41.7861 32.2589H45.2253C45.2635 32.9085 45.5364 33.4353 46.0441 33.8392C46.5518 34.2432 47.155 34.4452 47.8538 34.4452C48.4106 34.4452 48.9019 34.3224 49.3277 34.0767C49.759 33.8256 50.0947 33.4789 50.3349 33.0368C50.5805 32.5891 50.7034 32.076 50.7034 31.4973C50.7034 30.9078 50.5778 30.3891 50.3267 29.9415C50.081 29.4939 49.7399 29.1445 49.3031 28.8934C48.8664 28.6423 48.3669 28.514 47.8046 28.5085C47.3133 28.5085 46.8357 28.6095 46.3717 28.8115C45.9131 29.0135 45.5555 29.2892 45.299 29.6385L42.1464 29.0735L42.9407 20.2299H53.1927V23.1287H45.864L45.43 27.3294H45.5282C45.823 26.9145 46.2679 26.5706 46.863 26.2976C47.458 26.0247 48.124 25.8882 48.861 25.8882C49.8709 25.8882 50.7716 26.1257 51.5632 26.6006C52.3547 27.0755 52.9798 27.7279 53.4383 28.5577C53.8969 29.382 54.1234 30.3318 54.118 31.4073C54.1234 32.5373 53.8614 33.5417 53.3319 34.4206C52.8078 35.2941 52.0736 35.9819 51.1292 36.4841C50.1902 36.9809 49.0984 37.2293 47.8538 37.2293Z"/>
</mask>
<path d="M17.2697 37.2293C16.4072 37.2238 15.5747 37.0792 14.7722 36.7953C13.9752 36.5114 13.2601 36.0501 12.6268 35.4114C11.9936 34.7727 11.4914 33.9266 11.1202 32.873C10.7544 31.8194 10.5715 30.5256 10.5715 28.9916C10.577 27.5832 10.738 26.3249 11.0546 25.2167C11.3767 24.1031 11.8353 23.1587 12.4303 22.3835C13.0308 21.6083 13.7487 21.0188 14.5839 20.6148C15.4191 20.2054 16.3553 20.0007 17.3925 20.0007C18.5116 20.0007 19.4997 20.219 20.3568 20.6557C21.2138 21.087 21.9017 21.6739 22.4203 22.4163C22.9444 23.1587 23.261 23.9912 23.3702 24.9138H19.8737C19.7372 24.3297 19.4506 23.8711 19.0139 23.5381C18.5772 23.2051 18.0367 23.0386 17.3925 23.0386C16.3007 23.0386 15.471 23.5135 14.9032 24.4634C14.341 25.4133 14.0544 26.7043 14.0434 28.3366H14.1581C14.4092 27.8398 14.7477 27.4167 15.1735 27.0673C15.6047 26.7125 16.0933 26.4423 16.6392 26.2567C17.1906 26.0656 17.7719 25.9701 18.3834 25.9701C19.3769 25.9701 20.2613 26.2048 21.0364 26.6743C21.8116 27.1383 22.423 27.777 22.8707 28.5904C23.3183 29.4038 23.5421 30.3346 23.5421 31.3827C23.5421 32.5182 23.2774 33.5281 22.7478 34.4124C22.2238 35.2968 21.4895 35.9901 20.5451 36.4923C19.6062 36.9891 18.5144 37.2347 17.2697 37.2293ZM17.2533 34.4452C17.7992 34.4452 18.2878 34.3142 18.7191 34.0521C19.1503 33.7901 19.4888 33.4353 19.7345 32.9876C19.9801 32.54 20.1029 32.0378 20.1029 31.4809C20.1029 30.9241 19.9801 30.4246 19.7345 29.9825C19.4943 29.5403 19.1613 29.1882 18.7355 28.9261C18.3097 28.6641 17.8238 28.5331 17.2779 28.5331C16.8685 28.5331 16.4891 28.6095 16.1397 28.7624C15.7958 28.9152 15.4928 29.1281 15.2308 29.4011C14.9742 29.674 14.7722 29.9906 14.6248 30.3509C14.4774 30.7058 14.4037 31.0852 14.4037 31.4891C14.4037 32.0296 14.5266 32.5236 14.7722 32.9713C15.0233 33.4189 15.3618 33.7765 15.7876 34.044C16.2189 34.3114 16.7074 34.4452 17.2533 34.4452ZM36.3489 34.6745L26.5637 24.9056L28.7091 22.7356L38.5025 32.5291L36.3489 34.6745ZM28.7091 34.6745L26.5637 32.5291L36.3489 22.7356L38.5025 24.9056L28.7091 34.6745ZM47.8538 37.2293C46.6965 37.2293 45.6647 37.0164 44.7585 36.5906C43.8578 36.1648 43.1427 35.5779 42.6131 34.83C42.0836 34.0822 41.8079 33.2251 41.7861 32.2589H45.2253C45.2635 32.9085 45.5364 33.4353 46.0441 33.8392C46.5518 34.2432 47.155 34.4452 47.8538 34.4452C48.4106 34.4452 48.9019 34.3224 49.3277 34.0767C49.759 33.8256 50.0947 33.4789 50.3349 33.0368C50.5805 32.5891 50.7034 32.076 50.7034 31.4973C50.7034 30.9078 50.5778 30.3891 50.3267 29.9415C50.081 29.4939 49.7399 29.1445 49.3031 28.8934C48.8664 28.6423 48.3669 28.514 47.8046 28.5085C47.3133 28.5085 46.8357 28.6095 46.3717 28.8115C45.9131 29.0135 45.5555 29.2892 45.299 29.6385L42.1464 29.0735L42.9407 20.2299H53.1927V23.1287H45.864L45.43 27.3294H45.5282C45.823 26.9145 46.2679 26.5706 46.863 26.2976C47.458 26.0247 48.124 25.8882 48.861 25.8882C49.8709 25.8882 50.7716 26.1257 51.5632 26.6006C52.3547 27.0755 52.9798 27.7279 53.4383 28.5577C53.8969 29.382 54.1234 30.3318 54.118 31.4073C54.1234 32.5373 53.8614 33.5417 53.3319 34.4206C52.8078 35.2941 52.0736 35.9819 51.1292 36.4841C50.1902 36.9809 49.0984 37.2293 47.8538 37.2293Z" fill="white"/>
<path d="M17.2697 37.2293L17.2645 38.0528L17.2661 38.0528L17.2697 37.2293ZM14.7722 36.7953L14.4959 37.5711L14.4976 37.5717L14.7722 36.7953ZM12.6268 35.4114L12.042 35.9912L12.042 35.9912L12.6268 35.4114ZM11.1202 32.873L10.3422 33.1431L10.3434 33.1467L11.1202 32.873ZM10.5715 28.9916L9.74799 28.9885V28.9916H10.5715ZM11.0546 25.2167L10.2635 24.9879L10.2628 24.9905L11.0546 25.2167ZM12.4303 22.3835L11.7793 21.8792L11.7771 21.8821L12.4303 22.3835ZM14.5839 20.6148L14.9425 21.3562L14.9464 21.3543L14.5839 20.6148ZM20.3568 20.6557L19.9829 21.3895L19.9866 21.3914L20.3568 20.6557ZM22.4203 22.4163L21.7452 22.8879L21.7475 22.8912L22.4203 22.4163ZM23.3702 24.9138V25.7373H24.2969L24.188 24.817L23.3702 24.9138ZM19.8737 24.9138L19.0717 25.1011L19.2204 25.7373H19.8737V24.9138ZM14.9032 24.4634L14.1963 24.0409L14.1946 24.0439L14.9032 24.4634ZM14.0434 28.3366L13.2199 28.3311L13.2144 29.1601H14.0434V28.3366ZM14.1581 28.3366V29.1601H14.6646L14.8931 28.7081L14.1581 28.3366ZM15.1735 27.0673L15.6958 27.704L15.6967 27.7033L15.1735 27.0673ZM16.6392 26.2567L16.9043 27.0364L16.9089 27.0348L16.6392 26.2567ZM21.0364 26.6743L20.6098 27.3787L20.6135 27.3809L21.0364 26.6743ZM22.7478 34.4124L22.0413 33.9894L22.0394 33.9926L22.7478 34.4124ZM20.5451 36.4923L20.9302 37.2202L20.9318 37.2194L20.5451 36.4923ZM18.7191 34.0521L19.1467 34.7559L19.1467 34.7559L18.7191 34.0521ZM19.7345 32.9876L20.4564 33.3838L20.4564 33.3838L19.7345 32.9876ZM19.7345 29.9825L19.0108 30.3756L19.0146 30.3824L19.7345 29.9825ZM18.7355 28.9261L19.1671 28.2248L19.1671 28.2248L18.7355 28.9261ZM16.1397 28.7624L15.8096 28.0079L15.8052 28.0098L16.1397 28.7624ZM15.2308 29.4011L14.6367 28.8307L14.6307 28.837L15.2308 29.4011ZM14.6248 30.3509L15.3854 30.6669L15.387 30.6628L14.6248 30.3509ZM14.7722 32.9713L14.0502 33.3675L14.054 33.3742L14.7722 32.9713ZM15.7876 34.044L15.3495 34.7413L15.3535 34.7438L15.7876 34.044ZM17.2697 37.2293L17.2749 36.4058C16.503 36.4009 15.7616 36.2717 15.0469 36.0189L14.7722 36.7953L14.4976 37.5717C15.3878 37.8866 16.3114 38.0468 17.2645 38.0528L17.2697 37.2293ZM14.7722 36.7953L15.0485 36.0195C14.375 35.7796 13.7636 35.3884 13.2117 34.8316L12.6268 35.4114L12.042 35.9912C12.7565 36.7119 13.5754 37.2432 14.4959 37.5711L14.7722 36.7953ZM12.6268 35.4114L13.2117 34.8316C12.6824 34.2978 12.2371 33.5651 11.8969 32.5993L11.1202 32.873L10.3434 33.1467C10.7456 34.2881 11.3047 35.2476 12.042 35.9912L12.6268 35.4114ZM11.1202 32.873L11.8981 32.6029C11.5715 31.662 11.3951 30.4657 11.3951 28.9916H10.5715H9.74799C9.74799 30.5855 9.9373 31.9768 10.3422 33.1431L11.1202 32.873ZM10.5715 28.9916L11.395 28.9948C11.4003 27.6458 11.5546 26.4646 11.8465 25.443L11.0546 25.2167L10.2628 24.9905C9.92146 26.1852 9.75369 27.5206 9.748 28.9885L10.5715 28.9916ZM11.0546 25.2167L11.8458 25.4455C12.1445 24.4126 12.5616 23.565 13.0836 22.885L12.4303 22.3835L11.7771 21.8821C11.109 22.7524 10.609 23.7936 10.2635 24.9879L11.0546 25.2167ZM12.4303 22.3835L13.0814 22.8878C13.6085 22.2073 14.2282 21.7016 14.9425 21.3562L14.5839 20.6148L14.2253 19.8734C13.2691 20.3359 12.4531 21.0093 11.7793 21.8792L12.4303 22.3835ZM14.5839 20.6148L14.9464 21.3543C15.6563 21.0062 16.4664 20.8242 17.3925 20.8242V20.0007V19.1771C16.2443 19.1771 15.1819 19.4045 14.2214 19.8753L14.5839 20.6148ZM17.3925 20.0007V20.8242C18.4029 20.8242 19.2592 21.0207 19.9829 21.3895L20.3568 20.6557L20.7307 19.922C19.7403 19.4173 18.6204 19.1771 17.3925 19.1771V20.0007ZM20.3568 20.6557L19.9866 21.3914C20.7292 21.765 21.3094 22.2641 21.7452 22.8879L22.4203 22.4163L23.0954 21.9447C22.494 21.0836 21.6985 20.409 20.727 19.9201L20.3568 20.6557ZM22.4203 22.4163L21.7475 22.8912C22.1907 23.519 22.4589 24.221 22.5523 25.0106L23.3702 24.9138L24.188 24.817C24.0631 23.7614 23.698 22.7984 23.0931 21.9414L22.4203 22.4163ZM23.3702 24.9138V24.0902H19.8737V24.9138V25.7373H23.3702V24.9138ZM19.8737 24.9138L20.6756 24.7264C20.4999 23.9744 20.1164 23.3432 19.5132 22.8832L19.0139 23.5381L18.5145 24.193C18.7848 24.399 18.9745 24.6849 19.0717 25.1011L19.8737 24.9138ZM19.0139 23.5381L19.5132 22.8832C18.9092 22.4227 18.1848 22.2151 17.3925 22.2151V23.0386V23.8621C17.8887 23.8621 18.2451 23.9875 18.5145 24.193L19.0139 23.5381ZM17.3925 23.0386V22.2151C16.0062 22.2151 14.9103 22.8465 14.1964 24.0409L14.9032 24.4634L15.6101 24.8859C16.0317 24.1806 16.5953 23.8621 17.3925 23.8621V23.0386ZM14.9032 24.4634L14.1946 24.0439C13.5308 25.1653 13.2314 26.6181 13.2199 28.3311L14.0434 28.3366L14.867 28.3421C14.8773 26.7906 15.1512 25.6613 15.6119 24.8829L14.9032 24.4634ZM14.0434 28.3366V29.1601H14.1581V28.3366V27.513H14.0434V28.3366ZM14.1581 28.3366L14.8931 28.7081C15.0931 28.3124 15.3595 27.9799 15.6958 27.704L15.1735 27.0673L14.6511 26.4307C14.1358 26.8535 13.7253 27.3672 13.4231 27.965L14.1581 28.3366ZM15.1735 27.0673L15.6967 27.7033C16.0488 27.4136 16.4493 27.1911 16.9043 27.0364L16.6392 26.2567L16.3741 25.477C15.7373 25.6935 15.1606 26.0114 14.6502 26.4314L15.1735 27.0673ZM16.6392 26.2567L16.9089 27.0348C17.3694 26.8752 17.8593 26.7936 18.3834 26.7936V25.9701V25.1466C17.6846 25.1466 17.0117 25.256 16.3696 25.4786L16.6392 26.2567ZM18.3834 25.9701V26.7936C19.2414 26.7936 19.9755 26.9946 20.6098 27.3787L21.0364 26.6743L21.463 25.9699C20.547 25.4151 19.5124 25.1466 18.3834 25.1466V25.9701ZM21.0364 26.6743L20.6135 27.3809C21.2599 27.7679 21.7698 28.2982 22.1492 28.9875L22.8707 28.5904L23.5921 28.1933C23.0762 27.2559 22.3633 26.5088 21.4594 25.9677L21.0364 26.6743ZM22.8707 28.5904L22.1492 28.9875C22.5216 29.6642 22.7186 30.4552 22.7186 31.3827H23.5421H24.3656C24.3656 30.2139 24.115 29.1434 23.5921 28.1933L22.8707 28.5904ZM23.5421 31.3827H22.7186C22.7186 32.3847 22.4866 33.2456 22.0413 33.9894L22.7478 34.4124L23.4544 34.8355C24.0681 33.8105 24.3656 32.6516 24.3656 31.3827H23.5421ZM22.7478 34.4124L22.0394 33.9926C21.5955 34.7415 20.9751 35.3309 20.1585 35.7652L20.5451 36.4923L20.9318 37.2194C22.004 36.6493 22.852 35.8521 23.4563 34.8323L22.7478 34.4124ZM20.5451 36.4923L20.16 35.7644C19.3598 36.1877 18.4058 36.4107 17.2733 36.4058L17.2697 37.2293L17.2661 38.0528C18.6229 38.0588 19.8525 37.7904 20.9302 37.2202L20.5451 36.4923ZM17.2533 34.4452V35.2687C17.9373 35.2687 18.5761 35.1027 19.1467 34.7559L18.7191 34.0521L18.2915 33.3483C17.9996 33.5257 17.6612 33.6217 17.2533 33.6217V34.4452ZM18.7191 34.0521L19.1467 34.7559C19.7029 34.418 20.1422 33.9565 20.4564 33.3838L19.7345 32.9876L19.0125 32.5914C18.8354 32.9141 18.5978 33.1622 18.2915 33.3483L18.7191 34.0521ZM19.7345 32.9876L20.4564 33.3838C20.7746 32.804 20.9265 32.1634 20.9265 31.4809H20.1029H19.2794C19.2794 31.9121 19.1856 32.276 19.0125 32.5914L19.7345 32.9876ZM20.1029 31.4809H20.9265C20.9265 30.7986 20.7747 30.1591 20.4544 29.5825L19.7345 29.9825L19.0146 30.3824C19.1856 30.6902 19.2794 31.0496 19.2794 31.4809H20.1029ZM19.7345 29.9825L20.4581 29.5894C20.1497 29.0215 19.7163 28.5628 19.1671 28.2248L18.7355 28.9261L18.3039 29.6275C18.6062 29.8136 18.8389 30.059 19.0108 30.3755L19.7345 29.9825ZM18.7355 28.9261L19.1671 28.2248C18.5997 27.8756 17.9617 27.7096 17.2779 27.7096V28.5331V29.3566C17.6859 29.3566 18.0197 29.4526 18.3039 29.6275L18.7355 28.9261ZM17.2779 28.5331V27.7096C16.7633 27.7096 16.2706 27.8062 15.8096 28.0079L16.1397 28.7624L16.4698 29.5168C16.7076 29.4128 16.9736 29.3566 17.2779 29.3566V28.5331ZM16.1397 28.7624L15.8052 28.0098C15.3633 28.2063 14.9722 28.4812 14.6367 28.8307L15.2308 29.4011L15.8249 29.9714C16.0134 29.775 16.2283 29.6242 16.4742 29.5149L16.1397 28.7624ZM15.2308 29.4011L14.6307 28.837C14.3024 29.1863 14.0467 29.5892 13.8626 30.0391L14.6248 30.3509L15.387 30.6628C15.4978 30.392 15.646 30.1618 15.8308 29.9651L15.2308 29.4011ZM14.6248 30.3509L13.8643 30.035C13.6732 30.4951 13.5802 30.9824 13.5802 31.4891H14.4037H15.2273C15.2273 31.1879 15.2817 30.9165 15.3854 30.6668L14.6248 30.3509ZM14.4037 31.4891H13.5802C13.5802 32.1597 13.7341 32.7913 14.0503 33.3675L14.7722 32.9713L15.4942 32.5751C15.3191 32.256 15.2273 31.8994 15.2273 31.4891H14.4037ZM14.7722 32.9713L14.054 33.3742C14.371 33.9392 14.8047 34.399 15.3495 34.7413L15.7876 34.044L16.2257 33.3466C15.9189 33.1539 15.6757 32.8986 15.4905 32.5683L14.7722 32.9713ZM15.7876 34.044L15.3535 34.7438C15.925 35.0983 16.5661 35.2687 17.2533 35.2687V34.4452V33.6217C16.8487 33.6217 16.5127 33.5246 16.2217 33.3441L15.7876 34.044ZM36.3489 34.6745L35.7671 35.2573L36.3483 35.8375L36.9301 35.2579L36.3489 34.6745ZM26.5637 24.9056L25.978 24.3266L25.4018 24.9094L25.9818 25.4884L26.5637 24.9056ZM28.7091 22.7356L29.2914 22.1533L28.7057 21.5677L28.1234 22.1566L28.7091 22.7356ZM38.5025 32.5291L39.0837 33.1125L39.6683 32.5302L39.0848 31.9468L38.5025 32.5291ZM28.7091 34.6745L28.1267 35.2568L28.7083 35.8384L29.2906 35.2575L28.7091 34.6745ZM26.5637 32.5291L25.9811 31.947L25.3993 32.5293L25.9813 33.1114L26.5637 32.5291ZM36.3489 22.7356L36.9335 22.1555L36.3509 21.5685L35.7664 22.1535L36.3489 22.7356ZM38.5025 24.9056L39.0841 25.4886L39.6657 24.9085L39.087 24.3255L38.5025 24.9056ZM36.3489 34.6745L36.9308 34.0917L27.1455 24.3228L26.5637 24.9056L25.9818 25.4884L35.7671 35.2573L36.3489 34.6745ZM26.5637 24.9056L27.1493 25.4846L29.2947 23.3146L28.7091 22.7356L28.1234 22.1566L25.978 24.3266L26.5637 24.9056ZM28.7091 22.7356L28.1267 23.3179L37.9202 33.1114L38.5025 32.5291L39.0848 31.9468L29.2914 22.1533L28.7091 22.7356ZM38.5025 32.5291L37.9213 31.9456L35.7677 34.091L36.3489 34.6745L36.9301 35.2579L39.0837 33.1125L38.5025 32.5291ZM28.7091 34.6745L29.2914 34.0921L27.146 31.9468L26.5637 32.5291L25.9813 33.1114L28.1267 35.2568L28.7091 34.6745ZM26.5637 32.5291L27.1462 33.1112L36.9315 23.3177L36.3489 22.7356L35.7664 22.1535L25.9811 31.947L26.5637 32.5291ZM36.3489 22.7356L35.7644 23.3157L37.918 25.4857L38.5025 24.9056L39.087 24.3255L36.9335 22.1555L36.3489 22.7356ZM38.5025 24.9056L37.9209 24.3225L28.1275 34.0914L28.7091 34.6745L29.2906 35.2575L39.0841 25.4886L38.5025 24.9056ZM44.7585 36.5906L44.4066 37.3351L44.4083 37.3359L44.7585 36.5906ZM42.6131 34.83L43.2853 34.3542L43.2853 34.3542L42.6131 34.83ZM41.7861 32.2589V31.4353H40.9437L40.9628 32.2775L41.7861 32.2589ZM45.2253 32.2589L46.0474 32.2105L46.0018 31.4353H45.2253V32.2589ZM46.0441 33.8392L46.5569 33.1948L46.5569 33.1948L46.0441 33.8392ZM49.3277 34.0767L49.7392 34.79L49.7421 34.7884L49.3277 34.0767ZM50.3349 33.0368L49.6129 32.6406L49.6112 32.6437L50.3349 33.0368ZM50.3267 29.9415L49.6047 30.3377L49.6085 30.3444L50.3267 29.9415ZM49.3031 28.8934L48.8926 29.6073L48.8926 29.6073L49.3031 28.8934ZM47.8046 28.5085L47.8126 27.685H47.8046V28.5085ZM46.3717 28.8115L46.043 28.0564L46.0397 28.0578L46.3717 28.8115ZM45.299 29.6385L45.1537 30.4491L45.6589 30.5397L45.9627 30.126L45.299 29.6385ZM42.1464 29.0735L41.3262 28.9999L41.2587 29.7511L42.0011 29.8841L42.1464 29.0735ZM42.9407 20.2299V19.4064H42.1878L42.1204 20.1563L42.9407 20.2299ZM53.1927 20.2299H54.0162V19.4064H53.1927V20.2299ZM53.1927 23.1287V23.9522H54.0162V23.1287H53.1927ZM45.864 23.1287V22.3051H45.1211L45.0448 23.044L45.864 23.1287ZM45.43 27.3294L44.6108 27.2447L44.517 28.1529H45.43V27.3294ZM45.5282 27.3294V28.1529H45.9533L46.1996 27.8064L45.5282 27.3294ZM46.863 26.2976L47.2063 27.0462L47.2063 27.0462L46.863 26.2976ZM51.5632 26.6006L51.9869 25.8944L51.9869 25.8944L51.5632 26.6006ZM53.4383 28.5577L52.7175 28.956L52.7187 28.958L53.4383 28.5577ZM54.118 31.4073L53.2944 31.4031L53.2945 31.4112L54.118 31.4073ZM53.3319 34.4206L52.6265 33.9956L52.6257 33.9969L53.3319 34.4206ZM51.1292 36.4841L51.5143 37.2121L51.5158 37.2112L51.1292 36.4841ZM47.8538 37.2293V36.4057C46.7987 36.4057 45.8895 36.2121 45.1087 35.8452L44.7585 36.5906L44.4083 37.3359C45.4399 37.8207 46.5942 38.0528 47.8538 38.0528V37.2293ZM44.7585 36.5906L45.1105 35.846C44.3263 35.4753 43.7259 34.9765 43.2853 34.3542L42.6131 34.83L41.941 35.3059C42.5594 36.1793 43.3893 36.8542 44.4066 37.3351L44.7585 36.5906ZM42.6131 34.83L43.2853 34.3542C42.8559 33.7478 42.6278 33.0519 42.6094 32.2403L41.7861 32.2589L40.9628 32.2775C40.9881 33.3983 41.3113 34.4166 41.941 35.3059L42.6131 34.83ZM41.7861 32.2589V33.0824H45.2253V32.2589V31.4353H41.7861V32.2589ZM45.2253 32.2589L44.4032 32.3072C44.4551 33.1896 44.8399 33.9335 45.5314 34.4837L46.0441 33.8392L46.5569 33.1948C46.2329 32.9371 46.0719 32.6273 46.0474 32.2105L45.2253 32.2589ZM46.0441 33.8392L45.5314 34.4837C46.1964 35.0128 46.9841 35.2687 47.8538 35.2687V34.4452V33.6217C47.3259 33.6217 46.9073 33.4736 46.5569 33.1948L46.0441 33.8392ZM47.8538 34.4452V35.2687C48.5355 35.2687 49.1724 35.1171 49.7392 34.79L49.3277 34.0767L48.9162 33.3634C48.6314 33.5277 48.2857 33.6217 47.8538 33.6217V34.4452ZM49.3277 34.0767L49.7421 34.7884C50.3048 34.4607 50.747 34.0034 51.0585 33.4299L50.3349 33.0368L49.6112 32.6437C49.4424 32.9545 49.2131 33.1905 48.9133 33.365L49.3277 34.0767ZM50.3349 33.0368L51.0569 33.433C51.3776 32.8485 51.5269 32.1958 51.5269 31.4973H50.7034H49.8798C49.8798 31.9562 49.7835 32.3298 49.6129 32.6406L50.3349 33.0368ZM50.7034 31.4973H51.5269C51.5269 30.7879 51.3748 30.1266 51.0449 29.5386L50.3267 29.9415L49.6085 30.3444C49.7809 30.6517 49.8798 31.0276 49.8798 31.4973H50.7034ZM50.3267 29.9415L51.0487 29.5453C50.7314 28.9671 50.2832 28.507 49.7136 28.1795L49.3031 28.8934L48.8926 29.6073C49.1965 29.782 49.4307 30.0206 49.6047 30.3377L50.3267 29.9415ZM49.3031 28.8934L49.7136 28.1795C49.1406 27.85 48.4995 27.6917 47.8126 27.685L47.8046 28.5085L47.7967 29.332C48.2343 29.3363 48.5922 29.4346 48.8926 29.6073L49.3031 28.8934ZM47.8046 28.5085V27.685C47.1968 27.685 46.6075 27.8107 46.043 28.0564L46.3717 28.8115L46.7003 29.5666C47.0639 29.4084 47.4299 29.3321 47.8046 29.3321V28.5085ZM46.3717 28.8115L46.0397 28.0578C45.47 28.3088 44.9897 28.6684 44.6352 29.1511L45.299 29.6385L45.9627 30.126C46.1214 29.9099 46.3562 29.7182 46.7036 29.5652L46.3717 28.8115ZM45.299 29.6385L45.4442 28.8279L42.2917 28.2629L42.1464 29.0735L42.0011 29.8841L45.1537 30.4491L45.299 29.6385ZM42.1464 29.0735L42.9666 29.1472L43.7609 20.3036L42.9407 20.2299L42.1204 20.1563L41.3262 28.9999L42.1464 29.0735ZM42.9407 20.2299V21.0535H53.1927V20.2299V19.4064H42.9407V20.2299ZM53.1927 20.2299H52.3692V23.1287H53.1927H54.0162V20.2299H53.1927ZM53.1927 23.1287V22.3051H45.864V23.1287V23.9522H53.1927V23.1287ZM45.864 23.1287L45.0448 23.044L44.6108 27.2447L45.43 27.3294L46.2491 27.414L46.6831 23.2133L45.864 23.1287ZM45.43 27.3294V28.1529H45.5282V27.3294V26.5058H45.43V27.3294ZM45.5282 27.3294L46.1996 27.8064C46.3901 27.5383 46.7058 27.2758 47.2063 27.0462L46.863 26.2976L46.5196 25.5491C45.8301 25.8654 45.256 26.2907 44.8569 26.8524L45.5282 27.3294ZM46.863 26.2976L47.2063 27.0462C47.6808 26.8285 48.2276 26.7117 48.861 26.7117V25.8882V25.0647C48.0204 25.0647 47.2352 25.2209 46.5196 25.5491L46.863 26.2976ZM48.861 25.8882V26.7117C49.7361 26.7117 50.4878 26.9158 51.1395 27.3068L51.5632 26.6006L51.9869 25.8944C51.0554 25.3356 50.0056 25.0647 48.861 25.0647V25.8882ZM51.5632 26.6006L51.1395 27.3068C51.8031 27.705 52.3272 28.2496 52.7175 28.956L53.4383 28.5577L54.1591 28.1593C53.6324 27.2062 52.9063 26.4461 51.9869 25.8944L51.5632 26.6006ZM53.4383 28.5577L52.7187 28.958C53.0993 29.6422 53.2993 30.4491 53.2945 31.4031L54.118 31.4073L54.9415 31.4114C54.9476 30.2146 54.6945 29.1218 54.158 28.1573L53.4383 28.5577ZM54.118 31.4073L53.2945 31.4112C53.2993 32.4059 53.0703 33.2591 52.6265 33.9956L53.3319 34.4206L54.0373 34.8456C54.6526 33.8244 54.9476 32.6686 54.9415 31.4033L54.118 31.4073ZM53.3319 34.4206L52.6257 33.9969C52.1825 34.7355 51.5617 35.3214 50.7425 35.757L51.1292 36.4841L51.5158 37.2112C52.5854 36.6424 53.4331 35.8526 54.0381 34.8443L53.3319 34.4206ZM51.1292 36.4841L50.7441 35.7562C49.9426 36.1802 48.9873 36.4057 47.8538 36.4057V37.2293V38.0528C49.2096 38.0528 50.4378 37.7816 51.5143 37.2121L51.1292 36.4841Z" fill="#2B3F46" mask="url(#path-33-outside-1_2025_1654)"/>
<defs>
<linearGradient id="paint0_linear_2025_1654" x1="35.8411" y1="35.864" x2="-1.88188" y2="2.08424" gradientUnits="userSpaceOnUse">
<stop stop-color="#FFD5EF"/>
<stop offset="1" stop-color="#EFBDFD"/>
</linearGradient>
<linearGradient id="paint1_linear_2025_1654" x1="26.8809" y1="4.483" x2="25.174" y2="-4.68761" gradientUnits="userSpaceOnUse">
<stop stop-color="#F95457"/>
<stop offset="1" stop-color="#FDBDCB"/>
</linearGradient>
<linearGradient id="paint2_linear_2025_1654" x1="26.8809" y1="4.483" x2="25.174" y2="-4.68761" gradientUnits="userSpaceOnUse">
<stop stop-color="#F95457"/>
<stop offset="1" stop-color="#FDBDCB"/>
</linearGradient>
<linearGradient id="paint3_linear_2025_1654" x1="4.71795" y1="43.6522" x2="1.80375" y2="43.0282" gradientUnits="userSpaceOnUse">
<stop stop-color="#F95457"/>
<stop offset="1" stop-color="#FDBDCB"/>
</linearGradient>
<linearGradient id="paint4_linear_2025_1654" x1="35.7669" y1="58.0257" x2="30.2155" y2="50.8928" gradientUnits="userSpaceOnUse">
<stop stop-color="#F95457"/>
<stop offset="1" stop-color="#FDBDCB"/>
</linearGradient>
<linearGradient id="paint5_linear_2025_1654" x1="60.6657" y1="43.6522" x2="57.7515" y2="43.0282" gradientUnits="userSpaceOnUse">
<stop stop-color="#F95457"/>
<stop offset="1" stop-color="#FDBDCB"/>
</linearGradient>
<linearGradient id="paint6_linear_2025_1654" x1="-1.09962e-05" y1="-0.0328651" x2="30.641" y2="-4.05264" gradientUnits="userSpaceOnUse">
<stop stop-color="#D74446"/>
<stop offset="1" stop-color="#E165B8"/>
</linearGradient>
<linearGradient id="paint7_linear_2025_1654" x1="-1.11276e-05" y1="-0.033258" x2="31.0073" y2="-4.10108" gradientUnits="userSpaceOnUse">
<stop stop-color="#D74446"/>
<stop offset="1" stop-color="#E165B8"/>
</linearGradient>
<linearGradient id="paint8_linear_2025_1654" x1="-8.34573e-06" y1="-0.00415724" x2="14.606" y2="-11.5011" gradientUnits="userSpaceOnUse">
<stop stop-color="#D1369D"/>
<stop offset="1" stop-color="#B31E20"/>
</linearGradient>
<linearGradient id="paint9_linear_2025_1654" x1="-8.34573e-06" y1="-0.00415724" x2="14.606" y2="-11.5011" gradientUnits="userSpaceOnUse">
<stop stop-color="#D74446"/>
<stop offset="1" stop-color="#E165B8"/>
</linearGradient>
<linearGradient id="paint10_linear_2025_1654" x1="2.32056" y1="36.6188" x2="3.73346" y2="36.5744" gradientUnits="userSpaceOnUse">
<stop stop-color="#D74446"/>
<stop offset="1" stop-color="#D1369D"/>
</linearGradient>
<linearGradient id="paint11_linear_2025_1654" x1="27.5452" y1="52.5135" x2="34.1403" y2="51.2721" gradientUnits="userSpaceOnUse">
<stop stop-color="#B31E20"/>
<stop offset="1" stop-color="#D74446"/>
</linearGradient>
<linearGradient id="paint12_linear_2025_1654" x1="59.0066" y1="36.6188" x2="60.4195" y2="36.5744" gradientUnits="userSpaceOnUse">
<stop stop-color="#E165B8"/>
<stop offset="1" stop-color="#D74446"/>
</linearGradient>
<clipPath id="clip0_2025_1654">
<rect width="35.8992" height="35.8992" rx="4.44179" transform="matrix(0.866025 0.5 -0.866025 0.5 31.9104 19)" fill="white"/>
</clipPath>
<clipPath id="clip1_2025_1654">
<rect width="36.3731" height="36.3731" rx="4.50041" transform="matrix(0.866025 0.5 -0.866025 0.5 31.5 18.4604)" fill="white"/>
</clipPath>
</defs>
</svg>
