<svg width="64" height="64" viewBox="0 0 64 64" fill="none" xmlns="http://www.w3.org/2000/svg">
<path d="M4.4006 33.9298C3.80774 33.582 3.47546 33.1136 3.47547 32.6257L3.47547 30.5016C3.47547 29.9566 3.88975 29.439 4.60873 29.0857L30.1348 16.5442C31.3579 15.9433 33.1609 15.9544 34.3614 16.5703L60.0608 29.7535C60.7487 30.1064 61.1422 30.6122 61.1422 31.1434V32.5436C61.1422 33.0309 60.8108 33.4987 60.2194 33.8464L34.5631 48.9278C33.3018 49.6692 31.2326 49.6699 29.9699 48.9292L4.4006 33.9298Z" fill="url(#paint0_linear_84_1326)"/>
<rect width="34.7831" height="34.7831" rx="2.62954" transform="matrix(0.866044 -0.499967 0.866044 0.499967 2.14404 30.3906)" fill="white"/>
<rect width="10.8697" height="10.8697" transform="matrix(0.866044 -0.499967 0.866044 0.499967 12.2639 30.3906)" fill="#D9D9D9"/>
<rect width="10.8697" height="10.8697" transform="matrix(0.866044 -0.499967 0.866044 0.499967 22.8542 24.2769)" fill="#D9D9D9"/>
<rect width="10.8697" height="10.8697" transform="matrix(0.866044 -0.499967 0.866044 0.499967 22.8542 36.5044)" fill="#D9D9D9"/>
<rect width="10.8697" height="10.8697" transform="matrix(0.866044 -0.499967 0.866044 0.499967 33.4446 30.3906)" fill="#D9D9D9"/>
<mask id="path-7-outside-1_84_1326" maskUnits="userSpaceOnUse" x="19" y="23" width="27" height="14" fill="black">
<rect fill="white" x="19" y="23" width="27" height="14"/>
<path d="M23.6731 35.1394C23.016 35.1394 22.4302 35.0266 21.9158 34.8009C21.4047 34.5752 20.9982 34.2616 20.6962 33.86C20.3975 33.4551 20.2349 32.9855 20.2083 32.4512H21.4628C21.4894 32.7797 21.6022 33.0635 21.8013 33.3025C22.0005 33.5381 22.261 33.7206 22.5829 33.85C22.9048 33.9795 23.2616 34.0442 23.6532 34.0442C24.0913 34.0442 24.4796 33.9679 24.8181 33.8152C25.1566 33.6625 25.4221 33.4501 25.6146 33.178C25.8071 32.9059 25.9033 32.5906 25.9033 32.2322C25.9033 31.8571 25.8104 31.5269 25.6246 31.2415C25.4387 30.9528 25.1666 30.7271 24.8081 30.5645C24.4497 30.4019 24.0116 30.3205 23.4939 30.3205H22.6775V29.2253H23.4939C23.8988 29.2253 24.2539 29.1523 24.5592 29.0063C24.8679 28.8603 25.1085 28.6545 25.2811 28.389C25.457 28.1235 25.5449 27.8116 25.5449 27.4531C25.5449 27.108 25.4686 26.8076 25.3159 26.5521C25.1632 26.2965 24.9475 26.0974 24.6688 25.9547C24.3933 25.812 24.0681 25.7406 23.693 25.7406C23.3412 25.7406 23.0094 25.8054 22.6974 25.9348C22.3888 26.0609 22.1365 26.2451 21.9407 26.4874C21.7449 26.7263 21.6387 27.0151 21.6221 27.3536H20.4274C20.4473 26.8192 20.6082 26.3513 20.9103 25.9497C21.2123 25.5448 21.6072 25.2296 22.0951 25.0039C22.5862 24.7782 23.1255 24.6654 23.7129 24.6654C24.3435 24.6654 24.8845 24.7931 25.3358 25.0487C25.7872 25.3009 26.134 25.6344 26.3763 26.0493C26.6185 26.4641 26.7397 26.9122 26.7397 27.3934C26.7397 27.9675 26.5887 28.4571 26.2867 28.8619C25.988 29.2668 25.5814 29.5473 25.067 29.7033V29.7829C25.7108 29.8891 26.2136 30.1629 26.5754 30.6043C26.9371 31.0424 27.118 31.585 27.118 32.2322C27.118 32.7864 26.967 33.2842 26.665 33.7256C26.3663 34.1637 25.9581 34.5088 25.4404 34.761C24.9226 35.0133 24.3336 35.1394 23.6731 35.1394ZM35.1478 33.168L29.5324 27.5527L30.2891 26.796L35.9044 32.4114L35.1478 33.168ZM30.2891 33.168L29.5324 32.4114L35.1478 26.796L35.9044 27.5527L30.2891 33.168ZM38.3947 35V34.1039L41.76 30.4201C42.1549 29.9887 42.4801 29.6136 42.7357 29.295C42.9912 28.9731 43.1804 28.6711 43.3032 28.389C43.4293 28.1036 43.4924 27.8049 43.4924 27.493C43.4924 27.1345 43.4061 26.8242 43.2335 26.562C43.0642 26.2999 42.8319 26.0974 42.5366 25.9547C42.2412 25.812 41.9093 25.7406 41.5409 25.7406C41.1493 25.7406 40.8075 25.822 40.5154 25.9846C40.2267 26.1439 40.0027 26.3679 39.8434 26.6566C39.6874 26.9454 39.6094 27.2839 39.6094 27.6722H38.4346C38.4346 27.0748 38.5723 26.5504 38.8478 26.0991C39.1232 25.6477 39.4982 25.2959 39.9728 25.0437C40.4507 24.7915 40.9867 24.6654 41.5808 24.6654C42.1781 24.6654 42.7075 24.7915 43.1688 25.0437C43.6301 25.2959 43.9918 25.6361 44.254 26.0642C44.5162 26.4923 44.6473 26.9686 44.6473 27.493C44.6473 27.868 44.5793 28.2347 44.4432 28.5931C44.3104 28.9482 44.0781 29.3448 43.7463 29.7829C43.4177 30.2177 42.9614 30.7487 42.3773 31.3759L40.0873 33.8252V33.9048H44.8265V35H38.3947Z"/>
</mask>
<path d="M23.6731 35.1394C23.016 35.1394 22.4302 35.0266 21.9158 34.8009C21.4047 34.5752 20.9982 34.2616 20.6962 33.86C20.3975 33.4551 20.2349 32.9855 20.2083 32.4512H21.4628C21.4894 32.7797 21.6022 33.0635 21.8013 33.3025C22.0005 33.5381 22.261 33.7206 22.5829 33.85C22.9048 33.9795 23.2616 34.0442 23.6532 34.0442C24.0913 34.0442 24.4796 33.9679 24.8181 33.8152C25.1566 33.6625 25.4221 33.4501 25.6146 33.178C25.8071 32.9059 25.9033 32.5906 25.9033 32.2322C25.9033 31.8571 25.8104 31.5269 25.6246 31.2415C25.4387 30.9528 25.1666 30.7271 24.8081 30.5645C24.4497 30.4019 24.0116 30.3205 23.4939 30.3205H22.6775V29.2253H23.4939C23.8988 29.2253 24.2539 29.1523 24.5592 29.0063C24.8679 28.8603 25.1085 28.6545 25.2811 28.389C25.457 28.1235 25.5449 27.8116 25.5449 27.4531C25.5449 27.108 25.4686 26.8076 25.3159 26.5521C25.1632 26.2965 24.9475 26.0974 24.6688 25.9547C24.3933 25.812 24.0681 25.7406 23.693 25.7406C23.3412 25.7406 23.0094 25.8054 22.6974 25.9348C22.3888 26.0609 22.1365 26.2451 21.9407 26.4874C21.7449 26.7263 21.6387 27.0151 21.6221 27.3536H20.4274C20.4473 26.8192 20.6082 26.3513 20.9103 25.9497C21.2123 25.5448 21.6072 25.2296 22.0951 25.0039C22.5862 24.7782 23.1255 24.6654 23.7129 24.6654C24.3435 24.6654 24.8845 24.7931 25.3358 25.0487C25.7872 25.3009 26.134 25.6344 26.3763 26.0493C26.6185 26.4641 26.7397 26.9122 26.7397 27.3934C26.7397 27.9675 26.5887 28.4571 26.2867 28.8619C25.988 29.2668 25.5814 29.5473 25.067 29.7033V29.7829C25.7108 29.8891 26.2136 30.1629 26.5754 30.6043C26.9371 31.0424 27.118 31.585 27.118 32.2322C27.118 32.7864 26.967 33.2842 26.665 33.7256C26.3663 34.1637 25.9581 34.5088 25.4404 34.761C24.9226 35.0133 24.3336 35.1394 23.6731 35.1394ZM35.1478 33.168L29.5324 27.5527L30.2891 26.796L35.9044 32.4114L35.1478 33.168ZM30.2891 33.168L29.5324 32.4114L35.1478 26.796L35.9044 27.5527L30.2891 33.168ZM38.3947 35V34.1039L41.76 30.4201C42.1549 29.9887 42.4801 29.6136 42.7357 29.295C42.9912 28.9731 43.1804 28.6711 43.3032 28.389C43.4293 28.1036 43.4924 27.8049 43.4924 27.493C43.4924 27.1345 43.4061 26.8242 43.2335 26.562C43.0642 26.2999 42.8319 26.0974 42.5366 25.9547C42.2412 25.812 41.9093 25.7406 41.5409 25.7406C41.1493 25.7406 40.8075 25.822 40.5154 25.9846C40.2267 26.1439 40.0027 26.3679 39.8434 26.6566C39.6874 26.9454 39.6094 27.2839 39.6094 27.6722H38.4346C38.4346 27.0748 38.5723 26.5504 38.8478 26.0991C39.1232 25.6477 39.4982 25.2959 39.9728 25.0437C40.4507 24.7915 40.9867 24.6654 41.5808 24.6654C42.1781 24.6654 42.7075 24.7915 43.1688 25.0437C43.6301 25.2959 43.9918 25.6361 44.254 26.0642C44.5162 26.4923 44.6473 26.9686 44.6473 27.493C44.6473 27.868 44.5793 28.2347 44.4432 28.5931C44.3104 28.9482 44.0781 29.3448 43.7463 29.7829C43.4177 30.2177 42.9614 30.7487 42.3773 31.3759L40.0873 33.8252V33.9048H44.8265V35H38.3947Z" fill="#00C1FF"/>
<path d="M21.9158 34.8009L21.5119 35.7157L21.5141 35.7166L21.9158 34.8009ZM20.6962 33.86L19.8914 34.4537L19.897 34.4611L20.6962 33.86ZM20.2083 32.4512V31.4512H19.1574L19.2096 32.5008L20.2083 32.4512ZM21.4628 32.4512L22.4596 32.3706L22.3853 31.4512H21.4628V32.4512ZM21.8013 33.3025L21.0331 33.9427L21.0375 33.9479L21.8013 33.3025ZM22.5829 33.85L22.2099 34.7779L22.2099 34.7779L22.5829 33.85ZM25.6146 33.178L24.7982 32.6005L24.7982 32.6005L25.6146 33.178ZM25.6246 31.2415L24.7837 31.7828L24.7866 31.7872L25.6246 31.2415ZM24.8081 30.5645L24.395 31.4751L24.395 31.4751L24.8081 30.5645ZM22.6775 30.3205H21.6775V31.3205H22.6775V30.3205ZM22.6775 29.2253V28.2253H21.6775V29.2253H22.6775ZM24.5592 29.0063L24.1316 28.1024L24.1278 28.1042L24.5592 29.0063ZM25.2811 28.389L24.4474 27.8367L24.4426 27.844L25.2811 28.389ZM25.3159 26.5521L26.1744 26.0392L26.1744 26.0392L25.3159 26.5521ZM24.6688 25.9547L24.2087 26.8426L24.2131 26.8449L24.6688 25.9547ZM22.6974 25.9348L23.0757 26.8605L23.0806 26.8585L22.6974 25.9348ZM21.9407 26.4874L22.7142 27.1212L22.7185 27.116L21.9407 26.4874ZM21.6221 27.3536V28.3536H22.5743L22.6209 27.4025L21.6221 27.3536ZM20.4274 27.3536L19.4281 27.3163L19.3894 28.3536H20.4274V27.3536ZM20.9103 25.9497L21.7095 26.5508L21.7118 26.5476L20.9103 25.9497ZM22.0951 25.0039L21.6776 24.0952L21.6752 24.0963L22.0951 25.0039ZM25.3358 25.0487L24.8431 25.9189L24.848 25.9216L25.3358 25.0487ZM26.3763 26.0493L25.5127 26.5536L25.5127 26.5536L26.3763 26.0493ZM26.2867 28.8619L25.4851 28.264L25.4819 28.2683L26.2867 28.8619ZM25.067 29.7033L24.7768 28.7463L24.067 28.9615V29.7033H25.067ZM25.067 29.7829H24.067V30.6315L24.9043 30.7696L25.067 29.7829ZM26.5754 30.6043L25.8019 31.2382L25.8043 31.241L26.5754 30.6043ZM26.665 33.7256L25.8397 33.1609L25.8388 33.1623L26.665 33.7256ZM25.4404 34.761L25.8783 35.66L25.8783 35.66L25.4404 34.761ZM23.6731 34.1394C23.1311 34.1394 22.6857 34.0466 22.3176 33.8851L21.5141 35.7166C22.1748 36.0065 22.9009 36.1394 23.6731 36.1394V34.1394ZM22.3198 33.8861C21.9472 33.7216 21.6835 33.5091 21.4954 33.2589L19.897 34.4611C20.3129 35.0141 20.8623 35.4288 21.5119 35.7157L22.3198 33.8861ZM21.5009 33.2664C21.3265 33.03 21.2245 32.7525 21.2071 32.4016L19.2096 32.5008C19.2452 33.2186 19.4685 33.8802 19.8915 34.4537L21.5009 33.2664ZM20.2083 33.4512H21.4628V31.4512H20.2083V33.4512ZM20.4661 32.5317C20.5082 33.0529 20.6938 33.5354 21.0331 33.9426L22.5696 32.6623C22.5106 32.5916 22.4706 32.5066 22.4596 32.3706L20.4661 32.5317ZM21.0375 33.9479C21.3545 34.323 21.7557 34.5953 22.2099 34.7779L22.9559 32.9222C22.7662 32.846 22.6464 32.7532 22.5651 32.657L21.0375 33.9479ZM22.2099 34.7779C22.6647 34.9607 23.1501 35.0442 23.6532 35.0442V33.0442C23.373 33.0442 23.145 32.9982 22.9559 32.9222L22.2099 34.7779ZM23.6532 35.0442C24.2079 35.0442 24.7403 34.9473 25.2292 34.7268L24.407 32.9036C24.2188 32.9885 23.9747 33.0442 23.6532 33.0442V35.0442ZM25.2292 34.7268C25.7112 34.5094 26.1242 34.1892 26.431 33.7555L24.7982 32.6005C24.72 32.7111 24.602 32.8157 24.407 32.9036L25.2292 34.7268ZM26.431 33.7555C26.7521 33.3015 26.9033 32.781 26.9033 32.2322H24.9033C24.9033 32.4002 24.8621 32.5102 24.7982 32.6005L26.431 33.7555ZM26.9033 32.2322C26.9033 31.6837 26.7647 31.1598 26.4626 30.6958L24.7866 31.7872C24.8561 31.894 24.9033 32.0305 24.9033 32.2322H26.9033ZM26.4654 30.7003C26.1609 30.2272 25.7286 29.884 25.2213 29.6538L24.395 31.4751C24.6046 31.5702 24.7165 31.6784 24.7837 31.7827L26.4654 30.7003ZM25.2213 29.6538C24.699 29.4168 24.1113 29.3205 23.4939 29.3205V31.3205C23.912 31.3205 24.2004 31.3869 24.395 31.4751L25.2213 29.6538ZM23.4939 29.3205H22.6775V31.3205H23.4939V29.3205ZM23.6775 30.3205V29.2253H21.6775V30.3205H23.6775ZM22.6775 30.2253H23.4939V28.2253H22.6775V30.2253ZM23.4939 30.2253C24.0192 30.2253 24.5268 30.1303 24.9907 29.9084L24.1278 28.1042C23.981 28.1744 23.7784 28.2253 23.4939 28.2253V30.2253ZM24.9869 29.9102C25.4495 29.6914 25.838 29.3671 26.1195 28.934L24.4426 27.844C24.379 27.942 24.2863 28.0292 24.1316 28.1024L24.9869 29.9102ZM26.1147 28.9413C26.4124 28.492 26.5449 27.9825 26.5449 27.4531H24.5449C24.5449 27.6406 24.5016 27.755 24.4474 27.8367L26.1147 28.9413ZM26.5449 27.4531C26.5449 26.9566 26.4336 26.4731 26.1744 26.0392L24.4574 27.0649C24.5036 27.1421 24.5449 27.2593 24.5449 27.4531H26.5449ZM26.1744 26.0392C25.9204 25.6141 25.5611 25.2881 25.1244 25.0646L24.2131 26.8449C24.334 26.9067 24.4061 26.979 24.4574 27.0649L26.1744 26.0392ZM25.1288 25.0668C24.6844 24.8366 24.1951 24.7406 23.693 24.7406V26.7406C23.9411 26.7406 24.1022 26.7874 24.2087 26.8426L25.1288 25.0668ZM23.693 24.7406C23.2153 24.7406 22.7527 24.8292 22.3142 25.0111L23.0806 26.8585C23.2661 26.7815 23.4672 26.7406 23.693 26.7406V24.7406ZM22.3192 25.0091C21.8658 25.1944 21.4722 25.4762 21.163 25.8588L22.7185 27.116C22.8009 27.014 22.9118 26.9275 23.0757 26.8605L22.3192 25.0091ZM21.1673 25.8535C20.8223 26.2745 20.6493 26.7739 20.6233 27.3046L22.6209 27.4025C22.6281 27.2562 22.6675 27.1782 22.7142 27.1212L21.1673 25.8535ZM21.6221 26.3536H20.4274V28.3536H21.6221V26.3536ZM21.4267 27.3908C21.4395 27.0466 21.5382 26.7785 21.7095 26.5508L20.111 25.3487C19.6783 25.9241 19.4551 26.5919 19.4281 27.3163L21.4267 27.3908ZM21.7118 26.5476C21.908 26.2847 22.1681 26.0719 22.5149 25.9115L21.6752 24.0963C21.0463 24.3872 20.5166 24.805 20.1087 25.3518L21.7118 26.5476ZM22.5126 25.9126C22.8617 25.7521 23.257 25.6654 23.7129 25.6654V23.6654C22.9941 23.6654 22.3107 23.8043 21.6776 24.0952L22.5126 25.9126ZM23.7129 25.6654C24.2079 25.6654 24.5713 25.765 24.8431 25.9189L25.8285 24.1785C25.1976 23.8213 24.4791 23.6654 23.7129 23.6654V25.6654ZM24.848 25.9216C25.1558 26.0936 25.3674 26.3047 25.5127 26.5536L27.2398 25.545C26.9006 24.9642 26.4186 24.5082 25.8236 24.1757L24.848 25.9216ZM25.5127 26.5536C25.6655 26.8151 25.7397 27.0891 25.7397 27.3934H27.7397C27.7397 26.7353 27.5716 26.1131 27.2398 25.545L25.5127 26.5536ZM25.7397 27.3934C25.7397 27.7828 25.641 28.055 25.4851 28.264L27.0882 29.4598C27.5363 28.8591 27.7397 28.1522 27.7397 27.3934H25.7397ZM25.4819 28.2683C25.3201 28.4876 25.1 28.6483 24.7768 28.7463L25.3572 30.6602C26.0628 30.4463 26.6558 30.0461 27.0914 29.4556L25.4819 28.2683ZM24.067 29.7033V29.7829H26.067V29.7033H24.067ZM24.9043 30.7696C25.3451 30.8423 25.6162 31.0115 25.8019 31.2382L27.3488 29.9704C26.8111 29.3143 26.0766 28.9359 25.2298 28.7962L24.9043 30.7696ZM25.8043 31.241C25.9977 31.4752 26.118 31.7832 26.118 32.2322H28.118C28.118 31.3868 27.8766 30.6095 27.3465 29.9676L25.8043 31.241ZM26.118 32.2322C26.118 32.5926 26.0236 32.8921 25.8397 33.1609L27.4903 34.2903C27.9104 33.6763 28.118 32.9802 28.118 32.2322H26.118ZM25.8388 33.1623C25.6464 33.4443 25.3776 33.6793 25.0024 33.8621L25.8783 35.66C26.5386 35.3384 27.0862 34.883 27.4912 34.2889L25.8388 33.1623ZM25.0024 33.8621C24.6398 34.0387 24.2041 34.1394 23.6731 34.1394V36.1394C24.463 36.1394 25.2054 35.9879 25.8783 35.66L25.0024 33.8621ZM35.1478 33.168L34.4406 33.8751L35.1478 34.5823L35.8549 33.8751L35.1478 33.168ZM29.5324 27.5527L28.8253 26.8456L28.1182 27.5527L28.8253 28.2598L29.5324 27.5527ZM30.2891 26.796L30.9962 26.0889L30.2891 25.3818L29.582 26.0889L30.2891 26.796ZM35.9044 32.4114L36.6115 33.1185L37.3186 32.4114L36.6115 31.7043L35.9044 32.4114ZM30.2891 33.168L29.582 33.8751L30.2891 34.5823L30.9962 33.8751L30.2891 33.168ZM29.5324 32.4114L28.8253 31.7043L28.1182 32.4114L28.8253 33.1185L29.5324 32.4114ZM35.1478 26.796L35.8549 26.0889L35.1478 25.3818L34.4406 26.0889L35.1478 26.796ZM35.9044 27.5527L36.6115 28.2598L37.3186 27.5527L36.6115 26.8456L35.9044 27.5527ZM35.8549 32.4609L30.2395 26.8456L28.8253 28.2598L34.4406 33.8751L35.8549 32.4609ZM30.2395 28.2598L30.9962 27.5031L29.582 26.0889L28.8253 26.8456L30.2395 28.2598ZM29.582 27.5031L35.1973 33.1185L36.6115 31.7043L30.9962 26.0889L29.582 27.5031ZM35.1973 31.7043L34.4406 32.4609L35.8549 33.8751L36.6115 33.1185L35.1973 31.7043ZM30.9962 32.4609L30.2395 31.7043L28.8253 33.1185L29.582 33.8751L30.9962 32.4609ZM30.2395 33.1185L35.8549 27.5031L34.4406 26.0889L28.8253 31.7043L30.2395 33.1185ZM34.4406 27.5031L35.1973 28.2598L36.6115 26.8456L35.8549 26.0889L34.4406 27.5031ZM35.1973 26.8456L29.582 32.4609L30.9962 33.8751L36.6115 28.2598L35.1973 26.8456ZM38.3947 35H37.3947V36H38.3947V35ZM38.3947 34.1039L37.6564 33.4295L37.3947 33.7159V34.1039H38.3947ZM41.76 30.4201L41.0223 29.7449L41.0217 29.7456L41.76 30.4201ZM42.7357 29.295L43.5158 29.9207L43.5189 29.9168L42.7357 29.295ZM43.3032 28.389L42.3885 27.9849L42.3863 27.9899L43.3032 28.389ZM43.2335 26.562L42.3933 27.1044L42.3982 27.1119L43.2335 26.562ZM42.5366 25.9547L42.9716 25.0543L42.9716 25.0543L42.5366 25.9547ZM40.5154 25.9846L40.9985 26.8602L41.0019 26.8583L40.5154 25.9846ZM39.8434 26.6566L38.9678 26.1735L38.9636 26.1813L39.8434 26.6566ZM39.6094 27.6722V28.6722H40.6094V27.6722H39.6094ZM38.4346 27.6722H37.4346V28.6722H38.4346V27.6722ZM38.8478 26.0991L39.7014 26.62L39.7014 26.62L38.8478 26.0991ZM39.9728 25.0437L39.5061 24.1593L39.5035 24.1607L39.9728 25.0437ZM43.1688 25.0437L43.6485 24.1663L43.6485 24.1663L43.1688 25.0437ZM44.254 26.0642L43.4012 26.5865L44.254 26.0642ZM44.4432 28.5931L43.5083 28.2382L43.5065 28.243L44.4432 28.5931ZM43.7463 29.7829L42.9492 29.179L42.9485 29.18L43.7463 29.7829ZM42.3773 31.3759L43.1077 32.0589L43.1091 32.0574L42.3773 31.3759ZM40.0873 33.8252L39.3569 33.1422L39.0873 33.4305V33.8252H40.0873ZM40.0873 33.9048H39.0873V34.9048H40.0873V33.9048ZM44.8265 33.9048H45.8265V32.9048H44.8265V33.9048ZM44.8265 35V36H45.8265V35H44.8265ZM39.3947 35V34.1039H37.3947V35H39.3947ZM39.1331 34.7784L42.4983 31.0946L41.0217 29.7456L37.6564 33.4295L39.1331 34.7784ZM42.4976 31.0953C42.9015 30.654 43.2422 30.2618 43.5158 29.9207L41.9556 28.6694C41.7181 28.9655 41.4083 29.3233 41.0223 29.7449L42.4976 31.0953ZM43.5189 29.9168C43.8116 29.548 44.0532 29.1715 44.2201 28.7881L42.3863 27.9899C42.3076 28.1708 42.1708 28.3982 41.9525 28.6733L43.5189 29.9168ZM44.2179 28.7932C44.4002 28.3805 44.4924 27.9441 44.4924 27.493H42.4924C42.4924 27.6657 42.4584 27.8267 42.3885 27.9849L44.2179 28.7932ZM44.4924 27.493C44.4924 26.9676 44.3635 26.46 44.0688 26.0122L42.3982 27.1119C42.4487 27.1885 42.4924 27.3014 42.4924 27.493H44.4924ZM44.0736 26.0197C43.7996 25.5952 43.4235 25.2726 42.9716 25.0543L42.1015 26.8551C42.2404 26.9222 42.3289 27.0046 42.3934 27.1044L44.0736 26.0197ZM42.9716 25.0543C42.5247 24.8384 42.0413 24.7406 41.5409 24.7406V26.7406C41.7773 26.7406 41.9577 26.7856 42.1015 26.8551L42.9716 25.0543ZM41.5409 24.7406C41.0084 24.7406 40.4935 24.8522 40.029 25.1109L41.0019 26.8583C41.1215 26.7917 41.2902 26.7406 41.5409 26.7406V24.7406ZM40.0324 25.109C39.5784 25.3595 39.2183 25.7196 38.9678 26.1735L40.719 27.1397C40.7871 27.0162 40.875 26.9283 40.9985 26.8602L40.0324 25.109ZM38.9636 26.1813C38.7154 26.6407 38.6094 27.1483 38.6094 27.6722H40.6094C40.6094 27.4194 40.6594 27.2501 40.7232 27.1319L38.9636 26.1813ZM39.6094 26.6722H38.4346V28.6722H39.6094V26.6722ZM39.4346 27.6722C39.4346 27.2342 39.5336 26.8949 39.7014 26.62L37.9942 25.5781C37.611 26.206 37.4346 26.9154 37.4346 27.6722H39.4346ZM39.7014 26.62C39.8819 26.3242 40.123 26.0963 40.4421 25.9267L39.5035 24.1607C38.8734 24.4955 38.3646 24.9712 37.9942 25.5781L39.7014 26.62ZM40.4396 25.9281C40.7597 25.7591 41.1329 25.6654 41.5808 25.6654V23.6654C40.8405 23.6654 40.1417 23.8238 39.5061 24.1593L40.4396 25.9281ZM41.5808 25.6654C42.0336 25.6654 42.3939 25.7597 42.6891 25.9211L43.6485 24.1663C43.0211 23.8232 42.3227 23.6654 41.5808 23.6654V25.6654ZM42.6891 25.9211C43.0047 26.0937 43.2346 26.3144 43.4012 26.5865L45.1068 25.542C44.749 24.9578 44.2555 24.4982 43.6485 24.1663L42.6891 25.9211ZM43.4012 26.5865C43.5628 26.8502 43.6473 27.1443 43.6473 27.493H45.6473C45.6473 26.7929 45.4697 26.1345 45.1068 25.542L43.4012 26.5865ZM43.6473 27.493C43.6473 27.744 43.6023 27.9906 43.5083 28.2382L45.3781 28.948C45.5562 28.4788 45.6473 27.992 45.6473 27.493H43.6473ZM43.5065 28.243C43.4192 28.4764 43.2463 28.7868 42.9492 29.179L44.5433 30.3868C44.91 29.9028 45.2016 29.4201 45.3799 28.9433L43.5065 28.243ZM42.9485 29.18C42.6487 29.5766 42.2178 30.0798 41.6454 30.6944L43.1091 32.0574C43.705 31.4175 44.1867 30.8587 44.5441 30.3858L42.9485 29.18ZM41.6468 30.693L39.3569 33.1422L40.8178 34.5081L43.1077 32.0589L41.6468 30.693ZM39.0873 33.8252V33.9048H41.0873V33.8252H39.0873ZM40.0873 34.9048H44.8265V32.9048H40.0873V34.9048ZM43.8265 33.9048V35H45.8265V33.9048H43.8265ZM44.8265 34H38.3947V36H44.8265V34Z" fill="#2F5764" mask="url(#path-7-outside-1_84_1326)"/>
<defs>
<linearGradient id="paint0_linear_84_1326" x1="3.72513" y1="32.3054" x2="33.5154" y2="49.1976" gradientUnits="userSpaceOnUse">
<stop stop-color="#4A4A4A"/>
<stop offset="1" stop-color="#303030"/>
</linearGradient>
</defs>
</svg>
