<svg width="64" height="64" viewBox="0 0 64 64" fill="none" xmlns="http://www.w3.org/2000/svg">
<rect width="35.8551" height="35.8551" rx="4.37833" transform="matrix(0.866025 0.5 -0.866025 0.5 31.8887 19)" fill="url(#paint0_linear_2122_5528)"/>
<rect width="26.8913" height="4.48189" transform="matrix(0.866025 0.5 0 1 4.71875 39.1685)" fill="url(#paint1_linear_2122_5528)"/>
<rect width="26.8913" height="4.48189" transform="matrix(0.866025 -0.5 0 1 35.7695 52.6143)" fill="url(#paint2_linear_2122_5528)"/>
<path d="M3.11133 36.9275C3.11133 37.8026 3.72572 38.5949 4.71907 39.1684V43.6503C3.72572 43.0768 3.11133 42.2845 3.11133 41.4094V36.9275Z" fill="url(#paint3_linear_2122_5528)"/>
<path d="M28.0059 52.6143C30.1495 53.8519 33.6251 53.8519 35.7687 52.6143V57.0961C33.6251 58.3338 30.1495 58.3338 28.0059 57.0961V52.6143Z" fill="url(#paint4_linear_2122_5528)"/>
<path d="M60.6663 36.9275C60.6663 37.8026 60.0519 38.5949 59.0586 39.1684V43.6503C60.0519 43.0768 60.6663 42.2845 60.6663 41.4094V36.9275Z" fill="url(#paint5_linear_2122_5528)"/>
<g clip-path="url(#clip0_2122_5528)">
<rect width="35.8992" height="35.8992" rx="4.44179" transform="matrix(0.866025 0.5 -0.866025 0.5 31.9102 19)" fill="url(#paint6_linear_2122_5528)"/>
<rect width="11.5594" height="11.5594" transform="matrix(0.866025 0.5 -0.866025 0.5 31.9102 19)" fill="black" fill-opacity="0.1"/>
<rect width="11.5594" height="11.5594" transform="matrix(0.866025 0.5 -0.866025 0.5 21.3711 25.085)" fill="black" fill-opacity="0.1"/>
<rect width="11.5594" height="11.5594" transform="matrix(0.866025 0.5 -0.866025 0.5 21.3711 37.2549)" fill="black" fill-opacity="0.1"/>
<rect width="11.5594" height="11.5594" transform="matrix(0.866025 0.5 -0.866025 0.5 42.4492 25.085)" fill="black" fill-opacity="0.1"/>
<rect width="11.5594" height="11.5594" transform="matrix(0.866025 0.5 -0.866025 0.5 42.4492 37.2549)" fill="black" fill-opacity="0.1"/>
<rect width="11.5594" height="11.5594" transform="matrix(0.866025 0.5 -0.866025 0.5 52.9883 31.1699)" fill="black" fill-opacity="0.1"/>
<rect width="11.5594" height="11.5594" transform="matrix(0.866025 0.5 -0.866025 0.5 10.832 31.1699)" fill="black" fill-opacity="0.1"/>
<rect width="11.5594" height="11.5594" transform="matrix(0.866025 0.5 -0.866025 0.5 31.9102 43.3398)" fill="black" fill-opacity="0.1"/>
<rect width="11.5594" height="11.5594" transform="matrix(0.866025 0.5 -0.866025 0.5 31.9102 31.1699)" fill="black" fill-opacity="0.1"/>
</g>
<rect width="36.3283" height="36.3283" rx="4.43612" transform="matrix(0.866025 0.5 -0.866025 0.5 31.4785 18.4607)" fill="url(#paint7_linear_2122_5528)"/>
<rect width="27.2462" height="4.54104" transform="matrix(0.866025 0.5 0 1 3.94922 38.8958)" fill="url(#paint8_linear_2122_5528)"/>
<rect width="27.2462" height="4.54104" transform="matrix(0.866025 -0.5 0 1 35.4102 52.5186)" fill="url(#paint9_linear_2122_5528)"/>
<path d="M2.32031 36.625C2.32031 37.5117 2.94282 38.3144 3.94927 38.8955V43.4366C2.94282 42.8555 2.32031 42.0527 2.32031 41.166V36.625Z" fill="url(#paint10_linear_2122_5528)"/>
<path d="M27.5449 52.5186C29.7169 53.7725 33.2383 53.7725 35.4102 52.5186V57.0596C33.2383 58.3136 29.7169 58.3136 27.5449 57.0596V52.5186Z" fill="url(#paint11_linear_2122_5528)"/>
<path d="M60.6348 36.625C60.6348 37.5117 60.0123 38.3144 59.0059 38.8955V43.4366C60.0123 42.8555 60.6348 42.0527 60.6348 41.166V36.625Z" fill="url(#paint12_linear_2122_5528)"/>
<g clip-path="url(#clip1_2122_5528)">
<rect width="11.712" height="11.712" transform="matrix(0.866025 0.5 -0.866025 0.5 31.5 18.4607)" fill="white" fill-opacity="0.2"/>
<rect width="11.712" height="11.712" transform="matrix(0.866025 0.5 -0.866025 0.5 20.8223 24.626)" fill="white" fill-opacity="0.2"/>
<rect width="11.712" height="11.712" transform="matrix(0.866025 0.5 -0.866025 0.5 20.8223 36.9565)" fill="white" fill-opacity="0.2"/>
<rect width="11.712" height="11.712" transform="matrix(0.866025 0.5 -0.866025 0.5 42.1777 24.626)" fill="white" fill-opacity="0.2"/>
<rect width="11.712" height="11.712" transform="matrix(0.866025 0.5 -0.866025 0.5 42.1777 36.9565)" fill="white" fill-opacity="0.2"/>
<rect width="11.712" height="11.712" transform="matrix(0.866025 0.5 -0.866025 0.5 52.8574 30.7913)" fill="white" fill-opacity="0.2"/>
<rect width="11.712" height="11.712" transform="matrix(0.866025 0.5 -0.866025 0.5 10.1426 30.7913)" fill="white" fill-opacity="0.2"/>
<rect width="11.712" height="11.712" transform="matrix(0.866025 0.5 -0.866025 0.5 31.5 43.1221)" fill="white" fill-opacity="0.2"/>
<rect width="11.712" height="11.712" transform="matrix(0.866025 0.5 -0.866025 0.5 31.5 30.7913)" fill="white" fill-opacity="0.2"/>
</g>
<mask id="path-33-outside-1_2122_5528" maskUnits="userSpaceOnUse" x="11" y="19" width="43" height="20" fill="black">
<rect fill="white" x="11" y="19" width="43" height="20"/>
<path d="M19.9197 20.2299V37H16.3741V23.5954H16.2758L12.4354 26.0028V22.8585L16.587 20.2299H19.9197ZM34.1984 34.6745L24.4132 24.9056L26.5586 22.7356L36.352 32.5291L34.1984 34.6745ZM26.5586 34.6745L24.4132 32.5291L34.1984 22.7356L36.352 24.9056L26.5586 34.6745ZM46.0144 37.2293C45.1519 37.2238 44.3194 37.0792 43.5169 36.7953C42.7199 36.5114 42.0048 36.0501 41.3716 35.4114C40.7383 34.7727 40.2361 33.9266 39.8649 32.873C39.4991 31.8194 39.3162 30.5256 39.3162 28.9916C39.3217 27.5832 39.4827 26.3249 39.7994 25.2167C40.1214 24.1031 40.58 23.1587 41.175 22.3835C41.7755 21.6083 42.4934 21.0188 43.3286 20.6148C44.1638 20.2054 45.1001 20.0007 46.1373 20.0007C47.2564 20.0007 48.2444 20.219 49.1015 20.6557C49.9586 21.087 50.6464 21.6739 51.165 22.4163C51.6891 23.1587 52.0057 23.9912 52.1149 24.9138H48.6184C48.4819 24.3297 48.1953 23.8711 47.7586 23.5381C47.3219 23.2051 46.7814 23.0386 46.1373 23.0386C45.0455 23.0386 44.2157 23.5135 43.648 24.4634C43.0857 25.4133 42.7991 26.7043 42.7882 28.3366H42.9028C43.1539 27.8398 43.4924 27.4167 43.9182 27.0673C44.3494 26.7125 44.838 26.4423 45.3839 26.2567C45.9353 26.0656 46.5167 25.9701 47.1281 25.9701C48.1216 25.9701 49.006 26.2048 49.7811 26.6743C50.5563 27.1383 51.1677 27.777 51.6154 28.5904C52.063 29.4038 52.2868 30.3346 52.2868 31.3827C52.2868 32.5182 52.0221 33.5281 51.4925 34.4124C50.9685 35.2968 50.2342 35.9901 49.2898 36.4923C48.3509 36.9891 47.2591 37.2347 46.0144 37.2293ZM45.9981 34.4452C46.544 34.4452 47.0325 34.3142 47.4638 34.0521C47.8951 33.7901 48.2335 33.4353 48.4792 32.9876C48.7248 32.54 48.8477 32.0378 48.8477 31.4809C48.8477 30.9241 48.7248 30.4246 48.4792 29.9825C48.239 29.5403 47.906 29.1882 47.4802 28.9261C47.0544 28.6641 46.5685 28.5331 46.0226 28.5331C45.6132 28.5331 45.2338 28.6095 44.8844 28.7624C44.5405 28.9152 44.2375 29.1281 43.9755 29.4011C43.7189 29.674 43.5169 29.9906 43.3695 30.3509C43.2222 30.7058 43.1485 31.0852 43.1485 31.4891C43.1485 32.0296 43.2713 32.5236 43.5169 32.9713C43.7681 33.4189 44.1065 33.7765 44.5323 34.044C44.9636 34.3114 45.4522 34.4452 45.9981 34.4452Z"/>
</mask>
<path d="M19.9197 20.2299V37H16.3741V23.5954H16.2758L12.4354 26.0028V22.8585L16.587 20.2299H19.9197ZM34.1984 34.6745L24.4132 24.9056L26.5586 22.7356L36.352 32.5291L34.1984 34.6745ZM26.5586 34.6745L24.4132 32.5291L34.1984 22.7356L36.352 24.9056L26.5586 34.6745ZM46.0144 37.2293C45.1519 37.2238 44.3194 37.0792 43.5169 36.7953C42.7199 36.5114 42.0048 36.0501 41.3716 35.4114C40.7383 34.7727 40.2361 33.9266 39.8649 32.873C39.4991 31.8194 39.3162 30.5256 39.3162 28.9916C39.3217 27.5832 39.4827 26.3249 39.7994 25.2167C40.1214 24.1031 40.58 23.1587 41.175 22.3835C41.7755 21.6083 42.4934 21.0188 43.3286 20.6148C44.1638 20.2054 45.1001 20.0007 46.1373 20.0007C47.2564 20.0007 48.2444 20.219 49.1015 20.6557C49.9586 21.087 50.6464 21.6739 51.165 22.4163C51.6891 23.1587 52.0057 23.9912 52.1149 24.9138H48.6184C48.4819 24.3297 48.1953 23.8711 47.7586 23.5381C47.3219 23.2051 46.7814 23.0386 46.1373 23.0386C45.0455 23.0386 44.2157 23.5135 43.648 24.4634C43.0857 25.4133 42.7991 26.7043 42.7882 28.3366H42.9028C43.1539 27.8398 43.4924 27.4167 43.9182 27.0673C44.3494 26.7125 44.838 26.4423 45.3839 26.2567C45.9353 26.0656 46.5167 25.9701 47.1281 25.9701C48.1216 25.9701 49.006 26.2048 49.7811 26.6743C50.5563 27.1383 51.1677 27.777 51.6154 28.5904C52.063 29.4038 52.2868 30.3346 52.2868 31.3827C52.2868 32.5182 52.0221 33.5281 51.4925 34.4124C50.9685 35.2968 50.2342 35.9901 49.2898 36.4923C48.3509 36.9891 47.2591 37.2347 46.0144 37.2293ZM45.9981 34.4452C46.544 34.4452 47.0325 34.3142 47.4638 34.0521C47.8951 33.7901 48.2335 33.4353 48.4792 32.9876C48.7248 32.54 48.8477 32.0378 48.8477 31.4809C48.8477 30.9241 48.7248 30.4246 48.4792 29.9825C48.239 29.5403 47.906 29.1882 47.4802 28.9261C47.0544 28.6641 46.5685 28.5331 46.0226 28.5331C45.6132 28.5331 45.2338 28.6095 44.8844 28.7624C44.5405 28.9152 44.2375 29.1281 43.9755 29.4011C43.7189 29.674 43.5169 29.9906 43.3695 30.3509C43.2222 30.7058 43.1485 31.0852 43.1485 31.4891C43.1485 32.0296 43.2713 32.5236 43.5169 32.9713C43.7681 33.4189 44.1065 33.7765 44.5323 34.044C44.9636 34.3114 45.4522 34.4452 45.9981 34.4452Z" fill="white"/>
<path d="M19.9197 20.2299H20.7433V19.4064H19.9197V20.2299ZM19.9197 37V37.8235H20.7433V37H19.9197ZM16.3741 37H15.5506V37.8235H16.3741V37ZM16.3741 23.5954H17.1976V22.7719H16.3741V23.5954ZM16.2758 23.5954V22.7719H16.0391L15.8384 22.8977L16.2758 23.5954ZM12.4354 26.0028H11.6119V27.491L12.8728 26.7006L12.4354 26.0028ZM12.4354 22.8585L11.9949 22.1627L11.6119 22.4051V22.8585H12.4354ZM16.587 20.2299V19.4064H16.3482L16.1465 19.5341L16.587 20.2299ZM19.9197 20.2299H19.0962V37H19.9197H20.7433V20.2299H19.9197ZM19.9197 37V36.1765H16.3741V37V37.8235H19.9197V37ZM16.3741 37H17.1976V23.5954H16.3741H15.5506V37H16.3741ZM16.3741 23.5954V22.7719H16.2758V23.5954V24.4189H16.3741V23.5954ZM16.2758 23.5954L15.8384 22.8977L11.998 25.3051L12.4354 26.0028L12.8728 26.7006L16.7132 24.2932L16.2758 23.5954ZM12.4354 26.0028H13.259V22.8585H12.4354H11.6119V26.0028H12.4354ZM12.4354 22.8585L12.876 23.5543L17.0275 20.9257L16.587 20.2299L16.1465 19.5341L11.9949 22.1627L12.4354 22.8585ZM16.587 20.2299V21.0535H19.9197V20.2299V19.4064H16.587V20.2299ZM34.1984 34.6745L33.6166 35.2573L34.1978 35.8375L34.7796 35.2579L34.1984 34.6745ZM24.4132 24.9056L23.8275 24.3266L23.2513 24.9094L23.8313 25.4884L24.4132 24.9056ZM26.5586 22.7356L27.1409 22.1533L26.5552 21.5677L25.9729 22.1566L26.5586 22.7356ZM36.352 32.5291L36.9332 33.1125L37.5178 32.5302L36.9343 31.9468L36.352 32.5291ZM26.5586 34.6745L25.9762 35.2568L26.5578 35.8384L27.1401 35.2575L26.5586 34.6745ZM24.4132 32.5291L23.8306 31.947L23.2488 32.5293L23.8308 33.1114L24.4132 32.5291ZM34.1984 22.7356L34.783 22.1555L34.2004 21.5685L33.6159 22.1535L34.1984 22.7356ZM36.352 24.9056L36.9336 25.4886L37.5152 24.9085L36.9365 24.3255L36.352 24.9056ZM34.1984 34.6745L34.7803 34.0917L24.995 24.3228L24.4132 24.9056L23.8313 25.4884L33.6166 35.2573L34.1984 34.6745ZM24.4132 24.9056L24.9988 25.4846L27.1442 23.3146L26.5586 22.7356L25.9729 22.1566L23.8275 24.3266L24.4132 24.9056ZM26.5586 22.7356L25.9762 23.3179L35.7697 33.1114L36.352 32.5291L36.9343 31.9468L27.1409 22.1533L26.5586 22.7356ZM36.352 32.5291L35.7708 31.9456L33.6172 34.091L34.1984 34.6745L34.7796 35.2579L36.9332 33.1125L36.352 32.5291ZM26.5586 34.6745L27.1409 34.0921L24.9955 31.9468L24.4132 32.5291L23.8308 33.1114L25.9762 35.2568L26.5586 34.6745ZM24.4132 32.5291L24.9957 33.1112L34.781 23.3177L34.1984 22.7356L33.6159 22.1535L23.8306 31.947L24.4132 32.5291ZM34.1984 22.7356L33.6139 23.3157L35.7675 25.4857L36.352 24.9056L36.9365 24.3255L34.783 22.1555L34.1984 22.7356ZM36.352 24.9056L35.7704 24.3225L25.977 34.0914L26.5586 34.6745L27.1401 35.2575L36.9336 25.4886L36.352 24.9056ZM46.0144 37.2293L46.0092 38.0528L46.0108 38.0528L46.0144 37.2293ZM43.5169 36.7953L43.2406 37.5711L43.2423 37.5717L43.5169 36.7953ZM41.3716 35.4114L40.7867 35.9912L40.7867 35.9912L41.3716 35.4114ZM39.8649 32.873L39.0869 33.1431L39.0881 33.1467L39.8649 32.873ZM39.3162 28.9916L38.4927 28.9885V28.9916H39.3162ZM39.7994 25.2167L39.0082 24.9879L39.0075 24.9905L39.7994 25.2167ZM41.175 22.3835L40.524 21.8792L40.5218 21.8821L41.175 22.3835ZM43.3286 20.6148L43.6872 21.3562L43.6911 21.3543L43.3286 20.6148ZM49.1015 20.6557L48.7276 21.3895L48.7313 21.3914L49.1015 20.6557ZM51.165 22.4163L50.4899 22.8879L50.4922 22.8912L51.165 22.4163ZM52.1149 24.9138V25.7373H53.0416L52.9327 24.817L52.1149 24.9138ZM48.6184 24.9138L47.8164 25.1011L47.9651 25.7373H48.6184V24.9138ZM43.648 24.4634L42.9411 24.0409L42.9393 24.0439L43.648 24.4634ZM42.7882 28.3366L41.9647 28.3311L41.9591 29.1601H42.7882V28.3366ZM42.9028 28.3366V29.1601H43.4093L43.6378 28.7081L42.9028 28.3366ZM43.9182 27.0673L44.4406 27.704L44.4414 27.7033L43.9182 27.0673ZM45.3839 26.2567L45.649 27.0364L45.6536 27.0348L45.3839 26.2567ZM49.7811 26.6743L49.3545 27.3787L49.3582 27.3809L49.7811 26.6743ZM51.4925 34.4124L50.786 33.9894L50.7841 33.9926L51.4925 34.4124ZM49.2898 36.4923L49.675 37.2202L49.6765 37.2194L49.2898 36.4923ZM47.4638 34.0521L47.8914 34.7559L47.8914 34.7559L47.4638 34.0521ZM48.4792 32.9876L49.2011 33.3838L49.2011 33.3838L48.4792 32.9876ZM48.4792 29.9825L47.7555 30.3756L47.7593 30.3824L48.4792 29.9825ZM47.4802 28.9261L47.9118 28.2248L47.9118 28.2248L47.4802 28.9261ZM44.8844 28.7624L44.5543 28.0079L44.55 28.0098L44.8844 28.7624ZM43.9755 29.4011L43.3814 28.8307L43.3755 28.837L43.9755 29.4011ZM43.3695 30.3509L44.1301 30.6669L44.1318 30.6628L43.3695 30.3509ZM43.5169 32.9713L42.7949 33.3675L42.7987 33.3742L43.5169 32.9713ZM44.5323 34.044L44.0942 34.7413L44.0982 34.7438L44.5323 34.044ZM46.0144 37.2293L46.0196 36.4058C45.2477 36.4009 44.5063 36.2717 43.7916 36.0189L43.5169 36.7953L43.2423 37.5717C44.1325 37.8866 45.0561 38.0468 46.0092 38.0528L46.0144 37.2293ZM43.5169 36.7953L43.7933 36.0195C43.1197 35.7796 42.5084 35.3884 41.9564 34.8316L41.3716 35.4114L40.7867 35.9912C41.5012 36.7119 42.3201 37.2432 43.2406 37.5711L43.5169 36.7953ZM41.3716 35.4114L41.9564 34.8316C41.4272 34.2978 40.9819 33.5651 40.6416 32.5993L39.8649 32.873L39.0881 33.1467C39.4903 34.2881 40.0495 35.2476 40.7867 35.9912L41.3716 35.4114ZM39.8649 32.873L40.6429 32.6029C40.3162 31.662 40.1398 30.4657 40.1398 28.9916H39.3162H38.4927C38.4927 30.5855 38.682 31.9768 39.0869 33.1431L39.8649 32.873ZM39.3162 28.9916L40.1398 28.9948C40.145 27.6458 40.2993 26.4646 40.5912 25.443L39.7994 25.2167L39.0075 24.9905C38.6662 26.1852 38.4984 27.5206 38.4927 28.9885L39.3162 28.9916ZM39.7994 25.2167L40.5905 25.4455C40.8892 24.4126 41.3063 23.565 41.8283 22.885L41.175 22.3835L40.5218 21.8821C39.8537 22.7524 39.3537 23.7936 39.0083 24.9879L39.7994 25.2167ZM41.175 22.3835L41.8261 22.8878C42.3532 22.2073 42.9729 21.7016 43.6872 21.3562L43.3286 20.6148L42.97 19.8734C42.0138 20.3359 41.1978 21.0093 40.524 21.8792L41.175 22.3835ZM43.3286 20.6148L43.6911 21.3543C44.4011 21.0062 45.2111 20.8242 46.1373 20.8242V20.0007V19.1771C44.989 19.1771 43.9266 19.4045 42.9661 19.8753L43.3286 20.6148ZM46.1373 20.0007V20.8242C47.1476 20.8242 48.0039 21.0207 48.7276 21.3895L49.1015 20.6557L49.4754 19.922C48.485 19.4173 47.3651 19.1771 46.1373 19.1771V20.0007ZM49.1015 20.6557L48.7313 21.3914C49.4739 21.765 50.0541 22.2641 50.4899 22.8879L51.165 22.4163L51.8401 21.9447C51.2387 21.0836 50.4432 20.409 49.4717 19.9201L49.1015 20.6557ZM51.165 22.4163L50.4922 22.8912C50.9354 23.519 51.2036 24.221 51.297 25.0106L52.1149 24.9138L52.9327 24.817C52.8078 23.7614 52.4427 22.7984 51.8378 21.9414L51.165 22.4163ZM52.1149 24.9138V24.0902H48.6184V24.9138V25.7373H52.1149V24.9138ZM48.6184 24.9138L49.4203 24.7264C49.2446 23.9744 48.8611 23.3432 48.2579 22.8832L47.7586 23.5381L47.2592 24.193C47.5295 24.399 47.7192 24.6849 47.8164 25.1011L48.6184 24.9138ZM47.7586 23.5381L48.2579 22.8832C47.654 22.4227 46.9295 22.2151 46.1373 22.2151V23.0386V23.8621C46.6334 23.8621 46.9898 23.9875 47.2592 24.193L47.7586 23.5381ZM46.1373 23.0386V22.2151C44.7509 22.2151 43.655 22.8465 42.9411 24.0409L43.648 24.4634L44.3548 24.8859C44.7764 24.1806 45.34 23.8621 46.1373 23.8621V23.0386ZM43.648 24.4634L42.9393 24.0439C42.2755 25.1653 41.9761 26.6181 41.9647 28.3311L42.7882 28.3366L43.6117 28.3421C43.6221 26.7906 43.8959 25.6613 44.3566 24.8829L43.648 24.4634ZM42.7882 28.3366V29.1601H42.9028V28.3366V27.513H42.7882V28.3366ZM42.9028 28.3366L43.6378 28.7081C43.8378 28.3124 44.1042 27.9799 44.4406 27.704L43.9182 27.0673L43.3958 26.4307C42.8805 26.8535 42.47 27.3672 42.1678 27.965L42.9028 28.3366ZM43.9182 27.0673L44.4414 27.7033C44.7935 27.4136 45.194 27.1911 45.649 27.0364L45.3839 26.2567L45.1188 25.477C44.482 25.6935 43.9054 26.0114 43.3949 26.4314L43.9182 27.0673ZM45.3839 26.2567L45.6536 27.0348C46.1141 26.8752 46.604 26.7936 47.1281 26.7936V25.9701V25.1466C46.4293 25.1466 45.7564 25.256 45.1143 25.4786L45.3839 26.2567ZM47.1281 25.9701V26.7936C47.9862 26.7936 48.7202 26.9946 49.3545 27.3787L49.7811 26.6743L50.2078 25.9699C49.2917 25.4151 48.2571 25.1466 47.1281 25.1466V25.9701ZM49.7811 26.6743L49.3582 27.3809C50.0046 27.7679 50.5145 28.2982 50.8939 28.9875L51.6154 28.5904L52.3369 28.1933C51.8209 27.2559 51.108 26.5088 50.2041 25.9677L49.7811 26.6743ZM51.6154 28.5904L50.8939 28.9875C51.2663 29.6642 51.4633 30.4552 51.4633 31.3827H52.2868H53.1104C53.1104 30.2139 52.8597 29.1434 52.3369 28.1933L51.6154 28.5904ZM52.2868 31.3827H51.4633C51.4633 32.3847 51.2313 33.2456 50.786 33.9894L51.4925 34.4124L52.1991 34.8355C52.8128 33.8105 53.1104 32.6516 53.1104 31.3827H52.2868ZM51.4925 34.4124L50.7841 33.9926C50.3403 34.7415 49.7198 35.3309 48.9032 35.7652L49.2898 36.4923L49.6765 37.2194C50.7487 36.6493 51.5967 35.8521 52.201 34.8323L51.4925 34.4124ZM49.2898 36.4923L48.9047 35.7644C48.1045 36.1877 47.1505 36.4107 46.018 36.4058L46.0144 37.2293L46.0108 38.0528C47.3676 38.0588 48.5972 37.7904 49.675 37.2202L49.2898 36.4923ZM45.9981 34.4452V35.2687C46.682 35.2687 47.3208 35.1027 47.8914 34.7559L47.4638 34.0521L47.0362 33.3483C46.7443 33.5257 46.4059 33.6217 45.9981 33.6217V34.4452ZM47.4638 34.0521L47.8914 34.7559C48.4476 34.418 48.8869 33.9565 49.2011 33.3838L48.4792 32.9876L47.7572 32.5914C47.5801 32.9141 47.3425 33.1622 47.0362 33.3483L47.4638 34.0521ZM48.4792 32.9876L49.2011 33.3838C49.5193 32.804 49.6712 32.1634 49.6712 31.4809H48.8477H48.0241C48.0241 31.9121 47.9303 32.276 47.7572 32.5914L48.4792 32.9876ZM48.8477 31.4809H49.6712C49.6712 30.7986 49.5194 30.1591 49.1991 29.5825L48.4792 29.9825L47.7593 30.3824C47.9303 30.6902 48.0241 31.0496 48.0241 31.4809H48.8477ZM48.4792 29.9825L49.2028 29.5894C48.8944 29.0215 48.461 28.5628 47.9118 28.2248L47.4802 28.9261L47.0486 29.6275C47.3509 29.8136 47.5836 30.059 47.7555 30.3755L48.4792 29.9825ZM47.4802 28.9261L47.9118 28.2248C47.3444 27.8756 46.7064 27.7096 46.0226 27.7096V28.5331V29.3566C46.4306 29.3566 46.7644 29.4526 47.0486 29.6275L47.4802 28.9261ZM46.0226 28.5331V27.7096C45.5081 27.7096 45.0153 27.8062 44.5543 28.0079L44.8844 28.7624L45.2145 29.5168C45.4523 29.4128 45.7183 29.3566 46.0226 29.3566V28.5331ZM44.8844 28.7624L44.55 28.0098C44.108 28.2063 43.717 28.4812 43.3814 28.8307L43.9755 29.4011L44.5696 29.9714C44.7581 29.775 44.973 29.6242 45.2189 29.5149L44.8844 28.7624ZM43.9755 29.4011L43.3755 28.837C43.0471 29.1863 42.7914 29.5892 42.6073 30.0391L43.3695 30.3509L44.1318 30.6628C44.2425 30.392 44.3907 30.1618 44.5755 29.9651L43.9755 29.4011ZM43.3695 30.3509L42.609 30.035C42.4179 30.4951 42.3249 30.9824 42.3249 31.4891H43.1485H43.972C43.972 31.1879 44.0264 30.9165 44.1301 30.6668L43.3695 30.3509ZM43.1485 31.4891H42.3249C42.3249 32.1597 42.4788 32.7913 42.795 33.3675L43.5169 32.9713L44.2389 32.5751C44.0638 32.256 43.972 31.8994 43.972 31.4891H43.1485ZM43.5169 32.9713L42.7987 33.3742C43.1157 33.9392 43.5494 34.399 44.0942 34.7413L44.5323 34.044L44.9704 33.3466C44.6636 33.1539 44.4204 32.8986 44.2352 32.5683L43.5169 32.9713ZM44.5323 34.044L44.0982 34.7438C44.6697 35.0983 45.3108 35.2687 45.9981 35.2687V34.4452V33.6217C45.5935 33.6217 45.2574 33.5246 44.9664 33.3441L44.5323 34.044Z" fill="#2B3F46" mask="url(#path-33-outside-1_2122_5528)"/>
<defs>
<linearGradient id="paint0_linear_2122_5528" x1="35.8411" y1="35.864" x2="-1.88188" y2="2.08424" gradientUnits="userSpaceOnUse">
<stop stop-color="#FFD5EF"/>
<stop offset="1" stop-color="#EFBDFD"/>
</linearGradient>
<linearGradient id="paint1_linear_2122_5528" x1="26.8809" y1="4.483" x2="25.174" y2="-4.68761" gradientUnits="userSpaceOnUse">
<stop stop-color="#F95457"/>
<stop offset="1" stop-color="#FDBDCB"/>
</linearGradient>
<linearGradient id="paint2_linear_2122_5528" x1="26.8809" y1="4.483" x2="25.174" y2="-4.68761" gradientUnits="userSpaceOnUse">
<stop stop-color="#F95457"/>
<stop offset="1" stop-color="#FDBDCB"/>
</linearGradient>
<linearGradient id="paint3_linear_2122_5528" x1="4.71844" y1="43.652" x2="1.80424" y2="43.0279" gradientUnits="userSpaceOnUse">
<stop stop-color="#F95457"/>
<stop offset="1" stop-color="#FDBDCB"/>
</linearGradient>
<linearGradient id="paint4_linear_2122_5528" x1="35.7657" y1="58.0257" x2="30.2143" y2="50.8928" gradientUnits="userSpaceOnUse">
<stop stop-color="#F95457"/>
<stop offset="1" stop-color="#FDBDCB"/>
</linearGradient>
<linearGradient id="paint5_linear_2122_5528" x1="60.6657" y1="43.652" x2="57.7515" y2="43.0279" gradientUnits="userSpaceOnUse">
<stop stop-color="#F95457"/>
<stop offset="1" stop-color="#FDBDCB"/>
</linearGradient>
<linearGradient id="paint6_linear_2122_5528" x1="-1.09962e-05" y1="-0.0328651" x2="30.641" y2="-4.05264" gradientUnits="userSpaceOnUse">
<stop stop-color="#D74446"/>
<stop offset="1" stop-color="#E165B8"/>
</linearGradient>
<linearGradient id="paint7_linear_2122_5528" x1="-1.11276e-05" y1="-0.033258" x2="31.0073" y2="-4.10108" gradientUnits="userSpaceOnUse">
<stop stop-color="#D74446"/>
<stop offset="1" stop-color="#E165B8"/>
</linearGradient>
<linearGradient id="paint8_linear_2122_5528" x1="-8.34573e-06" y1="-0.00415724" x2="14.606" y2="-11.5011" gradientUnits="userSpaceOnUse">
<stop stop-color="#D1369D"/>
<stop offset="1" stop-color="#B31E20"/>
</linearGradient>
<linearGradient id="paint9_linear_2122_5528" x1="-8.34573e-06" y1="-0.00415724" x2="14.606" y2="-11.5011" gradientUnits="userSpaceOnUse">
<stop stop-color="#D74446"/>
<stop offset="1" stop-color="#E165B8"/>
</linearGradient>
<linearGradient id="paint10_linear_2122_5528" x1="2.32031" y1="36.6188" x2="3.73321" y2="36.5744" gradientUnits="userSpaceOnUse">
<stop stop-color="#D74446"/>
<stop offset="1" stop-color="#D1369D"/>
</linearGradient>
<linearGradient id="paint11_linear_2122_5528" x1="27.5449" y1="52.5135" x2="34.14" y2="51.2721" gradientUnits="userSpaceOnUse">
<stop stop-color="#B31E20"/>
<stop offset="1" stop-color="#D74446"/>
</linearGradient>
<linearGradient id="paint12_linear_2122_5528" x1="59.0059" y1="36.6188" x2="60.4188" y2="36.5744" gradientUnits="userSpaceOnUse">
<stop stop-color="#E165B8"/>
<stop offset="1" stop-color="#D74446"/>
</linearGradient>
<clipPath id="clip0_2122_5528">
<rect width="35.8992" height="35.8992" rx="4.44179" transform="matrix(0.866025 0.5 -0.866025 0.5 31.9102 19)" fill="white"/>
</clipPath>
<clipPath id="clip1_2122_5528">
<rect width="36.3731" height="36.3731" rx="4.50041" transform="matrix(0.866025 0.5 -0.866025 0.5 31.5 18.4607)" fill="white"/>
</clipPath>
</defs>
</svg>
