<svg width="64" height="64" viewBox="0 0 64 64" fill="none" xmlns="http://www.w3.org/2000/svg">
<path d="M4.4006 33.9298C3.80774 33.582 3.47546 33.1136 3.47547 32.6257L3.47547 30.5016C3.47547 29.9566 3.88975 29.439 4.60873 29.0857L30.1348 16.5442C31.3579 15.9433 33.1609 15.9544 34.3614 16.5703L60.0608 29.7535C60.7487 30.1064 61.1422 30.6122 61.1422 31.1434V32.5436C61.1422 33.0309 60.8108 33.4987 60.2194 33.8464L34.5631 48.9278C33.3018 49.6692 31.2326 49.6699 29.9699 48.9292L4.4006 33.9298Z" fill="url(#paint0_linear_84_1336)"/>
<rect width="34.7831" height="34.7831" rx="2.62954" transform="matrix(0.866044 -0.499967 0.866044 0.499967 2.14404 30.3906)" fill="white"/>
<rect width="10.8697" height="10.8697" transform="matrix(0.866044 -0.499967 0.866044 0.499967 12.2639 30.3906)" fill="#D9D9D9"/>
<rect width="10.8697" height="10.8697" transform="matrix(0.866044 -0.499967 0.866044 0.499967 22.8542 24.2769)" fill="#D9D9D9"/>
<rect width="10.8697" height="10.8697" transform="matrix(0.866044 -0.499967 0.866044 0.499967 22.8542 36.5044)" fill="#D9D9D9"/>
<rect width="10.8697" height="10.8697" transform="matrix(0.866044 -0.499967 0.866044 0.499967 33.4446 30.3906)" fill="#D9D9D9"/>
<mask id="path-7-outside-1_84_1336" maskUnits="userSpaceOnUse" x="18" y="23" width="28" height="14" fill="black">
<rect fill="white" x="18" y="23" width="28" height="14"/>
<path d="M22.9199 35.1394C22.2627 35.1394 21.677 35.0266 21.1626 34.8009C20.6515 34.5752 20.2449 34.2616 19.9429 33.86C19.6442 33.4551 19.4816 32.9855 19.4551 32.4512H20.7096C20.7361 32.7797 20.849 33.0635 21.0481 33.3025C21.2472 33.5381 21.5077 33.7206 21.8296 33.85C22.1516 33.9795 22.5083 34.0442 22.8999 34.0442C23.338 34.0442 23.7263 33.9679 24.0648 33.8152C24.4033 33.6625 24.6689 33.4501 24.8613 33.178C25.0538 32.9059 25.1501 32.5906 25.1501 32.2322C25.1501 31.8571 25.0571 31.5269 24.8713 31.2415C24.6854 30.9528 24.4133 30.7271 24.0549 30.5645C23.6965 30.4019 23.2584 30.3205 22.7406 30.3205H21.9242V29.2253H22.7406C23.1455 29.2253 23.5006 29.1523 23.806 29.0063C24.1146 28.8603 24.3552 28.6545 24.5278 28.389C24.7037 28.1235 24.7916 27.8116 24.7916 27.4531C24.7916 27.108 24.7153 26.8076 24.5626 26.5521C24.41 26.2965 24.1943 26.0974 23.9155 25.9547C23.64 25.812 23.3148 25.7406 22.9398 25.7406C22.588 25.7406 22.2561 25.8054 21.9441 25.9348C21.6355 26.0609 21.3833 26.2451 21.1875 26.4874C20.9917 26.7263 20.8855 27.0151 20.8689 27.3536H19.6741C19.694 26.8192 19.855 26.3513 20.157 25.9497C20.459 25.5448 20.8539 25.2296 21.3418 25.0039C21.833 24.7782 22.3723 24.6654 22.9597 24.6654C23.5903 24.6654 24.1312 24.7931 24.5826 25.0487C25.0339 25.3009 25.3807 25.6344 25.623 26.0493C25.8653 26.4641 25.9864 26.9122 25.9864 27.3934C25.9864 27.9675 25.8354 28.4571 25.5334 28.8619C25.2347 29.2668 24.8282 29.5473 24.3137 29.7033V29.7829C24.9576 29.8891 25.4604 30.1629 25.8221 30.6043C26.1839 31.0424 26.3647 31.585 26.3647 32.2322C26.3647 32.7864 26.2137 33.2842 25.9117 33.7256C25.613 34.1637 25.2048 34.5088 24.6871 34.761C24.1694 35.0133 23.5803 35.1394 22.9199 35.1394ZM34.3945 33.168L28.7791 27.5527L29.5358 26.796L35.1512 32.4114L34.3945 33.168ZM29.5358 33.168L28.7791 32.4114L34.3945 26.796L35.1512 27.5527L29.5358 33.168ZM37.4025 32.9092V31.8936L41.8829 24.8048H42.6196V26.3779H42.1218L38.7367 31.7343V31.814H44.7702V32.9092H37.4025ZM42.2015 35V32.6005V32.1276V24.8048H43.3763V35H42.2015Z"/>
</mask>
<path d="M22.9199 35.1394C22.2627 35.1394 21.677 35.0266 21.1626 34.8009C20.6515 34.5752 20.2449 34.2616 19.9429 33.86C19.6442 33.4551 19.4816 32.9855 19.4551 32.4512H20.7096C20.7361 32.7797 20.849 33.0635 21.0481 33.3025C21.2472 33.5381 21.5077 33.7206 21.8296 33.85C22.1516 33.9795 22.5083 34.0442 22.8999 34.0442C23.338 34.0442 23.7263 33.9679 24.0648 33.8152C24.4033 33.6625 24.6689 33.4501 24.8613 33.178C25.0538 32.9059 25.1501 32.5906 25.1501 32.2322C25.1501 31.8571 25.0571 31.5269 24.8713 31.2415C24.6854 30.9528 24.4133 30.7271 24.0549 30.5645C23.6965 30.4019 23.2584 30.3205 22.7406 30.3205H21.9242V29.2253H22.7406C23.1455 29.2253 23.5006 29.1523 23.806 29.0063C24.1146 28.8603 24.3552 28.6545 24.5278 28.389C24.7037 28.1235 24.7916 27.8116 24.7916 27.4531C24.7916 27.108 24.7153 26.8076 24.5626 26.5521C24.41 26.2965 24.1943 26.0974 23.9155 25.9547C23.64 25.812 23.3148 25.7406 22.9398 25.7406C22.588 25.7406 22.2561 25.8054 21.9441 25.9348C21.6355 26.0609 21.3833 26.2451 21.1875 26.4874C20.9917 26.7263 20.8855 27.0151 20.8689 27.3536H19.6741C19.694 26.8192 19.855 26.3513 20.157 25.9497C20.459 25.5448 20.8539 25.2296 21.3418 25.0039C21.833 24.7782 22.3723 24.6654 22.9597 24.6654C23.5903 24.6654 24.1312 24.7931 24.5826 25.0487C25.0339 25.3009 25.3807 25.6344 25.623 26.0493C25.8653 26.4641 25.9864 26.9122 25.9864 27.3934C25.9864 27.9675 25.8354 28.4571 25.5334 28.8619C25.2347 29.2668 24.8282 29.5473 24.3137 29.7033V29.7829C24.9576 29.8891 25.4604 30.1629 25.8221 30.6043C26.1839 31.0424 26.3647 31.585 26.3647 32.2322C26.3647 32.7864 26.2137 33.2842 25.9117 33.7256C25.613 34.1637 25.2048 34.5088 24.6871 34.761C24.1694 35.0133 23.5803 35.1394 22.9199 35.1394ZM34.3945 33.168L28.7791 27.5527L29.5358 26.796L35.1512 32.4114L34.3945 33.168ZM29.5358 33.168L28.7791 32.4114L34.3945 26.796L35.1512 27.5527L29.5358 33.168ZM37.4025 32.9092V31.8936L41.8829 24.8048H42.6196V26.3779H42.1218L38.7367 31.7343V31.814H44.7702V32.9092H37.4025ZM42.2015 35V32.6005V32.1276V24.8048H43.3763V35H42.2015Z" fill="#00C1FF"/>
<path d="M21.1626 34.8009L20.7586 35.7157L20.7608 35.7166L21.1626 34.8009ZM19.9429 33.86L19.1382 34.4537L19.1437 34.4611L19.9429 33.86ZM19.4551 32.4512V31.4512H18.4041L18.4563 32.5008L19.4551 32.4512ZM20.7096 32.4512L21.7063 32.3706L21.632 31.4512H20.7096V32.4512ZM21.0481 33.3025L20.2798 33.9427L20.2843 33.9479L21.0481 33.3025ZM21.8296 33.85L21.4566 34.7779L21.4566 34.7779L21.8296 33.85ZM24.8613 33.178L24.0449 32.6005L24.0449 32.6005L24.8613 33.178ZM24.8713 31.2415L24.0304 31.7828L24.0333 31.7872L24.8713 31.2415ZM24.0549 30.5645L23.6417 31.4751L23.6417 31.4751L24.0549 30.5645ZM21.9242 30.3205H20.9242V31.3205H21.9242V30.3205ZM21.9242 29.2253V28.2253H20.9242V29.2253H21.9242ZM23.806 29.0063L23.3783 28.1024L23.3745 28.1042L23.806 29.0063ZM24.5278 28.389L23.6941 27.8367L23.6894 27.844L24.5278 28.389ZM24.5626 26.5521L25.4211 26.0392L25.4211 26.0392L24.5626 26.5521ZM23.9155 25.9547L23.4555 26.8426L23.4598 26.8449L23.9155 25.9547ZM21.9441 25.9348L22.3224 26.8605L22.3274 26.8585L21.9441 25.9348ZM21.1875 26.4874L21.961 27.1212L21.9652 27.116L21.1875 26.4874ZM20.8689 27.3536V28.3536H21.821L21.8677 27.4025L20.8689 27.3536ZM19.6741 27.3536L18.6748 27.3163L18.6361 28.3536H19.6741V27.3536ZM20.157 25.9497L20.9562 26.5508L20.9586 26.5476L20.157 25.9497ZM21.3418 25.0039L20.9243 24.0952L20.9219 24.0963L21.3418 25.0039ZM24.5826 25.0487L24.0899 25.9189L24.0947 25.9216L24.5826 25.0487ZM25.623 26.0493L24.7595 26.5536L24.7595 26.5536L25.623 26.0493ZM25.5334 28.8619L24.7318 28.264L24.7287 28.2683L25.5334 28.8619ZM24.3137 29.7033L24.0236 28.7463L23.3137 28.9615V29.7033H24.3137ZM24.3137 29.7829H23.3137V30.6315L24.151 30.7696L24.3137 29.7829ZM25.8221 30.6043L25.0487 31.2382L25.051 31.241L25.8221 30.6043ZM25.9117 33.7256L25.0864 33.1609L25.0855 33.1623L25.9117 33.7256ZM24.6871 34.761L25.1251 35.66L25.1251 35.66L24.6871 34.761ZM22.9199 34.1394C22.3778 34.1394 21.9324 34.0466 21.5643 33.8851L20.7608 35.7166C21.4216 36.0065 22.1477 36.1394 22.9199 36.1394V34.1394ZM21.5665 33.8861C21.194 33.7216 20.9302 33.5091 20.7421 33.2589L19.1437 34.4611C19.5596 35.0141 20.109 35.4288 20.7586 35.7157L21.5665 33.8861ZM20.7477 33.2664C20.5733 33.03 20.4713 32.7525 20.4538 32.4016L18.4563 32.5008C18.492 33.2186 18.7152 33.8802 19.1382 34.4537L20.7477 33.2664ZM19.4551 33.4512H20.7096V31.4512H19.4551V33.4512ZM19.7128 32.5317C19.7549 33.0529 19.9405 33.5354 20.2799 33.9426L21.8163 32.6623C21.7574 32.5916 21.7173 32.5066 21.7063 32.3706L19.7128 32.5317ZM20.2843 33.9479C20.6012 34.323 21.0025 34.5953 21.4566 34.7779L22.2027 32.9222C22.013 32.846 21.8932 32.7532 21.8119 32.657L20.2843 33.9479ZM21.4566 34.7779C21.9114 34.9607 22.3969 35.0442 22.8999 35.0442V33.0442C22.6198 33.0442 22.3917 32.9982 22.2027 32.9222L21.4566 34.7779ZM22.8999 35.0442C23.4546 35.0442 23.9871 34.9473 24.4759 34.7268L23.6537 32.9036C23.4656 32.9885 23.2214 33.0442 22.8999 33.0442V35.0442ZM24.4759 34.7268C24.9579 34.5094 25.371 34.1892 25.6778 33.7555L24.0449 32.6005C23.9667 32.7111 23.8488 32.8157 23.6537 32.9036L24.4759 34.7268ZM25.6778 33.7555C25.9988 33.3015 26.1501 32.781 26.1501 32.2322H24.1501C24.1501 32.4002 24.1088 32.5102 24.0449 32.6005L25.6778 33.7555ZM26.1501 32.2322C26.1501 31.6837 26.0114 31.1598 25.7093 30.6958L24.0333 31.7872C24.1028 31.894 24.1501 32.0305 24.1501 32.2322H26.1501ZM25.7122 30.7003C25.4076 30.2272 24.9753 29.884 24.468 29.6538L23.6417 31.4751C23.8513 31.5702 23.9632 31.6784 24.0304 31.7827L25.7122 30.7003ZM24.468 29.6538C23.9458 29.4168 23.358 29.3205 22.7406 29.3205V31.3205C23.1588 31.3205 23.4472 31.3869 23.6417 31.4751L24.468 29.6538ZM22.7406 29.3205H21.9242V31.3205H22.7406V29.3205ZM22.9242 30.3205V29.2253H20.9242V30.3205H22.9242ZM21.9242 30.2253H22.7406V28.2253H21.9242V30.2253ZM22.7406 30.2253C23.2659 30.2253 23.7735 30.1303 24.2374 29.9084L23.3745 28.1042C23.2278 28.1744 23.0252 28.2253 22.7406 28.2253V30.2253ZM24.2336 29.9102C24.6962 29.6914 25.0847 29.3671 25.3662 28.934L23.6894 27.844C23.6257 27.942 23.533 28.0292 23.3783 28.1024L24.2336 29.9102ZM25.3615 28.9413C25.6591 28.492 25.7916 27.9825 25.7916 27.4531H23.7916C23.7916 27.6406 23.7483 27.755 23.6942 27.8367L25.3615 28.9413ZM25.7916 27.4531C25.7916 26.9566 25.6803 26.4731 25.4211 26.0392L23.7042 27.0649C23.7503 27.1421 23.7916 27.2593 23.7916 27.4531H25.7916ZM25.4211 26.0392C25.1671 25.6141 24.8078 25.2881 24.3712 25.0646L23.4598 26.8449C23.5807 26.9067 23.6528 26.979 23.7042 27.0649L25.4211 26.0392ZM24.3755 25.0668C23.9311 24.8366 23.4418 24.7406 22.9398 24.7406V26.7406C23.1878 26.7406 23.3489 26.7874 23.4555 26.8426L24.3755 25.0668ZM22.9398 24.7406C22.462 24.7406 21.9994 24.8292 21.5609 25.0111L22.3274 26.8585C22.5128 26.7815 22.7139 26.7406 22.9398 26.7406V24.7406ZM21.5659 25.0091C21.1125 25.1944 20.7189 25.4762 20.4097 25.8588L21.9652 27.116C22.0476 27.014 22.1585 26.9275 22.3224 26.8605L21.5659 25.0091ZM20.414 25.8535C20.0691 26.2745 19.8961 26.7739 19.8701 27.3046L21.8677 27.4025C21.8748 27.2562 21.9143 27.1782 21.9609 27.1212L20.414 25.8535ZM20.8689 26.3536H19.6741V28.3536H20.8689V26.3536ZM20.6734 27.3908C20.6862 27.0466 20.7849 26.7785 20.9562 26.5508L19.3578 25.3487C18.925 25.9241 18.7018 26.5919 18.6748 27.3163L20.6734 27.3908ZM20.9586 26.5476C21.1547 26.2847 21.4148 26.0719 21.7616 25.9115L20.9219 24.0963C20.2931 24.3872 19.7633 24.805 19.3554 25.3518L20.9586 26.5476ZM21.7593 25.9126C22.1085 25.7521 22.5037 25.6654 22.9597 25.6654V23.6654C22.2408 23.6654 21.5575 23.8043 20.9243 24.0952L21.7593 25.9126ZM22.9597 25.6654C23.4546 25.6654 23.8181 25.765 24.0899 25.9189L25.0753 24.1785C24.4444 23.8213 23.7259 23.6654 22.9597 23.6654V25.6654ZM24.0947 25.9216C24.4025 26.0936 24.6141 26.3047 24.7595 26.5536L26.4865 25.545C26.1473 24.9642 25.6653 24.5082 25.0704 24.1757L24.0947 25.9216ZM24.7595 26.5536C24.9122 26.8151 24.9864 27.0891 24.9864 27.3934H26.9864C26.9864 26.7353 26.8183 26.1131 26.4865 25.545L24.7595 26.5536ZM24.9864 27.3934C24.9864 27.7828 24.8877 28.055 24.7318 28.264L26.335 29.4598C26.7831 28.8591 26.9864 28.1522 26.9864 27.3934H24.9864ZM24.7287 28.2683C24.5669 28.4876 24.3468 28.6483 24.0236 28.7463L24.6039 30.6602C25.3095 30.4463 25.9025 30.0461 26.3381 29.4556L24.7287 28.2683ZM23.3137 29.7033V29.7829H25.3137V29.7033H23.3137ZM24.151 30.7696C24.5918 30.8423 24.8629 31.0115 25.0487 31.2382L26.5956 29.9704C26.0578 29.3143 25.3234 28.9359 24.4765 28.7962L24.151 30.7696ZM25.051 31.241C25.2444 31.4752 25.3647 31.7832 25.3647 32.2322H27.3647C27.3647 31.3868 27.1233 30.6095 26.5932 29.9676L25.051 31.241ZM25.3647 32.2322C25.3647 32.5926 25.2703 32.8921 25.0864 33.1609L26.737 34.2903C27.1571 33.6763 27.3647 32.9802 27.3647 32.2322H25.3647ZM25.0855 33.1623C24.8932 33.4443 24.6243 33.6793 24.2491 33.8621L25.1251 35.66C25.7853 35.3384 26.3329 34.883 26.738 34.2889L25.0855 33.1623ZM24.2491 33.8621C23.8866 34.0387 23.4508 34.1394 22.9199 34.1394V36.1394C23.7097 36.1394 24.4522 35.9879 25.1251 35.66L24.2491 33.8621ZM34.3945 33.168L33.6874 33.8751L34.3945 34.5823L35.1016 33.8751L34.3945 33.168ZM28.7791 27.5527L28.072 26.8456L27.3649 27.5527L28.072 28.2598L28.7791 27.5527ZM29.5358 26.796L30.2429 26.0889L29.5358 25.3818L28.8287 26.0889L29.5358 26.796ZM35.1512 32.4114L35.8583 33.1185L36.5654 32.4114L35.8583 31.7043L35.1512 32.4114ZM29.5358 33.168L28.8287 33.8751L29.5358 34.5823L30.2429 33.8751L29.5358 33.168ZM28.7791 32.4114L28.072 31.7043L27.3649 32.4114L28.072 33.1185L28.7791 32.4114ZM34.3945 26.796L35.1016 26.0889L34.3945 25.3818L33.6874 26.0889L34.3945 26.796ZM35.1512 27.5527L35.8583 28.2598L36.5654 27.5527L35.8583 26.8456L35.1512 27.5527ZM35.1016 32.4609L29.4862 26.8456L28.072 28.2598L33.6874 33.8751L35.1016 32.4609ZM29.4862 28.2598L30.2429 27.5031L28.8287 26.0889L28.072 26.8456L29.4862 28.2598ZM28.8287 27.5031L34.4441 33.1185L35.8583 31.7043L30.2429 26.0889L28.8287 27.5031ZM34.4441 31.7043L33.6874 32.4609L35.1016 33.8751L35.8583 33.1185L34.4441 31.7043ZM30.2429 32.4609L29.4862 31.7043L28.072 33.1185L28.8287 33.8751L30.2429 32.4609ZM29.4862 33.1185L35.1016 27.5031L33.6874 26.0889L28.072 31.7043L29.4862 33.1185ZM33.6874 27.5031L34.4441 28.2598L35.8583 26.8456L35.1016 26.0889L33.6874 27.5031ZM34.4441 26.8456L28.8287 32.4609L30.2429 33.8751L35.8583 28.2598L34.4441 26.8456ZM37.4025 32.9092H36.4025V33.9092H37.4025V32.9092ZM37.4025 31.8936L36.5572 31.3594L36.4025 31.6041V31.8936H37.4025ZM41.8829 24.8048V23.8048H41.3319L41.0375 24.2705L41.8829 24.8048ZM42.6196 24.8048H43.6196V23.8048H42.6196V24.8048ZM42.6196 26.3779V27.3779H43.6196V26.3779H42.6196ZM42.1218 26.3779V25.3779H41.5708L41.2765 25.8436L42.1218 26.3779ZM38.7367 31.7343L37.8913 31.2001L37.7367 31.4448V31.7343H38.7367ZM38.7367 31.814H37.7367V32.814H38.7367V31.814ZM44.7702 31.814H45.7702V30.814H44.7702V31.814ZM44.7702 32.9092V33.9092H45.7702V32.9092H44.7702ZM42.2015 35H41.2015V36H42.2015V35ZM42.2015 24.8048V23.8048H41.2015V24.8048H42.2015ZM43.3763 24.8048H44.3763V23.8048H43.3763V24.8048ZM43.3763 35V36H44.3763V35H43.3763ZM38.4025 32.9092V31.8936H36.4025V32.9092H38.4025ZM38.2479 32.4279L42.7282 25.339L41.0375 24.2705L36.5572 31.3594L38.2479 32.4279ZM41.8829 25.8048H42.6196V23.8048H41.8829V25.8048ZM41.6196 24.8048V26.3779H43.6196V24.8048H41.6196ZM42.6196 25.3779H42.1218V27.3779H42.6196V25.3779ZM41.2765 25.8436L37.8913 31.2001L39.582 32.2686L42.9672 26.9121L41.2765 25.8436ZM37.7367 31.7343V31.814H39.7367V31.7343H37.7367ZM38.7367 32.814H44.7702V30.814H38.7367V32.814ZM43.7702 31.814V32.9092H45.7702V31.814H43.7702ZM44.7702 31.9092H37.4025V33.9092H44.7702V31.9092ZM43.2015 35V32.6005H41.2015V35H43.2015ZM43.2015 32.6005V32.1276H41.2015V32.6005H43.2015ZM43.2015 32.1276V24.8048H41.2015V32.1276H43.2015ZM42.2015 25.8048H43.3763V23.8048H42.2015V25.8048ZM42.3763 24.8048V35H44.3763V24.8048H42.3763ZM43.3763 34H42.2015V36H43.3763V34Z" fill="#2F5764" mask="url(#path-7-outside-1_84_1336)"/>
<defs>
<linearGradient id="paint0_linear_84_1336" x1="3.72513" y1="32.3054" x2="33.5154" y2="49.1976" gradientUnits="userSpaceOnUse">
<stop stop-color="#4A4A4A"/>
<stop offset="1" stop-color="#303030"/>
</linearGradient>
</defs>
</svg>
