<svg width="64" height="64" viewBox="0 0 64 64" fill="none" xmlns="http://www.w3.org/2000/svg">
<rect width="35.8551" height="35.8551" rx="4.37833" transform="matrix(0.866025 0.5 -0.866025 0.5 31.8887 19)" fill="url(#paint0_linear_2025_1534)"/>
<rect width="26.8913" height="4.48189" transform="matrix(0.866025 0.5 0 1 4.71851 39.1685)" fill="url(#paint1_linear_2025_1534)"/>
<rect width="26.8913" height="4.48189" transform="matrix(0.866025 -0.5 0 1 35.7698 52.6143)" fill="url(#paint2_linear_2025_1534)"/>
<path d="M3.11084 36.9277C3.11084 37.8029 3.72524 38.5952 4.71858 39.1687V43.6506C3.72524 43.0771 3.11084 42.2848 3.11084 41.4096V36.9277Z" fill="url(#paint3_linear_2025_1534)"/>
<path d="M28.0071 52.6143C30.1507 53.8519 33.6263 53.8519 35.7699 52.6143V57.0961C33.6263 58.3338 30.1507 58.3338 28.0071 57.0961V52.6143Z" fill="url(#paint4_linear_2025_1534)"/>
<path d="M60.6663 36.9277C60.6663 37.8029 60.0519 38.5952 59.0586 39.1687V43.6506C60.0519 43.0771 60.6663 42.2848 60.6663 41.4096V36.9277Z" fill="url(#paint5_linear_2025_1534)"/>
<g clip-path="url(#clip0_2025_1534)">
<rect width="35.8992" height="35.8992" rx="4.44179" transform="matrix(0.866025 0.5 -0.866025 0.5 31.9104 19)" fill="url(#paint6_linear_2025_1534)"/>
<rect width="11.5594" height="11.5594" transform="matrix(0.866025 0.5 -0.866025 0.5 31.9104 19)" fill="black" fill-opacity="0.1"/>
<rect width="11.5594" height="11.5594" transform="matrix(0.866025 0.5 -0.866025 0.5 21.3711 25.085)" fill="black" fill-opacity="0.1"/>
<rect width="11.5594" height="11.5594" transform="matrix(0.866025 0.5 -0.866025 0.5 21.3711 37.2549)" fill="black" fill-opacity="0.1"/>
<rect width="11.5594" height="11.5594" transform="matrix(0.866025 0.5 -0.866025 0.5 42.45 25.085)" fill="black" fill-opacity="0.1"/>
<rect width="11.5594" height="11.5594" transform="matrix(0.866025 0.5 -0.866025 0.5 42.45 37.2549)" fill="black" fill-opacity="0.1"/>
<rect width="11.5594" height="11.5594" transform="matrix(0.866025 0.5 -0.866025 0.5 52.9893 31.1699)" fill="black" fill-opacity="0.1"/>
<rect width="11.5594" height="11.5594" transform="matrix(0.866025 0.5 -0.866025 0.5 10.8315 31.1699)" fill="black" fill-opacity="0.1"/>
<rect width="11.5594" height="11.5594" transform="matrix(0.866025 0.5 -0.866025 0.5 31.9104 43.3398)" fill="black" fill-opacity="0.1"/>
<rect width="11.5594" height="11.5594" transform="matrix(0.866025 0.5 -0.866025 0.5 31.9104 31.1699)" fill="black" fill-opacity="0.1"/>
</g>
<mask id="path-17-outside-1_2025_1534" maskUnits="userSpaceOnUse" x="10" y="19" width="45" height="20" fill="black">
<rect fill="white" x="10" y="19" width="45" height="20"/>
<path d="M16.9586 37.2293C15.8012 37.2293 14.7695 37.0164 13.8633 36.5906C12.9626 36.1648 12.2474 35.5779 11.7179 34.83C11.1884 34.0822 10.9127 33.2251 10.8909 32.2589H14.33C14.3683 32.9085 14.6412 33.4353 15.1489 33.8392C15.6566 34.2432 16.2598 34.4452 16.9586 34.4452C17.5154 34.4452 18.0067 34.3224 18.4325 34.0767C18.8637 33.8256 19.1995 33.4789 19.4397 33.0368C19.6853 32.5891 19.8082 32.076 19.8082 31.4973C19.8082 30.9078 19.6826 30.3891 19.4315 29.9415C19.1858 29.4939 18.8446 29.1445 18.4079 28.8934C17.9712 28.6423 17.4717 28.514 16.9094 28.5085C16.4181 28.5085 15.9405 28.6095 15.4764 28.8115C15.0179 29.0135 14.6603 29.2892 14.4037 29.6385L11.2512 29.0735L12.0455 20.2299H22.2975V23.1287H14.9687L14.5348 27.3294H14.633C14.9278 26.9145 15.3727 26.5706 15.9677 26.2976C16.5628 26.0247 17.2288 25.8882 17.9657 25.8882C18.9757 25.8882 19.8764 26.1257 20.6679 26.6006C21.4595 27.0755 22.0846 27.7279 22.5431 28.5577C23.0017 29.382 23.2282 30.3318 23.2228 31.4073C23.2282 32.5373 22.9662 33.5417 22.4367 34.4206C21.9126 35.2941 21.1784 35.9819 20.234 36.4841C19.295 36.9809 18.2032 37.2293 16.9586 37.2293ZM35.9886 34.6745L26.2034 24.9056L28.3488 22.7356L38.1422 32.5291L35.9886 34.6745ZM28.3488 34.6745L26.2034 32.5291L35.9886 22.7356L38.1422 24.9056L28.3488 34.6745ZM47.8046 37.2293C46.9421 37.2238 46.1096 37.0792 45.3072 36.7953C44.5101 36.5114 43.795 36.0501 43.1618 35.4114C42.5285 34.7727 42.0263 33.9266 41.6551 32.873C41.2893 31.8194 41.1065 30.5256 41.1065 28.9916C41.1119 27.5832 41.273 26.3249 41.5896 25.2167C41.9117 24.1031 42.3702 23.1587 42.9652 22.3835C43.5657 21.6083 44.2836 21.0188 45.1188 20.6148C45.954 20.2054 46.8903 20.0007 47.9275 20.0007C49.0466 20.0007 50.0347 20.219 50.8917 20.6557C51.7488 21.087 52.4366 21.6739 52.9552 22.4163C53.4793 23.1587 53.7959 23.9912 53.9051 24.9138H50.4086C50.2721 24.3297 49.9855 23.8711 49.5488 23.5381C49.1121 23.2051 48.5716 23.0386 47.9275 23.0386C46.8357 23.0386 46.0059 23.5135 45.4382 24.4634C44.8759 25.4133 44.5893 26.7043 44.5784 28.3366H44.693C44.9441 27.8398 45.2826 27.4167 45.7084 27.0673C46.1397 26.7125 46.6282 26.4423 47.1741 26.2567C47.7255 26.0656 48.3069 25.9701 48.9183 25.9701C49.9118 25.9701 50.7962 26.2048 51.5714 26.6743C52.3465 27.1383 52.9579 27.777 53.4056 28.5904C53.8532 29.4038 54.077 30.3346 54.077 31.3827C54.077 32.5182 53.8123 33.5281 53.2828 34.4124C52.7587 35.2968 52.0245 35.9901 51.08 36.4923C50.1411 36.9891 49.0493 37.2347 47.8046 37.2293ZM47.7883 34.4452C48.3342 34.4452 48.8228 34.3142 49.254 34.0521C49.6853 33.7901 50.0237 33.4353 50.2694 32.9876C50.515 32.54 50.6379 32.0378 50.6379 31.4809C50.6379 30.9241 50.515 30.4246 50.2694 29.9825C50.0292 29.5403 49.6962 29.1882 49.2704 28.9261C48.8446 28.6641 48.3587 28.5331 47.8128 28.5331C47.4034 28.5331 47.024 28.6095 46.6746 28.7624C46.3307 28.9152 46.0277 29.1281 45.7657 29.4011C45.5091 29.674 45.3072 29.9906 45.1598 30.3509C45.0124 30.7058 44.9387 31.0852 44.9387 31.4891C44.9387 32.0296 45.0615 32.5236 45.3072 32.9713C45.5583 33.4189 45.8967 33.7765 46.3225 34.044C46.7538 34.3114 47.2424 34.4452 47.7883 34.4452Z"/>
</mask>
<path d="M16.9586 37.2293C15.8012 37.2293 14.7695 37.0164 13.8633 36.5906C12.9626 36.1648 12.2474 35.5779 11.7179 34.83C11.1884 34.0822 10.9127 33.2251 10.8909 32.2589H14.33C14.3683 32.9085 14.6412 33.4353 15.1489 33.8392C15.6566 34.2432 16.2598 34.4452 16.9586 34.4452C17.5154 34.4452 18.0067 34.3224 18.4325 34.0767C18.8637 33.8256 19.1995 33.4789 19.4397 33.0368C19.6853 32.5891 19.8082 32.076 19.8082 31.4973C19.8082 30.9078 19.6826 30.3891 19.4315 29.9415C19.1858 29.4939 18.8446 29.1445 18.4079 28.8934C17.9712 28.6423 17.4717 28.514 16.9094 28.5085C16.4181 28.5085 15.9405 28.6095 15.4764 28.8115C15.0179 29.0135 14.6603 29.2892 14.4037 29.6385L11.2512 29.0735L12.0455 20.2299H22.2975V23.1287H14.9687L14.5348 27.3294H14.633C14.9278 26.9145 15.3727 26.5706 15.9677 26.2976C16.5628 26.0247 17.2288 25.8882 17.9657 25.8882C18.9757 25.8882 19.8764 26.1257 20.6679 26.6006C21.4595 27.0755 22.0846 27.7279 22.5431 28.5577C23.0017 29.382 23.2282 30.3318 23.2228 31.4073C23.2282 32.5373 22.9662 33.5417 22.4367 34.4206C21.9126 35.2941 21.1784 35.9819 20.234 36.4841C19.295 36.9809 18.2032 37.2293 16.9586 37.2293ZM35.9886 34.6745L26.2034 24.9056L28.3488 22.7356L38.1422 32.5291L35.9886 34.6745ZM28.3488 34.6745L26.2034 32.5291L35.9886 22.7356L38.1422 24.9056L28.3488 34.6745ZM47.8046 37.2293C46.9421 37.2238 46.1096 37.0792 45.3072 36.7953C44.5101 36.5114 43.795 36.0501 43.1618 35.4114C42.5285 34.7727 42.0263 33.9266 41.6551 32.873C41.2893 31.8194 41.1065 30.5256 41.1065 28.9916C41.1119 27.5832 41.273 26.3249 41.5896 25.2167C41.9117 24.1031 42.3702 23.1587 42.9652 22.3835C43.5657 21.6083 44.2836 21.0188 45.1188 20.6148C45.954 20.2054 46.8903 20.0007 47.9275 20.0007C49.0466 20.0007 50.0347 20.219 50.8917 20.6557C51.7488 21.087 52.4366 21.6739 52.9552 22.4163C53.4793 23.1587 53.7959 23.9912 53.9051 24.9138H50.4086C50.2721 24.3297 49.9855 23.8711 49.5488 23.5381C49.1121 23.2051 48.5716 23.0386 47.9275 23.0386C46.8357 23.0386 46.0059 23.5135 45.4382 24.4634C44.8759 25.4133 44.5893 26.7043 44.5784 28.3366H44.693C44.9441 27.8398 45.2826 27.4167 45.7084 27.0673C46.1397 26.7125 46.6282 26.4423 47.1741 26.2567C47.7255 26.0656 48.3069 25.9701 48.9183 25.9701C49.9118 25.9701 50.7962 26.2048 51.5714 26.6743C52.3465 27.1383 52.9579 27.777 53.4056 28.5904C53.8532 29.4038 54.077 30.3346 54.077 31.3827C54.077 32.5182 53.8123 33.5281 53.2828 34.4124C52.7587 35.2968 52.0245 35.9901 51.08 36.4923C50.1411 36.9891 49.0493 37.2347 47.8046 37.2293ZM47.7883 34.4452C48.3342 34.4452 48.8228 34.3142 49.254 34.0521C49.6853 33.7901 50.0237 33.4353 50.2694 32.9876C50.515 32.54 50.6379 32.0378 50.6379 31.4809C50.6379 30.9241 50.515 30.4246 50.2694 29.9825C50.0292 29.5403 49.6962 29.1882 49.2704 28.9261C48.8446 28.6641 48.3587 28.5331 47.8128 28.5331C47.4034 28.5331 47.024 28.6095 46.6746 28.7624C46.3307 28.9152 46.0277 29.1281 45.7657 29.4011C45.5091 29.674 45.3072 29.9906 45.1598 30.3509C45.0124 30.7058 44.9387 31.0852 44.9387 31.4891C44.9387 32.0296 45.0615 32.5236 45.3072 32.9713C45.5583 33.4189 45.8967 33.7765 46.3225 34.044C46.7538 34.3114 47.2424 34.4452 47.7883 34.4452Z" fill="white"/>
<path d="M13.8633 36.5906L13.5113 37.3351L13.5131 37.3359L13.8633 36.5906ZM11.7179 34.83L12.39 34.3542L12.39 34.3542L11.7179 34.83ZM10.8909 32.2589V31.4353H10.0485L10.0676 32.2775L10.8909 32.2589ZM14.33 32.2589L15.1522 32.2105L15.1066 31.4353H14.33V32.2589ZM15.1489 33.8392L15.6617 33.1948L15.6617 33.1948L15.1489 33.8392ZM18.4325 34.0767L18.844 34.79L18.8469 34.7884L18.4325 34.0767ZM19.4397 33.0368L18.7177 32.6406L18.716 32.6437L19.4397 33.0368ZM19.4315 29.9415L18.7095 30.3377L18.7132 30.3444L19.4315 29.9415ZM18.4079 28.8934L17.9974 29.6073L17.9974 29.6073L18.4079 28.8934ZM16.9094 28.5085L16.9174 27.685H16.9094V28.5085ZM15.4764 28.8115L15.1477 28.0564L15.1445 28.0578L15.4764 28.8115ZM14.4037 29.6385L14.2585 30.4491L14.7637 30.5397L15.0675 30.126L14.4037 29.6385ZM11.2512 29.0735L10.4309 28.9999L10.3635 29.7511L11.1059 29.8841L11.2512 29.0735ZM12.0455 20.2299V19.4064H11.2926L11.2252 20.1563L12.0455 20.2299ZM22.2975 20.2299H23.121V19.4064H22.2975V20.2299ZM22.2975 23.1287V23.9522H23.121V23.1287H22.2975ZM14.9687 23.1287V22.3051H14.2259L14.1496 23.044L14.9687 23.1287ZM14.5348 27.3294L13.7156 27.2447L13.6218 28.1529H14.5348V27.3294ZM14.633 27.3294V28.1529H15.0581L15.3043 27.8064L14.633 27.3294ZM15.9677 26.2976L16.3111 27.0462L16.3111 27.0462L15.9677 26.2976ZM20.6679 26.6006L21.0917 25.8944L21.0917 25.8944L20.6679 26.6006ZM22.5431 28.5577L21.8223 28.956L21.8234 28.958L22.5431 28.5577ZM23.2228 31.4073L22.3992 31.4031L22.3992 31.4112L23.2228 31.4073ZM22.4367 34.4206L21.7313 33.9956L21.7305 33.9969L22.4367 34.4206ZM20.234 36.4841L20.6191 37.2121L20.6206 37.2112L20.234 36.4841ZM16.9586 37.2293V36.4057C15.9035 36.4057 14.9943 36.2121 14.2135 35.8452L13.8633 36.5906L13.5131 37.3359C14.5447 37.8207 15.699 38.0528 16.9586 38.0528V37.2293ZM13.8633 36.5906L14.2153 35.846C13.4311 35.4753 12.8307 34.9765 12.39 34.3542L11.7179 34.83L11.0458 35.3059C11.6642 36.1793 12.494 36.8542 13.5113 37.3351L13.8633 36.5906ZM11.7179 34.83L12.39 34.3542C11.9607 33.7478 11.7325 33.0519 11.7142 32.2403L10.8909 32.2589L10.0676 32.2775C10.0929 33.3983 10.4161 34.4166 11.0458 35.3059L11.7179 34.83ZM10.8909 32.2589V33.0824H14.33V32.2589V31.4353H10.8909V32.2589ZM14.33 32.2589L13.5079 32.3072C13.5598 33.1896 13.9447 33.9335 14.6361 34.4837L15.1489 33.8392L15.6617 33.1948C15.3377 32.9371 15.1767 32.6273 15.1522 32.2105L14.33 32.2589ZM15.1489 33.8392L14.6361 34.4837C15.3011 35.0128 16.0889 35.2687 16.9586 35.2687V34.4452V33.6217C16.4307 33.6217 16.012 33.4736 15.6617 33.1948L15.1489 33.8392ZM16.9586 34.4452V35.2687C17.6403 35.2687 18.2772 35.1171 18.844 34.79L18.4325 34.0767L18.021 33.3634C17.7362 33.5277 17.3904 33.6217 16.9586 33.6217V34.4452ZM18.4325 34.0767L18.8469 34.7884C19.4096 34.4607 19.8518 34.0034 20.1633 33.4299L19.4397 33.0368L18.716 32.6437C18.5472 32.9545 18.3179 33.1905 18.0181 33.365L18.4325 34.0767ZM19.4397 33.0368L20.1616 33.433C20.4824 32.8485 20.6317 32.1958 20.6317 31.4973H19.8082H18.9846C18.9846 31.9562 18.8883 32.3298 18.7177 32.6406L19.4397 33.0368ZM19.8082 31.4973H20.6317C20.6317 30.7879 20.4796 30.1266 20.1497 29.5386L19.4315 29.9415L18.7132 30.3444C18.8856 30.6517 18.9846 31.0276 18.9846 31.4973H19.8082ZM19.4315 29.9415L20.1534 29.5453C19.8361 28.9671 19.388 28.507 18.8184 28.1795L18.4079 28.8934L17.9974 29.6073C18.3013 29.782 18.5355 30.0206 18.7095 30.3377L19.4315 29.9415ZM18.4079 28.8934L18.8184 28.1795C18.2454 27.85 17.6043 27.6917 16.9174 27.685L16.9094 28.5085L16.9014 29.332C17.3391 29.3363 17.697 29.4346 17.9974 29.6073L18.4079 28.8934ZM16.9094 28.5085V27.685C16.3016 27.685 15.7123 27.8107 15.1478 28.0564L15.4764 28.8115L15.8051 29.5666C16.1686 29.4084 16.5346 29.3321 16.9094 29.3321V28.5085ZM15.4764 28.8115L15.1445 28.0578C14.5747 28.3088 14.0945 28.6684 13.74 29.1511L14.4037 29.6385L15.0675 30.126C15.2262 29.9099 15.461 29.7182 15.8084 29.5652L15.4764 28.8115ZM14.4037 29.6385L14.549 28.8279L11.3964 28.2629L11.2512 29.0735L11.1059 29.8841L14.2585 30.4491L14.4037 29.6385ZM11.2512 29.0735L12.0714 29.1472L12.8657 20.3036L12.0455 20.2299L11.2252 20.1563L10.4309 28.9999L11.2512 29.0735ZM12.0455 20.2299V21.0535H22.2975V20.2299V19.4064H12.0455V20.2299ZM22.2975 20.2299H21.4739V23.1287H22.2975H23.121V20.2299H22.2975ZM22.2975 23.1287V22.3051H14.9687V23.1287V23.9522H22.2975V23.1287ZM14.9687 23.1287L14.1496 23.044L13.7156 27.2447L14.5348 27.3294L15.3539 27.414L15.7879 23.2133L14.9687 23.1287ZM14.5348 27.3294V28.1529H14.633V27.3294V26.5058H14.5348V27.3294ZM14.633 27.3294L15.3043 27.8064C15.4948 27.5383 15.8105 27.2758 16.3111 27.0462L15.9677 26.2976L15.6244 25.5491C14.9349 25.8654 14.3608 26.2907 13.9617 26.8524L14.633 27.3294ZM15.9677 26.2976L16.3111 27.0462C16.7856 26.8285 17.3323 26.7117 17.9657 26.7117V25.8882V25.0647C17.1252 25.0647 16.3399 25.2209 15.6244 25.5491L15.9677 26.2976ZM17.9657 25.8882V26.7117C18.8409 26.7117 19.5926 26.9158 20.2442 27.3068L20.6679 26.6006L21.0917 25.8944C20.1602 25.3356 19.1104 25.0647 17.9657 25.0647V25.8882ZM20.6679 26.6006L20.2442 27.3068C20.9079 27.705 21.432 28.2496 21.8223 28.956L22.5431 28.5577L23.2639 28.1593C22.7372 27.2062 22.0111 26.4461 21.0917 25.8944L20.6679 26.6006ZM22.5431 28.5577L21.8234 28.958C22.204 29.6422 22.4041 30.4491 22.3992 31.4031L23.2228 31.4073L24.0463 31.4114C24.0524 30.2146 23.7993 29.1218 23.2628 28.1573L22.5431 28.5577ZM23.2228 31.4073L22.3992 31.4112C22.404 32.4059 22.175 33.2591 21.7313 33.9956L22.4367 34.4206L23.1421 34.8456C23.7573 33.8244 24.0524 32.6686 24.0463 31.4033L23.2228 31.4073ZM22.4367 34.4206L21.7305 33.9969C21.2873 34.7355 20.6665 35.3214 19.8473 35.757L20.234 36.4841L20.6206 37.2112C21.6902 36.6424 22.5379 35.8526 23.1428 34.8443L22.4367 34.4206ZM20.234 36.4841L19.8488 35.7562C19.0474 36.1802 18.092 36.4057 16.9586 36.4057V37.2293V38.0528C18.3144 38.0528 19.5426 37.7816 20.6191 37.2121L20.234 36.4841ZM35.9886 34.6745L35.4068 35.2573L35.988 35.8375L36.5699 35.2579L35.9886 34.6745ZM26.2034 24.9056L25.6177 24.3266L25.0416 24.9094L25.6215 25.4884L26.2034 24.9056ZM28.3488 22.7356L28.9311 22.1533L28.3454 21.5677L27.7631 22.1566L28.3488 22.7356ZM38.1422 32.5291L38.7234 33.1125L39.308 32.5302L38.7245 31.9468L38.1422 32.5291ZM28.3488 34.6745L27.7664 35.2568L28.348 35.8384L28.9304 35.2575L28.3488 34.6745ZM26.2034 32.5291L25.6208 31.947L25.039 32.5293L25.6211 33.1114L26.2034 32.5291ZM35.9886 22.7356L36.5732 22.1555L35.9906 21.5685L35.4061 22.1535L35.9886 22.7356ZM38.1422 24.9056L38.7238 25.4886L39.3054 24.9085L38.7267 24.3255L38.1422 24.9056ZM35.9886 34.6745L36.5705 34.0917L26.7852 24.3228L26.2034 24.9056L25.6215 25.4884L35.4068 35.2573L35.9886 34.6745ZM26.2034 24.9056L26.789 25.4846L28.9344 23.3146L28.3488 22.7356L27.7631 22.1566L25.6177 24.3266L26.2034 24.9056ZM28.3488 22.7356L27.7664 23.3179L37.5599 33.1114L38.1422 32.5291L38.7245 31.9468L28.9311 22.1533L28.3488 22.7356ZM38.1422 32.5291L37.561 31.9456L35.4074 34.091L35.9886 34.6745L36.5699 35.2579L38.7234 33.1125L38.1422 32.5291ZM28.3488 34.6745L28.9311 34.0921L26.7857 31.9468L26.2034 32.5291L25.6211 33.1114L27.7664 35.2568L28.3488 34.6745ZM26.2034 32.5291L26.7859 33.1112L36.5712 23.3177L35.9886 22.7356L35.4061 22.1535L25.6208 31.947L26.2034 32.5291ZM35.9886 22.7356L35.4041 23.3157L37.5577 25.4857L38.1422 24.9056L38.7267 24.3255L36.5732 22.1555L35.9886 22.7356ZM38.1422 24.9056L37.5606 24.3225L27.7672 34.0914L28.3488 34.6745L28.9304 35.2575L38.7238 25.4886L38.1422 24.9056ZM47.8046 37.2293L47.7994 38.0528L47.801 38.0528L47.8046 37.2293ZM45.3072 36.7953L45.0308 37.5711L45.0325 37.5717L45.3072 36.7953ZM43.1618 35.4114L42.5769 35.9912L42.577 35.9912L43.1618 35.4114ZM41.6551 32.873L40.8771 33.1431L40.8784 33.1467L41.6551 32.873ZM41.1065 28.9916L40.2829 28.9885V28.9916H41.1065ZM41.5896 25.2167L40.7985 24.9879L40.7977 24.9905L41.5896 25.2167ZM42.9652 22.3835L42.3142 21.8792L42.312 21.8821L42.9652 22.3835ZM45.1188 20.6148L45.4774 21.3562L45.4813 21.3543L45.1188 20.6148ZM50.8917 20.6557L50.5178 21.3895L50.5215 21.3914L50.8917 20.6557ZM52.9552 22.4163L52.2801 22.8879L52.2824 22.8912L52.9552 22.4163ZM53.9051 24.9138V25.7373H54.8318L54.7229 24.817L53.9051 24.9138ZM50.4086 24.9138L49.6067 25.1011L49.7553 25.7373H50.4086V24.9138ZM45.4382 24.4634L44.7313 24.0409L44.7295 24.0439L45.4382 24.4634ZM44.5784 28.3366L43.7549 28.3311L43.7493 29.1601H44.5784V28.3366ZM44.693 28.3366V29.1601H45.1995L45.428 28.7081L44.693 28.3366ZM45.7084 27.0673L46.2308 27.704L46.2316 27.7033L45.7084 27.0673ZM47.1741 26.2567L47.4392 27.0364L47.4438 27.0348L47.1741 26.2567ZM51.5714 26.6743L51.1447 27.3787L51.1484 27.3809L51.5714 26.6743ZM53.2828 34.4124L52.5762 33.9894L52.5743 33.9926L53.2828 34.4124ZM51.08 36.4923L51.4652 37.2202L51.4667 37.2194L51.08 36.4923ZM49.254 34.0521L49.6816 34.7559L49.6816 34.7559L49.254 34.0521ZM50.2694 32.9876L50.9913 33.3838L50.9913 33.3838L50.2694 32.9876ZM50.2694 29.9825L49.5457 30.3756L49.5495 30.3824L50.2694 29.9825ZM49.2704 28.9261L49.702 28.2248L49.702 28.2248L49.2704 28.9261ZM46.6746 28.7624L46.3445 28.0079L46.3402 28.0098L46.6746 28.7624ZM45.7657 29.4011L45.1716 28.8307L45.1657 28.837L45.7657 29.4011ZM45.1598 30.3509L45.9203 30.6669L45.922 30.6628L45.1598 30.3509ZM45.3072 32.9713L44.5852 33.3675L44.5889 33.3742L45.3072 32.9713ZM46.3225 34.044L45.8844 34.7413L45.8885 34.7438L46.3225 34.044ZM47.8046 37.2293L47.8099 36.4058C47.0379 36.4009 46.2965 36.2717 45.5818 36.0189L45.3072 36.7953L45.0325 37.5717C45.9227 37.8866 46.8464 38.0468 47.7994 38.0528L47.8046 37.2293ZM45.3072 36.7953L45.5835 36.0195C44.9099 35.7796 44.2986 35.3884 43.7466 34.8316L43.1618 35.4114L42.577 35.9912C43.2915 36.7119 44.1103 37.2432 45.0308 37.5711L45.3072 36.7953ZM43.1618 35.4114L43.7466 34.8316C43.2174 34.2978 42.7721 33.5651 42.4318 32.5993L41.6551 32.873L40.8784 33.1467C41.2805 34.2881 41.8397 35.2476 42.5769 35.9912L43.1618 35.4114ZM41.6551 32.873L42.4331 32.6029C42.1064 31.662 41.93 30.4657 41.93 28.9916H41.1065H40.2829C40.2829 30.5855 40.4722 31.9768 40.8771 33.1431L41.6551 32.873ZM41.1065 28.9916L41.93 28.9948C41.9352 27.6458 42.0895 26.4646 42.3814 25.443L41.5896 25.2167L40.7977 24.9905C40.4564 26.1852 40.2886 27.5206 40.2829 28.9885L41.1065 28.9916ZM41.5896 25.2167L42.3807 25.4455C42.6794 24.4126 43.0965 23.565 43.6185 22.885L42.9652 22.3835L42.312 21.8821C41.6439 22.7524 41.1439 23.7936 40.7985 24.9879L41.5896 25.2167ZM42.9652 22.3835L43.6163 22.8878C44.1434 22.2073 44.7631 21.7016 45.4774 21.3562L45.1188 20.6148L44.7602 19.8734C43.804 20.3359 42.988 21.0093 42.3142 21.8792L42.9652 22.3835ZM45.1188 20.6148L45.4813 21.3543C46.1913 21.0062 47.0013 20.8242 47.9275 20.8242V20.0007V19.1771C46.7792 19.1771 45.7168 19.4045 44.7563 19.8753L45.1188 20.6148ZM47.9275 20.0007V20.8242C48.9379 20.8242 49.7941 21.0207 50.5178 21.3895L50.8917 20.6557L51.2656 19.922C50.2752 19.4173 49.1553 19.1771 47.9275 19.1771V20.0007ZM50.8917 20.6557L50.5215 21.3914C51.2641 21.765 51.8443 22.2641 52.2801 22.8879L52.9552 22.4163L53.6303 21.9447C53.0289 21.0836 52.2334 20.409 51.2619 19.9201L50.8917 20.6557ZM52.9552 22.4163L52.2824 22.8912C52.7256 23.519 52.9938 24.221 53.0873 25.0106L53.9051 24.9138L54.7229 24.817C54.598 23.7614 54.233 22.7984 53.628 21.9414L52.9552 22.4163ZM53.9051 24.9138V24.0902H50.4086V24.9138V25.7373H53.9051V24.9138ZM50.4086 24.9138L51.2105 24.7264C51.0348 23.9744 50.6513 23.3432 50.0481 22.8832L49.5488 23.5381L49.0495 24.193C49.3197 24.399 49.5094 24.6849 49.6067 25.1011L50.4086 24.9138ZM49.5488 23.5381L50.0481 22.8832C49.4442 22.4227 48.7197 22.2151 47.9275 22.2151V23.0386V23.8621C48.4236 23.8621 48.78 23.9875 49.0495 24.193L49.5488 23.5381ZM47.9275 23.0386V22.2151C46.5411 22.2151 45.4452 22.8465 44.7313 24.0409L45.4382 24.4634L46.1451 24.8859C46.5666 24.1806 47.1303 23.8621 47.9275 23.8621V23.0386ZM45.4382 24.4634L44.7295 24.0439C44.0657 25.1653 43.7663 26.6181 43.7549 28.3311L44.5784 28.3366L45.4019 28.3421C45.4123 26.7906 45.6861 25.6613 46.1468 24.8829L45.4382 24.4634ZM44.5784 28.3366V29.1601H44.693V28.3366V27.513H44.5784V28.3366ZM44.693 28.3366L45.428 28.7081C45.628 28.3124 45.8945 27.9799 46.2308 27.704L45.7084 27.0673L45.186 26.4307C44.6707 26.8535 44.2603 27.3672 43.9581 27.965L44.693 28.3366ZM45.7084 27.0673L46.2316 27.7033C46.5837 27.4136 46.9842 27.1911 47.4392 27.0364L47.1741 26.2567L46.909 25.477C46.2722 25.6935 45.6956 26.0114 45.1851 26.4314L45.7084 27.0673ZM47.1741 26.2567L47.4438 27.0348C47.9043 26.8752 48.3942 26.7936 48.9183 26.7936V25.9701V25.1466C48.2195 25.1466 47.5467 25.256 46.9045 25.4786L47.1741 26.2567ZM48.9183 25.9701V26.7936C49.7764 26.7936 50.5104 26.9946 51.1447 27.3787L51.5714 26.6743L51.998 25.9699C51.0819 25.4151 50.0473 25.1466 48.9183 25.1466V25.9701ZM51.5714 26.6743L51.1484 27.3809C51.7948 27.7679 52.3048 28.2982 52.6841 28.9875L53.4056 28.5904L54.1271 28.1933C53.6111 27.2559 52.8983 26.5088 51.9943 25.9677L51.5714 26.6743ZM53.4056 28.5904L52.6841 28.9875C53.0565 29.6642 53.2535 30.4552 53.2535 31.3827H54.077H54.9006C54.9006 30.2139 54.6499 29.1434 54.1271 28.1933L53.4056 28.5904ZM54.077 31.3827H53.2535C53.2535 32.3847 53.0215 33.2456 52.5762 33.9894L53.2828 34.4124L53.9893 34.8355C54.603 33.8105 54.9006 32.6516 54.9006 31.3827H54.077ZM53.2828 34.4124L52.5743 33.9926C52.1305 34.7415 51.51 35.3309 50.6934 35.7652L51.08 36.4923L51.4667 37.2194C52.5389 36.6493 53.3869 35.8521 53.9912 34.8323L53.2828 34.4124ZM51.08 36.4923L50.6949 35.7644C49.8948 36.1877 48.9408 36.4107 47.8083 36.4058L47.8046 37.2293L47.801 38.0528C49.1579 38.0588 50.3874 37.7904 51.4652 37.2202L51.08 36.4923ZM47.7883 34.4452V35.2687C48.4722 35.2687 49.111 35.1027 49.6816 34.7559L49.254 34.0521L48.8264 33.3483C48.5345 33.5257 48.1961 33.6217 47.7883 33.6217V34.4452ZM49.254 34.0521L49.6816 34.7559C50.2378 34.418 50.6771 33.9565 50.9913 33.3838L50.2694 32.9876L49.5474 32.5914C49.3704 32.9141 49.1327 33.1622 48.8264 33.3483L49.254 34.0521ZM50.2694 32.9876L50.9913 33.3838C51.3096 32.804 51.4614 32.1634 51.4614 31.4809H50.6379H49.8143C49.8143 31.9121 49.7205 32.276 49.5474 32.5914L50.2694 32.9876ZM50.6379 31.4809H51.4614C51.4614 30.7986 51.3096 30.1591 50.9893 29.5825L50.2694 29.9825L49.5495 30.3824C49.7205 30.6902 49.8143 31.0496 49.8143 31.4809H50.6379ZM50.2694 29.9825L50.993 29.5894C50.6846 29.0215 50.2513 28.5628 49.702 28.2248L49.2704 28.9261L48.8388 29.6275C49.1411 29.8136 49.3738 30.059 49.5457 30.3755L50.2694 29.9825ZM49.2704 28.9261L49.702 28.2248C49.1346 27.8756 48.4966 27.7096 47.8128 27.7096V28.5331V29.3566C48.2208 29.3566 48.5546 29.4526 48.8388 29.6275L49.2704 28.9261ZM47.8128 28.5331V27.7096C47.2983 27.7096 46.8055 27.8062 46.3445 28.0079L46.6746 28.7624L47.0047 29.5168C47.2425 29.4128 47.5085 29.3566 47.8128 29.3566V28.5331ZM46.6746 28.7624L46.3402 28.0098C45.8982 28.2063 45.5072 28.4812 45.1716 28.8307L45.7657 29.4011L46.3598 29.9714C46.5483 29.775 46.7632 29.6242 47.0091 29.5149L46.6746 28.7624ZM45.7657 29.4011L45.1657 28.837C44.8374 29.1863 44.5816 29.5892 44.3975 30.0391L45.1598 30.3509L45.922 30.6628C46.0327 30.392 46.1809 30.1618 46.3658 29.9651L45.7657 29.4011ZM45.1598 30.3509L44.3992 30.035C44.2081 30.4951 44.1151 30.9824 44.1151 31.4891H44.9387H45.7622C45.7622 31.1879 45.8166 30.9165 45.9203 30.6668L45.1598 30.3509ZM44.9387 31.4891H44.1151C44.1151 32.1597 44.269 32.7913 44.5852 33.3675L45.3072 32.9713L46.0291 32.5751C45.854 32.256 45.7622 31.8994 45.7622 31.4891H44.9387ZM45.3072 32.9713L44.5889 33.3742C44.9059 33.9392 45.3396 34.399 45.8845 34.7413L46.3225 34.044L46.7606 33.3466C46.4538 33.1539 46.2106 32.8986 46.0254 32.5683L45.3072 32.9713ZM46.3225 34.044L45.8885 34.7438C46.46 35.0983 47.1011 35.2687 47.7883 35.2687V34.4452V33.6217C47.3837 33.6217 47.0476 33.5246 46.7566 33.3441L46.3225 34.044Z" fill="#2B3F46" mask="url(#path-17-outside-1_2025_1534)"/>
<defs>
<linearGradient id="paint0_linear_2025_1534" x1="35.8411" y1="35.864" x2="-1.88188" y2="2.08424" gradientUnits="userSpaceOnUse">
<stop stop-color="#FFD5EF"/>
<stop offset="1" stop-color="#EFBDFD"/>
</linearGradient>
<linearGradient id="paint1_linear_2025_1534" x1="0" y1="0" x2="15.9633" y2="15.6375" gradientUnits="userSpaceOnUse">
<stop stop-color="#AC93FC"/>
<stop offset="1" stop-color="#E593FC"/>
</linearGradient>
<linearGradient id="paint2_linear_2025_1534" x1="-8.23702e-06" y1="-0.00410309" x2="14.4158" y2="-11.3513" gradientUnits="userSpaceOnUse">
<stop stop-color="#D744C2"/>
<stop offset="1" stop-color="#C665E1"/>
</linearGradient>
<linearGradient id="paint3_linear_2025_1534" x1="3.11084" y1="36.9277" x2="4.97822" y2="37.0006" gradientUnits="userSpaceOnUse">
<stop stop-color="#AC93FC"/>
<stop offset="1" stop-color="#E593FC"/>
</linearGradient>
<linearGradient id="paint4_linear_2025_1534" x1="28.0071" y1="52.6093" x2="34.5163" y2="51.384" gradientUnits="userSpaceOnUse">
<stop stop-color="#D744C2"/>
<stop offset="1" stop-color="#C665E1"/>
</linearGradient>
<linearGradient id="paint5_linear_2025_1534" x1="59.0586" y1="36.9216" x2="60.4531" y2="36.8778" gradientUnits="userSpaceOnUse">
<stop stop-color="#D744C2"/>
<stop offset="1" stop-color="#C665E1"/>
</linearGradient>
<linearGradient id="paint6_linear_2025_1534" x1="35.8853" y1="35.9081" x2="-1.8842" y2="2.0868" gradientUnits="userSpaceOnUse">
<stop stop-color="#FAD5FF"/>
<stop offset="1" stop-color="#CFBDFD"/>
</linearGradient>
<clipPath id="clip0_2025_1534">
<rect width="35.8992" height="35.8992" rx="4.44179" transform="matrix(0.866025 0.5 -0.866025 0.5 31.9104 19)" fill="white"/>
</clipPath>
</defs>
</svg>
