<svg width="64" height="64" viewBox="0 0 64 64" fill="none" xmlns="http://www.w3.org/2000/svg">
<path d="M4.4006 33.9298C3.80774 33.582 3.47546 33.1136 3.47547 32.6257L3.47547 30.5016C3.47547 29.9566 3.88975 29.439 4.60873 29.0857L30.1348 16.5442C31.3579 15.9433 33.1609 15.9544 34.3614 16.5703L60.0608 29.7535C60.7487 30.1064 61.1422 30.6122 61.1422 31.1434V32.5436C61.1422 33.0309 60.8108 33.4987 60.2194 33.8464L34.5631 48.9278C33.3018 49.6692 31.2326 49.6699 29.9699 48.9292L4.4006 33.9298Z" fill="url(#paint0_linear_84_1331)"/>
<rect width="34.7831" height="34.7831" rx="2.62954" transform="matrix(0.866044 -0.499967 0.866044 0.499967 2.14404 30.3906)" fill="white"/>
<rect width="10.8697" height="10.8697" transform="matrix(0.866044 -0.499967 0.866044 0.499967 12.2639 30.3906)" fill="#D9D9D9"/>
<rect width="10.8697" height="10.8697" transform="matrix(0.866044 -0.499967 0.866044 0.499967 22.8542 24.2769)" fill="#D9D9D9"/>
<rect width="10.8697" height="10.8697" transform="matrix(0.866044 -0.499967 0.866044 0.499967 22.8542 36.5044)" fill="#D9D9D9"/>
<rect width="10.8697" height="10.8697" transform="matrix(0.866044 -0.499967 0.866044 0.499967 33.4446 30.3906)" fill="#D9D9D9"/>
<mask id="path-7-outside-1_84_1331" maskUnits="userSpaceOnUse" x="18" y="23" width="28" height="14" fill="black">
<rect fill="white" x="18" y="23" width="28" height="14"/>
<path d="M22.9541 35.1394C22.297 35.1394 21.7112 35.0266 21.1968 34.8009C20.6857 34.5752 20.2792 34.2616 19.9772 33.86C19.6785 33.4551 19.5158 32.9855 19.4893 32.4512H20.7438C20.7703 32.7797 20.8832 33.0635 21.0823 33.3025C21.2814 33.5381 21.542 33.7206 21.8639 33.85C22.1858 33.9795 22.5426 34.0442 22.9342 34.0442C23.3722 34.0442 23.7605 33.9679 24.0991 33.8152C24.4376 33.6625 24.7031 33.4501 24.8956 33.178C25.0881 32.9059 25.1843 32.5906 25.1843 32.2322C25.1843 31.8571 25.0914 31.5269 24.9055 31.2415C24.7197 30.9528 24.4475 30.7271 24.0891 30.5645C23.7307 30.4019 23.2926 30.3205 22.7749 30.3205H21.9585V29.2253H22.7749C23.1798 29.2253 23.5349 29.1523 23.8402 29.0063C24.1488 28.8603 24.3895 28.6545 24.562 28.389C24.7379 28.1235 24.8259 27.8116 24.8259 27.4531C24.8259 27.108 24.7495 26.8076 24.5969 26.5521C24.4442 26.2965 24.2285 26.0974 23.9497 25.9547C23.6743 25.812 23.349 25.7406 22.974 25.7406C22.6222 25.7406 22.2903 25.8054 21.9784 25.9348C21.6697 26.0609 21.4175 26.2451 21.2217 26.4874C21.0259 26.7263 20.9197 27.0151 20.9031 27.3536H19.7083C19.7282 26.8192 19.8892 26.3513 20.1912 25.9497C20.4932 25.5448 20.8882 25.2296 21.376 25.0039C21.8672 24.7782 22.4065 24.6654 22.9939 24.6654C23.6245 24.6654 24.1654 24.7931 24.6168 25.0487C25.0681 25.3009 25.4149 25.6344 25.6572 26.0493C25.8995 26.4641 26.0206 26.9122 26.0206 27.3934C26.0206 27.9675 25.8696 28.4571 25.5676 28.8619C25.2689 29.2668 24.8624 29.5473 24.348 29.7033V29.7829C24.9918 29.8891 25.4946 30.1629 25.8563 30.6043C26.2181 31.0424 26.399 31.585 26.399 32.2322C26.399 32.7864 26.248 33.2842 25.946 33.7256C25.6473 34.1637 25.2391 34.5088 24.7213 34.761C24.2036 35.0133 23.6145 35.1394 22.9541 35.1394ZM34.4287 33.168L28.8134 27.5527L29.57 26.796L35.1854 32.4114L34.4287 33.168ZM29.57 33.168L28.8134 32.4114L34.4287 26.796L35.1854 27.5527L29.57 33.168ZM41.1206 35.1394C40.4635 35.1394 39.8777 35.0266 39.3633 34.8009C38.8522 34.5752 38.4457 34.2616 38.1437 33.86C37.845 33.4551 37.6823 32.9855 37.6558 32.4512H38.9103C38.9368 32.7797 39.0497 33.0635 39.2488 33.3025C39.4479 33.5381 39.7085 33.7206 40.0304 33.85C40.3523 33.9795 40.7091 34.0442 41.1007 34.0442C41.5388 34.0442 41.927 33.9679 42.2656 33.8152C42.6041 33.6625 42.8696 33.4501 43.0621 33.178C43.2546 32.9059 43.3508 32.5906 43.3508 32.2322C43.3508 31.8571 43.2579 31.5269 43.072 31.2415C42.8862 30.9528 42.614 30.7271 42.2556 30.5645C41.8972 30.4019 41.4591 30.3205 40.9414 30.3205H40.125V29.2253H40.9414C41.3463 29.2253 41.7014 29.1523 42.0067 29.0063C42.3153 28.8603 42.556 28.6545 42.7285 28.389C42.9044 28.1235 42.9924 27.8116 42.9924 27.4531C42.9924 27.108 42.916 26.8076 42.7634 26.5521C42.6107 26.2965 42.395 26.0974 42.1162 25.9547C41.8408 25.812 41.5155 25.7406 41.1405 25.7406C40.7887 25.7406 40.4568 25.8054 40.1449 25.9348C39.8362 26.0609 39.584 26.2451 39.3882 26.4874C39.1924 26.7263 39.0862 27.0151 39.0696 27.3536H37.8748C37.8947 26.8192 38.0557 26.3513 38.3577 25.9497C38.6597 25.5448 39.0547 25.2296 39.5425 25.0039C40.0337 24.7782 40.573 24.6654 41.1604 24.6654C41.791 24.6654 42.3319 24.7931 42.7833 25.0487C43.2346 25.3009 43.5815 25.6344 43.8237 26.0493C44.066 26.4641 44.1871 26.9122 44.1871 27.3934C44.1871 27.9675 44.0361 28.4571 43.7341 28.8619C43.4354 29.2668 43.0289 29.5473 42.5145 29.7033V29.7829C43.1583 29.8891 43.6611 30.1629 44.0228 30.6043C44.3846 31.0424 44.5655 31.585 44.5655 32.2322C44.5655 32.7864 44.4145 33.2842 44.1125 33.7256C43.8138 34.1637 43.4056 34.5088 42.8878 34.761C42.3701 35.0133 41.781 35.1394 41.1206 35.1394Z"/>
</mask>
<path d="M22.9541 35.1394C22.297 35.1394 21.7112 35.0266 21.1968 34.8009C20.6857 34.5752 20.2792 34.2616 19.9772 33.86C19.6785 33.4551 19.5158 32.9855 19.4893 32.4512H20.7438C20.7703 32.7797 20.8832 33.0635 21.0823 33.3025C21.2814 33.5381 21.542 33.7206 21.8639 33.85C22.1858 33.9795 22.5426 34.0442 22.9342 34.0442C23.3722 34.0442 23.7605 33.9679 24.0991 33.8152C24.4376 33.6625 24.7031 33.4501 24.8956 33.178C25.0881 32.9059 25.1843 32.5906 25.1843 32.2322C25.1843 31.8571 25.0914 31.5269 24.9055 31.2415C24.7197 30.9528 24.4475 30.7271 24.0891 30.5645C23.7307 30.4019 23.2926 30.3205 22.7749 30.3205H21.9585V29.2253H22.7749C23.1798 29.2253 23.5349 29.1523 23.8402 29.0063C24.1488 28.8603 24.3895 28.6545 24.562 28.389C24.7379 28.1235 24.8259 27.8116 24.8259 27.4531C24.8259 27.108 24.7495 26.8076 24.5969 26.5521C24.4442 26.2965 24.2285 26.0974 23.9497 25.9547C23.6743 25.812 23.349 25.7406 22.974 25.7406C22.6222 25.7406 22.2903 25.8054 21.9784 25.9348C21.6697 26.0609 21.4175 26.2451 21.2217 26.4874C21.0259 26.7263 20.9197 27.0151 20.9031 27.3536H19.7083C19.7282 26.8192 19.8892 26.3513 20.1912 25.9497C20.4932 25.5448 20.8882 25.2296 21.376 25.0039C21.8672 24.7782 22.4065 24.6654 22.9939 24.6654C23.6245 24.6654 24.1654 24.7931 24.6168 25.0487C25.0681 25.3009 25.4149 25.6344 25.6572 26.0493C25.8995 26.4641 26.0206 26.9122 26.0206 27.3934C26.0206 27.9675 25.8696 28.4571 25.5676 28.8619C25.2689 29.2668 24.8624 29.5473 24.348 29.7033V29.7829C24.9918 29.8891 25.4946 30.1629 25.8563 30.6043C26.2181 31.0424 26.399 31.585 26.399 32.2322C26.399 32.7864 26.248 33.2842 25.946 33.7256C25.6473 34.1637 25.2391 34.5088 24.7213 34.761C24.2036 35.0133 23.6145 35.1394 22.9541 35.1394ZM34.4287 33.168L28.8134 27.5527L29.57 26.796L35.1854 32.4114L34.4287 33.168ZM29.57 33.168L28.8134 32.4114L34.4287 26.796L35.1854 27.5527L29.57 33.168ZM41.1206 35.1394C40.4635 35.1394 39.8777 35.0266 39.3633 34.8009C38.8522 34.5752 38.4457 34.2616 38.1437 33.86C37.845 33.4551 37.6823 32.9855 37.6558 32.4512H38.9103C38.9368 32.7797 39.0497 33.0635 39.2488 33.3025C39.4479 33.5381 39.7085 33.7206 40.0304 33.85C40.3523 33.9795 40.7091 34.0442 41.1007 34.0442C41.5388 34.0442 41.927 33.9679 42.2656 33.8152C42.6041 33.6625 42.8696 33.4501 43.0621 33.178C43.2546 32.9059 43.3508 32.5906 43.3508 32.2322C43.3508 31.8571 43.2579 31.5269 43.072 31.2415C42.8862 30.9528 42.614 30.7271 42.2556 30.5645C41.8972 30.4019 41.4591 30.3205 40.9414 30.3205H40.125V29.2253H40.9414C41.3463 29.2253 41.7014 29.1523 42.0067 29.0063C42.3153 28.8603 42.556 28.6545 42.7285 28.389C42.9044 28.1235 42.9924 27.8116 42.9924 27.4531C42.9924 27.108 42.916 26.8076 42.7634 26.5521C42.6107 26.2965 42.395 26.0974 42.1162 25.9547C41.8408 25.812 41.5155 25.7406 41.1405 25.7406C40.7887 25.7406 40.4568 25.8054 40.1449 25.9348C39.8362 26.0609 39.584 26.2451 39.3882 26.4874C39.1924 26.7263 39.0862 27.0151 39.0696 27.3536H37.8748C37.8947 26.8192 38.0557 26.3513 38.3577 25.9497C38.6597 25.5448 39.0547 25.2296 39.5425 25.0039C40.0337 24.7782 40.573 24.6654 41.1604 24.6654C41.791 24.6654 42.3319 24.7931 42.7833 25.0487C43.2346 25.3009 43.5815 25.6344 43.8237 26.0493C44.066 26.4641 44.1871 26.9122 44.1871 27.3934C44.1871 27.9675 44.0361 28.4571 43.7341 28.8619C43.4354 29.2668 43.0289 29.5473 42.5145 29.7033V29.7829C43.1583 29.8891 43.6611 30.1629 44.0228 30.6043C44.3846 31.0424 44.5655 31.585 44.5655 32.2322C44.5655 32.7864 44.4145 33.2842 44.1125 33.7256C43.8138 34.1637 43.4056 34.5088 42.8878 34.761C42.3701 35.0133 41.781 35.1394 41.1206 35.1394Z" fill="#00C1FF"/>
<path d="M21.1968 34.8009L20.7929 35.7157L20.7951 35.7166L21.1968 34.8009ZM19.9772 33.86L19.1724 34.4537L19.1779 34.4611L19.9772 33.86ZM19.4893 32.4512V31.4512H18.4384L18.4905 32.5008L19.4893 32.4512ZM20.7438 32.4512L21.7405 32.3706L21.6662 31.4512H20.7438V32.4512ZM21.0823 33.3025L20.3141 33.9427L20.3185 33.9479L21.0823 33.3025ZM21.8639 33.85L21.4908 34.7779L21.4908 34.7779L21.8639 33.85ZM24.8956 33.178L24.0791 32.6005L24.0791 32.6005L24.8956 33.178ZM24.9055 31.2415L24.0646 31.7828L24.0675 31.7872L24.9055 31.2415ZM24.0891 30.5645L23.6759 31.4751L23.6759 31.4751L24.0891 30.5645ZM21.9585 30.3205H20.9585V31.3205H21.9585V30.3205ZM21.9585 29.2253V28.2253H20.9585V29.2253H21.9585ZM23.8402 29.0063L23.4125 28.1024L23.4087 28.1042L23.8402 29.0063ZM24.562 28.389L23.7283 27.8367L23.7236 27.844L24.562 28.389ZM24.5969 26.5521L25.4553 26.0392L25.4553 26.0392L24.5969 26.5521ZM23.9497 25.9547L23.4897 26.8426L23.494 26.8449L23.9497 25.9547ZM21.9784 25.9348L22.3566 26.8605L22.3616 26.8585L21.9784 25.9348ZM21.2217 26.4874L21.9952 27.1212L21.9994 27.116L21.2217 26.4874ZM20.9031 27.3536V28.3536H21.8553L21.9019 27.4025L20.9031 27.3536ZM19.7083 27.3536L18.709 27.3163L18.6704 28.3536H19.7083V27.3536ZM20.1912 25.9497L20.9904 26.5508L20.9928 26.5476L20.1912 25.9497ZM21.376 25.0039L20.9585 24.0952L20.9562 24.0963L21.376 25.0039ZM24.6168 25.0487L24.1241 25.9189L24.129 25.9216L24.6168 25.0487ZM25.6572 26.0493L24.7937 26.5536L24.7937 26.5536L25.6572 26.0493ZM25.5676 28.8619L24.766 28.264L24.7629 28.2683L25.5676 28.8619ZM24.348 29.7033L24.0578 28.7463L23.348 28.9615V29.7033H24.348ZM24.348 29.7829H23.348V30.6315L24.1852 30.7696L24.348 29.7829ZM25.8563 30.6043L25.0829 31.2382L25.0853 31.241L25.8563 30.6043ZM25.946 33.7256L25.1206 33.1609L25.1197 33.1623L25.946 33.7256ZM24.7213 34.761L25.1593 35.66L25.1593 35.66L24.7213 34.761ZM22.9541 34.1394C22.412 34.1394 21.9666 34.0466 21.5985 33.8851L20.7951 35.7166C21.4558 36.0065 22.1819 36.1394 22.9541 36.1394V34.1394ZM21.6007 33.8861C21.2282 33.7216 20.9645 33.5091 20.7764 33.2589L19.1779 34.4611C19.5939 35.0141 20.1432 35.4288 20.7929 35.7157L21.6007 33.8861ZM20.7819 33.2664C20.6075 33.03 20.5055 32.7525 20.4881 32.4016L18.4905 32.5008C18.5262 33.2186 18.7494 33.8802 19.1724 34.4537L20.7819 33.2664ZM19.4893 33.4512H20.7438V31.4512H19.4893V33.4512ZM19.747 32.5317C19.7892 33.0529 19.9748 33.5354 20.3141 33.9426L21.8505 32.6623C21.7916 32.5916 21.7515 32.5066 21.7405 32.3706L19.747 32.5317ZM20.3185 33.9479C20.6355 34.323 21.0367 34.5953 21.4908 34.7779L22.2369 32.9222C22.0472 32.846 21.9274 32.7532 21.8461 32.657L20.3185 33.9479ZM21.4908 34.7779C21.9456 34.9607 22.4311 35.0442 22.9342 35.0442V33.0442C22.654 33.0442 22.4259 32.9982 22.2369 32.9222L21.4908 34.7779ZM22.9342 35.0442C23.4888 35.0442 24.0213 34.9473 24.5102 34.7268L23.688 32.9036C23.4998 32.9885 23.2557 33.0442 22.9342 33.0442V35.0442ZM24.5102 34.7268C24.9922 34.5094 25.4052 34.1892 25.712 33.7555L24.0791 32.6005C24.001 32.7111 23.883 32.8157 23.688 32.9036L24.5102 34.7268ZM25.712 33.7555C26.0331 33.3015 26.1843 32.781 26.1843 32.2322H24.1843C24.1843 32.4002 24.143 32.5102 24.0791 32.6005L25.712 33.7555ZM26.1843 32.2322C26.1843 31.6837 26.0457 31.1598 25.7435 30.6958L24.0675 31.7872C24.1371 31.894 24.1843 32.0305 24.1843 32.2322H26.1843ZM25.7464 30.7003C25.4419 30.2272 25.0095 29.884 24.5023 29.6538L23.6759 31.4751C23.8855 31.5702 23.9975 31.6784 24.0647 31.7827L25.7464 30.7003ZM24.5023 29.6538C23.98 29.4168 23.3922 29.3205 22.7749 29.3205V31.3205C23.193 31.3205 23.4814 31.3869 23.6759 31.4751L24.5023 29.6538ZM22.7749 29.3205H21.9585V31.3205H22.7749V29.3205ZM22.9585 30.3205V29.2253H20.9585V30.3205H22.9585ZM21.9585 30.2253H22.7749V28.2253H21.9585V30.2253ZM22.7749 30.2253C23.3001 30.2253 23.8077 30.1303 24.2717 29.9084L23.4087 28.1042C23.262 28.1744 23.0594 28.2253 22.7749 28.2253V30.2253ZM24.2679 29.9102C24.7304 29.6914 25.119 29.3671 25.4005 28.934L23.7236 27.844C23.6599 27.942 23.5673 28.0292 23.4125 28.1024L24.2679 29.9102ZM25.3957 28.9413C25.6933 28.492 25.8259 27.9825 25.8259 27.4531H23.8259C23.8259 27.6406 23.7825 27.755 23.7284 27.8367L25.3957 28.9413ZM25.8259 27.4531C25.8259 26.9566 25.7146 26.4731 25.4553 26.0392L23.7384 27.0649C23.7845 27.1421 23.8259 27.2593 23.8259 27.4531H25.8259ZM25.4553 26.0392C25.2013 25.6141 24.8421 25.2881 24.4054 25.0646L23.494 26.8449C23.6149 26.9067 23.6871 26.979 23.7384 27.0649L25.4553 26.0392ZM24.4097 25.0668C23.9654 24.8366 23.476 24.7406 22.974 24.7406V26.7406C23.222 26.7406 23.3831 26.7874 23.4897 26.8426L24.4097 25.0668ZM22.974 24.7406C22.4963 24.7406 22.0336 24.8292 21.5951 25.0111L22.3616 26.8585C22.547 26.7815 22.7482 26.7406 22.974 26.7406V24.7406ZM21.6001 25.0091C21.1467 25.1944 20.7532 25.4762 20.4439 25.8588L21.9994 27.116C22.0818 27.014 22.1927 26.9275 22.3566 26.8605L21.6001 25.0091ZM20.4482 25.8535C20.1033 26.2745 19.9303 26.7739 19.9043 27.3046L21.9019 27.4025C21.9091 27.2562 21.9485 27.1782 21.9952 27.1212L20.4482 25.8535ZM20.9031 26.3536H19.7083V28.3536H20.9031V26.3536ZM20.7076 27.3908C20.7205 27.0466 20.8191 26.7785 20.9904 26.5508L19.392 25.3487C18.9593 25.9241 18.736 26.5919 18.709 27.3163L20.7076 27.3908ZM20.9928 26.5476C21.1889 26.2847 21.449 26.0719 21.7959 25.9115L20.9562 24.0963C20.3273 24.3872 19.7975 24.805 19.3896 25.3518L20.9928 26.5476ZM21.7935 25.9126C22.1427 25.7521 22.5379 25.6654 22.9939 25.6654V23.6654C22.275 23.6654 21.5917 23.8043 20.9585 24.0952L21.7935 25.9126ZM22.9939 25.6654C23.4889 25.6654 23.8523 25.765 24.1241 25.9189L25.1095 24.1785C24.4786 23.8213 23.7601 23.6654 22.9939 23.6654V25.6654ZM24.129 25.9216C24.4367 26.0936 24.6483 26.3047 24.7937 26.5536L26.5207 25.545C26.1816 24.9642 25.6996 24.5082 25.1046 24.1757L24.129 25.9216ZM24.7937 26.5536C24.9464 26.8151 25.0206 27.0891 25.0206 27.3934H27.0206C27.0206 26.7353 26.8526 26.1131 26.5207 25.545L24.7937 26.5536ZM25.0206 27.3934C25.0206 27.7828 24.922 28.055 24.766 28.264L26.3692 29.4598C26.8173 28.8591 27.0206 28.1522 27.0206 27.3934H25.0206ZM24.7629 28.2683C24.6011 28.4876 24.381 28.6483 24.0578 28.7463L24.6381 30.6602C25.3437 30.4463 25.9368 30.0461 26.3723 29.4556L24.7629 28.2683ZM23.348 29.7033V29.7829H25.348V29.7033H23.348ZM24.1852 30.7696C24.626 30.8423 24.8971 31.0115 25.0829 31.2382L26.6298 29.9704C26.0921 29.3143 25.3576 28.9359 24.5107 28.7962L24.1852 30.7696ZM25.0853 31.241C25.2786 31.4752 25.399 31.7832 25.399 32.2322H27.399C27.399 31.3868 27.1576 30.6095 26.6274 29.9676L25.0853 31.241ZM25.399 32.2322C25.399 32.5926 25.3045 32.8921 25.1206 33.1609L26.7713 34.2903C27.1914 33.6763 27.399 32.9802 27.399 32.2322H25.399ZM25.1197 33.1623C24.9274 33.4443 24.6585 33.6793 24.2834 33.8621L25.1593 35.66C25.8196 35.3384 26.3671 34.883 26.7722 34.2889L25.1197 33.1623ZM24.2834 33.8621C23.9208 34.0387 23.4851 34.1394 22.9541 34.1394V36.1394C23.744 36.1394 24.4864 35.9879 25.1593 35.66L24.2834 33.8621ZM34.4287 33.168L33.7216 33.8751L34.4287 34.5823L35.1358 33.8751L34.4287 33.168ZM28.8134 27.5527L28.1063 26.8456L27.3992 27.5527L28.1063 28.2598L28.8134 27.5527ZM29.57 26.796L30.2771 26.0889L29.57 25.3818L28.8629 26.0889L29.57 26.796ZM35.1854 32.4114L35.8925 33.1185L36.5996 32.4114L35.8925 31.7043L35.1854 32.4114ZM29.57 33.168L28.8629 33.8751L29.57 34.5823L30.2771 33.8751L29.57 33.168ZM28.8134 32.4114L28.1063 31.7043L27.3992 32.4114L28.1063 33.1185L28.8134 32.4114ZM34.4287 26.796L35.1358 26.0889L34.4287 25.3818L33.7216 26.0889L34.4287 26.796ZM35.1854 27.5527L35.8925 28.2598L36.5996 27.5527L35.8925 26.8456L35.1854 27.5527ZM35.1358 32.4609L29.5205 26.8456L28.1063 28.2598L33.7216 33.8751L35.1358 32.4609ZM29.5205 28.2598L30.2771 27.5031L28.8629 26.0889L28.1063 26.8456L29.5205 28.2598ZM28.8629 27.5031L34.4783 33.1185L35.8925 31.7043L30.2771 26.0889L28.8629 27.5031ZM34.4783 31.7043L33.7216 32.4609L35.1358 33.8751L35.8925 33.1185L34.4783 31.7043ZM30.2771 32.4609L29.5205 31.7043L28.1063 33.1185L28.8629 33.8751L30.2771 32.4609ZM29.5205 33.1185L35.1358 27.5031L33.7216 26.0889L28.1063 31.7043L29.5205 33.1185ZM33.7216 27.5031L34.4783 28.2598L35.8925 26.8456L35.1358 26.0889L33.7216 27.5031ZM34.4783 26.8456L28.8629 32.4609L30.2771 33.8751L35.8925 28.2598L34.4783 26.8456ZM39.3633 34.8009L38.9594 35.7157L38.9616 35.7166L39.3633 34.8009ZM38.1437 33.86L37.3389 34.4537L37.3444 34.4611L38.1437 33.86ZM37.6558 32.4512V31.4512H36.6049L36.657 32.5008L37.6558 32.4512ZM38.9103 32.4512L39.907 32.3706L39.8327 31.4512H38.9103V32.4512ZM39.2488 33.3025L38.4806 33.9427L38.485 33.9479L39.2488 33.3025ZM40.0304 33.85L39.6573 34.7779L39.6573 34.7779L40.0304 33.85ZM43.0621 33.178L42.2456 32.6005L42.2456 32.6005L43.0621 33.178ZM43.072 31.2415L42.2311 31.7828L42.234 31.7872L43.072 31.2415ZM42.2556 30.5645L41.8424 31.4751L41.8424 31.4751L42.2556 30.5645ZM40.125 30.3205H39.125V31.3205H40.125V30.3205ZM40.125 29.2253V28.2253H39.125V29.2253H40.125ZM42.0067 29.0063L41.579 28.1024L41.5752 28.1042L42.0067 29.0063ZM42.7285 28.389L41.8948 27.8367L41.8901 27.844L42.7285 28.389ZM42.7634 26.5521L43.6219 26.0392L43.6219 26.0392L42.7634 26.5521ZM42.1162 25.9547L41.6562 26.8426L41.6605 26.8449L42.1162 25.9547ZM40.1449 25.9348L40.5231 26.8605L40.5281 26.8585L40.1449 25.9348ZM39.3882 26.4874L40.1617 27.1212L40.1659 27.116L39.3882 26.4874ZM39.0696 27.3536V28.3536H40.0218L40.0684 27.4025L39.0696 27.3536ZM37.8748 27.3536L36.8755 27.3163L36.8369 28.3536H37.8748V27.3536ZM38.3577 25.9497L39.1569 26.5508L39.1593 26.5476L38.3577 25.9497ZM39.5425 25.0039L39.125 24.0952L39.1227 24.0963L39.5425 25.0039ZM42.7833 25.0487L42.2906 25.9189L42.2955 25.9216L42.7833 25.0487ZM43.8237 26.0493L42.9602 26.5536L42.9602 26.5536L43.8237 26.0493ZM43.7341 28.8619L42.9325 28.264L42.9294 28.2683L43.7341 28.8619ZM42.5145 29.7033L42.2243 28.7463L41.5145 28.9615V29.7033H42.5145ZM42.5145 29.7829H41.5145V30.6315L42.3517 30.7696L42.5145 29.7829ZM44.0228 30.6043L43.2494 31.2382L43.2518 31.241L44.0228 30.6043ZM44.1125 33.7256L43.2871 33.1609L43.2862 33.1623L44.1125 33.7256ZM42.8878 34.761L43.3258 35.66L43.3258 35.66L42.8878 34.761ZM41.1206 34.1394C40.5785 34.1394 40.1331 34.0466 39.765 33.8851L38.9616 35.7166C39.6223 36.0065 40.3484 36.1394 41.1206 36.1394V34.1394ZM39.7672 33.8861C39.3947 33.7216 39.131 33.5091 38.9429 33.2589L37.3444 34.4611C37.7604 35.0141 38.3097 35.4288 38.9594 35.7157L39.7672 33.8861ZM38.9484 33.2664C38.774 33.03 38.672 32.7525 38.6546 32.4016L36.657 32.5008C36.6927 33.2186 36.9159 33.8802 37.3389 34.4537L38.9484 33.2664ZM37.6558 33.4512H38.9103V31.4512H37.6558V33.4512ZM37.9135 32.5317C37.9557 33.0529 38.1413 33.5354 38.4806 33.9426L40.017 32.6623C39.9581 32.5916 39.918 32.5066 39.907 32.3706L37.9135 32.5317ZM38.485 33.9479C38.802 34.323 39.2032 34.5953 39.6573 34.7779L40.4034 32.9222C40.2137 32.846 40.0939 32.7532 40.0126 32.657L38.485 33.9479ZM39.6573 34.7779C40.1121 34.9607 40.5976 35.0442 41.1007 35.0442V33.0442C40.8205 33.0442 40.5924 32.9982 40.4034 32.9222L39.6573 34.7779ZM41.1007 35.0442C41.6553 35.0442 42.1878 34.9473 42.6767 34.7268L41.8545 32.9036C41.6663 32.9885 41.4222 33.0442 41.1007 33.0442V35.0442ZM42.6767 34.7268C43.1587 34.5094 43.5717 34.1892 43.8785 33.7555L42.2456 32.6005C42.1675 32.7111 42.0495 32.8157 41.8545 32.9036L42.6767 34.7268ZM43.8785 33.7555C44.1996 33.3015 44.3508 32.781 44.3508 32.2322H42.3508C42.3508 32.4002 42.3095 32.5102 42.2456 32.6005L43.8785 33.7555ZM44.3508 32.2322C44.3508 31.6837 44.2122 31.1598 43.91 30.6958L42.234 31.7872C42.3036 31.894 42.3508 32.0305 42.3508 32.2322H44.3508ZM43.9129 30.7003C43.6084 30.2272 43.176 29.884 42.6688 29.6538L41.8424 31.4751C42.052 31.5702 42.164 31.6784 42.2312 31.7827L43.9129 30.7003ZM42.6688 29.6538C42.1465 29.4168 41.5587 29.3205 40.9414 29.3205V31.3205C41.3595 31.3205 41.6479 31.3869 41.8424 31.4751L42.6688 29.6538ZM40.9414 29.3205H40.125V31.3205H40.9414V29.3205ZM41.125 30.3205V29.2253H39.125V30.3205H41.125ZM40.125 30.2253H40.9414V28.2253H40.125V30.2253ZM40.9414 30.2253C41.4666 30.2253 41.9742 30.1303 42.4382 29.9084L41.5752 28.1042C41.4285 28.1744 41.2259 28.2253 40.9414 28.2253V30.2253ZM42.4344 29.9102C42.8969 29.6914 43.2855 29.3671 43.567 28.934L41.8901 27.844C41.8264 27.942 41.7338 28.0292 41.579 28.1024L42.4344 29.9102ZM43.5622 28.9413C43.8598 28.492 43.9924 27.9825 43.9924 27.4531H41.9924C41.9924 27.6406 41.949 27.755 41.8949 27.8367L43.5622 28.9413ZM43.9924 27.4531C43.9924 26.9566 43.8811 26.4731 43.6219 26.0392L41.9049 27.0649C41.951 27.1421 41.9924 27.2593 41.9924 27.4531H43.9924ZM43.6219 26.0392C43.3679 25.6141 43.0086 25.2881 42.5719 25.0646L41.6605 26.8449C41.7814 26.9067 41.8536 26.979 41.9049 27.0649L43.6219 26.0392ZM42.5762 25.0668C42.1319 24.8366 41.6425 24.7406 41.1405 24.7406V26.7406C41.3885 26.7406 41.5496 26.7874 41.6562 26.8426L42.5762 25.0668ZM41.1405 24.7406C40.6628 24.7406 40.2001 24.8292 39.7617 25.0111L40.5281 26.8585C40.7135 26.7815 40.9147 26.7406 41.1405 26.7406V24.7406ZM39.7666 25.0091C39.3132 25.1944 38.9197 25.4762 38.6105 25.8588L40.1659 27.116C40.2483 27.014 40.3592 26.9275 40.5231 26.8605L39.7666 25.0091ZM38.6147 25.8535C38.2698 26.2745 38.0968 26.7739 38.0708 27.3046L40.0684 27.4025C40.0756 27.2562 40.115 27.1782 40.1617 27.1212L38.6147 25.8535ZM39.0696 26.3536H37.8748V28.3536H39.0696V26.3536ZM38.8741 27.3908C38.887 27.0466 38.9856 26.7785 39.1569 26.5508L37.5585 25.3487C37.1258 25.9241 36.9025 26.5919 36.8755 27.3163L38.8741 27.3908ZM39.1593 26.5476C39.3554 26.2847 39.6155 26.0719 39.9624 25.9115L39.1227 24.0963C38.4938 24.3872 37.964 24.805 37.5561 25.3518L39.1593 26.5476ZM39.96 25.9126C40.3092 25.7521 40.7044 25.6654 41.1604 25.6654V23.6654C40.4415 23.6654 39.7582 23.8043 39.125 24.0952L39.96 25.9126ZM41.1604 25.6654C41.6554 25.6654 42.0188 25.765 42.2906 25.9189L43.276 24.1785C42.6451 23.8213 41.9266 23.6654 41.1604 23.6654V25.6654ZM42.2955 25.9216C42.6032 26.0936 42.8148 26.3047 42.9602 26.5536L44.6872 25.545C44.3481 24.9642 43.8661 24.5082 43.2711 24.1757L42.2955 25.9216ZM42.9602 26.5536C43.1129 26.8151 43.1871 27.0891 43.1871 27.3934H45.1871C45.1871 26.7353 45.0191 26.1131 44.6872 25.545L42.9602 26.5536ZM43.1871 27.3934C43.1871 27.7828 43.0885 28.055 42.9325 28.264L44.5357 29.4598C44.9838 28.8591 45.1871 28.1522 45.1871 27.3934H43.1871ZM42.9294 28.2683C42.7676 28.4876 42.5475 28.6483 42.2243 28.7463L42.8046 30.6602C43.5102 30.4463 44.1033 30.0461 44.5388 29.4556L42.9294 28.2683ZM41.5145 29.7033V29.7829H43.5145V29.7033H41.5145ZM42.3517 30.7696C42.7925 30.8423 43.0636 31.0115 43.2494 31.2382L44.7963 29.9704C44.2586 29.3143 43.5241 28.9359 42.6772 28.7962L42.3517 30.7696ZM43.2518 31.241C43.4451 31.4752 43.5655 31.7832 43.5655 32.2322H45.5655C45.5655 31.3868 45.3241 30.6095 44.7939 29.9676L43.2518 31.241ZM43.5655 32.2322C43.5655 32.5926 43.471 32.8921 43.2871 33.1609L44.9378 34.2903C45.3579 33.6763 45.5655 32.9802 45.5655 32.2322H43.5655ZM43.2862 33.1623C43.0939 33.4443 42.8251 33.6793 42.4499 33.8621L43.3258 35.66C43.9861 35.3384 44.5336 34.883 44.9387 34.2889L43.2862 33.1623ZM42.4499 33.8621C42.0873 34.0387 41.6516 34.1394 41.1206 34.1394V36.1394C41.9105 36.1394 42.6529 35.9879 43.3258 35.66L42.4499 33.8621Z" fill="#2F5764" mask="url(#path-7-outside-1_84_1331)"/>
<defs>
<linearGradient id="paint0_linear_84_1331" x1="3.72513" y1="32.3054" x2="33.5154" y2="49.1976" gradientUnits="userSpaceOnUse">
<stop stop-color="#4A4A4A"/>
<stop offset="1" stop-color="#303030"/>
</linearGradient>
</defs>
</svg>
