<svg width="64" height="64" viewBox="0 0 64 64" fill="none" xmlns="http://www.w3.org/2000/svg">
<path d="M4.4006 33.9298C3.80774 33.582 3.47546 33.1136 3.47547 32.6257L3.47547 30.5016C3.47547 29.9566 3.88975 29.439 4.60873 29.0857L30.1348 16.5442C31.3579 15.9433 33.1609 15.9544 34.3614 16.5703L60.0608 29.7535C60.7487 30.1064 61.1422 30.6122 61.1422 31.1434V32.5436C61.1422 33.0309 60.8108 33.4987 60.2194 33.8464L34.5631 48.9278C33.3018 49.6692 31.2326 49.6699 29.9699 48.9292L4.4006 33.9298Z" fill="url(#paint0_linear_84_1393)"/>
<rect width="34.7831" height="34.7831" rx="2.62954" transform="matrix(0.866044 -0.499967 0.866044 0.499967 2.14404 30.3906)" fill="white"/>
<rect width="10.8697" height="10.8697" transform="matrix(0.866044 -0.499967 0.866044 0.499967 12.2639 30.3906)" fill="#D9D9D9"/>
<rect width="10.8697" height="10.8697" transform="matrix(0.866044 -0.499967 0.866044 0.499967 22.8542 24.2769)" fill="#D9D9D9"/>
<rect width="10.8697" height="10.8697" transform="matrix(0.866044 -0.499967 0.866044 0.499967 22.8542 36.5044)" fill="#D9D9D9"/>
<rect width="10.8697" height="10.8697" transform="matrix(0.866044 -0.499967 0.866044 0.499967 33.4446 30.3906)" fill="#D9D9D9"/>
<mask id="path-7-outside-1_84_1393" maskUnits="userSpaceOnUse" x="18" y="23" width="28" height="13" fill="black">
<rect fill="white" x="18" y="23" width="28" height="13"/>
<path d="M19.9551 32.9092V31.8936L24.4354 24.8048H25.1722V26.3779H24.6744L21.2892 31.7343V31.814H27.3227V32.9092H19.9551ZM24.754 35V32.6005V32.1276V24.8048H25.9288V35H24.754ZM35.182 33.168L29.5666 27.5527L30.3233 26.796L35.9387 32.4114L35.182 33.168ZM30.3233 33.168L29.5666 32.4114L35.182 26.796L35.9387 27.5527L30.3233 33.168ZM38.429 35V34.1039L41.7942 30.4201C42.1891 29.9887 42.5144 29.6136 42.7699 29.295C43.0255 28.9731 43.2146 28.6711 43.3374 28.389C43.4635 28.1036 43.5266 27.8049 43.5266 27.493C43.5266 27.1345 43.4403 26.8242 43.2677 26.562C43.0985 26.2999 42.8662 26.0974 42.5708 25.9547C42.2754 25.812 41.9435 25.7406 41.5752 25.7406C41.1835 25.7406 40.8417 25.822 40.5497 25.9846C40.2609 26.1439 40.0369 26.3679 39.8776 26.6566C39.7216 26.9454 39.6436 27.2839 39.6436 27.6722H38.4688C38.4688 27.0748 38.6065 26.5504 38.882 26.0991C39.1574 25.6477 39.5325 25.2959 40.007 25.0437C40.4849 24.7915 41.0209 24.6654 41.615 24.6654C42.2124 24.6654 42.7417 24.7915 43.203 25.0437C43.6643 25.2959 44.0261 25.6361 44.2883 26.0642C44.5504 26.4923 44.6815 26.9686 44.6815 27.493C44.6815 27.868 44.6135 28.2347 44.4774 28.5931C44.3447 28.9482 44.1124 29.3448 43.7805 29.7829C43.4519 30.2177 42.9956 30.7487 42.4115 31.3759L40.1215 33.8252V33.9048H44.8607V35H38.429Z"/>
</mask>
<path d="M19.9551 32.9092V31.8936L24.4354 24.8048H25.1722V26.3779H24.6744L21.2892 31.7343V31.814H27.3227V32.9092H19.9551ZM24.754 35V32.6005V32.1276V24.8048H25.9288V35H24.754ZM35.182 33.168L29.5666 27.5527L30.3233 26.796L35.9387 32.4114L35.182 33.168ZM30.3233 33.168L29.5666 32.4114L35.182 26.796L35.9387 27.5527L30.3233 33.168ZM38.429 35V34.1039L41.7942 30.4201C42.1891 29.9887 42.5144 29.6136 42.7699 29.295C43.0255 28.9731 43.2146 28.6711 43.3374 28.389C43.4635 28.1036 43.5266 27.8049 43.5266 27.493C43.5266 27.1345 43.4403 26.8242 43.2677 26.562C43.0985 26.2999 42.8662 26.0974 42.5708 25.9547C42.2754 25.812 41.9435 25.7406 41.5752 25.7406C41.1835 25.7406 40.8417 25.822 40.5497 25.9846C40.2609 26.1439 40.0369 26.3679 39.8776 26.6566C39.7216 26.9454 39.6436 27.2839 39.6436 27.6722H38.4688C38.4688 27.0748 38.6065 26.5504 38.882 26.0991C39.1574 25.6477 39.5325 25.2959 40.007 25.0437C40.4849 24.7915 41.0209 24.6654 41.615 24.6654C42.2124 24.6654 42.7417 24.7915 43.203 25.0437C43.6643 25.2959 44.0261 25.6361 44.2883 26.0642C44.5504 26.4923 44.6815 26.9686 44.6815 27.493C44.6815 27.868 44.6135 28.2347 44.4774 28.5931C44.3447 28.9482 44.1124 29.3448 43.7805 29.7829C43.4519 30.2177 42.9956 30.7487 42.4115 31.3759L40.1215 33.8252V33.9048H44.8607V35H38.429Z" fill="#00C1FF"/>
<path d="M19.9551 32.9092H18.9551V33.9092H19.9551V32.9092ZM19.9551 31.8936L19.1098 31.3594L18.9551 31.6041V31.8936H19.9551ZM24.4354 24.8048V23.8048H23.8844L23.5901 24.2705L24.4354 24.8048ZM25.1722 24.8048H26.1722V23.8048H25.1722V24.8048ZM25.1722 26.3779V27.3779H26.1722V26.3779H25.1722ZM24.6744 26.3779V25.3779H24.1234L23.829 25.8436L24.6744 26.3779ZM21.2892 31.7343L20.4439 31.2001L20.2892 31.4448V31.7343H21.2892ZM21.2892 31.814H20.2892V32.814H21.2892V31.814ZM27.3227 31.814H28.3227V30.814H27.3227V31.814ZM27.3227 32.9092V33.9092H28.3227V32.9092H27.3227ZM24.754 35H23.754V36H24.754V35ZM24.754 24.8048V23.8048H23.754V24.8048H24.754ZM25.9288 24.8048H26.9288V23.8048H25.9288V24.8048ZM25.9288 35V36H26.9288V35H25.9288ZM20.9551 32.9092V31.8936H18.9551V32.9092H20.9551ZM20.8004 32.4279L25.2807 25.339L23.5901 24.2705L19.1098 31.3594L20.8004 32.4279ZM24.4354 25.8048H25.1722V23.8048H24.4354V25.8048ZM24.1722 24.8048V26.3779H26.1722V24.8048H24.1722ZM25.1722 25.3779H24.6744V27.3779H25.1722V25.3779ZM23.829 25.8436L20.4439 31.2001L22.1346 32.2686L25.5197 26.9121L23.829 25.8436ZM20.2892 31.7343V31.814H22.2892V31.7343H20.2892ZM21.2892 32.814H27.3227V30.814H21.2892V32.814ZM26.3227 31.814V32.9092H28.3227V31.814H26.3227ZM27.3227 31.9092H19.9551V33.9092H27.3227V31.9092ZM25.754 35V32.6005H23.754V35H25.754ZM25.754 32.6005V32.1276H23.754V32.6005H25.754ZM25.754 32.1276V24.8048H23.754V32.1276H25.754ZM24.754 25.8048H25.9288V23.8048H24.754V25.8048ZM24.9288 24.8048V35H26.9288V24.8048H24.9288ZM25.9288 34H24.754V36H25.9288V34ZM35.182 33.168L34.4749 33.8751L35.182 34.5823L35.8891 33.8751L35.182 33.168ZM29.5666 27.5527L28.8595 26.8456L28.1524 27.5527L28.8595 28.2598L29.5666 27.5527ZM30.3233 26.796L31.0304 26.0889L30.3233 25.3818L29.6162 26.0889L30.3233 26.796ZM35.9387 32.4114L36.6458 33.1185L37.3529 32.4114L36.6458 31.7043L35.9387 32.4114ZM30.3233 33.168L29.6162 33.8751L30.3233 34.5823L31.0304 33.8751L30.3233 33.168ZM29.5666 32.4114L28.8595 31.7043L28.1524 32.4114L28.8595 33.1185L29.5666 32.4114ZM35.182 26.796L35.8891 26.0889L35.182 25.3818L34.4749 26.0889L35.182 26.796ZM35.9387 27.5527L36.6458 28.2598L37.3529 27.5527L36.6458 26.8456L35.9387 27.5527ZM35.8891 32.4609L30.2737 26.8456L28.8595 28.2598L34.4749 33.8751L35.8891 32.4609ZM30.2737 28.2598L31.0304 27.5031L29.6162 26.0889L28.8595 26.8456L30.2737 28.2598ZM29.6162 27.5031L35.2315 33.1185L36.6458 31.7043L31.0304 26.0889L29.6162 27.5031ZM35.2315 31.7043L34.4749 32.4609L35.8891 33.8751L36.6458 33.1185L35.2315 31.7043ZM31.0304 32.4609L30.2737 31.7043L28.8595 33.1185L29.6162 33.8751L31.0304 32.4609ZM30.2737 33.1185L35.8891 27.5031L34.4749 26.0889L28.8595 31.7043L30.2737 33.1185ZM34.4749 27.5031L35.2315 28.2598L36.6458 26.8456L35.8891 26.0889L34.4749 27.5031ZM35.2315 26.8456L29.6162 32.4609L31.0304 33.8751L36.6458 28.2598L35.2315 26.8456ZM38.429 35H37.429V36H38.429V35ZM38.429 34.1039L37.6907 33.4295L37.429 33.7159V34.1039H38.429ZM41.7942 30.4201L41.0566 29.7449L41.0559 29.7456L41.7942 30.4201ZM42.7699 29.295L43.55 29.9207L43.5531 29.9168L42.7699 29.295ZM43.3374 28.389L42.4227 27.9849L42.4205 27.9899L43.3374 28.389ZM43.2677 26.562L42.4276 27.1044L42.4324 27.1119L43.2677 26.562ZM42.5708 25.9547L43.0058 25.0543L43.0058 25.0543L42.5708 25.9547ZM40.5497 25.9846L41.0327 26.8602L41.0361 26.8583L40.5497 25.9846ZM39.8776 26.6566L39.002 26.1735L38.9978 26.1813L39.8776 26.6566ZM39.6436 27.6722V28.6722H40.6436V27.6722H39.6436ZM38.4688 27.6722H37.4688V28.6722H38.4688V27.6722ZM38.882 26.0991L39.7356 26.62L39.7356 26.62L38.882 26.0991ZM40.007 25.0437L39.5403 24.1593L39.5377 24.1607L40.007 25.0437ZM43.203 25.0437L43.6828 24.1663L43.6828 24.1663L43.203 25.0437ZM44.2883 26.0642L43.4355 26.5865L44.2883 26.0642ZM44.4774 28.5931L43.5425 28.2382L43.5407 28.243L44.4774 28.5931ZM43.7805 29.7829L42.9834 29.179L42.9827 29.18L43.7805 29.7829ZM42.4115 31.3759L43.142 32.0589L43.1433 32.0574L42.4115 31.3759ZM40.1215 33.8252L39.3911 33.1422L39.1215 33.4305V33.8252H40.1215ZM40.1215 33.9048H39.1215V34.9048H40.1215V33.9048ZM44.8607 33.9048H45.8607V32.9048H44.8607V33.9048ZM44.8607 35V36H45.8607V35H44.8607ZM39.429 35V34.1039H37.429V35H39.429ZM39.1673 34.7784L42.5325 31.0946L41.0559 29.7456L37.6907 33.4295L39.1673 34.7784ZM42.5318 31.0953C42.9358 30.654 43.2764 30.2618 43.55 29.9207L41.9898 28.6694C41.7523 28.9655 41.4425 29.3233 41.0566 29.7449L42.5318 31.0953ZM43.5531 29.9168C43.8459 29.548 44.0875 29.1715 44.2543 28.7881L42.4205 27.9899C42.3418 28.1708 42.2051 28.3982 41.9867 28.6733L43.5531 29.9168ZM44.2521 28.7932C44.4345 28.3805 44.5266 27.9441 44.5266 27.493H42.5266C42.5266 27.6657 42.4926 27.8267 42.4227 27.9849L44.2521 28.7932ZM44.5266 27.493C44.5266 26.9676 44.3977 26.46 44.103 26.0122L42.4324 27.1119C42.4829 27.1885 42.5266 27.3014 42.5266 27.493H44.5266ZM44.1079 26.0197C43.8338 25.5952 43.4577 25.2726 43.0058 25.0543L42.1358 26.8551C42.2746 26.9222 42.3631 27.0046 42.4276 27.1044L44.1079 26.0197ZM43.0058 25.0543C42.5589 24.8384 42.0755 24.7406 41.5752 24.7406V26.7406C41.8115 26.7406 41.9919 26.7856 42.1358 26.8551L43.0058 25.0543ZM41.5752 24.7406C41.0426 24.7406 40.5277 24.8522 40.0632 25.1109L41.0361 26.8583C41.1557 26.7917 41.3245 26.7406 41.5752 26.7406V24.7406ZM40.0666 25.109C39.6126 25.3595 39.2525 25.7196 39.002 26.1735L40.7532 27.1397C40.8213 27.0162 40.9093 26.9283 41.0327 26.8602L40.0666 25.109ZM38.9978 26.1813C38.7496 26.6407 38.6436 27.1483 38.6436 27.6722H40.6436C40.6436 27.4194 40.6936 27.2501 40.7574 27.1319L38.9978 26.1813ZM39.6436 26.6722H38.4688V28.6722H39.6436V26.6722ZM39.4688 27.6722C39.4688 27.2342 39.5678 26.8949 39.7356 26.62L38.0284 25.5781C37.6452 26.206 37.4688 26.9154 37.4688 27.6722H39.4688ZM39.7356 26.62C39.9161 26.3242 40.1573 26.0963 40.4764 25.9267L39.5377 24.1607C38.9077 24.4955 38.3988 24.9712 38.0284 25.5781L39.7356 26.62ZM40.4738 25.9281C40.7939 25.7591 41.1671 25.6654 41.615 25.6654V23.6654C40.8747 23.6654 40.176 23.8238 39.5403 24.1593L40.4738 25.9281ZM41.615 25.6654C42.0678 25.6654 42.4281 25.7597 42.7233 25.9211L43.6828 24.1663C43.0553 23.8232 42.3569 23.6654 41.615 23.6654V25.6654ZM42.7233 25.9211C43.0389 26.0937 43.2689 26.3144 43.4355 26.5865L45.141 25.542C44.7833 24.9578 44.2898 24.4982 43.6828 24.1663L42.7233 25.9211ZM43.4355 26.5865C43.597 26.8502 43.6815 27.1443 43.6815 27.493H45.6815C45.6815 26.7929 45.5039 26.1345 45.141 25.542L43.4355 26.5865ZM43.6815 27.493C43.6815 27.744 43.6365 27.9906 43.5425 28.2382L45.4123 28.948C45.5905 28.4788 45.6815 27.992 45.6815 27.493H43.6815ZM43.5407 28.243C43.4535 28.4764 43.2805 28.7868 42.9834 29.179L44.5776 30.3868C44.9442 29.9028 45.2359 29.4201 45.4141 28.9433L43.5407 28.243ZM42.9827 29.18C42.6829 29.5766 42.252 30.0798 41.6797 30.6944L43.1433 32.0574C43.7392 31.4175 44.2209 30.8587 44.5783 30.3858L42.9827 29.18ZM41.681 30.693L39.3911 33.1422L40.852 34.5081L43.142 32.0589L41.681 30.693ZM39.1215 33.8252V33.9048H41.1215V33.8252H39.1215ZM40.1215 34.9048H44.8607V32.9048H40.1215V34.9048ZM43.8607 33.9048V35H45.8607V33.9048H43.8607ZM44.8607 34H38.429V36H44.8607V34Z" fill="#2F5764" mask="url(#path-7-outside-1_84_1393)"/>
<defs>
<linearGradient id="paint0_linear_84_1393" x1="3.72513" y1="32.3054" x2="33.5154" y2="49.1976" gradientUnits="userSpaceOnUse">
<stop stop-color="#4A4A4A"/>
<stop offset="1" stop-color="#303030"/>
</linearGradient>
</defs>
</svg>
