<svg width="64" height="64" viewBox="0 0 64 64" fill="none" xmlns="http://www.w3.org/2000/svg">
<path d="M4.4006 33.9298C3.80774 33.582 3.47546 33.1136 3.47547 32.6257L3.47547 30.5016C3.47547 29.9566 3.88975 29.439 4.60873 29.0857L30.1348 16.5442C31.3579 15.9433 33.1609 15.9544 34.3614 16.5703L60.0608 29.7535C60.7487 30.1064 61.1422 30.6122 61.1422 31.1434V32.5436C61.1422 33.0309 60.8108 33.4987 60.2194 33.8464L34.5631 48.9278C33.3018 49.6692 31.2326 49.6699 29.9699 48.9292L4.4006 33.9298Z" fill="url(#paint0_linear_84_1207)"/>
<rect width="34.7831" height="34.7831" rx="2.62954" transform="matrix(0.866044 -0.499967 0.866044 0.499967 2.14404 30.3906)" fill="white"/>
<rect width="10.8697" height="10.8697" transform="matrix(0.866044 -0.499967 0.866044 0.499967 12.2639 30.3906)" fill="#D9D9D9"/>
<rect width="10.8697" height="10.8697" transform="matrix(0.866044 -0.499967 0.866044 0.499967 22.8542 24.2769)" fill="#D9D9D9"/>
<rect width="10.8697" height="10.8697" transform="matrix(0.866044 -0.499967 0.866044 0.499967 22.8542 36.5044)" fill="#D9D9D9"/>
<rect width="10.8697" height="10.8697" transform="matrix(0.866044 -0.499967 0.866044 0.499967 33.4446 30.3906)" fill="#D9D9D9"/>
<mask id="path-7-outside-1_84_1207" maskUnits="userSpaceOnUse" x="19" y="23" width="27" height="14" fill="black">
<rect fill="white" x="19" y="23" width="27" height="14"/>
<path d="M20.3172 35V34.1039L23.6825 30.4201C24.0774 29.9887 24.4026 29.6136 24.6582 29.295C24.9137 28.9731 25.1029 28.6711 25.2257 28.389C25.3518 28.1036 25.4149 27.8049 25.4149 27.493C25.4149 27.1345 25.3286 26.8242 25.156 26.562C24.9867 26.2999 24.7544 26.0974 24.459 25.9547C24.1637 25.812 23.8318 25.7406 23.4634 25.7406C23.0718 25.7406 22.73 25.822 22.4379 25.9846C22.1492 26.1439 21.9252 26.3679 21.7659 26.6566C21.6099 26.9454 21.5319 27.2839 21.5319 27.6722H20.3571C20.3571 27.0748 20.4948 26.5504 20.7702 26.0991C21.0457 25.6477 21.4207 25.2959 21.8953 25.0437C22.3732 24.7915 22.9092 24.6654 23.5032 24.6654C24.1006 24.6654 24.63 24.7915 25.0913 25.0437C25.5526 25.2959 25.9143 25.6361 26.1765 26.0642C26.4387 26.4923 26.5698 26.9686 26.5698 27.493C26.5698 27.868 26.5017 28.2347 26.3657 28.5931C26.2329 28.9482 26.0006 29.3448 25.6687 29.7829C25.3402 30.2177 24.8839 30.7487 24.2997 31.3759L22.0098 33.8252V33.9048H26.749V35H20.3172ZM34.7987 33.168L29.1833 27.5527L29.94 26.796L35.5553 32.4114L34.7987 33.168ZM29.94 33.168L29.1833 32.4114L34.7987 26.796L35.5553 27.5527L29.94 33.168ZM41.4308 35.1394C41.0126 35.1328 40.5945 35.0531 40.1763 34.9004C39.7581 34.7478 39.3765 34.4906 39.0313 34.1288C38.6862 33.7638 38.4091 33.2709 38.2 32.6503C37.9909 32.0264 37.8864 31.2432 37.8864 30.3006C37.8864 29.3979 37.971 28.5981 38.1402 27.9012C38.3095 27.2009 38.5551 26.6118 38.877 26.1339C39.1989 25.6527 39.5872 25.2876 40.0419 25.0387C40.4999 24.7898 41.0159 24.6654 41.5901 24.6654C42.1609 24.6654 42.6687 24.7799 43.1134 25.0089C43.5614 25.2345 43.9265 25.5498 44.2086 25.9547C44.4907 26.3596 44.6732 26.8259 44.7562 27.3536H43.5415C43.4287 26.8956 43.2097 26.5156 42.8844 26.2136C42.5592 25.9116 42.1277 25.7606 41.5901 25.7606C40.8002 25.7606 40.178 26.1041 39.7233 26.791C39.2719 27.478 39.0446 28.4421 39.0413 29.6833H39.1209C39.3068 29.4012 39.5275 29.1606 39.783 28.9615C40.0419 28.7591 40.3273 28.6031 40.6393 28.4936C40.9512 28.384 41.2815 28.3293 41.6299 28.3293C42.214 28.3293 42.7483 28.4753 43.2329 28.7674C43.7174 29.0561 44.1057 29.456 44.3978 29.9671C44.6898 30.4749 44.8358 31.0573 44.8358 31.7144C44.8358 32.345 44.6948 32.9225 44.4127 33.4468C44.1306 33.9679 43.734 34.3827 43.2229 34.6914C42.7152 34.9967 42.1178 35.146 41.4308 35.1394ZM41.4308 34.0442C41.849 34.0442 42.224 33.9397 42.5559 33.7306C42.8911 33.5215 43.1549 33.2411 43.3474 32.8893C43.5432 32.5375 43.6411 32.1459 43.6411 31.7144C43.6411 31.2929 43.5465 30.9096 43.3573 30.5645C43.1715 30.216 42.9143 29.9389 42.5857 29.7331C42.2605 29.5274 41.8888 29.4245 41.4706 29.4245C41.1553 29.4245 40.8616 29.4875 40.5895 29.6136C40.3173 29.7364 40.0784 29.9057 39.8726 30.1214C39.6702 30.3371 39.5109 30.5844 39.3947 30.8632C39.2786 31.1386 39.2205 31.429 39.2205 31.7343C39.2205 32.1392 39.3151 32.5176 39.5043 32.8694C39.6967 33.2211 39.9589 33.5049 40.2908 33.7206C40.626 33.9363 41.006 34.0442 41.4308 34.0442Z"/>
</mask>
<path d="M20.3172 35V34.1039L23.6825 30.4201C24.0774 29.9887 24.4026 29.6136 24.6582 29.295C24.9137 28.9731 25.1029 28.6711 25.2257 28.389C25.3518 28.1036 25.4149 27.8049 25.4149 27.493C25.4149 27.1345 25.3286 26.8242 25.156 26.562C24.9867 26.2999 24.7544 26.0974 24.459 25.9547C24.1637 25.812 23.8318 25.7406 23.4634 25.7406C23.0718 25.7406 22.73 25.822 22.4379 25.9846C22.1492 26.1439 21.9252 26.3679 21.7659 26.6566C21.6099 26.9454 21.5319 27.2839 21.5319 27.6722H20.3571C20.3571 27.0748 20.4948 26.5504 20.7702 26.0991C21.0457 25.6477 21.4207 25.2959 21.8953 25.0437C22.3732 24.7915 22.9092 24.6654 23.5032 24.6654C24.1006 24.6654 24.63 24.7915 25.0913 25.0437C25.5526 25.2959 25.9143 25.6361 26.1765 26.0642C26.4387 26.4923 26.5698 26.9686 26.5698 27.493C26.5698 27.868 26.5017 28.2347 26.3657 28.5931C26.2329 28.9482 26.0006 29.3448 25.6687 29.7829C25.3402 30.2177 24.8839 30.7487 24.2997 31.3759L22.0098 33.8252V33.9048H26.749V35H20.3172ZM34.7987 33.168L29.1833 27.5527L29.94 26.796L35.5553 32.4114L34.7987 33.168ZM29.94 33.168L29.1833 32.4114L34.7987 26.796L35.5553 27.5527L29.94 33.168ZM41.4308 35.1394C41.0126 35.1328 40.5945 35.0531 40.1763 34.9004C39.7581 34.7478 39.3765 34.4906 39.0313 34.1288C38.6862 33.7638 38.4091 33.2709 38.2 32.6503C37.9909 32.0264 37.8864 31.2432 37.8864 30.3006C37.8864 29.3979 37.971 28.5981 38.1402 27.9012C38.3095 27.2009 38.5551 26.6118 38.877 26.1339C39.1989 25.6527 39.5872 25.2876 40.0419 25.0387C40.4999 24.7898 41.0159 24.6654 41.5901 24.6654C42.1609 24.6654 42.6687 24.7799 43.1134 25.0089C43.5614 25.2345 43.9265 25.5498 44.2086 25.9547C44.4907 26.3596 44.6732 26.8259 44.7562 27.3536H43.5415C43.4287 26.8956 43.2097 26.5156 42.8844 26.2136C42.5592 25.9116 42.1277 25.7606 41.5901 25.7606C40.8002 25.7606 40.178 26.1041 39.7233 26.791C39.2719 27.478 39.0446 28.4421 39.0413 29.6833H39.1209C39.3068 29.4012 39.5275 29.1606 39.783 28.9615C40.0419 28.7591 40.3273 28.6031 40.6393 28.4936C40.9512 28.384 41.2815 28.3293 41.6299 28.3293C42.214 28.3293 42.7483 28.4753 43.2329 28.7674C43.7174 29.0561 44.1057 29.456 44.3978 29.9671C44.6898 30.4749 44.8358 31.0573 44.8358 31.7144C44.8358 32.345 44.6948 32.9225 44.4127 33.4468C44.1306 33.9679 43.734 34.3827 43.2229 34.6914C42.7152 34.9967 42.1178 35.146 41.4308 35.1394ZM41.4308 34.0442C41.849 34.0442 42.224 33.9397 42.5559 33.7306C42.8911 33.5215 43.1549 33.2411 43.3474 32.8893C43.5432 32.5375 43.6411 32.1459 43.6411 31.7144C43.6411 31.2929 43.5465 30.9096 43.3573 30.5645C43.1715 30.216 42.9143 29.9389 42.5857 29.7331C42.2605 29.5274 41.8888 29.4245 41.4706 29.4245C41.1553 29.4245 40.8616 29.4875 40.5895 29.6136C40.3173 29.7364 40.0784 29.9057 39.8726 30.1214C39.6702 30.3371 39.5109 30.5844 39.3947 30.8632C39.2786 31.1386 39.2205 31.429 39.2205 31.7343C39.2205 32.1392 39.3151 32.5176 39.5043 32.8694C39.6967 33.2211 39.9589 33.5049 40.2908 33.7206C40.626 33.9363 41.006 34.0442 41.4308 34.0442Z" fill="#00C1FF"/>
<path d="M20.3172 35H19.3172V36H20.3172V35ZM20.3172 34.1039L19.5789 33.4295L19.3172 33.7159V34.1039H20.3172ZM23.6825 30.4201L22.9448 29.7449L22.9441 29.7456L23.6825 30.4201ZM24.6582 29.295L25.4383 29.9207L25.4414 29.9168L24.6582 29.295ZM25.2257 28.389L24.311 27.9849L24.3088 27.9899L25.2257 28.389ZM25.156 26.562L24.3158 27.1044L24.3207 27.1119L25.156 26.562ZM24.459 25.9547L24.8941 25.0543L24.8941 25.0543L24.459 25.9547ZM22.4379 25.9846L22.921 26.8602L22.9244 26.8583L22.4379 25.9846ZM21.7659 26.6566L20.8903 26.1735L20.8861 26.1813L21.7659 26.6566ZM21.5319 27.6722V28.6722H22.5319V27.6722H21.5319ZM20.3571 27.6722H19.3571V28.6722H20.3571V27.6722ZM20.7702 26.0991L21.6238 26.62L21.6238 26.62L20.7702 26.0991ZM21.8953 25.0437L21.4285 24.1593L21.426 24.1607L21.8953 25.0437ZM25.0913 25.0437L25.571 24.1663L25.571 24.1663L25.0913 25.0437ZM26.1765 26.0642L25.3237 26.5865L26.1765 26.0642ZM26.3657 28.5931L25.4308 28.2382L25.429 28.243L26.3657 28.5931ZM25.6687 29.7829L24.8716 29.179L24.8709 29.18L25.6687 29.7829ZM24.2997 31.3759L25.0302 32.0589L25.0316 32.0574L24.2997 31.3759ZM22.0098 33.8252L21.2793 33.1422L21.0098 33.4305V33.8252H22.0098ZM22.0098 33.9048H21.0098V34.9048H22.0098V33.9048ZM26.749 33.9048H27.749V32.9048H26.749V33.9048ZM26.749 35V36H27.749V35H26.749ZM21.3172 35V34.1039H19.3172V35H21.3172ZM21.0555 34.7784L24.4208 31.0946L22.9441 29.7456L19.5789 33.4295L21.0555 34.7784ZM24.4201 31.0953C24.824 30.654 25.1647 30.2618 25.4382 29.9207L23.8781 28.6694C23.6406 28.9655 23.3308 29.3233 22.9448 29.7449L24.4201 31.0953ZM25.4414 29.9168C25.7341 29.548 25.9757 29.1715 26.1426 28.7881L24.3088 27.9899C24.2301 28.1708 24.0933 28.3982 23.8749 28.6733L25.4414 29.9168ZM26.1404 28.7932C26.3227 28.3805 26.4149 27.9441 26.4149 27.493H24.4149C24.4149 27.6657 24.3809 27.8267 24.311 27.9849L26.1404 28.7932ZM26.4149 27.493C26.4149 26.9676 26.286 26.46 25.9913 26.0122L24.3207 27.1119C24.3711 27.1885 24.4149 27.3014 24.4149 27.493H26.4149ZM25.9961 26.0197C25.7221 25.5952 25.346 25.2726 24.8941 25.0543L24.024 26.8551C24.1629 26.9222 24.2514 27.0046 24.3158 27.1044L25.9961 26.0197ZM24.8941 25.0543C24.4472 24.8384 23.9638 24.7406 23.4634 24.7406V26.7406C23.6998 26.7406 23.8802 26.7856 24.024 26.8551L24.8941 25.0543ZM23.4634 24.7406C22.9309 24.7406 22.416 24.8522 21.9514 25.1109L22.9244 26.8583C23.044 26.7917 23.2127 26.7406 23.4634 26.7406V24.7406ZM21.9548 25.109C21.5009 25.3595 21.1408 25.7196 20.8903 26.1735L22.6414 27.1397C22.7096 27.0162 22.7975 26.9283 22.921 26.8602L21.9548 25.109ZM20.8861 26.1813C20.6379 26.6407 20.5319 27.1483 20.5319 27.6722H22.5319C22.5319 27.4194 22.5819 27.2501 22.6457 27.1319L20.8861 26.1813ZM21.5319 26.6722H20.3571V28.6722H21.5319V26.6722ZM21.3571 27.6722C21.3571 27.2342 21.4561 26.8949 21.6238 26.62L19.9167 25.5781C19.5335 26.206 19.3571 26.9154 19.3571 27.6722H21.3571ZM21.6238 26.62C21.8044 26.3242 22.0455 26.0963 22.3646 25.9267L21.426 24.1607C20.7959 24.4955 20.287 24.9712 19.9167 25.5781L21.6238 26.62ZM22.3621 25.9281C22.6822 25.7591 23.0554 25.6654 23.5032 25.6654V23.6654C22.763 23.6654 22.0642 23.8238 21.4285 24.1593L22.3621 25.9281ZM23.5032 25.6654C23.9561 25.6654 24.3164 25.7597 24.6115 25.9211L25.571 24.1663C24.9435 23.8232 24.2451 23.6654 23.5032 23.6654V25.6654ZM24.6115 25.9211C24.9272 26.0937 25.1571 26.3144 25.3237 26.5865L27.0293 25.542C26.6715 24.9578 26.178 24.4982 25.571 24.1663L24.6115 25.9211ZM25.3237 26.5865C25.4852 26.8502 25.5698 27.1443 25.5698 27.493H27.5698C27.5698 26.7929 27.3921 26.1345 27.0293 25.542L25.3237 26.5865ZM25.5698 27.493C25.5698 27.744 25.5248 27.9906 25.4308 28.2382L27.3006 28.948C27.4787 28.4788 27.5698 27.992 27.5698 27.493H25.5698ZM25.429 28.243C25.3417 28.4764 25.1688 28.7868 24.8716 29.179L26.4658 30.3868C26.8324 29.9028 27.1241 29.4201 27.3024 28.9433L25.429 28.243ZM24.8709 29.18C24.5712 29.5766 24.1403 30.0798 23.5679 30.6944L25.0316 32.0574C25.6274 31.4175 26.1092 30.8587 26.4665 30.3858L24.8709 29.18ZM23.5693 30.693L21.2793 33.1422L22.7403 34.5081L25.0302 32.0589L23.5693 30.693ZM21.0098 33.8252V33.9048H23.0098V33.8252H21.0098ZM22.0098 34.9048H26.749V32.9048H22.0098V34.9048ZM25.749 33.9048V35H27.749V33.9048H25.749ZM26.749 34H20.3172V36H26.749V34ZM34.7987 33.168L34.0916 33.8751L34.7987 34.5823L35.5058 33.8751L34.7987 33.168ZM29.1833 27.5527L28.4762 26.8456L27.7691 27.5527L28.4762 28.2598L29.1833 27.5527ZM29.94 26.796L30.6471 26.0889L29.94 25.3818L29.2329 26.0889L29.94 26.796ZM35.5553 32.4114L36.2624 33.1185L36.9696 32.4114L36.2624 31.7043L35.5553 32.4114ZM29.94 33.168L29.2329 33.8751L29.94 34.5823L30.6471 33.8751L29.94 33.168ZM29.1833 32.4114L28.4762 31.7043L27.7691 32.4114L28.4762 33.1185L29.1833 32.4114ZM34.7987 26.796L35.5058 26.0889L34.7987 25.3818L34.0916 26.0889L34.7987 26.796ZM35.5553 27.5527L36.2624 28.2598L36.9696 27.5527L36.2624 26.8456L35.5553 27.5527ZM35.5058 32.4609L29.8904 26.8456L28.4762 28.2598L34.0916 33.8751L35.5058 32.4609ZM29.8904 28.2598L30.6471 27.5031L29.2329 26.0889L28.4762 26.8456L29.8904 28.2598ZM29.2329 27.5031L34.8482 33.1185L36.2624 31.7043L30.6471 26.0889L29.2329 27.5031ZM34.8482 31.7043L34.0916 32.4609L35.5058 33.8751L36.2624 33.1185L34.8482 31.7043ZM30.6471 32.4609L29.8904 31.7043L28.4762 33.1185L29.2329 33.8751L30.6471 32.4609ZM29.8904 33.1185L35.5058 27.5031L34.0916 26.0889L28.4762 31.7043L29.8904 33.1185ZM34.0916 27.5031L34.8482 28.2598L36.2624 26.8456L35.5058 26.0889L34.0916 27.5031ZM34.8482 26.8456L29.2329 32.4609L30.6471 33.8751L36.2624 28.2598L34.8482 26.8456ZM41.4308 35.1394L41.4149 36.1393L41.4211 36.1393L41.4308 35.1394ZM40.1763 34.9004L39.8334 35.8398L39.8334 35.8398L40.1763 34.9004ZM39.0313 34.1288L38.3047 34.8158L38.3078 34.8191L39.0313 34.1288ZM38.2 32.6503L37.2518 32.9681L37.2523 32.9696L38.2 32.6503ZM38.1402 27.9012L39.112 28.1372L39.1122 28.1361L38.1402 27.9012ZM38.877 26.1339L39.7064 26.6926L39.7082 26.6899L38.877 26.1339ZM40.0419 25.0387L39.5644 24.1601L39.5617 24.1616L40.0419 25.0387ZM43.1134 25.0089L42.6556 25.898L42.6636 25.902L43.1134 25.0089ZM44.2086 25.9547L45.0291 25.3831L45.0291 25.3831L44.2086 25.9547ZM44.7562 27.3536V28.3536H45.9257L45.7441 27.1982L44.7562 27.3536ZM43.5415 27.3536L42.5706 27.5928L42.758 28.3536H43.5415V27.3536ZM42.8844 26.2136L42.204 26.9464L42.204 26.9464L42.8844 26.2136ZM39.7233 26.791L38.8894 26.2391L38.8875 26.2419L39.7233 26.791ZM39.0413 29.6833L38.0413 29.6807L38.0386 30.6833H39.0413V29.6833ZM39.1209 29.6833V30.6833H39.6596L39.956 30.2335L39.1209 29.6833ZM39.783 28.9615L40.3977 29.7503L40.3991 29.7492L39.783 28.9615ZM40.6393 28.4936L40.308 27.55L40.6393 28.4936ZM43.2329 28.7674L42.7167 29.6238L42.721 29.6264L43.2329 28.7674ZM44.3978 29.9671L43.5295 30.4632L43.5309 30.4657L44.3978 29.9671ZM44.4127 33.4468L45.2921 33.9229L45.2934 33.9206L44.4127 33.4468ZM43.2229 34.6914L43.7382 35.5484L43.7399 35.5474L43.2229 34.6914ZM42.5559 33.7306L42.0266 32.8821L42.0228 32.8845L42.5559 33.7306ZM43.3474 32.8893L42.4736 32.4029L42.4701 32.4093L43.3474 32.8893ZM43.3573 30.5645L42.4749 31.0351L42.4804 31.0451L43.3573 30.5645ZM42.5857 29.7331L42.0511 30.5782L42.055 30.5806L42.5857 29.7331ZM40.5895 29.6136L41.0008 30.5252L41.0099 30.521L40.5895 29.6136ZM39.8726 30.1214L39.149 29.4312L39.1434 29.4371L39.8726 30.1214ZM39.3947 30.8632L40.3162 31.2517L40.3178 31.2478L39.3947 30.8632ZM39.5043 32.8694L38.6235 33.343L38.627 33.3494L39.5043 32.8694ZM40.2908 33.7206L39.7458 34.5591L39.7496 34.5615L40.2908 33.7206ZM41.4467 34.1395C41.1471 34.1348 40.8393 34.0779 40.5192 33.9611L39.8334 35.8398C40.3496 36.0283 40.8781 36.1307 41.4149 36.1393L41.4467 34.1395ZM40.5192 33.9611C40.2623 33.8673 40.0071 33.7029 39.7548 33.4385L38.3078 34.8191C38.7458 35.2782 39.254 35.6283 39.8334 35.8398L40.5192 33.9611ZM39.758 33.4418C39.5376 33.2087 39.324 32.8544 39.1476 32.331L37.2523 32.9696C37.4942 33.6874 37.8348 34.3188 38.3047 34.8158L39.758 33.4418ZM39.1482 32.3326C38.9847 31.8449 38.8864 31.1778 38.8864 30.3006H36.8864C36.8864 31.3085 36.9971 32.2079 37.2518 32.9681L39.1482 32.3326ZM38.8864 30.3006C38.8864 29.458 38.9656 28.74 39.112 28.1372L37.1685 27.6652C36.9764 28.4562 36.8864 29.3379 36.8864 30.3006H38.8864ZM39.1122 28.1361C39.2603 27.5236 39.4652 27.0507 39.7064 26.6926L38.0476 25.5752C37.645 26.1729 37.3587 26.8782 37.1682 27.6662L39.1122 28.1361ZM39.7082 26.6899C39.9513 26.3266 40.2244 26.0789 40.5221 25.9159L39.5617 24.1616C38.9501 24.4964 38.4466 24.9788 38.0458 25.5779L39.7082 26.6899ZM40.5194 25.9174C40.8164 25.756 41.1655 25.6654 41.5901 25.6654V23.6654C40.8664 23.6654 40.1834 23.8237 39.5644 24.1601L40.5194 25.9174ZM41.5901 25.6654C42.0243 25.6654 42.3713 25.7515 42.6556 25.8979L43.5712 24.1198C42.9661 23.8082 42.2975 23.6654 41.5901 23.6654V25.6654ZM42.6636 25.902C42.9658 26.0542 43.2026 26.2601 43.3881 26.5264L45.0291 25.3831C44.6504 24.8396 44.1571 24.4149 43.5633 24.1158L42.6636 25.902ZM43.3881 26.5264C43.5766 26.7969 43.7069 27.1183 43.7683 27.5089L45.7441 27.1982C45.6395 26.5335 45.4048 25.9223 45.0291 25.3831L43.3881 26.5264ZM44.7562 26.3536H43.5415V28.3536H44.7562V26.3536ZM44.5125 27.1143C44.3561 26.4795 44.0421 25.9239 43.5649 25.4808L42.204 26.9464C42.3772 27.1072 42.5013 27.3117 42.5706 27.5928L44.5125 27.1143ZM43.5649 25.4808C43.0172 24.9722 42.3239 24.7606 41.5901 24.7606V26.7606C41.9316 26.7606 42.1012 26.8509 42.204 26.9464L43.5649 25.4808ZM41.5901 24.7606C40.4478 24.7606 39.5197 25.2868 38.8894 26.2391L40.5572 27.3429C40.8362 26.9214 41.1527 26.7606 41.5901 26.7606V24.7606ZM38.8875 26.2419C38.2881 27.1543 38.0449 28.3377 38.0413 29.6807L40.0413 29.686C40.0443 28.5465 40.2558 27.8017 40.559 27.3401L38.8875 26.2419ZM39.0413 30.6833H39.1209V28.6833H39.0413V30.6833ZM39.956 30.2335C40.0845 30.0385 40.2318 29.8796 40.3977 29.7503L39.1684 28.1727C38.8232 28.4417 38.5291 28.764 38.2859 29.1332L39.956 30.2335ZM40.3991 29.7492C40.5716 29.6143 40.7607 29.5108 40.9705 29.4371L40.308 27.55C39.8939 27.6954 39.5122 27.9038 39.167 28.1738L40.3991 29.7492ZM40.9705 29.4371C41.1704 29.3669 41.3881 29.3293 41.6299 29.3293V27.3293C41.1748 27.3293 40.7321 27.4012 40.308 27.55L40.9705 29.4371ZM41.6299 29.3293C42.0383 29.3293 42.3932 29.4288 42.7167 29.6238L43.7491 27.9109C43.1035 27.5218 42.3898 27.3293 41.6299 27.3293V29.3293ZM42.721 29.6264C43.0509 29.823 43.3191 30.095 43.5295 30.4632L45.266 29.471C44.8923 28.817 44.384 28.2892 43.7448 27.9083L42.721 29.6264ZM43.5309 30.4657C43.7255 30.8039 43.8358 31.2105 43.8358 31.7144H45.8358C45.8358 30.9041 45.6542 30.1458 45.2646 29.4685L43.5309 30.4657ZM43.8358 31.7144C43.8358 32.1897 43.7312 32.6029 43.5321 32.9731L45.2934 33.9206C45.6584 33.242 45.8358 32.5003 45.8358 31.7144H43.8358ZM43.5333 32.9707C43.3367 33.3338 43.0658 33.618 42.706 33.8353L43.7399 35.5474C44.4022 35.1474 44.9245 34.6019 45.2921 33.9229L43.5333 32.9707ZM42.7076 33.8344C42.3821 34.0301 41.9726 34.1446 41.4405 34.1394L41.4211 36.1393C42.263 36.1475 43.0482 35.9633 43.7382 35.5484L42.7076 33.8344ZM41.4308 35.0442C42.0246 35.0442 42.5867 34.893 43.0889 34.5767L42.0228 32.8845C41.8612 32.9863 41.6733 33.0442 41.4308 33.0442V35.0442ZM43.0851 34.579C43.5683 34.2776 43.951 33.8694 44.2246 33.3693L42.4701 32.4093C42.3588 32.6128 42.2138 32.7653 42.0266 32.8821L43.0851 34.579ZM44.2211 33.3756C44.5056 32.8645 44.6411 32.3035 44.6411 31.7144H42.6411C42.6411 31.9882 42.5807 32.2105 42.4736 32.4029L44.2211 33.3756ZM44.6411 31.7144C44.6411 31.1372 44.5099 30.5867 44.2343 30.0838L42.4804 31.0451C42.5831 31.2325 42.6411 31.4487 42.6411 31.7144H44.6411ZM44.2397 30.0939C43.9732 29.5942 43.5961 29.1859 43.1165 28.8856L42.055 30.5806C42.2325 30.6918 42.3698 30.8378 42.475 31.0351L44.2397 30.0939ZM43.1204 28.888C42.6214 28.5723 42.061 28.4245 41.4706 28.4245V30.4245C41.7165 30.4245 41.8996 30.4824 42.0511 30.5782L43.1204 28.888ZM41.4706 28.4245C41.0177 28.4245 40.5797 28.516 40.169 28.7063L41.0099 30.521C41.1436 30.459 41.293 30.4245 41.4706 30.4245V28.4245ZM40.1782 28.7021C39.7889 28.8778 39.4438 29.1222 39.149 29.4312L40.5962 30.8116C40.713 30.6892 40.8458 30.5951 41.0008 30.5252L40.1782 28.7021ZM39.1434 29.4371C38.8572 29.7421 38.633 30.0914 38.4717 30.4785L40.3178 31.2478C40.3888 31.0774 40.4832 30.9321 40.6018 30.8057L39.1434 29.4371ZM38.4733 30.4746C38.3042 30.8757 38.2205 31.2985 38.2205 31.7343H40.2205C40.2205 31.5596 40.253 31.4015 40.3162 31.2517L38.4733 30.4746ZM38.2205 31.7343C38.2205 32.3022 38.3549 32.8435 38.6235 33.343L40.385 32.3957C40.2752 32.1916 40.2205 31.9763 40.2205 31.7343H38.2205ZM38.627 33.3494C38.8978 33.8443 39.2734 34.252 39.7458 34.5591L40.8358 32.8822C40.6445 32.7578 40.4957 32.598 40.3815 32.3893L38.627 33.3494ZM39.7496 34.5615C40.257 34.888 40.8273 35.0442 41.4308 35.0442V33.0442C41.1847 33.0442 40.995 32.9846 40.832 32.8797L39.7496 34.5615Z" fill="#2F5764" mask="url(#path-7-outside-1_84_1207)"/>
<defs>
<linearGradient id="paint0_linear_84_1207" x1="3.72513" y1="32.3054" x2="33.5154" y2="49.1976" gradientUnits="userSpaceOnUse">
<stop stop-color="#4A4A4A"/>
<stop offset="1" stop-color="#303030"/>
</linearGradient>
</defs>
</svg>
