<svg width="64" height="64" viewBox="0 0 64 64" fill="none" xmlns="http://www.w3.org/2000/svg">
<rect width="35.8551" height="35.8551" rx="4.37833" transform="matrix(0.866025 0.5 -0.866025 0.5 31.8887 19)" fill="url(#paint0_linear_2025_964)"/>
<rect width="26.8913" height="4.48189" transform="matrix(0.866025 0.5 0 1 4.71851 39.1685)" fill="url(#paint1_linear_2025_964)"/>
<rect width="26.8913" height="4.48189" transform="matrix(0.866025 -0.5 0 1 35.7698 52.6143)" fill="url(#paint2_linear_2025_964)"/>
<path d="M3.11084 36.9277C3.11084 37.8029 3.72524 38.5952 4.71858 39.1687V43.6506C3.72524 43.0771 3.11084 42.2848 3.11084 41.4096V36.9277Z" fill="url(#paint3_linear_2025_964)"/>
<path d="M28.0071 52.6143C30.1507 53.8519 33.6263 53.8519 35.7699 52.6143V57.0961C33.6263 58.3338 30.1507 58.3338 28.0071 57.0961V52.6143Z" fill="url(#paint4_linear_2025_964)"/>
<path d="M60.6663 36.9277C60.6663 37.8029 60.0519 38.5952 59.0586 39.1687V43.6506C60.0519 43.0771 60.6663 42.2848 60.6663 41.4096V36.9277Z" fill="url(#paint5_linear_2025_964)"/>
<g clip-path="url(#clip0_2025_964)">
<rect width="35.8992" height="35.8992" rx="4.44179" transform="matrix(0.866025 0.5 -0.866025 0.5 31.9104 19)" fill="url(#paint6_linear_2025_964)"/>
<rect width="11.5594" height="11.5594" transform="matrix(0.866025 0.5 -0.866025 0.5 31.9104 19)" fill="black" fill-opacity="0.1"/>
<rect width="11.5594" height="11.5594" transform="matrix(0.866025 0.5 -0.866025 0.5 21.3711 25.085)" fill="black" fill-opacity="0.1"/>
<rect width="11.5594" height="11.5594" transform="matrix(0.866025 0.5 -0.866025 0.5 21.3711 37.2549)" fill="black" fill-opacity="0.1"/>
<rect width="11.5594" height="11.5594" transform="matrix(0.866025 0.5 -0.866025 0.5 42.45 25.085)" fill="black" fill-opacity="0.1"/>
<rect width="11.5594" height="11.5594" transform="matrix(0.866025 0.5 -0.866025 0.5 42.45 37.2549)" fill="black" fill-opacity="0.1"/>
<rect width="11.5594" height="11.5594" transform="matrix(0.866025 0.5 -0.866025 0.5 52.9893 31.1699)" fill="black" fill-opacity="0.1"/>
<rect width="11.5594" height="11.5594" transform="matrix(0.866025 0.5 -0.866025 0.5 10.8315 31.1699)" fill="black" fill-opacity="0.1"/>
<rect width="11.5594" height="11.5594" transform="matrix(0.866025 0.5 -0.866025 0.5 31.9104 43.3398)" fill="black" fill-opacity="0.1"/>
<rect width="11.5594" height="11.5594" transform="matrix(0.866025 0.5 -0.866025 0.5 31.9104 31.1699)" fill="black" fill-opacity="0.1"/>
</g>
<rect width="36.3283" height="36.3283" rx="4.43612" transform="matrix(0.866025 0.5 -0.866025 0.5 31.478 18.4604)" fill="url(#paint7_linear_2025_964)"/>
<rect width="27.2462" height="4.54104" transform="matrix(0.866025 0.5 0 1 3.94922 38.8955)" fill="url(#paint8_linear_2025_964)"/>
<rect width="27.2462" height="4.54104" transform="matrix(0.866025 -0.5 0 1 35.4104 52.5186)" fill="url(#paint9_linear_2025_964)"/>
<path d="M2.32056 36.625C2.32056 37.5117 2.94306 38.3144 3.94952 38.8955V43.4366C2.94306 42.8555 2.32056 42.0527 2.32056 41.166V36.625Z" fill="url(#paint10_linear_2025_964)"/>
<path d="M27.5452 52.5186C29.7171 53.7725 33.2385 53.7725 35.4105 52.5186V57.0596C33.2385 58.3136 29.7171 58.3136 27.5452 57.0596V52.5186Z" fill="url(#paint11_linear_2025_964)"/>
<path d="M60.6356 36.625C60.6356 37.5117 60.013 38.3144 59.0066 38.8955V43.4366C60.013 42.8555 60.6356 42.0527 60.6356 41.166V36.625Z" fill="url(#paint12_linear_2025_964)"/>
<g clip-path="url(#clip1_2025_964)">
<rect width="11.712" height="11.712" transform="matrix(0.866025 0.5 -0.866025 0.5 31.5 18.4604)" fill="white" fill-opacity="0.2"/>
<rect width="11.712" height="11.712" transform="matrix(0.866025 0.5 -0.866025 0.5 20.8213 24.626)" fill="white" fill-opacity="0.2"/>
<rect width="11.712" height="11.712" transform="matrix(0.866025 0.5 -0.866025 0.5 20.8215 36.9561)" fill="white" fill-opacity="0.2"/>
<rect width="11.712" height="11.712" transform="matrix(0.866025 0.5 -0.866025 0.5 42.1785 24.6255)" fill="white" fill-opacity="0.2"/>
<rect width="11.712" height="11.712" transform="matrix(0.866025 0.5 -0.866025 0.5 42.1785 36.9561)" fill="white" fill-opacity="0.2"/>
<rect width="11.712" height="11.712" transform="matrix(0.866025 0.5 -0.866025 0.5 52.8569 30.791)" fill="white" fill-opacity="0.2"/>
<rect width="11.712" height="11.712" transform="matrix(0.866025 0.5 -0.866025 0.5 10.1428 30.791)" fill="white" fill-opacity="0.2"/>
<rect width="11.712" height="11.712" transform="matrix(0.866025 0.5 -0.866025 0.5 31.5 43.1216)" fill="white" fill-opacity="0.2"/>
<rect width="11.712" height="11.712" transform="matrix(0.866025 0.5 -0.866025 0.5 31.5 30.791)" fill="white" fill-opacity="0.2"/>
</g>
<mask id="path-33-outside-1_2025_964" maskUnits="userSpaceOnUse" x="10" y="19" width="45" height="19" fill="black">
<rect fill="white" x="10" y="19" width="45" height="19"/>
<path d="M11.3515 37V34.4452L17.3209 28.9179C17.8286 28.4266 18.2544 27.9845 18.5983 27.5914C18.9477 27.1984 19.2124 26.8135 19.3926 26.4368C19.5727 26.0547 19.6628 25.6425 19.6628 25.2004C19.6628 24.7091 19.5509 24.286 19.3271 23.9311C19.1033 23.5709 18.7976 23.2952 18.41 23.1041C18.0224 22.9076 17.5829 22.8093 17.0916 22.8093C16.5785 22.8093 16.1308 22.913 15.7487 23.1205C15.3666 23.3279 15.0718 23.6254 14.8643 24.013C14.6569 24.4006 14.5532 24.8619 14.5532 25.3969H11.1877C11.1877 24.2996 11.4361 23.347 11.9329 22.5391C12.4296 21.7312 13.1257 21.1061 14.0209 20.6639C14.9162 20.2218 15.948 20.0007 17.1162 20.0007C18.3172 20.0007 19.3626 20.2136 20.2524 20.6394C21.1477 21.0597 21.8437 21.6438 22.3405 22.3917C22.8372 23.1396 23.0856 23.9967 23.0856 24.9629C23.0856 25.5961 22.96 26.2212 22.7089 26.8381C22.4633 27.4549 22.0238 28.14 21.3906 28.8934C20.7573 29.6413 19.8648 30.5393 18.7129 31.5874L16.2646 33.9866V34.1013H23.3067V37H11.3515ZM36.1688 34.6745L26.3835 24.9056L28.5289 22.7356L38.3224 32.5291L36.1688 34.6745ZM28.5289 34.6745L26.3835 32.5291L36.1688 22.7356L38.3224 24.9056L28.5289 34.6745ZM41.5486 37V34.4452L47.518 28.9179C48.0257 28.4266 48.4515 27.9845 48.7955 27.5914C49.1448 27.1984 49.4096 26.8135 49.5897 26.4368C49.7699 26.0547 49.86 25.6425 49.86 25.2004C49.86 24.7091 49.7481 24.286 49.5242 23.9311C49.3004 23.5709 48.9947 23.2952 48.6071 23.1041C48.2195 22.9076 47.7801 22.8093 47.2888 22.8093C46.7756 22.8093 46.328 22.913 45.9459 23.1205C45.5637 23.3279 45.2689 23.6254 45.0615 24.013C44.8541 24.4006 44.7503 24.8619 44.7503 25.3969H41.3849C41.3849 24.2996 41.6332 23.347 42.13 22.5391C42.6268 21.7312 43.3228 21.1061 44.2181 20.6639C45.1134 20.2218 46.1451 20.0007 47.3133 20.0007C48.5143 20.0007 49.5597 20.2136 50.4495 20.6394C51.3448 21.0597 52.0408 21.6438 52.5376 22.3917C53.0344 23.1396 53.2828 23.9967 53.2828 24.9629C53.2828 25.5961 53.1572 26.2212 52.9061 26.8381C52.6604 27.4549 52.221 28.14 51.5877 28.8934C50.9545 29.6413 50.0619 30.5393 48.9101 31.5874L46.4617 33.9866V34.1013H53.5038V37H41.5486Z"/>
</mask>
<path d="M11.3515 37V34.4452L17.3209 28.9179C17.8286 28.4266 18.2544 27.9845 18.5983 27.5914C18.9477 27.1984 19.2124 26.8135 19.3926 26.4368C19.5727 26.0547 19.6628 25.6425 19.6628 25.2004C19.6628 24.7091 19.5509 24.286 19.3271 23.9311C19.1033 23.5709 18.7976 23.2952 18.41 23.1041C18.0224 22.9076 17.5829 22.8093 17.0916 22.8093C16.5785 22.8093 16.1308 22.913 15.7487 23.1205C15.3666 23.3279 15.0718 23.6254 14.8643 24.013C14.6569 24.4006 14.5532 24.8619 14.5532 25.3969H11.1877C11.1877 24.2996 11.4361 23.347 11.9329 22.5391C12.4296 21.7312 13.1257 21.1061 14.0209 20.6639C14.9162 20.2218 15.948 20.0007 17.1162 20.0007C18.3172 20.0007 19.3626 20.2136 20.2524 20.6394C21.1477 21.0597 21.8437 21.6438 22.3405 22.3917C22.8372 23.1396 23.0856 23.9967 23.0856 24.9629C23.0856 25.5961 22.96 26.2212 22.7089 26.8381C22.4633 27.4549 22.0238 28.14 21.3906 28.8934C20.7573 29.6413 19.8648 30.5393 18.7129 31.5874L16.2646 33.9866V34.1013H23.3067V37H11.3515ZM36.1688 34.6745L26.3835 24.9056L28.5289 22.7356L38.3224 32.5291L36.1688 34.6745ZM28.5289 34.6745L26.3835 32.5291L36.1688 22.7356L38.3224 24.9056L28.5289 34.6745ZM41.5486 37V34.4452L47.518 28.9179C48.0257 28.4266 48.4515 27.9845 48.7955 27.5914C49.1448 27.1984 49.4096 26.8135 49.5897 26.4368C49.7699 26.0547 49.86 25.6425 49.86 25.2004C49.86 24.7091 49.7481 24.286 49.5242 23.9311C49.3004 23.5709 48.9947 23.2952 48.6071 23.1041C48.2195 22.9076 47.7801 22.8093 47.2888 22.8093C46.7756 22.8093 46.328 22.913 45.9459 23.1205C45.5637 23.3279 45.2689 23.6254 45.0615 24.013C44.8541 24.4006 44.7503 24.8619 44.7503 25.3969H41.3849C41.3849 24.2996 41.6332 23.347 42.13 22.5391C42.6268 21.7312 43.3228 21.1061 44.2181 20.6639C45.1134 20.2218 46.1451 20.0007 47.3133 20.0007C48.5143 20.0007 49.5597 20.2136 50.4495 20.6394C51.3448 21.0597 52.0408 21.6438 52.5376 22.3917C53.0344 23.1396 53.2828 23.9967 53.2828 24.9629C53.2828 25.5961 53.1572 26.2212 52.9061 26.8381C52.6604 27.4549 52.221 28.14 51.5877 28.8934C50.9545 29.6413 50.0619 30.5393 48.9101 31.5874L46.4617 33.9866V34.1013H53.5038V37H41.5486Z" fill="white"/>
<path d="M11.3515 37H10.5279V37.8235H11.3515V37ZM11.3515 34.4452L10.792 33.8409L10.5279 34.0854V34.4452H11.3515ZM17.3209 28.9179L17.8804 29.5222L17.8871 29.5161L17.8936 29.5097L17.3209 28.9179ZM18.5983 27.5914L17.9828 27.0443L17.9785 27.0491L18.5983 27.5914ZM19.3926 26.4368L20.1355 26.7922L20.1375 26.788L19.3926 26.4368ZM19.3271 23.9311L18.6275 24.3657L18.6305 24.3705L19.3271 23.9311ZM18.41 23.1041L18.0375 23.8387L18.0458 23.8428L18.41 23.1041ZM14.8643 24.013L15.5904 24.4016L15.5904 24.4016L14.8643 24.013ZM14.5532 25.3969V26.2204H15.3767V25.3969H14.5532ZM11.1877 25.3969H10.3642V26.2204H11.1877V25.3969ZM11.9329 22.5391L12.6344 22.9704L12.6344 22.9704L11.9329 22.5391ZM14.0209 20.6639L13.6562 19.9256L13.6562 19.9256L14.0209 20.6639ZM20.2524 20.6394L19.8969 21.3822L19.9024 21.3848L20.2524 20.6394ZM22.3405 22.3917L21.6545 22.8474L21.6545 22.8474L22.3405 22.3917ZM22.7089 26.8381L21.9462 26.5276L21.9438 26.5334L22.7089 26.8381ZM21.3906 28.8934L22.0191 29.4255L22.021 29.4233L21.3906 28.8934ZM18.7129 31.5874L18.1587 30.9783L18.1474 30.9885L18.1366 30.9992L18.7129 31.5874ZM16.2646 33.9866L15.6882 33.3984L15.4411 33.6406V33.9866H16.2646ZM16.2646 34.1013H15.4411V34.9248H16.2646V34.1013ZM23.3067 34.1013H24.1302V33.2777H23.3067V34.1013ZM23.3067 37V37.8235H24.1302V37H23.3067ZM11.3515 37H12.175V34.4452H11.3515H10.5279V37H11.3515ZM11.3515 34.4452L11.911 35.0495L17.8804 29.5222L17.3209 28.9179L16.7614 28.3137L10.792 33.8409L11.3515 34.4452ZM17.3209 28.9179L17.8936 29.5097C18.4124 29.0077 18.855 28.5487 19.2181 28.1337L18.5983 27.5914L17.9785 27.0491C17.6538 27.4203 17.2448 27.8456 16.7482 28.3262L17.3209 28.9179ZM18.5983 27.5914L19.2138 28.1385C19.6018 27.702 19.9148 27.2537 20.1355 26.7921L19.3926 26.4368L18.6497 26.0815C18.5101 26.3733 18.2936 26.6947 17.9828 27.0443L18.5983 27.5914ZM19.3926 26.4368L20.1375 26.788C20.3718 26.2909 20.4863 25.7582 20.4863 25.2004H19.6628H18.8393C18.8393 25.5269 18.7736 25.8185 18.6477 26.0857L19.3926 26.4368ZM19.6628 25.2004H20.4863C20.4863 24.5806 20.3437 23.9993 20.0236 23.4918L19.3271 23.9311L18.6305 24.3705C18.7581 24.5727 18.8393 24.8375 18.8393 25.2004H19.6628ZM19.3271 23.9311L20.0266 23.4966C19.72 23.003 19.297 22.6232 18.7741 22.3655L18.41 23.1041L18.0458 23.8428C18.2982 23.9671 18.4865 24.1387 18.6275 24.3657L19.3271 23.9311ZM18.41 23.1041L18.7824 22.3696C18.2651 22.1073 17.6953 21.9858 17.0916 21.9858V22.8093V23.6329C17.4706 23.6329 17.7797 23.7079 18.0375 23.8386L18.41 23.1041ZM17.0916 22.8093V21.9858C16.466 21.9858 15.8786 22.1129 15.3558 22.3967L15.7487 23.1205L16.1416 23.8442C16.3831 23.7132 16.691 23.6329 17.0916 23.6329V22.8093ZM15.7487 23.1205L15.3558 22.3967C14.8306 22.6818 14.4208 23.0966 14.1383 23.6244L14.8643 24.013L15.5904 24.4016C15.7228 24.1543 15.9025 23.974 16.1416 23.8442L15.7487 23.1205ZM14.8643 24.013L14.1383 23.6244C13.8544 24.1548 13.7297 24.7555 13.7297 25.3969H14.5532H15.3767C15.3767 24.9684 15.4594 24.6464 15.5904 24.4016L14.8643 24.013ZM14.5532 25.3969V24.5734H11.1877V25.3969V26.2204H14.5532V25.3969ZM11.1877 25.3969H12.0112C12.0112 24.4276 12.2292 23.6294 12.6344 22.9704L11.9329 22.5391L11.2313 22.1078C10.6429 23.0647 10.3642 24.1717 10.3642 25.3969H11.1877ZM11.9329 22.5391L12.6344 22.9704C13.0456 22.3016 13.6216 21.7797 14.3856 21.4023L14.0209 20.6639L13.6562 19.9256C12.6297 20.4326 11.8136 21.1607 11.2313 22.1078L11.9329 22.5391ZM14.0209 20.6639L14.3856 21.4023C15.1497 21.0249 16.053 20.8242 17.1162 20.8242V20.0007V19.1771C15.8429 19.1771 14.6827 19.4186 13.6562 19.9256L14.0209 20.6639ZM17.1162 20.0007V20.8242C18.2204 20.8242 19.1396 21.0198 19.8969 21.3822L20.2524 20.6394L20.6079 19.8965C19.5856 19.4073 18.4139 19.1771 17.1162 19.1771V20.0007ZM20.2524 20.6394L19.9024 21.3848C20.6756 21.7478 21.2494 22.2375 21.6545 22.8474L22.3405 22.3917L23.0264 21.9361C22.438 21.0501 21.6198 20.3716 20.6024 19.8939L20.2524 20.6394ZM22.3405 22.3917L21.6545 22.8474C22.0546 23.4498 22.2621 24.1458 22.2621 24.9629H23.0856H23.9091C23.9091 23.8475 23.6198 22.8294 23.0264 21.9361L22.3405 22.3917ZM23.0856 24.9629H22.2621C22.2621 25.4842 22.1593 26.0041 21.9462 26.5276L22.7089 26.8381L23.4717 27.1486C23.7608 26.4383 23.9091 25.7081 23.9091 24.9629H23.0856ZM22.7089 26.8381L21.9438 26.5334C21.7424 27.0392 21.3614 27.6483 20.7602 28.3635L21.3906 28.8934L22.021 29.4233C22.6863 28.6318 23.1842 27.8706 23.474 27.1428L22.7089 26.8381ZM21.3906 28.8934L20.7621 28.3612C20.1612 29.0709 19.2976 29.942 18.1587 30.9783L18.7129 31.5874L19.2672 32.1965C20.432 31.1366 21.3535 30.2117 22.0191 29.4255L21.3906 28.8934ZM18.7129 31.5874L18.1366 30.9992L15.6882 33.3984L16.2646 33.9866L16.841 34.5748L19.2893 32.1756L18.7129 31.5874ZM16.2646 33.9866H15.4411V34.1013H16.2646H17.0881V33.9866H16.2646ZM16.2646 34.1013V34.9248H23.3067V34.1013V33.2777H16.2646V34.1013ZM23.3067 34.1013H22.4832V37H23.3067H24.1302V34.1013H23.3067ZM23.3067 37V36.1765H11.3515V37V37.8235H23.3067V37ZM36.1688 34.6745L35.5869 35.2573L36.1682 35.8375L36.75 35.2579L36.1688 34.6745ZM26.3835 24.9056L25.7979 24.3266L25.2217 24.9094L25.8017 25.4884L26.3835 24.9056ZM28.5289 22.7356L29.1112 22.1533L28.5256 21.5677L27.9433 22.1566L28.5289 22.7356ZM38.3224 32.5291L38.9036 33.1125L39.4881 32.5302L38.9047 31.9468L38.3224 32.5291ZM28.5289 34.6745L27.9466 35.2568L28.5282 35.8384L29.1105 35.2575L28.5289 34.6745ZM26.3835 32.5291L25.801 31.947L25.2191 32.5293L25.8012 33.1114L26.3835 32.5291ZM36.1688 22.7356L36.7533 22.1555L36.1708 21.5685L35.5862 22.1535L36.1688 22.7356ZM38.3224 24.9056L38.904 25.4886L39.4855 24.9085L38.9069 24.3255L38.3224 24.9056ZM36.1688 34.6745L36.7506 34.0917L26.9654 24.3228L26.3835 24.9056L25.8017 25.4884L35.5869 35.2573L36.1688 34.6745ZM26.3835 24.9056L26.9692 25.4846L29.1145 23.3146L28.5289 22.7356L27.9433 22.1566L25.7979 24.3266L26.3835 24.9056ZM28.5289 22.7356L27.9466 23.3179L37.74 33.1114L38.3224 32.5291L38.9047 31.9468L29.1112 22.1533L28.5289 22.7356ZM38.3224 32.5291L37.7411 31.9456L35.5876 34.091L36.1688 34.6745L36.75 35.2579L38.9036 33.1125L38.3224 32.5291ZM28.5289 34.6745L29.1112 34.0921L26.9658 31.9468L26.3835 32.5291L25.8012 33.1114L27.9466 35.2568L28.5289 34.6745ZM26.3835 32.5291L26.9661 33.1112L36.7514 23.3177L36.1688 22.7356L35.5862 22.1535L25.801 31.947L26.3835 32.5291ZM36.1688 22.7356L35.5843 23.3157L37.7378 25.4857L38.3224 24.9056L38.9069 24.3255L36.7533 22.1555L36.1688 22.7356ZM38.3224 24.9056L37.7408 24.3225L27.9473 34.0914L28.5289 34.6745L29.1105 35.2575L38.904 25.4886L38.3224 24.9056ZM41.5486 37H40.7251V37.8235H41.5486V37ZM41.5486 34.4452L40.9891 33.8409L40.7251 34.0854V34.4452H41.5486ZM47.518 28.9179L48.0776 29.5222L48.0842 29.5161L48.0907 29.5097L47.518 28.9179ZM48.7955 27.5914L48.1799 27.0443L48.1757 27.0491L48.7955 27.5914ZM49.5897 26.4368L50.3327 26.7922L50.3346 26.788L49.5897 26.4368ZM49.5242 23.9311L48.8247 24.3657L48.8277 24.3705L49.5242 23.9311ZM48.6071 23.1041L48.2347 23.8387L48.243 23.8428L48.6071 23.1041ZM45.0615 24.013L45.7876 24.4016L45.7876 24.4016L45.0615 24.013ZM44.7503 25.3969V26.2204H45.5739V25.3969H44.7503ZM41.3849 25.3969H40.5613V26.2204H41.3849V25.3969ZM42.13 22.5391L42.8315 22.9704L42.8315 22.9704L42.13 22.5391ZM44.2181 20.6639L43.8534 19.9256L43.8534 19.9256L44.2181 20.6639ZM50.4495 20.6394L50.094 21.3822L50.0995 21.3848L50.4495 20.6394ZM52.5376 22.3917L51.8516 22.8474L51.8516 22.8474L52.5376 22.3917ZM52.9061 26.8381L52.1433 26.5276L52.141 26.5334L52.9061 26.8381ZM51.5877 28.8934L52.2162 29.4255L52.2181 29.4233L51.5877 28.8934ZM48.9101 31.5874L48.3558 30.9783L48.3446 30.9885L48.3337 30.9992L48.9101 31.5874ZM46.4617 33.9866L45.8853 33.3984L45.6382 33.6406V33.9866H46.4617ZM46.4617 34.1013H45.6382V34.9248H46.4617V34.1013ZM53.5038 34.1013H54.3274V33.2777H53.5038V34.1013ZM53.5038 37V37.8235H54.3274V37H53.5038ZM41.5486 37H42.3722V34.4452H41.5486H40.7251V37H41.5486ZM41.5486 34.4452L42.1081 35.0495L48.0776 29.5222L47.518 28.9179L46.9585 28.3137L40.9891 33.8409L41.5486 34.4452ZM47.518 28.9179L48.0907 29.5097C48.6095 29.0077 49.0521 28.5487 49.4152 28.1337L48.7955 27.5914L48.1757 27.0491C47.8509 27.4203 47.442 27.8456 46.9453 28.3262L47.518 28.9179ZM48.7955 27.5914L49.411 28.1385C49.799 27.702 50.1119 27.2537 50.3327 26.7921L49.5897 26.4368L48.8468 26.0815C48.7073 26.3733 48.4907 26.6947 48.1799 27.0443L48.7955 27.5914ZM49.5897 26.4368L50.3346 26.788C50.569 26.2909 50.6835 25.7582 50.6835 25.2004H49.86H49.0364C49.0364 25.5269 48.9708 25.8185 48.8448 26.0857L49.5897 26.4368ZM49.86 25.2004H50.6835C50.6835 24.5806 50.5409 23.9993 50.2208 23.4918L49.5242 23.9311L48.8277 24.3705C48.9552 24.5727 49.0364 24.8375 49.0364 25.2004H49.86ZM49.5242 23.9311L50.2238 23.4966C49.9172 23.003 49.4941 22.6232 48.9712 22.3655L48.6071 23.1041L48.243 23.8428C48.4953 23.9671 48.6837 24.1387 48.8247 24.3657L49.5242 23.9311ZM48.6071 23.1041L48.9795 22.3696C48.4622 22.1073 47.8924 21.9858 47.2888 21.9858V22.8093V23.6329C47.6677 23.6329 47.9768 23.7079 48.2347 23.8386L48.6071 23.1041ZM47.2888 22.8093V21.9858C46.6631 21.9858 46.0757 22.1129 45.553 22.3967L45.9459 23.1205L46.3388 23.8442C46.5803 23.7132 46.8881 23.6329 47.2888 23.6329V22.8093ZM45.9459 23.1205L45.553 22.3967C45.0278 22.6818 44.6179 23.0966 44.3354 23.6244L45.0615 24.013L45.7876 24.4016C45.92 24.1543 46.0997 23.974 46.3388 23.8442L45.9459 23.1205ZM45.0615 24.013L44.3354 23.6244C44.0515 24.1548 43.9268 24.7555 43.9268 25.3969H44.7503H45.5739C45.5739 24.9684 45.6566 24.6464 45.7876 24.4016L45.0615 24.013ZM44.7503 25.3969V24.5734H41.3849V25.3969V26.2204H44.7503V25.3969ZM41.3849 25.3969H42.2084C42.2084 24.4276 42.4264 23.6294 42.8315 22.9704L42.13 22.5391L41.4285 22.1078C40.8401 23.0647 40.5613 24.1717 40.5613 25.3969H41.3849ZM42.13 22.5391L42.8315 22.9704C43.2428 22.3016 43.8187 21.7797 44.5828 21.4023L44.2181 20.6639L43.8534 19.9256C42.8269 20.4326 42.0108 21.1607 41.4285 22.1078L42.13 22.5391ZM44.2181 20.6639L44.5828 21.4023C45.3469 21.0249 46.2502 20.8242 47.3133 20.8242V20.0007V19.1771C46.04 19.1771 44.8798 19.4186 43.8534 19.9256L44.2181 20.6639ZM47.3133 20.0007V20.8242C48.4176 20.8242 49.3367 21.0198 50.0941 21.3822L50.4495 20.6394L50.805 19.8965C49.7827 19.4073 48.6111 19.1771 47.3133 19.1771V20.0007ZM50.4495 20.6394L50.0995 21.3848C50.8727 21.7478 51.4465 22.2375 51.8516 22.8474L52.5376 22.3917L53.2236 21.9361C52.6351 21.0501 51.8169 20.3716 50.7995 19.8939L50.4495 20.6394ZM52.5376 22.3917L51.8516 22.8474C52.2518 23.4498 52.4592 24.1458 52.4592 24.9629H53.2828H54.1063C54.1063 23.8475 53.817 22.8294 53.2236 21.9361L52.5376 22.3917ZM53.2828 24.9629H52.4592C52.4592 25.4842 52.3564 26.0041 52.1433 26.5276L52.9061 26.8381L53.6688 27.1486C53.958 26.4383 54.1063 25.7081 54.1063 24.9629H53.2828ZM52.9061 26.8381L52.141 26.5334C51.9395 27.0392 51.5585 27.6483 50.9573 28.3635L51.5877 28.8934L52.2181 29.4233C52.8834 28.6318 53.3813 27.8706 53.6712 27.1428L52.9061 26.8381ZM51.5877 28.8934L50.9592 28.3612C50.3584 29.0709 49.4947 29.942 48.3558 30.9783L48.9101 31.5874L49.4643 32.1965C50.6292 31.1366 51.5506 30.2117 52.2162 29.4255L51.5877 28.8934ZM48.9101 31.5874L48.3337 30.9992L45.8853 33.3984L46.4617 33.9866L47.0381 34.5748L49.4865 32.1756L48.9101 31.5874ZM46.4617 33.9866H45.6382V34.1013H46.4617H47.2853V33.9866H46.4617ZM46.4617 34.1013V34.9248H53.5038V34.1013V33.2777H46.4617V34.1013ZM53.5038 34.1013H52.6803V37H53.5038H54.3274V34.1013H53.5038ZM53.5038 37V36.1765H41.5486V37V37.8235H53.5038V37Z" fill="#2B3F46" mask="url(#path-33-outside-1_2025_964)"/>
<defs>
<linearGradient id="paint0_linear_2025_964" x1="35.8411" y1="35.864" x2="-1.88188" y2="2.08424" gradientUnits="userSpaceOnUse">
<stop stop-color="#FFD5EF"/>
<stop offset="1" stop-color="#EFBDFD"/>
</linearGradient>
<linearGradient id="paint1_linear_2025_964" x1="26.8809" y1="4.483" x2="25.174" y2="-4.68761" gradientUnits="userSpaceOnUse">
<stop stop-color="#F95457"/>
<stop offset="1" stop-color="#FDBDCB"/>
</linearGradient>
<linearGradient id="paint2_linear_2025_964" x1="26.8809" y1="4.483" x2="25.174" y2="-4.68761" gradientUnits="userSpaceOnUse">
<stop stop-color="#F95457"/>
<stop offset="1" stop-color="#FDBDCB"/>
</linearGradient>
<linearGradient id="paint3_linear_2025_964" x1="4.71795" y1="43.6522" x2="1.80375" y2="43.0282" gradientUnits="userSpaceOnUse">
<stop stop-color="#F95457"/>
<stop offset="1" stop-color="#FDBDCB"/>
</linearGradient>
<linearGradient id="paint4_linear_2025_964" x1="35.7669" y1="58.0257" x2="30.2155" y2="50.8928" gradientUnits="userSpaceOnUse">
<stop stop-color="#F95457"/>
<stop offset="1" stop-color="#FDBDCB"/>
</linearGradient>
<linearGradient id="paint5_linear_2025_964" x1="60.6657" y1="43.6522" x2="57.7515" y2="43.0282" gradientUnits="userSpaceOnUse">
<stop stop-color="#F95457"/>
<stop offset="1" stop-color="#FDBDCB"/>
</linearGradient>
<linearGradient id="paint6_linear_2025_964" x1="-1.09962e-05" y1="-0.0328651" x2="30.641" y2="-4.05264" gradientUnits="userSpaceOnUse">
<stop stop-color="#D74446"/>
<stop offset="1" stop-color="#E165B8"/>
</linearGradient>
<linearGradient id="paint7_linear_2025_964" x1="-1.11276e-05" y1="-0.033258" x2="31.0073" y2="-4.10108" gradientUnits="userSpaceOnUse">
<stop stop-color="#D74446"/>
<stop offset="1" stop-color="#E165B8"/>
</linearGradient>
<linearGradient id="paint8_linear_2025_964" x1="-8.34573e-06" y1="-0.00415724" x2="14.606" y2="-11.5011" gradientUnits="userSpaceOnUse">
<stop stop-color="#D1369D"/>
<stop offset="1" stop-color="#B31E20"/>
</linearGradient>
<linearGradient id="paint9_linear_2025_964" x1="-8.34573e-06" y1="-0.00415724" x2="14.606" y2="-11.5011" gradientUnits="userSpaceOnUse">
<stop stop-color="#D74446"/>
<stop offset="1" stop-color="#E165B8"/>
</linearGradient>
<linearGradient id="paint10_linear_2025_964" x1="2.32056" y1="36.6188" x2="3.73346" y2="36.5744" gradientUnits="userSpaceOnUse">
<stop stop-color="#D74446"/>
<stop offset="1" stop-color="#D1369D"/>
</linearGradient>
<linearGradient id="paint11_linear_2025_964" x1="27.5452" y1="52.5135" x2="34.1403" y2="51.2721" gradientUnits="userSpaceOnUse">
<stop stop-color="#B31E20"/>
<stop offset="1" stop-color="#D74446"/>
</linearGradient>
<linearGradient id="paint12_linear_2025_964" x1="59.0066" y1="36.6188" x2="60.4195" y2="36.5744" gradientUnits="userSpaceOnUse">
<stop stop-color="#E165B8"/>
<stop offset="1" stop-color="#D74446"/>
</linearGradient>
<clipPath id="clip0_2025_964">
<rect width="35.8992" height="35.8992" rx="4.44179" transform="matrix(0.866025 0.5 -0.866025 0.5 31.9104 19)" fill="white"/>
</clipPath>
<clipPath id="clip1_2025_964">
<rect width="36.3731" height="36.3731" rx="4.50041" transform="matrix(0.866025 0.5 -0.866025 0.5 31.5 18.4604)" fill="white"/>
</clipPath>
</defs>
</svg>
