<svg width="64" height="64" viewBox="0 0 64 64" fill="none" xmlns="http://www.w3.org/2000/svg">
<rect width="35.8551" height="35.8551" rx="4.37833" transform="matrix(0.866025 0.5 -0.866025 0.5 31.8887 19)" fill="url(#paint0_linear_2025_1144)"/>
<rect width="26.8913" height="4.48189" transform="matrix(0.866025 0.5 0 1 4.71851 39.1685)" fill="url(#paint1_linear_2025_1144)"/>
<rect width="26.8913" height="4.48189" transform="matrix(0.866025 -0.5 0 1 35.7698 52.6143)" fill="url(#paint2_linear_2025_1144)"/>
<path d="M3.11084 36.9277C3.11084 37.8029 3.72524 38.5952 4.71858 39.1687V43.6506C3.72524 43.0771 3.11084 42.2848 3.11084 41.4096V36.9277Z" fill="url(#paint3_linear_2025_1144)"/>
<path d="M28.0071 52.6143C30.1507 53.8519 33.6263 53.8519 35.7699 52.6143V57.0961C33.6263 58.3338 30.1507 58.3338 28.0071 57.0961V52.6143Z" fill="url(#paint4_linear_2025_1144)"/>
<path d="M60.6663 36.9277C60.6663 37.8029 60.0519 38.5952 59.0586 39.1687V43.6506C60.0519 43.0771 60.6663 42.2848 60.6663 41.4096V36.9277Z" fill="url(#paint5_linear_2025_1144)"/>
<g clip-path="url(#clip0_2025_1144)">
<rect width="35.8992" height="35.8992" rx="4.44179" transform="matrix(0.866025 0.5 -0.866025 0.5 31.9104 19)" fill="url(#paint6_linear_2025_1144)"/>
<rect width="11.5594" height="11.5594" transform="matrix(0.866025 0.5 -0.866025 0.5 31.9104 19)" fill="black" fill-opacity="0.1"/>
<rect width="11.5594" height="11.5594" transform="matrix(0.866025 0.5 -0.866025 0.5 21.3711 25.085)" fill="black" fill-opacity="0.1"/>
<rect width="11.5594" height="11.5594" transform="matrix(0.866025 0.5 -0.866025 0.5 21.3711 37.2549)" fill="black" fill-opacity="0.1"/>
<rect width="11.5594" height="11.5594" transform="matrix(0.866025 0.5 -0.866025 0.5 42.45 25.085)" fill="black" fill-opacity="0.1"/>
<rect width="11.5594" height="11.5594" transform="matrix(0.866025 0.5 -0.866025 0.5 42.45 37.2549)" fill="black" fill-opacity="0.1"/>
<rect width="11.5594" height="11.5594" transform="matrix(0.866025 0.5 -0.866025 0.5 52.9893 31.1699)" fill="black" fill-opacity="0.1"/>
<rect width="11.5594" height="11.5594" transform="matrix(0.866025 0.5 -0.866025 0.5 10.8315 31.1699)" fill="black" fill-opacity="0.1"/>
<rect width="11.5594" height="11.5594" transform="matrix(0.866025 0.5 -0.866025 0.5 31.9104 43.3398)" fill="black" fill-opacity="0.1"/>
<rect width="11.5594" height="11.5594" transform="matrix(0.866025 0.5 -0.866025 0.5 31.9104 31.1699)" fill="black" fill-opacity="0.1"/>
</g>
<rect width="36.3283" height="36.3283" rx="4.43612" transform="matrix(0.866025 0.5 -0.866025 0.5 31.478 18.4604)" fill="url(#paint7_linear_2025_1144)"/>
<rect width="27.2462" height="4.54104" transform="matrix(0.866025 0.5 0 1 3.94922 38.8955)" fill="url(#paint8_linear_2025_1144)"/>
<rect width="27.2462" height="4.54104" transform="matrix(0.866025 -0.5 0 1 35.4104 52.5186)" fill="url(#paint9_linear_2025_1144)"/>
<path d="M2.32056 36.625C2.32056 37.5117 2.94306 38.3144 3.94952 38.8955V43.4366C2.94306 42.8555 2.32056 42.0527 2.32056 41.166V36.625Z" fill="url(#paint10_linear_2025_1144)"/>
<path d="M27.5452 52.5186C29.7171 53.7725 33.2385 53.7725 35.4105 52.5186V57.0596C33.2385 58.3136 29.7171 58.3136 27.5452 57.0596V52.5186Z" fill="url(#paint11_linear_2025_1144)"/>
<path d="M60.6356 36.625C60.6356 37.5117 60.013 38.3144 59.0066 38.8955V43.4366C60.013 42.8555 60.6356 42.0527 60.6356 41.166V36.625Z" fill="url(#paint12_linear_2025_1144)"/>
<g clip-path="url(#clip1_2025_1144)">
<rect width="11.712" height="11.712" transform="matrix(0.866025 0.5 -0.866025 0.5 31.5 18.4604)" fill="white" fill-opacity="0.2"/>
<rect width="11.712" height="11.712" transform="matrix(0.866025 0.5 -0.866025 0.5 20.8213 24.626)" fill="white" fill-opacity="0.2"/>
<rect width="11.712" height="11.712" transform="matrix(0.866025 0.5 -0.866025 0.5 20.8215 36.9561)" fill="white" fill-opacity="0.2"/>
<rect width="11.712" height="11.712" transform="matrix(0.866025 0.5 -0.866025 0.5 42.1785 24.6255)" fill="white" fill-opacity="0.2"/>
<rect width="11.712" height="11.712" transform="matrix(0.866025 0.5 -0.866025 0.5 42.1785 36.9561)" fill="white" fill-opacity="0.2"/>
<rect width="11.712" height="11.712" transform="matrix(0.866025 0.5 -0.866025 0.5 52.8569 30.791)" fill="white" fill-opacity="0.2"/>
<rect width="11.712" height="11.712" transform="matrix(0.866025 0.5 -0.866025 0.5 10.1428 30.791)" fill="white" fill-opacity="0.2"/>
<rect width="11.712" height="11.712" transform="matrix(0.866025 0.5 -0.866025 0.5 31.5 43.1216)" fill="white" fill-opacity="0.2"/>
<rect width="11.712" height="11.712" transform="matrix(0.866025 0.5 -0.866025 0.5 31.5 30.791)" fill="white" fill-opacity="0.2"/>
</g>
<mask id="path-33-outside-1_2025_1144" maskUnits="userSpaceOnUse" x="9" y="19" width="47" height="20" fill="black">
<rect fill="white" x="9" y="19" width="47" height="20"/>
<path d="M16.8746 37.2293C15.6518 37.2293 14.5627 37.0191 13.6074 36.5988C12.6575 36.173 11.9069 35.5888 11.3556 34.8464C10.8097 34.0985 10.5285 33.236 10.5122 32.2589H14.0823C14.1042 32.6683 14.2379 33.0286 14.4836 33.3397C14.7347 33.6454 15.0677 33.8829 15.4826 34.0521C15.8975 34.2214 16.3642 34.306 16.8828 34.306C17.4233 34.306 17.9009 34.2104 18.3158 34.0194C18.7307 33.8283 19.0555 33.5636 19.2902 33.2251C19.525 32.8866 19.6423 32.4963 19.6423 32.0541C19.6423 31.6065 19.5168 31.2107 19.2657 30.8668C19.02 30.5174 18.6652 30.2445 18.2012 30.048C17.7426 29.8514 17.1967 29.7532 16.5635 29.7532H14.9995V27.1492H16.5635C17.0984 27.1492 17.5706 27.0564 17.9801 26.8708C18.395 26.6852 18.717 26.4286 18.9463 26.1011C19.1756 25.7681 19.2902 25.3805 19.2902 24.9383C19.2902 24.518 19.1892 24.1495 18.9873 23.8329C18.7907 23.5108 18.5123 23.2597 18.152 23.0795C17.7972 22.8994 17.3823 22.8093 16.9074 22.8093C16.427 22.8093 15.9875 22.8967 15.589 23.0714C15.1905 23.2406 14.8712 23.4835 14.631 23.8001C14.3908 24.1168 14.2625 24.488 14.2461 24.9138H10.8479C10.8643 23.9475 11.1399 23.0959 11.6749 22.359C12.2099 21.622 12.9305 21.0461 13.8367 20.6312C14.7483 20.2108 15.7774 20.0007 16.9238 20.0007C18.0811 20.0007 19.0937 20.2108 19.9617 20.6312C20.8297 21.0515 21.5039 21.6193 21.9842 22.3344C22.4701 23.0441 22.7103 23.8411 22.7048 24.7254C22.7103 25.6644 22.4182 26.4477 21.8287 27.0755C21.2446 27.7033 20.483 28.1018 19.5441 28.2711V28.4021C20.7778 28.5604 21.7168 28.9889 22.3609 29.6877C23.0105 30.381 23.3326 31.2489 23.3272 32.2916C23.3326 33.2469 23.0569 34.0958 22.5001 34.8382C21.9488 35.5807 21.1872 36.1648 20.2155 36.5906C19.2438 37.0164 18.1302 37.2293 16.8746 37.2293ZM36.1688 34.6745L26.3835 24.9056L28.5289 22.7356L38.3224 32.5291L36.1688 34.6745ZM28.5289 34.6745L26.3835 32.5291L36.1688 22.7356L38.3224 24.9056L28.5289 34.6745ZM47.7473 37.2293C46.5245 37.2293 45.4354 37.0191 44.4801 36.5988C43.5302 36.173 42.7796 35.5888 42.2283 34.8464C41.6824 34.0985 41.4012 33.236 41.3849 32.2589H44.955C44.9769 32.6683 45.1106 33.0286 45.3563 33.3397C45.6074 33.6454 45.9404 33.8829 46.3553 34.0521C46.7702 34.2214 47.2369 34.306 47.7555 34.306C48.296 34.306 48.7736 34.2104 49.1885 34.0194C49.6034 33.8283 49.9282 33.5636 50.1629 33.2251C50.3977 32.8866 50.515 32.4963 50.515 32.0541C50.515 31.6065 50.3895 31.2107 50.1384 30.8668C49.8927 30.5174 49.5379 30.2445 49.0739 30.048C48.6153 29.8514 48.0694 29.7532 47.4362 29.7532H45.8722V27.1492H47.4362C47.9711 27.1492 48.4434 27.0564 48.8528 26.8708C49.2677 26.6852 49.5897 26.4286 49.819 26.1011C50.0483 25.7681 50.1629 25.3805 50.1629 24.9383C50.1629 24.518 50.0619 24.1495 49.86 23.8329C49.6634 23.5108 49.385 23.2597 49.0247 23.0795C48.6699 22.8994 48.255 22.8093 47.7801 22.8093C47.2997 22.8093 46.8602 22.8967 46.4617 23.0714C46.0632 23.2406 45.7439 23.4835 45.5037 23.8001C45.2635 24.1168 45.1352 24.488 45.1188 24.9138H41.7206C41.737 23.9475 42.0126 23.0959 42.5476 22.359C43.0826 21.622 43.8032 21.0461 44.7094 20.6312C45.621 20.2108 46.6501 20.0007 47.7965 20.0007C48.9538 20.0007 49.9664 20.2108 50.8344 20.6312C51.7024 21.0515 52.3766 21.6193 52.857 22.3344C53.3428 23.0441 53.583 23.8411 53.5775 24.7254C53.583 25.6644 53.2909 26.4477 52.7014 27.0755C52.1173 27.7033 51.3557 28.1018 50.4168 28.2711V28.4021C51.6505 28.5604 52.5895 28.9889 53.2336 29.6877C53.8832 30.381 54.2053 31.2489 54.1999 32.2916C54.2053 33.2469 53.9296 34.0958 53.3728 34.8382C52.8215 35.5807 52.0599 36.1648 51.0882 36.5906C50.1165 37.0164 49.0029 37.2293 47.7473 37.2293Z"/>
</mask>
<path d="M16.8746 37.2293C15.6518 37.2293 14.5627 37.0191 13.6074 36.5988C12.6575 36.173 11.9069 35.5888 11.3556 34.8464C10.8097 34.0985 10.5285 33.236 10.5122 32.2589H14.0823C14.1042 32.6683 14.2379 33.0286 14.4836 33.3397C14.7347 33.6454 15.0677 33.8829 15.4826 34.0521C15.8975 34.2214 16.3642 34.306 16.8828 34.306C17.4233 34.306 17.9009 34.2104 18.3158 34.0194C18.7307 33.8283 19.0555 33.5636 19.2902 33.2251C19.525 32.8866 19.6423 32.4963 19.6423 32.0541C19.6423 31.6065 19.5168 31.2107 19.2657 30.8668C19.02 30.5174 18.6652 30.2445 18.2012 30.048C17.7426 29.8514 17.1967 29.7532 16.5635 29.7532H14.9995V27.1492H16.5635C17.0984 27.1492 17.5706 27.0564 17.9801 26.8708C18.395 26.6852 18.717 26.4286 18.9463 26.1011C19.1756 25.7681 19.2902 25.3805 19.2902 24.9383C19.2902 24.518 19.1892 24.1495 18.9873 23.8329C18.7907 23.5108 18.5123 23.2597 18.152 23.0795C17.7972 22.8994 17.3823 22.8093 16.9074 22.8093C16.427 22.8093 15.9875 22.8967 15.589 23.0714C15.1905 23.2406 14.8712 23.4835 14.631 23.8001C14.3908 24.1168 14.2625 24.488 14.2461 24.9138H10.8479C10.8643 23.9475 11.1399 23.0959 11.6749 22.359C12.2099 21.622 12.9305 21.0461 13.8367 20.6312C14.7483 20.2108 15.7774 20.0007 16.9238 20.0007C18.0811 20.0007 19.0937 20.2108 19.9617 20.6312C20.8297 21.0515 21.5039 21.6193 21.9842 22.3344C22.4701 23.0441 22.7103 23.8411 22.7048 24.7254C22.7103 25.6644 22.4182 26.4477 21.8287 27.0755C21.2446 27.7033 20.483 28.1018 19.5441 28.2711V28.4021C20.7778 28.5604 21.7168 28.9889 22.3609 29.6877C23.0105 30.381 23.3326 31.2489 23.3272 32.2916C23.3326 33.2469 23.0569 34.0958 22.5001 34.8382C21.9488 35.5807 21.1872 36.1648 20.2155 36.5906C19.2438 37.0164 18.1302 37.2293 16.8746 37.2293ZM36.1688 34.6745L26.3835 24.9056L28.5289 22.7356L38.3224 32.5291L36.1688 34.6745ZM28.5289 34.6745L26.3835 32.5291L36.1688 22.7356L38.3224 24.9056L28.5289 34.6745ZM47.7473 37.2293C46.5245 37.2293 45.4354 37.0191 44.4801 36.5988C43.5302 36.173 42.7796 35.5888 42.2283 34.8464C41.6824 34.0985 41.4012 33.236 41.3849 32.2589H44.955C44.9769 32.6683 45.1106 33.0286 45.3563 33.3397C45.6074 33.6454 45.9404 33.8829 46.3553 34.0521C46.7702 34.2214 47.2369 34.306 47.7555 34.306C48.296 34.306 48.7736 34.2104 49.1885 34.0194C49.6034 33.8283 49.9282 33.5636 50.1629 33.2251C50.3977 32.8866 50.515 32.4963 50.515 32.0541C50.515 31.6065 50.3895 31.2107 50.1384 30.8668C49.8927 30.5174 49.5379 30.2445 49.0739 30.048C48.6153 29.8514 48.0694 29.7532 47.4362 29.7532H45.8722V27.1492H47.4362C47.9711 27.1492 48.4434 27.0564 48.8528 26.8708C49.2677 26.6852 49.5897 26.4286 49.819 26.1011C50.0483 25.7681 50.1629 25.3805 50.1629 24.9383C50.1629 24.518 50.0619 24.1495 49.86 23.8329C49.6634 23.5108 49.385 23.2597 49.0247 23.0795C48.6699 22.8994 48.255 22.8093 47.7801 22.8093C47.2997 22.8093 46.8602 22.8967 46.4617 23.0714C46.0632 23.2406 45.7439 23.4835 45.5037 23.8001C45.2635 24.1168 45.1352 24.488 45.1188 24.9138H41.7206C41.737 23.9475 42.0126 23.0959 42.5476 22.359C43.0826 21.622 43.8032 21.0461 44.7094 20.6312C45.621 20.2108 46.6501 20.0007 47.7965 20.0007C48.9538 20.0007 49.9664 20.2108 50.8344 20.6312C51.7024 21.0515 52.3766 21.6193 52.857 22.3344C53.3428 23.0441 53.583 23.8411 53.5775 24.7254C53.583 25.6644 53.2909 26.4477 52.7014 27.0755C52.1173 27.7033 51.3557 28.1018 50.4168 28.2711V28.4021C51.6505 28.5604 52.5895 28.9889 53.2336 29.6877C53.8832 30.381 54.2053 31.2489 54.1999 32.2916C54.2053 33.2469 53.9296 34.0958 53.3728 34.8382C52.8215 35.5807 52.0599 36.1648 51.0882 36.5906C50.1165 37.0164 49.0029 37.2293 47.7473 37.2293Z" fill="white"/>
<path d="M13.6074 36.5988L13.2705 37.3503L13.2757 37.3526L13.6074 36.5988ZM11.3556 34.8464L10.6904 35.332L10.6944 35.3374L11.3556 34.8464ZM10.5122 32.2589V31.4353H9.67471L9.68874 32.2727L10.5122 32.2589ZM14.0823 32.2589L14.9047 32.215L14.8631 31.4353H14.0823V32.2589ZM14.4836 33.3397L13.8372 33.85L13.8422 33.8563L13.8472 33.8625L14.4836 33.3397ZM15.4826 34.0521L15.1715 34.8147L15.1715 34.8147L15.4826 34.0521ZM18.3158 34.0194L17.9713 33.2714L17.9713 33.2714L18.3158 34.0194ZM19.2902 33.2251L19.9669 33.6944L19.9669 33.6944L19.2902 33.2251ZM19.2657 30.8668L18.592 31.3405L18.5962 31.3465L18.6006 31.3524L19.2657 30.8668ZM18.2012 30.048L17.8768 30.8049L17.88 30.8063L18.2012 30.048ZM14.9995 29.7532H14.1759V30.5767H14.9995V29.7532ZM14.9995 27.1492V26.3257H14.1759V27.1492H14.9995ZM17.9801 26.8708L17.6438 26.1191L17.64 26.1208L17.9801 26.8708ZM18.9463 26.1011L19.621 26.5734L19.6246 26.5681L18.9463 26.1011ZM18.9873 23.8329L18.2843 24.2618L18.2885 24.2689L18.293 24.2758L18.9873 23.8329ZM18.152 23.0795L17.7792 23.8139L17.7837 23.8161L18.152 23.0795ZM15.589 23.0714L15.9109 23.8294L15.9197 23.8256L15.589 23.0714ZM14.631 23.8001L15.2871 24.2979L15.2871 24.2979L14.631 23.8001ZM14.2461 24.9138V25.7373H15.0386L15.069 24.9454L14.2461 24.9138ZM10.8479 24.9138L10.0245 24.8998L10.0103 25.7373H10.8479V24.9138ZM11.6749 22.359L12.3414 22.8427L12.3414 22.8427L11.6749 22.359ZM13.8367 20.6312L14.1795 21.38L14.1815 21.379L13.8367 20.6312ZM19.9617 20.6312L20.3206 19.89L20.3206 19.89L19.9617 20.6312ZM21.9842 22.3344L21.3006 22.7936L21.3047 22.7996L21.9842 22.3344ZM22.7048 24.7254L21.8813 24.7203L21.8813 24.7302L22.7048 24.7254ZM21.8287 27.0755L21.2284 26.5118L21.2258 26.5146L21.8287 27.0755ZM19.5441 28.2711L19.398 27.4606L18.7205 27.5827V28.2711H19.5441ZM19.5441 28.4021H18.7205V29.1267L19.4393 29.2189L19.5441 28.4021ZM22.3609 29.6877L21.7554 30.2459L21.76 30.2508L22.3609 29.6877ZM23.3272 32.2916L22.5036 32.2873L22.5036 32.2963L23.3272 32.2916ZM22.5001 34.8382L21.8413 34.3441L21.839 34.3472L22.5001 34.8382ZM20.2155 36.5906L19.885 35.8363L19.885 35.8363L20.2155 36.5906ZM16.8746 37.2293V36.4057C15.7466 36.4057 14.7735 36.2121 13.9391 35.845L13.6074 36.5988L13.2757 37.3526C14.352 37.8261 15.557 38.0528 16.8746 38.0528V37.2293ZM13.6074 36.5988L13.9443 35.8473C13.1066 35.4718 12.4739 34.9711 12.0167 34.3554L11.3556 34.8464L10.6944 35.3374C11.3399 36.2066 12.2085 36.8742 13.2705 37.3502L13.6074 36.5988ZM11.3556 34.8464L12.0207 34.3609C11.5807 33.758 11.3493 33.0624 11.3356 32.2451L10.5122 32.2589L9.68874 32.2727C9.7078 33.4096 10.0386 34.4391 10.6904 35.332L11.3556 34.8464ZM10.5122 32.2589V33.0824H14.0823V32.2589V31.4353H10.5122V32.2589ZM14.0823 32.2589L13.26 32.3027C13.2906 32.8759 13.4823 33.4005 13.8372 33.85L14.4836 33.3397L15.13 32.8294C14.9935 32.6566 14.9178 32.4607 14.9047 32.215L14.0823 32.2589ZM14.4836 33.3397L13.8472 33.8625C14.1961 34.2872 14.647 34.6007 15.1715 34.8147L15.4826 34.0521L15.7936 33.2896C15.4884 33.1651 15.2733 33.0037 15.1199 32.817L14.4836 33.3397ZM15.4826 34.0521L15.1715 34.8147C15.6995 35.03 16.2742 35.1295 16.8828 35.1295V34.306V33.4825C16.4543 33.4825 16.0955 33.4127 15.7936 33.2896L15.4826 34.0521ZM16.8828 34.306V35.1295C17.5206 35.1295 18.1194 35.0165 18.6603 34.7674L18.3158 34.0194L17.9713 33.2714C17.6825 33.4044 17.3259 33.4825 16.8828 33.4825V34.306ZM18.3158 34.0194L18.6603 34.7674C19.1939 34.5217 19.6394 34.1666 19.9669 33.6944L19.2902 33.2251L18.6135 32.7558C18.4716 32.9605 18.2675 33.135 17.9713 33.2714L18.3158 34.0194ZM19.2902 33.2251L19.9669 33.6944C20.3044 33.2078 20.4659 32.6511 20.4659 32.0541H19.6423H18.8188C18.8188 32.3416 18.7455 32.5655 18.6135 32.7558L19.2902 33.2251ZM19.6423 32.0541H20.4659C20.4659 31.4414 20.2903 30.8736 19.9308 30.3812L19.2657 30.8668L18.6006 31.3524C18.7433 31.5479 18.8188 31.7716 18.8188 32.0541H19.6423ZM19.2657 30.8668L19.9393 30.3931C19.5902 29.8966 19.1023 29.5353 18.5223 29.2896L18.2012 30.048L17.88 30.8063C18.228 30.9537 18.4498 31.1382 18.592 31.3405L19.2657 30.8668ZM18.2012 30.048L18.5256 29.291C17.9409 29.0404 17.2793 28.9296 16.5635 28.9296V29.7532V30.5767C17.1141 30.5767 17.5443 30.6624 17.8768 30.8049L18.2012 30.048ZM16.5635 29.7532V28.9296H14.9995V29.7532V30.5767H16.5635V29.7532ZM14.9995 29.7532H15.823V27.1492H14.9995H14.1759V29.7532H14.9995ZM14.9995 27.1492V27.9728H16.5635V27.1492V26.3257H14.9995V27.1492ZM16.5635 27.1492V27.9728C17.1937 27.9728 17.7855 27.8632 18.3201 27.6209L17.9801 26.8708L17.64 26.1208C17.3558 26.2496 17.0031 26.3257 16.5635 26.3257V27.1492ZM17.9801 26.8708L18.3164 27.6226C18.8483 27.3846 19.2951 27.0389 19.621 26.5734L18.9463 26.1011L18.2717 25.6288C18.139 25.8183 17.9417 25.9858 17.6438 26.1191L17.9801 26.8708ZM18.9463 26.1011L19.6246 26.5681C19.9573 26.0849 20.1138 25.5309 20.1138 24.9383H19.2902H18.4667C18.4667 25.2301 18.3938 25.4513 18.268 25.6341L18.9463 26.1011ZM19.2902 24.9383H20.1138C20.1138 24.3804 19.9777 23.8543 19.6815 23.39L18.9873 23.8329L18.293 24.2758C18.4007 24.4447 18.4667 24.6556 18.4667 24.9383H19.2902ZM18.9873 23.8329L19.6903 23.4039C19.4077 22.9409 19.0091 22.5873 18.5203 22.343L18.152 23.0795L17.7837 23.8161C18.0156 23.932 18.1737 24.0807 18.2843 24.2618L18.9873 23.8329ZM18.152 23.0795L18.5248 22.3452C18.0342 22.0961 17.487 21.9858 16.9074 21.9858V22.8093V23.6329C17.2776 23.6329 17.5602 23.7027 17.7792 23.8139L18.152 23.0795ZM16.9074 22.8093V21.9858C16.3251 21.9858 15.7715 22.0922 15.2584 22.3171L15.589 23.0714L15.9197 23.8256C16.2035 23.7012 16.5289 23.6329 16.9074 23.6329V22.8093ZM15.589 23.0714L15.2671 22.3133C14.7486 22.5335 14.3095 22.8613 13.9749 23.3024L14.631 23.8001L15.2871 24.2979C15.4328 24.1057 15.6324 23.9476 15.9109 23.8294L15.589 23.0714ZM14.631 23.8001L13.9749 23.3024C13.6251 23.7635 13.4456 24.3004 13.4232 24.8821L14.2461 24.9138L15.069 24.9454C15.0794 24.6756 15.1565 24.47 15.2871 24.2979L14.631 23.8001ZM14.2461 24.9138V24.0902H10.8479V24.9138V25.7373H14.2461V24.9138ZM10.8479 24.9138L11.6713 24.9277C11.685 24.1196 11.9119 23.4343 12.3414 22.8427L11.6749 22.359L11.0085 21.8752C10.368 22.7575 10.0435 23.7755 10.0245 24.8998L10.8479 24.9138ZM11.6749 22.359L12.3414 22.8427C12.7854 22.2311 13.3897 21.7416 14.1795 21.38L13.8367 20.6312L13.4939 19.8824C12.4713 20.3506 11.6344 21.0129 11.0085 21.8752L11.6749 22.359ZM13.8367 20.6312L14.1815 21.379C14.9707 21.0152 15.8795 20.8242 16.9238 20.8242V20.0007V19.1771C15.6752 19.1771 14.526 19.4065 13.4919 19.8833L13.8367 20.6312ZM16.9238 20.0007V20.8242C17.9813 20.8242 18.8668 21.016 19.6027 21.3724L19.9617 20.6312L20.3206 19.89C19.3206 19.4057 18.1808 19.1771 16.9238 19.1771V20.0007ZM19.9617 20.6312L19.6027 21.3724C20.3555 21.7369 20.911 22.2135 21.3006 22.7936L21.9842 22.3344L22.6679 21.8752C22.0967 21.025 21.3039 20.3661 20.3206 19.89L19.9617 20.6312ZM21.9842 22.3344L21.3047 22.7996C21.693 23.3667 21.8858 23.9987 21.8813 24.7203L22.7048 24.7254L23.5284 24.7305C23.5348 23.6834 23.2472 22.7214 22.6638 21.8692L21.9842 22.3344ZM22.7048 24.7254L21.8813 24.7302C21.8857 25.4789 21.6597 26.0524 21.2284 26.5118L21.8287 27.0755L22.429 27.6393C23.1767 26.8431 23.5349 25.8499 23.5284 24.7206L22.7048 24.7254ZM21.8287 27.0755L21.2258 26.5146C20.7766 26.9973 20.1825 27.3192 19.398 27.4606L19.5441 28.2711L19.6901 29.0815C20.7836 28.8845 21.7125 28.4093 22.4316 27.6365L21.8287 27.0755ZM19.5441 28.2711H18.7205V28.4021H19.5441H20.3676V28.2711H19.5441ZM19.5441 28.4021L19.4393 29.2189C20.541 29.3603 21.2785 29.7285 21.7554 30.2459L22.3609 29.6877L22.9664 29.1295C22.155 28.2493 21.0146 27.7605 19.6489 27.5852L19.5441 28.4021ZM22.3609 29.6877L21.76 30.2508C22.251 30.7747 22.5081 31.4329 22.5036 32.2873L23.3272 32.2916L24.1507 32.2959C24.1571 31.065 23.7701 29.9872 22.9619 29.1246L22.3609 29.6877ZM23.3272 32.2916L22.5036 32.2963C22.5081 33.0775 22.2869 33.75 21.8413 34.3441L22.5001 34.8382L23.1589 35.3324C23.827 34.4416 24.1571 33.4163 24.1507 32.2869L23.3272 32.2916ZM22.5001 34.8382L21.839 34.3472C21.3849 34.9586 20.7451 35.4594 19.885 35.8363L20.2155 36.5906L20.5461 37.3449C21.6294 36.8701 22.5126 36.2027 23.1613 35.3292L22.5001 34.8382ZM20.2155 36.5906L19.885 35.8363C19.0348 36.2088 18.037 36.4057 16.8746 36.4057V37.2293V38.0528C18.2234 38.0528 19.4528 37.8239 20.5461 37.3449L20.2155 36.5906ZM36.1688 34.6745L35.5869 35.2573L36.1682 35.8375L36.75 35.2579L36.1688 34.6745ZM26.3835 24.9056L25.7979 24.3266L25.2217 24.9094L25.8017 25.4884L26.3835 24.9056ZM28.5289 22.7356L29.1112 22.1533L28.5256 21.5677L27.9433 22.1566L28.5289 22.7356ZM38.3224 32.5291L38.9036 33.1125L39.4881 32.5302L38.9047 31.9468L38.3224 32.5291ZM28.5289 34.6745L27.9466 35.2568L28.5282 35.8384L29.1105 35.2575L28.5289 34.6745ZM26.3835 32.5291L25.801 31.947L25.2191 32.5293L25.8012 33.1114L26.3835 32.5291ZM36.1688 22.7356L36.7533 22.1555L36.1708 21.5685L35.5862 22.1535L36.1688 22.7356ZM38.3224 24.9056L38.904 25.4886L39.4855 24.9085L38.9069 24.3255L38.3224 24.9056ZM36.1688 34.6745L36.7506 34.0917L26.9654 24.3228L26.3835 24.9056L25.8017 25.4884L35.5869 35.2573L36.1688 34.6745ZM26.3835 24.9056L26.9692 25.4846L29.1145 23.3146L28.5289 22.7356L27.9433 22.1566L25.7979 24.3266L26.3835 24.9056ZM28.5289 22.7356L27.9466 23.3179L37.74 33.1114L38.3224 32.5291L38.9047 31.9468L29.1112 22.1533L28.5289 22.7356ZM38.3224 32.5291L37.7411 31.9456L35.5876 34.091L36.1688 34.6745L36.75 35.2579L38.9036 33.1125L38.3224 32.5291ZM28.5289 34.6745L29.1112 34.0921L26.9658 31.9468L26.3835 32.5291L25.8012 33.1114L27.9466 35.2568L28.5289 34.6745ZM26.3835 32.5291L26.9661 33.1112L36.7514 23.3177L36.1688 22.7356L35.5862 22.1535L25.801 31.947L26.3835 32.5291ZM36.1688 22.7356L35.5843 23.3157L37.7378 25.4857L38.3224 24.9056L38.9069 24.3255L36.7533 22.1555L36.1688 22.7356ZM38.3224 24.9056L37.7408 24.3225L27.9473 34.0914L28.5289 34.6745L29.1105 35.2575L38.904 25.4886L38.3224 24.9056ZM44.4801 36.5988L44.1432 37.3503L44.1484 37.3526L44.4801 36.5988ZM42.2283 34.8464L41.5631 35.332L41.5671 35.3374L42.2283 34.8464ZM41.3849 32.2589V31.4353H40.5474L40.5614 32.2727L41.3849 32.2589ZM44.955 32.2589L45.7774 32.215L45.7358 31.4353H44.955V32.2589ZM45.3563 33.3397L44.7099 33.85L44.7149 33.8563L44.7199 33.8625L45.3563 33.3397ZM46.3553 34.0521L46.0442 34.8147L46.0442 34.8147L46.3553 34.0521ZM49.1885 34.0194L48.844 33.2714L48.844 33.2714L49.1885 34.0194ZM50.1629 33.2251L50.8396 33.6944L50.8396 33.6944L50.1629 33.2251ZM50.1384 30.8668L49.4647 31.3405L49.4689 31.3465L49.4733 31.3524L50.1384 30.8668ZM49.0739 30.048L48.7495 30.8049L48.7527 30.8063L49.0739 30.048ZM45.8722 29.7532H45.0486V30.5767H45.8722V29.7532ZM45.8722 27.1492V26.3257H45.0486V27.1492H45.8722ZM48.8528 26.8708L48.5165 26.1191L48.5127 26.1208L48.8528 26.8708ZM49.819 26.1011L50.4937 26.5734L50.4973 26.5681L49.819 26.1011ZM49.86 23.8329L49.157 24.2618L49.1612 24.2689L49.1657 24.2758L49.86 23.8329ZM49.0247 23.0795L48.6519 23.8139L48.6564 23.8161L49.0247 23.0795ZM46.4617 23.0714L46.7836 23.8294L46.7924 23.8256L46.4617 23.0714ZM45.5037 23.8001L46.1598 24.2979L46.1598 24.2979L45.5037 23.8001ZM45.1188 24.9138V25.7373H45.9113L45.9417 24.9454L45.1188 24.9138ZM41.7206 24.9138L40.8972 24.8998L40.883 25.7373H41.7206V24.9138ZM42.5476 22.359L43.2141 22.8427L43.2141 22.8427L42.5476 22.359ZM44.7094 20.6312L45.0522 21.38L45.0542 21.379L44.7094 20.6312ZM50.8344 20.6312L51.1933 19.89L51.1933 19.89L50.8344 20.6312ZM52.857 22.3344L52.1733 22.7936L52.1774 22.7996L52.857 22.3344ZM53.5775 24.7254L52.754 24.7203L52.754 24.7302L53.5775 24.7254ZM52.7014 27.0755L52.1011 26.5118L52.0985 26.5146L52.7014 27.0755ZM50.4168 28.2711L50.2707 27.4606L49.5932 27.5827V28.2711H50.4168ZM50.4168 28.4021H49.5932V29.1267L50.312 29.2189L50.4168 28.4021ZM53.2336 29.6877L52.6281 30.2459L52.6327 30.2508L53.2336 29.6877ZM54.1999 32.2916L53.3763 32.2873L53.3764 32.2963L54.1999 32.2916ZM53.3728 34.8382L52.714 34.3441L52.7117 34.3472L53.3728 34.8382ZM51.0882 36.5906L50.7577 35.8363L50.7577 35.8363L51.0882 36.5906ZM47.7473 37.2293V36.4057C46.6193 36.4057 45.6462 36.2121 44.8118 35.845L44.4801 36.5988L44.1484 37.3526C45.2247 37.8261 46.4297 38.0528 47.7473 38.0528V37.2293ZM44.4801 36.5988L44.817 35.8473C43.9793 35.4718 43.3466 34.9711 42.8894 34.3554L42.2283 34.8464L41.5671 35.3374C42.2126 36.2066 43.0812 36.8742 44.1432 37.3502L44.4801 36.5988ZM42.2283 34.8464L42.8935 34.3609C42.4534 33.758 42.222 33.0624 42.2083 32.2451L41.3849 32.2589L40.5614 32.2727C40.5805 33.4096 40.9113 34.4391 41.5631 35.332L42.2283 34.8464ZM41.3849 32.2589V33.0824H44.955V32.2589V31.4353H41.3849V32.2589ZM44.955 32.2589L44.1327 32.3027C44.1633 32.8759 44.355 33.4005 44.7099 33.85L45.3563 33.3397L46.0027 32.8294C45.8662 32.6566 45.7905 32.4607 45.7774 32.215L44.955 32.2589ZM45.3563 33.3397L44.7199 33.8625C45.0688 34.2872 45.5197 34.6007 46.0442 34.8147L46.3553 34.0521L46.6663 33.2896C46.3611 33.1651 46.146 33.0037 45.9926 32.817L45.3563 33.3397ZM46.3553 34.0521L46.0442 34.8147C46.5722 35.03 47.1469 35.1295 47.7555 35.1295V34.306V33.4825C47.327 33.4825 46.9682 33.4127 46.6663 33.2896L46.3553 34.0521ZM47.7555 34.306V35.1295C48.3934 35.1295 48.9921 35.0165 49.533 34.7674L49.1885 34.0194L48.844 33.2714C48.5552 33.4044 48.1986 33.4825 47.7555 33.4825V34.306ZM49.1885 34.0194L49.533 34.7674C50.0666 34.5217 50.5121 34.1666 50.8396 33.6944L50.1629 33.2251L49.4862 32.7558C49.3443 32.9605 49.1402 33.135 48.844 33.2714L49.1885 34.0194ZM50.1629 33.2251L50.8396 33.6944C51.1771 33.2078 51.3386 32.6511 51.3386 32.0541H50.515H49.6915C49.6915 32.3416 49.6182 32.5655 49.4862 32.7558L50.1629 33.2251ZM50.515 32.0541H51.3386C51.3386 31.4414 51.163 30.8736 50.8035 30.3812L50.1384 30.8668L49.4733 31.3524C49.616 31.5479 49.6915 31.7716 49.6915 32.0541H50.515ZM50.1384 30.8668L50.812 30.3931C50.4629 29.8966 49.975 29.5353 49.395 29.2896L49.0739 30.048L48.7527 30.8063C49.1008 30.9537 49.3225 31.1382 49.4647 31.3405L50.1384 30.8668ZM49.0739 30.048L49.3983 29.291C48.8136 29.0404 48.152 28.9296 47.4362 28.9296V29.7532V30.5767C47.9868 30.5767 48.417 30.6624 48.7495 30.8049L49.0739 30.048ZM47.4362 29.7532V28.9296H45.8722V29.7532V30.5767H47.4362V29.7532ZM45.8722 29.7532H46.6957V27.1492H45.8722H45.0486V29.7532H45.8722ZM45.8722 27.1492V27.9728H47.4362V27.1492V26.3257H45.8722V27.1492ZM47.4362 27.1492V27.9728C48.0664 27.9728 48.6582 27.8632 49.1928 27.6209L48.8528 26.8708L48.5127 26.1208C48.2285 26.2496 47.8758 26.3257 47.4362 26.3257V27.1492ZM48.8528 26.8708L49.1891 27.6226C49.721 27.3846 50.1678 27.0389 50.4937 26.5734L49.819 26.1011L49.1444 25.6288C49.0117 25.8183 48.8144 25.9858 48.5165 26.1191L48.8528 26.8708ZM49.819 26.1011L50.4973 26.5681C50.8301 26.0849 50.9865 25.5309 50.9865 24.9383H50.1629H49.3394C49.3394 25.2301 49.2665 25.4513 49.1407 25.6341L49.819 26.1011ZM50.1629 24.9383H50.9865C50.9865 24.3804 50.8504 23.8543 50.5542 23.39L49.86 23.8329L49.1657 24.2758C49.2734 24.4447 49.3394 24.6556 49.3394 24.9383H50.1629ZM49.86 23.8329L50.563 23.4039C50.2804 22.9409 49.8818 22.5873 49.393 22.343L49.0247 23.0795L48.6564 23.8161C48.8883 23.932 49.0464 24.0807 49.157 24.2618L49.86 23.8329ZM49.0247 23.0795L49.3975 22.3452C48.9069 22.0961 48.3597 21.9858 47.7801 21.9858V22.8093V23.6329C48.1503 23.6329 48.4329 23.7027 48.6519 23.8139L49.0247 23.0795ZM47.7801 22.8093V21.9858C47.1978 21.9858 46.6442 22.0922 46.1311 22.3171L46.4617 23.0714L46.7924 23.8256C47.0762 23.7012 47.4016 23.6329 47.7801 23.6329V22.8093ZM46.4617 23.0714L46.1398 22.3133C45.6213 22.5335 45.1822 22.8613 44.8476 23.3024L45.5037 23.8001L46.1598 24.2979C46.3055 24.1057 46.5051 23.9476 46.7836 23.8294L46.4617 23.0714ZM45.5037 23.8001L44.8476 23.3024C44.4978 23.7635 44.3183 24.3004 44.2959 24.8821L45.1188 24.9138L45.9417 24.9454C45.9521 24.6756 46.0292 24.47 46.1598 24.2979L45.5037 23.8001ZM45.1188 24.9138V24.0902H41.7206V24.9138V25.7373H45.1188V24.9138ZM41.7206 24.9138L42.544 24.9277C42.5577 24.1196 42.7846 23.4343 43.2141 22.8427L42.5476 22.359L41.8812 21.8752C41.2407 22.7575 40.9162 23.7755 40.8972 24.8998L41.7206 24.9138ZM42.5476 22.359L43.2141 22.8427C43.6581 22.2311 44.2624 21.7416 45.0522 21.38L44.7094 20.6312L44.3666 19.8824C43.344 20.3506 42.5072 21.0129 41.8812 21.8752L42.5476 22.359ZM44.7094 20.6312L45.0542 21.379C45.8434 21.0152 46.7522 20.8242 47.7965 20.8242V20.0007V19.1771C46.5479 19.1771 45.3987 19.4065 44.3646 19.8833L44.7094 20.6312ZM47.7965 20.0007V20.8242C48.854 20.8242 49.7395 21.016 50.4755 21.3724L50.8344 20.6312L51.1933 19.89C50.1933 19.4057 49.0535 19.1771 47.7965 19.1771V20.0007ZM50.8344 20.6312L50.4755 21.3724C51.2282 21.7369 51.7837 22.2135 52.1733 22.7936L52.857 22.3344L53.5406 21.8752C52.9694 21.025 52.1766 20.3661 51.1933 19.89L50.8344 20.6312ZM52.857 22.3344L52.1774 22.7996C52.5657 23.3667 52.7585 23.9987 52.754 24.7203L53.5775 24.7254L54.4011 24.7305C54.4075 23.6834 54.1199 22.7214 53.5365 21.8692L52.857 22.3344ZM53.5775 24.7254L52.754 24.7302C52.7584 25.4789 52.5325 26.0524 52.1011 26.5118L52.7014 27.0755L53.3017 27.6393C54.0494 26.8431 54.4076 25.8499 54.4011 24.7206L53.5775 24.7254ZM52.7014 27.0755L52.0985 26.5146C51.6493 26.9973 51.0552 27.3192 50.2707 27.4606L50.4168 28.2711L50.5629 29.0815C51.6563 28.8845 52.5852 28.4093 53.3043 27.6365L52.7014 27.0755ZM50.4168 28.2711H49.5932V28.4021H50.4168H51.2403V28.2711H50.4168ZM50.4168 28.4021L50.312 29.2189C51.4137 29.3603 52.1512 29.7285 52.6281 30.2459L53.2336 29.6877L53.8391 29.1295C53.0277 28.2493 51.8873 27.7605 50.5216 27.5852L50.4168 28.4021ZM53.2336 29.6877L52.6327 30.2508C53.1237 30.7747 53.3808 31.4329 53.3763 32.2873L54.1999 32.2916L55.0234 32.2959C55.0298 31.065 54.6428 29.9872 53.8346 29.1246L53.2336 29.6877ZM54.1999 32.2916L53.3764 32.2963C53.3808 33.0775 53.1596 33.75 52.714 34.3441L53.3728 34.8382L54.0317 35.3324C54.6997 34.4416 55.0298 33.4163 55.0234 32.2869L54.1999 32.2916ZM53.3728 34.8382L52.7117 34.3472C52.2577 34.9586 51.6178 35.4594 50.7577 35.8363L51.0882 36.5906L51.4188 37.3449C52.5021 36.8701 53.3853 36.2027 54.034 35.3292L53.3728 34.8382ZM51.0882 36.5906L50.7577 35.8363C49.9075 36.2088 48.9097 36.4057 47.7473 36.4057V37.2293V38.0528C49.0961 38.0528 50.3255 37.8239 51.4188 37.3449L51.0882 36.5906Z" fill="#2B3F46" mask="url(#path-33-outside-1_2025_1144)"/>
<defs>
<linearGradient id="paint0_linear_2025_1144" x1="35.8411" y1="35.864" x2="-1.88188" y2="2.08424" gradientUnits="userSpaceOnUse">
<stop stop-color="#FFD5EF"/>
<stop offset="1" stop-color="#EFBDFD"/>
</linearGradient>
<linearGradient id="paint1_linear_2025_1144" x1="26.8809" y1="4.483" x2="25.174" y2="-4.68761" gradientUnits="userSpaceOnUse">
<stop stop-color="#F95457"/>
<stop offset="1" stop-color="#FDBDCB"/>
</linearGradient>
<linearGradient id="paint2_linear_2025_1144" x1="26.8809" y1="4.483" x2="25.174" y2="-4.68761" gradientUnits="userSpaceOnUse">
<stop stop-color="#F95457"/>
<stop offset="1" stop-color="#FDBDCB"/>
</linearGradient>
<linearGradient id="paint3_linear_2025_1144" x1="4.71795" y1="43.6522" x2="1.80375" y2="43.0282" gradientUnits="userSpaceOnUse">
<stop stop-color="#F95457"/>
<stop offset="1" stop-color="#FDBDCB"/>
</linearGradient>
<linearGradient id="paint4_linear_2025_1144" x1="35.7669" y1="58.0257" x2="30.2155" y2="50.8928" gradientUnits="userSpaceOnUse">
<stop stop-color="#F95457"/>
<stop offset="1" stop-color="#FDBDCB"/>
</linearGradient>
<linearGradient id="paint5_linear_2025_1144" x1="60.6657" y1="43.6522" x2="57.7515" y2="43.0282" gradientUnits="userSpaceOnUse">
<stop stop-color="#F95457"/>
<stop offset="1" stop-color="#FDBDCB"/>
</linearGradient>
<linearGradient id="paint6_linear_2025_1144" x1="-1.09962e-05" y1="-0.0328651" x2="30.641" y2="-4.05264" gradientUnits="userSpaceOnUse">
<stop stop-color="#D74446"/>
<stop offset="1" stop-color="#E165B8"/>
</linearGradient>
<linearGradient id="paint7_linear_2025_1144" x1="-1.11276e-05" y1="-0.033258" x2="31.0073" y2="-4.10108" gradientUnits="userSpaceOnUse">
<stop stop-color="#D74446"/>
<stop offset="1" stop-color="#E165B8"/>
</linearGradient>
<linearGradient id="paint8_linear_2025_1144" x1="-8.34573e-06" y1="-0.00415724" x2="14.606" y2="-11.5011" gradientUnits="userSpaceOnUse">
<stop stop-color="#D1369D"/>
<stop offset="1" stop-color="#B31E20"/>
</linearGradient>
<linearGradient id="paint9_linear_2025_1144" x1="-8.34573e-06" y1="-0.00415724" x2="14.606" y2="-11.5011" gradientUnits="userSpaceOnUse">
<stop stop-color="#D74446"/>
<stop offset="1" stop-color="#E165B8"/>
</linearGradient>
<linearGradient id="paint10_linear_2025_1144" x1="2.32056" y1="36.6188" x2="3.73346" y2="36.5744" gradientUnits="userSpaceOnUse">
<stop stop-color="#D74446"/>
<stop offset="1" stop-color="#D1369D"/>
</linearGradient>
<linearGradient id="paint11_linear_2025_1144" x1="27.5452" y1="52.5135" x2="34.1403" y2="51.2721" gradientUnits="userSpaceOnUse">
<stop stop-color="#B31E20"/>
<stop offset="1" stop-color="#D74446"/>
</linearGradient>
<linearGradient id="paint12_linear_2025_1144" x1="59.0066" y1="36.6188" x2="60.4195" y2="36.5744" gradientUnits="userSpaceOnUse">
<stop stop-color="#E165B8"/>
<stop offset="1" stop-color="#D74446"/>
</linearGradient>
<clipPath id="clip0_2025_1144">
<rect width="35.8992" height="35.8992" rx="4.44179" transform="matrix(0.866025 0.5 -0.866025 0.5 31.9104 19)" fill="white"/>
</clipPath>
<clipPath id="clip1_2025_1144">
<rect width="36.3731" height="36.3731" rx="4.50041" transform="matrix(0.866025 0.5 -0.866025 0.5 31.5 18.4604)" fill="white"/>
</clipPath>
</defs>
</svg>
