<svg width="64" height="64" viewBox="0 0 64 64" fill="none" xmlns="http://www.w3.org/2000/svg">
<rect width="35.8551" height="35.8551" rx="4.37833" transform="matrix(0.866025 0.5 -0.866025 0.5 31.8887 19)" fill="url(#paint0_linear_2025_1474)"/>
<rect width="26.8913" height="4.48189" transform="matrix(0.866025 0.5 0 1 4.71851 39.1685)" fill="url(#paint1_linear_2025_1474)"/>
<rect width="26.8913" height="4.48189" transform="matrix(0.866025 -0.5 0 1 35.7698 52.6143)" fill="url(#paint2_linear_2025_1474)"/>
<path d="M3.11084 36.9277C3.11084 37.8029 3.72524 38.5952 4.71858 39.1687V43.6506C3.72524 43.0771 3.11084 42.2848 3.11084 41.4096V36.9277Z" fill="url(#paint3_linear_2025_1474)"/>
<path d="M28.0071 52.6143C30.1507 53.8519 33.6263 53.8519 35.7699 52.6143V57.0961C33.6263 58.3338 30.1507 58.3338 28.0071 57.0961V52.6143Z" fill="url(#paint4_linear_2025_1474)"/>
<path d="M60.6663 36.9277C60.6663 37.8029 60.0519 38.5952 59.0586 39.1687V43.6506C60.0519 43.0771 60.6663 42.2848 60.6663 41.4096V36.9277Z" fill="url(#paint5_linear_2025_1474)"/>
<g clip-path="url(#clip0_2025_1474)">
<rect width="35.8992" height="35.8992" rx="4.44179" transform="matrix(0.866025 0.5 -0.866025 0.5 31.9104 19)" fill="url(#paint6_linear_2025_1474)"/>
<rect width="11.5594" height="11.5594" transform="matrix(0.866025 0.5 -0.866025 0.5 31.9104 19)" fill="black" fill-opacity="0.1"/>
<rect width="11.5594" height="11.5594" transform="matrix(0.866025 0.5 -0.866025 0.5 21.3711 25.085)" fill="black" fill-opacity="0.1"/>
<rect width="11.5594" height="11.5594" transform="matrix(0.866025 0.5 -0.866025 0.5 21.3711 37.2549)" fill="black" fill-opacity="0.1"/>
<rect width="11.5594" height="11.5594" transform="matrix(0.866025 0.5 -0.866025 0.5 42.45 25.085)" fill="black" fill-opacity="0.1"/>
<rect width="11.5594" height="11.5594" transform="matrix(0.866025 0.5 -0.866025 0.5 42.45 37.2549)" fill="black" fill-opacity="0.1"/>
<rect width="11.5594" height="11.5594" transform="matrix(0.866025 0.5 -0.866025 0.5 52.9893 31.1699)" fill="black" fill-opacity="0.1"/>
<rect width="11.5594" height="11.5594" transform="matrix(0.866025 0.5 -0.866025 0.5 10.8315 31.1699)" fill="black" fill-opacity="0.1"/>
<rect width="11.5594" height="11.5594" transform="matrix(0.866025 0.5 -0.866025 0.5 31.9104 43.3398)" fill="black" fill-opacity="0.1"/>
<rect width="11.5594" height="11.5594" transform="matrix(0.866025 0.5 -0.866025 0.5 31.9104 31.1699)" fill="black" fill-opacity="0.1"/>
</g>
<mask id="path-17-outside-1_2025_1474" maskUnits="userSpaceOnUse" x="9" y="19" width="47" height="20" fill="black">
<rect fill="white" x="9" y="19" width="47" height="20"/>
<path d="M16.7559 37.2293C15.5986 37.2293 14.5668 37.0164 13.6606 36.5906C12.7599 36.1648 12.0448 35.5779 11.5152 34.83C10.9857 34.0822 10.71 33.2251 10.6882 32.2589H14.1274C14.1656 32.9085 14.4385 33.4353 14.9462 33.8392C15.4539 34.2432 16.0571 34.4452 16.7559 34.4452C17.3127 34.4452 17.804 34.3224 18.2298 34.0767C18.6611 33.8256 18.9968 33.4789 19.237 33.0368C19.4827 32.5891 19.6055 32.076 19.6055 31.4973C19.6055 30.9078 19.4799 30.3891 19.2288 29.9415C18.9832 29.4939 18.642 29.1445 18.2053 28.8934C17.7685 28.6423 17.269 28.514 16.7068 28.5085C16.2154 28.5085 15.7378 28.6095 15.2738 28.8115C14.8152 29.0135 14.4577 29.2892 14.2011 29.6385L11.0485 29.0735L11.8428 20.2299H22.0948V23.1287H14.7661L14.3321 27.3294H14.4304C14.7251 26.9145 15.1701 26.5706 15.7651 26.2976C16.3601 26.0247 17.0261 25.8882 17.7631 25.8882C18.773 25.8882 19.6737 26.1257 20.4653 26.6006C21.2568 27.0755 21.8819 27.7279 22.3404 28.5577C22.799 29.382 23.0256 30.3318 23.0201 31.4073C23.0256 32.5373 22.7635 33.5417 22.234 34.4206C21.7099 35.2941 20.9757 35.9819 20.0313 36.4841C19.0923 36.9809 18.0005 37.2293 16.7559 37.2293ZM35.786 34.6745L26.0007 24.9056L28.1461 22.7356L37.9395 32.5291L35.786 34.6745ZM28.1461 34.6745L26.0007 32.5291L35.786 22.7356L37.9395 24.9056L28.1461 34.6745ZM40.912 34.0521V31.2599L47.9131 20.2299H50.3206V24.0949H48.8958L44.4822 31.0797V31.2107H54.4312V34.0521H40.912ZM48.9613 37V33.2005L49.0268 31.9641V20.2299H52.3513V37H48.9613Z"/>
</mask>
<path d="M16.7559 37.2293C15.5986 37.2293 14.5668 37.0164 13.6606 36.5906C12.7599 36.1648 12.0448 35.5779 11.5152 34.83C10.9857 34.0822 10.71 33.2251 10.6882 32.2589H14.1274C14.1656 32.9085 14.4385 33.4353 14.9462 33.8392C15.4539 34.2432 16.0571 34.4452 16.7559 34.4452C17.3127 34.4452 17.804 34.3224 18.2298 34.0767C18.6611 33.8256 18.9968 33.4789 19.237 33.0368C19.4827 32.5891 19.6055 32.076 19.6055 31.4973C19.6055 30.9078 19.4799 30.3891 19.2288 29.9415C18.9832 29.4939 18.642 29.1445 18.2053 28.8934C17.7685 28.6423 17.269 28.514 16.7068 28.5085C16.2154 28.5085 15.7378 28.6095 15.2738 28.8115C14.8152 29.0135 14.4577 29.2892 14.2011 29.6385L11.0485 29.0735L11.8428 20.2299H22.0948V23.1287H14.7661L14.3321 27.3294H14.4304C14.7251 26.9145 15.1701 26.5706 15.7651 26.2976C16.3601 26.0247 17.0261 25.8882 17.7631 25.8882C18.773 25.8882 19.6737 26.1257 20.4653 26.6006C21.2568 27.0755 21.8819 27.7279 22.3404 28.5577C22.799 29.382 23.0256 30.3318 23.0201 31.4073C23.0256 32.5373 22.7635 33.5417 22.234 34.4206C21.7099 35.2941 20.9757 35.9819 20.0313 36.4841C19.0923 36.9809 18.0005 37.2293 16.7559 37.2293ZM35.786 34.6745L26.0007 24.9056L28.1461 22.7356L37.9395 32.5291L35.786 34.6745ZM28.1461 34.6745L26.0007 32.5291L35.786 22.7356L37.9395 24.9056L28.1461 34.6745ZM40.912 34.0521V31.2599L47.9131 20.2299H50.3206V24.0949H48.8958L44.4822 31.0797V31.2107H54.4312V34.0521H40.912ZM48.9613 37V33.2005L49.0268 31.9641V20.2299H52.3513V37H48.9613Z" fill="white"/>
<path d="M13.6606 36.5906L13.3087 37.3351L13.3104 37.3359L13.6606 36.5906ZM11.5152 34.83L12.1874 34.3542L12.1874 34.3542L11.5152 34.83ZM10.6882 32.2589V31.4353H9.84586L9.86489 32.2775L10.6882 32.2589ZM14.1274 32.2589L14.9495 32.2105L14.9039 31.4353H14.1274V32.2589ZM14.9462 33.8392L15.459 33.1948L15.459 33.1948L14.9462 33.8392ZM18.2298 34.0767L18.6414 34.79L18.6442 34.7884L18.2298 34.0767ZM19.237 33.0368L18.515 32.6406L18.5134 32.6437L19.237 33.0368ZM19.2288 29.9415L18.5068 30.3377L18.5106 30.3444L19.2288 29.9415ZM18.2053 28.8934L17.7948 29.6073L17.7948 29.6073L18.2053 28.8934ZM16.7068 28.5085L16.7148 27.685H16.7068V28.5085ZM15.2738 28.8115L14.9451 28.0564L14.9418 28.0578L15.2738 28.8115ZM14.2011 29.6385L14.0558 30.4491L14.561 30.5397L14.8648 30.126L14.2011 29.6385ZM11.0485 29.0735L10.2283 28.9999L10.1608 29.7511L10.9032 29.8841L11.0485 29.0735ZM11.8428 20.2299V19.4064H11.0899L11.0226 20.1563L11.8428 20.2299ZM22.0948 20.2299H22.9183V19.4064H22.0948V20.2299ZM22.0948 23.1287V23.9522H22.9183V23.1287H22.0948ZM14.7661 23.1287V22.3051H14.0233L13.9469 23.044L14.7661 23.1287ZM14.3321 27.3294L13.5129 27.2447L13.4191 28.1529H14.3321V27.3294ZM14.4304 27.3294V28.1529H14.8555L15.1017 27.8064L14.4304 27.3294ZM15.7651 26.2976L16.1084 27.0462L16.1084 27.0462L15.7651 26.2976ZM20.4653 26.6006L20.889 25.8944L20.889 25.8944L20.4653 26.6006ZM22.3404 28.5577L21.6197 28.956L21.6208 28.958L22.3404 28.5577ZM23.0201 31.4073L22.1965 31.4031L22.1966 31.4112L23.0201 31.4073ZM22.234 34.4206L21.5286 33.9956L21.5278 33.9969L22.234 34.4206ZM20.0313 36.4841L20.4164 37.2121L20.418 37.2112L20.0313 36.4841ZM16.7559 37.2293V36.4057C15.7008 36.4057 14.7916 36.2121 14.0109 35.8452L13.6606 36.5906L13.3104 37.3359C14.342 37.8207 15.4963 38.0528 16.7559 38.0528V37.2293ZM13.6606 36.5906L14.0126 35.846C13.2284 35.4753 12.628 34.9765 12.1874 34.3542L11.5152 34.83L10.8431 35.3059C11.4615 36.1793 12.2914 36.8542 13.3087 37.3351L13.6606 36.5906ZM11.5152 34.83L12.1874 34.3542C11.758 33.7478 11.5299 33.0519 11.5115 32.2403L10.6882 32.2589L9.86489 32.2775C9.89022 33.3983 10.2134 34.4166 10.8431 35.3059L11.5152 34.83ZM10.6882 32.2589V33.0824H14.1274V32.2589V31.4353H10.6882V32.2589ZM14.1274 32.2589L13.3053 32.3072C13.3572 33.1896 13.742 33.9335 14.4335 34.4837L14.9462 33.8392L15.459 33.1948C15.1351 32.9371 14.974 32.6273 14.9495 32.2105L14.1274 32.2589ZM14.9462 33.8392L14.4335 34.4837C15.0985 35.0128 15.8862 35.2687 16.7559 35.2687V34.4452V33.6217C16.2281 33.6217 15.8094 33.4736 15.459 33.1948L14.9462 33.8392ZM16.7559 34.4452V35.2687C17.4377 35.2687 18.0745 35.1171 18.6414 34.79L18.2298 34.0767L17.8183 33.3634C17.5335 33.5277 17.1878 33.6217 16.7559 33.6217V34.4452ZM18.2298 34.0767L18.6442 34.7884C19.2069 34.4607 19.6491 34.0034 19.9607 33.4299L19.237 33.0368L18.5134 32.6437C18.3445 32.9545 18.1152 33.1905 17.8154 33.365L18.2298 34.0767ZM19.237 33.0368L19.959 33.433C20.2797 32.8485 20.429 32.1958 20.429 31.4973H19.6055H18.782C18.782 31.9562 18.6856 32.3298 18.515 32.6406L19.237 33.0368ZM19.6055 31.4973H20.429C20.429 30.7879 20.2769 30.1266 19.9471 29.5386L19.2288 29.9415L18.5106 30.3444C18.683 30.6517 18.782 31.0276 18.782 31.4973H19.6055ZM19.2288 29.9415L19.9508 29.5453C19.6335 28.9671 19.1854 28.507 18.6158 28.1795L18.2053 28.8934L17.7948 29.6073C18.0986 29.782 18.3329 30.0206 18.5069 30.3377L19.2288 29.9415ZM18.2053 28.8934L18.6158 28.1795C18.0427 27.85 17.4016 27.6917 16.7148 27.685L16.7068 28.5085L16.6988 29.332C17.1365 29.3363 17.4943 29.4346 17.7948 29.6073L18.2053 28.8934ZM16.7068 28.5085V27.685C16.0989 27.685 15.5096 27.8107 14.9451 28.0564L15.2738 28.8115L15.6025 29.5666C15.966 29.4084 16.332 29.3321 16.7068 29.3321V28.5085ZM15.2738 28.8115L14.9418 28.0578C14.3721 28.3088 13.8918 28.6684 13.5373 29.1511L14.2011 29.6385L14.8648 30.126C15.0235 29.9099 15.2583 29.7182 15.6057 29.5652L15.2738 28.8115ZM14.2011 29.6385L14.3464 28.8279L11.1938 28.2629L11.0485 29.0735L10.9032 29.8841L14.0558 30.4491L14.2011 29.6385ZM11.0485 29.0735L11.8687 29.1472L12.663 20.3036L11.8428 20.2299L11.0226 20.1563L10.2283 28.9999L11.0485 29.0735ZM11.8428 20.2299V21.0535H22.0948V20.2299V19.4064H11.8428V20.2299ZM22.0948 20.2299H21.2713V23.1287H22.0948H22.9183V20.2299H22.0948ZM22.0948 23.1287V22.3051H14.7661V23.1287V23.9522H22.0948V23.1287ZM14.7661 23.1287L13.9469 23.044L13.5129 27.2447L14.3321 27.3294L15.1513 27.414L15.5853 23.2133L14.7661 23.1287ZM14.3321 27.3294V28.1529H14.4304V27.3294V26.5058H14.3321V27.3294ZM14.4304 27.3294L15.1017 27.8064C15.2922 27.5383 15.6079 27.2758 16.1084 27.0462L15.7651 26.2976L15.4217 25.5491C14.7322 25.8654 14.1581 26.2907 13.759 26.8524L14.4304 27.3294ZM15.7651 26.2976L16.1084 27.0462C16.5829 26.8285 17.1297 26.7117 17.7631 26.7117V25.8882V25.0647C16.9225 25.0647 16.1373 25.2209 15.4217 25.5491L15.7651 26.2976ZM17.7631 25.8882V26.7117C18.6382 26.7117 19.3899 26.9158 20.0416 27.3068L20.4653 26.6006L20.889 25.8944C19.9576 25.3356 18.9078 25.0647 17.7631 25.0647V25.8882ZM20.4653 26.6006L20.0416 27.3068C20.7052 27.705 21.2293 28.2496 21.6197 28.956L22.3404 28.5577L23.0612 28.1593C22.5345 27.2062 21.8084 26.4461 20.889 25.8944L20.4653 26.6006ZM22.3404 28.5577L21.6208 28.958C22.0014 29.6422 22.2014 30.4491 22.1966 31.4031L23.0201 31.4073L23.8436 31.4114C23.8497 30.2146 23.5966 29.1218 23.0601 28.1573L22.3404 28.5577ZM23.0201 31.4073L22.1966 31.4112C22.2014 32.4059 21.9724 33.2591 21.5286 33.9956L22.234 34.4206L22.9394 34.8456C23.5547 33.8244 23.8497 32.6686 23.8436 31.4033L23.0201 31.4073ZM22.234 34.4206L21.5278 33.9969C21.0847 34.7355 20.4639 35.3214 19.6446 35.757L20.0313 36.4841L20.418 37.2112C21.4875 36.6424 22.3352 35.8526 22.9402 34.8443L22.234 34.4206ZM20.0313 36.4841L19.6462 35.7562C18.8447 36.1802 17.8894 36.4057 16.7559 36.4057V37.2293V38.0528C18.1117 38.0528 19.34 37.7816 20.4164 37.2121L20.0313 36.4841ZM35.786 34.6745L35.2041 35.2573L35.7854 35.8375L36.3672 35.2579L35.786 34.6745ZM26.0007 24.9056L25.4151 24.3266L24.8389 24.9094L25.4189 25.4884L26.0007 24.9056ZM28.1461 22.7356L28.7284 22.1533L28.1428 21.5677L27.5605 22.1566L28.1461 22.7356ZM37.9395 32.5291L38.5208 33.1125L39.1053 32.5302L38.5219 31.9468L37.9395 32.5291ZM28.1461 34.6745L27.5638 35.2568L28.1454 35.8384L28.7277 35.2575L28.1461 34.6745ZM26.0007 32.5291L25.4181 31.947L24.8363 32.5293L25.4184 33.1114L26.0007 32.5291ZM35.786 22.7356L36.3705 22.1555L35.7879 21.5685L35.2034 22.1535L35.786 22.7356ZM37.9395 24.9056L38.5211 25.4886L39.1027 24.9085L38.5241 24.3255L37.9395 24.9056ZM35.786 34.6745L36.3678 34.0917L26.5825 24.3228L26.0007 24.9056L25.4189 25.4884L35.2041 35.2573L35.786 34.6745ZM26.0007 24.9056L26.5863 25.4846L28.7317 23.3146L28.1461 22.7356L27.5605 22.1566L25.4151 24.3266L26.0007 24.9056ZM28.1461 22.7356L27.5638 23.3179L37.3572 33.1114L37.9395 32.5291L38.5219 31.9468L28.7284 22.1533L28.1461 22.7356ZM37.9395 32.5291L37.3583 31.9456L35.2048 34.091L35.786 34.6745L36.3672 35.2579L38.5208 33.1125L37.9395 32.5291ZM28.1461 34.6745L28.7284 34.0921L26.583 31.9468L26.0007 32.5291L25.4184 33.1114L27.5638 35.2568L28.1461 34.6745ZM26.0007 32.5291L26.5833 33.1112L36.3685 23.3177L35.786 22.7356L35.2034 22.1535L25.4181 31.947L26.0007 32.5291ZM35.786 22.7356L35.2014 23.3157L37.355 25.4857L37.9395 24.9056L38.5241 24.3255L36.3705 22.1555L35.786 22.7356ZM37.9395 24.9056L37.358 24.3225L27.5645 34.0914L28.1461 34.6745L28.7277 35.2575L38.5211 25.4886L37.9395 24.9056ZM40.912 34.0521H40.0884V34.8757H40.912V34.0521ZM40.912 31.2599L40.2167 30.8185L40.0884 31.0206V31.2599H40.912ZM47.9131 20.2299V19.4064H47.4605L47.2179 19.7886L47.9131 20.2299ZM50.3206 20.2299H51.1441V19.4064H50.3206V20.2299ZM50.3206 24.0949V24.9184H51.1441V24.0949H50.3206ZM48.8958 24.0949V23.2714H48.442L48.1996 23.655L48.8958 24.0949ZM44.4822 31.0797L43.786 30.6398L43.6586 30.8413V31.0797H44.4822ZM44.4822 31.2107H43.6586V32.0343H44.4822V31.2107ZM54.4312 31.2107H55.2547V30.3872H54.4312V31.2107ZM54.4312 34.0521V34.8757H55.2547V34.0521H54.4312ZM48.9613 37H48.1377V37.8235H48.9613V37ZM48.9613 33.2005L48.1389 33.157L48.1377 33.1787V33.2005H48.9613ZM49.0268 31.9641L49.8492 32.0076L49.8503 31.9859V31.9641H49.0268ZM49.0268 20.2299V19.4064H48.2033V20.2299H49.0268ZM52.3513 20.2299H53.1748V19.4064H52.3513V20.2299ZM52.3513 37V37.8235H53.1748V37H52.3513ZM40.912 34.0521H41.7355V31.2599H40.912H40.0884V34.0521H40.912ZM40.912 31.2599L41.6073 31.7012L48.6084 20.6713L47.9131 20.2299L47.2179 19.7886L40.2167 30.8185L40.912 31.2599ZM47.9131 20.2299V21.0535H50.3206V20.2299V19.4064H47.9131V20.2299ZM50.3206 20.2299H49.497V24.0949H50.3206H51.1441V20.2299H50.3206ZM50.3206 24.0949V23.2714H48.8958V24.0949V24.9184H50.3206V24.0949ZM48.8958 24.0949L48.1996 23.655L43.786 30.6398L44.4822 31.0797L45.1783 31.5196L49.592 24.5348L48.8958 24.0949ZM44.4822 31.0797H43.6586V31.2107H44.4822H45.3057V31.0797H44.4822ZM44.4822 31.2107V32.0343H54.4312V31.2107V30.3872H44.4822V31.2107ZM54.4312 31.2107H53.6077V34.0521H54.4312H55.2547V31.2107H54.4312ZM54.4312 34.0521V33.2286H40.912V34.0521V34.8757H54.4312V34.0521ZM48.9613 37H49.7848V33.2005H48.9613H48.1377V37H48.9613ZM48.9613 33.2005L49.7836 33.2441L49.8492 32.0076L49.0268 31.9641L48.2044 31.9205L48.1389 33.157L48.9613 33.2005ZM49.0268 31.9641H49.8503V20.2299H49.0268H48.2033V31.9641H49.0268ZM49.0268 20.2299V21.0535H52.3513V20.2299V19.4064H49.0268V20.2299ZM52.3513 20.2299H51.5278V37H52.3513H53.1748V20.2299H52.3513ZM52.3513 37V36.1765H48.9613V37V37.8235H52.3513V37Z" fill="#2B3F46" mask="url(#path-17-outside-1_2025_1474)"/>
<defs>
<linearGradient id="paint0_linear_2025_1474" x1="35.8411" y1="35.864" x2="-1.88188" y2="2.08424" gradientUnits="userSpaceOnUse">
<stop stop-color="#FFD5EF"/>
<stop offset="1" stop-color="#EFBDFD"/>
</linearGradient>
<linearGradient id="paint1_linear_2025_1474" x1="0" y1="0" x2="15.9633" y2="15.6375" gradientUnits="userSpaceOnUse">
<stop stop-color="#AC93FC"/>
<stop offset="1" stop-color="#E593FC"/>
</linearGradient>
<linearGradient id="paint2_linear_2025_1474" x1="-8.23702e-06" y1="-0.00410309" x2="14.4158" y2="-11.3513" gradientUnits="userSpaceOnUse">
<stop stop-color="#D744C2"/>
<stop offset="1" stop-color="#C665E1"/>
</linearGradient>
<linearGradient id="paint3_linear_2025_1474" x1="3.11084" y1="36.9277" x2="4.97822" y2="37.0006" gradientUnits="userSpaceOnUse">
<stop stop-color="#AC93FC"/>
<stop offset="1" stop-color="#E593FC"/>
</linearGradient>
<linearGradient id="paint4_linear_2025_1474" x1="28.0071" y1="52.6093" x2="34.5163" y2="51.384" gradientUnits="userSpaceOnUse">
<stop stop-color="#D744C2"/>
<stop offset="1" stop-color="#C665E1"/>
</linearGradient>
<linearGradient id="paint5_linear_2025_1474" x1="59.0586" y1="36.9216" x2="60.4531" y2="36.8778" gradientUnits="userSpaceOnUse">
<stop stop-color="#D744C2"/>
<stop offset="1" stop-color="#C665E1"/>
</linearGradient>
<linearGradient id="paint6_linear_2025_1474" x1="35.8853" y1="35.9081" x2="-1.8842" y2="2.0868" gradientUnits="userSpaceOnUse">
<stop stop-color="#FAD5FF"/>
<stop offset="1" stop-color="#CFBDFD"/>
</linearGradient>
<clipPath id="clip0_2025_1474">
<rect width="35.8992" height="35.8992" rx="4.44179" transform="matrix(0.866025 0.5 -0.866025 0.5 31.9104 19)" fill="white"/>
</clipPath>
</defs>
</svg>
