<svg width="64" height="64" viewBox="0 0 64 64" fill="none" xmlns="http://www.w3.org/2000/svg">
<rect width="35.8551" height="35.8551" rx="4.37833" transform="matrix(0.866025 0.5 -0.866025 0.5 31.8887 19)" fill="url(#paint0_linear_2025_1504)"/>
<rect width="26.8913" height="4.48189" transform="matrix(0.866025 0.5 0 1 4.71851 39.1685)" fill="url(#paint1_linear_2025_1504)"/>
<rect width="26.8913" height="4.48189" transform="matrix(0.866025 -0.5 0 1 35.7698 52.6143)" fill="url(#paint2_linear_2025_1504)"/>
<path d="M3.11084 36.9277C3.11084 37.8029 3.72524 38.5952 4.71858 39.1687V43.6506C3.72524 43.0771 3.11084 42.2848 3.11084 41.4096V36.9277Z" fill="url(#paint3_linear_2025_1504)"/>
<path d="M28.0071 52.6143C30.1507 53.8519 33.6263 53.8519 35.7699 52.6143V57.0961C33.6263 58.3338 30.1507 58.3338 28.0071 57.0961V52.6143Z" fill="url(#paint4_linear_2025_1504)"/>
<path d="M60.6663 36.9277C60.6663 37.8029 60.0519 38.5952 59.0586 39.1687V43.6506C60.0519 43.0771 60.6663 42.2848 60.6663 41.4096V36.9277Z" fill="url(#paint5_linear_2025_1504)"/>
<g clip-path="url(#clip0_2025_1504)">
<rect width="35.8992" height="35.8992" rx="4.44179" transform="matrix(0.866025 0.5 -0.866025 0.5 31.9104 19)" fill="url(#paint6_linear_2025_1504)"/>
<rect width="11.5594" height="11.5594" transform="matrix(0.866025 0.5 -0.866025 0.5 31.9104 19)" fill="black" fill-opacity="0.1"/>
<rect width="11.5594" height="11.5594" transform="matrix(0.866025 0.5 -0.866025 0.5 21.3711 25.085)" fill="black" fill-opacity="0.1"/>
<rect width="11.5594" height="11.5594" transform="matrix(0.866025 0.5 -0.866025 0.5 21.3711 37.2549)" fill="black" fill-opacity="0.1"/>
<rect width="11.5594" height="11.5594" transform="matrix(0.866025 0.5 -0.866025 0.5 42.45 25.085)" fill="black" fill-opacity="0.1"/>
<rect width="11.5594" height="11.5594" transform="matrix(0.866025 0.5 -0.866025 0.5 42.45 37.2549)" fill="black" fill-opacity="0.1"/>
<rect width="11.5594" height="11.5594" transform="matrix(0.866025 0.5 -0.866025 0.5 52.9893 31.1699)" fill="black" fill-opacity="0.1"/>
<rect width="11.5594" height="11.5594" transform="matrix(0.866025 0.5 -0.866025 0.5 10.8315 31.1699)" fill="black" fill-opacity="0.1"/>
<rect width="11.5594" height="11.5594" transform="matrix(0.866025 0.5 -0.866025 0.5 31.9104 43.3398)" fill="black" fill-opacity="0.1"/>
<rect width="11.5594" height="11.5594" transform="matrix(0.866025 0.5 -0.866025 0.5 31.9104 31.1699)" fill="black" fill-opacity="0.1"/>
</g>
<mask id="path-17-outside-1_2025_1504" maskUnits="userSpaceOnUse" x="10" y="19" width="45" height="20" fill="black">
<rect fill="white" x="10" y="19" width="45" height="20"/>
<path d="M17.1387 37.2293C15.9814 37.2293 14.9496 37.0164 14.0434 36.5906C13.1427 36.1648 12.4276 35.5779 11.8981 34.83C11.3685 34.0822 11.0929 33.2251 11.071 32.2589H14.5102C14.5484 32.9085 14.8214 33.4353 15.329 33.8392C15.8367 34.2432 16.44 34.4452 17.1387 34.4452C17.6955 34.4452 18.1868 34.3224 18.6126 34.0767C19.0439 33.8256 19.3796 33.4789 19.6198 33.0368C19.8655 32.5891 19.9883 32.076 19.9883 31.4973C19.9883 30.9078 19.8627 30.3891 19.6116 29.9415C19.366 29.4939 19.0248 29.1445 18.5881 28.8934C18.1513 28.6423 17.6518 28.514 17.0896 28.5085C16.5983 28.5085 16.1206 28.6095 15.6566 28.8115C15.198 29.0135 14.8405 29.2892 14.5839 29.6385L11.4313 29.0735L12.2256 20.2299H22.4776V23.1287H15.1489L14.7149 27.3294H14.8132C15.108 26.9145 15.5529 26.5706 16.1479 26.2976C16.7429 26.0247 17.4089 25.8882 18.1459 25.8882C19.1558 25.8882 20.0565 26.1257 20.8481 26.6006C21.6397 27.0755 22.2647 27.7279 22.7233 28.5577C23.1818 29.382 23.4084 30.3318 23.4029 31.4073C23.4084 32.5373 23.1463 33.5417 22.6168 34.4206C22.0927 35.2941 21.3585 35.9819 20.4141 36.4841C19.4752 36.9809 18.3834 37.2293 17.1387 37.2293ZM36.1688 34.6745L26.3835 24.9056L28.5289 22.7356L38.3224 32.5291L36.1688 34.6745ZM28.5289 34.6745L26.3835 32.5291L36.1688 22.7356L38.3224 24.9056L28.5289 34.6745ZM47.6736 37.2293C46.5163 37.2293 45.4846 37.0164 44.5784 36.5906C43.6776 36.1648 42.9625 35.5779 42.433 34.83C41.9035 34.0822 41.6278 33.2251 41.6059 32.2589H45.0451C45.0833 32.9085 45.3563 33.4353 45.864 33.8392C46.3717 34.2432 46.9749 34.4452 47.6736 34.4452C48.2304 34.4452 48.7218 34.3224 49.1476 34.0767C49.5788 33.8256 49.9146 33.4789 50.1547 33.0368C50.4004 32.5891 50.5232 32.076 50.5232 31.4973C50.5232 30.9078 50.3977 30.3891 50.1466 29.9415C49.9009 29.4939 49.5597 29.1445 49.123 28.8934C48.6863 28.6423 48.1868 28.514 47.6245 28.5085C47.1332 28.5085 46.6555 28.6095 46.1915 28.8115C45.733 29.0135 45.3754 29.2892 45.1188 29.6385L41.9662 29.0735L42.7605 20.2299H53.0125V23.1287H45.6838L45.2498 27.3294H45.3481C45.6429 26.9145 46.0878 26.5706 46.6828 26.2976C47.2779 26.0247 47.9439 25.8882 48.6808 25.8882C49.6907 25.8882 50.5915 26.1257 51.383 26.6006C52.1746 27.0755 52.7996 27.7279 53.2582 28.5577C53.7167 29.382 53.9433 30.3318 53.9378 31.4073C53.9433 32.5373 53.6813 33.5417 53.1517 34.4206C52.6277 35.2941 51.8934 35.9819 50.949 36.4841C50.0101 36.9809 48.9183 37.2293 47.6736 37.2293Z"/>
</mask>
<path d="M17.1387 37.2293C15.9814 37.2293 14.9496 37.0164 14.0434 36.5906C13.1427 36.1648 12.4276 35.5779 11.8981 34.83C11.3685 34.0822 11.0929 33.2251 11.071 32.2589H14.5102C14.5484 32.9085 14.8214 33.4353 15.329 33.8392C15.8367 34.2432 16.44 34.4452 17.1387 34.4452C17.6955 34.4452 18.1868 34.3224 18.6126 34.0767C19.0439 33.8256 19.3796 33.4789 19.6198 33.0368C19.8655 32.5891 19.9883 32.076 19.9883 31.4973C19.9883 30.9078 19.8627 30.3891 19.6116 29.9415C19.366 29.4939 19.0248 29.1445 18.5881 28.8934C18.1513 28.6423 17.6518 28.514 17.0896 28.5085C16.5983 28.5085 16.1206 28.6095 15.6566 28.8115C15.198 29.0135 14.8405 29.2892 14.5839 29.6385L11.4313 29.0735L12.2256 20.2299H22.4776V23.1287H15.1489L14.7149 27.3294H14.8132C15.108 26.9145 15.5529 26.5706 16.1479 26.2976C16.7429 26.0247 17.4089 25.8882 18.1459 25.8882C19.1558 25.8882 20.0565 26.1257 20.8481 26.6006C21.6397 27.0755 22.2647 27.7279 22.7233 28.5577C23.1818 29.382 23.4084 30.3318 23.4029 31.4073C23.4084 32.5373 23.1463 33.5417 22.6168 34.4206C22.0927 35.2941 21.3585 35.9819 20.4141 36.4841C19.4752 36.9809 18.3834 37.2293 17.1387 37.2293ZM36.1688 34.6745L26.3835 24.9056L28.5289 22.7356L38.3224 32.5291L36.1688 34.6745ZM28.5289 34.6745L26.3835 32.5291L36.1688 22.7356L38.3224 24.9056L28.5289 34.6745ZM47.6736 37.2293C46.5163 37.2293 45.4846 37.0164 44.5784 36.5906C43.6776 36.1648 42.9625 35.5779 42.433 34.83C41.9035 34.0822 41.6278 33.2251 41.6059 32.2589H45.0451C45.0833 32.9085 45.3563 33.4353 45.864 33.8392C46.3717 34.2432 46.9749 34.4452 47.6736 34.4452C48.2304 34.4452 48.7218 34.3224 49.1476 34.0767C49.5788 33.8256 49.9146 33.4789 50.1547 33.0368C50.4004 32.5891 50.5232 32.076 50.5232 31.4973C50.5232 30.9078 50.3977 30.3891 50.1466 29.9415C49.9009 29.4939 49.5597 29.1445 49.123 28.8934C48.6863 28.6423 48.1868 28.514 47.6245 28.5085C47.1332 28.5085 46.6555 28.6095 46.1915 28.8115C45.733 29.0135 45.3754 29.2892 45.1188 29.6385L41.9662 29.0735L42.7605 20.2299H53.0125V23.1287H45.6838L45.2498 27.3294H45.3481C45.6429 26.9145 46.0878 26.5706 46.6828 26.2976C47.2779 26.0247 47.9439 25.8882 48.6808 25.8882C49.6907 25.8882 50.5915 26.1257 51.383 26.6006C52.1746 27.0755 52.7996 27.7279 53.2582 28.5577C53.7167 29.382 53.9433 30.3318 53.9378 31.4073C53.9433 32.5373 53.6813 33.5417 53.1517 34.4206C52.6277 35.2941 51.8934 35.9819 50.949 36.4841C50.0101 36.9809 48.9183 37.2293 47.6736 37.2293Z" fill="white"/>
<path d="M14.0434 36.5906L13.6915 37.3351L13.6932 37.3359L14.0434 36.5906ZM11.8981 34.83L12.5702 34.3542L12.5702 34.3542L11.8981 34.83ZM11.071 32.2589V31.4353H10.2287L10.2477 32.2775L11.071 32.2589ZM14.5102 32.2589L15.3323 32.2105L15.2867 31.4353H14.5102V32.2589ZM15.329 33.8392L15.8418 33.1948L15.8418 33.1948L15.329 33.8392ZM18.6126 34.0767L19.0242 34.79L19.027 34.7884L18.6126 34.0767ZM19.6198 33.0368L18.8979 32.6406L18.8962 32.6437L19.6198 33.0368ZM19.6116 29.9415L18.8896 30.3377L18.8934 30.3444L19.6116 29.9415ZM18.5881 28.8934L18.1776 29.6073L18.1776 29.6073L18.5881 28.8934ZM17.0896 28.5085L17.0976 27.685H17.0896V28.5085ZM15.6566 28.8115L15.3279 28.0564L15.3246 28.0578L15.6566 28.8115ZM14.5839 29.6385L14.4386 30.4491L14.9438 30.5397L15.2477 30.126L14.5839 29.6385ZM11.4313 29.0735L10.6111 28.9999L10.5436 29.7511L11.286 29.8841L11.4313 29.0735ZM12.2256 20.2299V19.4064H11.4727L11.4054 20.1563L12.2256 20.2299ZM22.4776 20.2299H23.3011V19.4064H22.4776V20.2299ZM22.4776 23.1287V23.9522H23.3011V23.1287H22.4776ZM15.1489 23.1287V22.3051H14.4061L14.3297 23.044L15.1489 23.1287ZM14.7149 27.3294L13.8957 27.2447L13.8019 28.1529H14.7149V27.3294ZM14.8132 27.3294V28.1529H15.2383L15.4845 27.8064L14.8132 27.3294ZM16.1479 26.2976L16.4913 27.0462L16.4913 27.0462L16.1479 26.2976ZM20.8481 26.6006L21.2718 25.8944L21.2718 25.8944L20.8481 26.6006ZM22.7233 28.5577L22.0025 28.956L22.0036 28.958L22.7233 28.5577ZM23.4029 31.4073L22.5793 31.4031L22.5794 31.4112L23.4029 31.4073ZM22.6168 34.4206L21.9114 33.9956L21.9106 33.9969L22.6168 34.4206ZM20.4141 36.4841L20.7992 37.2121L20.8008 37.2112L20.4141 36.4841ZM17.1387 37.2293V36.4057C16.0837 36.4057 15.1745 36.2121 14.3937 35.8452L14.0434 36.5906L13.6932 37.3359C14.7248 37.8207 15.8791 38.0528 17.1387 38.0528V37.2293ZM14.0434 36.5906L14.3954 35.846C13.6112 35.4753 13.0108 34.9765 12.5702 34.3542L11.8981 34.83L11.2259 35.3059C11.8444 36.1793 12.6742 36.8542 13.6915 37.3351L14.0434 36.5906ZM11.8981 34.83L12.5702 34.3542C12.1408 33.7478 11.9127 33.0519 11.8943 32.2403L11.071 32.2589L10.2477 32.2775C10.273 33.3983 10.5963 34.4166 11.2259 35.3059L11.8981 34.83ZM11.071 32.2589V33.0824H14.5102V32.2589V31.4353H11.071V32.2589ZM14.5102 32.2589L13.6881 32.3072C13.74 33.1896 14.1248 33.9335 14.8163 34.4837L15.329 33.8392L15.8418 33.1948C15.5179 32.9371 15.3568 32.6273 15.3323 32.2105L14.5102 32.2589ZM15.329 33.8392L14.8163 34.4837C15.4813 35.0128 16.269 35.2687 17.1387 35.2687V34.4452V33.6217C16.6109 33.6217 16.1922 33.4736 15.8418 33.1948L15.329 33.8392ZM17.1387 34.4452V35.2687C17.8205 35.2687 18.4573 35.1171 19.0242 34.79L18.6126 34.0767L18.2011 33.3634C17.9163 33.5277 17.5706 33.6217 17.1387 33.6217V34.4452ZM18.6126 34.0767L19.027 34.7884C19.5897 34.4607 20.0319 34.0034 20.3435 33.4299L19.6198 33.0368L18.8962 32.6437C18.7273 32.9545 18.4981 33.1905 18.1982 33.365L18.6126 34.0767ZM19.6198 33.0368L20.3418 33.433C20.6625 32.8485 20.8118 32.1958 20.8118 31.4973H19.9883H19.1648C19.1648 31.9562 19.0684 32.3298 18.8979 32.6406L19.6198 33.0368ZM19.9883 31.4973H20.8118C20.8118 30.7879 20.6597 30.1266 20.3299 29.5386L19.6116 29.9415L18.8934 30.3444C19.0658 30.6517 19.1648 31.0276 19.1648 31.4973H19.9883ZM19.6116 29.9415L20.3336 29.5453C20.0163 28.9671 19.5682 28.507 18.9986 28.1795L18.5881 28.8934L18.1776 29.6073C18.4814 29.782 18.7157 30.0206 18.8897 30.3377L19.6116 29.9415ZM18.5881 28.8934L18.9986 28.1795C18.4256 27.85 17.7844 27.6917 17.0976 27.685L17.0896 28.5085L17.0816 29.332C17.5193 29.3363 17.8771 29.4346 18.1776 29.6073L18.5881 28.8934ZM17.0896 28.5085V27.685C16.4817 27.685 15.8924 27.8107 15.3279 28.0564L15.6566 28.8115L15.9853 29.5666C16.3488 29.4084 16.7148 29.3321 17.0896 29.3321V28.5085ZM15.6566 28.8115L15.3246 28.0578C14.7549 28.3088 14.2746 28.6684 13.9201 29.1511L14.5839 29.6385L15.2477 30.126C15.4063 29.9099 15.6412 29.7182 15.9886 29.5652L15.6566 28.8115ZM14.5839 29.6385L14.7292 28.8279L11.5766 28.2629L11.4313 29.0735L11.286 29.8841L14.4386 30.4491L14.5839 29.6385ZM11.4313 29.0735L12.2515 29.1472L13.0458 20.3036L12.2256 20.2299L11.4054 20.1563L10.6111 28.9999L11.4313 29.0735ZM12.2256 20.2299V21.0535H22.4776V20.2299V19.4064H12.2256V20.2299ZM22.4776 20.2299H21.6541V23.1287H22.4776H23.3011V20.2299H22.4776ZM22.4776 23.1287V22.3051H15.1489V23.1287V23.9522H22.4776V23.1287ZM15.1489 23.1287L14.3297 23.044L13.8957 27.2447L14.7149 27.3294L15.5341 27.414L15.9681 23.2133L15.1489 23.1287ZM14.7149 27.3294V28.1529H14.8132V27.3294V26.5058H14.7149V27.3294ZM14.8132 27.3294L15.4845 27.8064C15.675 27.5383 15.9907 27.2758 16.4913 27.0462L16.1479 26.2976L15.8045 25.5491C15.115 25.8654 14.5409 26.2907 14.1418 26.8524L14.8132 27.3294ZM16.1479 26.2976L16.4913 27.0462C16.9658 26.8285 17.5125 26.7117 18.1459 26.7117V25.8882V25.0647C17.3054 25.0647 16.5201 25.2209 15.8045 25.5491L16.1479 26.2976ZM18.1459 25.8882V26.7117C19.021 26.7117 19.7727 26.9158 20.4244 27.3068L20.8481 26.6006L21.2718 25.8944C20.3404 25.3356 19.2906 25.0647 18.1459 25.0647V25.8882ZM20.8481 26.6006L20.4244 27.3068C21.0881 27.705 21.6121 28.2496 22.0025 28.956L22.7233 28.5577L23.444 28.1593C22.9173 27.2062 22.1912 26.4461 21.2718 25.8944L20.8481 26.6006ZM22.7233 28.5577L22.0036 28.958C22.3842 29.6422 22.5842 30.4491 22.5794 31.4031L23.4029 31.4073L24.2264 31.4114C24.2325 30.2146 23.9794 29.1218 23.4429 28.1573L22.7233 28.5577ZM23.4029 31.4073L22.5794 31.4112C22.5842 32.4059 22.3552 33.2591 21.9114 33.9956L22.6168 34.4206L23.3222 34.8456C23.9375 33.8244 24.2325 32.6686 24.2264 31.4033L23.4029 31.4073ZM22.6168 34.4206L21.9106 33.9969C21.4675 34.7355 20.8467 35.3214 20.0274 35.757L20.4141 36.4841L20.8008 37.2112C21.8704 36.6424 22.718 35.8526 23.323 34.8443L22.6168 34.4206ZM20.4141 36.4841L20.029 35.7562C19.2275 36.1802 18.2722 36.4057 17.1387 36.4057V37.2293V38.0528C18.4945 38.0528 19.7228 37.7816 20.7992 37.2121L20.4141 36.4841ZM36.1688 34.6745L35.5869 35.2573L36.1682 35.8375L36.75 35.2579L36.1688 34.6745ZM26.3835 24.9056L25.7979 24.3266L25.2217 24.9094L25.8017 25.4884L26.3835 24.9056ZM28.5289 22.7356L29.1112 22.1533L28.5256 21.5677L27.9433 22.1566L28.5289 22.7356ZM38.3224 32.5291L38.9036 33.1125L39.4881 32.5302L38.9047 31.9468L38.3224 32.5291ZM28.5289 34.6745L27.9466 35.2568L28.5282 35.8384L29.1105 35.2575L28.5289 34.6745ZM26.3835 32.5291L25.801 31.947L25.2191 32.5293L25.8012 33.1114L26.3835 32.5291ZM36.1688 22.7356L36.7533 22.1555L36.1708 21.5685L35.5862 22.1535L36.1688 22.7356ZM38.3224 24.9056L38.904 25.4886L39.4855 24.9085L38.9069 24.3255L38.3224 24.9056ZM36.1688 34.6745L36.7506 34.0917L26.9654 24.3228L26.3835 24.9056L25.8017 25.4884L35.5869 35.2573L36.1688 34.6745ZM26.3835 24.9056L26.9692 25.4846L29.1145 23.3146L28.5289 22.7356L27.9433 22.1566L25.7979 24.3266L26.3835 24.9056ZM28.5289 22.7356L27.9466 23.3179L37.74 33.1114L38.3224 32.5291L38.9047 31.9468L29.1112 22.1533L28.5289 22.7356ZM38.3224 32.5291L37.7411 31.9456L35.5876 34.091L36.1688 34.6745L36.75 35.2579L38.9036 33.1125L38.3224 32.5291ZM28.5289 34.6745L29.1112 34.0921L26.9658 31.9468L26.3835 32.5291L25.8012 33.1114L27.9466 35.2568L28.5289 34.6745ZM26.3835 32.5291L26.9661 33.1112L36.7514 23.3177L36.1688 22.7356L35.5862 22.1535L25.801 31.947L26.3835 32.5291ZM36.1688 22.7356L35.5843 23.3157L37.7378 25.4857L38.3224 24.9056L38.9069 24.3255L36.7533 22.1555L36.1688 22.7356ZM38.3224 24.9056L37.7408 24.3225L27.9473 34.0914L28.5289 34.6745L29.1105 35.2575L38.904 25.4886L38.3224 24.9056ZM44.5784 36.5906L44.2264 37.3351L44.2282 37.3359L44.5784 36.5906ZM42.433 34.83L43.1051 34.3542L43.1051 34.3542L42.433 34.83ZM41.6059 32.2589V31.4353H40.7636L40.7826 32.2775L41.6059 32.2589ZM45.0451 32.2589L45.8672 32.2105L45.8216 31.4353H45.0451V32.2589ZM45.864 33.8392L46.3767 33.1948L46.3767 33.1948L45.864 33.8392ZM49.1476 34.0767L49.5591 34.79L49.562 34.7884L49.1476 34.0767ZM50.1547 33.0368L49.4328 32.6406L49.4311 32.6437L50.1547 33.0368ZM50.1466 29.9415L49.4246 30.3377L49.4283 30.3444L50.1466 29.9415ZM49.123 28.8934L48.7125 29.6073L48.7125 29.6073L49.123 28.8934ZM47.6245 28.5085L47.6325 27.685H47.6245V28.5085ZM46.1915 28.8115L45.8628 28.0564L45.8595 28.0578L46.1915 28.8115ZM45.1188 29.6385L44.9735 30.4491L45.4788 30.5397L45.7826 30.126L45.1188 29.6385ZM41.9662 29.0735L41.146 28.9999L41.0785 29.7511L41.821 29.8841L41.9662 29.0735ZM42.7605 20.2299V19.4064H42.0076L41.9403 20.1563L42.7605 20.2299ZM53.0125 20.2299H53.8361V19.4064H53.0125V20.2299ZM53.0125 23.1287V23.9522H53.8361V23.1287H53.0125ZM45.6838 23.1287V22.3051H44.941L44.8647 23.044L45.6838 23.1287ZM45.2498 27.3294L44.4307 27.2447L44.3368 28.1529H45.2498V27.3294ZM45.3481 27.3294V28.1529H45.7732L46.0194 27.8064L45.3481 27.3294ZM46.6828 26.2976L47.0262 27.0462L47.0262 27.0462L46.6828 26.2976ZM51.383 26.6006L51.8067 25.8944L51.8067 25.8944L51.383 26.6006ZM53.2582 28.5577L52.5374 28.956L52.5385 28.958L53.2582 28.5577ZM53.9378 31.4073L53.1143 31.4031L53.1143 31.4112L53.9378 31.4073ZM53.1517 34.4206L52.4463 33.9956L52.4456 33.9969L53.1517 34.4206ZM50.949 36.4841L51.3342 37.2121L51.3357 37.2112L50.949 36.4841ZM47.6736 37.2293V36.4057C46.6186 36.4057 45.7094 36.2121 44.9286 35.8452L44.5784 36.5906L44.2282 37.3359C45.2598 37.8207 46.4141 38.0528 47.6736 38.0528V37.2293ZM44.5784 36.5906L44.9303 35.846C44.1462 35.4753 43.5457 34.9765 43.1051 34.3542L42.433 34.83L41.7609 35.3059C42.3793 36.1793 43.2091 36.8542 44.2264 37.3351L44.5784 36.5906ZM42.433 34.83L43.1051 34.3542C42.6758 33.7478 42.4476 33.0519 42.4293 32.2403L41.6059 32.2589L40.7826 32.2775C40.808 33.3983 41.1312 34.4166 41.7609 35.3059L42.433 34.83ZM41.6059 32.2589V33.0824H45.0451V32.2589V31.4353H41.6059V32.2589ZM45.0451 32.2589L44.223 32.3072C44.2749 33.1896 44.6598 33.9335 45.3512 34.4837L45.864 33.8392L46.3767 33.1948C46.0528 32.9371 45.8917 32.6273 45.8672 32.2105L45.0451 32.2589ZM45.864 33.8392L45.3512 34.4837C46.0162 35.0128 46.804 35.2687 47.6736 35.2687V34.4452V33.6217C47.1458 33.6217 46.7271 33.4736 46.3767 33.1948L45.864 33.8392ZM47.6736 34.4452V35.2687C48.3554 35.2687 48.9923 35.1171 49.5591 34.79L49.1476 34.0767L48.736 33.3634C48.4513 33.5277 48.1055 33.6217 47.6736 33.6217V34.4452ZM49.1476 34.0767L49.562 34.7884C50.1247 34.4607 50.5669 34.0034 50.8784 33.4299L50.1547 33.0368L49.4311 32.6437C49.2622 32.9545 49.033 33.1905 48.7332 33.365L49.1476 34.0767ZM50.1547 33.0368L50.8767 33.433C51.1975 32.8485 51.3468 32.1958 51.3468 31.4973H50.5232H49.6997C49.6997 31.9562 49.6033 32.3298 49.4328 32.6406L50.1547 33.0368ZM50.5232 31.4973H51.3468C51.3468 30.7879 51.1946 30.1266 50.8648 29.5386L50.1466 29.9415L49.4283 30.3444C49.6007 30.6517 49.6997 31.0276 49.6997 31.4973H50.5232ZM50.1466 29.9415L50.8685 29.5453C50.5512 28.9671 50.1031 28.507 49.5335 28.1795L49.123 28.8934L48.7125 29.6073C49.0163 29.782 49.2506 30.0206 49.4246 30.3377L50.1466 29.9415ZM49.123 28.8934L49.5335 28.1795C48.9605 27.85 48.3194 27.6917 47.6325 27.685L47.6245 28.5085L47.6165 29.332C48.0542 29.3363 48.4121 29.4346 48.7125 29.6073L49.123 28.8934ZM47.6245 28.5085V27.685C47.0167 27.685 46.4273 27.8107 45.8628 28.0564L46.1915 28.8115L46.5202 29.5666C46.8837 29.4084 47.2497 29.3321 47.6245 29.3321V28.5085ZM46.1915 28.8115L45.8595 28.0578C45.2898 28.3088 44.8095 28.6684 44.455 29.1511L45.1188 29.6385L45.7826 30.126C45.9412 29.9099 46.1761 29.7182 46.5235 29.5652L46.1915 28.8115ZM45.1188 29.6385L45.2641 28.8279L42.1115 28.2629L41.9662 29.0735L41.821 29.8841L44.9735 30.4491L45.1188 29.6385ZM41.9662 29.0735L42.7865 29.1472L43.5808 20.3036L42.7605 20.2299L41.9403 20.1563L41.146 28.9999L41.9662 29.0735ZM42.7605 20.2299V21.0535H53.0125V20.2299V19.4064H42.7605V20.2299ZM53.0125 20.2299H52.189V23.1287H53.0125H53.8361V20.2299H53.0125ZM53.0125 23.1287V22.3051H45.6838V23.1287V23.9522H53.0125V23.1287ZM45.6838 23.1287L44.8647 23.044L44.4307 27.2447L45.2498 27.3294L46.069 27.414L46.503 23.2133L45.6838 23.1287ZM45.2498 27.3294V28.1529H45.3481V27.3294V26.5058H45.2498V27.3294ZM45.3481 27.3294L46.0194 27.8064C46.2099 27.5383 46.5256 27.2758 47.0262 27.0462L46.6828 26.2976L46.3395 25.5491C45.65 25.8654 45.0759 26.2907 44.6768 26.8524L45.3481 27.3294ZM46.6828 26.2976L47.0262 27.0462C47.5007 26.8285 48.0474 26.7117 48.6808 26.7117V25.8882V25.0647C47.8403 25.0647 47.055 25.2209 46.3395 25.5491L46.6828 26.2976ZM48.6808 25.8882V26.7117C49.556 26.7117 50.3076 26.9158 50.9593 27.3068L51.383 26.6006L51.8067 25.8944C50.8753 25.3356 49.8255 25.0647 48.6808 25.0647V25.8882ZM51.383 26.6006L50.9593 27.3068C51.623 27.705 52.147 28.2496 52.5374 28.956L53.2582 28.5577L53.979 28.1593C53.4522 27.2062 52.7262 26.4461 51.8067 25.8944L51.383 26.6006ZM53.2582 28.5577L52.5385 28.958C52.9191 29.6422 53.1192 30.4491 53.1143 31.4031L53.9378 31.4073L54.7614 31.4114C54.7674 30.2146 54.5144 29.1218 53.9779 28.1573L53.2582 28.5577ZM53.9378 31.4073L53.1143 31.4112C53.1191 32.4059 52.8901 33.2591 52.4463 33.9956L53.1517 34.4206L53.8571 34.8456C54.4724 33.8244 54.7675 32.6686 54.7614 31.4033L53.9378 31.4073ZM53.1517 34.4206L52.4456 33.9969C52.0024 34.7355 51.3816 35.3214 50.5624 35.757L50.949 36.4841L51.3357 37.2112C52.4053 36.6424 53.2529 35.8526 53.8579 34.8443L53.1517 34.4206ZM50.949 36.4841L50.5639 35.7562C49.7625 36.1802 48.8071 36.4057 47.6736 36.4057V37.2293V38.0528C49.0295 38.0528 50.2577 37.7816 51.3342 37.2121L50.949 36.4841Z" fill="#2B3F46" mask="url(#path-17-outside-1_2025_1504)"/>
<defs>
<linearGradient id="paint0_linear_2025_1504" x1="35.8411" y1="35.864" x2="-1.88188" y2="2.08424" gradientUnits="userSpaceOnUse">
<stop stop-color="#FFD5EF"/>
<stop offset="1" stop-color="#EFBDFD"/>
</linearGradient>
<linearGradient id="paint1_linear_2025_1504" x1="0" y1="0" x2="15.9633" y2="15.6375" gradientUnits="userSpaceOnUse">
<stop stop-color="#AC93FC"/>
<stop offset="1" stop-color="#E593FC"/>
</linearGradient>
<linearGradient id="paint2_linear_2025_1504" x1="-8.23702e-06" y1="-0.00410309" x2="14.4158" y2="-11.3513" gradientUnits="userSpaceOnUse">
<stop stop-color="#D744C2"/>
<stop offset="1" stop-color="#C665E1"/>
</linearGradient>
<linearGradient id="paint3_linear_2025_1504" x1="3.11084" y1="36.9277" x2="4.97822" y2="37.0006" gradientUnits="userSpaceOnUse">
<stop stop-color="#AC93FC"/>
<stop offset="1" stop-color="#E593FC"/>
</linearGradient>
<linearGradient id="paint4_linear_2025_1504" x1="28.0071" y1="52.6093" x2="34.5163" y2="51.384" gradientUnits="userSpaceOnUse">
<stop stop-color="#D744C2"/>
<stop offset="1" stop-color="#C665E1"/>
</linearGradient>
<linearGradient id="paint5_linear_2025_1504" x1="59.0586" y1="36.9216" x2="60.4531" y2="36.8778" gradientUnits="userSpaceOnUse">
<stop stop-color="#D744C2"/>
<stop offset="1" stop-color="#C665E1"/>
</linearGradient>
<linearGradient id="paint6_linear_2025_1504" x1="35.8853" y1="35.9081" x2="-1.8842" y2="2.0868" gradientUnits="userSpaceOnUse">
<stop stop-color="#FAD5FF"/>
<stop offset="1" stop-color="#CFBDFD"/>
</linearGradient>
<clipPath id="clip0_2025_1504">
<rect width="35.8992" height="35.8992" rx="4.44179" transform="matrix(0.866025 0.5 -0.866025 0.5 31.9104 19)" fill="white"/>
</clipPath>
</defs>
</svg>
