<svg width="64" height="64" viewBox="0 0 64 64" fill="none" xmlns="http://www.w3.org/2000/svg">
<rect width="35.8551" height="35.8551" rx="4.37833" transform="matrix(0.866025 0.5 -0.866025 0.5 31.8887 19)" fill="url(#paint0_linear_2025_1174)"/>
<rect width="26.8913" height="4.48189" transform="matrix(0.866025 0.5 0 1 4.71851 39.1685)" fill="url(#paint1_linear_2025_1174)"/>
<rect width="26.8913" height="4.48189" transform="matrix(0.866025 -0.5 0 1 35.7698 52.6143)" fill="url(#paint2_linear_2025_1174)"/>
<path d="M3.11084 36.9277C3.11084 37.8029 3.72524 38.5952 4.71858 39.1687V43.6506C3.72524 43.0771 3.11084 42.2848 3.11084 41.4096V36.9277Z" fill="url(#paint3_linear_2025_1174)"/>
<path d="M28.0071 52.6143C30.1507 53.8519 33.6263 53.8519 35.7699 52.6143V57.0961C33.6263 58.3338 30.1507 58.3338 28.0071 57.0961V52.6143Z" fill="url(#paint4_linear_2025_1174)"/>
<path d="M60.6663 36.9277C60.6663 37.8029 60.0519 38.5952 59.0586 39.1687V43.6506C60.0519 43.0771 60.6663 42.2848 60.6663 41.4096V36.9277Z" fill="url(#paint5_linear_2025_1174)"/>
<g clip-path="url(#clip0_2025_1174)">
<rect width="35.8992" height="35.8992" rx="4.44179" transform="matrix(0.866025 0.5 -0.866025 0.5 31.9104 19)" fill="url(#paint6_linear_2025_1174)"/>
<rect width="11.5594" height="11.5594" transform="matrix(0.866025 0.5 -0.866025 0.5 31.9104 19)" fill="black" fill-opacity="0.1"/>
<rect width="11.5594" height="11.5594" transform="matrix(0.866025 0.5 -0.866025 0.5 21.3711 25.085)" fill="black" fill-opacity="0.1"/>
<rect width="11.5594" height="11.5594" transform="matrix(0.866025 0.5 -0.866025 0.5 21.3711 37.2549)" fill="black" fill-opacity="0.1"/>
<rect width="11.5594" height="11.5594" transform="matrix(0.866025 0.5 -0.866025 0.5 42.45 25.085)" fill="black" fill-opacity="0.1"/>
<rect width="11.5594" height="11.5594" transform="matrix(0.866025 0.5 -0.866025 0.5 42.45 37.2549)" fill="black" fill-opacity="0.1"/>
<rect width="11.5594" height="11.5594" transform="matrix(0.866025 0.5 -0.866025 0.5 52.9893 31.1699)" fill="black" fill-opacity="0.1"/>
<rect width="11.5594" height="11.5594" transform="matrix(0.866025 0.5 -0.866025 0.5 10.8315 31.1699)" fill="black" fill-opacity="0.1"/>
<rect width="11.5594" height="11.5594" transform="matrix(0.866025 0.5 -0.866025 0.5 31.9104 43.3398)" fill="black" fill-opacity="0.1"/>
<rect width="11.5594" height="11.5594" transform="matrix(0.866025 0.5 -0.866025 0.5 31.9104 31.1699)" fill="black" fill-opacity="0.1"/>
</g>
<mask id="path-17-outside-1_2025_1174" maskUnits="userSpaceOnUse" x="9" y="19" width="47" height="20" fill="black">
<rect fill="white" x="9" y="19" width="47" height="20"/>
<path d="M16.6607 37.2293C15.4379 37.2293 14.3488 37.0191 13.3935 36.5988C12.4436 36.173 11.693 35.5888 11.1416 34.8464C10.5957 34.0985 10.3146 33.236 10.2982 32.2589H13.8684C13.8903 32.6683 14.024 33.0286 14.2697 33.3397C14.5208 33.6454 14.8538 33.8829 15.2687 34.0521C15.6835 34.2214 16.1503 34.306 16.6689 34.306C17.2093 34.306 17.687 34.2104 18.1019 34.0194C18.5168 33.8283 18.8416 33.5636 19.0763 33.2251C19.311 32.8866 19.4284 32.4963 19.4284 32.0541C19.4284 31.6065 19.3029 31.2107 19.0517 30.8668C18.8061 30.5174 18.4513 30.2445 17.9872 30.048C17.5287 29.8514 16.9828 29.7532 16.3495 29.7532H14.7855V27.1492H16.3495C16.8845 27.1492 17.3567 27.0564 17.7661 26.8708C18.181 26.6852 18.5031 26.4286 18.7324 26.1011C18.9617 25.7681 19.0763 25.3805 19.0763 24.9383C19.0763 24.518 18.9753 24.1495 18.7733 23.8329C18.5768 23.5108 18.2984 23.2597 17.9381 23.0795C17.5833 22.8994 17.1684 22.8093 16.6935 22.8093C16.2131 22.8093 15.7736 22.8967 15.3751 23.0714C14.9766 23.2406 14.6572 23.4835 14.417 23.8001C14.1769 24.1168 14.0486 24.488 14.0322 24.9138H10.634C10.6503 23.9475 10.926 23.0959 11.461 22.359C11.996 21.622 12.7166 21.0461 13.6228 20.6312C14.5344 20.2108 15.5634 20.0007 16.7098 20.0007C17.8671 20.0007 18.8798 20.2108 19.7478 20.6312C20.6157 21.0515 21.2899 21.6193 21.7703 22.3344C22.2562 23.0441 22.4964 23.8411 22.4909 24.7254C22.4964 25.6644 22.2043 26.4477 21.6147 27.0755C21.0306 27.7033 20.2691 28.1018 19.3302 28.2711V28.4021C20.5639 28.5604 21.5028 28.9889 22.147 29.6877C22.7966 30.381 23.1187 31.2489 23.1132 32.2916C23.1187 33.2469 22.843 34.0958 22.2862 34.8382C21.7348 35.5807 20.9733 36.1648 20.0016 36.5906C19.0299 37.0164 17.9163 37.2293 16.6607 37.2293ZM35.9549 34.6745L26.1696 24.9056L28.315 22.7356L38.1084 32.5291L35.9549 34.6745ZM28.315 34.6745L26.1696 32.5291L35.9549 22.7356L38.1084 24.9056L28.315 34.6745ZM41.0809 34.0521V31.2599L48.082 20.2299H50.4895V24.0949H49.0647L44.651 31.0797V31.2107H54.6001V34.0521H41.0809ZM49.1302 37V33.2005L49.1957 31.9641V20.2299H52.5202V37H49.1302Z"/>
</mask>
<path d="M16.6607 37.2293C15.4379 37.2293 14.3488 37.0191 13.3935 36.5988C12.4436 36.173 11.693 35.5888 11.1416 34.8464C10.5957 34.0985 10.3146 33.236 10.2982 32.2589H13.8684C13.8903 32.6683 14.024 33.0286 14.2697 33.3397C14.5208 33.6454 14.8538 33.8829 15.2687 34.0521C15.6835 34.2214 16.1503 34.306 16.6689 34.306C17.2093 34.306 17.687 34.2104 18.1019 34.0194C18.5168 33.8283 18.8416 33.5636 19.0763 33.2251C19.311 32.8866 19.4284 32.4963 19.4284 32.0541C19.4284 31.6065 19.3029 31.2107 19.0517 30.8668C18.8061 30.5174 18.4513 30.2445 17.9872 30.048C17.5287 29.8514 16.9828 29.7532 16.3495 29.7532H14.7855V27.1492H16.3495C16.8845 27.1492 17.3567 27.0564 17.7661 26.8708C18.181 26.6852 18.5031 26.4286 18.7324 26.1011C18.9617 25.7681 19.0763 25.3805 19.0763 24.9383C19.0763 24.518 18.9753 24.1495 18.7733 23.8329C18.5768 23.5108 18.2984 23.2597 17.9381 23.0795C17.5833 22.8994 17.1684 22.8093 16.6935 22.8093C16.2131 22.8093 15.7736 22.8967 15.3751 23.0714C14.9766 23.2406 14.6572 23.4835 14.417 23.8001C14.1769 24.1168 14.0486 24.488 14.0322 24.9138H10.634C10.6503 23.9475 10.926 23.0959 11.461 22.359C11.996 21.622 12.7166 21.0461 13.6228 20.6312C14.5344 20.2108 15.5634 20.0007 16.7098 20.0007C17.8671 20.0007 18.8798 20.2108 19.7478 20.6312C20.6157 21.0515 21.2899 21.6193 21.7703 22.3344C22.2562 23.0441 22.4964 23.8411 22.4909 24.7254C22.4964 25.6644 22.2043 26.4477 21.6147 27.0755C21.0306 27.7033 20.2691 28.1018 19.3302 28.2711V28.4021C20.5639 28.5604 21.5028 28.9889 22.147 29.6877C22.7966 30.381 23.1187 31.2489 23.1132 32.2916C23.1187 33.2469 22.843 34.0958 22.2862 34.8382C21.7348 35.5807 20.9733 36.1648 20.0016 36.5906C19.0299 37.0164 17.9163 37.2293 16.6607 37.2293ZM35.9549 34.6745L26.1696 24.9056L28.315 22.7356L38.1084 32.5291L35.9549 34.6745ZM28.315 34.6745L26.1696 32.5291L35.9549 22.7356L38.1084 24.9056L28.315 34.6745ZM41.0809 34.0521V31.2599L48.082 20.2299H50.4895V24.0949H49.0647L44.651 31.0797V31.2107H54.6001V34.0521H41.0809ZM49.1302 37V33.2005L49.1957 31.9641V20.2299H52.5202V37H49.1302Z" fill="white"/>
<path d="M13.3935 36.5988L13.0566 37.3503L13.0618 37.3526L13.3935 36.5988ZM11.1416 34.8464L10.4764 35.332L10.4805 35.3374L11.1416 34.8464ZM10.2982 32.2589V31.4353H9.46078L9.47482 32.2727L10.2982 32.2589ZM13.8684 32.2589L14.6908 32.215L14.6492 31.4353H13.8684V32.2589ZM14.2697 33.3397L13.6233 33.85L13.6282 33.8563L13.6333 33.8625L14.2697 33.3397ZM15.2687 34.0521L14.9576 34.8147L14.9576 34.8147L15.2687 34.0521ZM18.1019 34.0194L17.7574 33.2714L17.7574 33.2714L18.1019 34.0194ZM19.0763 33.2251L19.753 33.6944L19.753 33.6944L19.0763 33.2251ZM19.0517 30.8668L18.3781 31.3405L18.3823 31.3465L18.3866 31.3524L19.0517 30.8668ZM17.9872 30.048L17.6628 30.8049L17.6661 30.8063L17.9872 30.048ZM14.7855 29.7532H13.962V30.5767H14.7855V29.7532ZM14.7855 27.1492V26.3257H13.962V27.1492H14.7855ZM17.7661 26.8708L17.4298 26.1191L17.4261 26.1208L17.7661 26.8708ZM18.7324 26.1011L19.4071 26.5734L19.4107 26.5681L18.7324 26.1011ZM18.7733 23.8329L18.0703 24.2618L18.0746 24.2689L18.079 24.2758L18.7733 23.8329ZM17.9381 23.0795L17.5653 23.8139L17.5698 23.8161L17.9381 23.0795ZM15.3751 23.0714L15.697 23.8294L15.7057 23.8256L15.3751 23.0714ZM14.417 23.8001L15.0731 24.2979L15.0731 24.2979L14.417 23.8001ZM14.0322 24.9138V25.7373H14.8247L14.8551 24.9454L14.0322 24.9138ZM10.634 24.9138L9.81055 24.8998L9.79635 25.7373H10.634V24.9138ZM11.461 22.359L12.1274 22.8427L12.1274 22.8427L11.461 22.359ZM13.6228 20.6312L13.9656 21.38L13.9676 21.379L13.6228 20.6312ZM19.7478 20.6312L20.1067 19.89L20.1067 19.89L19.7478 20.6312ZM21.7703 22.3344L21.0867 22.7936L21.0908 22.7996L21.7703 22.3344ZM22.4909 24.7254L21.6673 24.7203L21.6674 24.7302L22.4909 24.7254ZM21.6147 27.0755L21.0144 26.5118L21.0118 26.5146L21.6147 27.0755ZM19.3302 28.2711L19.1841 27.4606L18.5066 27.5827V28.2711H19.3302ZM19.3302 28.4021H18.5066V29.1267L19.2253 29.2189L19.3302 28.4021ZM22.147 29.6877L21.5415 30.2459L21.5461 30.2508L22.147 29.6877ZM23.1132 32.2916L22.2897 32.2873L22.2897 32.2963L23.1132 32.2916ZM22.2862 34.8382L21.6274 34.3441L21.6251 34.3472L22.2862 34.8382ZM20.0016 36.5906L19.6711 35.8363L19.6711 35.8363L20.0016 36.5906ZM16.6607 37.2293V36.4057C15.5327 36.4057 14.5596 36.2121 13.7252 35.845L13.3935 36.5988L13.0618 37.3526C14.1381 37.8261 15.3431 38.0528 16.6607 38.0528V37.2293ZM13.3935 36.5988L13.7304 35.8473C12.8926 35.4718 12.26 34.9711 11.8028 34.3554L11.1416 34.8464L10.4805 35.3374C11.126 36.2066 11.9946 36.8742 13.0566 37.3502L13.3935 36.5988ZM11.1416 34.8464L11.8068 34.3609C11.3668 33.758 11.1353 33.0624 11.1216 32.2451L10.2982 32.2589L9.47482 32.2727C9.49387 33.4096 9.82472 34.4391 10.4765 35.332L11.1416 34.8464ZM10.2982 32.2589V33.0824H13.8684V32.2589V31.4353H10.2982V32.2589ZM13.8684 32.2589L13.0461 32.3027C13.0766 32.8759 13.2684 33.4005 13.6233 33.85L14.2697 33.3397L14.916 32.8294C14.7796 32.6566 14.7039 32.4607 14.6908 32.215L13.8684 32.2589ZM14.2697 33.3397L13.6333 33.8625C13.9822 34.2872 14.4331 34.6007 14.9576 34.8147L15.2687 34.0521L15.5797 33.2896C15.2745 33.1651 15.0593 33.0037 14.906 32.817L14.2697 33.3397ZM15.2687 34.0521L14.9576 34.8147C15.4855 35.03 16.0602 35.1295 16.6689 35.1295V34.306V33.4825C16.2403 33.4825 15.8815 33.4127 15.5797 33.2896L15.2687 34.0521ZM16.6689 34.306V35.1295C17.3067 35.1295 17.9055 35.0165 18.4464 34.7674L18.1019 34.0194L17.7574 33.2714C17.4685 33.4044 17.1119 33.4825 16.6689 33.4825V34.306ZM18.1019 34.0194L18.4464 34.7674C18.9799 34.5217 19.4255 34.1666 19.753 33.6944L19.0763 33.2251L18.3996 32.7558C18.2576 32.9605 18.0536 33.135 17.7574 33.2714L18.1019 34.0194ZM19.0763 33.2251L19.753 33.6944C20.0905 33.2078 20.2519 32.6511 20.2519 32.0541H19.4284H18.6049C18.6049 32.3416 18.5316 32.5655 18.3996 32.7558L19.0763 33.2251ZM19.4284 32.0541H20.2519C20.2519 31.4414 20.0764 30.8736 19.7168 30.3812L19.0517 30.8668L18.3866 31.3524C18.5293 31.5479 18.6049 31.7716 18.6049 32.0541H19.4284ZM19.0517 30.8668L19.7254 30.3931C19.3763 29.8966 18.8884 29.5353 18.3084 29.2896L17.9872 30.048L17.6661 30.8063C18.0141 30.9537 18.2359 31.1382 18.3781 31.3405L19.0517 30.8668ZM17.9872 30.048L18.3116 29.291C17.727 29.0404 17.0654 28.9296 16.3495 28.9296V29.7532V30.5767C16.9002 30.5767 17.3304 30.6624 17.6628 30.8049L17.9872 30.048ZM16.3495 29.7532V28.9296H14.7855V29.7532V30.5767H16.3495V29.7532ZM14.7855 29.7532H15.6091V27.1492H14.7855H13.962V29.7532H14.7855ZM14.7855 27.1492V27.9728H16.3495V27.1492V26.3257H14.7855V27.1492ZM16.3495 27.1492V27.9728C16.9798 27.9728 17.5716 27.8632 18.1062 27.6209L17.7661 26.8708L17.4261 26.1208C17.1419 26.2496 16.7892 26.3257 16.3495 26.3257V27.1492ZM17.7661 26.8708L18.1024 27.6226C18.6343 27.3846 19.0812 27.0389 19.4071 26.5734L18.7324 26.1011L18.0577 25.6288C17.9251 25.8183 17.7277 25.9858 17.4298 26.1191L17.7661 26.8708ZM18.7324 26.1011L19.4107 26.5681C19.7434 26.0849 19.8998 25.5309 19.8998 24.9383H19.0763H18.2528C18.2528 25.2301 18.1799 25.4513 18.0541 25.6341L18.7324 26.1011ZM19.0763 24.9383H19.8998C19.8998 24.3804 19.7638 23.8543 19.4676 23.39L18.7733 23.8329L18.079 24.2758C18.1868 24.4447 18.2528 24.6556 18.2528 24.9383H19.0763ZM18.7733 23.8329L19.4763 23.4039C19.1938 22.9409 18.7952 22.5873 18.3064 22.343L17.9381 23.0795L17.5698 23.8161C17.8016 23.932 17.9598 24.0807 18.0703 24.2618L18.7733 23.8329ZM17.9381 23.0795L18.3109 22.3452C17.8202 22.0961 17.2731 21.9858 16.6935 21.9858V22.8093V23.6329C17.0637 23.6329 17.3463 23.7027 17.5653 23.8139L17.9381 23.0795ZM16.6935 22.8093V21.9858C16.1112 21.9858 15.5576 22.0922 15.0445 22.3171L15.3751 23.0714L15.7057 23.8256C15.9896 23.7012 16.315 23.6329 16.6935 23.6329V22.8093ZM15.3751 23.0714L15.0532 22.3133C14.5347 22.5335 14.0956 22.8613 13.761 23.3024L14.417 23.8001L15.0731 24.2979C15.2189 24.1057 15.4185 23.9476 15.697 23.8294L15.3751 23.0714ZM14.417 23.8001L13.761 23.3024C13.4112 23.7635 13.2316 24.3004 13.2093 24.8821L14.0322 24.9138L14.8551 24.9454C14.8655 24.6756 14.9425 24.47 15.0731 24.2979L14.417 23.8001ZM14.0322 24.9138V24.0902H10.634V24.9138V25.7373H14.0322V24.9138ZM10.634 24.9138L11.4574 24.9277C11.4711 24.1196 11.698 23.4343 12.1274 22.8427L11.461 22.359L10.7946 21.8752C10.154 22.7575 9.82961 23.7755 9.81055 24.8998L10.634 24.9138ZM11.461 22.359L12.1274 22.8427C12.5714 22.2311 13.1758 21.7416 13.9656 21.38L13.6228 20.6312L13.2799 19.8824C12.2574 20.3506 11.4205 21.0129 10.7946 21.8752L11.461 22.359ZM13.6228 20.6312L13.9676 21.379C14.7568 21.0152 15.6656 20.8242 16.7098 20.8242V20.0007V19.1771C15.4613 19.1771 14.3121 19.4065 13.2779 19.8833L13.6228 20.6312ZM16.7098 20.0007V20.8242C17.7674 20.8242 18.6529 21.016 19.3888 21.3724L19.7478 20.6312L20.1067 19.89C19.1066 19.4057 17.9669 19.1771 16.7098 19.1771V20.0007ZM19.7478 20.6312L19.3888 21.3724C20.1416 21.7369 20.6971 22.2135 21.0867 22.7936L21.7703 22.3344L22.4539 21.8752C21.8828 21.025 21.0899 20.3661 20.1067 19.89L19.7478 20.6312ZM21.7703 22.3344L21.0908 22.7996C21.479 23.3667 21.6719 23.9987 21.6674 24.7203L22.4909 24.7254L23.3144 24.7305C23.3209 23.6834 23.0333 22.7214 22.4499 21.8692L21.7703 22.3344ZM22.4909 24.7254L21.6674 24.7302C21.6718 25.4789 21.4458 26.0524 21.0144 26.5118L21.6147 27.0755L22.215 27.6393C22.9628 26.8431 23.321 25.8499 23.3144 24.7206L22.4909 24.7254ZM21.6147 27.0755L21.0118 26.5146C20.5626 26.9973 19.9685 27.3192 19.1841 27.4606L19.3302 28.2711L19.4762 29.0815C20.5697 28.8845 21.4986 28.4093 22.2177 27.6365L21.6147 27.0755ZM19.3302 28.2711H18.5066V28.4021H19.3302H20.1537V28.2711H19.3302ZM19.3302 28.4021L19.2253 29.2189C20.3271 29.3603 21.0646 29.7285 21.5415 30.2459L22.147 29.6877L22.7525 29.1295C21.9411 28.2493 20.8007 27.7605 19.435 27.5852L19.3302 28.4021ZM22.147 29.6877L21.5461 30.2508C22.037 30.7747 22.2942 31.4329 22.2897 32.2873L23.1132 32.2916L23.9368 32.2959C23.9432 31.065 23.5562 29.9872 22.7479 29.1246L22.147 29.6877ZM23.1132 32.2916L22.2897 32.2963C22.2942 33.0775 22.0729 33.75 21.6274 34.3441L22.2862 34.8382L22.945 35.3324C23.6131 34.4416 23.9432 33.4163 23.9368 32.2869L23.1132 32.2916ZM22.2862 34.8382L21.6251 34.3472C21.171 34.9586 20.5311 35.4594 19.6711 35.8363L20.0016 36.5906L20.3321 37.3449C21.4155 36.8701 22.2987 36.2027 22.9474 35.3292L22.2862 34.8382ZM20.0016 36.5906L19.6711 35.8363C18.8209 36.2088 17.8231 36.4057 16.6607 36.4057V37.2293V38.0528C18.0095 38.0528 19.2389 37.8239 20.3321 37.3449L20.0016 36.5906ZM35.9549 34.6745L35.373 35.2573L35.9542 35.8375L36.5361 35.2579L35.9549 34.6745ZM26.1696 24.9056L25.584 24.3266L25.0078 24.9094L25.5878 25.4884L26.1696 24.9056ZM28.315 22.7356L28.8973 22.1533L28.3117 21.5677L27.7294 22.1566L28.315 22.7356ZM38.1084 32.5291L38.6896 33.1125L39.2742 32.5302L38.6908 31.9468L38.1084 32.5291ZM28.315 34.6745L27.7327 35.2568L28.3143 35.8384L28.8966 35.2575L28.315 34.6745ZM26.1696 32.5291L25.587 31.947L25.0052 32.5293L25.5873 33.1114L26.1696 32.5291ZM35.9549 22.7356L36.5394 22.1555L35.9568 21.5685L35.3723 22.1535L35.9549 22.7356ZM38.1084 24.9056L38.69 25.4886L39.2716 24.9085L38.693 24.3255L38.1084 24.9056ZM35.9549 34.6745L36.5367 34.0917L26.7514 24.3228L26.1696 24.9056L25.5878 25.4884L35.373 35.2573L35.9549 34.6745ZM26.1696 24.9056L26.7552 25.4846L28.9006 23.3146L28.315 22.7356L27.7294 22.1566L25.584 24.3266L26.1696 24.9056ZM28.315 22.7356L27.7327 23.3179L37.5261 33.1114L38.1084 32.5291L38.6908 31.9468L28.8973 22.1533L28.315 22.7356ZM38.1084 32.5291L37.5272 31.9456L35.3736 34.091L35.9549 34.6745L36.5361 35.2579L38.6896 33.1125L38.1084 32.5291ZM28.315 34.6745L28.8973 34.0921L26.7519 31.9468L26.1696 32.5291L25.5873 33.1114L27.7327 35.2568L28.315 34.6745ZM26.1696 32.5291L26.7522 33.1112L36.5374 23.3177L35.9549 22.7356L35.3723 22.1535L25.587 31.947L26.1696 32.5291ZM35.9549 22.7356L35.3703 23.3157L37.5239 25.4857L38.1084 24.9056L38.693 24.3255L36.5394 22.1555L35.9549 22.7356ZM38.1084 24.9056L37.5268 24.3225L27.7334 34.0914L28.315 34.6745L28.8966 35.2575L38.69 25.4886L38.1084 24.9056ZM41.0809 34.0521H40.2573V34.8757H41.0809V34.0521ZM41.0809 31.2599L40.3856 30.8185L40.2573 31.0206V31.2599H41.0809ZM48.082 20.2299V19.4064H47.6293L47.3867 19.7886L48.082 20.2299ZM50.4895 20.2299H51.313V19.4064H50.4895V20.2299ZM50.4895 24.0949V24.9184H51.313V24.0949H50.4895ZM49.0647 24.0949V23.2714H48.6109L48.3685 23.655L49.0647 24.0949ZM44.651 31.0797L43.9549 30.6398L43.8275 30.8413V31.0797H44.651ZM44.651 31.2107H43.8275V32.0343H44.651V31.2107ZM54.6001 31.2107H55.4236V30.3872H54.6001V31.2107ZM54.6001 34.0521V34.8757H55.4236V34.0521H54.6001ZM49.1302 37H48.3066V37.8235H49.1302V37ZM49.1302 33.2005L48.3078 33.157L48.3066 33.1787V33.2005H49.1302ZM49.1957 31.9641L50.018 32.0076L50.0192 31.9859V31.9641H49.1957ZM49.1957 20.2299V19.4064H48.3721V20.2299H49.1957ZM52.5202 20.2299H53.3437V19.4064H52.5202V20.2299ZM52.5202 37V37.8235H53.3437V37H52.5202ZM41.0809 34.0521H41.9044V31.2599H41.0809H40.2573V34.0521H41.0809ZM41.0809 31.2599L41.7762 31.7012L48.7773 20.6713L48.082 20.2299L47.3867 19.7886L40.3856 30.8185L41.0809 31.2599ZM48.082 20.2299V21.0535H50.4895V20.2299V19.4064H48.082V20.2299ZM50.4895 20.2299H49.6659V24.0949H50.4895H51.313V20.2299H50.4895ZM50.4895 24.0949V23.2714H49.0647V24.0949V24.9184H50.4895V24.0949ZM49.0647 24.0949L48.3685 23.655L43.9549 30.6398L44.651 31.0797L45.3472 31.5196L49.7608 24.5348L49.0647 24.0949ZM44.651 31.0797H43.8275V31.2107H44.651H45.4746V31.0797H44.651ZM44.651 31.2107V32.0343H54.6001V31.2107V30.3872H44.651V31.2107ZM54.6001 31.2107H53.7766V34.0521H54.6001H55.4236V31.2107H54.6001ZM54.6001 34.0521V33.2286H41.0809V34.0521V34.8757H54.6001V34.0521ZM49.1302 37H49.9537V33.2005H49.1302H48.3066V37H49.1302ZM49.1302 33.2005L49.9525 33.2441L50.018 32.0076L49.1957 31.9641L48.3733 31.9205L48.3078 33.157L49.1302 33.2005ZM49.1957 31.9641H50.0192V20.2299H49.1957H48.3721V31.9641H49.1957ZM49.1957 20.2299V21.0535H52.5202V20.2299V19.4064H49.1957V20.2299ZM52.5202 20.2299H51.6967V37H52.5202H53.3437V20.2299H52.5202ZM52.5202 37V36.1765H49.1302V37V37.8235H52.5202V37Z" fill="#2B3F46" mask="url(#path-17-outside-1_2025_1174)"/>
<defs>
<linearGradient id="paint0_linear_2025_1174" x1="35.8411" y1="35.864" x2="-1.88188" y2="2.08424" gradientUnits="userSpaceOnUse">
<stop stop-color="#FFD5EF"/>
<stop offset="1" stop-color="#EFBDFD"/>
</linearGradient>
<linearGradient id="paint1_linear_2025_1174" x1="0" y1="0" x2="15.9633" y2="15.6375" gradientUnits="userSpaceOnUse">
<stop stop-color="#AC93FC"/>
<stop offset="1" stop-color="#E593FC"/>
</linearGradient>
<linearGradient id="paint2_linear_2025_1174" x1="-8.23702e-06" y1="-0.00410309" x2="14.4158" y2="-11.3513" gradientUnits="userSpaceOnUse">
<stop stop-color="#D744C2"/>
<stop offset="1" stop-color="#C665E1"/>
</linearGradient>
<linearGradient id="paint3_linear_2025_1174" x1="3.11084" y1="36.9277" x2="4.97822" y2="37.0006" gradientUnits="userSpaceOnUse">
<stop stop-color="#AC93FC"/>
<stop offset="1" stop-color="#E593FC"/>
</linearGradient>
<linearGradient id="paint4_linear_2025_1174" x1="28.0071" y1="52.6093" x2="34.5163" y2="51.384" gradientUnits="userSpaceOnUse">
<stop stop-color="#D744C2"/>
<stop offset="1" stop-color="#C665E1"/>
</linearGradient>
<linearGradient id="paint5_linear_2025_1174" x1="59.0586" y1="36.9216" x2="60.4531" y2="36.8778" gradientUnits="userSpaceOnUse">
<stop stop-color="#D744C2"/>
<stop offset="1" stop-color="#C665E1"/>
</linearGradient>
<linearGradient id="paint6_linear_2025_1174" x1="35.8853" y1="35.9081" x2="-1.8842" y2="2.0868" gradientUnits="userSpaceOnUse">
<stop stop-color="#FAD5FF"/>
<stop offset="1" stop-color="#CFBDFD"/>
</linearGradient>
<clipPath id="clip0_2025_1174">
<rect width="35.8992" height="35.8992" rx="4.44179" transform="matrix(0.866025 0.5 -0.866025 0.5 31.9104 19)" fill="white"/>
</clipPath>
</defs>
</svg>
