<svg width="64" height="64" viewBox="0 0 64 64" fill="none" xmlns="http://www.w3.org/2000/svg">
<rect width="35.8551" height="35.8551" rx="4.37833" transform="matrix(0.866025 0.5 -0.866025 0.5 31.8887 19)" fill="url(#paint0_linear_2025_1354)"/>
<rect width="26.8913" height="4.48189" transform="matrix(0.866025 0.5 0 1 4.71851 39.1685)" fill="url(#paint1_linear_2025_1354)"/>
<rect width="26.8913" height="4.48189" transform="matrix(0.866025 -0.5 0 1 35.7698 52.6143)" fill="url(#paint2_linear_2025_1354)"/>
<path d="M3.11084 36.9277C3.11084 37.8029 3.72524 38.5952 4.71858 39.1687V43.6506C3.72524 43.0771 3.11084 42.2848 3.11084 41.4096V36.9277Z" fill="url(#paint3_linear_2025_1354)"/>
<path d="M28.0071 52.6143C30.1507 53.8519 33.6263 53.8519 35.7699 52.6143V57.0961C33.6263 58.3338 30.1507 58.3338 28.0071 57.0961V52.6143Z" fill="url(#paint4_linear_2025_1354)"/>
<path d="M60.6663 36.9277C60.6663 37.8029 60.0519 38.5952 59.0586 39.1687V43.6506C60.0519 43.0771 60.6663 42.2848 60.6663 41.4096V36.9277Z" fill="url(#paint5_linear_2025_1354)"/>
<g clip-path="url(#clip0_2025_1354)">
<rect width="35.8992" height="35.8992" rx="4.44179" transform="matrix(0.866025 0.5 -0.866025 0.5 31.9104 19)" fill="url(#paint6_linear_2025_1354)"/>
<rect width="11.5594" height="11.5594" transform="matrix(0.866025 0.5 -0.866025 0.5 31.9104 19)" fill="black" fill-opacity="0.1"/>
<rect width="11.5594" height="11.5594" transform="matrix(0.866025 0.5 -0.866025 0.5 21.3711 25.085)" fill="black" fill-opacity="0.1"/>
<rect width="11.5594" height="11.5594" transform="matrix(0.866025 0.5 -0.866025 0.5 21.3711 37.2549)" fill="black" fill-opacity="0.1"/>
<rect width="11.5594" height="11.5594" transform="matrix(0.866025 0.5 -0.866025 0.5 42.45 25.085)" fill="black" fill-opacity="0.1"/>
<rect width="11.5594" height="11.5594" transform="matrix(0.866025 0.5 -0.866025 0.5 42.45 37.2549)" fill="black" fill-opacity="0.1"/>
<rect width="11.5594" height="11.5594" transform="matrix(0.866025 0.5 -0.866025 0.5 52.9893 31.1699)" fill="black" fill-opacity="0.1"/>
<rect width="11.5594" height="11.5594" transform="matrix(0.866025 0.5 -0.866025 0.5 10.8315 31.1699)" fill="black" fill-opacity="0.1"/>
<rect width="11.5594" height="11.5594" transform="matrix(0.866025 0.5 -0.866025 0.5 31.9104 43.3398)" fill="black" fill-opacity="0.1"/>
<rect width="11.5594" height="11.5594" transform="matrix(0.866025 0.5 -0.866025 0.5 31.9104 31.1699)" fill="black" fill-opacity="0.1"/>
</g>
<rect width="36.3283" height="36.3283" rx="4.43612" transform="matrix(0.866025 0.5 -0.866025 0.5 31.478 18.4604)" fill="url(#paint7_linear_2025_1354)"/>
<rect width="27.2462" height="4.54104" transform="matrix(0.866025 0.5 0 1 3.94922 38.8955)" fill="url(#paint8_linear_2025_1354)"/>
<rect width="27.2462" height="4.54104" transform="matrix(0.866025 -0.5 0 1 35.4104 52.5186)" fill="url(#paint9_linear_2025_1354)"/>
<path d="M2.32056 36.625C2.32056 37.5117 2.94306 38.3144 3.94952 38.8955V43.4366C2.94306 42.8555 2.32056 42.0527 2.32056 41.166V36.625Z" fill="url(#paint10_linear_2025_1354)"/>
<path d="M27.5452 52.5186C29.7171 53.7725 33.2385 53.7725 35.4105 52.5186V57.0596C33.2385 58.3136 29.7171 58.3136 27.5452 57.0596V52.5186Z" fill="url(#paint11_linear_2025_1354)"/>
<path d="M60.6356 36.625C60.6356 37.5117 60.013 38.3144 59.0066 38.8955V43.4366C60.013 42.8555 60.6356 42.0527 60.6356 41.166V36.625Z" fill="url(#paint12_linear_2025_1354)"/>
<g clip-path="url(#clip1_2025_1354)">
<rect width="11.712" height="11.712" transform="matrix(0.866025 0.5 -0.866025 0.5 31.5 18.4604)" fill="white" fill-opacity="0.2"/>
<rect width="11.712" height="11.712" transform="matrix(0.866025 0.5 -0.866025 0.5 20.8213 24.626)" fill="white" fill-opacity="0.2"/>
<rect width="11.712" height="11.712" transform="matrix(0.866025 0.5 -0.866025 0.5 20.8215 36.9561)" fill="white" fill-opacity="0.2"/>
<rect width="11.712" height="11.712" transform="matrix(0.866025 0.5 -0.866025 0.5 42.1785 24.6255)" fill="white" fill-opacity="0.2"/>
<rect width="11.712" height="11.712" transform="matrix(0.866025 0.5 -0.866025 0.5 42.1785 36.9561)" fill="white" fill-opacity="0.2"/>
<rect width="11.712" height="11.712" transform="matrix(0.866025 0.5 -0.866025 0.5 52.8569 30.791)" fill="white" fill-opacity="0.2"/>
<rect width="11.712" height="11.712" transform="matrix(0.866025 0.5 -0.866025 0.5 10.1428 30.791)" fill="white" fill-opacity="0.2"/>
<rect width="11.712" height="11.712" transform="matrix(0.866025 0.5 -0.866025 0.5 31.5 43.1216)" fill="white" fill-opacity="0.2"/>
<rect width="11.712" height="11.712" transform="matrix(0.866025 0.5 -0.866025 0.5 31.5 30.791)" fill="white" fill-opacity="0.2"/>
</g>
<mask id="path-33-outside-1_2025_1354" maskUnits="userSpaceOnUse" x="9" y="19" width="47" height="20" fill="black">
<rect fill="white" x="9" y="19" width="47" height="20"/>
<path d="M10.377 34.0521V31.2599L17.3782 20.2299H19.7856V24.0949H18.3608L13.9472 31.0797V31.2107H23.8963V34.0521H10.377ZM18.4263 37V33.2005L18.4919 31.9641V20.2299H21.8164V37H18.4263ZM36.5516 34.6745L26.7663 24.9056L28.9117 22.7356L38.7052 32.5291L36.5516 34.6745ZM28.9117 34.6745L26.7663 32.5291L36.5516 22.7356L38.7052 24.9056L28.9117 34.6745ZM48.0564 37.2293C46.8991 37.2293 45.8674 37.0164 44.9612 36.5906C44.0605 36.1648 43.3453 35.5779 42.8158 34.83C42.2863 34.0822 42.0106 33.2251 41.9888 32.2589H45.4279C45.4661 32.9085 45.7391 33.4353 46.2468 33.8392C46.7545 34.2432 47.3577 34.4452 48.0564 34.4452C48.6133 34.4452 49.1046 34.3224 49.5304 34.0767C49.9616 33.8256 50.2974 33.4789 50.5376 33.0368C50.7832 32.5891 50.906 32.076 50.906 31.4973C50.906 30.9078 50.7805 30.3891 50.5294 29.9415C50.2837 29.4939 49.9425 29.1445 49.5058 28.8934C49.0691 28.6423 48.5696 28.514 48.0073 28.5085C47.516 28.5085 47.0383 28.6095 46.5743 28.8115C46.1158 29.0135 45.7582 29.2892 45.5016 29.6385L42.3491 29.0735L43.1433 20.2299H53.3953V23.1287H46.0666L45.6326 27.3294H45.7309C46.0257 26.9145 46.4706 26.5706 47.0656 26.2976C47.6607 26.0247 48.3267 25.8882 49.0636 25.8882C50.0735 25.8882 50.9743 26.1257 51.7658 26.6006C52.5574 27.0755 53.1824 27.7279 53.641 28.5577C54.0996 29.382 54.3261 30.3318 54.3206 31.4073C54.3261 32.5373 54.0641 33.5417 53.5346 34.4206C53.0105 35.2941 52.2763 35.9819 51.3318 36.4841C50.3929 36.9809 49.3011 37.2293 48.0564 37.2293Z"/>
</mask>
<path d="M10.377 34.0521V31.2599L17.3782 20.2299H19.7856V24.0949H18.3608L13.9472 31.0797V31.2107H23.8963V34.0521H10.377ZM18.4263 37V33.2005L18.4919 31.9641V20.2299H21.8164V37H18.4263ZM36.5516 34.6745L26.7663 24.9056L28.9117 22.7356L38.7052 32.5291L36.5516 34.6745ZM28.9117 34.6745L26.7663 32.5291L36.5516 22.7356L38.7052 24.9056L28.9117 34.6745ZM48.0564 37.2293C46.8991 37.2293 45.8674 37.0164 44.9612 36.5906C44.0605 36.1648 43.3453 35.5779 42.8158 34.83C42.2863 34.0822 42.0106 33.2251 41.9888 32.2589H45.4279C45.4661 32.9085 45.7391 33.4353 46.2468 33.8392C46.7545 34.2432 47.3577 34.4452 48.0564 34.4452C48.6133 34.4452 49.1046 34.3224 49.5304 34.0767C49.9616 33.8256 50.2974 33.4789 50.5376 33.0368C50.7832 32.5891 50.906 32.076 50.906 31.4973C50.906 30.9078 50.7805 30.3891 50.5294 29.9415C50.2837 29.4939 49.9425 29.1445 49.5058 28.8934C49.0691 28.6423 48.5696 28.514 48.0073 28.5085C47.516 28.5085 47.0383 28.6095 46.5743 28.8115C46.1158 29.0135 45.7582 29.2892 45.5016 29.6385L42.3491 29.0735L43.1433 20.2299H53.3953V23.1287H46.0666L45.6326 27.3294H45.7309C46.0257 26.9145 46.4706 26.5706 47.0656 26.2976C47.6607 26.0247 48.3267 25.8882 49.0636 25.8882C50.0735 25.8882 50.9743 26.1257 51.7658 26.6006C52.5574 27.0755 53.1824 27.7279 53.641 28.5577C54.0996 29.382 54.3261 30.3318 54.3206 31.4073C54.3261 32.5373 54.0641 33.5417 53.5346 34.4206C53.0105 35.2941 52.2763 35.9819 51.3318 36.4841C50.3929 36.9809 49.3011 37.2293 48.0564 37.2293Z" fill="white"/>
<path d="M10.377 34.0521H9.55352V34.8757H10.377V34.0521ZM10.377 31.2599L9.68176 30.8185L9.55352 31.0206V31.2599H10.377ZM17.3782 20.2299V19.4064H16.9255L16.6829 19.7886L17.3782 20.2299ZM19.7856 20.2299H20.6092V19.4064H19.7856V20.2299ZM19.7856 24.0949V24.9184H20.6092V24.0949H19.7856ZM18.3608 24.0949V23.2714H17.9071L17.6646 23.655L18.3608 24.0949ZM13.9472 31.0797L13.251 30.6398L13.1237 30.8413V31.0797H13.9472ZM13.9472 31.2107H13.1237V32.0343H13.9472V31.2107ZM23.8963 31.2107H24.7198V30.3872H23.8963V31.2107ZM23.8963 34.0521V34.8757H24.7198V34.0521H23.8963ZM18.4263 37H17.6028V37.8235H18.4263V37ZM18.4263 33.2005L17.604 33.157L17.6028 33.1787V33.2005H18.4263ZM18.4919 31.9641L19.3142 32.0076L19.3154 31.9859V31.9641H18.4919ZM18.4919 20.2299V19.4064H17.6683V20.2299H18.4919ZM21.8164 20.2299H22.6399V19.4064H21.8164V20.2299ZM21.8164 37V37.8235H22.6399V37H21.8164ZM10.377 34.0521H11.2006V31.2599H10.377H9.55352V34.0521H10.377ZM10.377 31.2599L11.0723 31.7012L18.0735 20.6713L17.3782 20.2299L16.6829 19.7886L9.68176 30.8185L10.377 31.2599ZM17.3782 20.2299V21.0535H19.7856V20.2299V19.4064H17.3782V20.2299ZM19.7856 20.2299H18.9621V24.0949H19.7856H20.6092V20.2299H19.7856ZM19.7856 24.0949V23.2714H18.3608V24.0949V24.9184H19.7856V24.0949ZM18.3608 24.0949L17.6646 23.655L13.251 30.6398L13.9472 31.0797L14.6434 31.5196L19.057 24.5348L18.3608 24.0949ZM13.9472 31.0797H13.1237V31.2107H13.9472H14.7708V31.0797H13.9472ZM13.9472 31.2107V32.0343H23.8963V31.2107V30.3872H13.9472V31.2107ZM23.8963 31.2107H23.0727V34.0521H23.8963H24.7198V31.2107H23.8963ZM23.8963 34.0521V33.2286H10.377V34.0521V34.8757H23.8963V34.0521ZM18.4263 37H19.2499V33.2005H18.4263H17.6028V37H18.4263ZM18.4263 33.2005L19.2487 33.2441L19.3142 32.0076L18.4919 31.9641L17.6695 31.9205L17.604 33.157L18.4263 33.2005ZM18.4919 31.9641H19.3154V20.2299H18.4919H17.6683V31.9641H18.4919ZM18.4919 20.2299V21.0535H21.8164V20.2299V19.4064H18.4919V20.2299ZM21.8164 20.2299H20.9929V37H21.8164H22.6399V20.2299H21.8164ZM21.8164 37V36.1765H18.4263V37V37.8235H21.8164V37ZM36.5516 34.6745L35.9698 35.2573L36.551 35.8375L37.1328 35.2579L36.5516 34.6745ZM26.7663 24.9056L26.1807 24.3266L25.6045 24.9094L26.1845 25.4884L26.7663 24.9056ZM28.9117 22.7356L29.494 22.1533L28.9084 21.5677L28.3261 22.1566L28.9117 22.7356ZM38.7052 32.5291L39.2864 33.1125L39.8709 32.5302L39.2875 31.9468L38.7052 32.5291ZM28.9117 34.6745L28.3294 35.2568L28.911 35.8384L29.4933 35.2575L28.9117 34.6745ZM26.7663 32.5291L26.1838 31.947L25.6019 32.5293L26.184 33.1114L26.7663 32.5291ZM36.5516 22.7356L37.1361 22.1555L36.5536 21.5685L35.969 22.1535L36.5516 22.7356ZM38.7052 24.9056L39.2868 25.4886L39.8683 24.9085L39.2897 24.3255L38.7052 24.9056ZM36.5516 34.6745L37.1334 34.0917L27.3482 24.3228L26.7663 24.9056L26.1845 25.4884L35.9698 35.2573L36.5516 34.6745ZM26.7663 24.9056L27.352 25.4846L29.4974 23.3146L28.9117 22.7356L28.3261 22.1566L26.1807 24.3266L26.7663 24.9056ZM28.9117 22.7356L28.3294 23.3179L38.1229 33.1114L38.7052 32.5291L39.2875 31.9468L29.494 22.1533L28.9117 22.7356ZM38.7052 32.5291L38.124 31.9456L35.9704 34.091L36.5516 34.6745L37.1328 35.2579L39.2864 33.1125L38.7052 32.5291ZM28.9117 34.6745L29.494 34.0921L27.3487 31.9468L26.7663 32.5291L26.184 33.1114L28.3294 35.2568L28.9117 34.6745ZM26.7663 32.5291L27.3489 33.1112L37.1342 23.3177L36.5516 22.7356L35.969 22.1535L26.1838 31.947L26.7663 32.5291ZM36.5516 22.7356L35.9671 23.3157L38.1206 25.4857L38.7052 24.9056L39.2897 24.3255L37.1361 22.1555L36.5516 22.7356ZM38.7052 24.9056L38.1236 24.3225L28.3301 34.0914L28.9117 34.6745L29.4933 35.2575L39.2868 25.4886L38.7052 24.9056ZM44.9612 36.5906L44.6092 37.3351L44.611 37.3359L44.9612 36.5906ZM42.8158 34.83L43.4879 34.3542L43.4879 34.3542L42.8158 34.83ZM41.9888 32.2589V31.4353H41.1464L41.1654 32.2775L41.9888 32.2589ZM45.4279 32.2589L46.25 32.2105L46.2044 31.4353H45.4279V32.2589ZM46.2468 33.8392L46.7595 33.1948L46.7595 33.1948L46.2468 33.8392ZM49.5304 34.0767L49.9419 34.79L49.9448 34.7884L49.5304 34.0767ZM50.5376 33.0368L49.8156 32.6406L49.8139 32.6437L50.5376 33.0368ZM50.5294 29.9415L49.8074 30.3377L49.8111 30.3444L50.5294 29.9415ZM49.5058 28.8934L49.0953 29.6073L49.0953 29.6073L49.5058 28.8934ZM48.0073 28.5085L48.0153 27.685H48.0073V28.5085ZM46.5743 28.8115L46.2456 28.0564L46.2424 28.0578L46.5743 28.8115ZM45.5016 29.6385L45.3564 30.4491L45.8616 30.5397L46.1654 30.126L45.5016 29.6385ZM42.3491 29.0735L41.5288 28.9999L41.4614 29.7511L42.2038 29.8841L42.3491 29.0735ZM43.1433 20.2299V19.4064H42.3905L42.3231 20.1563L43.1433 20.2299ZM53.3953 20.2299H54.2189V19.4064H53.3953V20.2299ZM53.3953 23.1287V23.9522H54.2189V23.1287H53.3953ZM46.0666 23.1287V22.3051H45.3238L45.2475 23.044L46.0666 23.1287ZM45.6326 27.3294L44.8135 27.2447L44.7197 28.1529H45.6326V27.3294ZM45.7309 27.3294V28.1529H46.156L46.4022 27.8064L45.7309 27.3294ZM47.0656 26.2976L47.409 27.0462L47.409 27.0462L47.0656 26.2976ZM51.7658 26.6006L52.1895 25.8944L52.1895 25.8944L51.7658 26.6006ZM53.641 28.5577L52.9202 28.956L52.9213 28.958L53.641 28.5577ZM54.3206 31.4073L53.4971 31.4031L53.4971 31.4112L54.3206 31.4073ZM53.5346 34.4206L52.8292 33.9956L52.8284 33.9969L53.5346 34.4206ZM51.3318 36.4841L51.717 37.2121L51.7185 37.2112L51.3318 36.4841ZM48.0564 37.2293V36.4057C47.0014 36.4057 46.0922 36.2121 45.3114 35.8452L44.9612 36.5906L44.611 37.3359C45.6426 37.8207 46.7969 38.0528 48.0564 38.0528V37.2293ZM44.9612 36.5906L45.3131 35.846C44.529 35.4753 43.9286 34.9765 43.4879 34.3542L42.8158 34.83L42.1437 35.3059C42.7621 36.1793 43.5919 36.8542 44.6092 37.3351L44.9612 36.5906ZM42.8158 34.83L43.4879 34.3542C43.0586 33.7478 42.8304 33.0519 42.8121 32.2403L41.9888 32.2589L41.1654 32.2775C41.1908 33.3983 41.514 34.4166 42.1437 35.3059L42.8158 34.83ZM41.9888 32.2589V33.0824H45.4279V32.2589V31.4353H41.9888V32.2589ZM45.4279 32.2589L44.6058 32.3072C44.6577 33.1896 45.0426 33.9335 45.734 34.4837L46.2468 33.8392L46.7595 33.1948C46.4356 32.9371 46.2746 32.6273 46.25 32.2105L45.4279 32.2589ZM46.2468 33.8392L45.734 34.4837C46.399 35.0128 47.1868 35.2687 48.0564 35.2687V34.4452V33.6217C47.5286 33.6217 47.1099 33.4736 46.7595 33.1948L46.2468 33.8392ZM48.0564 34.4452V35.2687C48.7382 35.2687 49.3751 35.1171 49.9419 34.79L49.5304 34.0767L49.1188 33.3634C48.8341 33.5277 48.4883 33.6217 48.0564 33.6217V34.4452ZM49.5304 34.0767L49.9448 34.7884C50.5075 34.4607 50.9497 34.0034 51.2612 33.4299L50.5376 33.0368L49.8139 32.6437C49.6451 32.9545 49.4158 33.1905 49.116 33.365L49.5304 34.0767ZM50.5376 33.0368L51.2595 33.433C51.5803 32.8485 51.7296 32.1958 51.7296 31.4973H50.906H50.0825C50.0825 31.9562 49.9862 32.3298 49.8156 32.6406L50.5376 33.0368ZM50.906 31.4973H51.7296C51.7296 30.7879 51.5774 30.1266 51.2476 29.5386L50.5294 29.9415L49.8111 30.3444C49.9835 30.6517 50.0825 31.0276 50.0825 31.4973H50.906ZM50.5294 29.9415L51.2513 29.5453C50.934 28.9671 50.4859 28.507 49.9163 28.1795L49.5058 28.8934L49.0953 29.6073C49.3992 29.782 49.6334 30.0206 49.8074 30.3377L50.5294 29.9415ZM49.5058 28.8934L49.9163 28.1795C49.3433 27.85 48.7022 27.6917 48.0153 27.685L48.0073 28.5085L47.9993 29.332C48.437 29.3363 48.7949 29.4346 49.0953 29.6073L49.5058 28.8934ZM48.0073 28.5085V27.685C47.3995 27.685 46.8102 27.8107 46.2456 28.0564L46.5743 28.8115L46.903 29.5666C47.2665 29.4084 47.6325 29.3321 48.0073 29.3321V28.5085ZM46.5743 28.8115L46.2424 28.0578C45.6726 28.3088 45.1924 28.6684 44.8379 29.1511L45.5016 29.6385L46.1654 30.126C46.3241 29.9099 46.5589 29.7182 46.9063 29.5652L46.5743 28.8115ZM45.5016 29.6385L45.6469 28.8279L42.4943 28.2629L42.3491 29.0735L42.2038 29.8841L45.3564 30.4491L45.5016 29.6385ZM42.3491 29.0735L43.1693 29.1472L43.9636 20.3036L43.1433 20.2299L42.3231 20.1563L41.5288 28.9999L42.3491 29.0735ZM43.1433 20.2299V21.0535H53.3953V20.2299V19.4064H43.1433V20.2299ZM53.3953 20.2299H52.5718V23.1287H53.3953H54.2189V20.2299H53.3953ZM53.3953 23.1287V22.3051H46.0666V23.1287V23.9522H53.3953V23.1287ZM46.0666 23.1287L45.2475 23.044L44.8135 27.2447L45.6326 27.3294L46.4518 27.414L46.8858 23.2133L46.0666 23.1287ZM45.6326 27.3294V28.1529H45.7309V27.3294V26.5058H45.6326V27.3294ZM45.7309 27.3294L46.4022 27.8064C46.5927 27.5383 46.9084 27.2758 47.409 27.0462L47.0656 26.2976L46.7223 25.5491C46.0328 25.8654 45.4587 26.2907 45.0596 26.8524L45.7309 27.3294ZM47.0656 26.2976L47.409 27.0462C47.8835 26.8285 48.4302 26.7117 49.0636 26.7117V25.8882V25.0647C48.2231 25.0647 47.4378 25.2209 46.7223 25.5491L47.0656 26.2976ZM49.0636 25.8882V26.7117C49.9388 26.7117 50.6904 26.9158 51.3421 27.3068L51.7658 26.6006L52.1895 25.8944C51.2581 25.3356 50.2083 25.0647 49.0636 25.0647V25.8882ZM51.7658 26.6006L51.3421 27.3068C52.0058 27.705 52.5299 28.2496 52.9202 28.956L53.641 28.5577L54.3618 28.1593C53.835 27.2062 53.109 26.4461 52.1895 25.8944L51.7658 26.6006ZM53.641 28.5577L52.9213 28.958C53.3019 29.6422 53.502 30.4491 53.4971 31.4031L54.3206 31.4073L55.1442 31.4114C55.1502 30.2146 54.8972 29.1218 54.3607 28.1573L53.641 28.5577ZM54.3206 31.4073L53.4971 31.4112C53.5019 32.4059 53.2729 33.2591 52.8292 33.9956L53.5346 34.4206L54.2399 34.8456C54.8552 33.8244 55.1503 32.6686 55.1442 31.4033L54.3206 31.4073ZM53.5346 34.4206L52.8284 33.9969C52.3852 34.7355 51.7644 35.3214 50.9452 35.757L51.3318 36.4841L51.7185 37.2112C52.7881 36.6424 53.6358 35.8526 54.2407 34.8443L53.5346 34.4206ZM51.3318 36.4841L50.9467 35.7562C50.1453 36.1802 49.1899 36.4057 48.0564 36.4057V37.2293V38.0528C49.4123 38.0528 50.6405 37.7816 51.717 37.2121L51.3318 36.4841Z" fill="#2B3F46" mask="url(#path-33-outside-1_2025_1354)"/>
<defs>
<linearGradient id="paint0_linear_2025_1354" x1="35.8411" y1="35.864" x2="-1.88188" y2="2.08424" gradientUnits="userSpaceOnUse">
<stop stop-color="#FFD5EF"/>
<stop offset="1" stop-color="#EFBDFD"/>
</linearGradient>
<linearGradient id="paint1_linear_2025_1354" x1="26.8809" y1="4.483" x2="25.174" y2="-4.68761" gradientUnits="userSpaceOnUse">
<stop stop-color="#F95457"/>
<stop offset="1" stop-color="#FDBDCB"/>
</linearGradient>
<linearGradient id="paint2_linear_2025_1354" x1="26.8809" y1="4.483" x2="25.174" y2="-4.68761" gradientUnits="userSpaceOnUse">
<stop stop-color="#F95457"/>
<stop offset="1" stop-color="#FDBDCB"/>
</linearGradient>
<linearGradient id="paint3_linear_2025_1354" x1="4.71795" y1="43.6522" x2="1.80375" y2="43.0282" gradientUnits="userSpaceOnUse">
<stop stop-color="#F95457"/>
<stop offset="1" stop-color="#FDBDCB"/>
</linearGradient>
<linearGradient id="paint4_linear_2025_1354" x1="35.7669" y1="58.0257" x2="30.2155" y2="50.8928" gradientUnits="userSpaceOnUse">
<stop stop-color="#F95457"/>
<stop offset="1" stop-color="#FDBDCB"/>
</linearGradient>
<linearGradient id="paint5_linear_2025_1354" x1="60.6657" y1="43.6522" x2="57.7515" y2="43.0282" gradientUnits="userSpaceOnUse">
<stop stop-color="#F95457"/>
<stop offset="1" stop-color="#FDBDCB"/>
</linearGradient>
<linearGradient id="paint6_linear_2025_1354" x1="-1.09962e-05" y1="-0.0328651" x2="30.641" y2="-4.05264" gradientUnits="userSpaceOnUse">
<stop stop-color="#D74446"/>
<stop offset="1" stop-color="#E165B8"/>
</linearGradient>
<linearGradient id="paint7_linear_2025_1354" x1="-1.11276e-05" y1="-0.033258" x2="31.0073" y2="-4.10108" gradientUnits="userSpaceOnUse">
<stop stop-color="#D74446"/>
<stop offset="1" stop-color="#E165B8"/>
</linearGradient>
<linearGradient id="paint8_linear_2025_1354" x1="-8.34573e-06" y1="-0.00415724" x2="14.606" y2="-11.5011" gradientUnits="userSpaceOnUse">
<stop stop-color="#D1369D"/>
<stop offset="1" stop-color="#B31E20"/>
</linearGradient>
<linearGradient id="paint9_linear_2025_1354" x1="-8.34573e-06" y1="-0.00415724" x2="14.606" y2="-11.5011" gradientUnits="userSpaceOnUse">
<stop stop-color="#D74446"/>
<stop offset="1" stop-color="#E165B8"/>
</linearGradient>
<linearGradient id="paint10_linear_2025_1354" x1="2.32056" y1="36.6188" x2="3.73346" y2="36.5744" gradientUnits="userSpaceOnUse">
<stop stop-color="#D74446"/>
<stop offset="1" stop-color="#D1369D"/>
</linearGradient>
<linearGradient id="paint11_linear_2025_1354" x1="27.5452" y1="52.5135" x2="34.1403" y2="51.2721" gradientUnits="userSpaceOnUse">
<stop stop-color="#B31E20"/>
<stop offset="1" stop-color="#D74446"/>
</linearGradient>
<linearGradient id="paint12_linear_2025_1354" x1="59.0066" y1="36.6188" x2="60.4195" y2="36.5744" gradientUnits="userSpaceOnUse">
<stop stop-color="#E165B8"/>
<stop offset="1" stop-color="#D74446"/>
</linearGradient>
<clipPath id="clip0_2025_1354">
<rect width="35.8992" height="35.8992" rx="4.44179" transform="matrix(0.866025 0.5 -0.866025 0.5 31.9104 19)" fill="white"/>
</clipPath>
<clipPath id="clip1_2025_1354">
<rect width="36.3731" height="36.3731" rx="4.50041" transform="matrix(0.866025 0.5 -0.866025 0.5 31.5 18.4604)" fill="white"/>
</clipPath>
</defs>
</svg>
