<svg width="64" height="64" viewBox="0 0 64 64" fill="none" xmlns="http://www.w3.org/2000/svg">
<rect width="35.8551" height="35.8551" rx="4.37833" transform="matrix(0.866025 0.5 -0.866025 0.5 31.8887 19)" fill="url(#paint0_linear_2122_5526)"/>
<rect width="26.8913" height="4.48189" transform="matrix(0.866025 0.5 0 1 4.71875 39.1685)" fill="url(#paint1_linear_2122_5526)"/>
<rect width="26.8913" height="4.48189" transform="matrix(0.866025 -0.5 0 1 35.7695 52.6143)" fill="url(#paint2_linear_2122_5526)"/>
<path d="M3.11133 36.9275C3.11133 37.8026 3.72572 38.5949 4.71907 39.1684V43.6503C3.72572 43.0768 3.11133 42.2845 3.11133 41.4094V36.9275Z" fill="url(#paint3_linear_2122_5526)"/>
<path d="M28.0059 52.6143C30.1495 53.8519 33.6251 53.8519 35.7687 52.6143V57.0961C33.6251 58.3338 30.1495 58.3338 28.0059 57.0961V52.6143Z" fill="url(#paint4_linear_2122_5526)"/>
<path d="M60.6663 36.9275C60.6663 37.8026 60.0519 38.5949 59.0586 39.1684V43.6503C60.0519 43.0768 60.6663 42.2845 60.6663 41.4094V36.9275Z" fill="url(#paint5_linear_2122_5526)"/>
<g clip-path="url(#clip0_2122_5526)">
<rect width="35.8992" height="35.8992" rx="4.44179" transform="matrix(0.866025 0.5 -0.866025 0.5 31.9102 19)" fill="url(#paint6_linear_2122_5526)"/>
<rect width="11.5594" height="11.5594" transform="matrix(0.866025 0.5 -0.866025 0.5 31.9102 19)" fill="black" fill-opacity="0.1"/>
<rect width="11.5594" height="11.5594" transform="matrix(0.866025 0.5 -0.866025 0.5 21.3711 25.085)" fill="black" fill-opacity="0.1"/>
<rect width="11.5594" height="11.5594" transform="matrix(0.866025 0.5 -0.866025 0.5 21.3711 37.2549)" fill="black" fill-opacity="0.1"/>
<rect width="11.5594" height="11.5594" transform="matrix(0.866025 0.5 -0.866025 0.5 42.4492 25.085)" fill="black" fill-opacity="0.1"/>
<rect width="11.5594" height="11.5594" transform="matrix(0.866025 0.5 -0.866025 0.5 42.4492 37.2549)" fill="black" fill-opacity="0.1"/>
<rect width="11.5594" height="11.5594" transform="matrix(0.866025 0.5 -0.866025 0.5 52.9883 31.1699)" fill="black" fill-opacity="0.1"/>
<rect width="11.5594" height="11.5594" transform="matrix(0.866025 0.5 -0.866025 0.5 10.832 31.1699)" fill="black" fill-opacity="0.1"/>
<rect width="11.5594" height="11.5594" transform="matrix(0.866025 0.5 -0.866025 0.5 31.9102 43.3398)" fill="black" fill-opacity="0.1"/>
<rect width="11.5594" height="11.5594" transform="matrix(0.866025 0.5 -0.866025 0.5 31.9102 31.1699)" fill="black" fill-opacity="0.1"/>
</g>
<rect width="36.3283" height="36.3283" rx="4.43612" transform="matrix(0.866025 0.5 -0.866025 0.5 31.4785 18.4607)" fill="url(#paint7_linear_2122_5526)"/>
<rect width="27.2462" height="4.54104" transform="matrix(0.866025 0.5 0 1 3.94922 38.8958)" fill="url(#paint8_linear_2122_5526)"/>
<rect width="27.2462" height="4.54104" transform="matrix(0.866025 -0.5 0 1 35.4102 52.5186)" fill="url(#paint9_linear_2122_5526)"/>
<path d="M2.32031 36.625C2.32031 37.5117 2.94282 38.3144 3.94927 38.8955V43.4366C2.94282 42.8555 2.32031 42.0527 2.32031 41.166V36.625Z" fill="url(#paint10_linear_2122_5526)"/>
<path d="M27.5449 52.5186C29.7169 53.7725 33.2383 53.7725 35.4102 52.5186V57.0596C33.2383 58.3136 29.7169 58.3136 27.5449 57.0596V52.5186Z" fill="url(#paint11_linear_2122_5526)"/>
<path d="M60.6348 36.625C60.6348 37.5117 60.0123 38.3144 59.0059 38.8955V43.4366C60.0123 42.8555 60.6348 42.0527 60.6348 41.166V36.625Z" fill="url(#paint12_linear_2122_5526)"/>
<g clip-path="url(#clip1_2122_5526)">
<rect width="11.712" height="11.712" transform="matrix(0.866025 0.5 -0.866025 0.5 31.5 18.4607)" fill="white" fill-opacity="0.2"/>
<rect width="11.712" height="11.712" transform="matrix(0.866025 0.5 -0.866025 0.5 20.8223 24.626)" fill="white" fill-opacity="0.2"/>
<rect width="11.712" height="11.712" transform="matrix(0.866025 0.5 -0.866025 0.5 20.8223 36.9565)" fill="white" fill-opacity="0.2"/>
<rect width="11.712" height="11.712" transform="matrix(0.866025 0.5 -0.866025 0.5 42.1777 24.626)" fill="white" fill-opacity="0.2"/>
<rect width="11.712" height="11.712" transform="matrix(0.866025 0.5 -0.866025 0.5 42.1777 36.9565)" fill="white" fill-opacity="0.2"/>
<rect width="11.712" height="11.712" transform="matrix(0.866025 0.5 -0.866025 0.5 52.8574 30.7913)" fill="white" fill-opacity="0.2"/>
<rect width="11.712" height="11.712" transform="matrix(0.866025 0.5 -0.866025 0.5 10.1426 30.7913)" fill="white" fill-opacity="0.2"/>
<rect width="11.712" height="11.712" transform="matrix(0.866025 0.5 -0.866025 0.5 31.5 43.1221)" fill="white" fill-opacity="0.2"/>
<rect width="11.712" height="11.712" transform="matrix(0.866025 0.5 -0.866025 0.5 31.5 30.7913)" fill="white" fill-opacity="0.2"/>
</g>
<mask id="path-33-outside-1_2122_5526" maskUnits="userSpaceOnUse" x="11" y="19" width="43" height="19" fill="black">
<rect fill="white" x="11" y="19" width="43" height="19"/>
<path d="M19.7171 20.2299V37H16.1714V23.5954H16.0732L12.2328 26.0028V22.8585L16.3843 20.2299H19.7171ZM33.9958 34.6745L24.2105 24.9056L26.3559 22.7356L36.1493 32.5291L33.9958 34.6745ZM26.3559 34.6745L24.2105 32.5291L33.9958 22.7356L36.1493 24.9056L26.3559 34.6745ZM39.1218 34.0521V31.2599L46.1229 20.2299H48.5304V24.0949H47.1056L42.692 31.0797V31.2107H52.641V34.0521H39.1218ZM47.1711 37V33.2005L47.2366 31.9641V20.2299H50.5611V37H47.1711Z"/>
</mask>
<path d="M19.7171 20.2299V37H16.1714V23.5954H16.0732L12.2328 26.0028V22.8585L16.3843 20.2299H19.7171ZM33.9958 34.6745L24.2105 24.9056L26.3559 22.7356L36.1493 32.5291L33.9958 34.6745ZM26.3559 34.6745L24.2105 32.5291L33.9958 22.7356L36.1493 24.9056L26.3559 34.6745ZM39.1218 34.0521V31.2599L46.1229 20.2299H48.5304V24.0949H47.1056L42.692 31.0797V31.2107H52.641V34.0521H39.1218ZM47.1711 37V33.2005L47.2366 31.9641V20.2299H50.5611V37H47.1711Z" fill="white"/>
<path d="M19.7171 20.2299H20.5406V19.4064H19.7171V20.2299ZM19.7171 37V37.8235H20.5406V37H19.7171ZM16.1714 37H15.3479V37.8235H16.1714V37ZM16.1714 23.5954H16.995V22.7719H16.1714V23.5954ZM16.0732 23.5954V22.7719H15.8364L15.6358 22.8977L16.0732 23.5954ZM12.2328 26.0028H11.4092V27.491L12.6702 26.7006L12.2328 26.0028ZM12.2328 22.8585L11.7922 22.1627L11.4092 22.4051V22.8585H12.2328ZM16.3843 20.2299V19.4064H16.1456L15.9438 19.5341L16.3843 20.2299ZM19.7171 20.2299H18.8935V37H19.7171H20.5406V20.2299H19.7171ZM19.7171 37V36.1765H16.1714V37V37.8235H19.7171V37ZM16.1714 37H16.995V23.5954H16.1714H15.3479V37H16.1714ZM16.1714 23.5954V22.7719H16.0732V23.5954V24.4189H16.1714V23.5954ZM16.0732 23.5954L15.6358 22.8977L11.7954 25.3051L12.2328 26.0028L12.6702 26.7006L16.5106 24.2932L16.0732 23.5954ZM12.2328 26.0028H13.0563V22.8585H12.2328H11.4092V26.0028H12.2328ZM12.2328 22.8585L12.6733 23.5543L16.8249 20.9257L16.3843 20.2299L15.9438 19.5341L11.7922 22.1627L12.2328 22.8585ZM16.3843 20.2299V21.0535H19.7171V20.2299V19.4064H16.3843V20.2299ZM33.9958 34.6745L33.4139 35.2573L33.9951 35.8375L34.577 35.2579L33.9958 34.6745ZM24.2105 24.9056L23.6249 24.3266L23.0487 24.9094L23.6287 25.4884L24.2105 24.9056ZM26.3559 22.7356L26.9382 22.1533L26.3526 21.5677L25.7703 22.1566L26.3559 22.7356ZM36.1493 32.5291L36.7306 33.1125L37.3151 32.5302L36.7317 31.9468L36.1493 32.5291ZM26.3559 34.6745L25.7736 35.2568L26.3552 35.8384L26.9375 35.2575L26.3559 34.6745ZM24.2105 32.5291L23.6279 31.947L23.0461 32.5293L23.6282 33.1114L24.2105 32.5291ZM33.9958 22.7356L34.5803 22.1555L33.9977 21.5685L33.4132 22.1535L33.9958 22.7356ZM36.1493 24.9056L36.7309 25.4886L37.3125 24.9085L36.7339 24.3255L36.1493 24.9056ZM33.9958 34.6745L34.5776 34.0917L24.7923 24.3228L24.2105 24.9056L23.6287 25.4884L33.4139 35.2573L33.9958 34.6745ZM24.2105 24.9056L24.7961 25.4846L26.9415 23.3146L26.3559 22.7356L25.7703 22.1566L23.6249 24.3266L24.2105 24.9056ZM26.3559 22.7356L25.7736 23.3179L35.567 33.1114L36.1493 32.5291L36.7317 31.9468L26.9382 22.1533L26.3559 22.7356ZM36.1493 32.5291L35.5681 31.9456L33.4145 34.091L33.9958 34.6745L34.577 35.2579L36.7306 33.1125L36.1493 32.5291ZM26.3559 34.6745L26.9382 34.0921L24.7928 31.9468L24.2105 32.5291L23.6282 33.1114L25.7736 35.2568L26.3559 34.6745ZM24.2105 32.5291L24.7931 33.1112L34.5783 23.3177L33.9958 22.7356L33.4132 22.1535L23.6279 31.947L24.2105 32.5291ZM33.9958 22.7356L33.4112 23.3157L35.5648 25.4857L36.1493 24.9056L36.7339 24.3255L34.5803 22.1555L33.9958 22.7356ZM36.1493 24.9056L35.5677 24.3225L25.7743 34.0914L26.3559 34.6745L26.9375 35.2575L36.7309 25.4886L36.1493 24.9056ZM39.1218 34.0521H38.2982V34.8757H39.1218V34.0521ZM39.1218 31.2599L38.4265 30.8185L38.2982 31.0206V31.2599H39.1218ZM46.1229 20.2299V19.4064H45.6702L45.4276 19.7886L46.1229 20.2299ZM48.5304 20.2299H49.3539V19.4064H48.5304V20.2299ZM48.5304 24.0949V24.9184H49.3539V24.0949H48.5304ZM47.1056 24.0949V23.2714H46.6518L46.4094 23.655L47.1056 24.0949ZM42.692 31.0797L41.9958 30.6398L41.8684 30.8413V31.0797H42.692ZM42.692 31.2107H41.8684V32.0343H42.692V31.2107ZM52.641 31.2107H53.4645V30.3872H52.641V31.2107ZM52.641 34.0521V34.8757H53.4645V34.0521H52.641ZM47.1711 37H46.3475V37.8235H47.1711V37ZM47.1711 33.2005L46.3487 33.157L46.3475 33.1787V33.2005H47.1711ZM47.2366 31.9641L48.0589 32.0076L48.0601 31.9859V31.9641H47.2366ZM47.2366 20.2299V19.4064H46.413V20.2299H47.2366ZM50.5611 20.2299H51.3846V19.4064H50.5611V20.2299ZM50.5611 37V37.8235H51.3846V37H50.5611ZM39.1218 34.0521H39.9453V31.2599H39.1218H38.2982V34.0521H39.1218ZM39.1218 31.2599L39.8171 31.7012L46.8182 20.6713L46.1229 20.2299L45.4276 19.7886L38.4265 30.8185L39.1218 31.2599ZM46.1229 20.2299V21.0535H48.5304V20.2299V19.4064H46.1229V20.2299ZM48.5304 20.2299H47.7068V24.0949H48.5304H49.3539V20.2299H48.5304ZM48.5304 24.0949V23.2714H47.1056V24.0949V24.9184H48.5304V24.0949ZM47.1056 24.0949L46.4094 23.655L41.9958 30.6398L42.692 31.0797L43.3881 31.5196L47.8017 24.5348L47.1056 24.0949ZM42.692 31.0797H41.8684V31.2107H42.692H43.5155V31.0797H42.692ZM42.692 31.2107V32.0343H52.641V31.2107V30.3872H42.692V31.2107ZM52.641 31.2107H51.8175V34.0521H52.641H53.4645V31.2107H52.641ZM52.641 34.0521V33.2286H39.1218V34.0521V34.8757H52.641V34.0521ZM47.1711 37H47.9946V33.2005H47.1711H46.3475V37H47.1711ZM47.1711 33.2005L47.9934 33.2441L48.0589 32.0076L47.2366 31.9641L46.4142 31.9205L46.3487 33.157L47.1711 33.2005ZM47.2366 31.9641H48.0601V20.2299H47.2366H46.413V31.9641H47.2366ZM47.2366 20.2299V21.0535H50.5611V20.2299V19.4064H47.2366V20.2299ZM50.5611 20.2299H49.7376V37H50.5611H51.3846V20.2299H50.5611ZM50.5611 37V36.1765H47.1711V37V37.8235H50.5611V37Z" fill="#2B3F46" mask="url(#path-33-outside-1_2122_5526)"/>
<defs>
<linearGradient id="paint0_linear_2122_5526" x1="35.8411" y1="35.864" x2="-1.88188" y2="2.08424" gradientUnits="userSpaceOnUse">
<stop stop-color="#FFD5EF"/>
<stop offset="1" stop-color="#EFBDFD"/>
</linearGradient>
<linearGradient id="paint1_linear_2122_5526" x1="26.8809" y1="4.483" x2="25.174" y2="-4.68761" gradientUnits="userSpaceOnUse">
<stop stop-color="#F95457"/>
<stop offset="1" stop-color="#FDBDCB"/>
</linearGradient>
<linearGradient id="paint2_linear_2122_5526" x1="26.8809" y1="4.483" x2="25.174" y2="-4.68761" gradientUnits="userSpaceOnUse">
<stop stop-color="#F95457"/>
<stop offset="1" stop-color="#FDBDCB"/>
</linearGradient>
<linearGradient id="paint3_linear_2122_5526" x1="4.71844" y1="43.652" x2="1.80424" y2="43.0279" gradientUnits="userSpaceOnUse">
<stop stop-color="#F95457"/>
<stop offset="1" stop-color="#FDBDCB"/>
</linearGradient>
<linearGradient id="paint4_linear_2122_5526" x1="35.7657" y1="58.0257" x2="30.2143" y2="50.8928" gradientUnits="userSpaceOnUse">
<stop stop-color="#F95457"/>
<stop offset="1" stop-color="#FDBDCB"/>
</linearGradient>
<linearGradient id="paint5_linear_2122_5526" x1="60.6657" y1="43.652" x2="57.7515" y2="43.0279" gradientUnits="userSpaceOnUse">
<stop stop-color="#F95457"/>
<stop offset="1" stop-color="#FDBDCB"/>
</linearGradient>
<linearGradient id="paint6_linear_2122_5526" x1="-1.09962e-05" y1="-0.0328651" x2="30.641" y2="-4.05264" gradientUnits="userSpaceOnUse">
<stop stop-color="#D74446"/>
<stop offset="1" stop-color="#E165B8"/>
</linearGradient>
<linearGradient id="paint7_linear_2122_5526" x1="-1.11276e-05" y1="-0.033258" x2="31.0073" y2="-4.10108" gradientUnits="userSpaceOnUse">
<stop stop-color="#D74446"/>
<stop offset="1" stop-color="#E165B8"/>
</linearGradient>
<linearGradient id="paint8_linear_2122_5526" x1="-8.34573e-06" y1="-0.00415724" x2="14.606" y2="-11.5011" gradientUnits="userSpaceOnUse">
<stop stop-color="#D1369D"/>
<stop offset="1" stop-color="#B31E20"/>
</linearGradient>
<linearGradient id="paint9_linear_2122_5526" x1="-8.34573e-06" y1="-0.00415724" x2="14.606" y2="-11.5011" gradientUnits="userSpaceOnUse">
<stop stop-color="#D74446"/>
<stop offset="1" stop-color="#E165B8"/>
</linearGradient>
<linearGradient id="paint10_linear_2122_5526" x1="2.32031" y1="36.6188" x2="3.73321" y2="36.5744" gradientUnits="userSpaceOnUse">
<stop stop-color="#D74446"/>
<stop offset="1" stop-color="#D1369D"/>
</linearGradient>
<linearGradient id="paint11_linear_2122_5526" x1="27.5449" y1="52.5135" x2="34.14" y2="51.2721" gradientUnits="userSpaceOnUse">
<stop stop-color="#B31E20"/>
<stop offset="1" stop-color="#D74446"/>
</linearGradient>
<linearGradient id="paint12_linear_2122_5526" x1="59.0059" y1="36.6188" x2="60.4188" y2="36.5744" gradientUnits="userSpaceOnUse">
<stop stop-color="#E165B8"/>
<stop offset="1" stop-color="#D74446"/>
</linearGradient>
<clipPath id="clip0_2122_5526">
<rect width="35.8992" height="35.8992" rx="4.44179" transform="matrix(0.866025 0.5 -0.866025 0.5 31.9102 19)" fill="white"/>
</clipPath>
<clipPath id="clip1_2122_5526">
<rect width="36.3731" height="36.3731" rx="4.50041" transform="matrix(0.866025 0.5 -0.866025 0.5 31.5 18.4607)" fill="white"/>
</clipPath>
</defs>
</svg>
