<svg width="64" height="64" viewBox="0 0 64 64" fill="none" xmlns="http://www.w3.org/2000/svg">
<rect width="35.8551" height="35.8551" rx="4.37833" transform="matrix(0.866025 0.5 -0.866025 0.5 31.8887 19)" fill="url(#paint0_linear_2025_1324)"/>
<rect width="26.8913" height="4.48189" transform="matrix(0.866025 0.5 0 1 4.71851 39.1685)" fill="url(#paint1_linear_2025_1324)"/>
<rect width="26.8913" height="4.48189" transform="matrix(0.866025 -0.5 0 1 35.7698 52.6143)" fill="url(#paint2_linear_2025_1324)"/>
<path d="M3.11084 36.9277C3.11084 37.8029 3.72524 38.5952 4.71858 39.1687V43.6506C3.72524 43.0771 3.11084 42.2848 3.11084 41.4096V36.9277Z" fill="url(#paint3_linear_2025_1324)"/>
<path d="M28.0071 52.6143C30.1507 53.8519 33.6263 53.8519 35.7699 52.6143V57.0961C33.6263 58.3338 30.1507 58.3338 28.0071 57.0961V52.6143Z" fill="url(#paint4_linear_2025_1324)"/>
<path d="M60.6663 36.9277C60.6663 37.8029 60.0519 38.5952 59.0586 39.1687V43.6506C60.0519 43.0771 60.6663 42.2848 60.6663 41.4096V36.9277Z" fill="url(#paint5_linear_2025_1324)"/>
<g clip-path="url(#clip0_2025_1324)">
<rect width="35.8992" height="35.8992" rx="4.44179" transform="matrix(0.866025 0.5 -0.866025 0.5 31.9104 19)" fill="url(#paint6_linear_2025_1324)"/>
<rect width="11.5594" height="11.5594" transform="matrix(0.866025 0.5 -0.866025 0.5 31.9104 19)" fill="black" fill-opacity="0.1"/>
<rect width="11.5594" height="11.5594" transform="matrix(0.866025 0.5 -0.866025 0.5 21.3711 25.085)" fill="black" fill-opacity="0.1"/>
<rect width="11.5594" height="11.5594" transform="matrix(0.866025 0.5 -0.866025 0.5 21.3711 37.2549)" fill="black" fill-opacity="0.1"/>
<rect width="11.5594" height="11.5594" transform="matrix(0.866025 0.5 -0.866025 0.5 42.45 25.085)" fill="black" fill-opacity="0.1"/>
<rect width="11.5594" height="11.5594" transform="matrix(0.866025 0.5 -0.866025 0.5 42.45 37.2549)" fill="black" fill-opacity="0.1"/>
<rect width="11.5594" height="11.5594" transform="matrix(0.866025 0.5 -0.866025 0.5 52.9893 31.1699)" fill="black" fill-opacity="0.1"/>
<rect width="11.5594" height="11.5594" transform="matrix(0.866025 0.5 -0.866025 0.5 10.8315 31.1699)" fill="black" fill-opacity="0.1"/>
<rect width="11.5594" height="11.5594" transform="matrix(0.866025 0.5 -0.866025 0.5 31.9104 43.3398)" fill="black" fill-opacity="0.1"/>
<rect width="11.5594" height="11.5594" transform="matrix(0.866025 0.5 -0.866025 0.5 31.9104 31.1699)" fill="black" fill-opacity="0.1"/>
</g>
<rect width="36.3283" height="36.3283" rx="4.43612" transform="matrix(0.866025 0.5 -0.866025 0.5 31.478 18.4604)" fill="url(#paint7_linear_2025_1324)"/>
<rect width="27.2462" height="4.54104" transform="matrix(0.866025 0.5 0 1 3.94922 38.8955)" fill="url(#paint8_linear_2025_1324)"/>
<rect width="27.2462" height="4.54104" transform="matrix(0.866025 -0.5 0 1 35.4104 52.5186)" fill="url(#paint9_linear_2025_1324)"/>
<path d="M2.32056 36.625C2.32056 37.5117 2.94306 38.3144 3.94952 38.8955V43.4366C2.94306 42.8555 2.32056 42.0527 2.32056 41.166V36.625Z" fill="url(#paint10_linear_2025_1324)"/>
<path d="M27.5452 52.5186C29.7171 53.7725 33.2385 53.7725 35.4105 52.5186V57.0596C33.2385 58.3136 29.7171 58.3136 27.5452 57.0596V52.5186Z" fill="url(#paint11_linear_2025_1324)"/>
<path d="M60.6356 36.625C60.6356 37.5117 60.013 38.3144 59.0066 38.8955V43.4366C60.013 42.8555 60.6356 42.0527 60.6356 41.166V36.625Z" fill="url(#paint12_linear_2025_1324)"/>
<g clip-path="url(#clip1_2025_1324)">
<rect width="11.712" height="11.712" transform="matrix(0.866025 0.5 -0.866025 0.5 31.5 18.4604)" fill="white" fill-opacity="0.2"/>
<rect width="11.712" height="11.712" transform="matrix(0.866025 0.5 -0.866025 0.5 20.8213 24.626)" fill="white" fill-opacity="0.2"/>
<rect width="11.712" height="11.712" transform="matrix(0.866025 0.5 -0.866025 0.5 20.8215 36.9561)" fill="white" fill-opacity="0.2"/>
<rect width="11.712" height="11.712" transform="matrix(0.866025 0.5 -0.866025 0.5 42.1785 24.6255)" fill="white" fill-opacity="0.2"/>
<rect width="11.712" height="11.712" transform="matrix(0.866025 0.5 -0.866025 0.5 42.1785 36.9561)" fill="white" fill-opacity="0.2"/>
<rect width="11.712" height="11.712" transform="matrix(0.866025 0.5 -0.866025 0.5 52.8569 30.791)" fill="white" fill-opacity="0.2"/>
<rect width="11.712" height="11.712" transform="matrix(0.866025 0.5 -0.866025 0.5 10.1428 30.791)" fill="white" fill-opacity="0.2"/>
<rect width="11.712" height="11.712" transform="matrix(0.866025 0.5 -0.866025 0.5 31.5 43.1216)" fill="white" fill-opacity="0.2"/>
<rect width="11.712" height="11.712" transform="matrix(0.866025 0.5 -0.866025 0.5 31.5 30.791)" fill="white" fill-opacity="0.2"/>
</g>
<mask id="path-33-outside-1_2025_1324" maskUnits="userSpaceOnUse" x="9" y="19" width="47" height="19" fill="black">
<rect fill="white" x="9" y="19" width="47" height="19"/>
<path d="M9.99423 34.0521V31.2599L16.9954 20.2299H19.4028V24.0949H17.978L13.5644 31.0797V31.2107H23.5135V34.0521H9.99423ZM18.0435 37V33.2005L18.109 31.9641V20.2299H21.4336V37H18.0435ZM36.1688 34.6745L26.3835 24.9056L28.5289 22.7356L38.3224 32.5291L36.1688 34.6745ZM28.5289 34.6745L26.3835 32.5291L36.1688 22.7356L38.3224 24.9056L28.5289 34.6745ZM41.2948 34.0521V31.2599L48.296 20.2299H50.7034V24.0949H49.2786L44.865 31.0797V31.2107H54.814V34.0521H41.2948ZM49.3441 37V33.2005L49.4096 31.9641V20.2299H52.7341V37H49.3441Z"/>
</mask>
<path d="M9.99423 34.0521V31.2599L16.9954 20.2299H19.4028V24.0949H17.978L13.5644 31.0797V31.2107H23.5135V34.0521H9.99423ZM18.0435 37V33.2005L18.109 31.9641V20.2299H21.4336V37H18.0435ZM36.1688 34.6745L26.3835 24.9056L28.5289 22.7356L38.3224 32.5291L36.1688 34.6745ZM28.5289 34.6745L26.3835 32.5291L36.1688 22.7356L38.3224 24.9056L28.5289 34.6745ZM41.2948 34.0521V31.2599L48.296 20.2299H50.7034V24.0949H49.2786L44.865 31.0797V31.2107H54.814V34.0521H41.2948ZM49.3441 37V33.2005L49.4096 31.9641V20.2299H52.7341V37H49.3441Z" fill="white"/>
<path d="M9.99423 34.0521H9.1707V34.8757H9.99423V34.0521ZM9.99423 31.2599L9.29894 30.8185L9.1707 31.0206V31.2599H9.99423ZM16.9954 20.2299V19.4064H16.5427L16.3001 19.7886L16.9954 20.2299ZM19.4028 20.2299H20.2264V19.4064H19.4028V20.2299ZM19.4028 24.0949V24.9184H20.2264V24.0949H19.4028ZM17.978 24.0949V23.2714H17.5242L17.2818 23.655L17.978 24.0949ZM13.5644 31.0797L12.8682 30.6398L12.7409 30.8413V31.0797H13.5644ZM13.5644 31.2107H12.7409V32.0343H13.5644V31.2107ZM23.5135 31.2107H24.337V30.3872H23.5135V31.2107ZM23.5135 34.0521V34.8757H24.337V34.0521H23.5135ZM18.0435 37H17.22V37.8235H18.0435V37ZM18.0435 33.2005L17.2212 33.157L17.22 33.1787V33.2005H18.0435ZM18.109 31.9641L18.9314 32.0076L18.9326 31.9859V31.9641H18.109ZM18.109 20.2299V19.4064H17.2855V20.2299H18.109ZM21.4336 20.2299H22.2571V19.4064H21.4336V20.2299ZM21.4336 37V37.8235H22.2571V37H21.4336ZM9.99423 34.0521H10.8178V31.2599H9.99423H9.1707V34.0521H9.99423ZM9.99423 31.2599L10.6895 31.7012L17.6907 20.6713L16.9954 20.2299L16.3001 19.7886L9.29894 30.8185L9.99423 31.2599ZM16.9954 20.2299V21.0535H19.4028V20.2299V19.4064H16.9954V20.2299ZM19.4028 20.2299H18.5793V24.0949H19.4028H20.2264V20.2299H19.4028ZM19.4028 24.0949V23.2714H17.978V24.0949V24.9184H19.4028V24.0949ZM17.978 24.0949L17.2818 23.655L12.8682 30.6398L13.5644 31.0797L14.2606 31.5196L18.6742 24.5348L17.978 24.0949ZM13.5644 31.0797H12.7409V31.2107H13.5644H14.388V31.0797H13.5644ZM13.5644 31.2107V32.0343H23.5135V31.2107V30.3872H13.5644V31.2107ZM23.5135 31.2107H22.6899V34.0521H23.5135H24.337V31.2107H23.5135ZM23.5135 34.0521V33.2286H9.99423V34.0521V34.8757H23.5135V34.0521ZM18.0435 37H18.8671V33.2005H18.0435H17.22V37H18.0435ZM18.0435 33.2005L18.8659 33.2441L18.9314 32.0076L18.109 31.9641L17.2867 31.9205L17.2212 33.157L18.0435 33.2005ZM18.109 31.9641H18.9326V20.2299H18.109H17.2855V31.9641H18.109ZM18.109 20.2299V21.0535H21.4336V20.2299V19.4064H18.109V20.2299ZM21.4336 20.2299H20.61V37H21.4336H22.2571V20.2299H21.4336ZM21.4336 37V36.1765H18.0435V37V37.8235H21.4336V37ZM36.1688 34.6745L35.5869 35.2573L36.1682 35.8375L36.75 35.2579L36.1688 34.6745ZM26.3835 24.9056L25.7979 24.3266L25.2217 24.9094L25.8017 25.4884L26.3835 24.9056ZM28.5289 22.7356L29.1112 22.1533L28.5256 21.5677L27.9433 22.1566L28.5289 22.7356ZM38.3224 32.5291L38.9036 33.1125L39.4881 32.5302L38.9047 31.9468L38.3224 32.5291ZM28.5289 34.6745L27.9466 35.2568L28.5282 35.8384L29.1105 35.2575L28.5289 34.6745ZM26.3835 32.5291L25.801 31.947L25.2191 32.5293L25.8012 33.1114L26.3835 32.5291ZM36.1688 22.7356L36.7533 22.1555L36.1708 21.5685L35.5862 22.1535L36.1688 22.7356ZM38.3224 24.9056L38.904 25.4886L39.4855 24.9085L38.9069 24.3255L38.3224 24.9056ZM36.1688 34.6745L36.7506 34.0917L26.9654 24.3228L26.3835 24.9056L25.8017 25.4884L35.5869 35.2573L36.1688 34.6745ZM26.3835 24.9056L26.9692 25.4846L29.1145 23.3146L28.5289 22.7356L27.9433 22.1566L25.7979 24.3266L26.3835 24.9056ZM28.5289 22.7356L27.9466 23.3179L37.74 33.1114L38.3224 32.5291L38.9047 31.9468L29.1112 22.1533L28.5289 22.7356ZM38.3224 32.5291L37.7411 31.9456L35.5876 34.091L36.1688 34.6745L36.75 35.2579L38.9036 33.1125L38.3224 32.5291ZM28.5289 34.6745L29.1112 34.0921L26.9658 31.9468L26.3835 32.5291L25.8012 33.1114L27.9466 35.2568L28.5289 34.6745ZM26.3835 32.5291L26.9661 33.1112L36.7514 23.3177L36.1688 22.7356L35.5862 22.1535L25.801 31.947L26.3835 32.5291ZM36.1688 22.7356L35.5843 23.3157L37.7378 25.4857L38.3224 24.9056L38.9069 24.3255L36.7533 22.1555L36.1688 22.7356ZM38.3224 24.9056L37.7408 24.3225L27.9473 34.0914L28.5289 34.6745L29.1105 35.2575L38.904 25.4886L38.3224 24.9056ZM41.2948 34.0521H40.4713V34.8757H41.2948V34.0521ZM41.2948 31.2599L40.5995 30.8185L40.4713 31.0206V31.2599H41.2948ZM48.296 20.2299V19.4064H47.8433L47.6007 19.7886L48.296 20.2299ZM50.7034 20.2299H51.5269V19.4064H50.7034V20.2299ZM50.7034 24.0949V24.9184H51.5269V24.0949H50.7034ZM49.2786 24.0949V23.2714H48.8248L48.5824 23.655L49.2786 24.0949ZM44.865 31.0797L44.1688 30.6398L44.0414 30.8413V31.0797H44.865ZM44.865 31.2107H44.0414V32.0343H44.865V31.2107ZM54.814 31.2107H55.6375V30.3872H54.814V31.2107ZM54.814 34.0521V34.8757H55.6375V34.0521H54.814ZM49.3441 37H48.5206V37.8235H49.3441V37ZM49.3441 33.2005L48.5217 33.157L48.5206 33.1787V33.2005H49.3441ZM49.4096 31.9641L50.232 32.0076L50.2331 31.9859V31.9641H49.4096ZM49.4096 20.2299V19.4064H48.5861V20.2299H49.4096ZM52.7341 20.2299H53.5577V19.4064H52.7341V20.2299ZM52.7341 37V37.8235H53.5577V37H52.7341ZM41.2948 34.0521H42.1183V31.2599H41.2948H40.4713V34.0521H41.2948ZM41.2948 31.2599L41.9901 31.7012L48.9912 20.6713L48.296 20.2299L47.6007 19.7886L40.5995 30.8185L41.2948 31.2599ZM48.296 20.2299V21.0535H50.7034V20.2299V19.4064H48.296V20.2299ZM50.7034 20.2299H49.8798V24.0949H50.7034H51.5269V20.2299H50.7034ZM50.7034 24.0949V23.2714H49.2786V24.0949V24.9184H50.7034V24.0949ZM49.2786 24.0949L48.5824 23.655L44.1688 30.6398L44.865 31.0797L45.5612 31.5196L49.9748 24.5348L49.2786 24.0949ZM44.865 31.0797H44.0414V31.2107H44.865H45.6885V31.0797H44.865ZM44.865 31.2107V32.0343H54.814V31.2107V30.3872H44.865V31.2107ZM54.814 31.2107H53.9905V34.0521H54.814H55.6375V31.2107H54.814ZM54.814 34.0521V33.2286H41.2948V34.0521V34.8757H54.814V34.0521ZM49.3441 37H50.1676V33.2005H49.3441H48.5206V37H49.3441ZM49.3441 33.2005L50.1665 33.2441L50.232 32.0076L49.4096 31.9641L48.5872 31.9205L48.5217 33.157L49.3441 33.2005ZM49.4096 31.9641H50.2331V20.2299H49.4096H48.5861V31.9641H49.4096ZM49.4096 20.2299V21.0535H52.7341V20.2299V19.4064H49.4096V20.2299ZM52.7341 20.2299H51.9106V37H52.7341H53.5577V20.2299H52.7341ZM52.7341 37V36.1765H49.3441V37V37.8235H52.7341V37Z" fill="#2B3F46" mask="url(#path-33-outside-1_2025_1324)"/>
<defs>
<linearGradient id="paint0_linear_2025_1324" x1="35.8411" y1="35.864" x2="-1.88188" y2="2.08424" gradientUnits="userSpaceOnUse">
<stop stop-color="#FFD5EF"/>
<stop offset="1" stop-color="#EFBDFD"/>
</linearGradient>
<linearGradient id="paint1_linear_2025_1324" x1="26.8809" y1="4.483" x2="25.174" y2="-4.68761" gradientUnits="userSpaceOnUse">
<stop stop-color="#F95457"/>
<stop offset="1" stop-color="#FDBDCB"/>
</linearGradient>
<linearGradient id="paint2_linear_2025_1324" x1="26.8809" y1="4.483" x2="25.174" y2="-4.68761" gradientUnits="userSpaceOnUse">
<stop stop-color="#F95457"/>
<stop offset="1" stop-color="#FDBDCB"/>
</linearGradient>
<linearGradient id="paint3_linear_2025_1324" x1="4.71795" y1="43.6522" x2="1.80375" y2="43.0282" gradientUnits="userSpaceOnUse">
<stop stop-color="#F95457"/>
<stop offset="1" stop-color="#FDBDCB"/>
</linearGradient>
<linearGradient id="paint4_linear_2025_1324" x1="35.7669" y1="58.0257" x2="30.2155" y2="50.8928" gradientUnits="userSpaceOnUse">
<stop stop-color="#F95457"/>
<stop offset="1" stop-color="#FDBDCB"/>
</linearGradient>
<linearGradient id="paint5_linear_2025_1324" x1="60.6657" y1="43.6522" x2="57.7515" y2="43.0282" gradientUnits="userSpaceOnUse">
<stop stop-color="#F95457"/>
<stop offset="1" stop-color="#FDBDCB"/>
</linearGradient>
<linearGradient id="paint6_linear_2025_1324" x1="-1.09962e-05" y1="-0.0328651" x2="30.641" y2="-4.05264" gradientUnits="userSpaceOnUse">
<stop stop-color="#D74446"/>
<stop offset="1" stop-color="#E165B8"/>
</linearGradient>
<linearGradient id="paint7_linear_2025_1324" x1="-1.11276e-05" y1="-0.033258" x2="31.0073" y2="-4.10108" gradientUnits="userSpaceOnUse">
<stop stop-color="#D74446"/>
<stop offset="1" stop-color="#E165B8"/>
</linearGradient>
<linearGradient id="paint8_linear_2025_1324" x1="-8.34573e-06" y1="-0.00415724" x2="14.606" y2="-11.5011" gradientUnits="userSpaceOnUse">
<stop stop-color="#D1369D"/>
<stop offset="1" stop-color="#B31E20"/>
</linearGradient>
<linearGradient id="paint9_linear_2025_1324" x1="-8.34573e-06" y1="-0.00415724" x2="14.606" y2="-11.5011" gradientUnits="userSpaceOnUse">
<stop stop-color="#D74446"/>
<stop offset="1" stop-color="#E165B8"/>
</linearGradient>
<linearGradient id="paint10_linear_2025_1324" x1="2.32056" y1="36.6188" x2="3.73346" y2="36.5744" gradientUnits="userSpaceOnUse">
<stop stop-color="#D74446"/>
<stop offset="1" stop-color="#D1369D"/>
</linearGradient>
<linearGradient id="paint11_linear_2025_1324" x1="27.5452" y1="52.5135" x2="34.1403" y2="51.2721" gradientUnits="userSpaceOnUse">
<stop stop-color="#B31E20"/>
<stop offset="1" stop-color="#D74446"/>
</linearGradient>
<linearGradient id="paint12_linear_2025_1324" x1="59.0066" y1="36.6188" x2="60.4195" y2="36.5744" gradientUnits="userSpaceOnUse">
<stop stop-color="#E165B8"/>
<stop offset="1" stop-color="#D74446"/>
</linearGradient>
<clipPath id="clip0_2025_1324">
<rect width="35.8992" height="35.8992" rx="4.44179" transform="matrix(0.866025 0.5 -0.866025 0.5 31.9104 19)" fill="white"/>
</clipPath>
<clipPath id="clip1_2025_1324">
<rect width="36.3731" height="36.3731" rx="4.50041" transform="matrix(0.866025 0.5 -0.866025 0.5 31.5 18.4604)" fill="white"/>
</clipPath>
</defs>
</svg>
