<svg width="64" height="64" viewBox="0 0 64 64" fill="none" xmlns="http://www.w3.org/2000/svg">
<rect width="35.8551" height="35.8551" rx="4.37833" transform="matrix(0.866025 0.5 -0.866025 0.5 31.8887 19)" fill="url(#paint0_linear_2025_1414)"/>
<rect width="26.8913" height="4.48189" transform="matrix(0.866025 0.5 0 1 4.71851 39.1685)" fill="url(#paint1_linear_2025_1414)"/>
<rect width="26.8913" height="4.48189" transform="matrix(0.866025 -0.5 0 1 35.7698 52.6143)" fill="url(#paint2_linear_2025_1414)"/>
<path d="M3.11084 36.9277C3.11084 37.8029 3.72524 38.5952 4.71858 39.1687V43.6506C3.72524 43.0771 3.11084 42.2848 3.11084 41.4096V36.9277Z" fill="url(#paint3_linear_2025_1414)"/>
<path d="M28.0071 52.6143C30.1507 53.8519 33.6263 53.8519 35.7699 52.6143V57.0961C33.6263 58.3338 30.1507 58.3338 28.0071 57.0961V52.6143Z" fill="url(#paint4_linear_2025_1414)"/>
<path d="M60.6663 36.9277C60.6663 37.8029 60.0519 38.5952 59.0586 39.1687V43.6506C60.0519 43.0771 60.6663 42.2848 60.6663 41.4096V36.9277Z" fill="url(#paint5_linear_2025_1414)"/>
<g clip-path="url(#clip0_2025_1414)">
<rect width="35.8992" height="35.8992" rx="4.44179" transform="matrix(0.866025 0.5 -0.866025 0.5 31.9104 19)" fill="url(#paint6_linear_2025_1414)"/>
<rect width="11.5594" height="11.5594" transform="matrix(0.866025 0.5 -0.866025 0.5 31.9104 19)" fill="black" fill-opacity="0.1"/>
<rect width="11.5594" height="11.5594" transform="matrix(0.866025 0.5 -0.866025 0.5 21.3711 25.085)" fill="black" fill-opacity="0.1"/>
<rect width="11.5594" height="11.5594" transform="matrix(0.866025 0.5 -0.866025 0.5 21.3711 37.2549)" fill="black" fill-opacity="0.1"/>
<rect width="11.5594" height="11.5594" transform="matrix(0.866025 0.5 -0.866025 0.5 42.45 25.085)" fill="black" fill-opacity="0.1"/>
<rect width="11.5594" height="11.5594" transform="matrix(0.866025 0.5 -0.866025 0.5 42.45 37.2549)" fill="black" fill-opacity="0.1"/>
<rect width="11.5594" height="11.5594" transform="matrix(0.866025 0.5 -0.866025 0.5 52.9893 31.1699)" fill="black" fill-opacity="0.1"/>
<rect width="11.5594" height="11.5594" transform="matrix(0.866025 0.5 -0.866025 0.5 10.8315 31.1699)" fill="black" fill-opacity="0.1"/>
<rect width="11.5594" height="11.5594" transform="matrix(0.866025 0.5 -0.866025 0.5 31.9104 43.3398)" fill="black" fill-opacity="0.1"/>
<rect width="11.5594" height="11.5594" transform="matrix(0.866025 0.5 -0.866025 0.5 31.9104 31.1699)" fill="black" fill-opacity="0.1"/>
</g>
<mask id="path-17-outside-1_2025_1414" maskUnits="userSpaceOnUse" x="10" y="19" width="45" height="20" fill="black">
<rect fill="white" x="10" y="19" width="45" height="20"/>
<path d="M17.3076 37.2293C16.1503 37.2293 15.1185 37.0164 14.2123 36.5906C13.3116 36.1648 12.5965 35.5779 12.0669 34.83C11.5374 34.0822 11.2617 33.2251 11.2399 32.2589H14.6791C14.7173 32.9085 14.9902 33.4353 15.4979 33.8392C16.0056 34.2432 16.6088 34.4452 17.3076 34.4452C17.8644 34.4452 18.3557 34.3224 18.7815 34.0767C19.2128 33.8256 19.5485 33.4789 19.7887 33.0368C20.0344 32.5891 20.1572 32.076 20.1572 31.4973C20.1572 30.9078 20.0316 30.3891 19.7805 29.9415C19.5349 29.4939 19.1937 29.1445 18.757 28.8934C18.3202 28.6423 17.8207 28.514 17.2585 28.5085C16.7672 28.5085 16.2895 28.6095 15.8255 28.8115C15.3669 29.0135 15.0094 29.2892 14.7528 29.6385L11.6002 29.0735L12.3945 20.2299H22.6465V23.1287H15.3178L14.8838 27.3294H14.9821C15.2768 26.9145 15.7218 26.5706 16.3168 26.2976C16.9118 26.0247 17.5778 25.8882 18.3148 25.8882C19.3247 25.8882 20.2254 26.1257 21.017 26.6006C21.8085 27.0755 22.4336 27.7279 22.8922 28.5577C23.3507 29.382 23.5773 30.3318 23.5718 31.4073C23.5773 32.5373 23.3152 33.5417 22.7857 34.4206C22.2616 35.2941 21.5274 35.9819 20.583 36.4841C19.644 36.9809 18.5522 37.2293 17.3076 37.2293ZM36.3377 34.6745L26.5524 24.9056L28.6978 22.7356L38.4912 32.5291L36.3377 34.6745ZM28.6978 34.6745L26.5524 32.5291L36.3377 22.7356L38.4912 24.9056L28.6978 34.6745ZM41.7175 37V34.4452L47.6869 28.9179C48.1946 28.4266 48.6204 27.9845 48.9643 27.5914C49.3137 27.1984 49.5785 26.8135 49.7586 26.4368C49.9388 26.0547 50.0288 25.6425 50.0288 25.2004C50.0288 24.7091 49.9169 24.286 49.6931 23.9311C49.4693 23.5709 49.1636 23.2952 48.776 23.1041C48.3884 22.9076 47.949 22.8093 47.4577 22.8093C46.9445 22.8093 46.4969 22.913 46.1147 23.1205C45.7326 23.3279 45.4378 23.6254 45.2304 24.013C45.0229 24.4006 44.9192 24.8619 44.9192 25.3969H41.5537C41.5537 24.2996 41.8021 23.347 42.2989 22.5391C42.7957 21.7312 43.4917 21.1061 44.387 20.6639C45.2822 20.2218 46.314 20.0007 47.4822 20.0007C48.6832 20.0007 49.7286 20.2136 50.6184 20.6394C51.5137 21.0597 52.2097 21.6438 52.7065 22.3917C53.2033 23.1396 53.4516 23.9967 53.4516 24.9629C53.4516 25.5961 53.3261 26.2212 53.075 26.8381C52.8293 27.4549 52.3899 28.14 51.7566 28.8934C51.1234 29.6413 50.2308 30.5393 49.079 31.5874L46.6306 33.9866V34.1013H53.6727V37H41.7175Z"/>
</mask>
<path d="M17.3076 37.2293C16.1503 37.2293 15.1185 37.0164 14.2123 36.5906C13.3116 36.1648 12.5965 35.5779 12.0669 34.83C11.5374 34.0822 11.2617 33.2251 11.2399 32.2589H14.6791C14.7173 32.9085 14.9902 33.4353 15.4979 33.8392C16.0056 34.2432 16.6088 34.4452 17.3076 34.4452C17.8644 34.4452 18.3557 34.3224 18.7815 34.0767C19.2128 33.8256 19.5485 33.4789 19.7887 33.0368C20.0344 32.5891 20.1572 32.076 20.1572 31.4973C20.1572 30.9078 20.0316 30.3891 19.7805 29.9415C19.5349 29.4939 19.1937 29.1445 18.757 28.8934C18.3202 28.6423 17.8207 28.514 17.2585 28.5085C16.7672 28.5085 16.2895 28.6095 15.8255 28.8115C15.3669 29.0135 15.0094 29.2892 14.7528 29.6385L11.6002 29.0735L12.3945 20.2299H22.6465V23.1287H15.3178L14.8838 27.3294H14.9821C15.2768 26.9145 15.7218 26.5706 16.3168 26.2976C16.9118 26.0247 17.5778 25.8882 18.3148 25.8882C19.3247 25.8882 20.2254 26.1257 21.017 26.6006C21.8085 27.0755 22.4336 27.7279 22.8922 28.5577C23.3507 29.382 23.5773 30.3318 23.5718 31.4073C23.5773 32.5373 23.3152 33.5417 22.7857 34.4206C22.2616 35.2941 21.5274 35.9819 20.583 36.4841C19.644 36.9809 18.5522 37.2293 17.3076 37.2293ZM36.3377 34.6745L26.5524 24.9056L28.6978 22.7356L38.4912 32.5291L36.3377 34.6745ZM28.6978 34.6745L26.5524 32.5291L36.3377 22.7356L38.4912 24.9056L28.6978 34.6745ZM41.7175 37V34.4452L47.6869 28.9179C48.1946 28.4266 48.6204 27.9845 48.9643 27.5914C49.3137 27.1984 49.5785 26.8135 49.7586 26.4368C49.9388 26.0547 50.0288 25.6425 50.0288 25.2004C50.0288 24.7091 49.9169 24.286 49.6931 23.9311C49.4693 23.5709 49.1636 23.2952 48.776 23.1041C48.3884 22.9076 47.949 22.8093 47.4577 22.8093C46.9445 22.8093 46.4969 22.913 46.1147 23.1205C45.7326 23.3279 45.4378 23.6254 45.2304 24.013C45.0229 24.4006 44.9192 24.8619 44.9192 25.3969H41.5537C41.5537 24.2996 41.8021 23.347 42.2989 22.5391C42.7957 21.7312 43.4917 21.1061 44.387 20.6639C45.2822 20.2218 46.314 20.0007 47.4822 20.0007C48.6832 20.0007 49.7286 20.2136 50.6184 20.6394C51.5137 21.0597 52.2097 21.6438 52.7065 22.3917C53.2033 23.1396 53.4516 23.9967 53.4516 24.9629C53.4516 25.5961 53.3261 26.2212 53.075 26.8381C52.8293 27.4549 52.3899 28.14 51.7566 28.8934C51.1234 29.6413 50.2308 30.5393 49.079 31.5874L46.6306 33.9866V34.1013H53.6727V37H41.7175Z" fill="white"/>
<path d="M14.2123 36.5906L13.8604 37.3351L13.8621 37.3359L14.2123 36.5906ZM12.0669 34.83L12.7391 34.3542L12.7391 34.3542L12.0669 34.83ZM11.2399 32.2589V31.4353H10.3976L10.4166 32.2775L11.2399 32.2589ZM14.6791 32.2589L15.5012 32.2105L15.4556 31.4353H14.6791V32.2589ZM15.4979 33.8392L16.0107 33.1948L16.0107 33.1948L15.4979 33.8392ZM18.7815 34.0767L19.1931 34.79L19.1959 34.7884L18.7815 34.0767ZM19.7887 33.0368L19.0667 32.6406L19.0651 32.6437L19.7887 33.0368ZM19.7805 29.9415L19.0585 30.3377L19.0623 30.3444L19.7805 29.9415ZM18.757 28.8934L18.3465 29.6073L18.3465 29.6073L18.757 28.8934ZM17.2585 28.5085L17.2665 27.685H17.2585V28.5085ZM15.8255 28.8115L15.4968 28.0564L15.4935 28.0578L15.8255 28.8115ZM14.7528 29.6385L14.6075 30.4491L15.1127 30.5397L15.4165 30.126L14.7528 29.6385ZM11.6002 29.0735L10.78 28.9999L10.7125 29.7511L11.4549 29.8841L11.6002 29.0735ZM12.3945 20.2299V19.4064H11.6416L11.5743 20.1563L12.3945 20.2299ZM22.6465 20.2299H23.47V19.4064H22.6465V20.2299ZM22.6465 23.1287V23.9522H23.47V23.1287H22.6465ZM15.3178 23.1287V22.3051H14.575L14.4986 23.044L15.3178 23.1287ZM14.8838 27.3294L14.0646 27.2447L13.9708 28.1529H14.8838V27.3294ZM14.9821 27.3294V28.1529H15.4072L15.6534 27.8064L14.9821 27.3294ZM16.3168 26.2976L16.6601 27.0462L16.6601 27.0462L16.3168 26.2976ZM21.017 26.6006L21.4407 25.8944L21.4407 25.8944L21.017 26.6006ZM22.8922 28.5577L22.1714 28.956L22.1725 28.958L22.8922 28.5577ZM23.5718 31.4073L22.7482 31.4031L22.7483 31.4112L23.5718 31.4073ZM22.7857 34.4206L22.0803 33.9956L22.0795 33.9969L22.7857 34.4206ZM20.583 36.4841L20.9681 37.2121L20.9697 37.2112L20.583 36.4841ZM17.3076 37.2293V36.4057C16.2525 36.4057 15.3433 36.2121 14.5626 35.8452L14.2123 36.5906L13.8621 37.3359C14.8937 37.8207 16.048 38.0528 17.3076 38.0528V37.2293ZM14.2123 36.5906L14.5643 35.846C13.7801 35.4753 13.1797 34.9765 12.7391 34.3542L12.0669 34.83L11.3948 35.3059C12.0132 36.1793 12.8431 36.8542 13.8604 37.3351L14.2123 36.5906ZM12.0669 34.83L12.7391 34.3542C12.3097 33.7478 12.0816 33.0519 12.0632 32.2403L11.2399 32.2589L10.4166 32.2775C10.4419 33.3983 10.7651 34.4166 11.3948 35.3059L12.0669 34.83ZM11.2399 32.2589V33.0824H14.6791V32.2589V31.4353H11.2399V32.2589ZM14.6791 32.2589L13.857 32.3072C13.9089 33.1896 14.2937 33.9335 14.9852 34.4837L15.4979 33.8392L16.0107 33.1948C15.6868 32.9371 15.5257 32.6273 15.5012 32.2105L14.6791 32.2589ZM15.4979 33.8392L14.9852 34.4837C15.6502 35.0128 16.4379 35.2687 17.3076 35.2687V34.4452V33.6217C16.7798 33.6217 16.3611 33.4736 16.0107 33.1948L15.4979 33.8392ZM17.3076 34.4452V35.2687C17.9894 35.2687 18.6262 35.1171 19.1931 34.79L18.7815 34.0767L18.37 33.3634C18.0852 33.5277 17.7395 33.6217 17.3076 33.6217V34.4452ZM18.7815 34.0767L19.1959 34.7884C19.7586 34.4607 20.2008 34.0034 20.5124 33.4299L19.7887 33.0368L19.0651 32.6437C18.8962 32.9545 18.6669 33.1905 18.3671 33.365L18.7815 34.0767ZM19.7887 33.0368L20.5107 33.433C20.8314 32.8485 20.9807 32.1958 20.9807 31.4973H20.1572H19.3337C19.3337 31.9562 19.2373 32.3298 19.0667 32.6406L19.7887 33.0368ZM20.1572 31.4973H20.9807C20.9807 30.7879 20.8286 30.1266 20.4988 29.5386L19.7805 29.9415L19.0623 30.3444C19.2347 30.6517 19.3337 31.0276 19.3337 31.4973H20.1572ZM19.7805 29.9415L20.5025 29.5453C20.1852 28.9671 19.7371 28.507 19.1675 28.1795L18.757 28.8934L18.3465 29.6073C18.6503 29.782 18.8846 30.0206 19.0586 30.3377L19.7805 29.9415ZM18.757 28.8934L19.1675 28.1795C18.5944 27.85 17.9533 27.6917 17.2665 27.685L17.2585 28.5085L17.2505 29.332C17.6882 29.3363 18.046 29.4346 18.3465 29.6073L18.757 28.8934ZM17.2585 28.5085V27.685C16.6506 27.685 16.0613 27.8107 15.4968 28.0564L15.8255 28.8115L16.1542 29.5666C16.5177 29.4084 16.8837 29.3321 17.2585 29.3321V28.5085ZM15.8255 28.8115L15.4935 28.0578C14.9238 28.3088 14.4435 28.6684 14.089 29.1511L14.7528 29.6385L15.4165 30.126C15.5752 29.9099 15.81 29.7182 16.1574 29.5652L15.8255 28.8115ZM14.7528 29.6385L14.8981 28.8279L11.7455 28.2629L11.6002 29.0735L11.4549 29.8841L14.6075 30.4491L14.7528 29.6385ZM11.6002 29.0735L12.4204 29.1472L13.2147 20.3036L12.3945 20.2299L11.5743 20.1563L10.78 28.9999L11.6002 29.0735ZM12.3945 20.2299V21.0535H22.6465V20.2299V19.4064H12.3945V20.2299ZM22.6465 20.2299H21.823V23.1287H22.6465H23.47V20.2299H22.6465ZM22.6465 23.1287V22.3051H15.3178V23.1287V23.9522H22.6465V23.1287ZM15.3178 23.1287L14.4986 23.044L14.0646 27.2447L14.8838 27.3294L15.703 27.414L16.137 23.2133L15.3178 23.1287ZM14.8838 27.3294V28.1529H14.9821V27.3294V26.5058H14.8838V27.3294ZM14.9821 27.3294L15.6534 27.8064C15.8439 27.5383 16.1596 27.2758 16.6601 27.0462L16.3168 26.2976L15.9734 25.5491C15.2839 25.8654 14.7098 26.2907 14.3107 26.8524L14.9821 27.3294ZM16.3168 26.2976L16.6601 27.0462C17.1346 26.8285 17.6814 26.7117 18.3148 26.7117V25.8882V25.0647C17.4742 25.0647 16.689 25.2209 15.9734 25.5491L16.3168 26.2976ZM18.3148 25.8882V26.7117C19.1899 26.7117 19.9416 26.9158 20.5933 27.3068L21.017 26.6006L21.4407 25.8944C20.5093 25.3356 19.4595 25.0647 18.3148 25.0647V25.8882ZM21.017 26.6006L20.5933 27.3068C21.2569 27.705 21.781 28.2496 22.1714 28.956L22.8922 28.5577L23.6129 28.1593C23.0862 27.2062 22.3601 26.4461 21.4407 25.8944L21.017 26.6006ZM22.8922 28.5577L22.1725 28.958C22.5531 29.6422 22.7531 30.4491 22.7483 31.4031L23.5718 31.4073L24.3953 31.4114C24.4014 30.2146 24.1483 29.1218 23.6118 28.1573L22.8922 28.5577ZM23.5718 31.4073L22.7483 31.4112C22.7531 32.4059 22.5241 33.2591 22.0803 33.9956L22.7857 34.4206L23.4911 34.8456C24.1064 33.8244 24.4014 32.6686 24.3953 31.4033L23.5718 31.4073ZM22.7857 34.4206L22.0795 33.9969C21.6364 34.7355 21.0156 35.3214 20.1963 35.757L20.583 36.4841L20.9697 37.2112C22.0392 36.6424 22.8869 35.8526 23.4919 34.8443L22.7857 34.4206ZM20.583 36.4841L20.1979 35.7562C19.3964 36.1802 18.4411 36.4057 17.3076 36.4057V37.2293V38.0528C18.6634 38.0528 19.8917 37.7816 20.9681 37.2121L20.583 36.4841ZM36.3377 34.6745L35.7558 35.2573L36.3371 35.8375L36.9189 35.2579L36.3377 34.6745ZM26.5524 24.9056L25.9668 24.3266L25.3906 24.9094L25.9706 25.4884L26.5524 24.9056ZM28.6978 22.7356L29.2801 22.1533L28.6945 21.5677L28.1122 22.1566L28.6978 22.7356ZM38.4912 32.5291L39.0725 33.1125L39.657 32.5302L39.0736 31.9468L38.4912 32.5291ZM28.6978 34.6745L28.1155 35.2568L28.6971 35.8384L29.2794 35.2575L28.6978 34.6745ZM26.5524 32.5291L25.9698 31.947L25.388 32.5293L25.9701 33.1114L26.5524 32.5291ZM36.3377 22.7356L36.9222 22.1555L36.3396 21.5685L35.7551 22.1535L36.3377 22.7356ZM38.4912 24.9056L39.0728 25.4886L39.6544 24.9085L39.0758 24.3255L38.4912 24.9056ZM36.3377 34.6745L36.9195 34.0917L27.1342 24.3228L26.5524 24.9056L25.9706 25.4884L35.7558 35.2573L36.3377 34.6745ZM26.5524 24.9056L27.138 25.4846L29.2834 23.3146L28.6978 22.7356L28.1122 22.1566L25.9668 24.3266L26.5524 24.9056ZM28.6978 22.7356L28.1155 23.3179L37.9089 33.1114L38.4912 32.5291L39.0736 31.9468L29.2801 22.1533L28.6978 22.7356ZM38.4912 32.5291L37.91 31.9456L35.7565 34.091L36.3377 34.6745L36.9189 35.2579L39.0725 33.1125L38.4912 32.5291ZM28.6978 34.6745L29.2801 34.0921L27.1347 31.9468L26.5524 32.5291L25.9701 33.1114L28.1155 35.2568L28.6978 34.6745ZM26.5524 32.5291L27.135 33.1112L36.9202 23.3177L36.3377 22.7356L35.7551 22.1535L25.9698 31.947L26.5524 32.5291ZM36.3377 22.7356L35.7531 23.3157L37.9067 25.4857L38.4912 24.9056L39.0758 24.3255L36.9222 22.1555L36.3377 22.7356ZM38.4912 24.9056L37.9097 24.3225L28.1162 34.0914L28.6978 34.6745L29.2794 35.2575L39.0728 25.4886L38.4912 24.9056ZM41.7175 37H40.894V37.8235H41.7175V37ZM41.7175 34.4452L41.158 33.8409L40.894 34.0854V34.4452H41.7175ZM47.6869 28.9179L48.2464 29.5222L48.2531 29.5161L48.2596 29.5097L47.6869 28.9179ZM48.9643 27.5914L48.3488 27.0443L48.3446 27.0491L48.9643 27.5914ZM49.7586 26.4368L50.5016 26.7922L50.5035 26.788L49.7586 26.4368ZM49.6931 23.9311L48.9936 24.3657L48.9966 24.3705L49.6931 23.9311ZM48.776 23.1041L48.4036 23.8387L48.4119 23.8428L48.776 23.1041ZM45.2304 24.013L45.9565 24.4016L45.9565 24.4016L45.2304 24.013ZM44.9192 25.3969V26.2204H45.7428V25.3969H44.9192ZM41.5537 25.3969H40.7302V26.2204H41.5537V25.3969ZM42.2989 22.5391L43.0004 22.9704L43.0004 22.9704L42.2989 22.5391ZM44.387 20.6639L44.0223 19.9256L44.0223 19.9256L44.387 20.6639ZM50.6184 20.6394L50.2629 21.3822L50.2684 21.3848L50.6184 20.6394ZM52.7065 22.3917L52.0205 22.8474L52.0205 22.8474L52.7065 22.3917ZM53.075 26.8381L52.3122 26.5276L52.3099 26.5334L53.075 26.8381ZM51.7566 28.8934L52.3851 29.4255L52.387 29.4233L51.7566 28.8934ZM49.079 31.5874L48.5247 30.9783L48.5135 30.9885L48.5026 30.9992L49.079 31.5874ZM46.6306 33.9866L46.0542 33.3984L45.8071 33.6406V33.9866H46.6306ZM46.6306 34.1013H45.8071V34.9248H46.6306V34.1013ZM53.6727 34.1013H54.4963V33.2777H53.6727V34.1013ZM53.6727 37V37.8235H54.4963V37H53.6727ZM41.7175 37H42.541V34.4452H41.7175H40.894V37H41.7175ZM41.7175 34.4452L42.277 35.0495L48.2464 29.5222L47.6869 28.9179L47.1274 28.3137L41.158 33.8409L41.7175 34.4452ZM47.6869 28.9179L48.2596 29.5097C48.7784 29.0077 49.221 28.5487 49.5841 28.1337L48.9643 27.5914L48.3446 27.0491C48.0198 27.4203 47.6108 27.8456 47.1142 28.3262L47.6869 28.9179ZM48.9643 27.5914L49.5799 28.1385C49.9678 27.702 50.2808 27.2537 50.5016 26.7921L49.7586 26.4368L49.0157 26.0815C48.8761 26.3733 48.6596 26.6947 48.3488 27.0443L48.9643 27.5914ZM49.7586 26.4368L50.5035 26.788C50.7379 26.2909 50.8524 25.7582 50.8524 25.2004H50.0288H49.2053C49.2053 25.5269 49.1397 25.8185 49.0137 26.0857L49.7586 26.4368ZM50.0288 25.2004H50.8524C50.8524 24.5806 50.7098 23.9993 50.3897 23.4918L49.6931 23.9311L48.9966 24.3705C49.1241 24.5727 49.2053 24.8375 49.2053 25.2004H50.0288ZM49.6931 23.9311L50.3927 23.4966C50.086 23.003 49.663 22.6232 49.1401 22.3655L48.776 23.1041L48.4119 23.8428C48.6642 23.9671 48.8526 24.1387 48.9936 24.3657L49.6931 23.9311ZM48.776 23.1041L49.1484 22.3696C48.6311 22.1073 48.0613 21.9858 47.4577 21.9858V22.8093V23.6329C47.8366 23.6329 48.1457 23.7079 48.4036 23.8386L48.776 23.1041ZM47.4577 22.8093V21.9858C46.832 21.9858 46.2446 22.1129 45.7218 22.3967L46.1147 23.1205L46.5076 23.8442C46.7491 23.7132 47.057 23.6329 47.4577 23.6329V22.8093ZM46.1147 23.1205L45.7218 22.3967C45.1966 22.6818 44.7868 23.0966 44.5043 23.6244L45.2304 24.013L45.9565 24.4016C46.0889 24.1543 46.2686 23.974 46.5076 23.8442L46.1147 23.1205ZM45.2304 24.013L44.5043 23.6244C44.2204 24.1548 44.0957 24.7555 44.0957 25.3969H44.9192H45.7428C45.7428 24.9684 45.8255 24.6464 45.9565 24.4016L45.2304 24.013ZM44.9192 25.3969V24.5734H41.5537V25.3969V26.2204H44.9192V25.3969ZM41.5537 25.3969H42.3773C42.3773 24.4276 42.5953 23.6294 43.0004 22.9704L42.2989 22.5391L41.5974 22.1078C41.009 23.0647 40.7302 24.1717 40.7302 25.3969H41.5537ZM42.2989 22.5391L43.0004 22.9704C43.4117 22.3016 43.9876 21.7797 44.7517 21.4023L44.387 20.6639L44.0223 19.9256C42.9958 20.4326 42.1797 21.1607 41.5974 22.1078L42.2989 22.5391ZM44.387 20.6639L44.7517 21.4023C45.5158 21.0249 46.4191 20.8242 47.4822 20.8242V20.0007V19.1771C46.2089 19.1771 45.0487 19.4186 44.0223 19.9256L44.387 20.6639ZM47.4822 20.0007V20.8242C48.5865 20.8242 49.5056 21.0198 50.2629 21.3822L50.6184 20.6394L50.9739 19.8965C49.9516 19.4073 48.78 19.1771 47.4822 19.1771V20.0007ZM50.6184 20.6394L50.2684 21.3848C51.0416 21.7478 51.6154 22.2375 52.0205 22.8474L52.7065 22.3917L53.3925 21.9361C52.804 21.0501 51.9858 20.3716 50.9684 19.8939L50.6184 20.6394ZM52.7065 22.3917L52.0205 22.8474C52.4207 23.4498 52.6281 24.1458 52.6281 24.9629H53.4516H54.2752C54.2752 23.8475 53.9858 22.8294 53.3925 21.9361L52.7065 22.3917ZM53.4516 24.9629H52.6281C52.6281 25.4842 52.5253 26.0041 52.3122 26.5276L53.075 26.8381L53.8377 27.1486C54.1269 26.4383 54.2752 25.7081 54.2752 24.9629H53.4516ZM53.075 26.8381L52.3099 26.5334C52.1084 27.0392 51.7274 27.6483 51.1262 28.3635L51.7566 28.8934L52.387 29.4233C53.0523 28.6318 53.5502 27.8706 53.8401 27.1428L53.075 26.8381ZM51.7566 28.8934L51.1281 28.3612C50.5273 29.0709 49.6636 29.942 48.5247 30.9783L49.079 31.5874L49.6332 32.1965C50.7981 31.1366 51.7195 30.2117 52.3851 29.4255L51.7566 28.8934ZM49.079 31.5874L48.5026 30.9992L46.0542 33.3984L46.6306 33.9866L47.207 34.5748L49.6554 32.1756L49.079 31.5874ZM46.6306 33.9866H45.8071V34.1013H46.6306H47.4541V33.9866H46.6306ZM46.6306 34.1013V34.9248H53.6727V34.1013V33.2777H46.6306V34.1013ZM53.6727 34.1013H52.8492V37H53.6727H54.4963V34.1013H53.6727ZM53.6727 37V36.1765H41.7175V37V37.8235H53.6727V37Z" fill="#2B3F46" mask="url(#path-17-outside-1_2025_1414)"/>
<defs>
<linearGradient id="paint0_linear_2025_1414" x1="35.8411" y1="35.864" x2="-1.88188" y2="2.08424" gradientUnits="userSpaceOnUse">
<stop stop-color="#FFD5EF"/>
<stop offset="1" stop-color="#EFBDFD"/>
</linearGradient>
<linearGradient id="paint1_linear_2025_1414" x1="0" y1="0" x2="15.9633" y2="15.6375" gradientUnits="userSpaceOnUse">
<stop stop-color="#AC93FC"/>
<stop offset="1" stop-color="#E593FC"/>
</linearGradient>
<linearGradient id="paint2_linear_2025_1414" x1="-8.23702e-06" y1="-0.00410309" x2="14.4158" y2="-11.3513" gradientUnits="userSpaceOnUse">
<stop stop-color="#D744C2"/>
<stop offset="1" stop-color="#C665E1"/>
</linearGradient>
<linearGradient id="paint3_linear_2025_1414" x1="3.11084" y1="36.9277" x2="4.97822" y2="37.0006" gradientUnits="userSpaceOnUse">
<stop stop-color="#AC93FC"/>
<stop offset="1" stop-color="#E593FC"/>
</linearGradient>
<linearGradient id="paint4_linear_2025_1414" x1="28.0071" y1="52.6093" x2="34.5163" y2="51.384" gradientUnits="userSpaceOnUse">
<stop stop-color="#D744C2"/>
<stop offset="1" stop-color="#C665E1"/>
</linearGradient>
<linearGradient id="paint5_linear_2025_1414" x1="59.0586" y1="36.9216" x2="60.4531" y2="36.8778" gradientUnits="userSpaceOnUse">
<stop stop-color="#D744C2"/>
<stop offset="1" stop-color="#C665E1"/>
</linearGradient>
<linearGradient id="paint6_linear_2025_1414" x1="35.8853" y1="35.9081" x2="-1.8842" y2="2.0868" gradientUnits="userSpaceOnUse">
<stop stop-color="#FAD5FF"/>
<stop offset="1" stop-color="#CFBDFD"/>
</linearGradient>
<clipPath id="clip0_2025_1414">
<rect width="35.8992" height="35.8992" rx="4.44179" transform="matrix(0.866025 0.5 -0.866025 0.5 31.9104 19)" fill="white"/>
</clipPath>
</defs>
</svg>
