<svg width="64" height="64" viewBox="0 0 64 64" fill="none" xmlns="http://www.w3.org/2000/svg">
<path d="M4.4006 33.9298C3.80774 33.582 3.47546 33.1136 3.47547 32.6257L3.47547 30.5016C3.47547 29.9566 3.88975 29.439 4.60873 29.0857L30.1348 16.5442C31.3579 15.9433 33.1609 15.9544 34.3614 16.5703L60.0608 29.7535C60.7487 30.1064 61.1422 30.6122 61.1422 31.1434V32.5436C61.1422 33.0309 60.8108 33.4987 60.2194 33.8464L34.5631 48.9278C33.3018 49.6692 31.2326 49.6699 29.9699 48.9292L4.4006 33.9298Z" fill="url(#paint0_linear_84_1202)"/>
<rect width="34.7831" height="34.7831" rx="2.62954" transform="matrix(0.866044 -0.499967 0.866044 0.499967 2.14404 30.3906)" fill="white"/>
<rect width="10.8697" height="10.8697" transform="matrix(0.866044 -0.499967 0.866044 0.499967 12.2639 30.3906)" fill="#D9D9D9"/>
<rect width="10.8697" height="10.8697" transform="matrix(0.866044 -0.499967 0.866044 0.499967 22.8542 24.2769)" fill="#D9D9D9"/>
<rect width="10.8697" height="10.8697" transform="matrix(0.866044 -0.499967 0.866044 0.499967 22.8542 36.5044)" fill="#D9D9D9"/>
<rect width="10.8697" height="10.8697" transform="matrix(0.866044 -0.499967 0.866044 0.499967 33.4446 30.3906)" fill="#D9D9D9"/>
<mask id="path-7-outside-1_84_1202" maskUnits="userSpaceOnUse" x="19" y="23" width="27" height="14" fill="black">
<rect fill="white" x="19" y="23" width="27" height="14"/>
<path d="M20.4268 35V34.1039L23.792 30.4201C24.1869 29.9887 24.5121 29.6136 24.7677 29.295C25.0232 28.9731 25.2124 28.6711 25.3352 28.389C25.4613 28.1036 25.5244 27.8049 25.5244 27.493C25.5244 27.1345 25.4381 26.8242 25.2655 26.562C25.0963 26.2999 24.8639 26.0974 24.5686 25.9547C24.2732 25.812 23.9413 25.7406 23.5729 25.7406C23.1813 25.7406 22.8395 25.822 22.5474 25.9846C22.2587 26.1439 22.0347 26.3679 21.8754 26.6566C21.7194 26.9454 21.6414 27.2839 21.6414 27.6722H20.4666C20.4666 27.0748 20.6043 26.5504 20.8798 26.0991C21.1552 25.6477 21.5302 25.2959 22.0048 25.0437C22.4827 24.7915 23.0187 24.6654 23.6128 24.6654C24.2101 24.6654 24.7395 24.7915 25.2008 25.0437C25.6621 25.2959 26.0238 25.6361 26.286 26.0642C26.5482 26.4923 26.6793 26.9686 26.6793 27.493C26.6793 27.868 26.6113 28.2347 26.4752 28.5931C26.3424 28.9482 26.1101 29.3448 25.7783 29.7829C25.4497 30.2177 24.9934 30.7487 24.4093 31.3759L22.1193 33.8252V33.9048H26.8585V35H20.4268ZM34.9082 33.168L29.2928 27.5527L30.0495 26.796L35.6649 32.4114L34.9082 33.168ZM30.0495 33.168L29.2928 32.4114L34.9082 26.796L35.6649 27.5527L30.0495 33.168ZM41.3412 35.1394C40.7571 35.1394 40.2311 35.0232 39.7631 34.7909C39.2952 34.5586 38.9202 34.24 38.6381 33.8351C38.356 33.4302 38.2016 32.9689 38.1751 32.4512H39.3698C39.4163 32.9125 39.6254 33.2942 39.9971 33.5962C40.3721 33.8949 40.8201 34.0442 41.3412 34.0442C41.7594 34.0442 42.1311 33.9463 42.4563 33.7505C42.7849 33.5547 43.0421 33.2859 43.2279 32.944C43.4171 32.5989 43.5117 32.2089 43.5117 31.7742C43.5117 31.3294 43.4138 30.9329 43.218 30.5844C43.0255 30.2326 42.76 29.9555 42.4214 29.753C42.0829 29.5506 41.6963 29.4477 41.2615 29.4444C40.9496 29.4411 40.6293 29.4892 40.3008 29.5888C39.9722 29.685 39.7017 29.8095 39.4893 29.9621L38.3344 29.8227L38.9517 24.8048H44.2484V25.8999H39.9871L39.6287 28.9067H39.6884C39.8975 28.7408 40.1597 28.6031 40.475 28.4936C40.7903 28.384 41.1188 28.3293 41.4607 28.3293C42.0846 28.3293 42.6405 28.4786 43.1283 28.7773C43.6195 29.0727 44.0045 29.4776 44.2833 29.992C44.5654 30.5064 44.7064 31.0938 44.7064 31.7542C44.7064 32.4047 44.5604 32.9855 44.2683 33.4966C43.9796 34.0044 43.5814 34.4059 43.0736 34.7013C42.5658 34.9934 41.9883 35.1394 41.3412 35.1394Z"/>
</mask>
<path d="M20.4268 35V34.1039L23.792 30.4201C24.1869 29.9887 24.5121 29.6136 24.7677 29.295C25.0232 28.9731 25.2124 28.6711 25.3352 28.389C25.4613 28.1036 25.5244 27.8049 25.5244 27.493C25.5244 27.1345 25.4381 26.8242 25.2655 26.562C25.0963 26.2999 24.8639 26.0974 24.5686 25.9547C24.2732 25.812 23.9413 25.7406 23.5729 25.7406C23.1813 25.7406 22.8395 25.822 22.5474 25.9846C22.2587 26.1439 22.0347 26.3679 21.8754 26.6566C21.7194 26.9454 21.6414 27.2839 21.6414 27.6722H20.4666C20.4666 27.0748 20.6043 26.5504 20.8798 26.0991C21.1552 25.6477 21.5302 25.2959 22.0048 25.0437C22.4827 24.7915 23.0187 24.6654 23.6128 24.6654C24.2101 24.6654 24.7395 24.7915 25.2008 25.0437C25.6621 25.2959 26.0238 25.6361 26.286 26.0642C26.5482 26.4923 26.6793 26.9686 26.6793 27.493C26.6793 27.868 26.6113 28.2347 26.4752 28.5931C26.3424 28.9482 26.1101 29.3448 25.7783 29.7829C25.4497 30.2177 24.9934 30.7487 24.4093 31.3759L22.1193 33.8252V33.9048H26.8585V35H20.4268ZM34.9082 33.168L29.2928 27.5527L30.0495 26.796L35.6649 32.4114L34.9082 33.168ZM30.0495 33.168L29.2928 32.4114L34.9082 26.796L35.6649 27.5527L30.0495 33.168ZM41.3412 35.1394C40.7571 35.1394 40.2311 35.0232 39.7631 34.7909C39.2952 34.5586 38.9202 34.24 38.6381 33.8351C38.356 33.4302 38.2016 32.9689 38.1751 32.4512H39.3698C39.4163 32.9125 39.6254 33.2942 39.9971 33.5962C40.3721 33.8949 40.8201 34.0442 41.3412 34.0442C41.7594 34.0442 42.1311 33.9463 42.4563 33.7505C42.7849 33.5547 43.0421 33.2859 43.2279 32.944C43.4171 32.5989 43.5117 32.2089 43.5117 31.7742C43.5117 31.3294 43.4138 30.9329 43.218 30.5844C43.0255 30.2326 42.76 29.9555 42.4214 29.753C42.0829 29.5506 41.6963 29.4477 41.2615 29.4444C40.9496 29.4411 40.6293 29.4892 40.3008 29.5888C39.9722 29.685 39.7017 29.8095 39.4893 29.9621L38.3344 29.8227L38.9517 24.8048H44.2484V25.8999H39.9871L39.6287 28.9067H39.6884C39.8975 28.7408 40.1597 28.6031 40.475 28.4936C40.7903 28.384 41.1188 28.3293 41.4607 28.3293C42.0846 28.3293 42.6405 28.4786 43.1283 28.7773C43.6195 29.0727 44.0045 29.4776 44.2833 29.992C44.5654 30.5064 44.7064 31.0938 44.7064 31.7542C44.7064 32.4047 44.5604 32.9855 44.2683 33.4966C43.9796 34.0044 43.5814 34.4059 43.0736 34.7013C42.5658 34.9934 41.9883 35.1394 41.3412 35.1394Z" fill="#00C1FF"/>
<path d="M20.4268 35H19.4268V36H20.4268V35ZM20.4268 34.1039L19.6884 33.4295L19.4268 33.7159V34.1039H20.4268ZM23.792 30.4201L23.0544 29.7449L23.0537 29.7456L23.792 30.4201ZM24.7677 29.295L25.5478 29.9207L25.5509 29.9168L24.7677 29.295ZM25.3352 28.389L24.4205 27.9849L24.4183 27.9899L25.3352 28.389ZM25.2655 26.562L24.4253 27.1044L24.4302 27.1119L25.2655 26.562ZM24.5686 25.9547L25.0036 25.0543L25.0036 25.0543L24.5686 25.9547ZM22.5474 25.9846L23.0305 26.8602L23.0339 26.8583L22.5474 25.9846ZM21.8754 26.6566L20.9998 26.1735L20.9956 26.1813L21.8754 26.6566ZM21.6414 27.6722V28.6722H22.6414V27.6722H21.6414ZM20.4666 27.6722H19.4666V28.6722H20.4666V27.6722ZM20.8798 26.0991L21.7334 26.62L21.7334 26.62L20.8798 26.0991ZM22.0048 25.0437L21.5381 24.1593L21.5355 24.1607L22.0048 25.0437ZM25.2008 25.0437L25.6805 24.1663L25.6805 24.1663L25.2008 25.0437ZM26.286 26.0642L25.4332 26.5865L26.286 26.0642ZM26.4752 28.5931L25.5403 28.2382L25.5385 28.243L26.4752 28.5931ZM25.7783 29.7829L24.9812 29.179L24.9805 29.18L25.7783 29.7829ZM24.4093 31.3759L25.1397 32.0589L25.1411 32.0574L24.4093 31.3759ZM22.1193 33.8252L21.3889 33.1422L21.1193 33.4305V33.8252H22.1193ZM22.1193 33.9048H21.1193V34.9048H22.1193V33.9048ZM26.8585 33.9048H27.8585V32.9048H26.8585V33.9048ZM26.8585 35V36H27.8585V35H26.8585ZM21.4268 35V34.1039H19.4268V35H21.4268ZM21.1651 34.7784L24.5303 31.0946L23.0537 29.7456L19.6884 33.4295L21.1651 34.7784ZM24.5296 31.0953C24.9335 30.654 25.2742 30.2618 25.5478 29.9207L23.9876 28.6694C23.7501 28.9655 23.4403 29.3233 23.0544 29.7449L24.5296 31.0953ZM25.5509 29.9168C25.8436 29.548 26.0852 29.1715 26.2521 28.7881L24.4183 27.9899C24.3396 28.1708 24.2028 28.3982 23.9845 28.6733L25.5509 29.9168ZM26.2499 28.7932C26.4322 28.3805 26.5244 27.9441 26.5244 27.493H24.5244C24.5244 27.6657 24.4904 27.8267 24.4205 27.9849L26.2499 28.7932ZM26.5244 27.493C26.5244 26.9676 26.3955 26.46 26.1008 26.0122L24.4302 27.1119C24.4807 27.1885 24.5244 27.3014 24.5244 27.493H26.5244ZM26.1056 26.0197C25.8316 25.5952 25.4555 25.2726 25.0036 25.0543L24.1335 26.8551C24.2724 26.9222 24.3609 27.0046 24.4254 27.1044L26.1056 26.0197ZM25.0036 25.0543C24.5567 24.8384 24.0733 24.7406 23.5729 24.7406V26.7406C23.8093 26.7406 23.9897 26.7856 24.1335 26.8551L25.0036 25.0543ZM23.5729 24.7406C23.0404 24.7406 22.5255 24.8522 22.061 25.1109L23.0339 26.8583C23.1535 26.7917 23.3222 26.7406 23.5729 26.7406V24.7406ZM22.0644 25.109C21.6104 25.3595 21.2503 25.7196 20.9998 26.1735L22.751 27.1397C22.8191 27.0162 22.907 26.9283 23.0305 26.8602L22.0644 25.109ZM20.9956 26.1813C20.7474 26.6407 20.6414 27.1483 20.6414 27.6722H22.6414C22.6414 27.4194 22.6914 27.2501 22.7552 27.1319L20.9956 26.1813ZM21.6414 26.6722H20.4666V28.6722H21.6414V26.6722ZM21.4666 27.6722C21.4666 27.2342 21.5656 26.8949 21.7334 26.62L20.0262 25.5781C19.643 26.206 19.4666 26.9154 19.4666 27.6722H21.4666ZM21.7334 26.62C21.9139 26.3242 22.155 26.0963 22.4741 25.9267L21.5355 24.1607C20.9054 24.4955 20.3966 24.9712 20.0262 25.5781L21.7334 26.62ZM22.4716 25.9281C22.7917 25.7591 23.1649 25.6654 23.6128 25.6654V23.6654C22.8725 23.6654 22.1737 23.8238 21.5381 24.1593L22.4716 25.9281ZM23.6128 25.6654C24.0656 25.6654 24.4259 25.7597 24.7211 25.9211L25.6805 24.1663C25.0531 23.8232 24.3547 23.6654 23.6128 23.6654V25.6654ZM24.7211 25.9211C25.0367 26.0937 25.2666 26.3144 25.4332 26.5865L27.1388 25.542C26.781 24.9578 26.2875 24.4982 25.6805 24.1663L24.7211 25.9211ZM25.4332 26.5865C25.5948 26.8502 25.6793 27.1443 25.6793 27.493H27.6793C27.6793 26.7929 27.5017 26.1345 27.1388 25.542L25.4332 26.5865ZM25.6793 27.493C25.6793 27.744 25.6343 27.9906 25.5403 28.2382L27.4101 28.948C27.5882 28.4788 27.6793 27.992 27.6793 27.493H25.6793ZM25.5385 28.243C25.4512 28.4764 25.2783 28.7868 24.9812 29.179L26.5754 30.3868C26.942 29.9028 27.2337 29.4201 27.4119 28.9433L25.5385 28.243ZM24.9805 29.18C24.6807 29.5766 24.2498 30.0798 23.6774 30.6944L25.1411 32.0574C25.737 31.4175 26.2187 30.8587 26.5761 30.3858L24.9805 29.18ZM23.6788 30.693L21.3889 33.1422L22.8498 34.5081L25.1397 32.0589L23.6788 30.693ZM21.1193 33.8252V33.9048H23.1193V33.8252H21.1193ZM22.1193 34.9048H26.8585V32.9048H22.1193V34.9048ZM25.8585 33.9048V35H27.8585V33.9048H25.8585ZM26.8585 34H20.4268V36H26.8585V34ZM34.9082 33.168L34.2011 33.8751L34.9082 34.5823L35.6153 33.8751L34.9082 33.168ZM29.2928 27.5527L28.5857 26.8456L27.8786 27.5527L28.5857 28.2598L29.2928 27.5527ZM30.0495 26.796L30.7566 26.0889L30.0495 25.3818L29.3424 26.0889L30.0495 26.796ZM35.6649 32.4114L36.372 33.1185L37.0791 32.4114L36.372 31.7043L35.6649 32.4114ZM30.0495 33.168L29.3424 33.8751L30.0495 34.5823L30.7566 33.8751L30.0495 33.168ZM29.2928 32.4114L28.5857 31.7043L27.8786 32.4114L28.5857 33.1185L29.2928 32.4114ZM34.9082 26.796L35.6153 26.0889L34.9082 25.3818L34.2011 26.0889L34.9082 26.796ZM35.6649 27.5527L36.372 28.2598L37.0791 27.5527L36.372 26.8456L35.6649 27.5527ZM35.6153 32.4609L29.9999 26.8456L28.5857 28.2598L34.2011 33.8751L35.6153 32.4609ZM29.9999 28.2598L30.7566 27.5031L29.3424 26.0889L28.5857 26.8456L29.9999 28.2598ZM29.3424 27.5031L34.9578 33.1185L36.372 31.7043L30.7566 26.0889L29.3424 27.5031ZM34.9577 31.7043L34.2011 32.4609L35.6153 33.8751L36.372 33.1185L34.9577 31.7043ZM30.7566 32.4609L29.9999 31.7043L28.5857 33.1185L29.3424 33.8751L30.7566 32.4609ZM29.9999 33.1185L35.6153 27.5031L34.2011 26.0889L28.5857 31.7043L29.9999 33.1185ZM34.2011 27.5031L34.9577 28.2598L36.372 26.8456L35.6153 26.0889L34.2011 27.5031ZM34.9578 26.8456L29.3424 32.4609L30.7566 33.8751L36.372 28.2598L34.9578 26.8456ZM39.7631 34.7909L39.3184 35.6866L39.3184 35.6866L39.7631 34.7909ZM38.6381 33.8351L39.4585 33.2635L39.4585 33.2635L38.6381 33.8351ZM38.1751 32.4512V31.4512H37.1225L37.1764 32.5024L38.1751 32.4512ZM39.3698 32.4512L40.3648 32.351L40.2742 31.4512H39.3698V32.4512ZM39.9971 33.5962L39.3665 34.3723L39.3741 34.3784L39.9971 33.5962ZM42.4563 33.7505L41.9443 32.8915L41.9405 32.8938L42.4563 33.7505ZM43.2279 32.944L42.351 32.4634L42.3494 32.4664L43.2279 32.944ZM43.218 30.5844L42.3406 31.0644L42.3462 31.0743L43.218 30.5844ZM41.2615 29.4444L41.2509 30.4443L41.2539 30.4444L41.2615 29.4444ZM40.3008 29.5888L40.5819 30.5485L40.5908 30.5458L40.3008 29.5888ZM39.4893 29.9621L39.3695 30.9549L39.7565 31.0016L40.073 30.7741L39.4893 29.9621ZM38.3344 29.8227L37.3419 29.7006L37.2195 30.6954L38.2146 30.8155L38.3344 29.8227ZM38.9517 24.8048V23.8048H38.0672L37.9592 24.6827L38.9517 24.8048ZM44.2484 24.8048H45.2484V23.8048H44.2484V24.8048ZM44.2484 25.8999V26.8999H45.2484V25.8999H44.2484ZM39.9871 25.8999V24.8999H39.0993L38.9942 25.7816L39.9871 25.8999ZM39.6287 28.9067L38.6357 28.7884L38.5024 29.9067H39.6287V28.9067ZM39.6884 28.9067V29.9067H40.037L40.3101 29.69L39.6884 28.9067ZM43.1283 28.7773L42.6062 29.6302L42.613 29.6343L43.1283 28.7773ZM44.2833 29.992L43.4041 30.4685L43.4065 30.4728L44.2833 29.992ZM44.2683 33.4966L43.4001 33.0005L43.399 33.0023L44.2683 33.4966ZM43.0736 34.7013L43.5722 35.5682L43.5764 35.5657L43.0736 34.7013ZM41.3412 34.1394C40.893 34.1394 40.522 34.0512 40.2078 33.8952L39.3184 35.6866C39.9402 35.9953 40.6212 36.1394 41.3412 36.1394V34.1394ZM40.2078 33.8952C39.8812 33.7331 39.6389 33.5223 39.4585 33.2635L37.8176 34.4068C38.2014 34.9577 38.7091 35.3841 39.3184 35.6866L40.2078 33.8952ZM39.4585 33.2635C39.2889 33.0199 39.1913 32.7409 39.1738 32.4L37.1764 32.5024C37.212 33.197 37.4231 33.8405 37.8176 34.4068L39.4585 33.2635ZM38.1751 33.4512H39.3698V31.4512H38.1751V33.4512ZM38.3749 32.5514C38.449 33.2871 38.7958 33.9086 39.3665 34.3723L40.6277 32.82C40.4549 32.6797 40.3836 32.5379 40.3648 32.351L38.3749 32.5514ZM39.3741 34.3784C39.9419 34.8306 40.6148 35.0442 41.3412 35.0442V33.0442C41.0255 33.0442 40.8023 32.9591 40.6201 32.8139L39.3741 34.3784ZM41.3412 35.0442C41.9221 35.0442 42.4756 34.9061 42.9721 34.6072L41.9405 32.8938C41.7865 32.9865 41.5966 33.0442 41.3412 33.0442V35.0442ZM42.9682 34.6095C43.4538 34.3201 43.8364 33.9184 44.1065 33.4217L42.3494 32.4664C42.2477 32.6533 42.1159 32.7892 41.9444 32.8915L42.9682 34.6095ZM44.1048 33.4246C44.383 32.9172 44.5117 32.359 44.5117 31.7742H42.5117C42.5117 32.0589 42.4512 32.2806 42.351 32.4634L44.1048 33.4246ZM44.5117 31.7742C44.5117 31.1776 44.3788 30.6089 44.0897 30.0945L42.3462 31.0743C42.4487 31.2568 42.5117 31.4813 42.5117 31.7742H44.5117ZM44.0952 30.1044C43.8187 29.5991 43.4287 29.1902 42.9347 28.8948L41.9082 30.6113C42.0912 30.7207 42.2322 30.8661 42.3407 31.0644L44.0952 30.1044ZM42.9347 28.8948C42.428 28.5918 41.8634 28.449 41.2692 28.4444L41.2539 30.4444C41.5292 30.4465 41.7379 30.5094 41.9082 30.6113L42.9347 28.8948ZM41.2722 28.4444C40.8487 28.4399 40.427 28.5056 40.0107 28.6317L40.5908 30.5458C40.8316 30.4728 41.0504 30.4422 41.2509 30.4443L41.2722 28.4444ZM40.0196 28.6291C39.6142 28.7478 39.2333 28.9147 38.9057 29.1501L40.073 30.7741C40.1702 30.7043 40.3301 30.6222 40.5819 30.5484L40.0196 28.6291ZM39.6091 28.9693L38.4542 28.8299L38.2146 30.8155L39.3695 30.9549L39.6091 28.9693ZM39.3269 29.9448L39.9442 24.9269L37.9592 24.6827L37.3419 29.7006L39.3269 29.9448ZM38.9517 25.8048H44.2484V23.8048H38.9517V25.8048ZM43.2484 24.8048V25.8999H45.2484V24.8048H43.2484ZM44.2484 24.8999H39.9871V26.8999H44.2484V24.8999ZM38.9942 25.7816L38.6357 28.7884L40.6217 29.0251L40.9801 26.0183L38.9942 25.7816ZM39.6287 29.9067H39.6884V27.9067H39.6287V29.9067ZM40.3101 29.69C40.4122 29.609 40.5686 29.5197 40.8031 29.4382L40.1469 27.5489C39.7508 27.6865 39.3828 27.8726 39.0668 28.1235L40.3101 29.69ZM40.8031 29.4382C41.0103 29.3662 41.2278 29.3293 41.4607 29.3293V27.3293C41.0099 27.3293 40.5702 27.4019 40.1469 27.5489L40.8031 29.4382ZM41.4607 29.3293C41.9176 29.3293 42.2896 29.4364 42.6062 29.6302L43.6505 27.9245C42.9913 27.5209 42.2516 27.3293 41.4607 27.3293V29.3293ZM42.613 29.6343C42.9478 29.8356 43.2086 30.1077 43.4041 30.4685L45.1625 29.5155C44.8004 28.8475 44.2913 28.3098 43.6437 27.9203L42.613 29.6343ZM43.4065 30.4728C43.598 30.8221 43.7064 31.2404 43.7064 31.7542H45.7064C45.7064 30.9472 45.5327 30.1907 45.1601 29.5112L43.4065 30.4728ZM43.7064 31.7542C43.7064 32.2494 43.597 32.6559 43.4001 33.0005L45.1366 33.9927C45.5238 33.3151 45.7064 32.56 45.7064 31.7542H43.7064ZM43.399 33.0023C43.1982 33.3556 42.9267 33.6298 42.5708 33.8369L43.5764 35.5657C44.236 35.182 44.7611 34.6532 45.1376 33.9909L43.399 33.0023ZM42.575 33.8345C42.2344 34.0304 41.8322 34.1394 41.3412 34.1394V36.1394C42.1445 36.1394 42.8972 35.9564 43.5722 35.5682L42.575 33.8345Z" fill="#2F5764" mask="url(#path-7-outside-1_84_1202)"/>
<defs>
<linearGradient id="paint0_linear_84_1202" x1="3.72513" y1="32.3054" x2="33.5154" y2="49.1976" gradientUnits="userSpaceOnUse">
<stop stop-color="#4A4A4A"/>
<stop offset="1" stop-color="#303030"/>
</linearGradient>
</defs>
</svg>
