<svg width="64" height="64" viewBox="0 0 64 64" fill="none" xmlns="http://www.w3.org/2000/svg">
<rect width="35.8551" height="35.8551" rx="4.37833" transform="matrix(0.866025 0.5 -0.866025 0.5 31.8887 19)" fill="url(#paint0_linear_2025_1264)"/>
<rect width="26.8913" height="4.48189" transform="matrix(0.866025 0.5 0 1 4.71851 39.1685)" fill="url(#paint1_linear_2025_1264)"/>
<rect width="26.8913" height="4.48189" transform="matrix(0.866025 -0.5 0 1 35.7698 52.6143)" fill="url(#paint2_linear_2025_1264)"/>
<path d="M3.11084 36.9277C3.11084 37.8029 3.72524 38.5952 4.71858 39.1687V43.6506C3.72524 43.0771 3.11084 42.2848 3.11084 41.4096V36.9277Z" fill="url(#paint3_linear_2025_1264)"/>
<path d="M28.0071 52.6143C30.1507 53.8519 33.6263 53.8519 35.7699 52.6143V57.0961C33.6263 58.3338 30.1507 58.3338 28.0071 57.0961V52.6143Z" fill="url(#paint4_linear_2025_1264)"/>
<path d="M60.6663 36.9277C60.6663 37.8029 60.0519 38.5952 59.0586 39.1687V43.6506C60.0519 43.0771 60.6663 42.2848 60.6663 41.4096V36.9277Z" fill="url(#paint5_linear_2025_1264)"/>
<g clip-path="url(#clip0_2025_1264)">
<rect width="35.8992" height="35.8992" rx="4.44179" transform="matrix(0.866025 0.5 -0.866025 0.5 31.9104 19)" fill="url(#paint6_linear_2025_1264)"/>
<rect width="11.5594" height="11.5594" transform="matrix(0.866025 0.5 -0.866025 0.5 31.9104 19)" fill="black" fill-opacity="0.1"/>
<rect width="11.5594" height="11.5594" transform="matrix(0.866025 0.5 -0.866025 0.5 21.3711 25.085)" fill="black" fill-opacity="0.1"/>
<rect width="11.5594" height="11.5594" transform="matrix(0.866025 0.5 -0.866025 0.5 21.3711 37.2549)" fill="black" fill-opacity="0.1"/>
<rect width="11.5594" height="11.5594" transform="matrix(0.866025 0.5 -0.866025 0.5 42.45 25.085)" fill="black" fill-opacity="0.1"/>
<rect width="11.5594" height="11.5594" transform="matrix(0.866025 0.5 -0.866025 0.5 42.45 37.2549)" fill="black" fill-opacity="0.1"/>
<rect width="11.5594" height="11.5594" transform="matrix(0.866025 0.5 -0.866025 0.5 52.9893 31.1699)" fill="black" fill-opacity="0.1"/>
<rect width="11.5594" height="11.5594" transform="matrix(0.866025 0.5 -0.866025 0.5 10.8315 31.1699)" fill="black" fill-opacity="0.1"/>
<rect width="11.5594" height="11.5594" transform="matrix(0.866025 0.5 -0.866025 0.5 31.9104 43.3398)" fill="black" fill-opacity="0.1"/>
<rect width="11.5594" height="11.5594" transform="matrix(0.866025 0.5 -0.866025 0.5 31.9104 31.1699)" fill="black" fill-opacity="0.1"/>
</g>
<rect width="36.3283" height="36.3283" rx="4.43612" transform="matrix(0.866025 0.5 -0.866025 0.5 31.478 18.4604)" fill="url(#paint7_linear_2025_1264)"/>
<rect width="27.2462" height="4.54104" transform="matrix(0.866025 0.5 0 1 3.94922 38.8955)" fill="url(#paint8_linear_2025_1264)"/>
<rect width="27.2462" height="4.54104" transform="matrix(0.866025 -0.5 0 1 35.4104 52.5186)" fill="url(#paint9_linear_2025_1264)"/>
<path d="M2.32056 36.625C2.32056 37.5117 2.94306 38.3144 3.94952 38.8955V43.4366C2.94306 42.8555 2.32056 42.0527 2.32056 41.166V36.625Z" fill="url(#paint10_linear_2025_1264)"/>
<path d="M27.5452 52.5186C29.7171 53.7725 33.2385 53.7725 35.4105 52.5186V57.0596C33.2385 58.3136 29.7171 58.3136 27.5452 57.0596V52.5186Z" fill="url(#paint11_linear_2025_1264)"/>
<path d="M60.6356 36.625C60.6356 37.5117 60.013 38.3144 59.0066 38.8955V43.4366C60.013 42.8555 60.6356 42.0527 60.6356 41.166V36.625Z" fill="url(#paint12_linear_2025_1264)"/>
<g clip-path="url(#clip1_2025_1264)">
<rect width="11.712" height="11.712" transform="matrix(0.866025 0.5 -0.866025 0.5 31.5 18.4604)" fill="white" fill-opacity="0.2"/>
<rect width="11.712" height="11.712" transform="matrix(0.866025 0.5 -0.866025 0.5 20.8213 24.626)" fill="white" fill-opacity="0.2"/>
<rect width="11.712" height="11.712" transform="matrix(0.866025 0.5 -0.866025 0.5 20.8215 36.9561)" fill="white" fill-opacity="0.2"/>
<rect width="11.712" height="11.712" transform="matrix(0.866025 0.5 -0.866025 0.5 42.1785 24.6255)" fill="white" fill-opacity="0.2"/>
<rect width="11.712" height="11.712" transform="matrix(0.866025 0.5 -0.866025 0.5 42.1785 36.9561)" fill="white" fill-opacity="0.2"/>
<rect width="11.712" height="11.712" transform="matrix(0.866025 0.5 -0.866025 0.5 52.8569 30.791)" fill="white" fill-opacity="0.2"/>
<rect width="11.712" height="11.712" transform="matrix(0.866025 0.5 -0.866025 0.5 10.1428 30.791)" fill="white" fill-opacity="0.2"/>
<rect width="11.712" height="11.712" transform="matrix(0.866025 0.5 -0.866025 0.5 31.5 43.1216)" fill="white" fill-opacity="0.2"/>
<rect width="11.712" height="11.712" transform="matrix(0.866025 0.5 -0.866025 0.5 31.5 30.791)" fill="white" fill-opacity="0.2"/>
</g>
<mask id="path-33-outside-1_2025_1264" maskUnits="userSpaceOnUse" x="9" y="19" width="46" height="19" fill="black">
<rect fill="white" x="9" y="19" width="46" height="19"/>
<path d="M10.5459 34.0521V31.2599L17.5471 20.2299H19.9545V24.0949H18.5297L14.1161 31.0797V31.2107H24.0652V34.0521H10.5459ZM18.5952 37V33.2005L18.6607 31.9641V20.2299H21.9853V37H18.5952ZM36.7205 34.6745L26.9352 24.9056L29.0806 22.7356L38.8741 32.5291L36.7205 34.6745ZM29.0806 34.6745L26.9352 32.5291L36.7205 22.7356L38.8741 24.9056L29.0806 34.6745ZM42.1003 37V34.4452L48.0697 28.9179C48.5774 28.4266 49.0032 27.9845 49.3472 27.5914C49.6965 27.1984 49.9613 26.8135 50.1414 26.4368C50.3216 26.0547 50.4117 25.6425 50.4117 25.2004C50.4117 24.7091 50.2998 24.286 50.0759 23.9311C49.8521 23.5709 49.5464 23.2952 49.1588 23.1041C48.7712 22.9076 48.3318 22.8093 47.8405 22.8093C47.3273 22.8093 46.8797 22.913 46.4976 23.1205C46.1154 23.3279 45.8206 23.6254 45.6132 24.013C45.4058 24.4006 45.302 24.8619 45.302 25.3969H41.9366C41.9366 24.2996 42.1849 23.347 42.6817 22.5391C43.1785 21.7312 43.8745 21.1061 44.7698 20.6639C45.6651 20.2218 46.6968 20.0007 47.865 20.0007C49.066 20.0007 50.1114 20.2136 51.0012 20.6394C51.8965 21.0597 52.5925 21.6438 53.0893 22.3917C53.5861 23.1396 53.8345 23.9967 53.8345 24.9629C53.8345 25.5961 53.7089 26.2212 53.4578 26.8381C53.2121 27.4549 52.7727 28.14 52.1394 28.8934C51.5062 29.6413 50.6136 30.5393 49.4618 31.5874L47.0134 33.9866V34.1013H54.0555V37H42.1003Z"/>
</mask>
<path d="M10.5459 34.0521V31.2599L17.5471 20.2299H19.9545V24.0949H18.5297L14.1161 31.0797V31.2107H24.0652V34.0521H10.5459ZM18.5952 37V33.2005L18.6607 31.9641V20.2299H21.9853V37H18.5952ZM36.7205 34.6745L26.9352 24.9056L29.0806 22.7356L38.8741 32.5291L36.7205 34.6745ZM29.0806 34.6745L26.9352 32.5291L36.7205 22.7356L38.8741 24.9056L29.0806 34.6745ZM42.1003 37V34.4452L48.0697 28.9179C48.5774 28.4266 49.0032 27.9845 49.3472 27.5914C49.6965 27.1984 49.9613 26.8135 50.1414 26.4368C50.3216 26.0547 50.4117 25.6425 50.4117 25.2004C50.4117 24.7091 50.2998 24.286 50.0759 23.9311C49.8521 23.5709 49.5464 23.2952 49.1588 23.1041C48.7712 22.9076 48.3318 22.8093 47.8405 22.8093C47.3273 22.8093 46.8797 22.913 46.4976 23.1205C46.1154 23.3279 45.8206 23.6254 45.6132 24.013C45.4058 24.4006 45.302 24.8619 45.302 25.3969H41.9366C41.9366 24.2996 42.1849 23.347 42.6817 22.5391C43.1785 21.7312 43.8745 21.1061 44.7698 20.6639C45.6651 20.2218 46.6968 20.0007 47.865 20.0007C49.066 20.0007 50.1114 20.2136 51.0012 20.6394C51.8965 21.0597 52.5925 21.6438 53.0893 22.3917C53.5861 23.1396 53.8345 23.9967 53.8345 24.9629C53.8345 25.5961 53.7089 26.2212 53.4578 26.8381C53.2121 27.4549 52.7727 28.14 52.1394 28.8934C51.5062 29.6413 50.6136 30.5393 49.4618 31.5874L47.0134 33.9866V34.1013H54.0555V37H42.1003Z" fill="white"/>
<path d="M10.5459 34.0521H9.72241V34.8757H10.5459V34.0521ZM10.5459 31.2599L9.85065 30.8185L9.72241 31.0206V31.2599H10.5459ZM17.5471 20.2299V19.4064H17.0944L16.8518 19.7886L17.5471 20.2299ZM19.9545 20.2299H20.7781V19.4064H19.9545V20.2299ZM19.9545 24.0949V24.9184H20.7781V24.0949H19.9545ZM18.5297 24.0949V23.2714H18.0759L17.8335 23.655L18.5297 24.0949ZM14.1161 31.0797L13.4199 30.6398L13.2926 30.8413V31.0797H14.1161ZM14.1161 31.2107H13.2926V32.0343H14.1161V31.2107ZM24.0652 31.2107H24.8887V30.3872H24.0652V31.2107ZM24.0652 34.0521V34.8757H24.8887V34.0521H24.0652ZM18.5952 37H17.7717V37.8235H18.5952V37ZM18.5952 33.2005L17.7729 33.157L17.7717 33.1787V33.2005H18.5952ZM18.6607 31.9641L19.4831 32.0076L19.4843 31.9859V31.9641H18.6607ZM18.6607 20.2299V19.4064H17.8372V20.2299H18.6607ZM21.9853 20.2299H22.8088V19.4064H21.9853V20.2299ZM21.9853 37V37.8235H22.8088V37H21.9853ZM10.5459 34.0521H11.3695V31.2599H10.5459H9.72241V34.0521H10.5459ZM10.5459 31.2599L11.2412 31.7012L18.2424 20.6713L17.5471 20.2299L16.8518 19.7886L9.85065 30.8185L10.5459 31.2599ZM17.5471 20.2299V21.0535H19.9545V20.2299V19.4064H17.5471V20.2299ZM19.9545 20.2299H19.131V24.0949H19.9545H20.7781V20.2299H19.9545ZM19.9545 24.0949V23.2714H18.5297V24.0949V24.9184H19.9545V24.0949ZM18.5297 24.0949L17.8335 23.655L13.4199 30.6398L14.1161 31.0797L14.8123 31.5196L19.2259 24.5348L18.5297 24.0949ZM14.1161 31.0797H13.2926V31.2107H14.1161H14.9397V31.0797H14.1161ZM14.1161 31.2107V32.0343H24.0652V31.2107V30.3872H14.1161V31.2107ZM24.0652 31.2107H23.2416V34.0521H24.0652H24.8887V31.2107H24.0652ZM24.0652 34.0521V33.2286H10.5459V34.0521V34.8757H24.0652V34.0521ZM18.5952 37H19.4188V33.2005H18.5952H17.7717V37H18.5952ZM18.5952 33.2005L19.4176 33.2441L19.4831 32.0076L18.6607 31.9641L17.8384 31.9205L17.7729 33.157L18.5952 33.2005ZM18.6607 31.9641H19.4843V20.2299H18.6607H17.8372V31.9641H18.6607ZM18.6607 20.2299V21.0535H21.9853V20.2299V19.4064H18.6607V20.2299ZM21.9853 20.2299H21.1617V37H21.9853H22.8088V20.2299H21.9853ZM21.9853 37V36.1765H18.5952V37V37.8235H21.9853V37ZM36.7205 34.6745L36.1387 35.2573L36.7199 35.8375L37.3017 35.2579L36.7205 34.6745ZM26.9352 24.9056L26.3496 24.3266L25.7734 24.9094L26.3534 25.4884L26.9352 24.9056ZM29.0806 22.7356L29.6629 22.1533L29.0773 21.5677L28.495 22.1566L29.0806 22.7356ZM38.8741 32.5291L39.4553 33.1125L40.0398 32.5302L39.4564 31.9468L38.8741 32.5291ZM29.0806 34.6745L28.4983 35.2568L29.0799 35.8384L29.6622 35.2575L29.0806 34.6745ZM26.9352 32.5291L26.3527 31.947L25.7708 32.5293L26.3529 33.1114L26.9352 32.5291ZM36.7205 22.7356L37.305 22.1555L36.7225 21.5685L36.1379 22.1535L36.7205 22.7356ZM38.8741 24.9056L39.4557 25.4886L40.0372 24.9085L39.4586 24.3255L38.8741 24.9056ZM36.7205 34.6745L37.3023 34.0917L27.5171 24.3228L26.9352 24.9056L26.3534 25.4884L36.1387 35.2573L36.7205 34.6745ZM26.9352 24.9056L27.5209 25.4846L29.6662 23.3146L29.0806 22.7356L28.495 22.1566L26.3496 24.3266L26.9352 24.9056ZM29.0806 22.7356L28.4983 23.3179L38.2917 33.1114L38.8741 32.5291L39.4564 31.9468L29.6629 22.1533L29.0806 22.7356ZM38.8741 32.5291L38.2928 31.9456L36.1393 34.091L36.7205 34.6745L37.3017 35.2579L39.4553 33.1125L38.8741 32.5291ZM29.0806 34.6745L29.6629 34.0921L27.5175 31.9468L26.9352 32.5291L26.3529 33.1114L28.4983 35.2568L29.0806 34.6745ZM26.9352 32.5291L27.5178 33.1112L37.3031 23.3177L36.7205 22.7356L36.1379 22.1535L26.3527 31.947L26.9352 32.5291ZM36.7205 22.7356L36.136 23.3157L38.2895 25.4857L38.8741 24.9056L39.4586 24.3255L37.305 22.1555L36.7205 22.7356ZM38.8741 24.9056L38.2925 24.3225L28.499 34.0914L29.0806 34.6745L29.6622 35.2575L39.4557 25.4886L38.8741 24.9056ZM42.1003 37H41.2768V37.8235H42.1003V37ZM42.1003 34.4452L41.5408 33.8409L41.2768 34.0854V34.4452H42.1003ZM48.0697 28.9179L48.6293 29.5222L48.6359 29.5161L48.6425 29.5097L48.0697 28.9179ZM49.3472 27.5914L48.7316 27.0443L48.7274 27.0491L49.3472 27.5914ZM50.1414 26.4368L50.8844 26.7922L50.8863 26.788L50.1414 26.4368ZM50.0759 23.9311L49.3764 24.3657L49.3794 24.3705L50.0759 23.9311ZM49.1588 23.1041L48.7864 23.8387L48.7947 23.8428L49.1588 23.1041ZM45.6132 24.013L46.3393 24.4016L46.3393 24.4016L45.6132 24.013ZM45.302 25.3969V26.2204H46.1256V25.3969H45.302ZM41.9366 25.3969H41.113V26.2204H41.9366V25.3969ZM42.6817 22.5391L43.3832 22.9704L43.3832 22.9704L42.6817 22.5391ZM44.7698 20.6639L44.4051 19.9256L44.4051 19.9256L44.7698 20.6639ZM51.0012 20.6394L50.6457 21.3822L50.6512 21.3848L51.0012 20.6394ZM53.0893 22.3917L52.4033 22.8474L52.4033 22.8474L53.0893 22.3917ZM53.4578 26.8381L52.695 26.5276L52.6927 26.5334L53.4578 26.8381ZM52.1394 28.8934L52.7679 29.4255L52.7698 29.4233L52.1394 28.8934ZM49.4618 31.5874L48.9075 30.9783L48.8963 30.9885L48.8854 30.9992L49.4618 31.5874ZM47.0134 33.9866L46.437 33.3984L46.1899 33.6406V33.9866H47.0134ZM47.0134 34.1013H46.1899V34.9248H47.0134V34.1013ZM54.0555 34.1013H54.8791V33.2777H54.0555V34.1013ZM54.0555 37V37.8235H54.8791V37H54.0555ZM42.1003 37H42.9239V34.4452H42.1003H41.2768V37H42.1003ZM42.1003 34.4452L42.6598 35.0495L48.6293 29.5222L48.0697 28.9179L47.5102 28.3137L41.5408 33.8409L42.1003 34.4452ZM48.0697 28.9179L48.6425 29.5097C49.1612 29.0077 49.6038 28.5487 49.9669 28.1337L49.3472 27.5914L48.7274 27.0491C48.4026 27.4203 47.9937 27.8456 47.497 28.3262L48.0697 28.9179ZM49.3472 27.5914L49.9627 28.1385C50.3507 27.702 50.6636 27.2537 50.8844 26.7921L50.1414 26.4368L49.3985 26.0815C49.259 26.3733 49.0424 26.6947 48.7316 27.0443L49.3472 27.5914ZM50.1414 26.4368L50.8863 26.788C51.1207 26.2909 51.2352 25.7582 51.2352 25.2004H50.4117H49.5881C49.5881 25.5269 49.5225 25.8185 49.3965 26.0857L50.1414 26.4368ZM50.4117 25.2004H51.2352C51.2352 24.5806 51.0926 23.9993 50.7725 23.4918L50.0759 23.9311L49.3794 24.3705C49.5069 24.5727 49.5881 24.8375 49.5881 25.2004H50.4117ZM50.0759 23.9311L50.7755 23.4966C50.4689 23.003 50.0458 22.6232 49.5229 22.3655L49.1588 23.1041L48.7947 23.8428C49.047 23.9671 49.2354 24.1387 49.3764 24.3657L50.0759 23.9311ZM49.1588 23.1041L49.5312 22.3696C49.0139 22.1073 48.4441 21.9858 47.8405 21.9858V22.8093V23.6329C48.2194 23.6329 48.5285 23.7079 48.7864 23.8386L49.1588 23.1041ZM47.8405 22.8093V21.9858C47.2148 21.9858 46.6274 22.1129 46.1047 22.3967L46.4976 23.1205L46.8905 23.8442C47.132 23.7132 47.4398 23.6329 47.8405 23.6329V22.8093ZM46.4976 23.1205L46.1047 22.3967C45.5795 22.6818 45.1696 23.0966 44.8871 23.6244L45.6132 24.013L46.3393 24.4016C46.4717 24.1543 46.6514 23.974 46.8905 23.8442L46.4976 23.1205ZM45.6132 24.013L44.8871 23.6244C44.6032 24.1548 44.4785 24.7555 44.4785 25.3969H45.302H46.1256C46.1256 24.9684 46.2083 24.6464 46.3393 24.4016L45.6132 24.013ZM45.302 25.3969V24.5734H41.9366V25.3969V26.2204H45.302V25.3969ZM41.9366 25.3969H42.7601C42.7601 24.4276 42.9781 23.6294 43.3832 22.9704L42.6817 22.5391L41.9802 22.1078C41.3918 23.0647 41.113 24.1717 41.113 25.3969H41.9366ZM42.6817 22.5391L43.3832 22.9704C43.7945 22.3016 44.3704 21.7797 45.1345 21.4023L44.7698 20.6639L44.4051 19.9256C43.3786 20.4326 42.5625 21.1607 41.9802 22.1078L42.6817 22.5391ZM44.7698 20.6639L45.1345 21.4023C45.8986 21.0249 46.8019 20.8242 47.865 20.8242V20.0007V19.1771C46.5917 19.1771 45.4315 19.4186 44.4051 19.9256L44.7698 20.6639ZM47.865 20.0007V20.8242C48.9693 20.8242 49.8884 21.0198 50.6458 21.3822L51.0012 20.6394L51.3567 19.8965C50.3344 19.4073 49.1628 19.1771 47.865 19.1771V20.0007ZM51.0012 20.6394L50.6512 21.3848C51.4244 21.7478 51.9982 22.2375 52.4033 22.8474L53.0893 22.3917L53.7753 21.9361C53.1868 21.0501 52.3686 20.3716 51.3512 19.8939L51.0012 20.6394ZM53.0893 22.3917L52.4033 22.8474C52.8035 23.4498 53.0109 24.1458 53.0109 24.9629H53.8345H54.658C54.658 23.8475 54.3687 22.8294 53.7753 21.9361L53.0893 22.3917ZM53.8345 24.9629H53.0109C53.0109 25.4842 52.9081 26.0041 52.695 26.5276L53.4578 26.8381L54.2205 27.1486C54.5097 26.4383 54.658 25.7081 54.658 24.9629H53.8345ZM53.4578 26.8381L52.6927 26.5334C52.4912 27.0392 52.1102 27.6483 51.509 28.3635L52.1394 28.8934L52.7698 29.4233C53.4351 28.6318 53.933 27.8706 54.2229 27.1428L53.4578 26.8381ZM52.1394 28.8934L51.5109 28.3612C50.9101 29.0709 50.0464 29.942 48.9075 30.9783L49.4618 31.5874L50.016 32.1965C51.1809 31.1366 52.1023 30.2117 52.7679 29.4255L52.1394 28.8934ZM49.4618 31.5874L48.8854 30.9992L46.437 33.3984L47.0134 33.9866L47.5898 34.5748L50.0382 32.1756L49.4618 31.5874ZM47.0134 33.9866H46.1899V34.1013H47.0134H47.837V33.9866H47.0134ZM47.0134 34.1013V34.9248H54.0555V34.1013V33.2777H47.0134V34.1013ZM54.0555 34.1013H53.232V37H54.0555H54.8791V34.1013H54.0555ZM54.0555 37V36.1765H42.1003V37V37.8235H54.0555V37Z" fill="#2B3F46" mask="url(#path-33-outside-1_2025_1264)"/>
<defs>
<linearGradient id="paint0_linear_2025_1264" x1="35.8411" y1="35.864" x2="-1.88188" y2="2.08424" gradientUnits="userSpaceOnUse">
<stop stop-color="#FFD5EF"/>
<stop offset="1" stop-color="#EFBDFD"/>
</linearGradient>
<linearGradient id="paint1_linear_2025_1264" x1="26.8809" y1="4.483" x2="25.174" y2="-4.68761" gradientUnits="userSpaceOnUse">
<stop stop-color="#F95457"/>
<stop offset="1" stop-color="#FDBDCB"/>
</linearGradient>
<linearGradient id="paint2_linear_2025_1264" x1="26.8809" y1="4.483" x2="25.174" y2="-4.68761" gradientUnits="userSpaceOnUse">
<stop stop-color="#F95457"/>
<stop offset="1" stop-color="#FDBDCB"/>
</linearGradient>
<linearGradient id="paint3_linear_2025_1264" x1="4.71795" y1="43.6522" x2="1.80375" y2="43.0282" gradientUnits="userSpaceOnUse">
<stop stop-color="#F95457"/>
<stop offset="1" stop-color="#FDBDCB"/>
</linearGradient>
<linearGradient id="paint4_linear_2025_1264" x1="35.7669" y1="58.0257" x2="30.2155" y2="50.8928" gradientUnits="userSpaceOnUse">
<stop stop-color="#F95457"/>
<stop offset="1" stop-color="#FDBDCB"/>
</linearGradient>
<linearGradient id="paint5_linear_2025_1264" x1="60.6657" y1="43.6522" x2="57.7515" y2="43.0282" gradientUnits="userSpaceOnUse">
<stop stop-color="#F95457"/>
<stop offset="1" stop-color="#FDBDCB"/>
</linearGradient>
<linearGradient id="paint6_linear_2025_1264" x1="-1.09962e-05" y1="-0.0328651" x2="30.641" y2="-4.05264" gradientUnits="userSpaceOnUse">
<stop stop-color="#D74446"/>
<stop offset="1" stop-color="#E165B8"/>
</linearGradient>
<linearGradient id="paint7_linear_2025_1264" x1="-1.11276e-05" y1="-0.033258" x2="31.0073" y2="-4.10108" gradientUnits="userSpaceOnUse">
<stop stop-color="#D74446"/>
<stop offset="1" stop-color="#E165B8"/>
</linearGradient>
<linearGradient id="paint8_linear_2025_1264" x1="-8.34573e-06" y1="-0.00415724" x2="14.606" y2="-11.5011" gradientUnits="userSpaceOnUse">
<stop stop-color="#D1369D"/>
<stop offset="1" stop-color="#B31E20"/>
</linearGradient>
<linearGradient id="paint9_linear_2025_1264" x1="-8.34573e-06" y1="-0.00415724" x2="14.606" y2="-11.5011" gradientUnits="userSpaceOnUse">
<stop stop-color="#D74446"/>
<stop offset="1" stop-color="#E165B8"/>
</linearGradient>
<linearGradient id="paint10_linear_2025_1264" x1="2.32056" y1="36.6188" x2="3.73346" y2="36.5744" gradientUnits="userSpaceOnUse">
<stop stop-color="#D74446"/>
<stop offset="1" stop-color="#D1369D"/>
</linearGradient>
<linearGradient id="paint11_linear_2025_1264" x1="27.5452" y1="52.5135" x2="34.1403" y2="51.2721" gradientUnits="userSpaceOnUse">
<stop stop-color="#B31E20"/>
<stop offset="1" stop-color="#D74446"/>
</linearGradient>
<linearGradient id="paint12_linear_2025_1264" x1="59.0066" y1="36.6188" x2="60.4195" y2="36.5744" gradientUnits="userSpaceOnUse">
<stop stop-color="#E165B8"/>
<stop offset="1" stop-color="#D74446"/>
</linearGradient>
<clipPath id="clip0_2025_1264">
<rect width="35.8992" height="35.8992" rx="4.44179" transform="matrix(0.866025 0.5 -0.866025 0.5 31.9104 19)" fill="white"/>
</clipPath>
<clipPath id="clip1_2025_1264">
<rect width="36.3731" height="36.3731" rx="4.50041" transform="matrix(0.866025 0.5 -0.866025 0.5 31.5 18.4604)" fill="white"/>
</clipPath>
</defs>
</svg>
