<svg width="64" height="64" viewBox="0 0 64 64" fill="none" xmlns="http://www.w3.org/2000/svg">
<rect width="35.8551" height="35.8551" rx="4.37833" transform="matrix(0.866025 0.5 -0.866025 0.5 31.8887 19)" fill="url(#paint0_linear_2025_1594)"/>
<rect width="26.8913" height="4.48189" transform="matrix(0.866025 0.5 0 1 4.71851 39.1685)" fill="url(#paint1_linear_2025_1594)"/>
<rect width="26.8913" height="4.48189" transform="matrix(0.866025 -0.5 0 1 35.7698 52.6143)" fill="url(#paint2_linear_2025_1594)"/>
<path d="M3.11084 36.9277C3.11084 37.8029 3.72524 38.5952 4.71858 39.1687V43.6506C3.72524 43.0771 3.11084 42.2848 3.11084 41.4096V36.9277Z" fill="url(#paint3_linear_2025_1594)"/>
<path d="M28.0071 52.6143C30.1507 53.8519 33.6263 53.8519 35.7699 52.6143V57.0961C33.6263 58.3338 30.1507 58.3338 28.0071 57.0961V52.6143Z" fill="url(#paint4_linear_2025_1594)"/>
<path d="M60.6663 36.9277C60.6663 37.8029 60.0519 38.5952 59.0586 39.1687V43.6506C60.0519 43.0771 60.6663 42.2848 60.6663 41.4096V36.9277Z" fill="url(#paint5_linear_2025_1594)"/>
<g clip-path="url(#clip0_2025_1594)">
<rect width="35.8992" height="35.8992" rx="4.44179" transform="matrix(0.866025 0.5 -0.866025 0.5 31.9104 19)" fill="url(#paint6_linear_2025_1594)"/>
<rect width="11.5594" height="11.5594" transform="matrix(0.866025 0.5 -0.866025 0.5 31.9104 19)" fill="black" fill-opacity="0.1"/>
<rect width="11.5594" height="11.5594" transform="matrix(0.866025 0.5 -0.866025 0.5 21.3711 25.085)" fill="black" fill-opacity="0.1"/>
<rect width="11.5594" height="11.5594" transform="matrix(0.866025 0.5 -0.866025 0.5 21.3711 37.2549)" fill="black" fill-opacity="0.1"/>
<rect width="11.5594" height="11.5594" transform="matrix(0.866025 0.5 -0.866025 0.5 42.45 25.085)" fill="black" fill-opacity="0.1"/>
<rect width="11.5594" height="11.5594" transform="matrix(0.866025 0.5 -0.866025 0.5 42.45 37.2549)" fill="black" fill-opacity="0.1"/>
<rect width="11.5594" height="11.5594" transform="matrix(0.866025 0.5 -0.866025 0.5 52.9893 31.1699)" fill="black" fill-opacity="0.1"/>
<rect width="11.5594" height="11.5594" transform="matrix(0.866025 0.5 -0.866025 0.5 10.8315 31.1699)" fill="black" fill-opacity="0.1"/>
<rect width="11.5594" height="11.5594" transform="matrix(0.866025 0.5 -0.866025 0.5 31.9104 43.3398)" fill="black" fill-opacity="0.1"/>
<rect width="11.5594" height="11.5594" transform="matrix(0.866025 0.5 -0.866025 0.5 31.9104 31.1699)" fill="black" fill-opacity="0.1"/>
</g>
<rect width="36.3283" height="36.3283" rx="4.43612" transform="matrix(0.866025 0.5 -0.866025 0.5 31.478 18.4604)" fill="url(#paint7_linear_2025_1594)"/>
<rect width="27.2462" height="4.54104" transform="matrix(0.866025 0.5 0 1 3.94922 38.8955)" fill="url(#paint8_linear_2025_1594)"/>
<rect width="27.2462" height="4.54104" transform="matrix(0.866025 -0.5 0 1 35.4104 52.5186)" fill="url(#paint9_linear_2025_1594)"/>
<path d="M2.32056 36.625C2.32056 37.5117 2.94306 38.3144 3.94952 38.8955V43.4366C2.94306 42.8555 2.32056 42.0527 2.32056 41.166V36.625Z" fill="url(#paint10_linear_2025_1594)"/>
<path d="M27.5452 52.5186C29.7171 53.7725 33.2385 53.7725 35.4105 52.5186V57.0596C33.2385 58.3136 29.7171 58.3136 27.5452 57.0596V52.5186Z" fill="url(#paint11_linear_2025_1594)"/>
<path d="M60.6356 36.625C60.6356 37.5117 60.013 38.3144 59.0066 38.8955V43.4366C60.013 42.8555 60.6356 42.0527 60.6356 41.166V36.625Z" fill="url(#paint12_linear_2025_1594)"/>
<g clip-path="url(#clip1_2025_1594)">
<rect width="11.712" height="11.712" transform="matrix(0.866025 0.5 -0.866025 0.5 31.5 18.4604)" fill="white" fill-opacity="0.2"/>
<rect width="11.712" height="11.712" transform="matrix(0.866025 0.5 -0.866025 0.5 20.8213 24.626)" fill="white" fill-opacity="0.2"/>
<rect width="11.712" height="11.712" transform="matrix(0.866025 0.5 -0.866025 0.5 20.8215 36.9561)" fill="white" fill-opacity="0.2"/>
<rect width="11.712" height="11.712" transform="matrix(0.866025 0.5 -0.866025 0.5 42.1785 24.6255)" fill="white" fill-opacity="0.2"/>
<rect width="11.712" height="11.712" transform="matrix(0.866025 0.5 -0.866025 0.5 42.1785 36.9561)" fill="white" fill-opacity="0.2"/>
<rect width="11.712" height="11.712" transform="matrix(0.866025 0.5 -0.866025 0.5 52.8569 30.791)" fill="white" fill-opacity="0.2"/>
<rect width="11.712" height="11.712" transform="matrix(0.866025 0.5 -0.866025 0.5 10.1428 30.791)" fill="white" fill-opacity="0.2"/>
<rect width="11.712" height="11.712" transform="matrix(0.866025 0.5 -0.866025 0.5 31.5 43.1216)" fill="white" fill-opacity="0.2"/>
<rect width="11.712" height="11.712" transform="matrix(0.866025 0.5 -0.866025 0.5 31.5 30.791)" fill="white" fill-opacity="0.2"/>
</g>
<mask id="path-33-outside-1_2025_1594" maskUnits="userSpaceOnUse" x="9" y="19" width="47" height="20" fill="black">
<rect fill="white" x="9" y="19" width="47" height="20"/>
<path d="M17.1008 37.2293C16.2383 37.2238 15.4058 37.0792 14.6033 36.7953C13.8063 36.5114 13.0912 36.0501 12.4579 35.4114C11.8247 34.7727 11.3225 33.9266 10.9513 32.873C10.5855 31.8194 10.4026 30.5256 10.4026 28.9916C10.4081 27.5832 10.5691 26.3249 10.8858 25.2167C11.2078 24.1031 11.6664 23.1587 12.2614 22.3835C12.8619 21.6083 13.5798 21.0188 14.415 20.6148C15.2502 20.2054 16.1864 20.0007 17.2237 20.0007C18.3428 20.0007 19.3308 20.219 20.1879 20.6557C21.045 21.087 21.7328 21.6739 22.2514 22.4163C22.7755 23.1587 23.0921 23.9912 23.2013 24.9138H19.7048C19.5683 24.3297 19.2817 23.8711 18.845 23.5381C18.4083 23.2051 17.8678 23.0386 17.2237 23.0386C16.1319 23.0386 15.3021 23.5135 14.7344 24.4634C14.1721 25.4133 13.8855 26.7043 13.8746 28.3366H13.9892C14.2403 27.8398 14.5788 27.4167 15.0046 27.0673C15.4358 26.7125 15.9244 26.4423 16.4703 26.2567C17.0217 26.0656 17.6031 25.9701 18.2145 25.9701C19.208 25.9701 20.0924 26.2048 20.8675 26.6743C21.6427 27.1383 22.2541 27.777 22.7018 28.5904C23.1494 29.4038 23.3732 30.3346 23.3732 31.3827C23.3732 32.5182 23.1085 33.5281 22.5789 34.4124C22.0549 35.2968 21.3206 35.9901 20.3762 36.4923C19.4373 36.9891 18.3455 37.2347 17.1008 37.2293ZM17.0845 34.4452C17.6304 34.4452 18.1189 34.3142 18.5502 34.0521C18.9815 33.7901 19.3199 33.4353 19.5656 32.9876C19.8112 32.54 19.9341 32.0378 19.9341 31.4809C19.9341 30.9241 19.8112 30.4246 19.5656 29.9825C19.3254 29.5403 18.9924 29.1882 18.5666 28.9261C18.1408 28.6641 17.6549 28.5331 17.109 28.5331C16.6996 28.5331 16.3202 28.6095 15.9708 28.7624C15.6269 28.9152 15.3239 29.1281 15.0619 29.4011C14.8053 29.674 14.6033 29.9906 14.4559 30.3509C14.3086 30.7058 14.2349 31.0852 14.2349 31.4891C14.2349 32.0296 14.3577 32.5236 14.6033 32.9713C14.8545 33.4189 15.1929 33.7765 15.6187 34.044C16.05 34.3114 16.5386 34.4452 17.0845 34.4452ZM36.18 34.6745L26.3948 24.9056L28.5402 22.7356L38.3336 32.5291L36.18 34.6745ZM28.5402 34.6745L26.3948 32.5291L36.18 22.7356L38.3336 24.9056L28.5402 34.6745ZM47.7586 37.2293C46.5358 37.2293 45.4467 37.0191 44.4914 36.5988C43.5415 36.173 42.7909 35.5888 42.2395 34.8464C41.6936 34.0985 41.4125 33.236 41.3961 32.2589H44.9663C44.9881 32.6683 45.1219 33.0286 45.3675 33.3397C45.6187 33.6454 45.9517 33.8829 46.3665 34.0521C46.7814 34.2214 47.2482 34.306 47.7668 34.306C48.3072 34.306 48.7849 34.2104 49.1998 34.0194C49.6146 33.8283 49.9395 33.5636 50.1742 33.2251C50.4089 32.8866 50.5263 32.4963 50.5263 32.0541C50.5263 31.6065 50.4007 31.2107 50.1496 30.8668C49.904 30.5174 49.5491 30.2445 49.0851 30.048C48.6266 29.8514 48.0807 29.7532 47.4474 29.7532H45.8834V27.1492H47.4474C47.9824 27.1492 48.4546 27.0564 48.864 26.8708C49.2789 26.6852 49.601 26.4286 49.8303 26.1011C50.0596 25.7681 50.1742 25.3805 50.1742 24.9383C50.1742 24.518 50.0732 24.1495 49.8712 23.8329C49.6747 23.5108 49.3963 23.2597 49.036 23.0795C48.6812 22.8994 48.2663 22.8093 47.7913 22.8093C47.3109 22.8093 46.8715 22.8967 46.473 23.0714C46.0745 23.2406 45.7551 23.4835 45.5149 23.8001C45.2747 24.1168 45.1465 24.488 45.1301 24.9138H41.7318C41.7482 23.9475 42.0239 23.0959 42.5589 22.359C43.0939 21.622 43.8145 21.0461 44.7207 20.6312C45.6323 20.2108 46.6613 20.0007 47.8077 20.0007C48.965 20.0007 49.9777 20.2108 50.8457 20.6312C51.7136 21.0515 52.3878 21.6193 52.8682 22.3344C53.3541 23.0441 53.5943 23.8411 53.5888 24.7254C53.5943 25.6644 53.3022 26.4477 52.7126 27.0755C52.1285 27.7033 51.367 28.1018 50.428 28.2711V28.4021C51.6618 28.5604 52.6007 28.9889 53.2449 29.6877C53.8945 30.381 54.2166 31.2489 54.2111 32.2916C54.2166 33.2469 53.9409 34.0958 53.3841 34.8382C52.8327 35.5807 52.0712 36.1648 51.0995 36.5906C50.1278 37.0164 49.0142 37.2293 47.7586 37.2293Z"/>
</mask>
<path d="M17.1008 37.2293C16.2383 37.2238 15.4058 37.0792 14.6033 36.7953C13.8063 36.5114 13.0912 36.0501 12.4579 35.4114C11.8247 34.7727 11.3225 33.9266 10.9513 32.873C10.5855 31.8194 10.4026 30.5256 10.4026 28.9916C10.4081 27.5832 10.5691 26.3249 10.8858 25.2167C11.2078 24.1031 11.6664 23.1587 12.2614 22.3835C12.8619 21.6083 13.5798 21.0188 14.415 20.6148C15.2502 20.2054 16.1864 20.0007 17.2237 20.0007C18.3428 20.0007 19.3308 20.219 20.1879 20.6557C21.045 21.087 21.7328 21.6739 22.2514 22.4163C22.7755 23.1587 23.0921 23.9912 23.2013 24.9138H19.7048C19.5683 24.3297 19.2817 23.8711 18.845 23.5381C18.4083 23.2051 17.8678 23.0386 17.2237 23.0386C16.1319 23.0386 15.3021 23.5135 14.7344 24.4634C14.1721 25.4133 13.8855 26.7043 13.8746 28.3366H13.9892C14.2403 27.8398 14.5788 27.4167 15.0046 27.0673C15.4358 26.7125 15.9244 26.4423 16.4703 26.2567C17.0217 26.0656 17.6031 25.9701 18.2145 25.9701C19.208 25.9701 20.0924 26.2048 20.8675 26.6743C21.6427 27.1383 22.2541 27.777 22.7018 28.5904C23.1494 29.4038 23.3732 30.3346 23.3732 31.3827C23.3732 32.5182 23.1085 33.5281 22.5789 34.4124C22.0549 35.2968 21.3206 35.9901 20.3762 36.4923C19.4373 36.9891 18.3455 37.2347 17.1008 37.2293ZM17.0845 34.4452C17.6304 34.4452 18.1189 34.3142 18.5502 34.0521C18.9815 33.7901 19.3199 33.4353 19.5656 32.9876C19.8112 32.54 19.9341 32.0378 19.9341 31.4809C19.9341 30.9241 19.8112 30.4246 19.5656 29.9825C19.3254 29.5403 18.9924 29.1882 18.5666 28.9261C18.1408 28.6641 17.6549 28.5331 17.109 28.5331C16.6996 28.5331 16.3202 28.6095 15.9708 28.7624C15.6269 28.9152 15.3239 29.1281 15.0619 29.4011C14.8053 29.674 14.6033 29.9906 14.4559 30.3509C14.3086 30.7058 14.2349 31.0852 14.2349 31.4891C14.2349 32.0296 14.3577 32.5236 14.6033 32.9713C14.8545 33.4189 15.1929 33.7765 15.6187 34.044C16.05 34.3114 16.5386 34.4452 17.0845 34.4452ZM36.18 34.6745L26.3948 24.9056L28.5402 22.7356L38.3336 32.5291L36.18 34.6745ZM28.5402 34.6745L26.3948 32.5291L36.18 22.7356L38.3336 24.9056L28.5402 34.6745ZM47.7586 37.2293C46.5358 37.2293 45.4467 37.0191 44.4914 36.5988C43.5415 36.173 42.7909 35.5888 42.2395 34.8464C41.6936 34.0985 41.4125 33.236 41.3961 32.2589H44.9663C44.9881 32.6683 45.1219 33.0286 45.3675 33.3397C45.6187 33.6454 45.9517 33.8829 46.3665 34.0521C46.7814 34.2214 47.2482 34.306 47.7668 34.306C48.3072 34.306 48.7849 34.2104 49.1998 34.0194C49.6146 33.8283 49.9395 33.5636 50.1742 33.2251C50.4089 32.8866 50.5263 32.4963 50.5263 32.0541C50.5263 31.6065 50.4007 31.2107 50.1496 30.8668C49.904 30.5174 49.5491 30.2445 49.0851 30.048C48.6266 29.8514 48.0807 29.7532 47.4474 29.7532H45.8834V27.1492H47.4474C47.9824 27.1492 48.4546 27.0564 48.864 26.8708C49.2789 26.6852 49.601 26.4286 49.8303 26.1011C50.0596 25.7681 50.1742 25.3805 50.1742 24.9383C50.1742 24.518 50.0732 24.1495 49.8712 23.8329C49.6747 23.5108 49.3963 23.2597 49.036 23.0795C48.6812 22.8994 48.2663 22.8093 47.7913 22.8093C47.3109 22.8093 46.8715 22.8967 46.473 23.0714C46.0745 23.2406 45.7551 23.4835 45.5149 23.8001C45.2747 24.1168 45.1465 24.488 45.1301 24.9138H41.7318C41.7482 23.9475 42.0239 23.0959 42.5589 22.359C43.0939 21.622 43.8145 21.0461 44.7207 20.6312C45.6323 20.2108 46.6613 20.0007 47.8077 20.0007C48.965 20.0007 49.9777 20.2108 50.8457 20.6312C51.7136 21.0515 52.3878 21.6193 52.8682 22.3344C53.3541 23.0441 53.5943 23.8411 53.5888 24.7254C53.5943 25.6644 53.3022 26.4477 52.7126 27.0755C52.1285 27.7033 51.367 28.1018 50.428 28.2711V28.4021C51.6618 28.5604 52.6007 28.9889 53.2449 29.6877C53.8945 30.381 54.2166 31.2489 54.2111 32.2916C54.2166 33.2469 53.9409 34.0958 53.3841 34.8382C52.8327 35.5807 52.0712 36.1648 51.0995 36.5906C50.1278 37.0164 49.0142 37.2293 47.7586 37.2293Z" fill="white"/>
<path d="M17.1008 37.2293L17.0956 38.0528L17.0972 38.0528L17.1008 37.2293ZM14.6033 36.7953L14.327 37.5711L14.3287 37.5717L14.6033 36.7953ZM12.4579 35.4114L11.8731 35.9912L11.8731 35.9912L12.4579 35.4114ZM10.9513 32.873L10.1733 33.1431L10.1745 33.1467L10.9513 32.873ZM10.4026 28.9916L9.57911 28.9885V28.9916H10.4026ZM10.8858 25.2167L10.0946 24.9879L10.0939 24.9905L10.8858 25.2167ZM12.2614 22.3835L11.6104 21.8792L11.6082 21.8821L12.2614 22.3835ZM14.415 20.6148L14.7736 21.3562L14.7775 21.3543L14.415 20.6148ZM20.1879 20.6557L19.814 21.3895L19.8177 21.3914L20.1879 20.6557ZM22.2514 22.4163L21.5763 22.8879L21.5786 22.8912L22.2514 22.4163ZM23.2013 24.9138V25.7373H24.128L24.0191 24.817L23.2013 24.9138ZM19.7048 24.9138L18.9028 25.1011L19.0515 25.7373H19.7048V24.9138ZM14.7344 24.4634L14.0275 24.0409L14.0257 24.0439L14.7344 24.4634ZM13.8746 28.3366L13.0511 28.3311L13.0455 29.1601H13.8746V28.3366ZM13.9892 28.3366V29.1601H14.4957L14.7242 28.7081L13.9892 28.3366ZM15.0046 27.0673L15.527 27.704L15.5278 27.7033L15.0046 27.0673ZM16.4703 26.2567L16.7354 27.0364L16.74 27.0348L16.4703 26.2567ZM20.8675 26.6743L20.4409 27.3787L20.4446 27.3809L20.8675 26.6743ZM22.5789 34.4124L21.8724 33.9894L21.8705 33.9926L22.5789 34.4124ZM20.3762 36.4923L20.7614 37.2202L20.7629 37.2194L20.3762 36.4923ZM18.5502 34.0521L18.9778 34.7559L18.9778 34.7559L18.5502 34.0521ZM19.5656 32.9876L20.2875 33.3838L20.2875 33.3838L19.5656 32.9876ZM19.5656 29.9825L18.8419 30.3756L18.8457 30.3824L19.5656 29.9825ZM18.5666 28.9261L18.9982 28.2248L18.9982 28.2248L18.5666 28.9261ZM15.9708 28.7624L15.6407 28.0079L15.6364 28.0098L15.9708 28.7624ZM15.0619 29.4011L14.4678 28.8307L14.4618 28.837L15.0619 29.4011ZM14.4559 30.3509L15.2165 30.6669L15.2182 30.6628L14.4559 30.3509ZM14.6033 32.9713L13.8813 33.3675L13.8851 33.3742L14.6033 32.9713ZM15.6187 34.044L15.1806 34.7413L15.1846 34.7438L15.6187 34.044ZM17.1008 37.2293L17.106 36.4058C16.3341 36.4009 15.5927 36.2717 14.878 36.0189L14.6033 36.7953L14.3287 37.5717C15.2189 37.8866 16.1425 38.0468 17.0956 38.0528L17.1008 37.2293ZM14.6033 36.7953L14.8796 36.0195C14.2061 35.7796 13.5948 35.3884 13.0428 34.8316L12.4579 35.4114L11.8731 35.9912C12.5876 36.7119 13.4065 37.2432 14.327 37.5711L14.6033 36.7953ZM12.4579 35.4114L13.0428 34.8316C12.5136 34.2978 12.0683 33.5651 11.728 32.5993L10.9513 32.873L10.1745 33.1467C10.5767 34.2881 11.1359 35.2476 11.8731 35.9912L12.4579 35.4114ZM10.9513 32.873L11.7292 32.6029C11.4026 31.662 11.2262 30.4657 11.2262 28.9916H10.4026H9.57911C9.57911 30.5855 9.76842 31.9768 10.1733 33.1431L10.9513 32.873ZM10.4026 28.9916L11.2262 28.9948C11.2314 27.6458 11.3857 26.4646 11.6776 25.443L10.8858 25.2167L10.0939 24.9905C9.75257 26.1852 9.5848 27.5206 9.57911 28.9885L10.4026 28.9916ZM10.8858 25.2167L11.6769 25.4455C11.9756 24.4126 12.3927 23.565 12.9147 22.885L12.2614 22.3835L11.6082 21.8821C10.9401 22.7524 10.4401 23.7936 10.0946 24.9879L10.8858 25.2167ZM12.2614 22.3835L12.9125 22.8878C13.4396 22.2073 14.0593 21.7016 14.7736 21.3562L14.415 20.6148L14.0564 19.8734C13.1002 20.3359 12.2842 21.0093 11.6104 21.8792L12.2614 22.3835ZM14.415 20.6148L14.7775 21.3543C15.4875 21.0062 16.2975 20.8242 17.2237 20.8242V20.0007V19.1771C16.0754 19.1771 15.013 19.4045 14.0525 19.8753L14.415 20.6148ZM17.2237 20.0007V20.8242C18.234 20.8242 19.0903 21.0207 19.814 21.3895L20.1879 20.6557L20.5618 19.922C19.5714 19.4173 18.4515 19.1771 17.2237 19.1771V20.0007ZM20.1879 20.6557L19.8177 21.3914C20.5603 21.765 21.1405 22.2641 21.5763 22.8879L22.2514 22.4163L22.9265 21.9447C22.3251 21.0836 21.5296 20.409 20.5581 19.9201L20.1879 20.6557ZM22.2514 22.4163L21.5786 22.8912C22.0218 23.519 22.29 24.221 22.3834 25.0106L23.2013 24.9138L24.0191 24.817C23.8942 23.7614 23.5291 22.7984 22.9242 21.9414L22.2514 22.4163ZM23.2013 24.9138V24.0902H19.7048V24.9138V25.7373H23.2013V24.9138ZM19.7048 24.9138L20.5067 24.7264C20.331 23.9744 19.9475 23.3432 19.3443 22.8832L18.845 23.5381L18.3456 24.193C18.6159 24.399 18.8056 24.6849 18.9028 25.1011L19.7048 24.9138ZM18.845 23.5381L19.3443 22.8832C18.7403 22.4227 18.0159 22.2151 17.2237 22.2151V23.0386V23.8621C17.7198 23.8621 18.0762 23.9875 18.3456 24.193L18.845 23.5381ZM17.2237 23.0386V22.2151C15.8373 22.2151 14.7414 22.8465 14.0275 24.0409L14.7344 24.4634L15.4412 24.8859C15.8628 24.1806 16.4264 23.8621 17.2237 23.8621V23.0386ZM14.7344 24.4634L14.0257 24.0439C13.3619 25.1653 13.0625 26.6181 13.0511 28.3311L13.8746 28.3366L14.6981 28.3421C14.7084 26.7906 14.9823 25.6613 15.443 24.8829L14.7344 24.4634ZM13.8746 28.3366V29.1601H13.9892V28.3366V27.513H13.8746V28.3366ZM13.9892 28.3366L14.7242 28.7081C14.9242 28.3124 15.1906 27.9799 15.527 27.704L15.0046 27.0673L14.4822 26.4307C13.9669 26.8535 13.5564 27.3672 13.2542 27.965L13.9892 28.3366ZM15.0046 27.0673L15.5278 27.7033C15.8799 27.4136 16.2804 27.1911 16.7354 27.0364L16.4703 26.2567L16.2052 25.477C15.5684 25.6935 14.9918 26.0114 14.4813 26.4314L15.0046 27.0673ZM16.4703 26.2567L16.74 27.0348C17.2005 26.8752 17.6904 26.7936 18.2145 26.7936V25.9701V25.1466C17.5157 25.1466 16.8428 25.256 16.2007 25.4786L16.4703 26.2567ZM18.2145 25.9701V26.7936C19.0725 26.7936 19.8066 26.9946 20.4409 27.3787L20.8675 26.6743L21.2942 25.9699C20.3781 25.4151 19.3435 25.1466 18.2145 25.1466V25.9701ZM20.8675 26.6743L20.4446 27.3809C21.091 27.7679 21.6009 28.2982 21.9803 28.9875L22.7018 28.5904L23.4233 28.1933C22.9073 27.2559 22.1944 26.5088 21.2905 25.9677L20.8675 26.6743ZM22.7018 28.5904L21.9803 28.9875C22.3527 29.6642 22.5497 30.4552 22.5497 31.3827H23.3732H24.1968C24.1968 30.2139 23.9461 29.1434 23.4233 28.1933L22.7018 28.5904ZM23.3732 31.3827H22.5497C22.5497 32.3847 22.3177 33.2456 21.8724 33.9894L22.5789 34.4124L23.2855 34.8355C23.8992 33.8105 24.1968 32.6516 24.1968 31.3827H23.3732ZM22.5789 34.4124L21.8705 33.9926C21.4267 34.7415 20.8062 35.3309 19.9896 35.7652L20.3762 36.4923L20.7629 37.2194C21.8351 36.6493 22.6831 35.8521 23.2874 34.8323L22.5789 34.4124ZM20.3762 36.4923L19.9911 35.7644C19.1909 36.1877 18.2369 36.4107 17.1044 36.4058L17.1008 37.2293L17.0972 38.0528C18.454 38.0588 19.6836 37.7904 20.7614 37.2202L20.3762 36.4923ZM17.0845 34.4452V35.2687C17.7684 35.2687 18.4072 35.1027 18.9778 34.7559L18.5502 34.0521L18.1226 33.3483C17.8307 33.5257 17.4923 33.6217 17.0845 33.6217V34.4452ZM18.5502 34.0521L18.9778 34.7559C19.534 34.418 19.9733 33.9565 20.2875 33.3838L19.5656 32.9876L18.8436 32.5914C18.6665 32.9141 18.4289 33.1622 18.1226 33.3483L18.5502 34.0521ZM19.5656 32.9876L20.2875 33.3838C20.6057 32.804 20.7576 32.1634 20.7576 31.4809H19.9341H19.1105C19.1105 31.9121 19.0167 32.276 18.8436 32.5914L19.5656 32.9876ZM19.9341 31.4809H20.7576C20.7576 30.7986 20.6058 30.1591 20.2855 29.5825L19.5656 29.9825L18.8457 30.3824C19.0167 30.6902 19.1105 31.0496 19.1105 31.4809H19.9341ZM19.5656 29.9825L20.2892 29.5894C19.9808 29.0215 19.5474 28.5628 18.9982 28.2248L18.5666 28.9261L18.135 29.6275C18.4373 29.8136 18.67 30.059 18.8419 30.3755L19.5656 29.9825ZM18.5666 28.9261L18.9982 28.2248C18.4308 27.8756 17.7928 27.7096 17.109 27.7096V28.5331V29.3566C17.517 29.3566 17.8508 29.4526 18.135 29.6275L18.5666 28.9261ZM17.109 28.5331V27.7096C16.5945 27.7096 16.1017 27.8062 15.6407 28.0079L15.9708 28.7624L16.3009 29.5168C16.5387 29.4128 16.8047 29.3566 17.109 29.3566V28.5331ZM15.9708 28.7624L15.6364 28.0098C15.1944 28.2063 14.8033 28.4812 14.4678 28.8307L15.0619 29.4011L15.656 29.9714C15.8445 29.775 16.0594 29.6242 16.3053 29.5149L15.9708 28.7624ZM15.0619 29.4011L14.4618 28.837C14.1335 29.1863 13.8778 29.5892 13.6937 30.0391L14.4559 30.3509L15.2182 30.6628C15.3289 30.392 15.4771 30.1618 15.6619 29.9651L15.0619 29.4011ZM14.4559 30.3509L13.6954 30.035C13.5043 30.4951 13.4113 30.9824 13.4113 31.4891H14.2349H15.0584C15.0584 31.1879 15.1128 30.9165 15.2165 30.6668L14.4559 30.3509ZM14.2349 31.4891H13.4113C13.4113 32.1597 13.5652 32.7913 13.8814 33.3675L14.6033 32.9713L15.3253 32.5751C15.1502 32.256 15.0584 31.8994 15.0584 31.4891H14.2349ZM14.6033 32.9713L13.8851 33.3742C14.2021 33.9392 14.6358 34.399 15.1806 34.7413L15.6187 34.044L16.0568 33.3466C15.75 33.1539 15.5068 32.8986 15.3216 32.5683L14.6033 32.9713ZM15.6187 34.044L15.1846 34.7438C15.7561 35.0983 16.3972 35.2687 17.0845 35.2687V34.4452V33.6217C16.6799 33.6217 16.3438 33.5246 16.0528 33.3441L15.6187 34.044ZM36.18 34.6745L35.5982 35.2573L36.1794 35.8375L36.7613 35.2579L36.18 34.6745ZM26.3948 24.9056L25.8092 24.3266L25.233 24.9094L25.8129 25.4884L26.3948 24.9056ZM28.5402 22.7356L29.1225 22.1533L28.5368 21.5677L27.9545 22.1566L28.5402 22.7356ZM38.3336 32.5291L38.9148 33.1125L39.4994 32.5302L38.9159 31.9468L38.3336 32.5291ZM28.5402 34.6745L27.9578 35.2568L28.5394 35.8384L29.1218 35.2575L28.5402 34.6745ZM26.3948 32.5291L25.8122 31.947L25.2304 32.5293L25.8125 33.1114L26.3948 32.5291ZM36.18 22.7356L36.7646 22.1555L36.182 21.5685L35.5975 22.1535L36.18 22.7356ZM38.3336 24.9056L38.9152 25.4886L39.4968 24.9085L38.9181 24.3255L38.3336 24.9056ZM36.18 34.6745L36.7619 34.0917L26.9766 24.3228L26.3948 24.9056L25.8129 25.4884L35.5982 35.2573L36.18 34.6745ZM26.3948 24.9056L26.9804 25.4846L29.1258 23.3146L28.5402 22.7356L27.9545 22.1566L25.8092 24.3266L26.3948 24.9056ZM28.5402 22.7356L27.9578 23.3179L37.7513 33.1114L38.3336 32.5291L38.9159 31.9468L29.1225 22.1533L28.5402 22.7356ZM38.3336 32.5291L37.7524 31.9456L35.5988 34.091L36.18 34.6745L36.7613 35.2579L38.9148 33.1125L38.3336 32.5291ZM28.5402 34.6745L29.1225 34.0921L26.9771 31.9468L26.3948 32.5291L25.8125 33.1114L27.9578 35.2568L28.5402 34.6745ZM26.3948 32.5291L26.9773 33.1112L36.7626 23.3177L36.18 22.7356L35.5975 22.1535L25.8122 31.947L26.3948 32.5291ZM36.18 22.7356L35.5955 23.3157L37.7491 25.4857L38.3336 24.9056L38.9181 24.3255L36.7646 22.1555L36.18 22.7356ZM38.3336 24.9056L37.752 24.3225L27.9586 34.0914L28.5402 34.6745L29.1218 35.2575L38.9152 25.4886L38.3336 24.9056ZM44.4914 36.5988L44.1545 37.3503L44.1597 37.3526L44.4914 36.5988ZM42.2395 34.8464L41.5743 35.332L41.5784 35.3374L42.2395 34.8464ZM41.3961 32.2589V31.4353H40.5587L40.5727 32.2727L41.3961 32.2589ZM44.9663 32.2589L45.7887 32.215L45.7471 31.4353H44.9663V32.2589ZM45.3675 33.3397L44.7212 33.85L44.7261 33.8563L44.7312 33.8625L45.3675 33.3397ZM46.3665 34.0521L46.0555 34.8147L46.0555 34.8147L46.3665 34.0521ZM49.1998 34.0194L48.8553 33.2714L48.8553 33.2714L49.1998 34.0194ZM50.1742 33.2251L50.8509 33.6944L50.8509 33.6944L50.1742 33.2251ZM50.1496 30.8668L49.476 31.3405L49.4802 31.3465L49.4845 31.3524L50.1496 30.8668ZM49.0851 30.048L48.7607 30.8049L48.764 30.8063L49.0851 30.048ZM45.8834 29.7532H45.0599V30.5767H45.8834V29.7532ZM45.8834 27.1492V26.3257H45.0599V27.1492H45.8834ZM48.864 26.8708L48.5277 26.1191L48.524 26.1208L48.864 26.8708ZM49.8303 26.1011L50.505 26.5734L50.5086 26.5681L49.8303 26.1011ZM49.8712 23.8329L49.1682 24.2618L49.1725 24.2689L49.1769 24.2758L49.8712 23.8329ZM49.036 23.0795L48.6632 23.8139L48.6677 23.8161L49.036 23.0795ZM46.473 23.0714L46.7949 23.8294L46.8036 23.8256L46.473 23.0714ZM45.5149 23.8001L46.171 24.2979L46.171 24.2979L45.5149 23.8001ZM45.1301 24.9138V25.7373H45.9225L45.953 24.9454L45.1301 24.9138ZM41.7318 24.9138L40.9084 24.8998L40.8942 25.7373H41.7318V24.9138ZM42.5589 22.359L43.2253 22.8427L43.2253 22.8427L42.5589 22.359ZM44.7207 20.6312L45.0635 21.38L45.0655 21.379L44.7207 20.6312ZM50.8457 20.6312L51.2046 19.89L51.2046 19.89L50.8457 20.6312ZM52.8682 22.3344L52.1846 22.7936L52.1887 22.7996L52.8682 22.3344ZM53.5888 24.7254L52.7652 24.7203L52.7653 24.7302L53.5888 24.7254ZM52.7126 27.0755L52.1123 26.5118L52.1097 26.5146L52.7126 27.0755ZM50.428 28.2711L50.282 27.4606L49.6045 27.5827V28.2711H50.428ZM50.428 28.4021H49.6045V29.1267L50.3232 29.2189L50.428 28.4021ZM53.2449 29.6877L52.6394 30.2459L52.6439 30.2508L53.2449 29.6877ZM54.2111 32.2916L53.3876 32.2873L53.3876 32.2963L54.2111 32.2916ZM53.3841 34.8382L52.7253 34.3441L52.7229 34.3472L53.3841 34.8382ZM51.0995 36.5906L50.769 35.8363L50.769 35.8363L51.0995 36.5906ZM47.7586 37.2293V36.4057C46.6306 36.4057 45.6575 36.2121 44.823 35.845L44.4914 36.5988L44.1597 37.3526C45.2359 37.8261 46.441 38.0528 47.7586 38.0528V37.2293ZM44.4914 36.5988L44.8282 35.8473C43.9905 35.4718 43.3579 34.9711 42.9007 34.3554L42.2395 34.8464L41.5784 35.3374C42.2239 36.2066 43.0925 36.8742 44.1545 37.3502L44.4914 36.5988ZM42.2395 34.8464L42.9047 34.3609C42.4647 33.758 42.2332 33.0624 42.2195 32.2451L41.3961 32.2589L40.5727 32.2727C40.5918 33.4096 40.9226 34.4391 41.5744 35.332L42.2395 34.8464ZM41.3961 32.2589V33.0824H44.9663V32.2589V31.4353H41.3961V32.2589ZM44.9663 32.2589L44.1439 32.3027C44.1745 32.8759 44.3663 33.4005 44.7212 33.85L45.3675 33.3397L46.0139 32.8294C45.8775 32.6566 45.8018 32.4607 45.7887 32.215L44.9663 32.2589ZM45.3675 33.3397L44.7312 33.8625C45.0801 34.2872 45.531 34.6007 46.0555 34.8147L46.3665 34.0521L46.6776 33.2896C46.3724 33.1651 46.1572 33.0037 46.0039 32.817L45.3675 33.3397ZM46.3665 34.0521L46.0555 34.8147C46.5834 35.03 47.1581 35.1295 47.7668 35.1295V34.306V33.4825C47.3382 33.4825 46.9794 33.4127 46.6776 33.2896L46.3665 34.0521ZM47.7668 34.306V35.1295C48.4046 35.1295 49.0033 35.0165 49.5442 34.7674L49.1998 34.0194L48.8553 33.2714C48.5664 33.4044 48.2098 33.4825 47.7668 33.4825V34.306ZM49.1998 34.0194L49.5442 34.7674C50.0778 34.5217 50.5234 34.1666 50.8509 33.6944L50.1742 33.2251L49.4975 32.7558C49.3555 32.9605 49.1515 33.135 48.8553 33.2714L49.1998 34.0194ZM50.1742 33.2251L50.8509 33.6944C51.1884 33.2078 51.3498 32.6511 51.3498 32.0541H50.5263H49.7028C49.7028 32.3416 49.6295 32.5655 49.4975 32.7558L50.1742 33.2251ZM50.5263 32.0541H51.3498C51.3498 31.4414 51.1743 30.8736 50.8147 30.3812L50.1496 30.8668L49.4845 31.3524C49.6272 31.5479 49.7028 31.7716 49.7028 32.0541H50.5263ZM50.1496 30.8668L50.8233 30.3931C50.4742 29.8966 49.9863 29.5353 49.4063 29.2896L49.0851 30.048L48.764 30.8063C49.112 30.9537 49.3337 31.1382 49.476 31.3405L50.1496 30.8668ZM49.0851 30.048L49.4095 29.291C48.8249 29.0404 48.1633 28.9296 47.4474 28.9296V29.7532V30.5767C47.9981 30.5767 48.4283 30.6624 48.7607 30.8049L49.0851 30.048ZM47.4474 29.7532V28.9296H45.8834V29.7532V30.5767H47.4474V29.7532ZM45.8834 29.7532H46.707V27.1492H45.8834H45.0599V29.7532H45.8834ZM45.8834 27.1492V27.9728H47.4474V27.1492V26.3257H45.8834V27.1492ZM47.4474 27.1492V27.9728C48.0777 27.9728 48.6695 27.8632 49.2041 27.6209L48.864 26.8708L48.524 26.1208C48.2398 26.2496 47.8871 26.3257 47.4474 26.3257V27.1492ZM48.864 26.8708L49.2003 27.6226C49.7322 27.3846 50.179 27.0389 50.5049 26.5734L49.8303 26.1011L49.1556 25.6288C49.023 25.8183 48.8256 25.9858 48.5277 26.1191L48.864 26.8708ZM49.8303 26.1011L50.5086 26.5681C50.8413 26.0849 50.9977 25.5309 50.9977 24.9383H50.1742H49.3507C49.3507 25.2301 49.2778 25.4513 49.152 25.6341L49.8303 26.1011ZM50.1742 24.9383H50.9977C50.9977 24.3804 50.8617 23.8543 50.5655 23.39L49.8712 23.8329L49.1769 24.2758C49.2847 24.4447 49.3507 24.6556 49.3507 24.9383H50.1742ZM49.8712 23.8329L50.5742 23.4039C50.2917 22.9409 49.8931 22.5873 49.4043 22.343L49.036 23.0795L48.6677 23.8161C48.8995 23.932 49.0577 24.0807 49.1682 24.2618L49.8712 23.8329ZM49.036 23.0795L49.4088 22.3452C48.9181 22.0961 48.371 21.9858 47.7913 21.9858V22.8093V23.6329C48.1616 23.6329 48.4442 23.7027 48.6632 23.8139L49.036 23.0795ZM47.7913 22.8093V21.9858C47.2091 21.9858 46.6555 22.0922 46.1424 22.3171L46.473 23.0714L46.8036 23.8256C47.0875 23.7012 47.4128 23.6329 47.7913 23.6329V22.8093ZM46.473 23.0714L46.1511 22.3133C45.6326 22.5335 45.1935 22.8613 44.8588 23.3024L45.5149 23.8001L46.171 24.2979C46.3168 24.1057 46.5164 23.9476 46.7949 23.8294L46.473 23.0714ZM45.5149 23.8001L44.8588 23.3024C44.509 23.7635 44.3295 24.3004 44.3072 24.8821L45.1301 24.9138L45.953 24.9454C45.9634 24.6756 46.0404 24.47 46.171 24.2979L45.5149 23.8001ZM45.1301 24.9138V24.0902H41.7318V24.9138V25.7373H45.1301V24.9138ZM41.7318 24.9138L42.5553 24.9277C42.569 24.1196 42.7959 23.4343 43.2253 22.8427L42.5589 22.359L41.8924 21.8752C41.2519 22.7575 40.9275 23.7755 40.9084 24.8998L41.7318 24.9138ZM42.5589 22.359L43.2253 22.8427C43.6693 22.2311 44.2737 21.7416 45.0635 21.38L44.7207 20.6312L44.3778 19.8824C43.3553 20.3506 42.5184 21.0129 41.8924 21.8752L42.5589 22.359ZM44.7207 20.6312L45.0655 21.379C45.8547 21.0152 46.7635 20.8242 47.8077 20.8242V20.0007V19.1771C46.5592 19.1771 45.41 19.4065 44.3758 19.8833L44.7207 20.6312ZM47.8077 20.0007V20.8242C48.8653 20.8242 49.7508 21.016 50.4867 21.3724L50.8457 20.6312L51.2046 19.89C50.2045 19.4057 49.0648 19.1771 47.8077 19.1771V20.0007ZM50.8457 20.6312L50.4867 21.3724C51.2395 21.7369 51.7949 22.2135 52.1846 22.7936L52.8682 22.3344L53.5518 21.8752C52.9807 21.025 52.1878 20.3661 51.2046 19.89L50.8457 20.6312ZM52.8682 22.3344L52.1887 22.7996C52.5769 23.3667 52.7697 23.9987 52.7653 24.7203L53.5888 24.7254L54.4123 24.7305C54.4188 23.6834 54.1312 22.7214 53.5478 21.8692L52.8682 22.3344ZM53.5888 24.7254L52.7653 24.7302C52.7696 25.4789 52.5437 26.0524 52.1123 26.5118L52.7126 27.0755L53.3129 27.6393C54.0607 26.8431 54.4189 25.8499 54.4123 24.7206L53.5888 24.7254ZM52.7126 27.0755L52.1097 26.5146C51.6605 26.9973 51.0664 27.3192 50.282 27.4606L50.428 28.2711L50.5741 29.0815C51.6675 28.8845 52.5965 28.4093 53.3155 27.6365L52.7126 27.0755ZM50.428 28.2711H49.6045V28.4021H50.428H51.2516V28.2711H50.428ZM50.428 28.4021L50.3232 29.2189C51.425 29.3603 52.1625 29.7285 52.6394 30.2459L53.2449 29.6877L53.8504 29.1295C53.039 28.2493 51.8986 27.7605 50.5329 27.5852L50.428 28.4021ZM53.2449 29.6877L52.6439 30.2508C53.1349 30.7747 53.3921 31.4329 53.3876 32.2873L54.2111 32.2916L55.0346 32.2959C55.0411 31.065 54.6541 29.9872 53.8458 29.1246L53.2449 29.6877ZM54.2111 32.2916L53.3876 32.2963C53.3921 33.0775 53.1708 33.75 52.7253 34.3441L53.3841 34.8382L54.0429 35.3324C54.711 34.4416 55.0411 33.4163 55.0346 32.2869L54.2111 32.2916ZM53.3841 34.8382L52.7229 34.3472C52.2689 34.9586 51.629 35.4594 50.769 35.8363L51.0995 36.5906L51.43 37.3449C52.5134 36.8701 53.3965 36.2027 54.0452 35.3292L53.3841 34.8382ZM51.0995 36.5906L50.769 35.8363C49.9188 36.2088 48.921 36.4057 47.7586 36.4057V37.2293V38.0528C49.1074 38.0528 50.3368 37.8239 51.43 37.3449L51.0995 36.5906Z" fill="#2B3F46" mask="url(#path-33-outside-1_2025_1594)"/>
<defs>
<linearGradient id="paint0_linear_2025_1594" x1="35.8411" y1="35.864" x2="-1.88188" y2="2.08424" gradientUnits="userSpaceOnUse">
<stop stop-color="#FFD5EF"/>
<stop offset="1" stop-color="#EFBDFD"/>
</linearGradient>
<linearGradient id="paint1_linear_2025_1594" x1="26.8809" y1="4.483" x2="25.174" y2="-4.68761" gradientUnits="userSpaceOnUse">
<stop stop-color="#F95457"/>
<stop offset="1" stop-color="#FDBDCB"/>
</linearGradient>
<linearGradient id="paint2_linear_2025_1594" x1="26.8809" y1="4.483" x2="25.174" y2="-4.68761" gradientUnits="userSpaceOnUse">
<stop stop-color="#F95457"/>
<stop offset="1" stop-color="#FDBDCB"/>
</linearGradient>
<linearGradient id="paint3_linear_2025_1594" x1="4.71795" y1="43.6522" x2="1.80375" y2="43.0282" gradientUnits="userSpaceOnUse">
<stop stop-color="#F95457"/>
<stop offset="1" stop-color="#FDBDCB"/>
</linearGradient>
<linearGradient id="paint4_linear_2025_1594" x1="35.7669" y1="58.0257" x2="30.2155" y2="50.8928" gradientUnits="userSpaceOnUse">
<stop stop-color="#F95457"/>
<stop offset="1" stop-color="#FDBDCB"/>
</linearGradient>
<linearGradient id="paint5_linear_2025_1594" x1="60.6657" y1="43.6522" x2="57.7515" y2="43.0282" gradientUnits="userSpaceOnUse">
<stop stop-color="#F95457"/>
<stop offset="1" stop-color="#FDBDCB"/>
</linearGradient>
<linearGradient id="paint6_linear_2025_1594" x1="-1.09962e-05" y1="-0.0328651" x2="30.641" y2="-4.05264" gradientUnits="userSpaceOnUse">
<stop stop-color="#D74446"/>
<stop offset="1" stop-color="#E165B8"/>
</linearGradient>
<linearGradient id="paint7_linear_2025_1594" x1="-1.11276e-05" y1="-0.033258" x2="31.0073" y2="-4.10108" gradientUnits="userSpaceOnUse">
<stop stop-color="#D74446"/>
<stop offset="1" stop-color="#E165B8"/>
</linearGradient>
<linearGradient id="paint8_linear_2025_1594" x1="-8.34573e-06" y1="-0.00415724" x2="14.606" y2="-11.5011" gradientUnits="userSpaceOnUse">
<stop stop-color="#D1369D"/>
<stop offset="1" stop-color="#B31E20"/>
</linearGradient>
<linearGradient id="paint9_linear_2025_1594" x1="-8.34573e-06" y1="-0.00415724" x2="14.606" y2="-11.5011" gradientUnits="userSpaceOnUse">
<stop stop-color="#D74446"/>
<stop offset="1" stop-color="#E165B8"/>
</linearGradient>
<linearGradient id="paint10_linear_2025_1594" x1="2.32056" y1="36.6188" x2="3.73346" y2="36.5744" gradientUnits="userSpaceOnUse">
<stop stop-color="#D74446"/>
<stop offset="1" stop-color="#D1369D"/>
</linearGradient>
<linearGradient id="paint11_linear_2025_1594" x1="27.5452" y1="52.5135" x2="34.1403" y2="51.2721" gradientUnits="userSpaceOnUse">
<stop stop-color="#B31E20"/>
<stop offset="1" stop-color="#D74446"/>
</linearGradient>
<linearGradient id="paint12_linear_2025_1594" x1="59.0066" y1="36.6188" x2="60.4195" y2="36.5744" gradientUnits="userSpaceOnUse">
<stop stop-color="#E165B8"/>
<stop offset="1" stop-color="#D74446"/>
</linearGradient>
<clipPath id="clip0_2025_1594">
<rect width="35.8992" height="35.8992" rx="4.44179" transform="matrix(0.866025 0.5 -0.866025 0.5 31.9104 19)" fill="white"/>
</clipPath>
<clipPath id="clip1_2025_1594">
<rect width="36.3731" height="36.3731" rx="4.50041" transform="matrix(0.866025 0.5 -0.866025 0.5 31.5 18.4604)" fill="white"/>
</clipPath>
</defs>
</svg>
