<svg width="64" height="64" viewBox="0 0 64 64" fill="none" xmlns="http://www.w3.org/2000/svg">
<rect width="35.8551" height="35.8551" rx="4.37833" transform="matrix(0.866025 0.5 -0.866025 0.5 31.8887 19)" fill="url(#paint0_linear_2025_1624)"/>
<rect width="26.8913" height="4.48189" transform="matrix(0.866025 0.5 0 1 4.71851 39.1685)" fill="url(#paint1_linear_2025_1624)"/>
<rect width="26.8913" height="4.48189" transform="matrix(0.866025 -0.5 0 1 35.7698 52.6143)" fill="url(#paint2_linear_2025_1624)"/>
<path d="M3.11084 36.9277C3.11084 37.8029 3.72524 38.5952 4.71858 39.1687V43.6506C3.72524 43.0771 3.11084 42.2848 3.11084 41.4096V36.9277Z" fill="url(#paint3_linear_2025_1624)"/>
<path d="M28.0071 52.6143C30.1507 53.8519 33.6263 53.8519 35.7699 52.6143V57.0961C33.6263 58.3338 30.1507 58.3338 28.0071 57.0961V52.6143Z" fill="url(#paint4_linear_2025_1624)"/>
<path d="M60.6663 36.9277C60.6663 37.8029 60.0519 38.5952 59.0586 39.1687V43.6506C60.0519 43.0771 60.6663 42.2848 60.6663 41.4096V36.9277Z" fill="url(#paint5_linear_2025_1624)"/>
<g clip-path="url(#clip0_2025_1624)">
<rect width="35.8992" height="35.8992" rx="4.44179" transform="matrix(0.866025 0.5 -0.866025 0.5 31.9104 19)" fill="url(#paint6_linear_2025_1624)"/>
<rect width="11.5594" height="11.5594" transform="matrix(0.866025 0.5 -0.866025 0.5 31.9104 19)" fill="black" fill-opacity="0.1"/>
<rect width="11.5594" height="11.5594" transform="matrix(0.866025 0.5 -0.866025 0.5 21.3711 25.085)" fill="black" fill-opacity="0.1"/>
<rect width="11.5594" height="11.5594" transform="matrix(0.866025 0.5 -0.866025 0.5 21.3711 37.2549)" fill="black" fill-opacity="0.1"/>
<rect width="11.5594" height="11.5594" transform="matrix(0.866025 0.5 -0.866025 0.5 42.45 25.085)" fill="black" fill-opacity="0.1"/>
<rect width="11.5594" height="11.5594" transform="matrix(0.866025 0.5 -0.866025 0.5 42.45 37.2549)" fill="black" fill-opacity="0.1"/>
<rect width="11.5594" height="11.5594" transform="matrix(0.866025 0.5 -0.866025 0.5 52.9893 31.1699)" fill="black" fill-opacity="0.1"/>
<rect width="11.5594" height="11.5594" transform="matrix(0.866025 0.5 -0.866025 0.5 10.8315 31.1699)" fill="black" fill-opacity="0.1"/>
<rect width="11.5594" height="11.5594" transform="matrix(0.866025 0.5 -0.866025 0.5 31.9104 43.3398)" fill="black" fill-opacity="0.1"/>
<rect width="11.5594" height="11.5594" transform="matrix(0.866025 0.5 -0.866025 0.5 31.9104 31.1699)" fill="black" fill-opacity="0.1"/>
</g>
<rect width="36.3283" height="36.3283" rx="4.43612" transform="matrix(0.866025 0.5 -0.866025 0.5 31.478 18.4604)" fill="url(#paint7_linear_2025_1624)"/>
<rect width="27.2462" height="4.54104" transform="matrix(0.866025 0.5 0 1 3.94922 38.8955)" fill="url(#paint8_linear_2025_1624)"/>
<rect width="27.2462" height="4.54104" transform="matrix(0.866025 -0.5 0 1 35.4104 52.5186)" fill="url(#paint9_linear_2025_1624)"/>
<path d="M2.32056 36.625C2.32056 37.5117 2.94306 38.3144 3.94952 38.8955V43.4366C2.94306 42.8555 2.32056 42.0527 2.32056 41.166V36.625Z" fill="url(#paint10_linear_2025_1624)"/>
<path d="M27.5452 52.5186C29.7171 53.7725 33.2385 53.7725 35.4105 52.5186V57.0596C33.2385 58.3136 29.7171 58.3136 27.5452 57.0596V52.5186Z" fill="url(#paint11_linear_2025_1624)"/>
<path d="M60.6356 36.625C60.6356 37.5117 60.013 38.3144 59.0066 38.8955V43.4366C60.013 42.8555 60.6356 42.0527 60.6356 41.166V36.625Z" fill="url(#paint12_linear_2025_1624)"/>
<g clip-path="url(#clip1_2025_1624)">
<rect width="11.712" height="11.712" transform="matrix(0.866025 0.5 -0.866025 0.5 31.5 18.4604)" fill="white" fill-opacity="0.2"/>
<rect width="11.712" height="11.712" transform="matrix(0.866025 0.5 -0.866025 0.5 20.8213 24.626)" fill="white" fill-opacity="0.2"/>
<rect width="11.712" height="11.712" transform="matrix(0.866025 0.5 -0.866025 0.5 20.8215 36.9561)" fill="white" fill-opacity="0.2"/>
<rect width="11.712" height="11.712" transform="matrix(0.866025 0.5 -0.866025 0.5 42.1785 24.6255)" fill="white" fill-opacity="0.2"/>
<rect width="11.712" height="11.712" transform="matrix(0.866025 0.5 -0.866025 0.5 42.1785 36.9561)" fill="white" fill-opacity="0.2"/>
<rect width="11.712" height="11.712" transform="matrix(0.866025 0.5 -0.866025 0.5 52.8569 30.791)" fill="white" fill-opacity="0.2"/>
<rect width="11.712" height="11.712" transform="matrix(0.866025 0.5 -0.866025 0.5 10.1428 30.791)" fill="white" fill-opacity="0.2"/>
<rect width="11.712" height="11.712" transform="matrix(0.866025 0.5 -0.866025 0.5 31.5 43.1216)" fill="white" fill-opacity="0.2"/>
<rect width="11.712" height="11.712" transform="matrix(0.866025 0.5 -0.866025 0.5 31.5 30.791)" fill="white" fill-opacity="0.2"/>
</g>
<mask id="path-33-outside-1_2025_1624" maskUnits="userSpaceOnUse" x="9" y="19" width="47" height="20" fill="black">
<rect fill="white" x="9" y="19" width="47" height="20"/>
<path d="M16.8869 37.2293C16.0244 37.2238 15.1919 37.0792 14.3894 36.7953C13.5924 36.5114 12.8773 36.0501 12.244 35.4114C11.6108 34.7727 11.1086 33.9266 10.7373 32.873C10.3716 31.8194 10.1887 30.5256 10.1887 28.9916C10.1942 27.5832 10.3552 26.3249 10.6718 25.2167C10.9939 24.1031 11.4525 23.1587 12.0475 22.3835C12.648 21.6083 13.3659 21.0188 14.2011 20.6148C15.0363 20.2054 15.9725 20.0007 17.0097 20.0007C18.1288 20.0007 19.1169 20.219 19.974 20.6557C20.831 21.087 21.5189 21.6739 22.0375 22.4163C22.5615 23.1587 22.8782 23.9912 22.9873 24.9138H19.4909C19.3544 24.3297 19.0678 23.8711 18.6311 23.5381C18.1943 23.2051 17.6539 23.0386 17.0097 23.0386C15.9179 23.0386 15.0882 23.5135 14.5204 24.4634C13.9582 25.4133 13.6716 26.7043 13.6606 28.3366H13.7753C14.0264 27.8398 14.3648 27.4167 14.7906 27.0673C15.2219 26.7125 15.7105 26.4423 16.2564 26.2567C16.8078 26.0656 17.3891 25.9701 18.0005 25.9701C18.9941 25.9701 19.8784 26.2048 20.6536 26.6743C21.4288 27.1383 22.0402 27.777 22.4878 28.5904C22.9355 29.4038 23.1593 30.3346 23.1593 31.3827C23.1593 32.5182 22.8945 33.5281 22.365 34.4124C21.841 35.2968 21.1067 35.9901 20.1623 36.4923C19.2234 36.9891 18.1316 37.2347 16.8869 37.2293ZM16.8705 34.4452C17.4164 34.4452 17.905 34.3142 18.3363 34.0521C18.7675 33.7901 19.106 33.4353 19.3516 32.9876C19.5973 32.54 19.7201 32.0378 19.7201 31.4809C19.7201 30.9241 19.5973 30.4246 19.3516 29.9825C19.1115 29.5403 18.7785 29.1882 18.3526 28.9261C17.9268 28.6641 17.441 28.5331 16.8951 28.5331C16.4857 28.5331 16.1063 28.6095 15.7569 28.7624C15.413 28.9152 15.11 29.1281 14.848 29.4011C14.5914 29.674 14.3894 29.9906 14.242 30.3509C14.0946 30.7058 14.0209 31.0852 14.0209 31.4891C14.0209 32.0296 14.1438 32.5236 14.3894 32.9713C14.6405 33.4189 14.979 33.7765 15.4048 34.044C15.836 34.3114 16.3246 34.4452 16.8705 34.4452ZM35.9661 34.6745L26.1809 24.9056L28.3262 22.7356L38.1197 32.5291L35.9661 34.6745ZM28.3262 34.6745L26.1809 32.5291L35.9661 22.7356L38.1197 24.9056L28.3262 34.6745ZM41.0921 34.0521V31.2599L48.0933 20.2299H50.5007V24.0949H49.0759L44.6623 31.0797V31.2107H54.6113V34.0521H41.0921ZM49.1414 37V33.2005L49.2069 31.9641V20.2299H52.5315V37H49.1414Z"/>
</mask>
<path d="M16.8869 37.2293C16.0244 37.2238 15.1919 37.0792 14.3894 36.7953C13.5924 36.5114 12.8773 36.0501 12.244 35.4114C11.6108 34.7727 11.1086 33.9266 10.7373 32.873C10.3716 31.8194 10.1887 30.5256 10.1887 28.9916C10.1942 27.5832 10.3552 26.3249 10.6718 25.2167C10.9939 24.1031 11.4525 23.1587 12.0475 22.3835C12.648 21.6083 13.3659 21.0188 14.2011 20.6148C15.0363 20.2054 15.9725 20.0007 17.0097 20.0007C18.1288 20.0007 19.1169 20.219 19.974 20.6557C20.831 21.087 21.5189 21.6739 22.0375 22.4163C22.5615 23.1587 22.8782 23.9912 22.9873 24.9138H19.4909C19.3544 24.3297 19.0678 23.8711 18.6311 23.5381C18.1943 23.2051 17.6539 23.0386 17.0097 23.0386C15.9179 23.0386 15.0882 23.5135 14.5204 24.4634C13.9582 25.4133 13.6716 26.7043 13.6606 28.3366H13.7753C14.0264 27.8398 14.3648 27.4167 14.7906 27.0673C15.2219 26.7125 15.7105 26.4423 16.2564 26.2567C16.8078 26.0656 17.3891 25.9701 18.0005 25.9701C18.9941 25.9701 19.8784 26.2048 20.6536 26.6743C21.4288 27.1383 22.0402 27.777 22.4878 28.5904C22.9355 29.4038 23.1593 30.3346 23.1593 31.3827C23.1593 32.5182 22.8945 33.5281 22.365 34.4124C21.841 35.2968 21.1067 35.9901 20.1623 36.4923C19.2234 36.9891 18.1316 37.2347 16.8869 37.2293ZM16.8705 34.4452C17.4164 34.4452 17.905 34.3142 18.3363 34.0521C18.7675 33.7901 19.106 33.4353 19.3516 32.9876C19.5973 32.54 19.7201 32.0378 19.7201 31.4809C19.7201 30.9241 19.5973 30.4246 19.3516 29.9825C19.1115 29.5403 18.7785 29.1882 18.3526 28.9261C17.9268 28.6641 17.441 28.5331 16.8951 28.5331C16.4857 28.5331 16.1063 28.6095 15.7569 28.7624C15.413 28.9152 15.11 29.1281 14.848 29.4011C14.5914 29.674 14.3894 29.9906 14.242 30.3509C14.0946 30.7058 14.0209 31.0852 14.0209 31.4891C14.0209 32.0296 14.1438 32.5236 14.3894 32.9713C14.6405 33.4189 14.979 33.7765 15.4048 34.044C15.836 34.3114 16.3246 34.4452 16.8705 34.4452ZM35.9661 34.6745L26.1809 24.9056L28.3262 22.7356L38.1197 32.5291L35.9661 34.6745ZM28.3262 34.6745L26.1809 32.5291L35.9661 22.7356L38.1197 24.9056L28.3262 34.6745ZM41.0921 34.0521V31.2599L48.0933 20.2299H50.5007V24.0949H49.0759L44.6623 31.0797V31.2107H54.6113V34.0521H41.0921ZM49.1414 37V33.2005L49.2069 31.9641V20.2299H52.5315V37H49.1414Z" fill="white"/>
<path d="M16.8869 37.2293L16.8817 38.0528L16.8833 38.0528L16.8869 37.2293ZM14.3894 36.7953L14.1131 37.5711L14.1148 37.5717L14.3894 36.7953ZM12.244 35.4114L11.6592 35.9912L11.6592 35.9912L12.244 35.4114ZM10.7373 32.873L9.95935 33.1431L9.96061 33.1467L10.7373 32.873ZM10.1887 28.9916L9.36518 28.9885V28.9916H10.1887ZM10.6718 25.2167L9.88072 24.9879L9.87999 24.9905L10.6718 25.2167ZM12.0475 22.3835L11.3965 21.8792L11.3942 21.8821L12.0475 22.3835ZM14.2011 20.6148L14.5597 21.3562L14.5636 21.3543L14.2011 20.6148ZM19.974 20.6557L19.6001 21.3895L19.6038 21.3914L19.974 20.6557ZM22.0375 22.4163L21.3623 22.8879L21.3647 22.8912L22.0375 22.4163ZM22.9873 24.9138V25.7373H23.9141L23.8052 24.817L22.9873 24.9138ZM19.4909 24.9138L18.6889 25.1011L18.8376 25.7373H19.4909V24.9138ZM14.5204 24.4634L13.8135 24.0409L13.8118 24.0439L14.5204 24.4634ZM13.6606 28.3366L12.8371 28.3311L12.8316 29.1601H13.6606V28.3366ZM13.7753 28.3366V29.1601H14.2818L14.5102 28.7081L13.7753 28.3366ZM14.7906 27.0673L15.313 27.704L15.3139 27.7033L14.7906 27.0673ZM16.2564 26.2567L16.5215 27.0364L16.526 27.0348L16.2564 26.2567ZM20.6536 26.6743L20.227 27.3787L20.2306 27.3809L20.6536 26.6743ZM22.365 34.4124L21.6585 33.9894L21.6565 33.9926L22.365 34.4124ZM20.1623 36.4923L20.5474 37.2202L20.549 37.2194L20.1623 36.4923ZM18.3363 34.0521L18.7639 34.7559L18.7639 34.7559L18.3363 34.0521ZM19.3516 32.9876L20.0736 33.3838L20.0736 33.3838L19.3516 32.9876ZM19.3516 29.9825L18.628 30.3756L18.6318 30.3824L19.3516 29.9825ZM18.3526 28.9261L18.7843 28.2248L18.7843 28.2248L18.3526 28.9261ZM15.7569 28.7624L15.4268 28.0079L15.4224 28.0098L15.7569 28.7624ZM14.848 29.4011L14.2539 28.8307L14.2479 28.837L14.848 29.4011ZM14.242 30.3509L15.0026 30.6669L15.0042 30.6628L14.242 30.3509ZM14.3894 32.9713L13.6674 33.3675L13.6712 33.3742L14.3894 32.9713ZM15.4048 34.044L14.9667 34.7413L14.9707 34.7438L15.4048 34.044ZM16.8869 37.2293L16.8921 36.4058C16.1202 36.4009 15.3788 36.2717 14.6641 36.0189L14.3894 36.7953L14.1148 37.5717C15.005 37.8866 15.9286 38.0468 16.8817 38.0528L16.8869 37.2293ZM14.3894 36.7953L14.6657 36.0195C13.9922 35.7796 13.3808 35.3884 12.8288 34.8316L12.244 35.4114L11.6592 35.9912C12.3737 36.7119 13.1926 37.2432 14.1131 37.5711L14.3894 36.7953ZM12.244 35.4114L12.8288 34.8316C12.2996 34.2978 11.8543 33.5651 11.5141 32.5993L10.7373 32.873L9.96061 33.1467C10.3628 34.2881 10.9219 35.2476 11.6592 35.9912L12.244 35.4114ZM10.7373 32.873L11.5153 32.6029C11.1887 31.662 11.0122 30.4657 11.0122 28.9916H10.1887H9.36518C9.36518 30.5855 9.55449 31.9768 9.95936 33.1431L10.7373 32.873ZM10.1887 28.9916L11.0122 28.9948C11.0175 27.6458 11.1718 26.4646 11.4637 25.443L10.6718 25.2167L9.87999 24.9905C9.53865 26.1852 9.37088 27.5206 9.36519 28.9885L10.1887 28.9916ZM10.6718 25.2167L11.4629 25.4455C11.7617 24.4126 12.1788 23.565 12.7008 22.885L12.0475 22.3835L11.3942 21.8821C10.7262 22.7524 10.2261 23.7936 9.88073 24.9879L10.6718 25.2167ZM12.0475 22.3835L12.6985 22.8878C13.2257 22.2073 13.8454 21.7016 14.5596 21.3562L14.2011 20.6148L13.8425 19.8734C12.8863 20.3359 12.0703 21.0093 11.3965 21.8792L12.0475 22.3835ZM14.2011 20.6148L14.5636 21.3543C15.2735 21.0062 16.0836 20.8242 17.0097 20.8242V20.0007V19.1771C15.8615 19.1771 14.7991 19.4045 13.8386 19.8753L14.2011 20.6148ZM17.0097 20.0007V20.8242C18.0201 20.8242 18.8764 21.0207 19.6001 21.3895L19.974 20.6557L20.3479 19.922C19.3574 19.4173 18.2376 19.1771 17.0097 19.1771V20.0007ZM19.974 20.6557L19.6038 21.3914C20.3464 21.765 20.9266 22.2641 21.3623 22.8879L22.0375 22.4163L22.7126 21.9447C22.1111 21.0836 21.3157 20.409 20.3441 19.9201L19.974 20.6557ZM22.0375 22.4163L21.3647 22.8912C21.8079 23.519 22.0761 24.221 22.1695 25.0106L22.9873 24.9138L23.8052 24.817C23.6802 23.7614 23.3152 22.7984 22.7103 21.9414L22.0375 22.4163ZM22.9873 24.9138V24.0902H19.4909V24.9138V25.7373H22.9873V24.9138ZM19.4909 24.9138L20.2928 24.7264C20.1171 23.9744 19.7336 23.3432 19.1304 22.8832L18.6311 23.5381L18.1317 24.193C18.402 24.399 18.5917 24.6849 18.6889 25.1011L19.4909 24.9138ZM18.6311 23.5381L19.1304 22.8832C18.5264 22.4227 17.8019 22.2151 17.0097 22.2151V23.0386V23.8621C17.5058 23.8621 17.8623 23.9875 18.1317 24.193L18.6311 23.5381ZM17.0097 23.0386V22.2151C15.6234 22.2151 14.5275 22.8465 13.8135 24.0409L14.5204 24.4634L15.2273 24.8859C15.6489 24.1806 16.2125 23.8621 17.0097 23.8621V23.0386ZM14.5204 24.4634L13.8118 24.0439C13.148 25.1653 12.8486 26.6181 12.8371 28.3311L13.6606 28.3366L14.4841 28.3421C14.4945 26.7906 14.7683 25.6613 15.2291 24.8829L14.5204 24.4634ZM13.6606 28.3366V29.1601H13.7753V28.3366V27.513H13.6606V28.3366ZM13.7753 28.3366L14.5102 28.7081C14.7103 28.3124 14.9767 27.9799 15.313 27.704L14.7906 27.0673L14.2683 26.4307C13.753 26.8535 13.3425 27.3672 13.0403 27.965L13.7753 28.3366ZM14.7906 27.0673L15.3139 27.7033C15.666 27.4136 16.0665 27.1911 16.5215 27.0364L16.2564 26.2567L15.9913 25.477C15.3545 25.6935 14.7778 26.0114 14.2674 26.4314L14.7906 27.0673ZM16.2564 26.2567L16.526 27.0348C16.9866 26.8752 17.4765 26.7936 18.0005 26.7936V25.9701V25.1466C17.3018 25.1466 16.6289 25.256 15.9867 25.4786L16.2564 26.2567ZM18.0005 25.9701V26.7936C18.8586 26.7936 19.5927 26.9946 20.227 27.3787L20.6536 26.6743L21.0802 25.9699C20.1642 25.4151 19.1295 25.1466 18.0005 25.1466V25.9701ZM20.6536 26.6743L20.2306 27.3809C20.8771 27.7679 21.387 28.2982 21.7664 28.9875L22.4878 28.5904L23.2093 28.1933C22.6934 27.2559 21.9805 26.5088 21.0766 25.9677L20.6536 26.6743ZM22.4878 28.5904L21.7664 28.9875C22.1388 29.6642 22.3358 30.4552 22.3358 31.3827H23.1593H23.9828C23.9828 30.2139 23.7322 29.1434 23.2093 28.1933L22.4878 28.5904ZM23.1593 31.3827H22.3358C22.3358 32.3847 22.1038 33.2456 21.6585 33.9894L22.365 34.4124L23.0716 34.8355C23.6853 33.8105 23.9828 32.6516 23.9828 31.3827H23.1593ZM22.365 34.4124L21.6565 33.9926C21.2127 34.7415 20.5923 35.3309 19.7756 35.7652L20.1623 36.4923L20.549 37.2194C21.6211 36.6493 22.4692 35.8521 23.0735 34.8323L22.365 34.4124ZM20.1623 36.4923L19.7772 35.7644C18.977 36.1877 18.023 36.4107 16.8905 36.4058L16.8869 37.2293L16.8833 38.0528C18.2401 38.0588 19.4697 37.7904 20.5474 37.2202L20.1623 36.4923ZM16.8705 34.4452V35.2687C17.5545 35.2687 18.1932 35.1027 18.7639 34.7559L18.3363 34.0521L17.9086 33.3483C17.6168 33.5257 17.2784 33.6217 16.8705 33.6217V34.4452ZM18.3363 34.0521L18.7639 34.7559C19.3201 34.418 19.7594 33.9565 20.0736 33.3838L19.3516 32.9876L18.6297 32.5914C18.4526 32.9141 18.215 33.1622 17.9086 33.3483L18.3363 34.0521ZM19.3516 32.9876L20.0736 33.3838C20.3918 32.804 20.5437 32.1634 20.5437 31.4809H19.7201H18.8966C18.8966 31.9121 18.8028 32.276 18.6297 32.5914L19.3516 32.9876ZM19.7201 31.4809H20.5437C20.5437 30.7986 20.3918 30.1591 20.0715 29.5825L19.3516 29.9825L18.6318 30.3824C18.8028 30.6902 18.8966 31.0496 18.8966 31.4809H19.7201ZM19.3516 29.9825L20.0753 29.5894C19.7668 29.0215 19.3335 28.5628 18.7843 28.2248L18.3526 28.9261L17.921 29.6275C18.2234 29.8136 18.4561 30.059 18.628 30.3755L19.3516 29.9825ZM18.3526 28.9261L18.7843 28.2248C18.2168 27.8756 17.5789 27.7096 16.8951 27.7096V28.5331V29.3566C17.3031 29.3566 17.6368 29.4526 17.921 29.6275L18.3526 28.9261ZM16.8951 28.5331V27.7096C16.3805 27.7096 15.8878 27.8062 15.4268 28.0079L15.7569 28.7624L16.087 29.5168C16.3248 29.4128 16.5908 29.3566 16.8951 29.3566V28.5331ZM15.7569 28.7624L15.4224 28.0098C14.9804 28.2063 14.5894 28.4812 14.2539 28.8307L14.848 29.4011L15.4421 29.9714C15.6306 29.775 15.8455 29.6242 16.0914 29.5149L15.7569 28.7624ZM14.848 29.4011L14.2479 28.837C13.9196 29.1863 13.6638 29.5892 13.4798 30.0391L14.242 30.3509L15.0042 30.6628C15.115 30.392 15.2632 30.1618 15.448 29.9651L14.848 29.4011ZM14.242 30.3509L13.4815 30.035C13.2904 30.4951 13.1974 30.9824 13.1974 31.4891H14.0209H14.8445C14.8445 31.1879 14.8989 30.9165 15.0025 30.6668L14.242 30.3509ZM14.0209 31.4891H13.1974C13.1974 32.1597 13.3513 32.7913 13.6675 33.3675L14.3894 32.9713L15.1114 32.5751C14.9363 32.256 14.8445 31.8994 14.8445 31.4891H14.0209ZM14.3894 32.9713L13.6712 33.3742C13.9882 33.9392 14.4219 34.399 14.9667 34.7413L15.4048 34.044L15.8429 33.3466C15.5361 33.1539 15.2929 32.8986 15.1076 32.5683L14.3894 32.9713ZM15.4048 34.044L14.9707 34.7438C15.5422 35.0983 16.1833 35.2687 16.8705 35.2687V34.4452V33.6217C16.4659 33.6217 16.1299 33.5246 15.8389 33.3441L15.4048 34.044ZM35.9661 34.6745L35.3843 35.2573L35.9655 35.8375L36.5473 35.2579L35.9661 34.6745ZM26.1809 24.9056L25.5952 24.3266L25.019 24.9094L25.599 25.4884L26.1809 24.9056ZM28.3262 22.7356L28.9086 22.1533L28.3229 21.5677L27.7406 22.1566L28.3262 22.7356ZM38.1197 32.5291L38.7009 33.1125L39.2855 32.5302L38.702 31.9468L38.1197 32.5291ZM28.3262 34.6745L27.7439 35.2568L28.3255 35.8384L28.9078 35.2575L28.3262 34.6745ZM26.1809 32.5291L25.5983 31.947L25.0165 32.5293L25.5985 33.1114L26.1809 32.5291ZM35.9661 22.7356L36.5506 22.1555L35.9681 21.5685L35.3836 22.1535L35.9661 22.7356ZM38.1197 24.9056L38.7013 25.4886L39.2829 24.9085L38.7042 24.3255L38.1197 24.9056ZM35.9661 34.6745L36.548 34.0917L26.7627 24.3228L26.1809 24.9056L25.599 25.4884L35.3843 35.2573L35.9661 34.6745ZM26.1809 24.9056L26.7665 25.4846L28.9119 23.3146L28.3262 22.7356L27.7406 22.1566L25.5952 24.3266L26.1809 24.9056ZM28.3262 22.7356L27.7439 23.3179L37.5374 33.1114L38.1197 32.5291L38.702 31.9468L28.9086 22.1533L28.3262 22.7356ZM38.1197 32.5291L37.5385 31.9456L35.3849 34.091L35.9661 34.6745L36.5473 35.2579L38.7009 33.1125L38.1197 32.5291ZM28.3262 34.6745L28.9086 34.0921L26.7632 31.9468L26.1809 32.5291L25.5985 33.1114L27.7439 35.2568L28.3262 34.6745ZM26.1809 32.5291L26.7634 33.1112L36.5487 23.3177L35.9661 22.7356L35.3836 22.1535L25.5983 31.947L26.1809 32.5291ZM35.9661 22.7356L35.3816 23.3157L37.5352 25.4857L38.1197 24.9056L38.7042 24.3255L36.5506 22.1555L35.9661 22.7356ZM38.1197 24.9056L37.5381 24.3225L27.7447 34.0914L28.3262 34.6745L28.9078 35.2575L38.7013 25.4886L38.1197 24.9056ZM41.0921 34.0521H40.2686V34.8757H41.0921V34.0521ZM41.0921 31.2599L40.3968 30.8185L40.2686 31.0206V31.2599H41.0921ZM48.0933 20.2299V19.4064H47.6406L47.398 19.7886L48.0933 20.2299ZM50.5007 20.2299H51.3242V19.4064H50.5007V20.2299ZM50.5007 24.0949V24.9184H51.3242V24.0949H50.5007ZM49.0759 24.0949V23.2714H48.6221L48.3797 23.655L49.0759 24.0949ZM44.6623 31.0797L43.9661 30.6398L43.8388 30.8413V31.0797H44.6623ZM44.6623 31.2107H43.8388V32.0343H44.6623V31.2107ZM54.6113 31.2107H55.4349V30.3872H54.6113V31.2107ZM54.6113 34.0521V34.8757H55.4349V34.0521H54.6113ZM49.1414 37H48.3179V37.8235H49.1414V37ZM49.1414 33.2005L48.319 33.157L48.3179 33.1787V33.2005H49.1414ZM49.2069 31.9641L50.0293 32.0076L50.0305 31.9859V31.9641H49.2069ZM49.2069 20.2299V19.4064H48.3834V20.2299H49.2069ZM52.5315 20.2299H53.355V19.4064H52.5315V20.2299ZM52.5315 37V37.8235H53.355V37H52.5315ZM41.0921 34.0521H41.9156V31.2599H41.0921H40.2686V34.0521H41.0921ZM41.0921 31.2599L41.7874 31.7012L48.7886 20.6713L48.0933 20.2299L47.398 19.7886L40.3968 30.8185L41.0921 31.2599ZM48.0933 20.2299V21.0535H50.5007V20.2299V19.4064H48.0933V20.2299ZM50.5007 20.2299H49.6772V24.0949H50.5007H51.3242V20.2299H50.5007ZM50.5007 24.0949V23.2714H49.0759V24.0949V24.9184H50.5007V24.0949ZM49.0759 24.0949L48.3797 23.655L43.9661 30.6398L44.6623 31.0797L45.3585 31.5196L49.7721 24.5348L49.0759 24.0949ZM44.6623 31.0797H43.8388V31.2107H44.6623H45.4858V31.0797H44.6623ZM44.6623 31.2107V32.0343H54.6113V31.2107V30.3872H44.6623V31.2107ZM54.6113 31.2107H53.7878V34.0521H54.6113H55.4349V31.2107H54.6113ZM54.6113 34.0521V33.2286H41.0921V34.0521V34.8757H54.6113V34.0521ZM49.1414 37H49.9649V33.2005H49.1414H48.3179V37H49.1414ZM49.1414 33.2005L49.9638 33.2441L50.0293 32.0076L49.2069 31.9641L48.3846 31.9205L48.319 33.157L49.1414 33.2005ZM49.2069 31.9641H50.0305V20.2299H49.2069H48.3834V31.9641H49.2069ZM49.2069 20.2299V21.0535H52.5315V20.2299V19.4064H49.2069V20.2299ZM52.5315 20.2299H51.7079V37H52.5315H53.355V20.2299H52.5315ZM52.5315 37V36.1765H49.1414V37V37.8235H52.5315V37Z" fill="#2B3F46" mask="url(#path-33-outside-1_2025_1624)"/>
<defs>
<linearGradient id="paint0_linear_2025_1624" x1="35.8411" y1="35.864" x2="-1.88188" y2="2.08424" gradientUnits="userSpaceOnUse">
<stop stop-color="#FFD5EF"/>
<stop offset="1" stop-color="#EFBDFD"/>
</linearGradient>
<linearGradient id="paint1_linear_2025_1624" x1="26.8809" y1="4.483" x2="25.174" y2="-4.68761" gradientUnits="userSpaceOnUse">
<stop stop-color="#F95457"/>
<stop offset="1" stop-color="#FDBDCB"/>
</linearGradient>
<linearGradient id="paint2_linear_2025_1624" x1="26.8809" y1="4.483" x2="25.174" y2="-4.68761" gradientUnits="userSpaceOnUse">
<stop stop-color="#F95457"/>
<stop offset="1" stop-color="#FDBDCB"/>
</linearGradient>
<linearGradient id="paint3_linear_2025_1624" x1="4.71795" y1="43.6522" x2="1.80375" y2="43.0282" gradientUnits="userSpaceOnUse">
<stop stop-color="#F95457"/>
<stop offset="1" stop-color="#FDBDCB"/>
</linearGradient>
<linearGradient id="paint4_linear_2025_1624" x1="35.7669" y1="58.0257" x2="30.2155" y2="50.8928" gradientUnits="userSpaceOnUse">
<stop stop-color="#F95457"/>
<stop offset="1" stop-color="#FDBDCB"/>
</linearGradient>
<linearGradient id="paint5_linear_2025_1624" x1="60.6657" y1="43.6522" x2="57.7515" y2="43.0282" gradientUnits="userSpaceOnUse">
<stop stop-color="#F95457"/>
<stop offset="1" stop-color="#FDBDCB"/>
</linearGradient>
<linearGradient id="paint6_linear_2025_1624" x1="-1.09962e-05" y1="-0.0328651" x2="30.641" y2="-4.05264" gradientUnits="userSpaceOnUse">
<stop stop-color="#D74446"/>
<stop offset="1" stop-color="#E165B8"/>
</linearGradient>
<linearGradient id="paint7_linear_2025_1624" x1="-1.11276e-05" y1="-0.033258" x2="31.0073" y2="-4.10108" gradientUnits="userSpaceOnUse">
<stop stop-color="#D74446"/>
<stop offset="1" stop-color="#E165B8"/>
</linearGradient>
<linearGradient id="paint8_linear_2025_1624" x1="-8.34573e-06" y1="-0.00415724" x2="14.606" y2="-11.5011" gradientUnits="userSpaceOnUse">
<stop stop-color="#D1369D"/>
<stop offset="1" stop-color="#B31E20"/>
</linearGradient>
<linearGradient id="paint9_linear_2025_1624" x1="-8.34573e-06" y1="-0.00415724" x2="14.606" y2="-11.5011" gradientUnits="userSpaceOnUse">
<stop stop-color="#D74446"/>
<stop offset="1" stop-color="#E165B8"/>
</linearGradient>
<linearGradient id="paint10_linear_2025_1624" x1="2.32056" y1="36.6188" x2="3.73346" y2="36.5744" gradientUnits="userSpaceOnUse">
<stop stop-color="#D74446"/>
<stop offset="1" stop-color="#D1369D"/>
</linearGradient>
<linearGradient id="paint11_linear_2025_1624" x1="27.5452" y1="52.5135" x2="34.1403" y2="51.2721" gradientUnits="userSpaceOnUse">
<stop stop-color="#B31E20"/>
<stop offset="1" stop-color="#D74446"/>
</linearGradient>
<linearGradient id="paint12_linear_2025_1624" x1="59.0066" y1="36.6188" x2="60.4195" y2="36.5744" gradientUnits="userSpaceOnUse">
<stop stop-color="#E165B8"/>
<stop offset="1" stop-color="#D74446"/>
</linearGradient>
<clipPath id="clip0_2025_1624">
<rect width="35.8992" height="35.8992" rx="4.44179" transform="matrix(0.866025 0.5 -0.866025 0.5 31.9104 19)" fill="white"/>
</clipPath>
<clipPath id="clip1_2025_1624">
<rect width="36.3731" height="36.3731" rx="4.50041" transform="matrix(0.866025 0.5 -0.866025 0.5 31.5 18.4604)" fill="white"/>
</clipPath>
</defs>
</svg>
