<svg width="64" height="64" viewBox="0 0 64 64" fill="none" xmlns="http://www.w3.org/2000/svg">
<path d="M4.4006 33.9298C3.80774 33.582 3.47546 33.1136 3.47547 32.6257L3.47547 30.5016C3.47547 29.9566 3.88975 29.439 4.60873 29.0857L30.1348 16.5442C31.3579 15.9433 33.1609 15.9544 34.3614 16.5703L60.0608 29.7535C60.7487 30.1064 61.1422 30.6122 61.1422 31.1434V32.5436C61.1422 33.0309 60.8108 33.4987 60.2194 33.8464L34.5631 48.9278C33.3018 49.6692 31.2326 49.6699 29.9699 48.9292L4.4006 33.9298Z" fill="url(#paint0_linear_84_1408)"/>
<rect width="34.7831" height="34.7831" rx="2.62954" transform="matrix(0.866044 -0.499967 0.866044 0.499967 2.14404 30.3906)" fill="white"/>
<rect width="10.8697" height="10.8697" transform="matrix(0.866044 -0.499967 0.866044 0.499967 12.2639 30.3906)" fill="#D9D9D9"/>
<rect width="10.8697" height="10.8697" transform="matrix(0.866044 -0.499967 0.866044 0.499967 22.8542 24.2769)" fill="#D9D9D9"/>
<rect width="10.8697" height="10.8697" transform="matrix(0.866044 -0.499967 0.866044 0.499967 22.8542 36.5044)" fill="#D9D9D9"/>
<rect width="10.8697" height="10.8697" transform="matrix(0.866044 -0.499967 0.866044 0.499967 33.4446 30.3906)" fill="#D9D9D9"/>
<mask id="path-7-outside-1_84_1408" maskUnits="userSpaceOnUse" x="18" y="23" width="28" height="14" fill="black">
<rect fill="white" x="18" y="23" width="28" height="14"/>
<path d="M19.9345 32.9092V31.8936L24.4149 24.8048H25.1516V26.3779H24.6538L21.2687 31.7343V31.814H27.3022V32.9092H19.9345ZM24.7335 35V32.6005V32.1276V24.8048H25.9083V35H24.7335ZM35.1614 33.168L29.5461 27.5527L30.3028 26.796L35.9181 32.4114L35.1614 33.168ZM30.3028 33.168L29.5461 32.4114L35.1614 26.796L35.9181 27.5527L30.3028 33.168ZM41.5945 35.1394C41.0103 35.1394 40.4843 35.0232 40.0164 34.7909C39.5484 34.5586 39.1734 34.24 38.8913 33.8351C38.6092 33.4302 38.4549 32.9689 38.4284 32.4512H39.6231C39.6696 32.9125 39.8787 33.2942 40.2504 33.5962C40.6254 33.8949 41.0734 34.0442 41.5945 34.0442C42.0126 34.0442 42.3843 33.9463 42.7096 33.7505C43.0381 33.5547 43.2953 33.2859 43.4812 32.944C43.6703 32.5989 43.7649 32.2089 43.7649 31.7742C43.7649 31.3294 43.667 30.9329 43.4712 30.5844C43.2787 30.2326 43.0132 29.9555 42.6747 29.753C42.3362 29.5506 41.9496 29.4477 41.5148 29.4444C41.2028 29.4411 40.8826 29.4892 40.554 29.5888C40.2255 29.685 39.955 29.8095 39.7426 29.9621L38.5877 29.8227L39.2049 24.8048H44.5017V25.8999H40.2404L39.882 28.9067H39.9417C40.1508 28.7408 40.413 28.6031 40.7283 28.4936C41.0435 28.384 41.3721 28.3293 41.7139 28.3293C42.3379 28.3293 42.8937 28.4786 43.3816 28.7773C43.8728 29.0727 44.2578 29.4776 44.5365 29.992C44.8186 30.5064 44.9597 31.0938 44.9597 31.7542C44.9597 32.4047 44.8137 32.9855 44.5216 33.4966C44.2329 34.0044 43.8346 34.4059 43.3268 34.7013C42.8191 34.9934 42.2416 35.1394 41.5945 35.1394Z"/>
</mask>
<path d="M19.9345 32.9092V31.8936L24.4149 24.8048H25.1516V26.3779H24.6538L21.2687 31.7343V31.814H27.3022V32.9092H19.9345ZM24.7335 35V32.6005V32.1276V24.8048H25.9083V35H24.7335ZM35.1614 33.168L29.5461 27.5527L30.3028 26.796L35.9181 32.4114L35.1614 33.168ZM30.3028 33.168L29.5461 32.4114L35.1614 26.796L35.9181 27.5527L30.3028 33.168ZM41.5945 35.1394C41.0103 35.1394 40.4843 35.0232 40.0164 34.7909C39.5484 34.5586 39.1734 34.24 38.8913 33.8351C38.6092 33.4302 38.4549 32.9689 38.4284 32.4512H39.6231C39.6696 32.9125 39.8787 33.2942 40.2504 33.5962C40.6254 33.8949 41.0734 34.0442 41.5945 34.0442C42.0126 34.0442 42.3843 33.9463 42.7096 33.7505C43.0381 33.5547 43.2953 33.2859 43.4812 32.944C43.6703 32.5989 43.7649 32.2089 43.7649 31.7742C43.7649 31.3294 43.667 30.9329 43.4712 30.5844C43.2787 30.2326 43.0132 29.9555 42.6747 29.753C42.3362 29.5506 41.9496 29.4477 41.5148 29.4444C41.2028 29.4411 40.8826 29.4892 40.554 29.5888C40.2255 29.685 39.955 29.8095 39.7426 29.9621L38.5877 29.8227L39.2049 24.8048H44.5017V25.8999H40.2404L39.882 28.9067H39.9417C40.1508 28.7408 40.413 28.6031 40.7283 28.4936C41.0435 28.384 41.3721 28.3293 41.7139 28.3293C42.3379 28.3293 42.8937 28.4786 43.3816 28.7773C43.8728 29.0727 44.2578 29.4776 44.5365 29.992C44.8186 30.5064 44.9597 31.0938 44.9597 31.7542C44.9597 32.4047 44.8137 32.9855 44.5216 33.4966C44.2329 34.0044 43.8346 34.4059 43.3268 34.7013C42.8191 34.9934 42.2416 35.1394 41.5945 35.1394Z" fill="#00C1FF"/>
<path d="M19.9345 32.9092H18.9345V33.9092H19.9345V32.9092ZM19.9345 31.8936L19.0892 31.3594L18.9345 31.6041V31.8936H19.9345ZM24.4149 24.8048V23.8048H23.8639L23.5695 24.2705L24.4149 24.8048ZM25.1516 24.8048H26.1516V23.8048H25.1516V24.8048ZM25.1516 26.3779V27.3779H26.1516V26.3779H25.1516ZM24.6538 26.3779V25.3779H24.1028L23.8085 25.8436L24.6538 26.3779ZM21.2687 31.7343L20.4233 31.2001L20.2687 31.4448V31.7343H21.2687ZM21.2687 31.814H20.2687V32.814H21.2687V31.814ZM27.3022 31.814H28.3022V30.814H27.3022V31.814ZM27.3022 32.9092V33.9092H28.3022V32.9092H27.3022ZM24.7335 35H23.7335V36H24.7335V35ZM24.7335 24.8048V23.8048H23.7335V24.8048H24.7335ZM25.9083 24.8048H26.9083V23.8048H25.9083V24.8048ZM25.9083 35V36H26.9083V35H25.9083ZM20.9345 32.9092V31.8936H18.9345V32.9092H20.9345ZM20.7799 32.4279L25.2602 25.339L23.5695 24.2705L19.0892 31.3594L20.7799 32.4279ZM24.4149 25.8048H25.1516V23.8048H24.4149V25.8048ZM24.1516 24.8048V26.3779H26.1516V24.8048H24.1516ZM25.1516 25.3779H24.6538V27.3779H25.1516V25.3779ZM23.8085 25.8436L20.4233 31.2001L22.114 32.2686L25.4992 26.9121L23.8085 25.8436ZM20.2687 31.7343V31.814H22.2687V31.7343H20.2687ZM21.2687 32.814H27.3022V30.814H21.2687V32.814ZM26.3022 31.814V32.9092H28.3022V31.814H26.3022ZM27.3022 31.9092H19.9345V33.9092H27.3022V31.9092ZM25.7335 35V32.6005H23.7335V35H25.7335ZM25.7335 32.6005V32.1276H23.7335V32.6005H25.7335ZM25.7335 32.1276V24.8048H23.7335V32.1276H25.7335ZM24.7335 25.8048H25.9083V23.8048H24.7335V25.8048ZM24.9083 24.8048V35H26.9083V24.8048H24.9083ZM25.9083 34H24.7335V36H25.9083V34ZM35.1614 33.168L34.4543 33.8751L35.1614 34.5823L35.8685 33.8751L35.1614 33.168ZM29.5461 27.5527L28.839 26.8456L28.1319 27.5527L28.839 28.2598L29.5461 27.5527ZM30.3028 26.796L31.0099 26.0889L30.3028 25.3818L29.5957 26.0889L30.3028 26.796ZM35.9181 32.4114L36.6252 33.1185L37.3323 32.4114L36.6252 31.7043L35.9181 32.4114ZM30.3028 33.168L29.5957 33.8751L30.3028 34.5823L31.0099 33.8751L30.3028 33.168ZM29.5461 32.4114L28.839 31.7043L28.1319 32.4114L28.839 33.1185L29.5461 32.4114ZM35.1614 26.796L35.8685 26.0889L35.1614 25.3818L34.4543 26.0889L35.1614 26.796ZM35.9181 27.5527L36.6252 28.2598L37.3323 27.5527L36.6252 26.8456L35.9181 27.5527ZM35.8685 32.4609L30.2532 26.8456L28.839 28.2598L34.4543 33.8751L35.8685 32.4609ZM30.2532 28.2598L31.0099 27.5031L29.5957 26.0889L28.839 26.8456L30.2532 28.2598ZM29.5957 27.5031L35.211 33.1185L36.6252 31.7043L31.0099 26.0889L29.5957 27.5031ZM35.211 31.7043L34.4543 32.4609L35.8685 33.8751L36.6252 33.1185L35.211 31.7043ZM31.0099 32.4609L30.2532 31.7043L28.839 33.1185L29.5957 33.8751L31.0099 32.4609ZM30.2532 33.1185L35.8685 27.5031L34.4543 26.0889L28.839 31.7043L30.2532 33.1185ZM34.4543 27.5031L35.211 28.2598L36.6252 26.8456L35.8685 26.0889L34.4543 27.5031ZM35.211 26.8456L29.5957 32.4609L31.0099 33.8751L36.6252 28.2598L35.211 26.8456ZM40.0164 34.7909L39.5717 35.6866L39.5717 35.6866L40.0164 34.7909ZM38.8913 33.8351L39.7118 33.2635L39.7118 33.2635L38.8913 33.8351ZM38.4284 32.4512V31.4512H37.3758L37.4297 32.5024L38.4284 32.4512ZM39.6231 32.4512L40.6181 32.351L40.5274 31.4512H39.6231V32.4512ZM40.2504 33.5962L39.6197 34.3723L39.6273 34.3784L40.2504 33.5962ZM42.7096 33.7505L42.1976 32.8915L42.1938 32.8938L42.7096 33.7505ZM43.4812 32.944L42.6042 32.4634L42.6026 32.4664L43.4812 32.944ZM43.4712 30.5844L42.5939 31.0644L42.5994 31.0743L43.4712 30.5844ZM41.5148 29.4444L41.5042 30.4443L41.5072 30.4444L41.5148 29.4444ZM40.554 29.5888L40.8351 30.5485L40.844 30.5458L40.554 29.5888ZM39.7426 29.9621L39.6228 30.9549L40.0097 31.0016L40.3262 30.7741L39.7426 29.9621ZM38.5877 29.8227L37.5951 29.7006L37.4728 30.6954L38.4678 30.8155L38.5877 29.8227ZM39.2049 24.8048V23.8048H38.3204L38.2124 24.6827L39.2049 24.8048ZM44.5017 24.8048H45.5017V23.8048H44.5017V24.8048ZM44.5017 25.8999V26.8999H45.5017V25.8999H44.5017ZM40.2404 25.8999V24.8999H39.3525L39.2474 25.7816L40.2404 25.8999ZM39.882 28.9067L38.889 28.7884L38.7557 29.9067H39.882V28.9067ZM39.9417 28.9067V29.9067H40.2903L40.5634 29.69L39.9417 28.9067ZM43.3816 28.7773L42.8594 29.6302L42.8663 29.6343L43.3816 28.7773ZM44.5365 29.992L43.6573 30.4685L43.6597 30.4728L44.5365 29.992ZM44.5216 33.4966L43.6534 33.0005L43.6523 33.0023L44.5216 33.4966ZM43.3268 34.7013L43.8254 35.5682L43.8297 35.5657L43.3268 34.7013ZM41.5945 34.1394C41.1462 34.1394 40.7752 34.0512 40.4611 33.8952L39.5717 35.6866C40.1934 35.9953 40.8745 36.1394 41.5945 36.1394V34.1394ZM40.4611 33.8952C40.1345 33.7331 39.8922 33.5223 39.7118 33.2635L38.0708 34.4068C38.4546 34.9577 38.9624 35.3841 39.5717 35.6866L40.4611 33.8952ZM39.7118 33.2635C39.5421 33.0199 39.4445 32.7409 39.427 32.4L37.4297 32.5024C37.4653 33.197 37.6763 33.8405 38.0708 34.4068L39.7118 33.2635ZM38.4284 33.4512H39.6231V31.4512H38.4284V33.4512ZM38.6281 32.5514C38.7022 33.2871 39.0491 33.9086 39.6198 34.3723L40.8809 32.82C40.7082 32.6797 40.6369 32.5379 40.6181 32.351L38.6281 32.5514ZM39.6273 34.3784C40.1951 34.8306 40.868 35.0442 41.5945 35.0442V33.0442C41.2788 33.0442 41.0556 32.9591 40.8734 32.8139L39.6273 34.3784ZM41.5945 35.0442C42.1754 35.0442 42.7289 34.9061 43.2253 34.6072L42.1938 32.8938C42.0398 32.9865 41.8499 33.0442 41.5945 33.0442V35.0442ZM43.2215 34.6095C43.7071 34.3201 44.0897 33.9184 44.3597 33.4217L42.6026 32.4664C42.501 32.6533 42.3692 32.7892 42.1976 32.8915L43.2215 34.6095ZM44.3581 33.4246C44.6362 32.9172 44.7649 32.359 44.7649 31.7742H42.7649C42.7649 32.0589 42.7045 32.2806 42.6042 32.4634L44.3581 33.4246ZM44.7649 31.7742C44.7649 31.1776 44.632 30.6089 44.343 30.0945L42.5994 31.0743C42.702 31.2568 42.7649 31.4813 42.7649 31.7742H44.7649ZM44.3485 30.1044C44.072 29.5991 43.682 29.1902 43.188 28.8948L42.1615 30.6113C42.3445 30.7207 42.4855 30.8661 42.594 31.0644L44.3485 30.1044ZM43.188 28.8948C42.6812 28.5918 42.1166 28.449 41.5224 28.4444L41.5072 30.4444C41.7825 30.4465 41.9912 30.5094 42.1615 30.6113L43.188 28.8948ZM41.5254 28.4444C41.102 28.4399 40.6803 28.5056 40.264 28.6317L40.844 30.5458C41.0848 30.4728 41.3037 30.4422 41.5042 30.4443L41.5254 28.4444ZM40.2729 28.6291C39.8675 28.7478 39.4865 28.9147 39.1589 29.1501L40.3262 30.7741C40.4234 30.7043 40.5834 30.6222 40.8351 30.5484L40.2729 28.6291ZM39.8624 28.9693L38.7075 28.8299L38.4678 30.8155L39.6228 30.9549L39.8624 28.9693ZM39.5802 29.9448L40.1975 24.9269L38.2124 24.6827L37.5951 29.7006L39.5802 29.9448ZM39.2049 25.8048H44.5017V23.8048H39.2049V25.8048ZM43.5017 24.8048V25.8999H45.5017V24.8048H43.5017ZM44.5017 24.8999H40.2404V26.8999H44.5017V24.8999ZM39.2474 25.7816L38.889 28.7884L40.8749 29.0251L41.2334 26.0183L39.2474 25.7816ZM39.882 29.9067H39.9417V27.9067H39.882V29.9067ZM40.5634 29.69C40.6655 29.609 40.8218 29.5197 41.0564 29.4382L40.4001 27.5489C40.0041 27.6865 39.6361 27.8726 39.32 28.1235L40.5634 29.69ZM41.0564 29.4382C41.2636 29.3662 41.4811 29.3293 41.7139 29.3293V27.3293C41.2631 27.3293 40.8235 27.4019 40.4001 27.5489L41.0564 29.4382ZM41.7139 29.3293C42.1709 29.3293 42.5429 29.4364 42.8595 29.6302L43.9038 27.9245C43.2446 27.5209 42.5048 27.3293 41.7139 27.3293V29.3293ZM42.8663 29.6343C43.201 29.8356 43.4618 30.1077 43.6573 30.4685L45.4157 29.5155C45.0537 28.8475 44.5445 28.3098 43.897 27.9203L42.8663 29.6343ZM43.6597 30.4728C43.8513 30.8221 43.9597 31.2404 43.9597 31.7542H45.9597C45.9597 30.9472 45.786 30.1907 45.4133 29.5112L43.6597 30.4728ZM43.9597 31.7542C43.9597 32.2494 43.8502 32.6559 43.6534 33.0005L45.3898 33.9927C45.7771 33.3151 45.9597 32.56 45.9597 31.7542H43.9597ZM43.6523 33.0023C43.4514 33.3556 43.18 33.6298 42.824 33.8369L43.8297 35.5657C44.4892 35.182 45.0143 34.6532 45.3909 33.9909L43.6523 33.0023ZM42.8283 33.8345C42.4877 34.0304 42.0854 34.1394 41.5945 34.1394V36.1394C42.3978 36.1394 43.1505 35.9564 43.8254 35.5682L42.8283 33.8345Z" fill="#2F5764" mask="url(#path-7-outside-1_84_1408)"/>
<defs>
<linearGradient id="paint0_linear_84_1408" x1="3.72513" y1="32.3054" x2="33.5154" y2="49.1976" gradientUnits="userSpaceOnUse">
<stop stop-color="#4A4A4A"/>
<stop offset="1" stop-color="#303030"/>
</linearGradient>
</defs>
</svg>
