<svg width="64" height="64" viewBox="0 0 64 64" fill="none" xmlns="http://www.w3.org/2000/svg">
<path d="M4.4006 33.9298C3.80774 33.582 3.47546 33.1136 3.47547 32.6257L3.47547 30.5016C3.47547 29.9566 3.88975 29.439 4.60873 29.0857L30.1348 16.5442C31.3579 15.9433 33.1609 15.9544 34.3614 16.5703L60.0608 29.7535C60.7487 30.1064 61.1422 30.6122 61.1422 31.1434V32.5436C61.1422 33.0309 60.8108 33.4987 60.2194 33.8464L34.5631 48.9278C33.3018 49.6692 31.2326 49.6699 29.9699 48.9292L4.4006 33.9298Z" fill="url(#paint0_linear_84_1413)"/>
<rect width="34.7831" height="34.7831" rx="2.62954" transform="matrix(0.866044 -0.499967 0.866044 0.499967 2.14404 30.3906)" fill="white"/>
<rect width="10.8697" height="10.8697" transform="matrix(0.866044 -0.499967 0.866044 0.499967 12.2639 30.3906)" fill="#D9D9D9"/>
<rect width="10.8697" height="10.8697" transform="matrix(0.866044 -0.499967 0.866044 0.499967 22.8542 24.2769)" fill="#D9D9D9"/>
<rect width="10.8697" height="10.8697" transform="matrix(0.866044 -0.499967 0.866044 0.499967 22.8542 36.5044)" fill="#D9D9D9"/>
<rect width="10.8697" height="10.8697" transform="matrix(0.866044 -0.499967 0.866044 0.499967 33.4446 30.3906)" fill="#D9D9D9"/>
<mask id="path-7-outside-1_84_1413" maskUnits="userSpaceOnUse" x="18" y="23" width="29" height="14" fill="black">
<rect fill="white" x="18" y="23" width="29" height="14"/>
<path d="M19.825 32.9092V31.8936L24.3053 24.8048H25.0421V26.3779H24.5443L21.1592 31.7343V31.814H27.1927V32.9092H19.825ZM24.624 35V32.6005V32.1276V24.8048H25.7988V35H24.624ZM35.0519 33.168L29.4366 27.5527L30.1933 26.796L35.8086 32.4114L35.0519 33.168ZM30.1933 33.168L29.4366 32.4114L35.0519 26.796L35.8086 27.5527L30.1933 33.168ZM41.6841 35.1394C41.2659 35.1328 40.8477 35.0531 40.4296 34.9004C40.0114 34.7478 39.6297 34.4906 39.2846 34.1288C38.9394 33.7638 38.6623 33.2709 38.4532 32.6503C38.2442 32.0264 38.1396 31.2432 38.1396 30.3006C38.1396 29.3979 38.2242 28.5981 38.3935 27.9012C38.5628 27.2009 38.8084 26.6118 39.1303 26.1339C39.4522 25.6527 39.8405 25.2876 40.2952 25.0387C40.7531 24.7898 41.2692 24.6654 41.8434 24.6654C42.4142 24.6654 42.922 24.7799 43.3667 25.0089C43.8147 25.2345 44.1798 25.5498 44.4619 25.9547C44.744 26.3596 44.9265 26.8259 45.0095 27.3536H43.7948C43.682 26.8956 43.4629 26.5156 43.1377 26.2136C42.8124 25.9116 42.381 25.7606 41.8434 25.7606C41.0535 25.7606 40.4312 26.1041 39.9766 26.791C39.5252 27.478 39.2979 28.4421 39.2945 29.6833H39.3742C39.5601 29.4012 39.7807 29.1606 40.0363 28.9615C40.2952 28.7591 40.5806 28.6031 40.8925 28.4936C41.2045 28.384 41.5347 28.3293 41.8832 28.3293C42.4673 28.3293 43.0016 28.4753 43.4861 28.7674C43.9707 29.0561 44.359 29.456 44.651 29.9671C44.9431 30.4749 45.0891 31.0573 45.0891 31.7144C45.0891 32.345 44.9481 32.9225 44.666 33.4468C44.3839 33.9679 43.9873 34.3827 43.4762 34.6914C42.9684 34.9967 42.371 35.146 41.6841 35.1394ZM41.6841 34.0442C42.1022 34.0442 42.4772 33.9397 42.8091 33.7306C43.1443 33.5215 43.4082 33.2411 43.6006 32.8893C43.7965 32.5375 43.8944 32.1459 43.8944 31.7144C43.8944 31.2929 43.7998 30.9096 43.6106 30.5645C43.4248 30.216 43.1675 29.9389 42.839 29.7331C42.5138 29.5274 42.142 29.4245 41.7239 29.4245C41.4086 29.4245 41.1149 29.4875 40.8428 29.6136C40.5706 29.7364 40.3317 29.9057 40.1259 30.1214C39.9235 30.3371 39.7642 30.5844 39.648 30.8632C39.5318 31.1386 39.4738 31.429 39.4738 31.7343C39.4738 32.1392 39.5683 32.5176 39.7575 32.8694C39.95 33.2211 40.2122 33.5049 40.5441 33.7206C40.8793 33.9363 41.2593 34.0442 41.6841 34.0442Z"/>
</mask>
<path d="M19.825 32.9092V31.8936L24.3053 24.8048H25.0421V26.3779H24.5443L21.1592 31.7343V31.814H27.1927V32.9092H19.825ZM24.624 35V32.6005V32.1276V24.8048H25.7988V35H24.624ZM35.0519 33.168L29.4366 27.5527L30.1933 26.796L35.8086 32.4114L35.0519 33.168ZM30.1933 33.168L29.4366 32.4114L35.0519 26.796L35.8086 27.5527L30.1933 33.168ZM41.6841 35.1394C41.2659 35.1328 40.8477 35.0531 40.4296 34.9004C40.0114 34.7478 39.6297 34.4906 39.2846 34.1288C38.9394 33.7638 38.6623 33.2709 38.4532 32.6503C38.2442 32.0264 38.1396 31.2432 38.1396 30.3006C38.1396 29.3979 38.2242 28.5981 38.3935 27.9012C38.5628 27.2009 38.8084 26.6118 39.1303 26.1339C39.4522 25.6527 39.8405 25.2876 40.2952 25.0387C40.7531 24.7898 41.2692 24.6654 41.8434 24.6654C42.4142 24.6654 42.922 24.7799 43.3667 25.0089C43.8147 25.2345 44.1798 25.5498 44.4619 25.9547C44.744 26.3596 44.9265 26.8259 45.0095 27.3536H43.7948C43.682 26.8956 43.4629 26.5156 43.1377 26.2136C42.8124 25.9116 42.381 25.7606 41.8434 25.7606C41.0535 25.7606 40.4312 26.1041 39.9766 26.791C39.5252 27.478 39.2979 28.4421 39.2945 29.6833H39.3742C39.5601 29.4012 39.7807 29.1606 40.0363 28.9615C40.2952 28.7591 40.5806 28.6031 40.8925 28.4936C41.2045 28.384 41.5347 28.3293 41.8832 28.3293C42.4673 28.3293 43.0016 28.4753 43.4861 28.7674C43.9707 29.0561 44.359 29.456 44.651 29.9671C44.9431 30.4749 45.0891 31.0573 45.0891 31.7144C45.0891 32.345 44.9481 32.9225 44.666 33.4468C44.3839 33.9679 43.9873 34.3827 43.4762 34.6914C42.9684 34.9967 42.371 35.146 41.6841 35.1394ZM41.6841 34.0442C42.1022 34.0442 42.4772 33.9397 42.8091 33.7306C43.1443 33.5215 43.4082 33.2411 43.6006 32.8893C43.7965 32.5375 43.8944 32.1459 43.8944 31.7144C43.8944 31.2929 43.7998 30.9096 43.6106 30.5645C43.4248 30.216 43.1675 29.9389 42.839 29.7331C42.5138 29.5274 42.142 29.4245 41.7239 29.4245C41.4086 29.4245 41.1149 29.4875 40.8428 29.6136C40.5706 29.7364 40.3317 29.9057 40.1259 30.1214C39.9235 30.3371 39.7642 30.5844 39.648 30.8632C39.5318 31.1386 39.4738 31.429 39.4738 31.7343C39.4738 32.1392 39.5683 32.5176 39.7575 32.8694C39.95 33.2211 40.2122 33.5049 40.5441 33.7206C40.8793 33.9363 41.2593 34.0442 41.6841 34.0442Z" fill="#00C1FF"/>
<path d="M19.825 32.9092H18.825V33.9092H19.825V32.9092ZM19.825 31.8936L18.9797 31.3594L18.825 31.6041V31.8936H19.825ZM24.3053 24.8048V23.8048H23.7544L23.46 24.2705L24.3053 24.8048ZM25.0421 24.8048H26.0421V23.8048H25.0421V24.8048ZM25.0421 26.3779V27.3779H26.0421V26.3779H25.0421ZM24.5443 26.3779V25.3779H23.9933L23.699 25.8436L24.5443 26.3779ZM21.1592 31.7343L20.3138 31.2001L20.1592 31.4448V31.7343H21.1592ZM21.1592 31.814H20.1592V32.814H21.1592V31.814ZM27.1927 31.814H28.1927V30.814H27.1927V31.814ZM27.1927 32.9092V33.9092H28.1927V32.9092H27.1927ZM24.624 35H23.624V36H24.624V35ZM24.624 24.8048V23.8048H23.624V24.8048H24.624ZM25.7988 24.8048H26.7988V23.8048H25.7988V24.8048ZM25.7988 35V36H26.7988V35H25.7988ZM20.825 32.9092V31.8936H18.825V32.9092H20.825ZM20.6703 32.4279L25.1507 25.339L23.46 24.2705L18.9797 31.3594L20.6703 32.4279ZM24.3053 25.8048H25.0421V23.8048H24.3053V25.8048ZM24.0421 24.8048V26.3779H26.0421V24.8048H24.0421ZM25.0421 25.3779H24.5443V27.3779H25.0421V25.3779ZM23.699 25.8436L20.3138 31.2001L22.0045 32.2686L25.3896 26.9121L23.699 25.8436ZM20.1592 31.7343V31.814H22.1592V31.7343H20.1592ZM21.1592 32.814H27.1927V30.814H21.1592V32.814ZM26.1927 31.814V32.9092H28.1927V31.814H26.1927ZM27.1927 31.9092H19.825V33.9092H27.1927V31.9092ZM25.624 35V32.6005H23.624V35H25.624ZM25.624 32.6005V32.1276H23.624V32.6005H25.624ZM25.624 32.1276V24.8048H23.624V32.1276H25.624ZM24.624 25.8048H25.7988V23.8048H24.624V25.8048ZM24.7988 24.8048V35H26.7988V24.8048H24.7988ZM25.7988 34H24.624V36H25.7988V34ZM35.0519 33.168L34.3448 33.8751L35.0519 34.5823L35.759 33.8751L35.0519 33.168ZM29.4366 27.5527L28.7295 26.8456L28.0224 27.5527L28.7295 28.2598L29.4366 27.5527ZM30.1933 26.796L30.9004 26.0889L30.1933 25.3818L29.4861 26.0889L30.1933 26.796ZM35.8086 32.4114L36.5157 33.1185L37.2228 32.4114L36.5157 31.7043L35.8086 32.4114ZM30.1933 33.168L29.4861 33.8751L30.1933 34.5823L30.9004 33.8751L30.1933 33.168ZM29.4366 32.4114L28.7295 31.7043L28.0224 32.4114L28.7295 33.1185L29.4366 32.4114ZM35.0519 26.796L35.759 26.0889L35.0519 25.3818L34.3448 26.0889L35.0519 26.796ZM35.8086 27.5527L36.5157 28.2598L37.2228 27.5527L36.5157 26.8456L35.8086 27.5527ZM35.759 32.4609L30.1437 26.8456L28.7295 28.2598L34.3448 33.8751L35.759 32.4609ZM30.1437 28.2598L30.9004 27.5031L29.4861 26.0889L28.7295 26.8456L30.1437 28.2598ZM29.4861 27.5031L35.1015 33.1185L36.5157 31.7043L30.9004 26.0889L29.4861 27.5031ZM35.1015 31.7043L34.3448 32.4609L35.759 33.8751L36.5157 33.1185L35.1015 31.7043ZM30.9004 32.4609L30.1437 31.7043L28.7295 33.1185L29.4861 33.8751L30.9004 32.4609ZM30.1437 33.1185L35.759 27.5031L34.3448 26.0889L28.7295 31.7043L30.1437 33.1185ZM34.3448 27.5031L35.1015 28.2598L36.5157 26.8456L35.759 26.0889L34.3448 27.5031ZM35.1015 26.8456L29.4861 32.4609L30.9004 33.8751L36.5157 28.2598L35.1015 26.8456ZM41.6841 35.1394L41.6682 36.1393L41.6744 36.1393L41.6841 35.1394ZM40.4296 34.9004L40.0866 35.8398L40.0866 35.8398L40.4296 34.9004ZM39.2846 34.1288L38.5579 34.8158L38.5611 34.8191L39.2846 34.1288ZM38.4532 32.6503L37.5051 32.9681L37.5056 32.9696L38.4532 32.6503ZM38.3935 27.9012L39.3653 28.1372L39.3655 28.1361L38.3935 27.9012ZM39.1303 26.1339L39.9597 26.6926L39.9614 26.6899L39.1303 26.1339ZM40.2952 25.0387L39.8176 24.1601L39.815 24.1616L40.2952 25.0387ZM43.3667 25.0089L42.9089 25.898L42.9168 25.902L43.3667 25.0089ZM44.4619 25.9547L45.2824 25.3831L45.2824 25.3831L44.4619 25.9547ZM45.0095 27.3536V28.3536H46.179L45.9973 27.1982L45.0095 27.3536ZM43.7948 27.3536L42.8238 27.5928L43.0113 28.3536H43.7948V27.3536ZM43.1377 26.2136L42.4572 26.9464L42.4572 26.9464L43.1377 26.2136ZM39.9766 26.791L39.1426 26.2391L39.1408 26.2419L39.9766 26.791ZM39.2945 29.6833L38.2946 29.6807L38.2919 30.6833H39.2945V29.6833ZM39.3742 29.6833V30.6833H39.9129L40.2093 30.2335L39.3742 29.6833ZM40.0363 28.9615L40.6509 29.7503L40.6523 29.7492L40.0363 28.9615ZM40.8925 28.4936L40.5613 27.55L40.8925 28.4936ZM43.4861 28.7674L42.9699 29.6238L42.9743 29.6264L43.4861 28.7674ZM44.651 29.9671L43.7828 30.4632L43.7842 30.4657L44.651 29.9671ZM44.666 33.4468L45.5454 33.9229L45.5466 33.9206L44.666 33.4468ZM43.4762 34.6914L43.9915 35.5484L43.9931 35.5474L43.4762 34.6914ZM42.8091 33.7306L42.2799 32.8821L42.2761 32.8845L42.8091 33.7306ZM43.6006 32.8893L42.7269 32.4029L42.7234 32.4093L43.6006 32.8893ZM43.6106 30.5645L42.7282 31.0351L42.7337 31.0451L43.6106 30.5645ZM42.839 29.7331L42.3043 30.5782L42.3082 30.5806L42.839 29.7331ZM40.8428 29.6136L41.2541 30.5252L41.2632 30.521L40.8428 29.6136ZM40.1259 30.1214L39.4023 29.4312L39.3967 29.4371L40.1259 30.1214ZM39.648 30.8632L40.5694 31.2517L40.5711 31.2478L39.648 30.8632ZM39.7575 32.8694L38.8768 33.343L38.8803 33.3494L39.7575 32.8694ZM40.5441 33.7206L39.9991 34.5591L40.0029 34.5615L40.5441 33.7206ZM41.6999 34.1395C41.4004 34.1348 41.0926 34.0779 40.7725 33.9611L40.0866 35.8398C40.6029 36.0283 41.1314 36.1307 41.6682 36.1393L41.6999 34.1395ZM40.7725 33.9611C40.5156 33.8673 40.2604 33.7029 40.0081 33.4385L38.5611 34.8191C38.9991 35.2782 39.5072 35.6283 40.0866 35.8398L40.7725 33.9611ZM40.0112 33.4418C39.7908 33.2087 39.5772 32.8544 39.4009 32.331L37.5056 32.9696C37.7474 33.6874 38.088 34.3188 38.5579 34.8158L40.0112 33.4418ZM39.4014 32.3326C39.238 31.8449 39.1396 31.1778 39.1396 30.3006H37.1396C37.1396 31.3085 37.2503 32.2079 37.5051 32.9681L39.4014 32.3326ZM39.1396 30.3006C39.1396 29.458 39.2189 28.74 39.3653 28.1372L37.4218 27.6652C37.2296 28.4562 37.1396 29.3379 37.1396 30.3006H39.1396ZM39.3655 28.1361C39.5136 27.5236 39.7184 27.0507 39.9597 26.6926L38.3009 25.5752C37.8983 26.1729 37.612 26.8782 37.4215 27.6662L39.3655 28.1361ZM39.9614 26.6899C40.2045 26.3266 40.4776 26.0789 40.7754 25.9159L39.815 24.1616C39.2033 24.4964 38.6999 24.9788 38.2991 25.5779L39.9614 26.6899ZM40.7727 25.9174C41.0696 25.756 41.4187 25.6654 41.8434 25.6654V23.6654C41.1197 23.6654 40.4367 23.8237 39.8176 24.1601L40.7727 25.9174ZM41.8434 25.6654C42.2776 25.6654 42.6246 25.7515 42.9089 25.8979L43.8245 24.1198C43.2193 23.8082 42.5508 23.6654 41.8434 23.6654V25.6654ZM42.9168 25.902C43.2191 26.0542 43.4558 26.2601 43.6414 26.5264L45.2824 25.3831C44.9037 24.8396 44.4103 24.4149 43.8165 24.1158L42.9168 25.902ZM43.6414 26.5264C43.8299 26.7969 43.9602 27.1183 44.0216 27.5089L45.9973 27.1982C45.8928 26.5335 45.6581 25.9223 45.2824 25.3831L43.6414 26.5264ZM45.0095 26.3536H43.7948V28.3536H45.0095V26.3536ZM44.7658 27.1143C44.6093 26.4795 44.2954 25.9239 43.8181 25.4808L42.4572 26.9464C42.6304 27.1072 42.7546 27.3117 42.8238 27.5928L44.7658 27.1143ZM43.8181 25.4808C43.2704 24.9722 42.5771 24.7606 41.8434 24.7606V26.7606C42.1849 26.7606 42.3544 26.8509 42.4572 26.9464L43.8181 25.4808ZM41.8434 24.7606C40.701 24.7606 39.773 25.2868 39.1427 26.2391L40.8105 27.3429C41.0895 26.9214 41.406 26.7606 41.8434 26.7606V24.7606ZM39.1408 26.2419C38.5414 27.1543 38.2981 28.3377 38.2946 29.6807L40.2945 29.686C40.2976 28.5465 40.509 27.8017 40.8123 27.3401L39.1408 26.2419ZM39.2945 30.6833H39.3742V28.6833H39.2945V30.6833ZM40.2093 30.2335C40.3377 30.0385 40.485 29.8796 40.6509 29.7503L39.4216 28.1727C39.0765 28.4417 38.7824 28.764 38.5391 29.1332L40.2093 30.2335ZM40.6523 29.7492C40.8249 29.6143 41.014 29.5108 41.2238 29.4371L40.5613 27.55C40.1472 27.6954 39.7655 27.9038 39.4203 28.1738L40.6523 29.7492ZM41.2238 29.4371C41.4237 29.3669 41.6414 29.3293 41.8832 29.3293V27.3293C41.428 27.3293 40.9853 27.4012 40.5613 27.55L41.2238 29.4371ZM41.8832 29.3293C42.2916 29.3293 42.6464 29.4288 42.9699 29.6238L44.0024 27.9109C43.3568 27.5218 42.643 27.3293 41.8832 27.3293V29.3293ZM42.9743 29.6264C43.3041 29.823 43.5724 30.095 43.7828 30.4632L45.5193 29.471C45.1456 28.817 44.6372 28.2892 43.998 27.9083L42.9743 29.6264ZM43.7842 30.4657C43.9788 30.8039 44.0891 31.2105 44.0891 31.7144H46.0891C46.0891 30.9041 45.9074 30.1458 45.5179 29.4685L43.7842 30.4657ZM44.0891 31.7144C44.0891 32.1897 43.9844 32.6029 43.7853 32.9731L45.5466 33.9206C45.9117 33.242 46.0891 32.5003 46.0891 31.7144H44.0891ZM43.7866 32.9707C43.59 33.3338 43.3191 33.618 42.9592 33.8353L43.9931 35.5474C44.6555 35.1474 45.1778 34.6019 45.5454 33.9229L43.7866 32.9707ZM42.9609 33.8344C42.6354 34.0301 42.2259 34.1446 41.6937 34.1394L41.6744 36.1393C42.5162 36.1475 43.3014 35.9633 43.9915 35.5484L42.9609 33.8344ZM41.6841 35.0442C42.2778 35.0442 42.84 34.893 43.3422 34.5767L42.2761 32.8845C42.1145 32.9863 41.9266 33.0442 41.6841 33.0442V35.0442ZM43.3384 34.579C43.8216 34.2776 44.2043 33.8694 44.4779 33.3693L42.7234 32.4093C42.612 32.6128 42.4671 32.7653 42.2799 32.8821L43.3384 34.579ZM44.4744 33.3756C44.7589 32.8645 44.8944 32.3035 44.8944 31.7144H42.8944C42.8944 31.9882 42.834 32.2105 42.7269 32.4029L44.4744 33.3756ZM44.8944 31.7144C44.8944 31.1372 44.7631 30.5867 44.4875 30.0838L42.7337 31.0451C42.8364 31.2325 42.8944 31.4487 42.8944 31.7144H44.8944ZM44.493 30.0939C44.2265 29.5942 43.8493 29.1859 43.3698 28.8856L42.3082 30.5806C42.4858 30.6918 42.623 30.8378 42.7282 31.0351L44.493 30.0939ZM43.3736 28.888C42.8746 28.5723 42.3143 28.4245 41.7239 28.4245V30.4245C41.9698 30.4245 42.1529 30.4824 42.3043 30.5782L43.3736 28.888ZM41.7239 28.4245C41.271 28.4245 40.8329 28.516 40.4223 28.7063L41.2632 30.521C41.3969 30.459 41.5462 30.4245 41.7239 30.4245V28.4245ZM40.4315 28.7021C40.0421 28.8778 39.6971 29.1222 39.4023 29.4312L40.8495 30.8116C40.9662 30.6892 41.0991 30.5951 41.254 30.5252L40.4315 28.7021ZM39.3967 29.4371C39.1105 29.7421 38.8862 30.0914 38.7249 30.4785L40.5711 31.2478C40.6421 31.0774 40.7365 30.9321 40.8551 30.8057L39.3967 29.4371ZM38.7266 30.4746C38.5574 30.8757 38.4738 31.2985 38.4738 31.7343H40.4738C40.4738 31.5596 40.5062 31.4015 40.5694 31.2517L38.7266 30.4746ZM38.4738 31.7343C38.4738 32.3022 38.6082 32.8435 38.8768 33.343L40.6383 32.3957C40.5285 32.1916 40.4738 31.9763 40.4738 31.7343H38.4738ZM38.8803 33.3494C39.1511 33.8443 39.5266 34.252 39.9991 34.5591L41.0891 32.8822C40.8978 32.7578 40.7489 32.598 40.6348 32.3893L38.8803 33.3494ZM40.0029 34.5615C40.5102 34.888 41.0805 35.0442 41.6841 35.0442V33.0442C41.438 33.0442 41.2483 32.9846 41.0852 32.8797L40.0029 34.5615Z" fill="#2F5764" mask="url(#path-7-outside-1_84_1413)"/>
<defs>
<linearGradient id="paint0_linear_84_1413" x1="3.72513" y1="32.3054" x2="33.5154" y2="49.1976" gradientUnits="userSpaceOnUse">
<stop stop-color="#4A4A4A"/>
<stop offset="1" stop-color="#303030"/>
</linearGradient>
</defs>
</svg>
