<svg width="64" height="64" viewBox="0 0 64 64" fill="none" xmlns="http://www.w3.org/2000/svg">
<rect width="35.8551" height="35.8551" rx="4.37833" transform="matrix(0.866025 0.5 -0.866025 0.5 31.8887 19)" fill="url(#paint0_linear_2025_1294)"/>
<rect width="26.8913" height="4.48189" transform="matrix(0.866025 0.5 0 1 4.71851 39.1685)" fill="url(#paint1_linear_2025_1294)"/>
<rect width="26.8913" height="4.48189" transform="matrix(0.866025 -0.5 0 1 35.7698 52.6143)" fill="url(#paint2_linear_2025_1294)"/>
<path d="M3.11084 36.9277C3.11084 37.8029 3.72524 38.5952 4.71858 39.1687V43.6506C3.72524 43.0771 3.11084 42.2848 3.11084 41.4096V36.9277Z" fill="url(#paint3_linear_2025_1294)"/>
<path d="M28.0071 52.6143C30.1507 53.8519 33.6263 53.8519 35.7699 52.6143V57.0961C33.6263 58.3338 30.1507 58.3338 28.0071 57.0961V52.6143Z" fill="url(#paint4_linear_2025_1294)"/>
<path d="M60.6663 36.9277C60.6663 37.8029 60.0519 38.5952 59.0586 39.1687V43.6506C60.0519 43.0771 60.6663 42.2848 60.6663 41.4096V36.9277Z" fill="url(#paint5_linear_2025_1294)"/>
<g clip-path="url(#clip0_2025_1294)">
<rect width="35.8992" height="35.8992" rx="4.44179" transform="matrix(0.866025 0.5 -0.866025 0.5 31.9104 19)" fill="url(#paint6_linear_2025_1294)"/>
<rect width="11.5594" height="11.5594" transform="matrix(0.866025 0.5 -0.866025 0.5 31.9104 19)" fill="black" fill-opacity="0.1"/>
<rect width="11.5594" height="11.5594" transform="matrix(0.866025 0.5 -0.866025 0.5 21.3711 25.085)" fill="black" fill-opacity="0.1"/>
<rect width="11.5594" height="11.5594" transform="matrix(0.866025 0.5 -0.866025 0.5 21.3711 37.2549)" fill="black" fill-opacity="0.1"/>
<rect width="11.5594" height="11.5594" transform="matrix(0.866025 0.5 -0.866025 0.5 42.45 25.085)" fill="black" fill-opacity="0.1"/>
<rect width="11.5594" height="11.5594" transform="matrix(0.866025 0.5 -0.866025 0.5 42.45 37.2549)" fill="black" fill-opacity="0.1"/>
<rect width="11.5594" height="11.5594" transform="matrix(0.866025 0.5 -0.866025 0.5 52.9893 31.1699)" fill="black" fill-opacity="0.1"/>
<rect width="11.5594" height="11.5594" transform="matrix(0.866025 0.5 -0.866025 0.5 10.8315 31.1699)" fill="black" fill-opacity="0.1"/>
<rect width="11.5594" height="11.5594" transform="matrix(0.866025 0.5 -0.866025 0.5 31.9104 43.3398)" fill="black" fill-opacity="0.1"/>
<rect width="11.5594" height="11.5594" transform="matrix(0.866025 0.5 -0.866025 0.5 31.9104 31.1699)" fill="black" fill-opacity="0.1"/>
</g>
<rect width="36.3283" height="36.3283" rx="4.43612" transform="matrix(0.866025 0.5 -0.866025 0.5 31.478 18.4604)" fill="url(#paint7_linear_2025_1294)"/>
<rect width="27.2462" height="4.54104" transform="matrix(0.866025 0.5 0 1 3.94922 38.8955)" fill="url(#paint8_linear_2025_1294)"/>
<rect width="27.2462" height="4.54104" transform="matrix(0.866025 -0.5 0 1 35.4104 52.5186)" fill="url(#paint9_linear_2025_1294)"/>
<path d="M2.32056 36.625C2.32056 37.5117 2.94306 38.3144 3.94952 38.8955V43.4366C2.94306 42.8555 2.32056 42.0527 2.32056 41.166V36.625Z" fill="url(#paint10_linear_2025_1294)"/>
<path d="M27.5452 52.5186C29.7171 53.7725 33.2385 53.7725 35.4105 52.5186V57.0596C33.2385 58.3136 29.7171 58.3136 27.5452 57.0596V52.5186Z" fill="url(#paint11_linear_2025_1294)"/>
<path d="M60.6356 36.625C60.6356 37.5117 60.013 38.3144 59.0066 38.8955V43.4366C60.013 42.8555 60.6356 42.0527 60.6356 41.166V36.625Z" fill="url(#paint12_linear_2025_1294)"/>
<g clip-path="url(#clip1_2025_1294)">
<rect width="11.712" height="11.712" transform="matrix(0.866025 0.5 -0.866025 0.5 31.5 18.4604)" fill="white" fill-opacity="0.2"/>
<rect width="11.712" height="11.712" transform="matrix(0.866025 0.5 -0.866025 0.5 20.8213 24.626)" fill="white" fill-opacity="0.2"/>
<rect width="11.712" height="11.712" transform="matrix(0.866025 0.5 -0.866025 0.5 20.8215 36.9561)" fill="white" fill-opacity="0.2"/>
<rect width="11.712" height="11.712" transform="matrix(0.866025 0.5 -0.866025 0.5 42.1785 24.6255)" fill="white" fill-opacity="0.2"/>
<rect width="11.712" height="11.712" transform="matrix(0.866025 0.5 -0.866025 0.5 42.1785 36.9561)" fill="white" fill-opacity="0.2"/>
<rect width="11.712" height="11.712" transform="matrix(0.866025 0.5 -0.866025 0.5 52.8569 30.791)" fill="white" fill-opacity="0.2"/>
<rect width="11.712" height="11.712" transform="matrix(0.866025 0.5 -0.866025 0.5 10.1428 30.791)" fill="white" fill-opacity="0.2"/>
<rect width="11.712" height="11.712" transform="matrix(0.866025 0.5 -0.866025 0.5 31.5 43.1216)" fill="white" fill-opacity="0.2"/>
<rect width="11.712" height="11.712" transform="matrix(0.866025 0.5 -0.866025 0.5 31.5 30.791)" fill="white" fill-opacity="0.2"/>
</g>
<mask id="path-33-outside-1_2025_1294" maskUnits="userSpaceOnUse" x="9" y="19" width="47" height="20" fill="black">
<rect fill="white" x="9" y="19" width="47" height="20"/>
<path d="M10.2082 34.0521V31.2599L17.2093 20.2299H19.6167V24.0949H18.1919L13.7783 31.0797V31.2107H23.7274V34.0521H10.2082ZM18.2575 37V33.2005L18.323 31.9641V20.2299H21.6475V37H18.2575ZM36.3827 34.6745L26.5974 24.9056L28.7428 22.7356L38.5363 32.5291L36.3827 34.6745ZM28.7428 34.6745L26.5974 32.5291L36.3827 22.7356L38.5363 24.9056L28.7428 34.6745ZM47.9613 37.2293C46.7384 37.2293 45.6494 37.0191 44.694 36.5988C43.7442 36.173 42.9936 35.5888 42.4422 34.8464C41.8963 34.0985 41.6152 33.236 41.5988 32.2589H45.169C45.1908 32.6683 45.3246 33.0286 45.5702 33.3397C45.8213 33.6454 46.1543 33.8829 46.5692 34.0521C46.9841 34.2214 47.4508 34.306 47.9694 34.306C48.5099 34.306 48.9875 34.2104 49.4024 34.0194C49.8173 33.8283 50.1421 33.5636 50.3769 33.2251C50.6116 32.8866 50.729 32.4963 50.729 32.0541C50.729 31.6065 50.6034 31.2107 50.3523 30.8668C50.1066 30.5174 49.7518 30.2445 49.2878 30.048C48.8292 29.8514 48.2833 29.7532 47.6501 29.7532H46.0861V27.1492H47.6501C48.1851 27.1492 48.6573 27.0564 49.0667 26.8708C49.4816 26.6852 49.8037 26.4286 50.0329 26.1011C50.2622 25.7681 50.3769 25.3805 50.3769 24.9383C50.3769 24.518 50.2759 24.1495 50.0739 23.8329C49.8774 23.5108 49.599 23.2597 49.2387 23.0795C48.8838 22.8994 48.4689 22.8093 47.994 22.8093C47.5136 22.8093 47.0742 22.8967 46.6757 23.0714C46.2771 23.2406 45.9578 23.4835 45.7176 23.8001C45.4774 24.1168 45.3491 24.488 45.3327 24.9138H41.9345C41.9509 23.9475 42.2266 23.0959 42.7616 22.359C43.2965 21.622 44.0171 21.0461 44.9233 20.6312C45.835 20.2108 46.864 20.0007 48.0104 20.0007C49.1677 20.0007 50.1803 20.2108 51.0483 20.6312C51.9163 21.0515 52.5905 21.6193 53.0709 22.3344C53.5567 23.0441 53.7969 23.8411 53.7915 24.7254C53.7969 25.6644 53.5049 26.4477 52.9153 27.0755C52.3312 27.7033 51.5697 28.1018 50.6307 28.2711V28.4021C51.8644 28.5604 52.8034 28.9889 53.4475 29.6877C54.0972 30.381 54.4193 31.2489 54.4138 32.2916C54.4193 33.2469 54.1436 34.0958 53.5868 34.8382C53.0354 35.5807 52.2739 36.1648 51.3022 36.5906C50.3305 37.0164 49.2168 37.2293 47.9613 37.2293Z"/>
</mask>
<path d="M10.2082 34.0521V31.2599L17.2093 20.2299H19.6167V24.0949H18.1919L13.7783 31.0797V31.2107H23.7274V34.0521H10.2082ZM18.2575 37V33.2005L18.323 31.9641V20.2299H21.6475V37H18.2575ZM36.3827 34.6745L26.5974 24.9056L28.7428 22.7356L38.5363 32.5291L36.3827 34.6745ZM28.7428 34.6745L26.5974 32.5291L36.3827 22.7356L38.5363 24.9056L28.7428 34.6745ZM47.9613 37.2293C46.7384 37.2293 45.6494 37.0191 44.694 36.5988C43.7442 36.173 42.9936 35.5888 42.4422 34.8464C41.8963 34.0985 41.6152 33.236 41.5988 32.2589H45.169C45.1908 32.6683 45.3246 33.0286 45.5702 33.3397C45.8213 33.6454 46.1543 33.8829 46.5692 34.0521C46.9841 34.2214 47.4508 34.306 47.9694 34.306C48.5099 34.306 48.9875 34.2104 49.4024 34.0194C49.8173 33.8283 50.1421 33.5636 50.3769 33.2251C50.6116 32.8866 50.729 32.4963 50.729 32.0541C50.729 31.6065 50.6034 31.2107 50.3523 30.8668C50.1066 30.5174 49.7518 30.2445 49.2878 30.048C48.8292 29.8514 48.2833 29.7532 47.6501 29.7532H46.0861V27.1492H47.6501C48.1851 27.1492 48.6573 27.0564 49.0667 26.8708C49.4816 26.6852 49.8037 26.4286 50.0329 26.1011C50.2622 25.7681 50.3769 25.3805 50.3769 24.9383C50.3769 24.518 50.2759 24.1495 50.0739 23.8329C49.8774 23.5108 49.599 23.2597 49.2387 23.0795C48.8838 22.8994 48.4689 22.8093 47.994 22.8093C47.5136 22.8093 47.0742 22.8967 46.6757 23.0714C46.2771 23.2406 45.9578 23.4835 45.7176 23.8001C45.4774 24.1168 45.3491 24.488 45.3327 24.9138H41.9345C41.9509 23.9475 42.2266 23.0959 42.7616 22.359C43.2965 21.622 44.0171 21.0461 44.9233 20.6312C45.835 20.2108 46.864 20.0007 48.0104 20.0007C49.1677 20.0007 50.1803 20.2108 51.0483 20.6312C51.9163 21.0515 52.5905 21.6193 53.0709 22.3344C53.5567 23.0441 53.7969 23.8411 53.7915 24.7254C53.7969 25.6644 53.5049 26.4477 52.9153 27.0755C52.3312 27.7033 51.5697 28.1018 50.6307 28.2711V28.4021C51.8644 28.5604 52.8034 28.9889 53.4475 29.6877C54.0972 30.381 54.4193 31.2489 54.4138 32.2916C54.4193 33.2469 54.1436 34.0958 53.5868 34.8382C53.0354 35.5807 52.2739 36.1648 51.3022 36.5906C50.3305 37.0164 49.2168 37.2293 47.9613 37.2293Z" fill="white"/>
<path d="M10.2082 34.0521H9.38463V34.8757H10.2082V34.0521ZM10.2082 31.2599L9.51287 30.8185L9.38463 31.0206V31.2599H10.2082ZM17.2093 20.2299V19.4064H16.7566L16.514 19.7886L17.2093 20.2299ZM19.6167 20.2299H20.4403V19.4064H19.6167V20.2299ZM19.6167 24.0949V24.9184H20.4403V24.0949H19.6167ZM18.1919 24.0949V23.2714H17.7382L17.4958 23.655L18.1919 24.0949ZM13.7783 31.0797L13.0822 30.6398L12.9548 30.8413V31.0797H13.7783ZM13.7783 31.2107H12.9548V32.0343H13.7783V31.2107ZM23.7274 31.2107H24.5509V30.3872H23.7274V31.2107ZM23.7274 34.0521V34.8757H24.5509V34.0521H23.7274ZM18.2575 37H17.4339V37.8235H18.2575V37ZM18.2575 33.2005L17.4351 33.157L17.4339 33.1787V33.2005H18.2575ZM18.323 31.9641L19.1453 32.0076L19.1465 31.9859V31.9641H18.323ZM18.323 20.2299V19.4064H17.4994V20.2299H18.323ZM21.6475 20.2299H22.471V19.4064H21.6475V20.2299ZM21.6475 37V37.8235H22.471V37H21.6475ZM10.2082 34.0521H11.0317V31.2599H10.2082H9.38463V34.0521H10.2082ZM10.2082 31.2599L10.9034 31.7012L17.9046 20.6713L17.2093 20.2299L16.514 19.7886L9.51287 30.8185L10.2082 31.2599ZM17.2093 20.2299V21.0535H19.6167V20.2299V19.4064H17.2093V20.2299ZM19.6167 20.2299H18.7932V24.0949H19.6167H20.4403V20.2299H19.6167ZM19.6167 24.0949V23.2714H18.1919V24.0949V24.9184H19.6167V24.0949ZM18.1919 24.0949L17.4958 23.655L13.0822 30.6398L13.7783 31.0797L14.4745 31.5196L18.8881 24.5348L18.1919 24.0949ZM13.7783 31.0797H12.9548V31.2107H13.7783H14.6019V31.0797H13.7783ZM13.7783 31.2107V32.0343H23.7274V31.2107V30.3872H13.7783V31.2107ZM23.7274 31.2107H22.9038V34.0521H23.7274H24.5509V31.2107H23.7274ZM23.7274 34.0521V33.2286H10.2082V34.0521V34.8757H23.7274V34.0521ZM18.2575 37H19.081V33.2005H18.2575H17.4339V37H18.2575ZM18.2575 33.2005L19.0798 33.2441L19.1453 32.0076L18.323 31.9641L17.5006 31.9205L17.4351 33.157L18.2575 33.2005ZM18.323 31.9641H19.1465V20.2299H18.323H17.4994V31.9641H18.323ZM18.323 20.2299V21.0535H21.6475V20.2299V19.4064H18.323V20.2299ZM21.6475 20.2299H20.824V37H21.6475H22.471V20.2299H21.6475ZM21.6475 37V36.1765H18.2575V37V37.8235H21.6475V37ZM36.3827 34.6745L35.8009 35.2573L36.3821 35.8375L36.9639 35.2579L36.3827 34.6745ZM26.5974 24.9056L26.0118 24.3266L25.4356 24.9094L26.0156 25.4884L26.5974 24.9056ZM28.7428 22.7356L29.3252 22.1533L28.7395 21.5677L28.1572 22.1566L28.7428 22.7356ZM38.5363 32.5291L39.1175 33.1125L39.702 32.5302L39.1186 31.9468L38.5363 32.5291ZM28.7428 34.6745L28.1605 35.2568L28.7421 35.8384L29.3244 35.2575L28.7428 34.6745ZM26.5974 32.5291L26.0149 31.947L25.433 32.5293L26.0151 33.1114L26.5974 32.5291ZM36.3827 22.7356L36.9672 22.1555L36.3847 21.5685L35.8001 22.1535L36.3827 22.7356ZM38.5363 24.9056L39.1179 25.4886L39.6995 24.9085L39.1208 24.3255L38.5363 24.9056ZM36.3827 34.6745L36.9645 34.0917L27.1793 24.3228L26.5974 24.9056L26.0156 25.4884L35.8009 35.2573L36.3827 34.6745ZM26.5974 24.9056L27.1831 25.4846L29.3285 23.3146L28.7428 22.7356L28.1572 22.1566L26.0118 24.3266L26.5974 24.9056ZM28.7428 22.7356L28.1605 23.3179L37.954 33.1114L38.5363 32.5291L39.1186 31.9468L29.3252 22.1533L28.7428 22.7356ZM38.5363 32.5291L37.9551 31.9456L35.8015 34.091L36.3827 34.6745L36.9639 35.2579L39.1175 33.1125L38.5363 32.5291ZM28.7428 34.6745L29.3252 34.0921L27.1798 31.9468L26.5974 32.5291L26.0151 33.1114L28.1605 35.2568L28.7428 34.6745ZM26.5974 32.5291L27.18 33.1112L36.9653 23.3177L36.3827 22.7356L35.8001 22.1535L26.0149 31.947L26.5974 32.5291ZM36.3827 22.7356L35.7982 23.3157L37.9518 25.4857L38.5363 24.9056L39.1208 24.3255L36.9672 22.1555L36.3827 22.7356ZM38.5363 24.9056L37.9547 24.3225L28.1612 34.0914L28.7428 34.6745L29.3244 35.2575L39.1179 25.4886L38.5363 24.9056ZM44.694 36.5988L44.3572 37.3503L44.3624 37.3526L44.694 36.5988ZM42.4422 34.8464L41.777 35.332L41.7811 35.3374L42.4422 34.8464ZM41.5988 32.2589V31.4353H40.7613L40.7754 32.2727L41.5988 32.2589ZM45.169 32.2589L45.9913 32.215L45.9498 31.4353H45.169V32.2589ZM45.5702 33.3397L44.9238 33.85L44.9288 33.8563L44.9338 33.8625L45.5702 33.3397ZM46.5692 34.0521L46.2582 34.8147L46.2582 34.8147L46.5692 34.0521ZM49.4024 34.0194L49.0579 33.2714L49.0579 33.2714L49.4024 34.0194ZM50.3769 33.2251L51.0536 33.6944L51.0536 33.6944L50.3769 33.2251ZM50.3523 30.8668L49.6786 31.3405L49.6829 31.3465L49.6872 31.3524L50.3523 30.8668ZM49.2878 30.048L48.9634 30.8049L48.9666 30.8063L49.2878 30.048ZM46.0861 29.7532H45.2626V30.5767H46.0861V29.7532ZM46.0861 27.1492V26.3257H45.2626V27.1492H46.0861ZM49.0667 26.8708L48.7304 26.1191L48.7267 26.1208L49.0667 26.8708ZM50.0329 26.1011L50.7076 26.5734L50.7112 26.5681L50.0329 26.1011ZM50.0739 23.8329L49.3709 24.2618L49.3752 24.2689L49.3796 24.2758L50.0739 23.8329ZM49.2387 23.0795L48.8658 23.8139L48.8704 23.8161L49.2387 23.0795ZM46.6757 23.0714L46.9976 23.8294L47.0063 23.8256L46.6757 23.0714ZM45.7176 23.8001L46.3737 24.2979L46.3737 24.2979L45.7176 23.8001ZM45.3327 24.9138V25.7373H46.1252L46.1557 24.9454L45.3327 24.9138ZM41.9345 24.9138L41.1111 24.8998L41.0969 25.7373H41.9345V24.9138ZM42.7616 22.359L43.428 22.8427L43.428 22.8427L42.7616 22.359ZM44.9233 20.6312L45.2661 21.38L45.2681 21.379L44.9233 20.6312ZM51.0483 20.6312L51.4073 19.89L51.4073 19.89L51.0483 20.6312ZM53.0709 22.3344L52.3872 22.7936L52.3913 22.7996L53.0709 22.3344ZM53.7915 24.7254L52.9679 24.7203L52.968 24.7302L53.7915 24.7254ZM52.9153 27.0755L52.315 26.5118L52.3124 26.5146L52.9153 27.0755ZM50.6307 28.2711L50.4846 27.4606L49.8072 27.5827V28.2711H50.6307ZM50.6307 28.4021H49.8072V29.1267L50.5259 29.2189L50.6307 28.4021ZM53.4475 29.6877L52.842 30.2459L52.8466 30.2508L53.4475 29.6877ZM54.4138 32.2916L53.5902 32.2873L53.5903 32.2963L54.4138 32.2916ZM53.5868 34.8382L52.9279 34.3441L52.9256 34.3472L53.5868 34.8382ZM51.3022 36.5906L50.9716 35.8363L50.9716 35.8363L51.3022 36.5906ZM47.9613 37.2293V36.4057C46.8333 36.4057 45.8601 36.2121 45.0257 35.845L44.694 36.5988L44.3624 37.3526C45.4386 37.8261 46.6436 38.0528 47.9613 38.0528V37.2293ZM44.694 36.5988L45.0309 35.8473C44.1932 35.4718 43.5606 34.9711 43.1034 34.3554L42.4422 34.8464L41.7811 35.3374C42.4266 36.2066 43.2951 36.8742 44.3572 37.3502L44.694 36.5988ZM42.4422 34.8464L43.1074 34.3609C42.6673 33.758 42.4359 33.0624 42.4222 32.2451L41.5988 32.2589L40.7754 32.2727C40.7944 33.4096 41.1253 34.4391 41.777 35.332L42.4422 34.8464ZM41.5988 32.2589V33.0824H45.169V32.2589V31.4353H41.5988V32.2589ZM45.169 32.2589L44.3466 32.3027C44.3772 32.8759 44.569 33.4005 44.9238 33.85L45.5702 33.3397L46.2166 32.8294C46.0802 32.6566 46.0044 32.4607 45.9913 32.215L45.169 32.2589ZM45.5702 33.3397L44.9338 33.8625C45.2828 34.2872 45.7336 34.6007 46.2582 34.8147L46.5692 34.0521L46.8802 33.2896C46.575 33.1651 46.3599 33.0037 46.2066 32.817L45.5702 33.3397ZM46.5692 34.0521L46.2582 34.8147C46.7861 35.03 47.3608 35.1295 47.9694 35.1295V34.306V33.4825C47.5409 33.4825 47.1821 33.4127 46.8802 33.2896L46.5692 34.0521ZM47.9694 34.306V35.1295C48.6073 35.1295 49.206 35.0165 49.7469 34.7674L49.4024 34.0194L49.0579 33.2714C48.7691 33.4044 48.4125 33.4825 47.9694 33.4825V34.306ZM49.4024 34.0194L49.7469 34.7674C50.2805 34.5217 50.7261 34.1666 51.0536 33.6944L50.3769 33.2251L49.7002 32.7558C49.5582 32.9605 49.3541 33.135 49.0579 33.2714L49.4024 34.0194ZM50.3769 33.2251L51.0536 33.6944C51.391 33.2078 51.5525 32.6511 51.5525 32.0541H50.729H49.9054C49.9054 32.3416 49.8321 32.5655 49.7002 32.7558L50.3769 33.2251ZM50.729 32.0541H51.5525C51.5525 31.4414 51.3769 30.8736 51.0174 30.3812L50.3523 30.8668L49.6872 31.3524C49.8299 31.5479 49.9054 31.7716 49.9054 32.0541H50.729ZM50.3523 30.8668L51.026 30.3931C50.6769 29.8966 50.1889 29.5353 49.609 29.2896L49.2878 30.048L48.9666 30.8063C49.3147 30.9537 49.5364 31.1382 49.6786 31.3405L50.3523 30.8668ZM49.2878 30.048L49.6122 29.291C49.0275 29.0404 48.3659 28.9296 47.6501 28.9296V29.7532V30.5767C48.2007 30.5767 48.6309 30.6624 48.9634 30.8049L49.2878 30.048ZM47.6501 29.7532V28.9296H46.0861V29.7532V30.5767H47.6501V29.7532ZM46.0861 29.7532H46.9096V27.1492H46.0861H45.2626V29.7532H46.0861ZM46.0861 27.1492V27.9728H47.6501V27.1492V26.3257H46.0861V27.1492ZM47.6501 27.1492V27.9728C48.2804 27.9728 48.8721 27.8632 49.4067 27.6209L49.0667 26.8708L48.7267 26.1208C48.4424 26.2496 48.0898 26.3257 47.6501 26.3257V27.1492ZM49.0667 26.8708L49.403 27.6226C49.9349 27.3846 50.3817 27.0389 50.7076 26.5734L50.0329 26.1011L49.3583 25.6288C49.2256 25.8183 49.0283 25.9858 48.7304 26.1191L49.0667 26.8708ZM50.0329 26.1011L50.7112 26.5681C51.044 26.0849 51.2004 25.5309 51.2004 24.9383H50.3769H49.5533C49.5533 25.2301 49.4805 25.4513 49.3546 25.6341L50.0329 26.1011ZM50.3769 24.9383H51.2004C51.2004 24.3804 51.0644 23.8543 50.7682 23.39L50.0739 23.8329L49.3796 24.2758C49.4874 24.4447 49.5533 24.6556 49.5533 24.9383H50.3769ZM50.0739 23.8329L50.7769 23.4039C50.4944 22.9409 50.0957 22.5873 49.607 22.343L49.2387 23.0795L48.8704 23.8161C49.1022 23.932 49.2604 24.0807 49.3709 24.2618L50.0739 23.8329ZM49.2387 23.0795L49.6115 22.3452C49.1208 22.0961 48.5736 21.9858 47.994 21.9858V22.8093V23.6329C48.3643 23.6329 48.6468 23.7027 48.8659 23.8139L49.2387 23.0795ZM47.994 22.8093V21.9858C47.4117 21.9858 46.8582 22.0922 46.345 22.3171L46.6757 23.0714L47.0063 23.8256C47.2902 23.7012 47.6155 23.6329 47.994 23.6329V22.8093ZM46.6757 23.0714L46.3538 22.3133C45.8352 22.5335 45.3962 22.8613 45.0615 23.3024L45.7176 23.8001L46.3737 24.2979C46.5194 24.1057 46.7191 23.9476 46.9976 23.8294L46.6757 23.0714ZM45.7176 23.8001L45.0615 23.3024C44.7117 23.7635 44.5322 24.3004 44.5098 24.8821L45.3327 24.9138L46.1557 24.9454C46.166 24.6756 46.2431 24.47 46.3737 24.2979L45.7176 23.8001ZM45.3327 24.9138V24.0902H41.9345V24.9138V25.7373H45.3327V24.9138ZM41.9345 24.9138L42.7579 24.9277C42.7716 24.1196 42.9986 23.4343 43.428 22.8427L42.7616 22.359L42.0951 21.8752C41.4546 22.7575 41.1302 23.7755 41.1111 24.8998L41.9345 24.9138ZM42.7616 22.359L43.428 22.8427C43.872 22.2311 44.4763 21.7416 45.2661 21.38L44.9233 20.6312L44.5805 19.8824C43.5579 20.3506 42.7211 21.0129 42.0951 21.8752L42.7616 22.359ZM44.9233 20.6312L45.2681 21.379C46.0573 21.0152 46.9662 20.8242 48.0104 20.8242V20.0007V19.1771C46.7618 19.1771 45.6126 19.4065 44.5785 19.8833L44.9233 20.6312ZM48.0104 20.0007V20.8242C49.0679 20.8242 49.9535 21.016 50.6894 21.3724L51.0483 20.6312L51.4073 19.89C50.4072 19.4057 49.2675 19.1771 48.0104 19.1771V20.0007ZM51.0483 20.6312L50.6894 21.3724C51.4421 21.7369 51.9976 22.2135 52.3873 22.7936L53.0709 22.3344L53.7545 21.8752C53.1834 21.025 52.3905 20.3661 51.4073 19.89L51.0483 20.6312ZM53.0709 22.3344L52.3913 22.7996C52.7796 23.3667 52.9724 23.9987 52.968 24.7203L53.7915 24.7254L54.615 24.7305C54.6214 23.6834 54.3339 22.7214 53.7504 21.8692L53.0709 22.3344ZM53.7915 24.7254L52.968 24.7302C52.9723 25.4789 52.7464 26.0524 52.315 26.5118L52.9153 27.0755L53.5156 27.6393C54.2634 26.8431 54.6215 25.8499 54.615 24.7206L53.7915 24.7254ZM52.9153 27.0755L52.3124 26.5146C51.8632 26.9973 51.2691 27.3192 50.4846 27.4606L50.6307 28.2711L50.7768 29.0815C51.8702 28.8845 52.7992 28.4093 53.5182 27.6365L52.9153 27.0755ZM50.6307 28.2711H49.8072V28.4021H50.6307H51.4542V28.2711H50.6307ZM50.6307 28.4021L50.5259 29.2189C51.6277 29.3603 52.3651 29.7285 52.8421 30.2459L53.4475 29.6877L54.053 29.1295C53.2416 28.2493 52.1012 27.7605 50.7355 27.5852L50.6307 28.4021ZM53.4475 29.6877L52.8466 30.2508C53.3376 30.7747 53.5947 31.4329 53.5903 32.2873L54.4138 32.2916L55.2373 32.2959C55.2438 31.065 54.8567 29.9872 54.0485 29.1246L53.4475 29.6877ZM54.4138 32.2916L53.5903 32.2963C53.5947 33.0775 53.3735 33.75 52.9279 34.3441L53.5868 34.8382L54.2456 35.3324C54.9136 34.4416 55.2438 33.4163 55.2373 32.2869L54.4138 32.2916ZM53.5868 34.8382L52.9256 34.3472C52.4716 34.9586 51.8317 35.4594 50.9716 35.8363L51.3022 36.5906L51.6327 37.3449C52.716 36.8701 53.5992 36.2027 54.2479 35.3292L53.5868 34.8382ZM51.3022 36.5906L50.9716 35.8363C50.1215 36.2088 49.1236 36.4057 47.9613 36.4057V37.2293V38.0528C49.31 38.0528 50.5395 37.8239 51.6327 37.3449L51.3022 36.5906Z" fill="#2B3F46" mask="url(#path-33-outside-1_2025_1294)"/>
<defs>
<linearGradient id="paint0_linear_2025_1294" x1="35.8411" y1="35.864" x2="-1.88188" y2="2.08424" gradientUnits="userSpaceOnUse">
<stop stop-color="#FFD5EF"/>
<stop offset="1" stop-color="#EFBDFD"/>
</linearGradient>
<linearGradient id="paint1_linear_2025_1294" x1="26.8809" y1="4.483" x2="25.174" y2="-4.68761" gradientUnits="userSpaceOnUse">
<stop stop-color="#F95457"/>
<stop offset="1" stop-color="#FDBDCB"/>
</linearGradient>
<linearGradient id="paint2_linear_2025_1294" x1="26.8809" y1="4.483" x2="25.174" y2="-4.68761" gradientUnits="userSpaceOnUse">
<stop stop-color="#F95457"/>
<stop offset="1" stop-color="#FDBDCB"/>
</linearGradient>
<linearGradient id="paint3_linear_2025_1294" x1="4.71795" y1="43.6522" x2="1.80375" y2="43.0282" gradientUnits="userSpaceOnUse">
<stop stop-color="#F95457"/>
<stop offset="1" stop-color="#FDBDCB"/>
</linearGradient>
<linearGradient id="paint4_linear_2025_1294" x1="35.7669" y1="58.0257" x2="30.2155" y2="50.8928" gradientUnits="userSpaceOnUse">
<stop stop-color="#F95457"/>
<stop offset="1" stop-color="#FDBDCB"/>
</linearGradient>
<linearGradient id="paint5_linear_2025_1294" x1="60.6657" y1="43.6522" x2="57.7515" y2="43.0282" gradientUnits="userSpaceOnUse">
<stop stop-color="#F95457"/>
<stop offset="1" stop-color="#FDBDCB"/>
</linearGradient>
<linearGradient id="paint6_linear_2025_1294" x1="-1.09962e-05" y1="-0.0328651" x2="30.641" y2="-4.05264" gradientUnits="userSpaceOnUse">
<stop stop-color="#D74446"/>
<stop offset="1" stop-color="#E165B8"/>
</linearGradient>
<linearGradient id="paint7_linear_2025_1294" x1="-1.11276e-05" y1="-0.033258" x2="31.0073" y2="-4.10108" gradientUnits="userSpaceOnUse">
<stop stop-color="#D74446"/>
<stop offset="1" stop-color="#E165B8"/>
</linearGradient>
<linearGradient id="paint8_linear_2025_1294" x1="-8.34573e-06" y1="-0.00415724" x2="14.606" y2="-11.5011" gradientUnits="userSpaceOnUse">
<stop stop-color="#D1369D"/>
<stop offset="1" stop-color="#B31E20"/>
</linearGradient>
<linearGradient id="paint9_linear_2025_1294" x1="-8.34573e-06" y1="-0.00415724" x2="14.606" y2="-11.5011" gradientUnits="userSpaceOnUse">
<stop stop-color="#D74446"/>
<stop offset="1" stop-color="#E165B8"/>
</linearGradient>
<linearGradient id="paint10_linear_2025_1294" x1="2.32056" y1="36.6188" x2="3.73346" y2="36.5744" gradientUnits="userSpaceOnUse">
<stop stop-color="#D74446"/>
<stop offset="1" stop-color="#D1369D"/>
</linearGradient>
<linearGradient id="paint11_linear_2025_1294" x1="27.5452" y1="52.5135" x2="34.1403" y2="51.2721" gradientUnits="userSpaceOnUse">
<stop stop-color="#B31E20"/>
<stop offset="1" stop-color="#D74446"/>
</linearGradient>
<linearGradient id="paint12_linear_2025_1294" x1="59.0066" y1="36.6188" x2="60.4195" y2="36.5744" gradientUnits="userSpaceOnUse">
<stop stop-color="#E165B8"/>
<stop offset="1" stop-color="#D74446"/>
</linearGradient>
<clipPath id="clip0_2025_1294">
<rect width="35.8992" height="35.8992" rx="4.44179" transform="matrix(0.866025 0.5 -0.866025 0.5 31.9104 19)" fill="white"/>
</clipPath>
<clipPath id="clip1_2025_1294">
<rect width="36.3731" height="36.3731" rx="4.50041" transform="matrix(0.866025 0.5 -0.866025 0.5 31.5 18.4604)" fill="white"/>
</clipPath>
</defs>
</svg>
