<svg width="64" height="64" viewBox="0 0 64 64" fill="none" xmlns="http://www.w3.org/2000/svg">
<rect width="35.8551" height="35.8551" rx="4.37833" transform="matrix(0.866025 0.5 -0.866025 0.5 31.8887 19)" fill="url(#paint0_linear_2025_1114)"/>
<rect width="26.8913" height="4.48189" transform="matrix(0.866025 0.5 0 1 4.71851 39.1685)" fill="url(#paint1_linear_2025_1114)"/>
<rect width="26.8913" height="4.48189" transform="matrix(0.866025 -0.5 0 1 35.7698 52.6143)" fill="url(#paint2_linear_2025_1114)"/>
<path d="M3.11084 36.9277C3.11084 37.8029 3.72524 38.5952 4.71858 39.1687V43.6506C3.72524 43.0771 3.11084 42.2848 3.11084 41.4096V36.9277Z" fill="url(#paint3_linear_2025_1114)"/>
<path d="M28.0071 52.6143C30.1507 53.8519 33.6263 53.8519 35.7699 52.6143V57.0961C33.6263 58.3338 30.1507 58.3338 28.0071 57.0961V52.6143Z" fill="url(#paint4_linear_2025_1114)"/>
<path d="M60.6663 36.9277C60.6663 37.8029 60.0519 38.5952 59.0586 39.1687V43.6506C60.0519 43.0771 60.6663 42.2848 60.6663 41.4096V36.9277Z" fill="url(#paint5_linear_2025_1114)"/>
<g clip-path="url(#clip0_2025_1114)">
<rect width="35.8992" height="35.8992" rx="4.44179" transform="matrix(0.866025 0.5 -0.866025 0.5 31.9104 19)" fill="url(#paint6_linear_2025_1114)"/>
<rect width="11.5594" height="11.5594" transform="matrix(0.866025 0.5 -0.866025 0.5 31.9104 19)" fill="black" fill-opacity="0.1"/>
<rect width="11.5594" height="11.5594" transform="matrix(0.866025 0.5 -0.866025 0.5 21.3711 25.085)" fill="black" fill-opacity="0.1"/>
<rect width="11.5594" height="11.5594" transform="matrix(0.866025 0.5 -0.866025 0.5 21.3711 37.2549)" fill="black" fill-opacity="0.1"/>
<rect width="11.5594" height="11.5594" transform="matrix(0.866025 0.5 -0.866025 0.5 42.45 25.085)" fill="black" fill-opacity="0.1"/>
<rect width="11.5594" height="11.5594" transform="matrix(0.866025 0.5 -0.866025 0.5 42.45 37.2549)" fill="black" fill-opacity="0.1"/>
<rect width="11.5594" height="11.5594" transform="matrix(0.866025 0.5 -0.866025 0.5 52.9893 31.1699)" fill="black" fill-opacity="0.1"/>
<rect width="11.5594" height="11.5594" transform="matrix(0.866025 0.5 -0.866025 0.5 10.8315 31.1699)" fill="black" fill-opacity="0.1"/>
<rect width="11.5594" height="11.5594" transform="matrix(0.866025 0.5 -0.866025 0.5 31.9104 43.3398)" fill="black" fill-opacity="0.1"/>
<rect width="11.5594" height="11.5594" transform="matrix(0.866025 0.5 -0.866025 0.5 31.9104 31.1699)" fill="black" fill-opacity="0.1"/>
</g>
<rect width="36.3283" height="36.3283" rx="4.43612" transform="matrix(0.866025 0.5 -0.866025 0.5 31.478 18.4604)" fill="url(#paint7_linear_2025_1114)"/>
<rect width="27.2462" height="4.54104" transform="matrix(0.866025 0.5 0 1 3.94922 38.8955)" fill="url(#paint8_linear_2025_1114)"/>
<rect width="27.2462" height="4.54104" transform="matrix(0.866025 -0.5 0 1 35.4104 52.5186)" fill="url(#paint9_linear_2025_1114)"/>
<path d="M2.32056 36.625C2.32056 37.5117 2.94306 38.3144 3.94952 38.8955V43.4366C2.94306 42.8555 2.32056 42.0527 2.32056 41.166V36.625Z" fill="url(#paint10_linear_2025_1114)"/>
<path d="M27.5452 52.5186C29.7171 53.7725 33.2385 53.7725 35.4105 52.5186V57.0596C33.2385 58.3136 29.7171 58.3136 27.5452 57.0596V52.5186Z" fill="url(#paint11_linear_2025_1114)"/>
<path d="M60.6356 36.625C60.6356 37.5117 60.013 38.3144 59.0066 38.8955V43.4366C60.013 42.8555 60.6356 42.0527 60.6356 41.166V36.625Z" fill="url(#paint12_linear_2025_1114)"/>
<g clip-path="url(#clip1_2025_1114)">
<rect width="11.712" height="11.712" transform="matrix(0.866025 0.5 -0.866025 0.5 31.5 18.4604)" fill="white" fill-opacity="0.2"/>
<rect width="11.712" height="11.712" transform="matrix(0.866025 0.5 -0.866025 0.5 20.8213 24.626)" fill="white" fill-opacity="0.2"/>
<rect width="11.712" height="11.712" transform="matrix(0.866025 0.5 -0.866025 0.5 20.8215 36.9561)" fill="white" fill-opacity="0.2"/>
<rect width="11.712" height="11.712" transform="matrix(0.866025 0.5 -0.866025 0.5 42.1785 24.6255)" fill="white" fill-opacity="0.2"/>
<rect width="11.712" height="11.712" transform="matrix(0.866025 0.5 -0.866025 0.5 42.1785 36.9561)" fill="white" fill-opacity="0.2"/>
<rect width="11.712" height="11.712" transform="matrix(0.866025 0.5 -0.866025 0.5 52.8569 30.791)" fill="white" fill-opacity="0.2"/>
<rect width="11.712" height="11.712" transform="matrix(0.866025 0.5 -0.866025 0.5 10.1428 30.791)" fill="white" fill-opacity="0.2"/>
<rect width="11.712" height="11.712" transform="matrix(0.866025 0.5 -0.866025 0.5 31.5 43.1216)" fill="white" fill-opacity="0.2"/>
<rect width="11.712" height="11.712" transform="matrix(0.866025 0.5 -0.866025 0.5 31.5 30.791)" fill="white" fill-opacity="0.2"/>
</g>
<mask id="path-33-outside-1_2025_1114" maskUnits="userSpaceOnUse" x="10" y="19" width="45" height="20" fill="black">
<rect fill="white" x="10" y="19" width="45" height="20"/>
<path d="M17.2124 37.2293C15.9896 37.2293 14.9005 37.0191 13.9452 36.5988C12.9953 36.173 12.2447 35.5888 11.6933 34.8464C11.1474 34.0985 10.8663 33.236 10.8499 32.2589H14.4201C14.442 32.6683 14.5757 33.0286 14.8214 33.3397C15.0725 33.6454 15.4055 33.8829 15.8204 34.0521C16.2352 34.2214 16.702 34.306 17.2206 34.306C17.761 34.306 18.2387 34.2104 18.6536 34.0194C19.0685 33.8283 19.3933 33.5636 19.628 33.2251C19.8627 32.8866 19.9801 32.4963 19.9801 32.0541C19.9801 31.6065 19.8546 31.2107 19.6034 30.8668C19.3578 30.5174 19.003 30.2445 18.5389 30.048C18.0804 29.8514 17.5345 29.7532 16.9012 29.7532H15.3372V27.1492H16.9012C17.4362 27.1492 17.9084 27.0564 18.3178 26.8708C18.7327 26.6852 19.0548 26.4286 19.2841 26.1011C19.5134 25.7681 19.628 25.3805 19.628 24.9383C19.628 24.518 19.527 24.1495 19.325 23.8329C19.1285 23.5108 18.8501 23.2597 18.4898 23.0795C18.135 22.8994 17.7201 22.8093 17.2452 22.8093C16.7648 22.8093 16.3253 22.8967 15.9268 23.0714C15.5283 23.2406 15.2089 23.4835 14.9687 23.8001C14.7286 24.1168 14.6003 24.488 14.5839 24.9138H11.1857C11.202 23.9475 11.4777 23.0959 12.0127 22.359C12.5477 21.622 13.2683 21.0461 14.1745 20.6312C15.0861 20.2108 16.1151 20.0007 17.2615 20.0007C18.4188 20.0007 19.4315 20.2108 20.2995 20.6312C21.1674 21.0515 21.8416 21.6193 22.322 22.3344C22.8079 23.0441 23.0481 23.8411 23.0426 24.7254C23.0481 25.6644 22.756 26.4477 22.1664 27.0755C21.5823 27.7033 20.8208 28.1018 19.8819 28.2711V28.4021C21.1156 28.5604 22.0545 28.9889 22.6987 29.6877C23.3483 30.381 23.6704 31.2489 23.6649 32.2916C23.6704 33.2469 23.3947 34.0958 22.8379 34.8382C22.2865 35.5807 21.525 36.1648 20.5533 36.5906C19.5816 37.0164 18.468 37.2293 17.2124 37.2293ZM36.5066 34.6745L26.7213 24.9056L28.8667 22.7356L38.6601 32.5291L36.5066 34.6745ZM28.8667 34.6745L26.7213 32.5291L36.5066 22.7356L38.6601 24.9056L28.8667 34.6745ZM41.8864 37V34.4452L47.8558 28.9179C48.3635 28.4266 48.7893 27.9845 49.1332 27.5914C49.4826 27.1984 49.7474 26.8135 49.9275 26.4368C50.1077 26.0547 50.1977 25.6425 50.1977 25.2004C50.1977 24.7091 50.0858 24.286 49.862 23.9311C49.6382 23.5709 49.3325 23.2952 48.9449 23.1041C48.5573 22.9076 48.1179 22.8093 47.6265 22.8093C47.1134 22.8093 46.6658 22.913 46.2836 23.1205C45.9015 23.3279 45.6067 23.6254 45.3993 24.013C45.1918 24.4006 45.0881 24.8619 45.0881 25.3969H41.7226C41.7226 24.2996 41.971 23.347 42.4678 22.5391C42.9646 21.7312 43.6606 21.1061 44.5559 20.6639C45.4511 20.2218 46.4829 20.0007 47.6511 20.0007C48.8521 20.0007 49.8975 20.2136 50.7873 20.6394C51.6826 21.0597 52.3786 21.6438 52.8754 22.3917C53.3721 23.1396 53.6205 23.9967 53.6205 24.9629C53.6205 25.5961 53.495 26.2212 53.2439 26.8381C52.9982 27.4549 52.5588 28.14 51.9255 28.8934C51.2923 29.6413 50.3997 30.5393 49.2479 31.5874L46.7995 33.9866V34.1013H53.8416V37H41.8864Z"/>
</mask>
<path d="M17.2124 37.2293C15.9896 37.2293 14.9005 37.0191 13.9452 36.5988C12.9953 36.173 12.2447 35.5888 11.6933 34.8464C11.1474 34.0985 10.8663 33.236 10.8499 32.2589H14.4201C14.442 32.6683 14.5757 33.0286 14.8214 33.3397C15.0725 33.6454 15.4055 33.8829 15.8204 34.0521C16.2352 34.2214 16.702 34.306 17.2206 34.306C17.761 34.306 18.2387 34.2104 18.6536 34.0194C19.0685 33.8283 19.3933 33.5636 19.628 33.2251C19.8627 32.8866 19.9801 32.4963 19.9801 32.0541C19.9801 31.6065 19.8546 31.2107 19.6034 30.8668C19.3578 30.5174 19.003 30.2445 18.5389 30.048C18.0804 29.8514 17.5345 29.7532 16.9012 29.7532H15.3372V27.1492H16.9012C17.4362 27.1492 17.9084 27.0564 18.3178 26.8708C18.7327 26.6852 19.0548 26.4286 19.2841 26.1011C19.5134 25.7681 19.628 25.3805 19.628 24.9383C19.628 24.518 19.527 24.1495 19.325 23.8329C19.1285 23.5108 18.8501 23.2597 18.4898 23.0795C18.135 22.8994 17.7201 22.8093 17.2452 22.8093C16.7648 22.8093 16.3253 22.8967 15.9268 23.0714C15.5283 23.2406 15.2089 23.4835 14.9687 23.8001C14.7286 24.1168 14.6003 24.488 14.5839 24.9138H11.1857C11.202 23.9475 11.4777 23.0959 12.0127 22.359C12.5477 21.622 13.2683 21.0461 14.1745 20.6312C15.0861 20.2108 16.1151 20.0007 17.2615 20.0007C18.4188 20.0007 19.4315 20.2108 20.2995 20.6312C21.1674 21.0515 21.8416 21.6193 22.322 22.3344C22.8079 23.0441 23.0481 23.8411 23.0426 24.7254C23.0481 25.6644 22.756 26.4477 22.1664 27.0755C21.5823 27.7033 20.8208 28.1018 19.8819 28.2711V28.4021C21.1156 28.5604 22.0545 28.9889 22.6987 29.6877C23.3483 30.381 23.6704 31.2489 23.6649 32.2916C23.6704 33.2469 23.3947 34.0958 22.8379 34.8382C22.2865 35.5807 21.525 36.1648 20.5533 36.5906C19.5816 37.0164 18.468 37.2293 17.2124 37.2293ZM36.5066 34.6745L26.7213 24.9056L28.8667 22.7356L38.6601 32.5291L36.5066 34.6745ZM28.8667 34.6745L26.7213 32.5291L36.5066 22.7356L38.6601 24.9056L28.8667 34.6745ZM41.8864 37V34.4452L47.8558 28.9179C48.3635 28.4266 48.7893 27.9845 49.1332 27.5914C49.4826 27.1984 49.7474 26.8135 49.9275 26.4368C50.1077 26.0547 50.1977 25.6425 50.1977 25.2004C50.1977 24.7091 50.0858 24.286 49.862 23.9311C49.6382 23.5709 49.3325 23.2952 48.9449 23.1041C48.5573 22.9076 48.1179 22.8093 47.6265 22.8093C47.1134 22.8093 46.6658 22.913 46.2836 23.1205C45.9015 23.3279 45.6067 23.6254 45.3993 24.013C45.1918 24.4006 45.0881 24.8619 45.0881 25.3969H41.7226C41.7226 24.2996 41.971 23.347 42.4678 22.5391C42.9646 21.7312 43.6606 21.1061 44.5559 20.6639C45.4511 20.2218 46.4829 20.0007 47.6511 20.0007C48.8521 20.0007 49.8975 20.2136 50.7873 20.6394C51.6826 21.0597 52.3786 21.6438 52.8754 22.3917C53.3721 23.1396 53.6205 23.9967 53.6205 24.9629C53.6205 25.5961 53.495 26.2212 53.2439 26.8381C52.9982 27.4549 52.5588 28.14 51.9255 28.8934C51.2923 29.6413 50.3997 30.5393 49.2479 31.5874L46.7995 33.9866V34.1013H53.8416V37H41.8864Z" fill="white"/>
<path d="M13.9452 36.5988L13.6083 37.3503L13.6135 37.3526L13.9452 36.5988ZM11.6933 34.8464L11.0281 35.332L11.0322 35.3374L11.6933 34.8464ZM10.8499 32.2589V31.4353H10.0125L10.0265 32.2727L10.8499 32.2589ZM14.4201 32.2589L15.2425 32.215L15.2009 31.4353H14.4201V32.2589ZM14.8214 33.3397L14.175 33.85L14.1799 33.8563L14.185 33.8625L14.8214 33.3397ZM15.8204 34.0521L15.5093 34.8147L15.5093 34.8147L15.8204 34.0521ZM18.6536 34.0194L18.3091 33.2714L18.3091 33.2714L18.6536 34.0194ZM19.628 33.2251L20.3047 33.6944L20.3047 33.6944L19.628 33.2251ZM19.6034 30.8668L18.9298 31.3405L18.934 31.3465L18.9383 31.3524L19.6034 30.8668ZM18.5389 30.048L18.2145 30.8049L18.2178 30.8063L18.5389 30.048ZM15.3372 29.7532H14.5137V30.5767H15.3372V29.7532ZM15.3372 27.1492V26.3257H14.5137V27.1492H15.3372ZM18.3178 26.8708L17.9815 26.1191L17.9778 26.1208L18.3178 26.8708ZM19.2841 26.1011L19.9588 26.5734L19.9624 26.5681L19.2841 26.1011ZM19.325 23.8329L18.622 24.2618L18.6263 24.2689L18.6307 24.2758L19.325 23.8329ZM18.4898 23.0795L18.117 23.8139L18.1215 23.8161L18.4898 23.0795ZM15.9268 23.0714L16.2487 23.8294L16.2574 23.8256L15.9268 23.0714ZM14.9687 23.8001L15.6248 24.2979L15.6248 24.2979L14.9687 23.8001ZM14.5839 24.9138V25.7373H15.3764L15.4068 24.9454L14.5839 24.9138ZM11.1857 24.9138L10.3623 24.8998L10.3481 25.7373H11.1857V24.9138ZM12.0127 22.359L12.6791 22.8427L12.6791 22.8427L12.0127 22.359ZM14.1745 20.6312L14.5173 21.38L14.5193 21.379L14.1745 20.6312ZM20.2995 20.6312L20.6584 19.89L20.6584 19.89L20.2995 20.6312ZM22.322 22.3344L21.6384 22.7936L21.6425 22.7996L22.322 22.3344ZM23.0426 24.7254L22.219 24.7203L22.2191 24.7302L23.0426 24.7254ZM22.1664 27.0755L21.5661 26.5118L21.5635 26.5146L22.1664 27.0755ZM19.8819 28.2711L19.7358 27.4606L19.0583 27.5827V28.2711H19.8819ZM19.8819 28.4021H19.0583V29.1267L19.777 29.2189L19.8819 28.4021ZM22.6987 29.6877L22.0932 30.2459L22.0978 30.2508L22.6987 29.6877ZM23.6649 32.2916L22.8414 32.2873L22.8414 32.2963L23.6649 32.2916ZM22.8379 34.8382L22.1791 34.3441L22.1768 34.3472L22.8379 34.8382ZM20.5533 36.5906L20.2228 35.8363L20.2228 35.8363L20.5533 36.5906ZM17.2124 37.2293V36.4057C16.0844 36.4057 15.1113 36.2121 14.2769 35.845L13.9452 36.5988L13.6135 37.3526C14.6898 37.8261 15.8948 38.0528 17.2124 38.0528V37.2293ZM13.9452 36.5988L14.2821 35.8473C13.4443 35.4718 12.8117 34.9711 12.3545 34.3554L11.6933 34.8464L11.0322 35.3374C11.6777 36.2066 12.5463 36.8742 13.6083 37.3502L13.9452 36.5988ZM11.6933 34.8464L12.3585 34.3609C11.9185 33.758 11.687 33.0624 11.6733 32.2451L10.8499 32.2589L10.0265 32.2727C10.0456 33.4096 10.3764 34.4391 11.0282 35.332L11.6933 34.8464ZM10.8499 32.2589V33.0824H14.4201V32.2589V31.4353H10.8499V32.2589ZM14.4201 32.2589L13.5978 32.3027C13.6283 32.8759 13.8201 33.4005 14.175 33.85L14.8214 33.3397L15.4677 32.8294C15.3313 32.6566 15.2556 32.4607 15.2425 32.215L14.4201 32.2589ZM14.8214 33.3397L14.185 33.8625C14.5339 34.2872 14.9848 34.6007 15.5093 34.8147L15.8204 34.0521L16.1314 33.2896C15.8262 33.1651 15.611 33.0037 15.4577 32.817L14.8214 33.3397ZM15.8204 34.0521L15.5093 34.8147C16.0372 35.03 16.6119 35.1295 17.2206 35.1295V34.306V33.4825C16.792 33.4825 16.4332 33.4127 16.1314 33.2896L15.8204 34.0521ZM17.2206 34.306V35.1295C17.8584 35.1295 18.4572 35.0165 18.9981 34.7674L18.6536 34.0194L18.3091 33.2714C18.0202 33.4044 17.6636 33.4825 17.2206 33.4825V34.306ZM18.6536 34.0194L18.9981 34.7674C19.5316 34.5217 19.9772 34.1666 20.3047 33.6944L19.628 33.2251L18.9513 32.7558C18.8093 32.9605 18.6053 33.135 18.3091 33.2714L18.6536 34.0194ZM19.628 33.2251L20.3047 33.6944C20.6422 33.2078 20.8036 32.6511 20.8036 32.0541H19.9801H19.1566C19.1566 32.3416 19.0833 32.5655 18.9513 32.7558L19.628 33.2251ZM19.9801 32.0541H20.8036C20.8036 31.4414 20.6281 30.8736 20.2685 30.3812L19.6034 30.8668L18.9383 31.3524C19.081 31.5479 19.1566 31.7716 19.1566 32.0541H19.9801ZM19.6034 30.8668L20.2771 30.3931C19.928 29.8966 19.4401 29.5353 18.8601 29.2896L18.5389 30.048L18.2178 30.8063C18.5658 30.9537 18.7876 31.1382 18.9298 31.3405L19.6034 30.8668ZM18.5389 30.048L18.8633 29.291C18.2787 29.0404 17.6171 28.9296 16.9012 28.9296V29.7532V30.5767C17.4519 30.5767 17.8821 30.6624 18.2145 30.8049L18.5389 30.048ZM16.9012 29.7532V28.9296H15.3372V29.7532V30.5767H16.9012V29.7532ZM15.3372 29.7532H16.1608V27.1492H15.3372H14.5137V29.7532H15.3372ZM15.3372 27.1492V27.9728H16.9012V27.1492V26.3257H15.3372V27.1492ZM16.9012 27.1492V27.9728C17.5315 27.9728 18.1233 27.8632 18.6579 27.6209L18.3178 26.8708L17.9778 26.1208C17.6936 26.2496 17.3409 26.3257 16.9012 26.3257V27.1492ZM18.3178 26.8708L18.6541 27.6226C19.186 27.3846 19.6329 27.0389 19.9588 26.5734L19.2841 26.1011L18.6094 25.6288C18.4768 25.8183 18.2794 25.9858 17.9815 26.1191L18.3178 26.8708ZM19.2841 26.1011L19.9624 26.5681C20.2951 26.0849 20.4515 25.5309 20.4515 24.9383H19.628H18.8045C18.8045 25.2301 18.7316 25.4513 18.6058 25.6341L19.2841 26.1011ZM19.628 24.9383H20.4515C20.4515 24.3804 20.3155 23.8543 20.0193 23.39L19.325 23.8329L18.6307 24.2758C18.7385 24.4447 18.8045 24.6556 18.8045 24.9383H19.628ZM19.325 23.8329L20.028 23.4039C19.7455 22.9409 19.3469 22.5873 18.8581 22.343L18.4898 23.0795L18.1215 23.8161C18.3533 23.932 18.5115 24.0807 18.622 24.2618L19.325 23.8329ZM18.4898 23.0795L18.8626 22.3452C18.3719 22.0961 17.8248 21.9858 17.2452 21.9858V22.8093V23.6329C17.6154 23.6329 17.898 23.7027 18.117 23.8139L18.4898 23.0795ZM17.2452 22.8093V21.9858C16.6629 21.9858 16.1093 22.0922 15.5962 22.3171L15.9268 23.0714L16.2574 23.8256C16.5413 23.7012 16.8667 23.6329 17.2452 23.6329V22.8093ZM15.9268 23.0714L15.6049 22.3133C15.0864 22.5335 14.6473 22.8613 14.3127 23.3024L14.9687 23.8001L15.6248 24.2979C15.7706 24.1057 15.9702 23.9476 16.2487 23.8294L15.9268 23.0714ZM14.9687 23.8001L14.3127 23.3024C13.9629 23.7635 13.7833 24.3004 13.761 24.8821L14.5839 24.9138L15.4068 24.9454C15.4172 24.6756 15.4943 24.47 15.6248 24.2979L14.9687 23.8001ZM14.5839 24.9138V24.0902H11.1857V24.9138V25.7373H14.5839V24.9138ZM11.1857 24.9138L12.0091 24.9277C12.0228 24.1196 12.2497 23.4343 12.6791 22.8427L12.0127 22.359L11.3463 21.8752C10.7057 22.7575 10.3813 23.7755 10.3623 24.8998L11.1857 24.9138ZM12.0127 22.359L12.6791 22.8427C13.1231 22.2311 13.7275 21.7416 14.5173 21.38L14.1745 20.6312L13.8316 19.8824C12.8091 20.3506 11.9722 21.0129 11.3463 21.8752L12.0127 22.359ZM14.1745 20.6312L14.5193 21.379C15.3085 21.0152 16.2173 20.8242 17.2615 20.8242V20.0007V19.1771C16.013 19.1771 14.8638 19.4065 13.8296 19.8833L14.1745 20.6312ZM17.2615 20.0007V20.8242C18.3191 20.8242 19.2046 21.016 19.9405 21.3724L20.2995 20.6312L20.6584 19.89C19.6583 19.4057 18.5186 19.1771 17.2615 19.1771V20.0007ZM20.2995 20.6312L19.9405 21.3724C20.6933 21.7369 21.2488 22.2135 21.6384 22.7936L22.322 22.3344L23.0056 21.8752C22.4345 21.025 21.6416 20.3661 20.6584 19.89L20.2995 20.6312ZM22.322 22.3344L21.6425 22.7996C22.0307 23.3667 22.2236 23.9987 22.2191 24.7203L23.0426 24.7254L23.8661 24.7305C23.8726 23.6834 23.585 22.7214 23.0016 21.8692L22.322 22.3344ZM23.0426 24.7254L22.2191 24.7302C22.2235 25.4789 21.9975 26.0524 21.5661 26.5118L22.1664 27.0755L22.7668 27.6393C23.5145 26.8431 23.8727 25.8499 23.8661 24.7206L23.0426 24.7254ZM22.1664 27.0755L21.5635 26.5146C21.1143 26.9973 20.5202 27.3192 19.7358 27.4606L19.8819 28.2711L20.0279 29.0815C21.1214 28.8845 22.0503 28.4093 22.7694 27.6365L22.1664 27.0755ZM19.8819 28.2711H19.0583V28.4021H19.8819H20.7054V28.2711H19.8819ZM19.8819 28.4021L19.777 29.2189C20.8788 29.3603 21.6163 29.7285 22.0932 30.2459L22.6987 29.6877L23.3042 29.1295C22.4928 28.2493 21.3524 27.7605 19.9867 27.5852L19.8819 28.4021ZM22.6987 29.6877L22.0978 30.2508C22.5887 30.7747 22.8459 31.4329 22.8414 32.2873L23.6649 32.2916L24.4885 32.2959C24.4949 31.065 24.1079 29.9872 23.2996 29.1246L22.6987 29.6877ZM23.6649 32.2916L22.8414 32.2963C22.8459 33.0775 22.6247 33.75 22.1791 34.3441L22.8379 34.8382L23.4967 35.3324C24.1648 34.4416 24.4949 33.4163 24.4885 32.2869L23.6649 32.2916ZM22.8379 34.8382L22.1768 34.3472C21.7227 34.9586 21.0828 35.4594 20.2228 35.8363L20.5533 36.5906L20.8838 37.3449C21.9672 36.8701 22.8504 36.2027 23.4991 35.3292L22.8379 34.8382ZM20.5533 36.5906L20.2228 35.8363C19.3726 36.2088 18.3748 36.4057 17.2124 36.4057V37.2293V38.0528C18.5612 38.0528 19.7906 37.8239 20.8838 37.3449L20.5533 36.5906ZM36.5066 34.6745L35.9247 35.2573L36.5059 35.8375L37.0878 35.2579L36.5066 34.6745ZM26.7213 24.9056L26.1357 24.3266L25.5595 24.9094L26.1395 25.4884L26.7213 24.9056ZM28.8667 22.7356L29.449 22.1533L28.8634 21.5677L28.2811 22.1566L28.8667 22.7356ZM38.6601 32.5291L39.2414 33.1125L39.8259 32.5302L39.2425 31.9468L38.6601 32.5291ZM28.8667 34.6745L28.2844 35.2568L28.866 35.8384L29.4483 35.2575L28.8667 34.6745ZM26.7213 32.5291L26.1387 31.947L25.5569 32.5293L26.139 33.1114L26.7213 32.5291ZM36.5066 22.7356L37.0911 22.1555L36.5085 21.5685L35.924 22.1535L36.5066 22.7356ZM38.6601 24.9056L39.2417 25.4886L39.8233 24.9085L39.2447 24.3255L38.6601 24.9056ZM36.5066 34.6745L37.0884 34.0917L27.3031 24.3228L26.7213 24.9056L26.1395 25.4884L35.9247 35.2573L36.5066 34.6745ZM26.7213 24.9056L27.3069 25.4846L29.4523 23.3146L28.8667 22.7356L28.2811 22.1566L26.1357 24.3266L26.7213 24.9056ZM28.8667 22.7356L28.2844 23.3179L38.0778 33.1114L38.6601 32.5291L39.2425 31.9468L29.449 22.1533L28.8667 22.7356ZM38.6601 32.5291L38.0789 31.9456L35.9253 34.091L36.5066 34.6745L37.0878 35.2579L39.2414 33.1125L38.6601 32.5291ZM28.8667 34.6745L29.449 34.0921L27.3036 31.9468L26.7213 32.5291L26.139 33.1114L28.2844 35.2568L28.8667 34.6745ZM26.7213 32.5291L27.3039 33.1112L37.0891 23.3177L36.5066 22.7356L35.924 22.1535L26.1387 31.947L26.7213 32.5291ZM36.5066 22.7356L35.922 23.3157L38.0756 25.4857L38.6601 24.9056L39.2447 24.3255L37.0911 22.1555L36.5066 22.7356ZM38.6601 24.9056L38.0785 24.3225L28.2851 34.0914L28.8667 34.6745L29.4483 35.2575L39.2417 25.4886L38.6601 24.9056ZM41.8864 37H41.0629V37.8235H41.8864V37ZM41.8864 34.4452L41.3269 33.8409L41.0629 34.0854V34.4452H41.8864ZM47.8558 28.9179L48.4153 29.5222L48.422 29.5161L48.4285 29.5097L47.8558 28.9179ZM49.1332 27.5914L48.5177 27.0443L48.5135 27.0491L49.1332 27.5914ZM49.9275 26.4368L50.6705 26.7922L50.6724 26.788L49.9275 26.4368ZM49.862 23.9311L49.1625 24.3657L49.1655 24.3705L49.862 23.9311ZM48.9449 23.1041L48.5724 23.8387L48.5808 23.8428L48.9449 23.1041ZM45.3993 24.013L46.1254 24.4016L46.1254 24.4016L45.3993 24.013ZM45.0881 25.3969V26.2204H45.9116V25.3969H45.0881ZM41.7226 25.3969H40.8991V26.2204H41.7226V25.3969ZM42.4678 22.5391L43.1693 22.9704L43.1693 22.9704L42.4678 22.5391ZM44.5559 20.6639L44.1912 19.9256L44.1912 19.9256L44.5559 20.6639ZM50.7873 20.6394L50.4318 21.3822L50.4373 21.3848L50.7873 20.6394ZM52.8754 22.3917L52.1894 22.8474L52.1894 22.8474L52.8754 22.3917ZM53.2439 26.8381L52.4811 26.5276L52.4788 26.5334L53.2439 26.8381ZM51.9255 28.8934L52.554 29.4255L52.5559 29.4233L51.9255 28.8934ZM49.2479 31.5874L48.6936 30.9783L48.6824 30.9885L48.6715 30.9992L49.2479 31.5874ZM46.7995 33.9866L46.2231 33.3984L45.976 33.6406V33.9866H46.7995ZM46.7995 34.1013H45.976V34.9248H46.7995V34.1013ZM53.8416 34.1013H54.6652V33.2777H53.8416V34.1013ZM53.8416 37V37.8235H54.6652V37H53.8416ZM41.8864 37H42.7099V34.4452H41.8864H41.0629V37H41.8864ZM41.8864 34.4452L42.4459 35.0495L48.4153 29.5222L47.8558 28.9179L47.2963 28.3137L41.3269 33.8409L41.8864 34.4452ZM47.8558 28.9179L48.4285 29.5097C48.9473 29.0077 49.3899 28.5487 49.753 28.1337L49.1332 27.5914L48.5135 27.0491C48.1887 27.4203 47.7797 27.8456 47.2831 28.3262L47.8558 28.9179ZM49.1332 27.5914L49.7487 28.1385C50.1367 27.702 50.4497 27.2537 50.6705 26.7921L49.9275 26.4368L49.1846 26.0815C49.045 26.3733 48.8285 26.6947 48.5177 27.0443L49.1332 27.5914ZM49.9275 26.4368L50.6724 26.788C50.9068 26.2909 51.0213 25.7582 51.0213 25.2004H50.1977H49.3742C49.3742 25.5269 49.3086 25.8185 49.1826 26.0857L49.9275 26.4368ZM50.1977 25.2004H51.0213C51.0213 24.5806 50.8787 23.9993 50.5585 23.4918L49.862 23.9311L49.1655 24.3705C49.293 24.5727 49.3742 24.8375 49.3742 25.2004H50.1977ZM49.862 23.9311L50.5615 23.4966C50.2549 23.003 49.8319 22.6232 49.309 22.3655L48.9449 23.1041L48.5808 23.8428C48.8331 23.9671 49.0214 24.1387 49.1625 24.3657L49.862 23.9311ZM48.9449 23.1041L49.3173 22.3696C48.8 22.1073 48.2302 21.9858 47.6265 21.9858V22.8093V23.6329C48.0055 23.6329 48.3146 23.7079 48.5725 23.8386L48.9449 23.1041ZM47.6265 22.8093V21.9858C47.0009 21.9858 46.4135 22.1129 45.8907 22.3967L46.2836 23.1205L46.6765 23.8442C46.918 23.7132 47.2259 23.6329 47.6265 23.6329V22.8093ZM46.2836 23.1205L45.8907 22.3967C45.3655 22.6818 44.9557 23.0966 44.6732 23.6244L45.3993 24.013L46.1254 24.4016C46.2578 24.1543 46.4375 23.974 46.6765 23.8442L46.2836 23.1205ZM45.3993 24.013L44.6732 23.6244C44.3893 24.1548 44.2646 24.7555 44.2646 25.3969H45.0881H45.9116C45.9116 24.9684 45.9944 24.6464 46.1254 24.4016L45.3993 24.013ZM45.0881 25.3969V24.5734H41.7226V25.3969V26.2204H45.0881V25.3969ZM41.7226 25.3969H42.5462C42.5462 24.4276 42.7642 23.6294 43.1693 22.9704L42.4678 22.5391L41.7663 22.1078C41.1779 23.0647 40.8991 24.1717 40.8991 25.3969H41.7226ZM42.4678 22.5391L43.1693 22.9704C43.5806 22.3016 44.1565 21.7797 44.9205 21.4023L44.5559 20.6639L44.1912 19.9256C43.1647 20.4326 42.3486 21.1607 41.7663 22.1078L42.4678 22.5391ZM44.5559 20.6639L44.9205 21.4023C45.6847 21.0249 46.588 20.8242 47.6511 20.8242V20.0007V19.1771C46.3778 19.1771 45.2176 19.4186 44.1912 19.9256L44.5559 20.6639ZM47.6511 20.0007V20.8242C48.7553 20.8242 49.6745 21.0198 50.4318 21.3822L50.7873 20.6394L51.1428 19.8965C50.1205 19.4073 48.9488 19.1771 47.6511 19.1771V20.0007ZM50.7873 20.6394L50.4373 21.3848C51.2105 21.7478 51.7843 22.2375 52.1894 22.8474L52.8754 22.3917L53.5614 21.9361C52.9729 21.0501 52.1547 20.3716 51.1373 19.8939L50.7873 20.6394ZM52.8754 22.3917L52.1894 22.8474C52.5896 23.4498 52.797 24.1458 52.797 24.9629H53.6205H54.4441C54.4441 23.8475 54.1547 22.8294 53.5614 21.9361L52.8754 22.3917ZM53.6205 24.9629H52.797C52.797 25.4842 52.6942 26.0041 52.4811 26.5276L53.2439 26.8381L54.0066 27.1486C54.2958 26.4383 54.4441 25.7081 54.4441 24.9629H53.6205ZM53.2439 26.8381L52.4788 26.5334C52.2773 27.0392 51.8963 27.6483 51.2951 28.3635L51.9255 28.8934L52.5559 29.4233C53.2212 28.6318 53.7191 27.8706 54.009 27.1428L53.2439 26.8381ZM51.9255 28.8934L51.297 28.3612C50.6962 29.0709 49.8325 29.942 48.6936 30.9783L49.2479 31.5874L49.8021 32.1965C50.9669 31.1366 51.8884 30.2117 52.554 29.4255L51.9255 28.8934ZM49.2479 31.5874L48.6715 30.9992L46.2231 33.3984L46.7995 33.9866L47.3759 34.5748L49.8243 32.1756L49.2479 31.5874ZM46.7995 33.9866H45.976V34.1013H46.7995H47.623V33.9866H46.7995ZM46.7995 34.1013V34.9248H53.8416V34.1013V33.2777H46.7995V34.1013ZM53.8416 34.1013H53.0181V37H53.8416H54.6652V34.1013H53.8416ZM53.8416 37V36.1765H41.8864V37V37.8235H53.8416V37Z" fill="#2B3F46" mask="url(#path-33-outside-1_2025_1114)"/>
<defs>
<linearGradient id="paint0_linear_2025_1114" x1="35.8411" y1="35.864" x2="-1.88188" y2="2.08424" gradientUnits="userSpaceOnUse">
<stop stop-color="#FFD5EF"/>
<stop offset="1" stop-color="#EFBDFD"/>
</linearGradient>
<linearGradient id="paint1_linear_2025_1114" x1="26.8809" y1="4.483" x2="25.174" y2="-4.68761" gradientUnits="userSpaceOnUse">
<stop stop-color="#F95457"/>
<stop offset="1" stop-color="#FDBDCB"/>
</linearGradient>
<linearGradient id="paint2_linear_2025_1114" x1="26.8809" y1="4.483" x2="25.174" y2="-4.68761" gradientUnits="userSpaceOnUse">
<stop stop-color="#F95457"/>
<stop offset="1" stop-color="#FDBDCB"/>
</linearGradient>
<linearGradient id="paint3_linear_2025_1114" x1="4.71795" y1="43.6522" x2="1.80375" y2="43.0282" gradientUnits="userSpaceOnUse">
<stop stop-color="#F95457"/>
<stop offset="1" stop-color="#FDBDCB"/>
</linearGradient>
<linearGradient id="paint4_linear_2025_1114" x1="35.7669" y1="58.0257" x2="30.2155" y2="50.8928" gradientUnits="userSpaceOnUse">
<stop stop-color="#F95457"/>
<stop offset="1" stop-color="#FDBDCB"/>
</linearGradient>
<linearGradient id="paint5_linear_2025_1114" x1="60.6657" y1="43.6522" x2="57.7515" y2="43.0282" gradientUnits="userSpaceOnUse">
<stop stop-color="#F95457"/>
<stop offset="1" stop-color="#FDBDCB"/>
</linearGradient>
<linearGradient id="paint6_linear_2025_1114" x1="-1.09962e-05" y1="-0.0328651" x2="30.641" y2="-4.05264" gradientUnits="userSpaceOnUse">
<stop stop-color="#D74446"/>
<stop offset="1" stop-color="#E165B8"/>
</linearGradient>
<linearGradient id="paint7_linear_2025_1114" x1="-1.11276e-05" y1="-0.033258" x2="31.0073" y2="-4.10108" gradientUnits="userSpaceOnUse">
<stop stop-color="#D74446"/>
<stop offset="1" stop-color="#E165B8"/>
</linearGradient>
<linearGradient id="paint8_linear_2025_1114" x1="-8.34573e-06" y1="-0.00415724" x2="14.606" y2="-11.5011" gradientUnits="userSpaceOnUse">
<stop stop-color="#D1369D"/>
<stop offset="1" stop-color="#B31E20"/>
</linearGradient>
<linearGradient id="paint9_linear_2025_1114" x1="-8.34573e-06" y1="-0.00415724" x2="14.606" y2="-11.5011" gradientUnits="userSpaceOnUse">
<stop stop-color="#D74446"/>
<stop offset="1" stop-color="#E165B8"/>
</linearGradient>
<linearGradient id="paint10_linear_2025_1114" x1="2.32056" y1="36.6188" x2="3.73346" y2="36.5744" gradientUnits="userSpaceOnUse">
<stop stop-color="#D74446"/>
<stop offset="1" stop-color="#D1369D"/>
</linearGradient>
<linearGradient id="paint11_linear_2025_1114" x1="27.5452" y1="52.5135" x2="34.1403" y2="51.2721" gradientUnits="userSpaceOnUse">
<stop stop-color="#B31E20"/>
<stop offset="1" stop-color="#D74446"/>
</linearGradient>
<linearGradient id="paint12_linear_2025_1114" x1="59.0066" y1="36.6188" x2="60.4195" y2="36.5744" gradientUnits="userSpaceOnUse">
<stop stop-color="#E165B8"/>
<stop offset="1" stop-color="#D74446"/>
</linearGradient>
<clipPath id="clip0_2025_1114">
<rect width="35.8992" height="35.8992" rx="4.44179" transform="matrix(0.866025 0.5 -0.866025 0.5 31.9104 19)" fill="white"/>
</clipPath>
<clipPath id="clip1_2025_1114">
<rect width="36.3731" height="36.3731" rx="4.50041" transform="matrix(0.866025 0.5 -0.866025 0.5 31.5 18.4604)" fill="white"/>
</clipPath>
</defs>
</svg>
